<?xml version="1.0" encoding="UTF-8"?>
<svg id="Layer_2" data-name="Layer 2" xmlns="http://www.w3.org/2000/svg" viewBox="0 0 220.21 50.27">
  <defs>
    <style>
      .cls-1 {
        stroke-width: 2px;
      }

      .cls-1, .cls-2 {
        fill: none;
        stroke: #fff;
        stroke-miterlimit: 10;
      }

      .cls-2 {
        stroke-width: 1.42px;
      }

      .cls-3 {
        fill: #fff;
      }

      .cls-3, .cls-4 {
        stroke-width: 0px;
      }

      .cls-4 {
        fill: #0239a1;
      }
    </style>
  </defs>
  <g id="Design">
    <g>
      <g>
        <circle class="cls-3" cx="167.87" cy="41.22" r="6.3"/>
        <circle class="cls-2" cx="167.87" cy="41.22" r="8.34"/>
      </g>
      <g>
        <path class="cls-4" d="M0,43.08l5.78-5.19c.29-.27.59-.57.88-.9s.44-.73.44-1.18c0-.5-.18-.9-.55-1.19-.36-.29-.79-.43-1.28-.43-.59,0-1.05.18-1.38.55s-.51.81-.56,1.34l-3.15-.23c.04-.77.2-1.44.48-2,.28-.57.65-1.04,1.11-1.42s1-.66,1.63-.85c.62-.19,1.3-.28,2.03-.28.67,0,1.3.09,1.89.28.59.19,1.1.47,1.53.84.43.37.77.84,1.02,1.4.24.56.37,1.21.37,1.95,0,.48-.05.91-.15,1.29-.1.38-.23.74-.41,1.05-.18.32-.38.61-.62.87-.24.27-.5.52-.78.78l-4.52,3.88h6.59v2.77H0v-3.34Z"/>
        <path class="cls-4" d="M12.1,38.99c0-.88.08-1.78.24-2.69.16-.91.45-1.74.86-2.48s.98-1.35,1.69-1.82c.71-.47,1.62-.7,2.73-.7s2.02.23,2.73.7c.71.47,1.28,1.07,1.69,1.82.41.74.7,1.57.86,2.48.16.91.24,1.81.24,2.69s-.08,1.78-.24,2.69c-.16.91-.45,1.74-.86,2.48-.41.74-.98,1.35-1.69,1.82-.71.47-1.62.7-2.73.7s-2.02-.23-2.73-.7c-.71-.47-1.28-1.07-1.69-1.82s-.7-1.57-.86-2.48c-.16-.91-.24-1.81-.24-2.69ZM15.25,38.99c0,.39.02.86.05,1.41.03.55.13,1.07.28,1.58.15.5.39.93.7,1.28s.76.52,1.33.52,1-.17,1.32-.52c.32-.35.56-.78.71-1.28.15-.5.25-1.03.28-1.58.03-.55.05-1.01.05-1.41s-.02-.86-.05-1.41c-.04-.55-.13-1.07-.28-1.58-.15-.5-.39-.93-.71-1.28-.32-.35-.76-.52-1.32-.52s-1.02.17-1.33.52c-.31.35-.55.78-.7,1.28-.15.5-.25,1.03-.28,1.58-.04.55-.05,1.01-.05,1.41Z"/>
        <path class="cls-4" d="M23.94,35.46c0-.57.11-1.11.33-1.62.22-.5.51-.95.88-1.32.37-.38.81-.67,1.31-.89.5-.22,1.04-.33,1.62-.33s1.11.11,1.62.33c.5.22.94.51,1.31.89s.67.82.88,1.32c.22.5.33,1.04.33,1.62s-.11,1.11-.33,1.62c-.22.5-.51.94-.88,1.32-.37.38-.81.68-1.31.89-.5.22-1.04.33-1.62.33s-1.11-.11-1.62-.33c-.5-.22-.94-.51-1.31-.89-.37-.38-.67-.82-.88-1.32-.22-.5-.33-1.04-.33-1.62ZM30.07,35.46c0-.56-.19-1.04-.58-1.43-.39-.39-.86-.59-1.42-.59s-1.03.2-1.42.59c-.39.39-.58.87-.58,1.43s.19,1.04.58,1.43c.38.39.86.59,1.42.59s1.03-.2,1.42-.59c.38-.39.58-.87.58-1.43ZM36.75,30.88l1.76.99-8.67,15.22-1.6-.9,8.5-15.31ZM34.5,42.49c0-.57.11-1.11.33-1.62.22-.5.51-.95.88-1.32.37-.38.81-.67,1.31-.89.5-.22,1.04-.33,1.62-.33s1.11.11,1.62.33c.5.22.94.51,1.31.89s.67.82.88,1.32c.22.5.33,1.04.33,1.62s-.11,1.12-.33,1.63c-.22.51-.51.96-.88,1.33s-.81.68-1.31.89-1.04.33-1.62.33-1.11-.11-1.62-.33-.94-.51-1.31-.89c-.37-.38-.67-.82-.88-1.33-.22-.51-.33-1.05-.33-1.63ZM40.64,42.49c0-.56-.19-1.04-.58-1.43-.39-.39-.86-.59-1.42-.59s-1.03.2-1.42.59c-.39.39-.58.87-.58,1.43s.19,1.06.58,1.45c.38.39.86.59,1.42.59s1.03-.2,1.42-.59c.38-.39.58-.88.58-1.45Z"/>
        <path class="cls-4" d="M55.5,31.55h2.71l6.47,14.87h-3.7l-1.28-3.15h-5.77l-1.24,3.15h-3.61l6.43-14.87ZM56.76,35.88l-1.81,4.62h3.63l-1.83-4.62Z"/>
        <path class="cls-4" d="M65.81,30.54h3.15v15.88h-3.15v-15.88Z"/>
        <path class="cls-4" d="M81.06,46.42h-3.02v-1.39h-.04c-.11.2-.26.39-.43.59s-.39.37-.64.52c-.25.15-.54.28-.86.38-.32.1-.67.15-1.05.15-.8,0-1.45-.12-1.94-.37-.5-.25-.88-.58-1.16-1.02s-.46-.95-.55-1.53c-.09-.59-.14-1.22-.14-1.91v-5.63h3.15v5c0,.29.01.6.03.91.02.32.08.61.19.87s.27.48.48.65c.22.17.53.25.93.25s.74-.07.99-.22c.25-.15.44-.34.58-.59.13-.25.22-.52.26-.83.04-.31.06-.63.06-.97v-5.08h3.15v10.21Z"/>
        <path class="cls-4" d="M83.29,36.21h3.02v1.39h.04c.1-.2.24-.39.42-.59.18-.2.4-.37.65-.52s.54-.28.86-.38c.32-.1.67-.15,1.05-.15.71,0,1.35.15,1.9.44.55.29.97.76,1.25,1.39.36-.66.8-1.13,1.32-1.41s1.16-.42,1.91-.42c.69,0,1.26.12,1.73.35.47.23.84.55,1.11.95.27.4.47.87.59,1.41.12.54.18,1.12.18,1.73v6.03h-3.15v-5.94c0-.48-.1-.88-.3-1.23-.2-.34-.56-.51-1.08-.51-.36,0-.67.06-.91.18-.25.12-.44.28-.59.49s-.25.46-.31.73c-.06.28-.09.57-.09.88v5.4h-3.15v-5.4c0-.18,0-.41-.02-.67-.01-.27-.06-.52-.15-.76-.08-.24-.22-.44-.41-.61s-.47-.25-.83-.25c-.41,0-.73.07-.99.22-.25.15-.44.34-.58.59-.13.25-.22.52-.26.83s-.06.63-.06.97v5.08h-3.15v-10.21Z"/>
        <path class="cls-4" d="M101.35,33c0-.5.18-.93.54-1.29.36-.36.79-.54,1.29-.54s.93.18,1.29.54c.36.36.54.79.54,1.29s-.18.93-.54,1.29c-.36.36-.79.54-1.29.54s-.93-.18-1.29-.54c-.36-.36-.54-.79-.54-1.29ZM101.6,36.21h3.15v10.21h-3.15v-10.21Z"/>
        <path class="cls-4" d="M107.02,36.21h3.02v1.39h.04c.1-.2.24-.39.42-.59.18-.2.4-.37.65-.52s.54-.28.86-.38c.32-.1.67-.15,1.05-.15.8,0,1.44.12,1.93.37.49.25.87.58,1.14,1.02.27.43.46.95.56,1.53.1.59.15,1.23.15,1.91v5.63h-3.15v-5c0-.29-.01-.6-.03-.91-.02-.32-.08-.61-.19-.87-.1-.27-.27-.48-.48-.65-.22-.17-.53-.25-.93-.25s-.73.07-.99.22c-.25.15-.44.34-.58.59-.13.25-.22.52-.26.83s-.06.63-.06.97v5.08h-3.15v-10.21Z"/>
        <path class="cls-4" d="M128.9,46.42h-3.02v-1.39h-.04c-.11.2-.26.39-.43.59s-.39.37-.64.52c-.25.15-.54.28-.86.38-.32.1-.67.15-1.05.15-.8,0-1.45-.12-1.94-.37-.5-.25-.88-.58-1.16-1.02s-.46-.95-.55-1.53c-.09-.59-.14-1.22-.14-1.91v-5.63h3.15v5c0,.29.01.6.03.91.02.32.08.61.19.87s.27.48.48.65c.22.17.53.25.93.25s.74-.07.99-.22c.25-.15.44-.34.58-.59.13-.25.22-.52.26-.83.04-.31.06-.63.06-.97v-5.08h3.15v10.21Z"/>
        <path class="cls-4" d="M131.12,36.21h3.02v1.39h.04c.1-.2.24-.39.42-.59.18-.2.4-.37.65-.52s.54-.28.86-.38c.32-.1.67-.15,1.05-.15.71,0,1.35.15,1.9.44.55.29.97.76,1.25,1.39.36-.66.8-1.13,1.32-1.41s1.16-.42,1.91-.42c.69,0,1.26.12,1.73.35.47.23.84.55,1.11.95.27.4.47.87.59,1.41.12.54.18,1.12.18,1.73v6.03h-3.15v-5.94c0-.48-.1-.88-.3-1.23-.2-.34-.56-.51-1.08-.51-.36,0-.67.06-.91.18-.25.12-.44.28-.59.49s-.25.46-.31.73c-.06.28-.09.57-.09.88v5.4h-3.15v-5.4c0-.18,0-.41-.02-.67-.01-.27-.06-.52-.15-.76-.08-.24-.22-.44-.41-.61s-.47-.25-.83-.25c-.41,0-.73.07-.99.22-.25.15-.44.34-.58.59-.13.25-.22.52-.26.83s-.06.63-.06.97v5.08h-3.15v-10.21Z"/>
      </g>
      <line class="cls-1" x1="219.21" x2="219.21" y2="41.22"/>
      <line class="cls-1" x1="167.87" y1="41.22" x2="219.21" y2="41.22"/>
    </g>
  </g>
</svg>