<?xml version="1.0" encoding="utf-8"?>
<!-- Generator: Adobe Illustrator 27.9.1, SVG Export Plug-In . SVG Version: 6.00 Build 0)  -->
<svg version="1.1" xmlns="http://www.w3.org/2000/svg" xmlns:xlink="http://www.w3.org/1999/xlink" x="0px" y="0px"
	 viewBox="0 0 960 600" style="enable-background:new 0 0 960 600;" xml:space="preserve">
<style type="text/css">
	.st0{fill:url(#SVGID_1_);}
	.st1{fill:#0239A1;}
	.st2{fill:#0A1E3F;}
	.st3{fill:#A2DCF8;stroke:#231F20;stroke-miterlimit:10;}
	.st4{fill:#8BCEF0;stroke:#231F20;stroke-miterlimit:10;}
	.st5{fill:#0B97D7;}
	.st6{fill:none;stroke:#231F20;stroke-width:2;stroke-miterlimit:10;}
	.st7{fill:url(#SVGID_00000111888109881074169120000006043246773389784995_);}
	.st8{fill:#EEF2F8;}
	.st9{fill:#A2DCF8;}
	.st10{fill:#8BCEF0;}
	.st11{fill:none;stroke:#0B97D7;stroke-width:3;stroke-miterlimit:10;}
	.st12{display:none;opacity:0.58;}
	.st13{opacity:0.58;}
	.st14{display:inline;}
	.st15{fill:none;stroke:#000000;stroke-width:0.8;stroke-miterlimit:10;}
	.st16{fill:#FFFFFF;stroke:#231F20;stroke-width:0.8489;stroke-miterlimit:10;}
	.st17{fill:none;stroke:#231F20;stroke-width:0.9557;stroke-miterlimit:10;}
	.st18{fill:#0B97D7;stroke:#FFFFFF;stroke-width:6.3139;stroke-miterlimit:10;}
	.st19{display:none;fill:#FFFFFF;stroke:#231F20;stroke-width:0.9317;stroke-miterlimit:10;}
	.st20{fill:none;stroke:#231F20;stroke-width:0.9887;stroke-miterlimit:10;}
	.st21{fill:#0B97D7;stroke:#FFFFFF;stroke-width:6.0018;stroke-miterlimit:10;}
	.st22{display:none;fill:#FFFFFF;stroke:#231F20;stroke-width:0.8743;stroke-miterlimit:10;}
	.st23{fill:none;stroke:#231F20;stroke-width:0.9676;stroke-miterlimit:10;}
	.st24{fill:#0B97D7;stroke:#FFFFFF;stroke-width:5.874;stroke-miterlimit:10;}
	.st25{display:none;fill:#FFFFFF;stroke:#231F20;stroke-width:0.6543;stroke-miterlimit:10;}
	.st26{fill:none;stroke:#231F20;stroke-width:0.7002;stroke-miterlimit:10;}
	.st27{fill:#0B97D7;stroke:#FFFFFF;stroke-width:4.2504;stroke-miterlimit:10;}
	
		.st28{fill:url(#SVGID_00000128468172315777429860000002672593222752854165_);stroke:#95ADBB;stroke-width:2.8048;stroke-miterlimit:10;}
	
		.st29{fill:url(#SVGID_00000086676013257258520610000016770257487653855141_);stroke:#CBD0D5;stroke-width:1.8699;stroke-miterlimit:10;}
	
		.st30{fill:url(#SVGID_00000136376944475742902100000013839253803678448533_);stroke:#95ADBB;stroke-width:1.8321;stroke-miterlimit:10;}
	
		.st31{fill:url(#SVGID_00000005241280012536129790000008898966917174669491_);stroke:#CBD0D5;stroke-width:1.2214;stroke-miterlimit:10;}
	.st32{fill:none;stroke:#0B97D7;stroke-width:22.8726;stroke-miterlimit:10;}
	.st33{fill:none;stroke:#A2DCF8;stroke-width:16.2516;stroke-miterlimit:10;}
	.st34{fill:#2252AD;}
	.st35{fill:none;stroke:#FFFFFF;stroke-width:2;stroke-miterlimit:10;}
	.st36{fill:#FFFFFF;}
	.st37{fill:none;stroke:#FFFFFF;stroke-width:1.4152;stroke-miterlimit:10;}
	.st38{fill:url(#SVGID_00000085236006474509502430000012811920444221627549_);}
	.st39{opacity:0.4;fill:none;stroke:#FFFFFF;stroke-width:1.505;stroke-miterlimit:10;}
	.st40{fill:none;stroke:#FFFFFF;stroke-width:1.505;stroke-miterlimit:10;}
	.st41{fill:#FFFFFF;stroke:#86B6EE;stroke-width:1.8861;stroke-miterlimit:10;}
	.st42{fill:#FFFFFF;stroke:#86B6EE;stroke-width:1.3589;stroke-miterlimit:10;}
	.st43{fill:#FFFFFF;stroke:#86B6EE;stroke-width:1.2244;stroke-miterlimit:10;}
	.st44{fill:#FFFFFF;stroke:#86B6EE;stroke-width:1.2102;stroke-miterlimit:10;}
	.st45{fill:#FFFFFF;stroke:#86B6EE;stroke-width:1.3346;stroke-miterlimit:10;}
	.st46{fill:#FFFFFF;stroke:#86B6EE;stroke-width:1.2064;stroke-miterlimit:10;}
	.st47{fill:#FFFFFF;stroke:#86B6EE;stroke-width:1.7495;stroke-miterlimit:10;}
	.st48{fill:#FFFFFF;stroke:#86B6EE;stroke-width:1.105;stroke-miterlimit:10;}
	.st49{fill:#FFFFFF;stroke:#86B6EE;stroke-width:3.337;stroke-miterlimit:10;}
	.st50{fill:#FFFFFF;stroke:#86B6EE;stroke-width:2.2117;stroke-miterlimit:10;}
	.st51{fill:url(#SVGID_00000112622545070691712510000016242534608672114351_);}
	.st52{fill:none;}
	.st53{fill-rule:evenodd;clip-rule:evenodd;fill:#293B57;}
	.st54{fill:none;stroke:#FFFFFF;stroke-width:4.4595;stroke-miterlimit:10;}
	.st55{fill:#FFFFFF;stroke:#86B6EE;stroke-width:3.0637;stroke-miterlimit:10;}
	.st56{fill:#FFFFFF;stroke:#86B6EE;stroke-width:3.1461;stroke-miterlimit:10;}
	.st57{fill:#FFFFFF;stroke:#86B6EE;stroke-width:2.9882;stroke-miterlimit:10;}
	.st58{fill:#FFFFFF;stroke:#86B6EE;stroke-width:3.2179;stroke-miterlimit:10;}
	.st59{fill:#FFFFFF;stroke:#86B6EE;stroke-width:3.4165;stroke-miterlimit:10;}
	.st60{fill:#FFFFFF;stroke:#86B6EE;stroke-width:3.6239;stroke-miterlimit:10;}
	.st61{fill:url(#SVGID_00000111150356139881049830000003432866047275538102_);}
	.st62{fill:url(#SVGID_00000077290352527919861330000000909251504921420938_);}
	.st63{fill:#86B6EE;}
	.st64{fill:url(#SVGID_00000041286690025926900180000013068804920460836784_);}
	.st65{fill-rule:evenodd;clip-rule:evenodd;fill:#FFFFFF;}
	.st66{fill:#F2F6FF;}
	.st67{fill:none;stroke:#000000;stroke-width:0.5;stroke-miterlimit:10;}
	.st68{fill:#808080;stroke:#000000;stroke-width:0.25;stroke-miterlimit:10;}
	.st69{opacity:0.81;fill:#16B8F5;}
	.st70{opacity:0.81;fill:#0239A1;}
	.st71{opacity:0.81;fill:#029AA0;}
	.st72{fill:url(#SVGID_00000161619226109526349970000006540063944859834263_);}
	.st73{fill:url(#SVGID_00000037690781853823901620000004226373073394680194_);}
	.st74{fill:url(#SVGID_00000098927605114572940730000018150181849231607951_);}
	.st75{opacity:0.62;}
	.st76{fill:none;stroke:#231F20;stroke-width:3;stroke-miterlimit:10;}
	.st77{clip-path:url(#SVGID_00000137843378556250278710000016432533765848593793_);}
	.st78{display:none;}
	.st79{display:inline;clip-path:url(#SVGID_00000067942809088347515700000001068198263454711686_);}
	.st80{fill:url(#SVGID_00000093144583075552099040000002961240748807331735_);}
	.st81{fill:#0A1E3F;stroke:#0A1E3F;stroke-width:0.968;stroke-miterlimit:10;}
	.st82{fill:#231F20;stroke:#000000;stroke-width:0.4259;stroke-miterlimit:10;}
	.st83{fill:#16B8F5;}
	.st84{fill:none;stroke:#0B97D7;stroke-width:24.9923;stroke-miterlimit:10;}
	.st85{fill:none;stroke:#A2DCF8;stroke-width:17.7577;stroke-miterlimit:10;}
	.st86{fill:none;stroke:#0B97D7;stroke-width:21.5648;stroke-miterlimit:10;}
	.st87{fill:none;stroke:#A2DCF8;stroke-width:15.3224;stroke-miterlimit:10;}
	.st88{fill:none;stroke:#0B97D7;stroke-width:25.428;stroke-miterlimit:10;}
	.st89{fill:none;stroke:#A2DCF8;stroke-width:18.0673;stroke-miterlimit:10;}
	.st90{fill:none;stroke:#0B97D7;stroke-width:21.3783;stroke-miterlimit:10;}
	.st91{fill:none;stroke:#A2DCF8;stroke-width:15.1898;stroke-miterlimit:10;}
	.st92{fill:url(#SVGID_00000124874137774961438340000005957874246846447534_);}
	.st93{display:none;fill:#334B6D;}
	.st94{display:inline;fill:#FFFFFF;}
	.st95{display:inline;fill:#334B6D;}
	.st96{display:inline;fill:#0A1E3F;}
	.st97{display:inline;fill:#9296A0;}
	.st98{clip-path:url(#SVGID_00000061465531539061613600000002640279906435272092_);}
	.st99{clip-path:url(#Wing_Right_Colour_00000069367402482150388600000005029596068590855352_);}
	.st100{opacity:0.58;clip-path:url(#Body_Colour_00000062873156358718748670000004937744970682162872_);}
	.st101{opacity:0.47;clip-path:url(#Body_Colour_00000062873156358718748670000004937744970682162872_);}
	.st102{opacity:0.51;clip-path:url(#Body_Colour_00000062873156358718748670000004937744970682162872_);}
	.st103{display:inline;fill:url(#SVGID_00000103955249367484427170000002006031778929445558_);}
	.st104{clip-path:url(#SVGID_00000010296160582920602960000006437280223360237989_);}
	.st105{display:inline;fill:url(#LeftWing_00000183242574186613820060000014477821158176305796_);}
	.st106{display:inline;fill:#16B8F5;}
	.st107{display:none;fill:#0239A1;}
	.st108{font-family:'AnfaceRegular';}
	.st109{font-size:84.6781px;}
	.st110{letter-spacing:7.7;}
	.st111{fill:#231F20;}
	.st112{fill-rule:evenodd;clip-rule:evenodd;fill:#2252AD;}
	.st113{display:inline;fill:none;stroke:#0B97D7;stroke-width:3;stroke-miterlimit:10;}
	.st114{display:inline;fill:#0B97D7;}
</style>
<g id="Layer_1">
</g>
<g id="Design">
</g>
<g id="Where_It_x27_s_made">
</g>
<g id="Timeline">
</g>
<g id="Credits">
</g>
<g id="Layer_4">
</g>
<g id="Development">
</g>
<g id="Operations">
</g>
<g id="Title">
	<g>
		<linearGradient id="SVGID_1_" gradientUnits="userSpaceOnUse" x1="734.0667" y1="-24.648" x2="142.0997" y2="731.1132">
			<stop  offset="0" style="stop-color:#89D5F6"/>
			<stop  offset="0.7244" style="stop-color:#ADE1FA"/>
		</linearGradient>
		<rect y="-0.3" class="st0" width="960" height="600"/>
		<g>
			<g>
				<path class="st8" d="M-8.4,252.7c0,0,7.5-6.4,7.5-6.4c2.6-2,5.3-4,8-6c4-2.6,8.6-5.7,12.8-7.9c0,0,2.2-1.2,2.2-1.2s2.3-1,2.3-1
					s4.6-2.1,4.6-2.1c2.3-0.8,4.9-1.8,7.2-2.6c38.4-12,71.2,9.5,90.5,42c1.1,1.7,1.7,3,2.7,4.9c0,0-9.4-4.1-9.4-4.1s1.4-0.5,1.4-0.5
					c21.5-7,46.5-6.7,66.2,5.5c4.8,3,9.1,6.6,13,10.6c0,0-12.7-1.6-12.7-1.6c51.9-34.8,113.8-30.9,131.7,36.9c0,0-18.3-7.9-18.3-7.9
					c4.4-2.4,9-4.7,13.9-6.5c16-6.2,34.5-6,49.6,3.1c18.2,10.9,29,29.8,36.7,48.7c0,0-19.9-6.2-19.9-6.2c3.8-2.5,8.2-4.4,12.6-5.3
					c23.6-4.7,49.3,13.9,60.3,33.4c1,1.8,1.9,3.9,2.7,6.4c0,0-20.8-7-20.8-7c3.8-2.7,8-5,12.3-6.6c21.7-8.2,46.6-5.7,66.6,5.8
					c24.1,13.5,36.8,39.8,38.6,66.5c0,0-18.7-9.6-18.7-9.6c15.9-9.3,35.1-9.3,50.7,0.6c0,0-16.2,4.1-16.2,4.1
					c4.3-6.9,9.1-13.7,15.4-19.9c13.6-13.7,31.9-19.2,50.8-15.3c8.3,1.6,16.1,4.5,23.6,8.1c0,0-10.2,1.3-10.2,1.3
					c6.1-4.5,12.1-7.4,18.4-10c12.6-4.9,26-7.4,39.5-7c20.3,0.4,40.5,9.3,54,24.4c4.3,4.7,8.4,10.3,11.6,15.9
					c3.4,5.6,5.8,11.5,8.2,17.4c0,0-4.1-2.9-4.1-2.9c7.1,0.6,14.9,1.1,22,3.2c15.2,4.2,26,15.8,31.4,30.4c2.6,6.8,4.2,13.9,5.2,21
					c-3.8-13.3-9.7-27.2-20.4-36c-12.1-10.1-26.4-9.3-41.3-9.2c0,0-1.5-2.8-1.5-2.8c-7.5-15.3-18.3-29.7-33.6-37.8
					c-23.6-12.8-56.4-7.1-77.2,8.9c0,0-4.3,3.7-4.3,3.7c-12.8-5.4-28.6-11.4-42.1-6.6c-15,5.3-23.3,22.1-31,35.5
					c0,0-10.5-5.9-10.5-5.9c-4.4-2.5-8.8-3.7-13.1-3.5c-4.3,0.1-8.7,1.5-13,4.1c0,0-16.2,9.8-16.2,9.8s-2.4-19.4-2.4-19.4
					c-1.7-18.3-10.2-37-26.8-45.9c-11.5-6.5-26.4-8.4-39.3-5.1c-4.2,1-8,2.8-10.8,4.8c0,0-13.4,9.4-13.4,9.4c-1-2-7.7-17.6-8.7-19
					c-3.8-5.8-9.6-10.9-15.5-14.5c-5.9-3.3-12.5-6.2-18.1-2.8c0,0-13.9,8.9-13.9,8.9s-6-15.1-6-15.1c-12.5-30.6-28.9-51.7-63.1-33.2
					c0,0-14.2,7.5-14.2,7.5c-2.4-8.7-5.3-22.2-9-30.2c-2.1-4.6-4.6-8.8-7.6-12.5c-20.8-25.2-59.5-14-83.9,0.7c0,0-7.2,4.4-7.2,4.4
					s-5.5-6-5.5-6c-14.1-16.9-38.6-20-59.2-15.1c0,0-1,0.2-1,0.2s-0.8,0.2-0.8,0.2s-7.2,1.9-7.2,1.9s-2.3-6-2.3-6
					c-1-2.6-2.6-5.4-3.9-8c-15.6-27.9-40.8-45.7-73.8-39c-4.8,1.1-7.2,1.7-11.6,3.2c0,0-2.3,0.8-2.3,0.8s-2.2,0.9-2.2,0.9
					C11.2,240.3,1,246.5-8.4,252.7L-8.4,252.7z"/>
			</g>
			<g>
				<path class="st9" d="M-9.8,252.7c90-71.1,130.9,22.7,130.9,22.7s43.2-15.1,70.8,15.1c32.4-21.2,96-38.4,114.1,31.8
					c38.4-21.2,64.8-3,81.6,39.3c20.4-13.6,51,12.9,55.2,27.2c25.6-18.6,91.2-11.6,97.2,55.9c12.7-7.4,26-7.4,38.4,0
					c16.4-27.6,36.8-41.5,75.6-24.2c20.3-16.1,89.6-39,121.3,34.8c16.4,0.8,47.9-1.8,58.8,49.9c14.1,66.5-80.4,52.9-199.3,49.9
					s-680.7-22.7-680.7-22.7L-9.8,252.7z"/>
				<g>
					<path class="st10" d="M-30.9,470.2c17.1,22.7,43.2,47.2,64.1,30.2c15.8-12.9,19.2-44.5,37.1-51.6
						c16.2,25.3,45.4,28.7,71.2,27.7c25.8-1,53.7-3.9,75.2,14c-13.7,2.8-27,8.7-39,17.5c45.9,23.1,97.7,27.3,145.6,11.8
						c7.6-2.5,15.6-5.5,23.3-3.4c6,1.6,11.2,6.2,16.7,9.6c21.6,13.7,49.6,9.7,68.3-9.7c48.9,23.4,105.9,18.2,151.6-13.7
						c1.5,25.4,23.4,42,43.7,43c20.2,1.1,39.7-8.5,59.6-13.1c31.2-7.2,64.1-2,92.9,14.6c-4.1,12.5-17.3,14.6-28.1,14.7
						c-62.9,0.8-125.8,1.6-188.8,2.3c4.6-0.9,5.6-9.6,2.6-14.1c-3-4.5-8-5.7-12.6-6.5c-92.4-16.8-185.7,12-278.7,23
						c-20.6,2.4-41.7,4-61.8-2.6s-39.1-22.6-47.3-46.6c52.7,35.9,116.4,45.2,174.2,25.5c-22.7-12.7-49-7.1-73,0.5
						c-24.1,7.6-48.9,17.2-73.3,11.5c-24.4-5.7-47.9-32.8-44.5-63.8c-30.8,13.8-65.6,12.9-96-2.3c-5.8,4.8-5.2,16.6-0.5,23
						s11.9,8.7,18.8,10.1c21.6,4.6,43.9,4.4,65.4-0.7c-59.8,5.5-124.8,9.3-174.5-33.1c4.5,19.9,13.3,38.3,25.1,52.8"/>
				</g>
				<g>
					<path class="st8" d="M231.7,369.3c31.7-35.6,80.5-45.9,110-1.7c7.6,11.5,13,23.9,16.5,37.1c-10.7-10-19.8-21.7-30.5-31.5
						c-11.8-11.2-24.7-18.4-41.4-17.9C267.5,355.6,249.7,363.9,231.7,369.3L231.7,369.3z"/>
				</g>
				<g>
					<path class="st8" d="M171.7,335c22.8-25.7,58.2-33.1,79.3-1.3c5.5,8.3,9.4,17.2,11.9,26.7c-7.1-6.8-13.1-14.1-19.6-20.4
						c-6.1-5.9-12.4-11.2-20.5-13.7C206.2,321.3,188,330,171.7,335L171.7,335z"/>
				</g>
				<g>
					<path class="st8" d="M477.7,479.7c22.8-25.7,58.2-33.1,79.3-1.3c5.5,8.3,9.4,17.2,11.9,26.7c-7.1-6.8-13.1-14.1-19.6-20.4
						c-6.1-5.9-12.4-11.2-20.5-13.7C512.2,466,494,474.7,477.7,479.7L477.7,479.7z"/>
				</g>
			</g>
		</g>
		<g>
			<g>
				<path class="st8" d="M1274.2,351.4c-8.1-5.5-17-10.7-26.1-14.2c-2-0.9-5.7-2.1-7.9-2.8c-2.5-0.6-5.4-1.5-8.1-1.8
					c-30.2-5.5-53.7,14.9-65.3,41.1c0,0-2,5.2-2,5.2s-6.2-1.6-6.2-1.6c-15-3.8-32.3-3.2-45.2,5.8c-4.5,2.9-8.7,8.2-12.3,12.1
					c-16.8-10.9-38.8-20.2-58.7-16.4c-17.9,3.1-27.2,19.2-31,35.6c0,0-3.5,13.3-3.5,13.3l-12.3-6.5c-36.6-19.7-48.7,13.3-59.8,41.9
					c0,0-12-7.7-12-7.7c-4.9-2.9-10.5-0.4-15.7,2.5c-5.5,3.4-12,8.9-14.6,14.8c0,0-5.2,15.1-5.2,15.1s-12.9-9-12.9-9
					c-5.5-4-13.7-5.6-20.8-5.5c-26.9,0.3-43.4,19.6-45.8,45.5c0,0-2.1,16.8-2.1,16.8s-14.1-8.5-14.1-8.5c-3.7-2.2-7.5-3.4-11.2-3.6
					c-3.7-0.1-7.6,0.9-11.4,3.1c0,0-9.1,5.1-9.1,5.1c-4.2-7.3-9.2-16.8-14.8-22.5c-13.8-15.3-31.8-9.6-48.4-2.5c0,0-3.8-3.2-3.8-3.2
					c-18.1-13.8-46.2-18.8-66.9-7.7c-13.2,7-22.6,19.5-29.1,32.7c0,0-1.3,2.5-1.3,2.5c-9.7,0-19.5-0.7-28.4,3.4
					c-14,6.3-21,21.6-25,35.8c2.6-19.5,11.2-38.8,31.7-44.5c6.1-1.9,12.9-2.3,19-2.8c0,0-3.5,2.5-3.5,2.5
					c13.2-35.8,43-55.7,81.3-48.6c11.9,2.3,22.6,6.1,32.7,13.4c0,0-8.8-1.1-8.8-1.1c22.3-10.9,45.9-12.3,64.4,6.3
					c5.5,5.4,9.6,11.3,13.3,17.3c0,0-14-3.6-14-3.6c6.4-4,14.1-6.5,21.9-6.5c7.7-0.1,15.5,2.3,22,6c0,0-16.2,8.4-16.2,8.4
					c0.5-5.5,1.3-10.9,2.8-16.4c4.3-16.9,15.2-32.5,30.7-41.2c18.1-10.3,40.6-12.3,59.8-4.1c2.9,1.2,5.7,2.9,8.5,4.8l-18,6.1
					c2.1-6.7,6.3-12.2,10.9-17.1c11.1-11.3,26.7-20.5,43.6-17.4c3.9,0.8,7.7,2.4,10.9,4.6l-17.2,5.4c12.5-32.4,37.4-58.7,74.7-44.9
					c4.3,1.6,8.3,3.5,12.1,5.6c0,0-15.8,6.8-15.8,6.8c1.6-5.5,3.4-11.1,6-16.5c21.7-45.3,72-40.1,108-15.5c0,0-11,1.4-11,1.4
					c8.8-9.3,20.9-15.4,33.6-17.2c11.9-1.7,23.7-0.4,35,3.2c0,0,1.2,0.4,1.2,0.4s-8.2,3.6-8.2,3.6c5.6-11,13.3-20.7,22.8-28.6
					c20-16.8,44.7-19.2,68.1-7.9c0,0,2,0.9,2,0.9s1.9,1,1.9,1s3.8,2.1,3.8,2.1C1260.8,340.3,1267.9,345.8,1274.2,351.4L1274.2,351.4
					z"/>
			</g>
			<g>
				<path class="st9" d="M1275.4,351.4c-78-61.5-113.3,19.6-113.3,19.6s-37.4-13.1-61.3,13.1c-28.1-18.3-83.2-33.2-98.8,27.5
					c-33.3-18.3-56.1-2.6-70.7,34c-17.7-11.8-44.1,11.2-47.8,23.6c-22.2-16.1-79-10-84.2,48.4c-11-6.4-22.5-6.4-33.3,0
					c-14.2-23.9-31.9-36-65.5-20.9c-17.6-14-77.6-33.8-105,30.1c-14.2,0.7-41.5-1.6-50.9,43.2c-12.2,57.6,69.7,45.8,172.6,43.2
					c102.9-2.6,589.5-19.6,589.5-19.6L1275.4,351.4z"/>
				<g>
					<path class="st10" d="M1293.7,539.8c-14.8,19.7-37.5,40.9-55.5,26.1c-13.6-11.1-16.6-38.6-32.1-44.7
						c-14,21.9-39.3,24.9-61.6,24s-46.5-3.4-65.1,12.1c11.9,2.4,23.4,7.6,33.8,15.2c-39.8,20-84.6,23.6-126.1,10.2
						c-6.6-2.1-13.5-4.7-20.2-2.9c-5.2,1.4-9.7,5.3-14.4,8.4c-18.7,11.9-42.9,8.4-59.1-8.4c-42.3,20.2-91.7,15.8-131.3-11.9
						c-1.3,22-20.3,36.3-37.8,37.3c-17.5,0.9-34.4-7.3-51.6-11.3c-27-6.3-55.5-1.8-80.4,12.7c3.6,10.9,15,12.6,24.3,12.8
						c54.5,0.7,109,1.4,163.5,2c-4-0.8-4.9-8.3-2.3-12.2c2.6-3.9,6.9-4.9,10.9-5.7c80.1-14.6,160.8,10.4,241.4,19.9
						c17.9,2.1,36.1,3.4,53.5-2.3c17.4-5.7,33.9-19.5,40.9-40.3c-45.6,31.1-100.8,39.1-150.9,22.1c19.6-11,42.4-6.2,63.3,0.5
						c20.8,6.6,42.3,14.9,63.5,10c21.1-4.9,41.5-28.4,38.5-55.2c26.7,11.9,56.8,11.2,83.1-2c5,4.1,4.5,14.4,0.4,19.9
						c-4.1,5.5-10.3,7.5-16.3,8.8c-18.7,4-38,3.8-56.6-0.6c51.8,4.7,108.1,8.1,151.1-28.7c-3.9,17.3-11.5,33.2-21.7,45.7"/>
				</g>
				<g>
					<path class="st8" d="M1066.3,452.4c-22.8-7.1-48.6-19.8-71.1-6c-15.2,9.5-25.1,23.9-38.5,36.6c3.1-11.4,7.7-22.2,14.3-32.1
						C996.5,412.7,1038.9,421.6,1066.3,452.4L1066.3,452.4z"/>
				</g>
				<g>
					<path class="st8" d="M853.2,548c-24.7-8-41.6-16.8-62.1,4.4c-5.6,5.4-10.8,11.8-17,17.7c2.2-8.3,5.5-16,10.3-23.2
						C802.8,519.4,833.6,525.8,853.2,548L853.2,548z"/>
				</g>
			</g>
		</g>
		<g>
			<g>
				<path class="st8" d="M-12.6,446.4c14.3-10.4,31.8-18.2,49.8-17.4c18.8,0.9,36.6,12,46.7,27.9c0,0-5.5-2.3-5.5-2.3
					c9.2-2.6,18.6-3.4,28.1-2.5c9.8,0.9,19.6,4.4,27.3,10.9c0,0-7-0.8-7-0.8c25.9-14.2,66.5-20.4,85,8.4c2.6,4,4.5,8.2,6,12.5
					c0,0-10.7-4.8-10.7-4.8c5.9-2.6,12.2-4.7,19.1-5.5c22.9-2.9,39.8,11.6,49.3,31c0,0-11.5-3.7-11.5-3.7c15.6-8,34.9,0.6,46,12.3
					c1.7,1.9,3.3,3.8,4.8,7.4c0,0-12.1-4.3-12.1-4.3c8.1-4.5,16.5-5.9,25.3-6.1c21.2-0.4,44.7,10,52.3,31.2c1.6,4.1,2.5,8.4,3,12.7
					l-11.1-6.2c10.3-4.9,23.4-4.8,33.6,0.4c0,0-9.1,2.3-9.1,2.3c3.3-4.3,7.2-8.5,12-12c14.9-11.2,33.1-9.2,49.4-2.9
					c0,0-5.4,0.6-5.4,0.6c8.2-4.6,16.4-6.9,25.4-8.2c27.4-4.2,53.6,5.7,66,31.6c0,0-2.4-1.5-2.4-1.5c4.5,0.3,9.3,0.6,14,1.6
					c15.5,3,24.5,14,27.4,29.2c-0.8-2.2-1.6-4.3-2.6-6.4c-2.8-6-7.3-11.5-13.1-14.7c-8-4.5-16.9-4.1-25.9-4c0,0-1.5,0-1.5,0
					s-0.9-1.5-0.9-1.5c-12.6-21.6-35.5-28.5-59.1-23.4c-8.1,1.7-16.4,4.6-23,9.4c0,0-3-0.9-3-0.9c-19.2-6.1-33.2-5.1-45.4,12.2
					c0,0-3.5,4.8-3.5,4.8s-5.6-2.5-5.6-2.5c-12-5.3-19.7,0-30.2,5c0,0-1.5-10.8-1.5-10.8c-1.4-12.4-9.3-21.6-21-25.8
					c-11-3.9-25.1-4.5-35.6,0.9c0,0-12.1-4.3-12.1-4.3c0,0.1-0.1-0.2-0.4-0.6c-4.8-5.9-12.9-10.4-20.3-11.2c-2.6-0.2-4.7,0.2-6.4,1
					l-7.7,4l-3.8-7.7c-10.4-20.9-24.8-27.7-46.9-18.5c0,0-8.1,3.3-8.1,3.3l-2.6-8.2c-9.2-31.4-46.5-25.8-70-14.7c0,0-4,1.9-4,1.9
					c-3.6-3.4-7.6-6.8-12.3-8.8c-12.2-5.3-26.4-4.7-39.2-1.8c-3.8-8.4-10.2-15.5-17.6-21c-10-7.4-22.9-10.5-35.3-9.4
					C11.3,435.3-1.2,440.3-12.6,446.4L-12.6,446.4z"/>
			</g>
			<g>
				<path class="st9" d="M-13.6,446.4c63.5-39.8,92.3,12.7,92.3,12.7s30.5-8.5,50,8.5c22.9-11.9,67.8-21.5,80.5,17.8
					c27.1-11.9,45.7-1.7,57.6,22c14.4-7.6,36,7.2,39,15.2c18.1-10.4,64.4-6.5,68.6,31.3c8.9-4.1,18.4-4.1,27.1,0
					c11.6-15.4,26-23.3,53.4-13.6c14.3-9,63.2-21.8,85.6,19.5c11.6,0.5,33.8-1,41.5,28c9.9,37.3-56.8,29.6-140.6,28
					S-39,603.1-39,603.1L-13.6,446.4z"/>
				<g>
					<path class="st10" d="M-28.5,568.2c12.1,12.7,30.5,26.5,45.2,16.9c11.1-7.2,13.5-25,26.2-28.9c11.4,14.1,32,16.1,50.2,15.5
						s37.9-2.2,53.1,7.8c-9.7,1.5-19.1,4.9-27.5,9.8c32.4,12.9,68.9,15.3,102.7,6.6c5.4-1.4,11-3.1,16.4-1.9
						c4.2,0.9,7.9,3.5,11.8,5.4c15.3,7.7,35,5.4,48.2-5.4c34.5,13.1,74.7,10.2,106.9-7.7c1,14.2,16.5,23.5,30.8,24.1
						c14.3,0.6,28-4.7,42.1-7.3c22-4,45.2-1.1,65.5,8.2c-2.9,7-12.2,8.2-19.8,8.3c-44.4,0.4-88.8,0.9-133.2,1.3
						c3.2-0.5,4-5.4,1.9-7.9c-2.1-2.5-5.6-3.2-8.9-3.7c-65.2-9.4-131.1,6.7-196.7,12.9c-14.6,1.4-29.4,2.2-43.6-1.5
						c-14.1-3.7-27.6-12.6-33.3-26.1c37.2,20.1,82.1,25.3,122.9,14.3c-16-7.1-34.6-4-51.5,0.3s-34.5,9.6-51.7,6.4
						S95.5,597.4,97.9,580c-21.7,7.7-46.3,7.2-67.7-1.3c-4.1,2.7-3.7,9.3-0.3,12.9s8.4,4.9,13.3,5.7c15.2,2.6,30.9,2.5,46.1-0.4
						C47,600,1.1,602.1-33.9,578.3c3.2,11.2,9.4,21.5,17.7,29.6"/>
				</g>
				<g>
					<path class="st8" d="M156.8,511.7c27-24,63.6-26.3,83.4,7.8c2.3,3.8,4.3,7.8,5.9,12c-7-5.5-13.2-11.7-19.8-16.5
						C203.9,497.4,181.7,505.9,156.8,511.7L156.8,511.7z"/>
				</g>
				<g>
					<path class="st8" d="M114.5,492.5c19.5-17.3,45.9-19,60.1,5.6c1.6,2.8,3.1,5.6,4.3,8.6c-5.1-4-9.5-8.4-14.3-11.9
						C148.6,482.2,132.5,488.3,114.5,492.5L114.5,492.5z"/>
				</g>
				<g>
					<path class="st8" d="M330.4,573.6c19.5-17.3,45.9-19,60.1,5.6c1.6,2.8,3.1,5.6,4.3,8.6c-5.1-4-9.5-8.4-14.3-11.9
						C364.5,563.3,348.4,569.4,330.4,573.6L330.4,573.6z"/>
				</g>
			</g>
		</g>
	</g>
	<path class="st93" d="M548.2,429c-8.7,8.4-29.6,16.7-29.6,16.7l-4.1-14l14.4-33.8H546"/>
	<g class="st78">
		<path id="Wing_Right_Colour_00000114049602677029333260000013348376484342529966_" class="st94" d="M639.6,396.9
			c0,0,171.6,57.5,179.4,59.8c58.5,11,85.6,12.8,91,0c4.8-21-47.4-73.2-47.4-73.2c-39.2-30.1-109.8-47.2-112.4-48.3
			c-0.2-20.6-60.8-26.5-72.8-32.5c-1.1-2.3,29.7-104.4,27.3-111.8c0.2-2.6-13.9-24.7-14.9-25.3c-1.1-0.6-3.9-1-4.8,0
			c6.9,13.4-6,31.7-8.2,35.1c-1.3,1.8-20.6,29.1-22.4,31.5c-1.9,2.4-6.6-0.2-9.7,2.3c-0.2,1.1,6.7,2.6,6.2,4.2
			c-0.9,1-14.5,16.9-15.6,17.9c-1.1,1-8.3,0.8-10.1,2.3c-0.4,1,5.4,1.6,4.2,2.6c-1.7,8-25,26.2-35.4,28.6
			c-2.1,0.4-160.7-45.7-207.9-54.1c-1.6-0.3-3.1-0.9-4.4-1.8c-1.4-0.9-2.6-1.6-2.1-2.2c5.4-9,18.1-22.7,17.2-24
			c-1.4-2.6-8.1-4-10.1-5.2c-1.5,0.1-18.7,13-20.5,13.6c-1.3-0.8-54.6-95.3-56.2-95.9s-17.5-7.5-18.8-6.8
			c4.5,17.2,36.9,116.9,35.4,118c-6.2,0.2-24.2,0.5-27,2.3c-0.9,1.5,8.8,7,8.4,8.1c-5.6,1.6-112.1,0.3-111.5,1.9
			c3,2.9,15.4,5.6,18.5,6.8c3.2,0.2,103.2,5.5,105,6.8c11.2,12.8,74.6,51.7,76.6,52.3s83.5,30.4,81.7,31.5
			c-121.2,13.3-308.2-7-308.2-7s-57.4-6.2-99.6-23.2c-1.9,2.4,32.3,20.8,99.4,30.5c74.7,12,267.1,26.2,271.6,29.9
			c2.3,0.6,3.7,8.6,5.2,9.1c4.4,4.4,18.4,5.4,19.7,6.5c-10.7,13-2.1,30.8,0,31.8c28.3,24.4,49.7,26.8,52.5,26.6
			c28.6-3,33.9-19.7,31.4-38.1c-1.1-8.5-8-15.1-15.4-19.3c-7.5-4.4-21.3-10.6-48.3-17.5c1.4-1.1,58.4,2.9,61.1,3.6
			C588.2,395.8,639.6,396.9,639.6,396.9z"/>
		<path class="st95" d="M756.2,353.1c-2,17.4-18.6,25.4-29.9,26c-8.7,0.5-2.5-18.2-1.6-28.6c0.8-10.4,10.6-27.8,19-25.5
			C752.5,327.4,756.7,338.8,756.2,353.1z"/>
		<path class="st96" d="M736.9,331c9.1,6.3,11.6,32.6-7.5,43.6c-2.4-0.5-13.9-18.3-13.9-18.3l16-28.4
			C731.5,327.9,731.7,325.4,736.9,331z"/>
		<path class="st97" d="M748.3,327.4c-21.9-2.9-38.9,31.8-13.9,49c2.7,1.4-6.7,3.6-11,2.9c-25.9-22.6-2.6-62.2,15.5-58"/>
		<g class="st14">
			<defs>
				<path id="SVGID_00000096763734628870134370000010960810492745468819_" d="M748.3,327.4c-21.9-2.9-38.9,31.8-13.9,49
					c2.7,1.4-6.7,3.6-11,2.9c-25.9-22.6-2.6-62.2,15.5-58"/>
			</defs>
			<clipPath id="SVGID_00000167396288273133869010000003858874189840242843_">
				<use xlink:href="#SVGID_00000096763734628870134370000010960810492745468819_"  style="overflow:visible;"/>
			</clipPath>
			<g style="clip-path:url(#SVGID_00000167396288273133869010000003858874189840242843_);">
				
					<image style="overflow:visible;" width="373" height="489" xlink:href="54E3ADC5B9700903.png"  transform="matrix(0.24 0 0 0.24 672.96 288.1129)">
				</image>
			</g>
		</g>
		<g class="st14">
			<defs>
				<path id="Wing_Right_Colour_00000066474581877714308590000014562434758503609006_" d="M639.3,397.2c0,0,171.6,57.5,179.4,59.8
					c58.5,11,85.6,12.8,91,0c4.8-21-47.4-73.2-47.4-73.2c-39.2-30.1-109.8-47.2-112.4-48.3c-0.2-20.6-60.8-26.5-72.8-32.5
					c-1.1-2.3,29.7-104.4,27.3-111.8c0.2-2.6-13.9-24.7-14.9-25.3c-1.1-0.6-3.9-1-4.8,0c6.9,13.4-6,31.7-8.2,35.1
					c-1.3,1.8-20.6,29.1-22.4,31.5s-6.6-0.2-9.7,2.3c-0.2,1.1,6.7,2.6,6.2,4.2c-0.9,1-14.5,16.9-15.6,17.9c-1.1,1-8.3,0.8-10.1,2.3
					c-0.4,1,5.4,1.6,4.2,2.6c-1.7,8-25,26.2-35.4,28.6c-2.1,0.4-160.7-45.7-207.9-54.1c-1.6-0.3-3.1-0.9-4.4-1.8
					c-1.4-0.9-2.6-1.6-2.1-2.2c5.4-9,18.1-22.7,17.2-24c-1.4-2.6-8.1-4-10.1-5.2c-1.5,0.1-18.7,13-20.5,13.6
					c-1.3-0.8-54.6-95.3-56.2-95.9c-1.6-0.6-17.5-7.5-18.8-6.8c4.5,17.2,36.9,116.9,35.4,118c-6.2,0.2-24.2,0.5-27,2.3
					c-0.9,1.5,8.8,7,8.4,8.1c-5.6,1.6-112.1,0.3-111.5,1.9c3,2.9,15.4,5.6,18.5,6.8c3.2,0.2,103.2,5.5,105,6.8
					c11.2,12.8,74.6,51.7,76.6,52.3s83.5,30.4,81.7,31.5c-121.2,13.3-308.2-7-308.2-7s-57.4-6.2-99.6-23.2
					c-1.9,2.4,32.3,20.8,99.4,30.5c74.7,12,267.1,26.2,271.6,29.9c2.3,0.6,3.7,8.6,5.2,9.1c4.4,4.4,18.4,5.4,19.7,6.5
					c-10.7,13-2.1,30.8,0,31.8c28.3,24.4,49.7,26.8,52.5,26.6c28.6-3,33.9-19.7,31.4-38.1c-1.1-8.5-8-15.1-15.4-19.3
					c-7.5-4.4-21.3-10.6-48.3-17.5c1.4-1.1,58.4,2.9,61.1,3.6C588,396,639.3,397.2,639.3,397.2z"/>
			</defs>
			<clipPath id="Wing_Right_Colour_00000120544235331383223540000018396006354784906378_">
				<use xlink:href="#Wing_Right_Colour_00000066474581877714308590000014562434758503609006_"  style="overflow:visible;"/>
			</clipPath>
			<g style="clip-path:url(#Wing_Right_Colour_00000120544235331383223540000018396006354784906378_);">
				
					<image style="overflow:visible;" width="345" height="365" xlink:href="54E3ADC5B9700901.png"  transform="matrix(0.24 0 0 0.24 636.24 263.8729)">
				</image>
			</g>
		</g>
		<g id="Body_00000095302833487373425180000002010597912782463632_" class="st14">
			<path id="Body_Colour_00000158742314967603281050000012918431103035601306_" class="st36" d="M639.6,396.9
				c0,0,171.6,57.5,179.4,59.8c58.5,11,85.6,12.8,91,0c4.8-21-47.4-73.2-47.4-73.2c-39.2-30.1-109.8-47.2-112.4-48.3L593.7,290
				c-2.1,0.4-160.7-45.7-207.9-54.1c-1.6-0.3-3.1-0.9-4.4-1.8c-1.4-0.9-2.6-1.6-2.1-2.2c5.4-9,18.1-22.7,17.2-24
				c-1.4-2.6-8.1-4-10.1-5.2c-1.5,0.1-18.7,13-20.5,13.6c-1.3-0.8-54.6-95.3-56.2-95.9s-17.5-7.5-18.8-6.8
				c4.5,17.2,36.9,116.9,35.4,118c-6.2,0.2-24.2,0.5-27,2.3c-0.9,1.5,8.8,7,8.4,8.1c-5.6,1.6-112.1,0.3-111.5,1.9
				c3,2.9,15.4,5.6,18.5,6.8c3.2,0.2,103.2,5.5,105,6.8c11.2,12.8,74.6,51.7,76.6,52.3s83.5,30.4,81.7,31.5
				c-121.2,13.3-308.2-7-308.2-7s-57.4-6.2-99.6-23.2c-1.9,2.4,32.3,20.8,99.4,30.5c74.7,12,267.1,26.2,271.6,29.9
				c2.3,0.6,3.7,8.6,5.2,9.1c4.4,4.4,18.4,5.4,19.7,6.5c-10.7,13-2.1,30.8,0,31.8c28.3,24.4,49.7,26.8,52.5,26.6
				c28.6-3,34.4-19.3,31.4-38.1c-1.3-8.4-8-15.1-15.4-19.3c-7.5-4.4-21.3-10.6-48.3-17.5c1.4-1.1,58.4,2.9,61.1,3.6
				C588.2,395.8,639.6,396.9,639.6,396.9z"/>
			<g>
				<defs>
					<path id="Body_Colour_00000095326493580170345700000007203667641217920925_" d="M638.3,396.1c0,0,171.6,57.5,179.4,59.8
						c58.5,11,85.6,12.8,91,0c4.8-21-47.4-73.2-47.4-73.2c-39.2-30.1-109.8-47.2-112.4-48.3l-156.3-45.2
						c-2.1,0.4-160.7-45.7-207.9-54.1c-1.6-0.3-3.1-0.9-4.4-1.8c-1.4-0.9-2.6-1.6-2.1-2.2c5.4-9,18.1-22.7,17.2-24
						c-1.4-2.6-8.1-4-10.1-5.2c-1.5,0.1-18.7,13-20.5,13.6c-1.3-0.8-54.6-95.3-56.2-95.9s-17.5-7.5-18.8-6.8
						c4.5,17.2,36.9,116.9,35.4,118c-6.2,0.2-24.2,0.5-27,2.3c-0.9,1.5,8.8,7,8.4,8.1c-5.6,1.6-112.1,0.3-111.5,1.9
						c3,2.9,15.4,5.6,18.5,6.8c3.2,0.2,103.2,5.5,105,6.8c11.2,12.8,73.3,51.9,75.3,52.6s84.8,30.1,83,31.3
						c-121.2,13.3-308.2-7-308.2-7s-57.4-6.2-99.6-23.2c-1.9,2.4,32.3,20.8,99.4,30.5c74.7,12,267.1,26.2,271.6,29.9
						c2.3,0.6,3.7,8.6,5.2,9.1c4.4,4.4,18.4,5.4,19.7,6.5c-10.7,13-2.1,30.8,0,31.8c28.3,24.4,49.7,26.8,52.5,26.6
						c28.6-3,34.4-19.3,31.4-38.1c-1.3-8.4-8-15.1-15.4-19.3c-7.5-4.4-21.3-10.6-48.3-17.5c1.4-1.1,58.4,2.9,61.1,3.6
						C586.9,394.9,638.3,396.1,638.3,396.1z"/>
				</defs>
				<clipPath id="Body_Colour_00000111161262868448303700000013784094485705096325_">
					<use xlink:href="#Body_Colour_00000095326493580170345700000007203667641217920925_"  style="overflow:visible;"/>
				</clipPath>
				<g style="opacity:0.58;clip-path:url(#Body_Colour_00000111161262868448303700000013784094485705096325_);">
					
						<image style="overflow:visible;" width="3002" height="1435" xlink:href="54E3ADC5B9700907.png"  transform="matrix(0.24 0 0 0.24 293.76 120.1129)">
					</image>
				</g>
				<g style="opacity:0.47;clip-path:url(#Body_Colour_00000111161262868448303700000013784094485705096325_);">
					
						<image style="overflow:visible;" width="424" height="386" xlink:href="54E3ADC5B9700900.png"  transform="matrix(0.24 0 0 0.24 398.64 332.5129)">
					</image>
				</g>
				<g style="opacity:0.51;clip-path:url(#Body_Colour_00000111161262868448303700000013784094485705096325_);">
					
						<image style="overflow:visible;" width="739" height="594" xlink:href="54E3ADC5B970090E.png"  transform="matrix(0.24 0 0 0.24 400.32 356.0329)">
					</image>
				</g>
			</g>
		</g>
		
			<linearGradient id="SVGID_00000113340379687711992380000008680144408543629494_" gradientUnits="userSpaceOnUse" x1="672.6971" y1="145.2563" x2="475.9807" y2="719.2993">
			<stop  offset="0.3646" style="stop-color:#0239A1"/>
			<stop  offset="0.4238" style="stop-color:#0A1E3F"/>
		</linearGradient>
		<path style="display:inline;fill:url(#SVGID_00000113340379687711992380000008680144408543629494_);" d="M906.9,460.7
			C740.3,421.9,747.4,380.6,543,342.3c-80.9-13-229-85.6-225.9-110.5l-17.1,1.6l1.2,3l5.9,4.7l14.2,18.1l12.8,10.8l26,19l10.5,7.2
			c7.2,4.9,14.9,9.1,23,12.5l2.7,1.1l10.8,4.7l18.3,7.7l31.7,10.9l18.8,7l72.1,34.4l11.1,5.2l15.3,5.7l13.8,3.9l16.7,3.6l18.9,1.5
			l14.7,2.4l39.7,13l52.5,17.6l47.7,15.9l39.2,12.9l18.8,3.6l23.1,3.6l20,2l20.6-1.4C900.2,464.1,902,465.4,906.9,460.7z"/>
		<path class="st95" d="M549.5,425.5c-5.3,16.6-23.2,21.2-34.4,19.6c-8.6-1.3,1.1-18.3,4-28.3c2.9-10,15.8-25.2,23.7-21.3
			C550.9,399.5,552.7,411.5,549.5,425.5z"/>
		<path class="st96" d="M534.9,400c7.7,8,4.9,34.3-15.9,41.3c-2.3-1-10.1-20.6-10.1-20.6l21.3-24.7
			C530.2,395.9,530.9,393.5,534.9,400z"/>
		<path class="st97" d="M546.8,398.7c-20.9-7.1-44.4,23.6-23.2,45.3c2.4,1.9-7.3,2.2-11.4,0.7c-20.9-27.2,9.6-61.5,26.6-53.8"/>
		<g class="st14">
			<defs>
				<path id="SVGID_00000071548181731393337780000017285513756319395467_" d="M546.8,398.7c-20.9-7.1-44.4,23.6-23.2,45.3
					c2.4,1.9-7.3,2.2-11.4,0.7c-20.9-27.2,9.6-61.5,26.6-53.8"/>
			</defs>
			<clipPath id="SVGID_00000008835046631457869470000013318362651896435086_">
				<use xlink:href="#SVGID_00000071548181731393337780000017285513756319395467_"  style="overflow:visible;"/>
			</clipPath>
			<g style="clip-path:url(#SVGID_00000008835046631457869470000013318362651896435086_);">
				
					<image style="overflow:visible;" width="387" height="484" xlink:href="54E3ADC5B970090F.png"  transform="matrix(0.24 0 0 0.24 466.56 353.6329)">
				</image>
			</g>
		</g>
		<path id="LeftWing_00000142883150518350052750000014959527873883280563_" class="st94" d="M478.1,341.3
			c7.3-6.4,126,9.1,121.7,33.3c-1.9,2.4-51.7-1.3-51.7-1.3l-61.7-2.6l-46.5,0.4l-98-10.4l-37.3-3.6l-59.8-6l-31-3.5l-32.2-4.1
			l-31.4-5l-23.1-4.9l-23.4-6.6l-22.3-8.5l-8.7-4.7l21.8,5.5l15.2,4.5l21.2,5.2l30.8,4.3l23.6,3.7l30.8,2.4l24.3,1.2l32.9,2.5
			l26.6,1l79.1,1.7l71-2.1C450,343.8,473.6,341.2,478.1,341.3z"/>
		
			<linearGradient id="LeftWing_00000003093117079489312970000007752553829820109737_" gradientUnits="userSpaceOnUse" x1="335.4759" y1="367.6777" x2="338.2342" y2="287.94">
			<stop  offset="0" style="stop-color:#89D5F6"/>
			<stop  offset="0.1101" style="stop-color:#FFFFFF;stop-opacity:0.49"/>
		</linearGradient>
		
			<path id="LeftWing_00000038410179898727226100000016721453069974920895_" style="display:inline;fill:url(#LeftWing_00000003093117079489312970000007752553829820109737_);" d="
			M478.1,341.8c7.3-6.4,126,9.1,121.7,33.3c-1.9,2.4-51.7-1.3-51.7-1.3l-61.7-2.6l-46.5,0.4l-98-10.4l-37.3-3.6l-59.8-6l-31-3.5
			l-32.2-4.1l-31.4-5l-23.1-4.9l-23.4-6.6l-22.3-8.5l-8.7-4.7l21.8,5.5l15.2,4.5l21.2,5.2l30.8,4.3l23.6,3.7l30.8,2.4l24.3,1.2
			l32.9,2.5l26.6,1l79.1,1.7l71-2.1C450,344.2,473.6,341.6,478.1,341.8z"/>
		<path id="Leftwing_00000166669520344825924390000011993141066274153864_" class="st94" d="M306.7,240.6
			c4.2,0.8,32.4,14.7,33.4,15.8c1.2,2.3,1,4.1,0.4,5.9c-1,0.7-8.8-1.5-13.1-2.9c-1.1-0.6,0.3-3-0.3-3.2c-4.4,1.1-7.9,1.1-7.9,1.1
			l-104.4-6.7L206,248l-8.9-3.6l2.8-1l105.8-0.7C305.7,242.7,305.5,241,306.7,240.6z"/>
		<path class="st106" d="M366.8,271.9c-15.2-20.4-7.1-33.1,1.3-37c0-5-60.3-115.2-60.3-115.2l-17-6.1c0,0,36.1,114.4,36.5,118.7
			C307.7,229.9,360.1,270,366.8,271.9z"/>
		<g id="Windows_00000073680104737034249070000006595548607466331068_" class="st14">
			<g>
				<path class="st2" d="M765.6,403.4c-0.3-0.1-0.6-0.2-0.9-0.3c-0.9-0.3-1.7-1.5-1.6-2.6c0.1-1.4,0.2-2.7,0.3-4.1
					c0.1-1.1,0.9-1.7,1.9-1.3c0.3,0.1,0.6,0.2,0.8,0.4c0.9,0.4,1.6,1.6,1.5,2.6c-0.1,1.3-0.2,2.6-0.2,3.9
					C767.3,403.1,766.6,403.8,765.6,403.4z"/>
			</g>
			<g>
				<path class="st2" d="M756.8,400.7c-0.3-0.1-0.6-0.2-0.9-0.3c-0.9-0.3-1.7-1.5-1.6-2.6c0.1-1.4,0.2-2.7,0.3-4.1
					c0.1-1.1,0.9-1.7,1.9-1.3c0.3,0.1,0.6,0.2,0.8,0.4c0.9,0.4,1.6,1.6,1.5,2.6c-0.1,1.3-0.2,2.6-0.2,3.9
					C758.6,400.4,757.8,401,756.8,400.7z"/>
			</g>
			<g>
				<path class="st2" d="M748.8,397.7c-0.3-0.1-0.6-0.2-0.9-0.3c-0.9-0.3-1.7-1.5-1.6-2.6c0.1-1.4,0.2-2.7,0.3-4.1
					c0.1-1.1,0.9-1.7,1.9-1.3c0.3,0.1,0.6,0.2,0.8,0.4c0.9,0.4,1.6,1.6,1.5,2.6c-0.1,1.3-0.2,2.6-0.2,3.9
					C750.5,397.3,749.7,398,748.8,397.7z"/>
			</g>
			<g>
				<path class="st2" d="M740.9,394.6c-0.3-0.1-0.6-0.2-0.9-0.3c-0.9-0.3-1.7-1.5-1.6-2.6c0.1-1.4,0.2-2.7,0.3-4.1
					c0.1-1.1,0.9-1.7,1.9-1.3c0.3,0.1,0.6,0.2,0.8,0.4c0.9,0.4,1.6,1.6,1.5,2.6c-0.1,1.3-0.2,2.6-0.2,3.9
					C742.6,394.3,741.8,394.9,740.9,394.6z"/>
			</g>
			<g>
				<path class="st2" d="M732.8,391.9c-0.3-0.1-0.6-0.2-0.9-0.3c-0.9-0.3-1.7-1.5-1.6-2.6c0.1-1.4,0.2-2.7,0.3-4.1
					c0.1-1.1,0.9-1.7,1.9-1.3c0.3,0.1,0.6,0.2,0.8,0.4c0.9,0.4,1.6,1.6,1.5,2.6c-0.1,1.3-0.2,2.6-0.2,3.9
					C734.5,391.6,733.7,392.2,732.8,391.9z"/>
			</g>
			<g>
				<path class="st2" d="M725.2,389.4c-0.3-0.1-0.6-0.2-0.9-0.3c-0.9-0.3-1.7-1.5-1.6-2.6c0.1-1.4,0.2-2.7,0.3-4.1
					c0.1-1.1,0.9-1.7,1.9-1.3c0.3,0.1,0.6,0.2,0.8,0.4c0.9,0.4,1.6,1.6,1.5,2.6c-0.1,1.3-0.2,2.6-0.2,3.9
					C726.9,389.1,726.1,389.7,725.2,389.4z"/>
			</g>
			<g>
				<path class="st2" d="M717.7,387c-0.3-0.1-0.6-0.2-0.9-0.3c-0.9-0.3-1.7-1.5-1.6-2.6c0.1-1.4,0.2-2.7,0.3-4.1
					c0.1-1.1,0.9-1.7,1.9-1.3c0.3,0.1,0.6,0.2,0.8,0.4c0.9,0.4,1.6,1.6,1.5,2.6c-0.1,1.3-0.2,2.6-0.2,3.9
					C719.4,386.7,718.7,387.3,717.7,387z"/>
			</g>
			<g>
				<path class="st2" d="M709.8,384.3c-0.3-0.1-0.6-0.2-0.9-0.3c-0.9-0.3-1.7-1.5-1.6-2.6c0.1-1.4,0.2-2.7,0.3-4.1
					c0.1-1.1,0.9-1.7,1.9-1.3c0.3,0.1,0.6,0.2,0.8,0.4c0.9,0.4,1.6,1.6,1.5,2.6c-0.1,1.3-0.2,2.6-0.2,3.9
					C711.5,384,710.8,384.6,709.8,384.3z"/>
			</g>
			<g>
				<path class="st2" d="M702.3,381.9c-0.3-0.1-0.6-0.2-0.9-0.3c-0.9-0.3-1.7-1.5-1.6-2.6c0.1-1.4,0.2-2.7,0.3-4.1
					c0.1-1.1,0.9-1.7,1.9-1.3c0.3,0.1,0.6,0.2,0.8,0.4c0.9,0.4,1.6,1.6,1.5,2.6c-0.1,1.3-0.2,2.6-0.2,3.9
					C704.1,381.6,703.3,382.2,702.3,381.9z"/>
			</g>
			<g>
				<path class="st2" d="M687.6,377.1c-0.3-0.1-0.5-0.2-0.8-0.3c-0.9-0.3-1.5-1.4-1.5-2.4c0.1-1.2,0.1-2.5,0.2-3.7
					c0.1-1,0.8-1.5,1.7-1.2c0.2,0.1,0.5,0.2,0.7,0.3c0.8,0.4,1.4,1.4,1.3,2.4c-0.1,1.2-0.1,2.3-0.2,3.5
					C689.1,376.8,688.5,377.4,687.6,377.1z"/>
			</g>
			<g>
				<path class="st2" d="M680.3,374.5c-0.3-0.1-0.5-0.2-0.8-0.3c-0.9-0.3-1.5-1.4-1.5-2.4c0.1-1.2,0.1-2.5,0.2-3.7
					c0.1-1,0.8-1.5,1.7-1.2c0.2,0.1,0.5,0.2,0.7,0.3c0.8,0.4,1.4,1.4,1.3,2.4c-0.1,1.2-0.1,2.3-0.2,3.5
					C681.9,374.2,681.2,374.7,680.3,374.5z"/>
			</g>
			<g>
				<path class="st2" d="M673,372.5c-0.3-0.1-0.5-0.2-0.8-0.3c-0.9-0.3-1.5-1.4-1.5-2.4c0.1-1.2,0.1-2.5,0.2-3.7
					c0.1-1,0.8-1.5,1.7-1.2c0.2,0.1,0.5,0.2,0.7,0.3c0.8,0.4,1.4,1.4,1.3,2.4c-0.1,1.2-0.1,2.3-0.2,3.5
					C674.6,372.2,673.9,372.7,673,372.5z"/>
			</g>
			<g>
				<path class="st2" d="M665.8,369.9c-0.3-0.1-0.5-0.2-0.8-0.3c-0.9-0.3-1.5-1.4-1.5-2.4c0.1-1.2,0.1-2.5,0.2-3.7
					c0.1-1,0.8-1.5,1.7-1.2c0.2,0.1,0.5,0.2,0.7,0.3c0.8,0.4,1.4,1.4,1.3,2.4c-0.1,1.2-0.1,2.3-0.2,3.5
					C667.3,369.6,666.6,370.2,665.8,369.9z"/>
			</g>
			<g>
				<path class="st2" d="M659,367.9c-0.3-0.1-0.5-0.2-0.8-0.3c-0.9-0.3-1.5-1.4-1.5-2.4c0.1-1.2,0.1-2.5,0.2-3.7
					c0.1-1,0.8-1.5,1.7-1.2c0.2,0.1,0.5,0.2,0.7,0.3c0.8,0.4,1.4,1.4,1.3,2.4c-0.1,1.2-0.1,2.3-0.2,3.5
					C660.5,367.6,659.8,368.1,659,367.9z"/>
			</g>
			<g>
				<path class="st2" d="M624.4,357.4c-0.2-0.1-0.5-0.2-0.7-0.2c-0.8-0.3-1.5-1.3-1.4-2.3c0.1-1.2,0.1-2.4,0.2-3.5
					c0.1-1,0.8-1.5,1.6-1.1c0.2,0.1,0.5,0.2,0.7,0.3c0.8,0.3,1.4,1.4,1.3,2.3c-0.1,1.1-0.1,2.2-0.2,3.4
					C625.8,357.1,625.2,357.7,624.4,357.4z"/>
			</g>
			<g>
				<path class="st2" d="M618,355.3c-0.2-0.1-0.5-0.2-0.7-0.2c-0.8-0.3-1.5-1.3-1.4-2.3c0.1-1.2,0.1-2.4,0.2-3.5
					c0.1-1,0.8-1.5,1.6-1.1c0.2,0.1,0.5,0.2,0.7,0.3c0.8,0.3,1.4,1.4,1.3,2.3c-0.1,1.1-0.1,2.2-0.2,3.4
					C619.5,355,618.8,355.6,618,355.3z"/>
			</g>
			<g>
				<path class="st2" d="M611.2,352.8c-0.2-0.1-0.5-0.2-0.7-0.2c-0.8-0.3-1.5-1.3-1.4-2.3c0.1-1.2,0.1-2.4,0.2-3.5
					c0.1-1,0.8-1.5,1.6-1.1c0.2,0.1,0.5,0.2,0.7,0.3c0.8,0.3,1.4,1.4,1.3,2.3c-0.1,1.1-0.1,2.2-0.2,3.4
					C612.7,352.5,612,353.1,611.2,352.8z"/>
			</g>
			<g>
				<path class="st2" d="M604.8,350.7c-0.2-0.1-0.5-0.2-0.7-0.2c-0.8-0.3-1.5-1.3-1.4-2.3c0.1-1.2,0.1-2.4,0.2-3.5
					c0.1-1,0.8-1.5,1.6-1.1c0.2,0.1,0.5,0.2,0.7,0.3c0.8,0.3,1.4,1.4,1.3,2.3c-0.1,1.1-0.1,2.2-0.2,3.4
					C606.2,350.5,605.6,351,604.8,350.7z"/>
			</g>
			<g>
				<path class="st2" d="M598,348.6c-0.2-0.1-0.5-0.2-0.7-0.2c-0.8-0.3-1.5-1.3-1.4-2.3c0.1-1.2,0.1-2.4,0.2-3.5
					c0.1-1,0.8-1.5,1.6-1.1c0.2,0.1,0.5,0.2,0.7,0.3c0.8,0.3,1.4,1.4,1.3,2.3c-0.1,1.1-0.1,2.2-0.2,3.4
					C599.5,348.3,598.8,348.9,598,348.6z"/>
			</g>
			<g>
				<path class="st2" d="M591.6,346.6c-0.2-0.1-0.5-0.2-0.7-0.2c-0.8-0.3-1.5-1.3-1.4-2.3c0.1-1.2,0.1-2.4,0.2-3.5
					c0.1-1,0.8-1.5,1.6-1.1c0.2,0.1,0.5,0.2,0.7,0.3c0.8,0.3,1.4,1.4,1.3,2.3c-0.1,1.1-0.1,2.2-0.2,3.4
					C593.1,346.3,592.5,346.8,591.6,346.6z"/>
			</g>
			<g>
				<path class="st2" d="M585.4,344.5c-0.2-0.1-0.5-0.2-0.7-0.2c-0.8-0.3-1.5-1.3-1.4-2.3c0.1-1.2,0.1-2.4,0.2-3.5
					c0.1-1,0.8-1.5,1.6-1.1c0.2,0.1,0.5,0.2,0.7,0.3c0.8,0.3,1.4,1.4,1.3,2.3c-0.1,1.1-0.1,2.2-0.2,3.4
					C586.9,344.2,586.2,344.8,585.4,344.5z"/>
			</g>
			<g>
				<path class="st2" d="M579,342.4c-0.2-0.1-0.5-0.2-0.7-0.2c-0.8-0.3-1.5-1.3-1.4-2.3c0.1-1.2,0.1-2.4,0.2-3.5
					c0.1-1,0.8-1.5,1.6-1.1c0.2,0.1,0.5,0.2,0.7,0.3c0.8,0.3,1.4,1.4,1.3,2.3c-0.1,1.1-0.1,2.2-0.2,3.4
					C580.5,342.1,579.8,342.7,579,342.4z"/>
			</g>
			<g>
				<path class="st2" d="M572.6,340.3c-0.2-0.1-0.5-0.2-0.7-0.2c-0.8-0.3-1.5-1.3-1.4-2.3c0.1-1.2,0.1-2.4,0.2-3.5
					c0.1-1,0.8-1.5,1.6-1.1c0.2,0.1,0.5,0.2,0.7,0.3c0.8,0.3,1.4,1.4,1.3,2.3c-0.1,1.1-0.1,2.2-0.2,3.4
					C574.1,340.1,573.5,340.6,572.6,340.3z"/>
			</g>
			<g>
				<path class="st2" d="M566.5,338.5c-0.2-0.1-0.5-0.2-0.7-0.2c-0.8-0.3-1.5-1.3-1.4-2.3c0.1-1.2,0.1-2.4,0.2-3.5
					c0.1-1,0.8-1.5,1.6-1.1c0.2,0.1,0.5,0.2,0.7,0.3c0.8,0.3,1.4,1.4,1.3,2.3c-0.1,1.1-0.1,2.2-0.2,3.4
					C568,338.2,567.3,338.8,566.5,338.5z"/>
			</g>
			<g>
				<path class="st2" d="M560.3,336.3c-0.2-0.1-0.5-0.2-0.7-0.2c-0.8-0.3-1.5-1.3-1.4-2.3c0.1-1.2,0.1-2.4,0.2-3.5
					c0.1-1,0.8-1.5,1.6-1.1c0.2,0.1,0.5,0.2,0.7,0.3c0.8,0.3,1.4,1.4,1.3,2.3c-0.1,1.1-0.1,2.2-0.2,3.4
					C561.8,336.1,561.2,336.6,560.3,336.3z"/>
			</g>
			<g>
				<path class="st2" d="M554.3,334.2c-0.2-0.1-0.5-0.2-0.7-0.2c-0.8-0.3-1.5-1.3-1.4-2.3c0.1-1.2,0.1-2.4,0.2-3.5
					c0.1-1,0.8-1.5,1.6-1.1c0.2,0.1,0.5,0.2,0.7,0.3c0.8,0.3,1.4,1.4,1.3,2.3c-0.1,1.1-0.1,2.2-0.2,3.4
					C555.8,333.9,555.2,334.4,554.3,334.2z"/>
			</g>
			<g>
				<path class="st2" d="M548.2,331.9c-0.2-0.1-0.5-0.2-0.7-0.2c-0.7-0.3-1.3-1.3-1.3-2.3c0.1-1.2,0.1-2.4,0.2-3.5
					c0.1-1,0.8-1.5,1.5-1.1c0.2,0.1,0.4,0.2,0.7,0.3c0.7,0.3,1.2,1.3,1.2,2.3c-0.1,1.1-0.1,2.2-0.2,3.4
					C549.6,331.6,549,332.2,548.2,331.9z"/>
			</g>
			<g>
				<path class="st2" d="M542.3,330.2c-0.2-0.1-0.5-0.2-0.7-0.2c-0.8-0.3-1.3-1.3-1.3-2.3c0.1-1.2,0.1-2.4,0.2-3.5
					c0.1-1,0.8-1.5,1.5-1.1c0.2,0.1,0.4,0.2,0.7,0.3c0.7,0.3,1.2,1.3,1.2,2.3c-0.1,1.1-0.1,2.2-0.2,3.4
					C543.7,329.9,543.1,330.4,542.3,330.2z"/>
			</g>
			<g>
				<path class="st2" d="M536.7,328.3c-0.2-0.1-0.5-0.2-0.7-0.2c-0.8-0.3-1.3-1.3-1.3-2.3c0.1-1.2,0.1-2.4,0.2-3.5
					c0.1-1,0.8-1.5,1.5-1.1c0.2,0.1,0.4,0.2,0.7,0.3c0.7,0.3,1.2,1.3,1.2,2.3c-0.1,1.1-0.1,2.2-0.2,3.4
					C538,328,537.4,328.6,536.7,328.3z"/>
			</g>
			<g>
				<path class="st2" d="M530.6,326.6c-0.2-0.1-0.5-0.2-0.7-0.2c-0.8-0.3-1.3-1.3-1.3-2.3c0.1-1.2,0.1-2.4,0.2-3.5
					c0.1-1,0.8-1.5,1.5-1.1c0.2,0.1,0.4,0.2,0.7,0.3c0.7,0.3,1.2,1.3,1.2,2.3c-0.1,1.1-0.1,2.2-0.2,3.4
					C532,326.3,531.3,326.9,530.6,326.6z"/>
			</g>
			<g>
				<path class="st2" d="M524.6,324.7c-0.2-0.1-0.5-0.2-0.7-0.2c-0.8-0.3-1.3-1.3-1.3-2.3c0.1-1.2,0.1-2.4,0.2-3.5
					c0.1-1,0.8-1.5,1.5-1.1c0.2,0.1,0.4,0.2,0.7,0.3c0.7,0.3,1.2,1.3,1.2,2.3c-0.1,1.1-0.1,2.2-0.2,3.4
					C526,324.5,525.4,325,524.6,324.7z"/>
			</g>
			<g>
				<path class="st2" d="M518.8,323c-0.2-0.1-0.5-0.2-0.7-0.2c-0.8-0.3-1.3-1.3-1.3-2.3c0.1-1.2,0.1-2.4,0.2-3.5
					c0.1-1,0.8-1.5,1.5-1.1c0.2,0.1,0.4,0.2,0.7,0.3c0.7,0.3,1.2,1.3,1.2,2.3c-0.1,1.1-0.1,2.2-0.2,3.4
					C520.2,322.7,519.5,323.3,518.8,323z"/>
			</g>
			<g>
				<path class="st2" d="M513.2,321.6c-0.2-0.1-0.5-0.2-0.7-0.2c-0.8-0.3-1.3-1.3-1.3-2.3c0.1-1.2,0.1-2.4,0.2-3.5
					c0.1-1,0.8-1.5,1.5-1.1c0.2,0.1,0.4,0.2,0.7,0.3c0.7,0.3,1.2,1.3,1.2,2.3c-0.1,1.1-0.1,2.2-0.2,3.4
					C514.5,321.3,513.9,321.8,513.2,321.6z"/>
			</g>
			<g>
				<path class="st2" d="M507.5,319.7c-0.2-0.1-0.5-0.2-0.7-0.2c-0.8-0.3-1.3-1.3-1.3-2.3c0.1-1.2,0.1-2.4,0.2-3.5
					c0.1-1,0.8-1.5,1.5-1.1c0.2,0.1,0.4,0.2,0.7,0.3c0.7,0.3,1.2,1.3,1.2,2.3c-0.1,1.1-0.1,2.2-0.2,3.4
					C508.8,319.4,508.2,319.9,507.5,319.7z"/>
			</g>
			<g>
				<path class="st2" d="M501.8,318c-0.2-0.1-0.5-0.2-0.7-0.2c-0.8-0.3-1.3-1.3-1.3-2.3c0.1-1.2,0.1-2.4,0.2-3.5
					c0.1-1,0.8-1.5,1.5-1.1c0.2,0.1,0.4,0.2,0.7,0.3c0.7,0.3,1.2,1.3,1.2,2.3c-0.1,1.1-0.1,2.2-0.2,3.4
					C503.2,317.7,502.6,318.3,501.8,318z"/>
			</g>
			<g>
				<path class="st2" d="M496.3,315.8c-0.2-0.1-0.5-0.2-0.7-0.2c-0.8-0.3-1.3-1.3-1.3-2.3c0.1-1.2,0.1-2.4,0.2-3.5
					c0.1-1,0.8-1.5,1.5-1.1c0.2,0.1,0.4,0.2,0.7,0.3c0.7,0.3,1.2,1.3,1.2,2.3c-0.1,1.1-0.1,2.2-0.2,3.4
					C497.7,315.6,497.1,316.1,496.3,315.8z"/>
			</g>
			<g>
				<path class="st2" d="M490.8,313.7c-0.2-0.1-0.5-0.2-0.7-0.2c-0.8-0.3-1.3-1.3-1.3-2.3c0.1-1.2,0.1-2.4,0.2-3.5
					c0.1-1,0.8-1.5,1.5-1.1c0.2,0.1,0.4,0.2,0.7,0.3c0.7,0.3,1.2,1.3,1.2,2.3c-0.1,1.1-0.1,2.2-0.2,3.4
					C492.2,313.5,491.6,314,490.8,313.7z"/>
			</g>
			<g>
				<path class="st2" d="M458.9,304.1c-0.2-0.1-0.4-0.1-0.7-0.2c-0.7-0.2-1.3-1.2-1.3-2.2c0-1.2,0-2.3,0.1-3.5c0-1,0.7-1.5,1.3-1.2
					c0.2,0.1,0.4,0.2,0.6,0.3c0.7,0.3,1.2,1.3,1.2,2.2c0,1.1,0,2.3,0,3.4C460.2,303.8,459.6,304.4,458.9,304.1z"/>
			</g>
			<g>
				<path class="st2" d="M453.6,302.2c-0.2-0.1-0.4-0.1-0.7-0.2c-0.7-0.2-1.3-1.2-1.3-2.2c0-1.2,0-2.3,0.1-3.5c0-1,0.7-1.5,1.3-1.2
					c0.2,0.1,0.4,0.2,0.6,0.3c0.7,0.3,1.2,1.3,1.2,2.2c0,1.1,0,2.3,0,3.4C454.9,301.8,454.3,302.4,453.6,302.2z"/>
			</g>
			<g>
				<path class="st2" d="M448.7,300.6c-0.2-0.1-0.4-0.1-0.7-0.2c-0.7-0.2-1.3-1.2-1.3-2.2c0-1.2,0-2.3,0.1-3.5c0-1,0.7-1.5,1.3-1.2
					c0.2,0.1,0.4,0.2,0.6,0.3c0.7,0.3,1.2,1.3,1.2,2.2c0,1.1,0,2.3,0,3.4C450,300.2,449.4,300.8,448.7,300.6z"/>
			</g>
			<g>
				<path class="st2" d="M443.7,299c-0.2-0.1-0.4-0.1-0.7-0.2c-0.7-0.2-1.3-1.2-1.3-2.2c0-1.2,0-2.3,0.1-3.5c0-1,0.7-1.5,1.3-1.2
					c0.2,0.1,0.4,0.2,0.6,0.3c0.7,0.3,1.2,1.3,1.2,2.2c0,1.1,0,2.3,0,3.4C445,298.7,444.4,299.3,443.7,299z"/>
			</g>
			<g>
				<path class="st2" d="M438.6,297.6c-0.2-0.1-0.4-0.1-0.7-0.2c-0.7-0.2-1.3-1.2-1.3-2.2c0-1.2,0-2.3,0.1-3.5c0-1,0.7-1.5,1.3-1.2
					c0.2,0.1,0.4,0.2,0.6,0.3c0.7,0.3,1.2,1.3,1.2,2.2c0,1.1,0,2.3,0,3.4C439.8,297.2,439.3,297.8,438.6,297.6z"/>
			</g>
			<g>
				<path class="st2" d="M433.4,295.8c-0.2-0.1-0.4-0.1-0.7-0.2c-0.7-0.2-1.3-1.2-1.3-2.2c0-1.2,0-2.3,0.1-3.5c0-1,0.7-1.5,1.3-1.2
					c0.2,0.1,0.4,0.2,0.6,0.3c0.7,0.3,1.2,1.3,1.2,2.2c0,1.1,0,2.3,0,3.4C434.7,295.5,434.1,296.1,433.4,295.8z"/>
			</g>
			<g>
				<path class="st2" d="M428.7,294.4c-0.2-0.1-0.4-0.1-0.7-0.2c-0.7-0.2-1.3-1.2-1.3-2.2c0-1.2,0-2.3,0.1-3.5c0-1,0.7-1.5,1.3-1.2
					c0.2,0.1,0.4,0.2,0.6,0.3c0.7,0.3,1.2,1.3,1.2,2.2c0,1.1,0,2.3,0,3.4C429.9,294.1,429.4,294.7,428.7,294.4z"/>
			</g>
			<g>
				<path class="st2" d="M423.7,292.9c-0.2-0.1-0.4-0.1-0.7-0.2c-0.7-0.2-1.3-1.2-1.3-2.2c0-1.2,0-2.3,0.1-3.5c0-1,0.7-1.5,1.3-1.2
					c0.2,0.1,0.4,0.2,0.6,0.3c0.7,0.3,1.2,1.3,1.2,2.2c0,1.1,0,2.3,0,3.4C425,292.5,424.5,293.1,423.7,292.9z"/>
			</g>
			<g>
				<path class="st2" d="M419,291.2c-0.2-0.1-0.4-0.1-0.7-0.2c-0.7-0.2-1.3-1.2-1.3-2.2c0-1.2,0-2.3,0.1-3.5c0-1,0.7-1.5,1.3-1.2
					c0.2,0.1,0.4,0.2,0.6,0.3c0.7,0.3,1.2,1.3,1.2,2.2c0,1.1,0,2.3,0,3.4C420.2,290.8,419.7,291.4,419,291.2z"/>
			</g>
			<g>
				<path class="st2" d="M413.8,289.6c-0.2-0.1-0.4-0.1-0.7-0.2c-0.7-0.2-1.3-1.2-1.3-2.2c0-1.2,0-2.3,0.1-3.5c0-1,0.7-1.5,1.3-1.2
					c0.2,0.1,0.4,0.2,0.6,0.3c0.7,0.3,1.2,1.3,1.2,2.2c0,1.1,0,2.3,0,3.4C415.1,289.2,414.5,289.8,413.8,289.6z"/>
			</g>
			<g>
				<path class="st2" d="M409.1,288c-0.2-0.1-0.4-0.1-0.7-0.2c-0.7-0.2-1.3-1.2-1.3-2.2c0-1.2,0-2.3,0.1-3.5c0-1,0.7-1.5,1.3-1.2
					c0.2,0.1,0.4,0.2,0.6,0.3c0.7,0.3,1.2,1.3,1.2,2.2c0,1.1,0,2.3,0,3.4C410.4,287.7,409.8,288.3,409.1,288z"/>
			</g>
			<g>
				<path class="st2" d="M404.6,286.5c-0.2-0.1-0.4-0.1-0.7-0.2c-0.7-0.2-1.3-1.2-1.3-2.2c0-1.2,0-2.3,0.1-3.5c0-1,0.7-1.5,1.3-1.2
					c0.2,0.1,0.4,0.2,0.6,0.3c0.7,0.3,1.2,1.3,1.2,2.2c0,1.1,0,2.3,0,3.4C405.8,286.1,405.3,286.7,404.6,286.5z"/>
			</g>
			<g>
				<path class="st2" d="M399.7,284.9c-0.2-0.1-0.4-0.1-0.7-0.2c-0.7-0.2-1.3-1.2-1.3-2.2c0-1.2,0-2.3,0.1-3.5c0-1,0.7-1.5,1.3-1.2
					c0.2,0.1,0.4,0.2,0.6,0.3c0.7,0.3,1.2,1.3,1.2,2.2c0,1.1,0,2.3,0,3.4C401,284.6,400.5,285.1,399.7,284.9z"/>
			</g>
			<g>
				<path class="st2" d="M395,283.3c-0.2-0.1-0.4-0.1-0.7-0.2c-0.7-0.2-1.3-1.2-1.3-2.2c0-1.2,0-2.3,0.1-3.5c0-1,0.7-1.5,1.3-1.2
					c0.2,0.1,0.4,0.2,0.6,0.3c0.7,0.3,1.2,1.3,1.2,2.2c0,1.1,0,2.3,0,3.4C396.3,283,395.8,283.6,395,283.3z"/>
			</g>
			<g>
				<path class="st2" d="M385.3,280.4c-0.2-0.1-0.4-0.1-0.7-0.2c-0.7-0.2-1.3-1.2-1.3-2.2c0-1.2,0-2.3,0.1-3.5c0-1,0.7-1.5,1.3-1.2
					c0.2,0.1,0.4,0.2,0.6,0.3c0.7,0.3,1.2,1.3,1.2,2.2c0,1.1,0,2.3,0,3.4C386.6,280.1,386,280.6,385.3,280.4z"/>
			</g>
			<g>
				<path class="st2" d="M380.9,279c-0.2-0.1-0.4-0.1-0.7-0.2c-0.7-0.2-1.3-1.2-1.3-2.2c0-1.2,0-2.3,0.1-3.5c0-1,0.7-1.5,1.3-1.2
					c0.2,0.1,0.4,0.2,0.6,0.3c0.7,0.3,1.2,1.3,1.2,2.2c0,1.1,0,2.3,0,3.4C382.2,278.6,381.6,279.2,380.9,279z"/>
			</g>
			<g>
				<path class="st2" d="M376.4,277.4c-0.2-0.1-0.4-0.1-0.7-0.2c-0.7-0.2-1.3-1.2-1.3-2.2c0-1.2,0-2.3,0.1-3.5c0-1,0.7-1.5,1.3-1.2
					c0.2,0.1,0.4,0.2,0.6,0.3c0.7,0.3,1.2,1.3,1.2,2.2c0,1.1,0,2.3,0,3.4C377.7,277,377.1,277.6,376.4,277.4z"/>
			</g>
			<g>
				<path class="st2" d="M372.1,275.5c-0.2-0.1-0.4-0.1-0.7-0.2c-0.7-0.2-1.3-1.2-1.3-2.2c0-1.2,0-2.3,0.1-3.5c0-1,0.7-1.5,1.3-1.2
					c0.2,0.1,0.4,0.2,0.6,0.3c0.7,0.3,1.2,1.3,1.2,2.2c0,1.1,0,2.3,0,3.4C373.4,275.1,372.9,275.7,372.1,275.5z"/>
			</g>
		</g>
		<g id="Windows_00000039820700727211637670000009659304648431908483_" class="st14">
			<path class="st2" d="M881.8,404.9l-0.9,4.1c-0.2,0.7,0,1.4,0.5,2l8.2,9.8c0.5,0.6,1.4,0.4,1.6-0.3l0.9-2.8L881.8,404.9z"/>
			
				<image style="overflow:visible;" width="92" height="54" xlink:href="54E3ADC5B9700902.png"  transform="matrix(0.24 0 0 0.24 865.2 409.7929)">
			</image>
			
				<image style="overflow:visible;" width="94" height="52" xlink:href="54E3ADC5B9700905.png"  transform="matrix(0.24 0 0 0.24 844.56 410.2729)">
			</image>
		</g>
	</g>
	<polygon class="st52" points="866.2,108.8 339.6,108.8 398.4,51.3 925,51.3 	"/>
	<text transform="matrix(0.9099 0 -0.5262 0.8503 364.1669 103.0892)" class="st107 st108 st109 st110">BOEING 787</text>
	<g class="st78">
		<circle class="st113" cx="49.3" cy="195.9" r="11.4"/>
		<circle class="st113" cx="49.3" cy="237.5" r="11.4"/>
		<circle class="st114" cx="49.3" cy="195.9" r="7.2"/>
		<circle class="st113" cx="49.3" cy="279.2" r="11.4"/>
		<circle class="st113" cx="49.3" cy="320.8" r="11.4"/>
		<circle class="st113" cx="49.3" cy="362.5" r="11.4"/>
		<circle class="st113" cx="49.3" cy="404.1" r="11.4"/>
	</g>
</g>
</svg>
