<?xml version="1.0" encoding="UTF-8"?>
<svg id="Layer_2" data-name="Layer 2" xmlns="http://www.w3.org/2000/svg" xmlns:xlink="http://www.w3.org/1999/xlink" viewBox="0 0 983.88 812.36">
  <defs>
    <style>
      .cls-1 {
        fill: url(#linear-gradient);
      }

      .cls-1, .cls-2 {
        stroke-width: 0px;
      }

      .cls-3 {
        fill: none;
        opacity: .4;
        stroke: #fff;
        stroke-miterlimit: 10;
        stroke-width: 1.51px;
      }

      .cls-2 {
        fill: #0b97d7;
      }
    </style>
    <linearGradient id="linear-gradient" x1="746" y1="72.42" x2="154.04" y2="828.18" gradientUnits="userSpaceOnUse">
      <stop offset="0" stop-color="#89d5f6"/>
      <stop offset=".72" stop-color="#ade1fa"/>
    </linearGradient>
  </defs>
  <g id="Where_It_s_made" data-name="Where It&amp;apos;s made">
    <g>
      <rect class="cls-1" x="11.94" y="96.79" width="960" height="600"/>
      <path class="cls-3" d="m47.56,0v812.36M0,38.59h983.88M0,86.19h983.88M0,130.95h983.88M0,178.54h983.88M0,226.7h983.88M0,273.73h983.88M0,320.19h983.88M0,367.21h983.88M0,414.24h983.88M0,460.99h983.88M0,507.73h983.88M0,554.19h983.88M0,602.35h983.88m0,46.46H0m0,46.74h983.88M0,739.18h983.88M0,785.92h983.88M94.73,0v812.36M141.9,0v812.36M187.8,0v812.36M234.96,0v812.36M282.13,0v812.36M329.3,0v812.36M376.47,0v812.36M423.64,0v812.36M469.53,0v812.36M563.87,0v812.36M611.89,0v812.36M657.78,0v812.36M704.95,0v812.36M751.27,0v812.36M798.44,0v812.36M845.47,0v812.36M892.49,0v812.36M938.95,0v812.36M517.13,0v812.36"/>
      <g>
        <path class="cls-2" d="m331.54,672.35c.1-1.62-7.64-2.37-10.02-6.94-.19-.37-.61-1.27-1.41-2.44-1.78-2.61-2.67-2.51-3.08-3.6-1.2-3.14,5.36-6.37,4.5-10.92-.08-.43-.48-2.2-1.93-3.21-1.66-1.16-3.25-.3-4.11-1.41-.8-1.03-.4-3.02.51-4.24,1.24-1.64,3.03-1.34,3.34-2.57.3-1.15-1.21-1.7-1.16-3.21.08-1.98,2.75-2.88,2.44-3.85-.33-1.03-3.38-.2-4.37-1.8-.5-.81-.4-2.13.26-2.83,1.39-1.49,4.56.56,5.65-.64,1.3-1.43-2.25-5.37-1.03-6.94,1.28-1.65,5.87,1.85,9.25-.13,2.53-1.49,3.45-5.51,2.83-8.48-.92-4.38-5.28-6.78-4.88-7.32.41-.55,4.09,3.11,8.61,2.7,2.96-.27,6.27-2.29,7.71-5.27,2.16-4.47-1.63-7.48.58-12.46,1.41-3.17,3.23-2.6,4.62-5.78,2.18-4.99-1.52-8.23,0-11.95,2.1-5.15,10.43-2.02,15.99-6.94,8.07-7.14-2.31-20.09,5.78-34.49,4.65-8.26,10.79-8.84,12.14-17.34.78-4.93-.16-11.78-3.85-13.68-1.89-.97-3,.12-5.4-1.16-3.49-1.85-2.88-5.08-5.78-6.17-2.21-.83-2.83.95-7.32.58-1.47-.12-3.56-.32-5.4-1.73-1.6-1.24-1.12-1.95-2.51-3.28-2.33-2.24-4.71-1.18-10.02-3.66-.77-.36-1.63-.81-2.31-1.73-1.15-1.57-.99-3.47-.96-4.05.2-4.35-3.6-11.91-8.29-14.84-4.52-2.83-6.6.71-12.33-2.12-4.05-2-6.76-5.61-9.63-9.44-3.4-4.53-4.15-7.13-6.74-7.52-2.36-.35-2.86,1.63-6.55,1.93-.63.05-5.23.36-8.09-2.51-1.87-1.87-1.61-3.69-3.08-4.05-2.08-.5-4.05,2.75-5.2,2.12-1.06-.58.09-3.61-.77-4.05-.8-.41-2.7,1.73-5.59,5.2-5.59,6.71-6.69,8.54-8.86,8.67-1.33.08-1.1-.59-5.2-2.31-1.48-.62-4.8-1.99-9.06-2.7-3.83-.64-4.31-.06-5.01-.77-2.9-2.97,5.81-12.72,2.89-16.76-2.58-3.57-11.81.64-13.49-2.51-1.12-2.1,2.57-4.71,4.82-12.53.98-3.4,2.11-7.37.39-8.86-2-1.73-7.64.04-10.02,3.66-2,3.04-.4,5.38-2.31,7.32-2.4,2.45-8.2,2.06-11.56-.58-6.04-4.75-3.25-16.05-2.51-19.08,1.86-7.54,7.5-18.41,14.64-18.69,4.34-.17,8.39,3.58,10.41,1.73,1.2-1.1.15-2.8,1.54-4.05,1.79-1.6,6.22-1.2,8.67.96.96.84,1.52,1.88,2.7,1.93,1.28.05,1.76-1.13,2.51-.96,1.37.31.93,4.61,2.12,9.25,1.05,4.1,3.34,8.32,4.43,8.09,1.15-.24.19-5.31,1.35-14.26.76-5.87,1.14-8.8,2.89-11.56,1-1.58,1.38-1.55,10.79-9.25,3.9-3.19,5.45-4.52,6.94-6.94,2.22-3.62,1.02-4.35,2.7-6.94,3.96-6.11,11.86-3.88,15.8-10.41,1.28-2.13.39-2.28,1.73-4.62,4.36-7.62,15.43-8.93,15.8-8.09.21.47-3,1.55-3.08,3.85-.05,1.3.92,2.83,2.12,3.08,1.49.31,2.24-1.56,5.78-4.24,3.12-2.37,5.16-2.91,5.01-3.85-.19-1.22-3.6-.59-4.82-2.51-1.77-2.8,3.29-7.6,1.93-9.44-1.7-2.3-11.32,2.88-11.95,1.73-.42-.76,2.83-4.72,7.71-5.97,6.66-1.7,9.84,3.31,16.19,1.54,4.9-1.37,7.64-5.65,7.9-5.4.48.47-11.23,12.49-9.63,14.45.99,1.22,6.16-2.6,10.02-.19,1.11.69,1.76,1.68,2.89,1.54,1.45-.18,2.31-2.04,2.89-3.28.38-.81,2.1-4.51.77-5.78-1.37-1.31-4.7,1.19-5.59.19-1.21-1.36,4.94-5.91,4.43-11.37-.44-4.67-5.22-4.17-7.52-10.41-2.02-5.47.48-9.05-2.89-14.07-1.09-1.62-2.31-2.67-2.9-3.17-1.23-1.05-3.83-2.95-9.63-4.15-7.12-1.48-11.34-2.35-13.87,0-3.26,3.03-1.2,9.08-5.01,10.98-1.21.6-2.76.67-3.08,1.73-.32,1.06,1.01,1.67,1.16,2.89.33,2.81-6.24,3.56-9.25,8.67-2.16,3.67-.27,5.81-2.89,9.06-2.21,2.74-5.97,4.21-6.94,3.28-1.65-1.59,5.55-9.57,3.08-12.72-.75-.95-1.49-.33-4.43-1.35-4.7-1.63-4.73-3.9-9.25-5.4-2.46-.81-3.36-.44-4.43-1.54-1.78-1.83-1.31-4.95-1.16-5.97,1.58-10.51,27.21-21.01,29.1-18.11.84,1.29-3.33,4.8-2.31,6.17.95,1.27,5.48-.48,9.44-2.31,1.12.71,2.66,1.58,3.08,1.16.94-.94-4.65-7.51-3.66-8.48.52-.51,1.96,1.36,3.85,1.16,3.99-.44,3.62-9.43,9.06-11.75,2.69-1.15,5.55-.13,8.09.77.9.32,7.35,2.61,7.32,5.78-.02,2.78-5.03,4.9-8.48,6.36-5.26,2.23-9.08,2.35-9.06,3.08.02.54,2.12.78,8.67,1.73,7.31,1.07,10.97,1.6,12.33,1.93,4.81,1.15,6.4,2.15,7.13,1.35,1.78-1.96-5.19-10.81-4.24-11.56.74-.59,4.46,5.2,8.67,4.62,3.02-.42,5.84-4.05,5.2-6.36-.86-3.14-7.87-2.86-8.09-5.2-.2-2.11,5.34-3.69,5.01-5.2-.37-1.69-7.18.39-11.37-3.47-2.67-2.46-2.64-5.84-4.62-5.97-1.71-.12-2.24,2.37-4.62,2.7-2.12.29-2.87-1.5-5.59-2.51-4.34-1.6-8.85.6-11.18,1.73-.96.47-6.76,3.3-6.36,5.97.28,1.9,3.41,1.86,3.85,3.85.71,3.2-6.37,7.9-7.52,6.94-.8-.67,1.38-4.06.39-4.82-.75-.57-2.32,1.12-3.28.58-1.49-.85,1.14-5.63-.58-7.32-1.85-1.83-8.32.35-9.06,3.47-.25,1.07.35,1.48.19,2.7-.41,3.23-5.22,5.07-5.59,5.2-4.45,1.64-10.25.59-14.45-1.73-1.97-1.09-3.65-2.49-5.97-2.12-1.56.25-2.39,1.13-3.47,1.93-4.95,3.67-12.91,3.93-14.64,1.35-.78-1.16.32-1.95-.39-3.08-1.83-2.94-9.75,1.74-16.38-1.93-2.86-1.58-1.96-2.77-4.24-3.66-6.17-2.41-11.66,6.71-20.23,5.78-3.61-.39-5.81-2.35-7.71-3.66-17.71-12.19-57.56-.31-57.42,5.4.04,1.78,3.97,3.07,3.47,4.62-.38,1.16-2.89,1.37-5.01,1.54-4.59.37-5.74-.78-8.48,0-2.84.81-5.37,3.14-5.01,4.24.58,1.79,8.71.27,8.86,1.16.11.63-3.92,1.74-9.63,3.85-10.76,3.99-11.51,5.63-11.56,6.55-.13,2.34,4.02,4.59,3.47,5.4-.15.22-.58.21-1.19.19-1.24-.03-2.3-.51-2.27-.58.06-.18,8.05,1.34,8.09,3.08.03,1.2-3.73,1.51-9.25,4.24-4.11,2.04-9.3,5.47-8.86,6.55.54,1.33,9.59-.65,16.96-3.47,11.55-4.42,18.21-13.45,20.04-11.95.96.79-.64,3.36.51,4.24,1.52,1.15,6.38-1.71,9.51-4.37,2.11-1.79,3.07-3.18,4.5-2.95,1.45.23,1.53,1.85,3.21,3.21,2.75,2.24,5.6.39,8.86,1.54,4.14,1.46,6.34,6.81,6.94,10.15,1.33,7.45-4.19,11.03-1.8,17.09,1.33,3.37,4.33,5.53,3.92,5.97-.52.56-4.79-3.59-6.36-2.51-.87.6-.34,2.42.58,9.25.38,2.83.57,4.25.58,4.62.13,8.03-10.62,10.23-12.91,20.43-.49,2.17.22,1.09-.19,7.9-.54,8.9-1.87,13.01.39,14.84,1.52,1.23,2.73-.14,4.62,1.16,2.44,1.67,1.08,4.4,3.28,10.98,1.25,3.76,2.41,5.02,1.73,7.13-.69,2.13-2.4,2.49-2.31,4.05.12,2.04,3.08,2.03,4.62,5.01,1.27,2.45-.13,3.64,1.16,6.17,1.45,2.85,4.82,4.5,5.59,3.85.58-.49-.58-2.07-1.93-6.36-1.46-4.66-.71-4.72-1.93-8.09-1.7-4.69-3.44-5.33-3.47-8.48-.03-2.73,1.24-5.44,2.12-5.4.87.04.64,2.76,2.31,7.13,1.81,4.74,3.57,5.42,5.4,10.79.98,2.88.4,2.47,1.16,4.24,2.62,6.16,7.7,6.65,7.9,10.6.12,2.33-1.64,2.53-1.54,5.59.1,3.05,1.93,5.38,2.7,6.36,1.29,1.64,2.63,2.6,4.24,3.66,6.33,4.18,9.5,6.27,12.14,6.55,5.07.55,7.6-2.2,10.41-.19,1.49,1.07,1.05,2.04,3.08,3.85,1.05.94,1.94,1.37,6.36,3.08,5.77,2.23,6.18,2.24,7.52,3.08,1.58,1,3.54,2.23,4.82,4.43,2.65,4.58-.49,8.42,1.93,10.79,1.97,1.94,4.47-.23,8.29,2.12,2.6,1.6,3.39,3.8,4.43,3.47,1.51-.48.57-5.36,1.93-5.78,1.06-.33,3.34,2.15,4.43,5.2,1.88,5.27-1.66,6.97-2.12,16.96-.1,2.07-.03,3.93-1.35,5.01-2.02,1.66-5.29-.14-6.36,1.35-.57.8.04,1.75.77,4.24.51,1.75,1.72,5.87,1.16,9.63-.49,3.28-1.89,3.32-2.31,6.17-.56,3.75,1.38,6.9,2.7,9.06,12.26,20.14,10.29,20.89,15.22,24.86,7.21,5.8,12.57,5.13,15.8,11.75.31.64.68,1.5,1.73,7.9,2.07,12.54,3.11,18.81,2.7,23.32-.48,5.31-1.71,8.38-.77,14.45.43,2.79.75,2.5,1.35,5.59.31,1.57,1.03,5.79.19,19.85-.35,5.86-.65,8,.96,9.83,1.36,1.54,3.24,1.89,4.43,4.24.81,1.58.72,2.92.77,4.24.34,8.23,6.09,10.32,5.2,16.96-.23,1.73-.8,2.91-.19,4.62.71,2,2.11,2.16,3.28,4.43,1.15,2.23.19,2.85,1.16,5.01,1.29,2.9,4.63,5.45,6.94,4.82,1.88-.52,2.6-3.01,3.47-2.7.61.22.25,1.45,1.35,2.7.69.78,1.12.62,1.73,1.35.97,1.14.53,2.27.96,3.08,1.36,2.56,10.87,1.02,10.98-.77Z"/>
        <path class="cls-2" d="m245.6,234.93c3.71-.36,5.16-1.76,6.17-.96.87.69.71,2.48.58,4.05-.16,1.88-.65,2.19-.39,2.89.62,1.65,4.18,2.21,7.13,1.73,4.37-.71,4.46-3.23,7.71-3.47,3.89-.28,4.79,3.24,9.83,3.47.97.04,4.69.21,6.36-2.12,1.26-1.76.72-4.06,0-7.13-.43-1.84-.85-3.59-1.93-3.85-1.3-.32-2.08,1.88-4.24,1.93-1.5.03-1.66-1.01-3.28-.96-1.72.05-2.06,1.25-3.66,1.16-1.38-.08-2.37-1.04-2.7-1.35-1.56-1.49-.98-2.84-2.12-3.47-1.22-.67-2.29.65-4.82.58-1.57-.05-2.55-.6-3.47-.96-4.01-1.59-10.72-1.2-13.87,2.31-1.52,1.7-2.47,4.4-1.54,5.59.72.92,2.42.75,4.24.58Z"/>
        <path class="cls-2" d="m261.53,221.06c2.82-3.16,7.85-3.01,9.89-2.95,1.11.03,5.89.17,6.04,1.28.18,1.36-6.69,3.17-11.05,3.85-1.95.31-5.31.82-5.78-.26-.27-.62.53-1.52.9-1.93Z"/>
        <path class="cls-2" d="m269.88,224.65c-.18-1.32,4.68-4.29,8.99-3.34,3.39.75,4.85,3.58,6.81,2.83,1.7-.65,2.13-3.39,3.08-3.21.61.12.52,1.27,1.54,1.8.98.51,1.93-.1,2.18.26.32.45-.72,2.04-2.06,3.08-.92.72-3.37,2.26-15.42.13-4.68-.83-5.09-1.2-5.14-1.54Z"/>
        <path class="cls-2" d="m324.41,216.24c.85,1.13,3.45-.48,8.29-.96,4.72-.47,7.33.56,7.71-.39.39-.97-2.08-2.84-3.47-3.66-1.04-.61-3.24-1.92-6.17-1.54-.39.05-4.44.64-5.97,3.85-.31.65-.94,1.97-.39,2.7Z"/>
        <path class="cls-2" d="m325.18,221.06c.01,1.11,8.35,3.52,15.99.39,2.28-.94,1.93-1.31,4.82-2.7,6.32-3.03,8.93-1.68,15.42-3.66,6.77-2.07,6.01-4.19,12.72-5.97,6.4-1.7,11.11-.83,11.18-1.54.08-.79-5.81-2.21-11.37-2.89-1.74-.21-5.83-.65-15.42-.19-17.05.81-17.67,2.83-17.73,3.28-.1.76.89,1.05,1.73,3.28.42,1.11,1.1,2.9.58,4.24-.72,1.84-3.4,1.99-9.25,3.28-5.79,1.27-8.68,1.9-8.67,2.51Z"/>
        <path class="cls-2" d="m246.95,401.8c-.38-1.18,3.56-4.71,7.71-4.62,2.68.05,2.64,1.56,6.74,2.12,2.17.3,3.91.11,4.82,1.35.54.74.19,1.16.77,2.12.34.57.93,1.19,3.66,2.31,3.12,1.28,3.96,1.12,4.62,2.12.59.88.74,2.21.19,3.08-.91,1.46-3.6,1.43-5.4.77-1.4-.52-1.7-1.21-5.01-4.62-2.06-2.12-3.11-3.19-4.05-3.66-2.67-1.33-5.57-1.04-6.17-.96-1.93.23-2.64.84-4.82.77-1.14-.03-2.86-.09-3.08-.77Z"/>
        <path class="cls-2" d="m274.12,413.75c.12-.4,3.98.92,4.82-.39.66-1.04-1.22-2.73-.58-3.66.64-.94,3.2-.18,5.78.58,3.54,1.04,5.45,1.63,5.97,3.28.25.77.23,1.89-.39,2.7-1.58,2.08-6.18.89-9.63,0-3.55-.92-6.07-2.18-5.97-2.51Z"/>
        <path class="cls-2" d="m379.71,243.02c-4.23,2-7.74,6.18-8.48,8.86-1.97,7.12,12.83,13.26,11.18,21.2-.94,4.52-6.54,6.33-6.17,6.94.53.87,12.73-2.01,17.73-11.18,3.86-7.09-.15-11.41,3.85-16.57,3.04-3.92,9.01-4.85,20.81-6.55,12.74-1.83,19.59-1.04,21.97-5.4,1.9-3.49,1.54-7.32,1.54-7.32-.27-2.85-1.45-3.96-.77-5.01,1.27-1.95,5.9,1.01,10.02-1.16,3.77-1.98,5.39-7.33,4.24-8.48-.88-.88-3.34.73-3.85,0-.51-.73,1.29-3.23,3.47-5.01,5.86-4.77,13.88-3.79,13.87-4.24,0-.43-7.28.19-15.8-2.31-3.41-1-3.19-1.38-6.17-2.31-9.5-2.98-18.57-1.28-25.05,0-7.05,1.4-7.11,2.41-13.1,3.08-7.27.82-7.63-.62-14.26,0-6.93.65-18.06,1.47-19.65,5.4-.11.26-.31.88-.9,1.41-1.32,1.19-3.38.87-4.24.77-4.58-.55-10.77.82-11.3,2.7-.39,1.39,2.26,3.25,2.57,3.47,2.76,1.9,5.43,1.52,13.62,1.8,5.69.19,6.68.45,7.19,1.28,1.38,2.25-2.91,5.17-1.93,9.63.73,3.32,3.72,4.51,3.08,6.55-.41,1.32-1.95,1.73-3.47,2.44Z"/>
        <path class="cls-2" d="m439.32,248.42c-3.13,0-6.05,5.28-5.14,6.42.86,1.07,4.81-1.8,6.42-.26,1.16,1.11-.33,3.13.77,4.62,1.79,2.43,8.18.42,9.51,0,.75-.24,9.04-2.91,8.74-5.91-.19-1.87-3.67-3.56-6.68-3.6-3.92-.05-5.15,2.72-8.22,2.06-2.87-.62-3.15-3.34-5.4-3.34Z"/>
        <path class="cls-2" d="m460.84,293.7c1.27-1.96-.09-3.96.96-4.82.88-.71,1.94.56,3.66,0,2-.64,2.2-2.88,3.47-2.89,1.39-.01,2.41,2.65,2.51,2.89,1.01,2.7.8,7.2-2.51,9.44-2.14,1.45-4.91,1.52-6.94.58-1.33-.62-3.08-2.01-2.89-3.28.13-.84.99-.79,1.73-1.93Z"/>
        <path class="cls-2" d="m475.87,298.33c-.5,2.88-5.8,3.56-5.59,4.82.12.75,2.12,1.29,3.85.96,2.03-.38,2.12-1.65,4.05-2.51,3.46-1.54,6.41,1.11,8.09-.58.29-.29.13-.3.96-3.08.93-3.12,1.32-3.73.96-4.43-.51-1-1.83-.8-3.47-1.35-4.25-1.44-7.36-6.91-6.17-9.44.7-1.48,2.65-1.48,2.7-2.7.04-.97-1.17-1.19-2.7-3.08-1.69-2.09-1.49-3.41-2.51-3.66-1.3-.33-3.04,1.5-3.85,3.08-1.91,3.72.3,7.97.58,8.48.62,1.15,1.51,2.23,1.73,2.51,1.87,2.25,3.17,2.69,3.08,3.66-.11,1.19-2.1,1.11-2.7,2.7-.64,1.7,1.28,2.79.96,4.62Z"/>
        <path class="cls-2" d="m479.91,307.96c-.95,1.78-7.69-.6-8.09.39-.16.38.62,1.36,5.2,4.05.91,1.33,2.44,3.95,2.7,7.52.05.66.52,7.22-2.51,8.67-2.73,1.31-5.2-3.02-10.21-2.31-.36.05-4.02.62-5.97,3.47-2.17,3.16.26,5.52-1.54,11.95-.75,2.67-1.51,3.49-.96,4.82.83,2.03,3.76,2.94,6.74,3.85.92.28,2.03.62,3.54.81,1.89.24,5.04.65,8.41-.81.82-.36,5.54-2.52,6.74-6.94.74-2.71-.59-3.53.39-5.4,1.63-3.14,5.95-1.94,7.52-4.82,1.57-2.88-1.56-6.28-.19-7.52,1.62-1.46,6.07,3.23,10.6,1.54,2.15-.8,2.16-2.23,3.85-2.31,2.41-.11,2.93,2.75,7.52,6.36,2.53,1.99,3.57,2.06,6.36,4.62,1.69,1.55,2.66,2.77,3.08,4.43.17.67.74,2.92-.39,4.05-1.49,1.49-4.56-.41-5.59.96-.6.81-.09,2.18.39,2.89,1.17,1.75,3.86,1.98,5.59,1.16.96-.46,1.41-1.14,2.31-2.51,1-1.52,2.49-3.76,2.31-6.55-.11-1.72-.79-2.81-.39-3.08.61-.41,2.51,1.83,2.89,1.54.32-.25-.48-2.25-1.93-4.05-3.06-3.82-5.83-2.8-8.29-5.78-2.95-3.58-1.92-8.66-2.89-8.67-.43,0-1.01.99-.77,1.73.44,1.39,3.45.96,6.74,1.73,5.42,1.28,8.88,5.19,10.6,7.13,2.41,2.72,4.56,5.16,4.82,8.67.28,3.86-1.98,5.27-1.16,9.06.68,3.12,2.85,5.05,3.47,5.59,4.97,4.31,12.6,2.79,12.72,1.93.11-.81-6.43-.92-7.71-4.62-.87-2.53,1.09-5.66-.19-6.55-.65-.46-1.48.13-1.93-.39-.57-.66.47-1.98.96-3.85.9-3.42-.97-5.14,0-6.17,1.54-1.63,8.07.82,8.29,3.47.11,1.4-1.63,1.84-1.93,4.05-.3,2.17,1.08,4,1.54,4.62,2.04,2.72,5.29,3.37,6.74,3.66,2.06.41,1.96-.1,5.2.39,2.35.35,2.86.69,4.82.77,1.28.05,2.32-.04,4.05-.19,3.38-.3,3.96-.63,4.43-.19.93.86-.41,2.99-1.35,6.55-1.73,6.58.16,9.51-1.93,10.98-.51.36-2.78.18-7.32-.19-2.56-.21-4.45-.42-6.94.19-1.25.31-1.55.55-2.31.77-4.73,1.37-7.97-3.72-15.8-5.2-1.72-.33-5.58-1.06-6.94.77-1.15,1.54.53,3.49-.58,5.01-1.52,2.09-7.26,1.9-10.02-.96-2.09-2.17-1.3-4.65-3.08-5.4-2.09-.88-3.76,2.28-6.94,1.93-2.71-.3-5.49-3.02-5.78-5.78-.4-3.72,3.92-5.84,3.08-8.09-.46-1.24-2.27-2.01-7.32-2.31-10.45-.62-18.62,1.77-20.43,2.31-6.36,1.92-10.23,7.09-13.1,5.4-.97-.57-1.72-1.79-3.47-2.02-.67-.09-1.75-.07-3.47.87-1.17.64-4.26,2.57-6.55,7.71-1.49,3.32-.62,3.47-2.22,7.52-1.45,3.68-2.33,5.91-4.53,7.52-3.08,2.24-6.41,1.55-6.84,3.28-.35,1.4,1.69,2.42,1.25,3.66-.61,1.71-4.81.59-5.88,2.51-1.12,2.01,2.53,5,1.35,7.03-.85,1.47-3.04.4-4.62,1.93-1.65,1.59-.58,4-.35,10.63.16,4.58.23,6.87-.51,9.25-1.28,4.07-3.18,4.54-3.6,8.22-.3,2.7.44,4.92,1.03,6.68.48,1.43,1.07,2.67,3.6,6.68,4.34,6.87,4.56,6.29,5.65,8.74,2.12,4.72.97,6.11,3.08,8.22,2.39,2.39,4.31,1.04,7.19,3.6,3.04,2.68,2.28,5.37,4.62,6.17,1.34.45,1.85-.34,7.19-2.06,2.95-.95,4.46-1.43,6.17-1.54,3.06-.21,3.26.68,6.17.51,1.51-.09,3.42-.74,7.19-2.06,5.04-1.75,5.31-2.12,6.68-2.06,2.8.13,2.94,1.72,6.68,3.08,5.11,1.86,7.6-.13,9.76,2.06,1.72,1.74,1.61,4.46,1.54,6.17-.15,3.75-1.83,5.09-3.08,8.74,0,0-1.92,5.61-.51,11.82,1.19,5.23,3.67,5.23,7.19,11.82,1.18,2.21,4.29,8.53,4.62,16.44.18,4.13-.57,7.55-2.06,14.39-2.19,10.05-4.31,13.86-2.06,16.96,1.45,1.99,2.74.99,6.17,3.73.77.62,6.66,5.32,6.17,10.79-.3,3.3-2.61,3.49-2.7,6.55-.09,3.39,2.71,4.23,5.78,9.63,2.86,5.03,1.39,5.99,4.24,10.79,1.52,2.55,3.6,6.06,7.71,8.09,4.34,2.15,9.93,2.17,14.26,0,4.88-2.45,3.3-5.24,11.18-12.33,2.82-2.54,4.53-3.53,5.4-6.17,1.24-3.78-1.11-5.27,0-8.48,1.68-4.86,7.96-3.91,9.63-8.86.22-.65.02-3.27-.39-8.48-.46-5.87-.59-5.84-.39-6.55,1.1-3.83,4.81-3.99,9.63-8.86,1.88-1.9,4.18-4.22,5.4-7.71,1.68-4.8-.85-5.6-.77-15.8.03-4.32.51-6.57-.77-10.02-.96-2.59-1.83-2.98-2.31-5.01-.38-1.59-.59-4.53,3.08-10.79,4.76-8.12,10.8-12.9,11.56-13.49,6.98-5.42,9.56-4.34,12.72-8.86,1.83-2.62.47-2.28,3.85-12.33,1.89-5.63,3.53-9.34,2.7-14.26-.47-2.78-1.32-3.55-1.93-3.85-1.31-.67-2.57.24-7.32,1.93-4.51,1.6-5.63,1.58-6.17,1.54-2.7-.19-4.64-1.75-5.78-2.7-4.48-3.7-2.95-6.82-6.94-10.28-3.36-2.91-6.27-2.27-6.94-4.62-.77-2.73,2.84-4.54,2.06-7.19-.85-2.9-5.56-2.06-7.19-5.4-1.33-2.71,1.17-4.53.51-8.74-.4-2.54-1.55-3.44-4.88-7.96-3.97-5.39-8.4-11.41-7.19-12.85.8-.96,4.04.2,6.17,1.54,4.1,2.58,5.81,6.9,7.96,12.59,1.38,3.65,1.07,3.94,2.57,7.45,1.24,2.92,2.46,5.06,4.11,7.96,2.93,5.14,3.67,5.65,5.14,8.99.55,1.26,1.36,3.09,2.06,5.65,1.42,5.19.89,7.82,2.57,8.74.71.39,1.33.21,4.37-.77,10.48-3.36,6.95-2.41,12.59-4.37,1.89-.66,3.02-1.02,4.37-2.06,1.89-1.45,2.4-2.84,3.34-4.11,3.48-4.69,8.75-2.17,11.82-6.17.51-.66.63-1.08,1.54-10.53.72-7.5.73-8.1.26-8.99-1.77-3.37-5.66-2.21-13.1-5.4-2.73-1.17-11.29-4.84-13.36-12.08-.49-1.72-.92-4.7.26-5.4,1.59-.95,4.31,3.34,11.3,7.45,4.23,2.48,8.16,3.81,12.85,5.4,3.82,1.29,5.74,1.94,7.96,2.31,9.02,1.52,12.59-1.78,16.19,1.03,1.92,1.5.77,2.33,4.11,6.94,2.23,3.08,4.6,6.35,7.71,6.42,2.65.06,3.79-2.24,5.4-1.54,1.4.61,1.59,2.83,2.06,6.42,0,0,.63,4.86,1.54,10.02,1.6,9.06,6.23,8.63,8.22,18.24.36,1.72.8,4.61,2.31,8.48,1.23,3.17,2.31,5.85,3.85,5.91,1.89.07,3.63-3.83,5.01-6.94.81-1.81,1.25-2.8,1.54-4.24,1.12-5.43-1.72-7.9-.77-12.33.39-1.79,1.41-3.12,3.47-5.78,5.25-6.8,8.35-6.02,12.33-11.56,3.12-4.34,2.58-6.72,5.78-8.48,3.25-1.79,6.72-.93,7.32-.77,5.11,1.35,7.32,6.35,8.09,8.09,1.04,2.35,1.32,4.52,1.54,6.17.66,5.03-.38,7.43.77,8.09,1.94,1.12,6.95-4.55,7.71-3.85.37.34-.91,1.61-1.16,3.47-.47,3.57,3.48,5,5.4,9.25,2.51,5.59-2.03,8.24.39,14.64,1.4,3.71,2.92,2.8,5.4,8.09,1.55,3.32,1.26,4.32,3.47,9.25,1.56,3.49,2.66,5.1,3.47,6.17.32.42,4.05,5.3,5.4,4.62,1.54-.78-.88-8.38-1.16-9.25-.78-2.41-2.39-6.66-6.17-12.33-4.22-6.35-5.91-6.59-6.94-10.41-1.34-4.98-.08-10.5,1.54-10.79.85-.15,1.14,1.27,3.47,3.47,3.7,3.5,5.74,2.55,7.71,5.4,1.49,2.15.72,3.27,2.7,5.78,1.04,1.32,2.18,2.77,3.47,2.7,1.06-.06,2.43-1.14,5.78-11.56,2.01-6.25,3.01-9.37,2.7-10.79-1.44-6.5-9.49-6.46-10.79-12.72-.86-4.11,1.54-9.26,5.01-10.79,4.28-1.89,7.49,2.91,13.1,1.54.91-.22,2.67-.8,8.86-8.09,6.84-8.06,10.26-12.18,10.41-16.57.14-4.36-1.95-7.73-3.85-10.79-5.28-8.5-12.04-9.92-11.56-13.87.46-3.81,7.05-5.2,6.55-7.32-.55-2.38-8.81-.71-10.79-4.62-1.17-2.32.16-5.98,1.93-6.55,1.93-.62,3.37,2.8,6.94,2.7,2.18-.06,2.98-1.37,4.24-.77,1.49.71.69,2.69,2.31,5.01,1.73,2.47,3.59,1.58,5.78,4.24,1.67,2.03,1.04,3.09,2.7,4.62,1.9,1.75,5.02,2.48,5.78,1.54.64-.79-.68-2.45-5.01-10.41-1.9-3.49-2.14-4.08-2.31-5.01-.74-3.98,1.02-7.47,1.93-9.25,1.26-2.48,2.06-4.08,3.85-5.01,3.54-1.83,6.72,1.16,8.48-.39,1.65-1.45-.58-4.58-1.16-11.18-.65-7.46,1.74-8.94,0-13.87-1.57-4.45-4.83-6.98-5.78-7.71-1.57-1.19-4.99-3.79-9.25-3.47-4,.3-5.63,2.94-7.71,1.93-2.01-.98-2.24-4.29-2.31-5.4-.4-5.86,3.99-10.17,4.24-10.41,4.23-4.03,11.23-5.34,16.57-3.47,4.08,1.43,5.89,4.26,9.25,3.47,1.46-.34,3.33-1.4,3.85-3.08.88-2.85-2.57-5.92-1.93-6.55.72-.71,4.56,3.65,8.48,2.7.66-.16,1.74-.57,2.73-1.38,1.64-1.33,2.09-2.94,2.28-2.86.34.13-1.72,4.96-2.31,11.18-.22,2.29-.33,3.44,0,5.01.7,3.36,2.7,5.19,5.4,8.09,7.45,8.03,8.13,11.18,10.41,10.79,2.68-.46,3.89-5.19,4.24-6.55.17-.65,1.27-5.24-1.16-9.63-1.22-2.21-2.9-3.59-4.62-5.01-3.44-2.83-5.38-2.99-5.4-4.24-.03-1.82,4.03-4.24,7.32-3.47,2.42.56,2.72,2.44,4.24,2.31,2.83-.24,2.54-6.8,6.94-8.86,2.9-1.36,5.74.21,6.17-.77.72-1.64-7.17-6.03-6.55-7.32.41-.85,4.03.61,10.02.77,3.32.09,7.76.21,8.48-1.54.74-1.8-2.69-5.07-5.4-6.94-4.7-3.24-8.45-3.12-21.2-4.62-10.54-1.24-15.82-1.86-17.34-2.31-4.74-1.4-8.94-3.35-14.26-1.93-2.2.59-2.08,1.08-5.01,2.31-6.84,2.88-16.96,4.19-20.04,0-1.27-1.72-.07-2.64-1.16-4.24-3.37-4.95-15.02,3.66-26.98-1.16-5.09-2.05-7.02-5.24-12.33-5.01-2.92.12-3.41,1.14-8.09,2.7-5.45,1.82-13.5,4.5-18.11,1.16-3.72-2.7-2.17-7.11-5.78-8.86-3.13-1.52-6.47.74-10.79,2.31-5.97,2.17-14.86,4.64-20.81,1.16-4.45-2.61-2.61-5.96-7.71-9.25-6.2-4-14.09-2.36-16.19-1.93-3.47.72-3.22,1.39-8.09,3.08-12,4.17-16.89,1.28-22.74,6.17-2.31,1.93-2.21,2.93-4.62,4.24-4.65,2.52-10.08,1.52-11.95,1.16-5.48-1.08-7.66-3.52-9.25-2.31-1.89,1.44-.49,6.2-.39,6.55,1.23,4.04,4.24,6.05,3.85,6.55-.67.87-8.64-6.57-14.64-4.24-1.63.63-1.54,1.38-3.85,2.31-2.85,1.15-4.41.6-8.86.77-5.2.2-7.82.3-10.41,1.93-2.94,1.85-4.16,4.63-5.01,4.24-.89-.41.61-3.33-.77-5.01-1.88-2.28-8.09-1.06-8.48.77-.32,1.52,3.59,2.52,3.47,4.62-.12,2.08-4.12,3.36-8.09,4.62-4.57,1.46-7.56,2.41-9.63.77-1.72-1.36-2.46-3.78-1.93-4.24.63-.54,2.53,2.16,6.29,2.7.78.11,4.1.58,5.91-1.54.09-.11,1.49-1.8,1.03-3.6-.63-2.44-4.26-3.43-8.86-4.62-5.44-1.41-6.7-.77-10.28-2.44-2.81-1.31-2.21-1.78-5.01-3.08-1.57-.73-7.52-3.51-12.33-1.16-1.83.89-1.41,1.51-3.6,2.57-3.39,1.64-4.89.39-7.45,1.8-2.24,1.23-1.37,2.34-4.5,5.4-2.7,2.63-3.96,2.4-6.1,4.95-1.88,2.23-1.25,2.81-2.7,4.62-3.69,4.63-8.99,2.41-12.72,6.94-1.86,2.26-2.2,4.83-2.31,5.78-.11.94-.69,5.77,1.73,7.52,3.58,2.58,10.47-3.88,13.3-1.35,1.09.98.3,2.16,2.12,6.74.86,2.18,1.31,3.27,2.31,3.85,2.11,1.22,5.97.24,7.52-2.12,2.34-3.56-1.61-8.68.58-10.6,1.51-1.33,4.58.08,4.82-.58.32-.9-5.77-2.52-6.17-5.78-.14-1.13,1.26-2.76,4.05-5.97,3.29-3.79,4.87-4.82,6.55-5.4,1.13-.39,3.09-.83,3.47-.19.46.76-1.87,2.13-3.08,5.4-.31.85-1,2.77-.58,5.01.43,2.29,2.11,5.42,4.82,6.17,3.38.93,5.44-2.66,10.6-1.93,1.27.18,2.51.59,2.51.96-.02,1.09-10.71.19-12.33,4.24-.87,2.16,1.31,4.56.19,5.59-1.14,1.05-3.65-1.26-5.4-.19-1.79,1.09-.12,4.1-1.93,6.94-2.02,3.17-6.79,3.62-9.25,3.85-2.5.24-4.53-.11-6.17-.39-3.53-.6-5.33-.7-6.17-1.73-1.27-1.56-.13-3.11-1.73-6.55-.48-1.02-1.09-2.31-1.93-2.31-.94,0-1.89,1.6-2.12,3.08-.42,2.72,1.8,3.67,1.35,5.59-.36,1.54-1.98,1.73-6.94,4.62-2.44,1.43-3.67,2.14-4.82,3.08-3.87,3.17-3.19,4.95-6.36,6.74-.95.54-3.22,1.82-6.17,1.73-1.86-.06-3.19-.63-3.66,0-.69.92,1.58,2.9.96,4.05Z"/>
        <path class="cls-2" d="m602.21,546.71c-.02-4.76,2.87-8.37,3.6-9.25,3.53-4.29,6.16-2.99,9.76-7.19,3.25-3.79,3.47-7.58,4.37-7.45,1.12.17,1.33,6.15,1.03,11.56-.88,15.5-5.93,24.83-7.45,27.49-1.89,3.3-5.35,9.34-8.22,8.74-2.17-.46-3.36-4.57-3.6-7.19-.42-4.7,2.07-6.25,1.54-11.56-.28-2.82-1.02-2.74-1.03-5.14Z"/>
        <path class="cls-2" d="m859.91,615.7s.46-.16,4.24-.77h0c9.59.73,11.95-.77,11.95-.77,2.16-1.38,2.49-3.3,3.85-6.17,3.32-6.99,6.72-6.82,12.72-14.26,1.52-1.88,6.61-8.48,9.25-18.11,1.51-5.51,2.65-9.65.77-13.87-1.75-3.94-4.18-3.59-8.86-9.63-1.62-2.09-4.22-5.51-5.78-10.41-1.35-4.24-.46-5.04-1.54-11.56-.69-4.15-2.19-13.22-5.01-13.49-2.44-.23-4.88,6.2-5.01,6.55-2.93,7.91.68,13.47-2.31,15.8-2.61,2.03-7.39-.59-7.71-.77-3.85-2.17-6.01-6.92-5.01-10.41.88-3.1,3.97-4.18,3.47-5.4-.46-1.12-3.03-.07-7.32-1.16-3.93-.99-5.46-2.8-6.94-1.93-1.13.67-.48,1.86-1.93,3.85-1.4,1.93-2.46,1.42-4.24,3.47-1.78,2.05-1.37,3.32-2.7,3.85-1.4.57-2.23-.7-5.01-1.16-.79-.13-3.77-.63-6.17.77-1.89,1.1-1.49,2.26-4.24,5.78-2.01,2.57-2.54,2.36-4.24,4.62-2.37,3.16-1.93,4.36-3.47,6.55-2.11,3.01-5.27,4.04-10.79,5.78-8.02,2.52-9.43.94-11.95,3.08-3.5,2.99-3.49,8.39-3.47,15.03.03,10.63,3.21,13.08.77,18.11-1.92,3.96-5.08,4.9-5.01,8.48.04,2.4,1.52,5.43,3.85,6.17,3.24,1.02,5.24-3.32,11.56-3.85,2.9-.25,2.73.65,5.4.39,4.98-.49,6.2-3.68,11.95-6.55,2.2-1.1,6.58-3.22,11.95-2.7.97.09,8.5.83,10.41,5.4,1.62,3.88-1.7,8.45-.39,9.25.16.1.75.36,3.22-1.5,4.25-3.19,5.83-6.46,6.42-6.21,1.01.43-4.28,9.77-.77,16.57.24.46,1.79,3.46,3.85,3.47,1.42,0,1.63-1.42,4.24-2.31Z"/>
        <path class="cls-2" d="m858.11,623.02c2.75-1.89,7.42-.42,7.96,1.54.21.76-.27,1.3-2.57,4.37-3.92,5.24-4.51,6.33-5.4,6.17-1.62-.3-2.01-4.43-2.06-4.88-.15-1.59-.51-5.43,2.06-7.19Z"/>
        <path class="cls-2" d="m901.79,640.49c1.43-2.38,3.64-3.06,10.28-5.65,4.64-1.81,6.95-2.71,7.45-3.08,3.84-2.86,4.17-6.07,8.22-7.45.68-.23,2.64-.9,3.6,0,1.04.98.43,3.41-.26,4.88-1.82,3.91-5.37,3.66-12.33,8.48-3.64,2.52-3.24,2.98-6.17,4.62-3.98,2.24-10.1,4.42-11.56,2.57-1.03-1.31.64-4.16.77-4.37Z"/>
        <path class="cls-2" d="m934.93,625.33c-.33-1.33,2.43-2.38,2.31-4.62-.08-1.49-1.35-2.1-1.03-2.83.52-1.15,3.71.42,5.4-1.03,1.14-.98.67-2.55.77-8.99.07-4.28.3-4.95.77-5.14,1.06-.42,3.41,1.56,3.34,3.34-.05,1.33-1.41,1.76-1.28,3.08.11,1.14,1.24,1.92,1.8,2.31,2.03,1.4,3.71.74,4.11,1.54.49.98-1.7,2.54-4.11,5.4-4.14,4.9-3.85,7.62-6.68,8.48-2.32.71-5.09-.33-5.4-1.54Z"/>
        <path class="cls-2" d="m875.07,509.46c3.11.03,4.25,4.93,6.42,4.62,1.96-.28,1.74-4.39,4.62-5.4,1.51-.53,3.27,0,4.37.77,2.4,1.68,1.42,4.34,3.6,5.65,1.49.9,2.21-.2,5.14.51,3,.73,4.1,2.33,4.88,1.8.83-.57.46-3.02-.51-4.88-1.54-2.93-3.53-2.4-5.14-5.4-.86-1.6-.48-2.08-1.8-4.62-.49-.93-1.05-2-2.06-3.08-1.34-1.44-2.57-1.94-3.6-2.57-3.14-1.91-2.46-3.78-5.14-6.17-1.41-1.25-1.82-.94-13.1-4.11-2.56-.72-3.11-.9-4.11-.77-4.43.56-6.04,5.63-7.96,5.14-2.21-.56-.6-7.36-4.11-9.51-2.6-1.59-6.83.1-6.94,1.28-.12,1.25,4.38,1.89,4.62,4.37.11,1.09-.72,1.39-.77,3.08-.02.5,0,2.68,1.28,3.6,1.39.99,2.74-.56,5.14,0,1.45.34,1.55,1.03,4.37,3.34,3.92,3.21,5.07,2.96,5.4,4.37.57,2.45-2.74,3.96-2.06,6.68.34,1.34,1.54,2.56,2.83,2.83,1.91.4,2.65-1.56,4.62-1.54Z"/>
        <path class="cls-2" d="m705.37,453.06c.2,1.03.89,4.57,3.08,5.01,1.83.37,3.89-1.6,4.62-3.47,1.75-4.45-2.98-10.83-5.4-10.41-1.95.34-3.03,5.18-2.31,8.86Z"/>
        <path class="cls-2" d="m747.12,460.9c-.6,1.3,3.78,6,8.48,8.48,1.07.57,2.4,1.14,3.08,2.57.93,1.95-.27,3.52-.26,5.65.02,3.24,2.84,4.38,5.91,8.22,5.51,6.9,3.18,11.68,7.96,14.39,2.34,1.33,5.78,1.81,7.45.26,1.27-1.19,1.08-3.15.77-6.42-.24-2.46-.61-6.4-3.34-10.02-1.15-1.52-1.36-1.2-4.62-4.11-1.67-1.49-5.35-4.8-8.74-9.25-3.33-4.38-2.57-4.86-4.62-6.68-4.56-4.03-11.46-4.43-12.08-3.08Z"/>
        <path class="cls-2" d="m779.75,505.09c.02-2.1,1.89-4.37,3.6-4.37,2.03,0,2.35,3.2,4.88,3.6,2.13.34,2.77-1.79,5.65-1.8,1.65,0,2.89.68,4.88,1.8,2.86,1.6,3.06,2.61,4.88,3.34,2.31.93,4.05.14,6.68-.26,7.17-1.08,14.18,1.74,14.13,2.83-.03.59-2.15.93-4.37,1.28-4.36.7-7.75.44-10.53.26-4.99-.33-7.49-.49-10.28-.51-8.58-.07-10.59,1.28-14.39-.51-.85-.4-5.17-2.44-5.14-5.65Z"/>
        <path class="cls-2" d="m789.51,479.4c-.38-4.02-.93-4.97-.26-5.65,1.29-1.31,4.33,1.22,6.42-.26,1.3-.92.62-2.26,1.8-4.37,1.72-3.08,4.23-2.13,7.19-5.14,3.22-3.27,2.67-6.87,4.88-7.19.72-.11.83.28,4.11,1.8,3.02,1.4,3.73,1.45,3.85,2.06.3,1.5-3.89,2.07-4.88,5.14-.78,2.42,1.4,3.41,1.54,7.96.05,1.71-.22,3.02-.77,5.65-.26,1.26-.74,3.47-1.8,6.17-1.43,3.64-2.15,5.46-3.85,6.68-1.65,1.19-3.41,1.22-6.94,1.28-5.11.1-8.7.16-10.28-2.06-.36-.51-.5-2.74-.77-7.19-.24-3.94-.11-3.31-.26-4.88Z"/>
        <path class="cls-2" d="m816.75,414.39c2.04-1.01,5.76.6,6.68,3.08,1.61,4.33-5.93,9.65-4.37,12.08,1.39,2.15,7.99-1.04,10.02,1.8.77,1.07.65,2.68,0,3.6-1.51,2.14-6.58,1.42-9.76-.77-.36-.25-1.5-1.07-2.57-2.57-2.29-3.23-2.19-6.75-2.06-9.76.17-3.9.29-6.57,2.06-7.45Z"/>
        <path class="cls-2" d="m829.33,447.54c3.35-.23,4.44-3.24,5.91-2.83,1.7.48,2.28,5.06,1.28,8.74-.45,1.66-1.24,4.57-3.6,5.4-2.99,1.05-6.98-1.78-7.96-5.14-.66-2.27-.11-5.33,1.54-6.17.88-.44,1.34.1,2.83,0Z"/>
        <path class="cls-2" d="m827.28,290.81c.44-.35,3.47,2.81,3.73,3.08,2.81,2.94,5.61,5.86,6.8,10.28.49,1.81.66,3.7,1.54,3.85.92.15,1.63-1.74,2.31-1.54.66.19.47,2.12.51,6.42.03,3.64.19,4.42-.26,4.62-1.04.48-3.85-2.88-5.65-6.17-1.98-3.63-1.53-4.95-3.08-9.25-2.52-6.95-6.41-10.91-5.91-11.3Z"/>
        <path class="cls-2" d="m843.21,324.98c.58-.63-1.94-2.93-1.28-4.11.64-1.16,4.23-1.05,6.68.51,1.41.9,1.36,1.58,3.34,2.83,1.71,1.07,2.83,1.25,2.83,1.8-.01.84-2.62.67-3.85,2.57-.84,1.3-.16,2.23-1.03,3.08-1.17,1.16-3.91.93-4.62-.26-.75-1.25.88-3.36.51-3.6-.45-.29-2.41,3.37-4.11,3.08-1.9-.33-3.08-5.53-1.8-6.42.91-.63,2.84,1.07,3.34.51Z"/>
        <path class="cls-2" d="m847.19,336.87c-1.56,2.41.94,4.6.19,7.9-.7,3.06-3.7,4.94-7.52,7.32-4.03,2.52-5.85,2.36-7.32,4.82-.33.56-.74,2.11-1.54,5.2-1.06,4.07-1.04,4.93-.77,5.78.48,1.56,1.89,3.46,3.47,3.47,2.28.02,4.16-3.92,4.82-6.55.82-3.28-.25-4.54.96-5.97.72-.85,1.48-.85,6.74-1.73,4.77-.8,5.91-1.1,6.94-2.12,1.17-1.17,1.49-2.58,1.73-3.66.39-1.71.27-3.21-1.35-8.86-1.82-6.35-2.44-7.15-3.28-7.32-1.12-.23-2.43.72-3.08,1.73Z"/>
      </g>
    </g>
  </g>
</svg>