<?xml version="1.0" encoding="UTF-8"?>
<svg id="Layer_2" data-name="Layer 2" xmlns="http://www.w3.org/2000/svg" viewBox="0 0 286.51 39.49">
  <defs>
    <style>
      .cls-1 {
        stroke-width: 2px;
      }

      .cls-1, .cls-2 {
        fill: none;
        stroke: #fff;
        stroke-miterlimit: 10;
      }

      .cls-2 {
        stroke-width: 1.42px;
      }

      .cls-3 {
        fill: #fff;
      }

      .cls-3, .cls-4 {
        stroke-width: 0px;
      }

      .cls-4 {
        fill: #0239a1;
      }
    </style>
  </defs>
  <g id="Design">
    <g>
      <line class="cls-1" x1="1" y1="39.49" x2="1" y2="9.05"/>
      <line class="cls-1" x1="1" y1="9.05" x2="26.35" y2="9.05"/>
      <g>
        <circle class="cls-3" cx="24.3" cy="9.05" r="6.3"/>
        <circle class="cls-2" cx="24.3" cy="9.05" r="8.34"/>
      </g>
      <g>
        <path class="cls-4" d="M52.45,4.49h-5.9l-.06,2.29c.32-.11.76-.17,1.32-.17.76,0,1.45.11,2.08.34s1.17.55,1.63.98c.46.43.81.94,1.06,1.55s.38,1.29.38,2.05c0,.84-.14,1.59-.43,2.25-.29.66-.68,1.21-1.19,1.67s-1.1.8-1.8,1.04c-.69.24-1.45.36-2.26.36-1.29,0-2.37-.32-3.23-.95-.87-.63-1.46-1.58-1.79-2.86l3.3-.76c.08.53.31.96.67,1.29.36.33.82.49,1.36.49.67,0,1.21-.21,1.61-.63.4-.42.6-.95.6-1.6,0-.49-.1-.89-.3-1.21-.2-.32-.47-.57-.8-.76-.33-.19-.7-.32-1.1-.39s-.81-.11-1.22-.11c-.52,0-1.04.05-1.56.15s-1.03.23-1.52.4l.17-8.21h8.99v2.77Z"/>
        <path class="cls-4" d="M54.72,9.15c0-.88.08-1.78.24-2.69.16-.91.45-1.74.86-2.48s.98-1.35,1.69-1.82c.71-.47,1.62-.7,2.73-.7s2.02.23,2.73.7c.71.47,1.28,1.07,1.69,1.82.41.74.7,1.57.86,2.48.16.91.24,1.81.24,2.69s-.08,1.78-.24,2.69c-.16.91-.45,1.74-.86,2.48-.41.74-.98,1.35-1.69,1.82-.71.47-1.62.7-2.73.7s-2.02-.23-2.73-.7c-.71-.47-1.28-1.07-1.69-1.82s-.7-1.57-.86-2.48c-.16-.91-.24-1.81-.24-2.69ZM57.87,9.15c0,.39.02.86.05,1.41.03.55.13,1.07.28,1.58.15.5.39.93.7,1.28s.76.52,1.33.52,1-.17,1.32-.52c.32-.35.56-.78.71-1.28.15-.5.25-1.03.28-1.58.03-.55.05-1.01.05-1.41s-.02-.86-.05-1.41c-.04-.55-.13-1.07-.28-1.58-.15-.5-.39-.93-.71-1.28-.32-.35-.76-.52-1.32-.52s-1.02.17-1.33.52c-.31.35-.55.78-.7,1.28-.15.5-.25,1.03-.28,1.58-.04.55-.05,1.01-.05,1.41Z"/>
        <path class="cls-4" d="M66.56,5.62c0-.57.11-1.11.33-1.62.22-.5.51-.95.88-1.32.37-.38.81-.67,1.31-.89.5-.22,1.04-.33,1.62-.33s1.11.11,1.62.33c.5.22.94.51,1.31.89s.67.82.88,1.32c.22.5.33,1.04.33,1.62s-.11,1.11-.33,1.62c-.22.5-.51.94-.88,1.32-.37.38-.81.68-1.31.89-.5.22-1.04.33-1.62.33s-1.11-.11-1.62-.33c-.5-.22-.94-.51-1.31-.89-.37-.38-.67-.82-.88-1.32-.22-.5-.33-1.04-.33-1.62ZM72.7,5.62c0-.56-.19-1.04-.58-1.43-.39-.39-.86-.59-1.42-.59s-1.03.2-1.42.59c-.39.39-.58.87-.58,1.43s.19,1.04.58,1.43c.38.39.86.59,1.42.59s1.03-.2,1.42-.59c.38-.39.58-.87.58-1.43ZM79.37,1.04l1.76.99-8.67,15.22-1.6-.9,8.5-15.31ZM77.13,12.66c0-.57.11-1.11.33-1.62.22-.5.51-.95.88-1.32.37-.38.81-.67,1.31-.89.5-.22,1.04-.33,1.62-.33s1.11.11,1.62.33c.5.22.94.51,1.31.89s.67.82.88,1.32c.22.5.33,1.04.33,1.62s-.11,1.12-.33,1.63c-.22.51-.51.96-.88,1.33s-.81.68-1.31.89-1.04.33-1.62.33-1.11-.11-1.62-.33-.94-.51-1.31-.89c-.37-.38-.67-.82-.88-1.33-.22-.51-.33-1.05-.33-1.63ZM83.26,12.66c0-.56-.19-1.04-.58-1.43-.39-.39-.86-.59-1.42-.59s-1.03.2-1.42.59c-.39.39-.58.87-.58,1.43s.19,1.06.58,1.45c.38.39.86.59,1.42.59s1.03-.2,1.42-.59c.38-.39.58-.88.58-1.45Z"/>
        <path class="cls-4" d="M102.96,5.58c-.32-.39-.72-.69-1.19-.9s-1.01-.31-1.63-.31-1.19.12-1.71.36c-.52.24-.98.57-1.36,1-.39.43-.69.93-.9,1.52-.22.59-.33,1.22-.33,1.91s.11,1.34.33,1.92c.22.58.51,1.08.89,1.51.38.43.82.76,1.33,1,.51.24,1.06.36,1.65.36.67,0,1.27-.14,1.79-.42.52-.28.94-.67,1.28-1.18l2.73,2.04c-.63.88-1.43,1.53-2.39,1.95-.97.42-1.96.63-2.98.63-1.16,0-2.23-.18-3.21-.55s-1.83-.89-2.54-1.56-1.27-1.5-1.67-2.47-.6-2.04-.6-3.23.2-2.27.6-3.23.96-1.79,1.67-2.47c.71-.68,1.56-1.2,2.54-1.56.98-.36,2.05-.55,3.21-.55.42,0,.86.04,1.31.12.46.08.9.2,1.34.37s.86.39,1.27.67c.41.28.77.62,1.09,1.03l-2.52,2.06Z"/>
        <path class="cls-4" d="M106.84,11.48c0-.81.15-1.55.44-2.21.29-.66.7-1.22,1.21-1.69.51-.47,1.11-.83,1.81-1.08s1.43-.38,2.22-.38,1.52.13,2.22.38,1.29.61,1.81,1.08c.51.47.91,1.03,1.21,1.69.29.66.44,1.39.44,2.21s-.15,1.55-.44,2.2c-.29.66-.7,1.22-1.21,1.69-.51.47-1.11.83-1.81,1.08s-1.43.38-2.22.38-1.52-.13-2.22-.38-1.29-.61-1.81-1.08c-.51-.47-.91-1.03-1.21-1.69-.29-.66-.44-1.39-.44-2.2ZM109.99,11.48c0,.77.22,1.39.66,1.87.44.48,1.06.71,1.86.71s1.42-.24,1.86-.71c.44-.48.66-1.1.66-1.87s-.22-1.39-.66-1.87c-.44-.48-1.06-.71-1.86-.71s-1.42.24-1.86.71c-.44.48-.66,1.1-.66,1.87Z"/>
        <path class="cls-4" d="M120.03,6.38h3.02v1.39h.04c.1-.2.24-.39.42-.59.18-.2.4-.37.65-.52s.54-.28.86-.38c.32-.1.67-.15,1.05-.15.71,0,1.35.15,1.9.44.55.29.97.76,1.25,1.39.36-.66.8-1.13,1.32-1.41s1.16-.42,1.91-.42c.69,0,1.26.12,1.73.35.47.23.84.55,1.11.95.27.4.47.87.59,1.41.12.54.18,1.12.18,1.73v6.03h-3.15v-5.94c0-.48-.1-.88-.3-1.23-.2-.34-.56-.51-1.08-.51-.36,0-.67.06-.91.18-.25.12-.44.28-.59.49s-.25.46-.31.73c-.06.28-.09.57-.09.88v5.4h-3.15v-5.4c0-.18,0-.41-.02-.67-.01-.27-.06-.52-.15-.76-.08-.24-.22-.44-.41-.61s-.47-.25-.83-.25c-.41,0-.73.07-.99.22-.25.15-.44.34-.58.59-.13.25-.22.52-.26.83s-.06.63-.06.97v5.08h-3.15V6.38Z"/>
        <path class="cls-4" d="M138.59,6.38h2.9v1.34h.04c.13-.18.29-.37.49-.56.2-.19.44-.36.71-.51s.57-.28.89-.38c.32-.1.67-.15,1.03-.15.76,0,1.44.13,2.06.39.62.26,1.14.62,1.59,1.09.44.47.78,1.03,1.02,1.67.24.64.36,1.35.36,2.12,0,.71-.11,1.4-.33,2.05-.22.65-.52,1.23-.92,1.73s-.89.91-1.46,1.21c-.57.3-1.23.45-1.95.45-.66,0-1.27-.1-1.84-.3-.57-.2-1.03-.55-1.4-1.04h-.04v5.88h-3.15V6.38ZM141.49,11.48c0,.77.22,1.39.66,1.87.44.48,1.06.71,1.86.71s1.42-.24,1.86-.71c.44-.48.66-1.1.66-1.87s-.22-1.39-.66-1.87c-.44-.48-1.06-.71-1.86-.71s-1.42.24-1.86.71c-.44.48-.66,1.1-.66,1.87Z"/>
        <path class="cls-4" d="M151.15,11.48c0-.81.15-1.55.44-2.21.29-.66.7-1.22,1.21-1.69.51-.47,1.11-.83,1.81-1.08s1.43-.38,2.22-.38,1.52.13,2.22.38,1.29.61,1.81,1.08c.51.47.91,1.03,1.21,1.69.29.66.44,1.39.44,2.21s-.15,1.55-.44,2.2c-.29.66-.7,1.22-1.21,1.69-.51.47-1.11.83-1.81,1.08s-1.43.38-2.22.38-1.52-.13-2.22-.38-1.29-.61-1.81-1.08c-.51-.47-.91-1.03-1.21-1.69-.29-.66-.44-1.39-.44-2.2ZM154.3,11.48c0,.77.22,1.39.66,1.87.44.48,1.06.71,1.86.71s1.42-.24,1.86-.71c.44-.48.66-1.1.66-1.87s-.22-1.39-.66-1.87c-.44-.48-1.06-.71-1.86-.71s-1.42.24-1.86.71c-.44.48-.66,1.1-.66,1.87Z"/>
        <path class="cls-4" d="M170.11,9.38c-.46-.57-1.07-.86-1.83-.86-.27,0-.52.06-.78.19s-.38.34-.38.65c0,.25.13.44.39.56.26.12.59.22.99.32.4.09.83.19,1.28.29.45.11.88.27,1.28.49.4.22.73.53.99.91.26.38.39.9.39,1.54s-.14,1.2-.43,1.63c-.29.43-.65.77-1.1,1.03-.45.26-.95.44-1.51.55-.56.1-1.11.16-1.66.16-.71,0-1.44-.1-2.16-.3-.73-.2-1.34-.56-1.85-1.08l1.91-2.12c.29.36.62.64.98.83.36.19.77.28,1.25.28.36,0,.69-.05.99-.16.29-.1.44-.3.44-.58,0-.27-.13-.46-.39-.6-.26-.13-.59-.25-.99-.34s-.83-.19-1.28-.29c-.46-.11-.88-.26-1.28-.47s-.73-.51-.99-.89c-.26-.38-.39-.9-.39-1.54,0-.6.12-1.12.37-1.55.24-.43.57-.79.97-1.07s.86-.49,1.38-.62c.52-.13,1.04-.2,1.58-.2.67,0,1.35.1,2.04.29.69.2,1.27.55,1.74,1.05l-1.93,1.91Z"/>
        <path class="cls-4" d="M173.85,3.16c0-.5.18-.93.54-1.29.36-.36.79-.54,1.29-.54s.93.18,1.29.54c.36.36.54.79.54,1.29s-.18.93-.54,1.29c-.36.36-.79.54-1.29.54s-.93-.18-1.29-.54c-.36-.36-.54-.79-.54-1.29ZM174.1,6.38h3.15v10.21h-3.15V6.38Z"/>
        <path class="cls-4" d="M186.47,8.9h-2.77v3.4c0,.28.01.54.04.77.03.23.09.43.19.6.1.17.25.3.45.39.2.09.47.14.81.14.17,0,.39-.02.66-.05s.48-.12.62-.24v2.62c-.35.13-.71.21-1.09.25s-.75.06-1.11.06c-.53,0-1.02-.06-1.47-.17-.45-.11-.84-.29-1.18-.54s-.6-.56-.79-.96c-.19-.39-.28-.87-.28-1.43v-4.85h-2.02v-2.52h2.02v-3.02h3.15v3.02h2.77v2.52Z"/>
        <path class="cls-4" d="M197.73,14.82c-.5.64-1.14,1.14-1.91,1.49-.77.35-1.57.53-2.39.53s-1.52-.13-2.22-.38-1.29-.61-1.81-1.08c-.51-.47-.91-1.03-1.21-1.69-.29-.66-.44-1.39-.44-2.2s.15-1.55.44-2.21c.29-.66.7-1.22,1.21-1.69.51-.47,1.11-.83,1.81-1.08s1.43-.38,2.22-.38c.73,0,1.39.13,1.98.38.59.25,1.1.61,1.51,1.08.41.47.73,1.03.96,1.69.22.66.34,1.39.34,2.21v.99h-7.31c.13.6.4,1.08.82,1.44.42.36.94.54,1.55.54.52,0,.96-.12,1.31-.35.36-.23.67-.53.93-.89l2.21,1.62ZM195.06,10.33c.01-.53-.16-.99-.52-1.37-.36-.38-.83-.57-1.41-.57-.35,0-.66.06-.92.17-.27.11-.49.26-.68.43-.19.18-.34.38-.44.61-.1.23-.16.47-.18.72h4.16Z"/>
        <path class="cls-4" d="M206.74,1.72h4.96l3.42,9.7h.04l3.44-9.7h4.94v14.87h-3.28V5.18h-.04l-3.91,11.4h-2.5l-3.76-11.4h-.04v11.4h-3.28V1.72Z"/>
        <path class="cls-4" d="M232.57,15.3h-.04c-.35.55-.82.94-1.4,1.18-.58.24-1.19.36-1.84.36-.48,0-.93-.07-1.38-.2-.44-.13-.83-.33-1.17-.6s-.6-.59-.8-.99c-.2-.39-.29-.85-.29-1.37,0-.59.11-1.08.33-1.49.22-.41.51-.74.88-1.01.37-.27.79-.47,1.27-.62.48-.15.97-.25,1.48-.33s1.02-.11,1.53-.13c.51-.01.98-.02,1.42-.02,0-.56-.2-1-.6-1.33s-.87-.49-1.42-.49-.99.11-1.42.33c-.43.22-.81.51-1.14.89l-1.68-1.72c.59-.55,1.27-.96,2.06-1.23.78-.27,1.6-.41,2.44-.41.92,0,1.68.12,2.28.35.59.23,1.07.57,1.43,1.02s.61,1,.75,1.65c.14.65.21,1.4.21,2.26v5.19h-2.9v-1.28ZM231.79,12.11c-.24,0-.54,0-.89.03-.36.02-.7.08-1.03.18s-.61.25-.84.44c-.23.2-.35.47-.35.82,0,.38.16.66.48.84.32.18.66.27,1.01.27.31,0,.61-.04.89-.13.29-.08.54-.2.77-.36.22-.15.4-.35.54-.59.13-.24.2-.52.2-.84v-.67h-.78Z"/>
        <path class="cls-4" d="M244.39,8.9h-2.77v3.4c0,.28.01.54.04.77.03.23.09.43.19.6.1.17.25.3.45.39.2.09.47.14.81.14.17,0,.39-.02.66-.05s.48-.12.62-.24v2.62c-.35.13-.71.21-1.09.25s-.75.06-1.11.06c-.53,0-1.02-.06-1.47-.17-.45-.11-.84-.29-1.18-.54s-.6-.56-.79-.96c-.19-.39-.28-.87-.28-1.43v-4.85h-2.02v-2.52h2.02v-3.02h3.15v3.02h2.77v2.52Z"/>
        <path class="cls-4" d="M255.65,14.82c-.5.64-1.14,1.14-1.91,1.49-.77.35-1.57.53-2.39.53s-1.52-.13-2.22-.38-1.29-.61-1.81-1.08c-.51-.47-.91-1.03-1.21-1.69-.29-.66-.44-1.39-.44-2.2s.15-1.55.44-2.21c.29-.66.7-1.22,1.21-1.69.51-.47,1.11-.83,1.81-1.08s1.43-.38,2.22-.38c.73,0,1.39.13,1.98.38.59.25,1.1.61,1.51,1.08.41.47.73,1.03.96,1.69.22.66.34,1.39.34,2.21v.99h-7.31c.13.6.4,1.08.82,1.44.42.36.94.54,1.55.54.52,0,.96-.12,1.31-.35.36-.23.67-.53.93-.89l2.21,1.62ZM252.98,10.33c.01-.53-.16-.99-.52-1.37-.36-.38-.83-.57-1.41-.57-.35,0-.66.06-.92.17-.27.11-.49.26-.68.43-.19.18-.34.38-.44.61-.1.23-.16.47-.18.72h4.16Z"/>
        <path class="cls-4" d="M258.04,6.38h3.15v1.64h.04c.34-.63.73-1.1,1.2-1.42.46-.32,1.04-.47,1.74-.47.18,0,.36,0,.55.02.18.01.35.04.5.08v2.88c-.22-.07-.44-.12-.66-.16-.22-.03-.44-.05-.68-.05-.6,0-1.08.08-1.43.25-.35.17-.62.4-.81.7s-.31.66-.37,1.08c-.06.42-.08.88-.08,1.39v4.26h-3.15V6.38Z"/>
        <path class="cls-4" d="M266.38,3.16c0-.5.18-.93.54-1.29.36-.36.79-.54,1.29-.54s.93.18,1.29.54c.36.36.54.79.54,1.29s-.18.93-.54,1.29c-.36.36-.79.54-1.29.54s-.93-.18-1.29-.54c-.36-.36-.54-.79-.54-1.29ZM266.63,6.38h3.15v10.21h-3.15V6.38Z"/>
        <path class="cls-4" d="M278.45,15.3h-.04c-.35.55-.82.94-1.4,1.18-.58.24-1.19.36-1.84.36-.48,0-.93-.07-1.38-.2-.44-.13-.83-.33-1.17-.6s-.6-.59-.8-.99c-.2-.39-.29-.85-.29-1.37,0-.59.11-1.08.33-1.49.22-.41.51-.74.88-1.01.37-.27.79-.47,1.27-.62.48-.15.97-.25,1.48-.33s1.02-.11,1.53-.13c.51-.01.98-.02,1.42-.02,0-.56-.2-1-.6-1.33s-.87-.49-1.42-.49-.99.11-1.42.33c-.43.22-.81.51-1.14.89l-1.68-1.72c.59-.55,1.27-.96,2.06-1.23.78-.27,1.6-.41,2.44-.41.92,0,1.68.12,2.28.35.59.23,1.07.57,1.43,1.02s.61,1,.75,1.65c.14.65.21,1.4.21,2.26v5.19h-2.9v-1.28ZM277.67,12.11c-.24,0-.54,0-.89.03-.36.02-.7.08-1.03.18s-.61.25-.84.44c-.23.2-.35.47-.35.82,0,.38.16.66.48.84.32.18.66.27,1.01.27.31,0,.61-.04.89-.13.29-.08.54-.2.77-.36.22-.15.4-.35.54-.59.13-.24.2-.52.2-.84v-.67h-.78Z"/>
        <path class="cls-4" d="M283.36.71h3.15v15.88h-3.15V.71Z"/>
      </g>
    </g>
  </g>
</svg>