<?xml version="1.0" encoding="UTF-8"?>
<svg id="Layer_2" data-name="Layer 2" xmlns="http://www.w3.org/2000/svg" viewBox="0 0 224.41 119.37">
  <defs>
    <style>
      .cls-1 {
        stroke: #86b6ee;
        stroke-width: 1.75px;
      }

      .cls-1, .cls-2 {
        stroke-miterlimit: 10;
      }

      .cls-1, .cls-3 {
        fill: #fff;
      }

      .cls-4 {
        fill: #000;
      }

      .cls-4, .cls-3 {
        stroke-width: 0px;
      }

      .cls-2 {
        fill: none;
        stroke: #fff;
        stroke-width: 1.51px;
      }
    </style>
  </defs>
  <g id="Where_It_s_made" data-name="Where It&amp;apos;s made">
    <g>
      <g>
        <line class="cls-2" x1="224.41" y1="5.35" x2="149.13" y2="5.35"/>
        <circle class="cls-3" cx="152.71" cy="5.35" r="3.89"/>
      </g>
      <rect class="cls-1" x=".87" y=".87" width="156.35" height="117.62" rx="20.99" ry="20.99" transform="translate(158.1 119.37) rotate(-180)"/>
      <g>
        <path class="cls-4" d="M19.41,19.19l.05-6.01h-.04l-2.21,6.01h-1.44l-2.15-6.01h-.04l.05,6.01h-1.93v-8.5h2.92l1.93,5.45h.05l1.85-5.45h2.97v8.5h-2.02Z"/>
        <path class="cls-4" d="M22.97,14.03c.35-.34.76-.59,1.23-.76.47-.17.95-.25,1.43-.25s.93.06,1.28.19c.35.12.63.32.85.58.22.26.37.59.47.98.1.4.15.87.15,1.41v3.01h-1.8v-.64h-.04c-.15.25-.38.44-.69.58-.31.14-.64.2-1,.2-.24,0-.49-.03-.74-.1-.26-.06-.49-.17-.7-.31-.21-.14-.39-.34-.52-.58-.14-.24-.2-.54-.2-.89,0-.43.12-.78.35-1.04.24-.26.54-.47.91-.61.37-.14.79-.24,1.24-.29.46-.05.9-.07,1.33-.07v-.1c0-.3-.1-.51-.31-.65-.21-.14-.46-.21-.77-.21-.28,0-.55.06-.81.18-.26.12-.48.26-.67.43l-1-1.07ZM26.59,16.58h-.25c-.22,0-.43,0-.65.03-.22.02-.42.06-.59.11-.17.06-.31.14-.43.25-.11.11-.17.25-.17.43,0,.11.03.21.08.29.05.08.12.14.2.19.08.05.17.08.28.1.1.02.2.03.3.03.4,0,.71-.11.92-.33s.32-.52.32-.89v-.2Z"/>
        <path class="cls-4" d="M33.77,19.19v-3.26c0-.17-.01-.33-.04-.48-.03-.15-.07-.29-.14-.4-.06-.12-.15-.21-.27-.28-.12-.07-.26-.1-.44-.1s-.33.03-.46.1c-.13.07-.24.16-.33.28-.09.12-.15.26-.2.41-.04.16-.07.32-.07.49v3.24h-1.98v-5.98h1.91v.83h.02c.07-.13.17-.25.28-.38.12-.12.25-.23.41-.32.16-.09.33-.16.51-.22.18-.06.38-.08.59-.08.4,0,.74.07,1.02.22.28.14.51.33.68.56.17.23.3.49.37.79.08.3.11.59.11.89v3.7h-1.98Z"/>
        <path class="cls-4" d="M41.18,19.19v-.83h-.02c-.07.14-.17.26-.28.38-.12.12-.25.22-.41.31-.16.09-.33.16-.52.22s-.39.08-.59.08c-.4,0-.74-.07-1.01-.22-.28-.14-.5-.33-.67-.56-.17-.23-.3-.49-.37-.78-.08-.29-.11-.59-.11-.89v-3.7h1.98v3.24c0,.17.01.33.04.48s.07.29.14.41.16.21.27.28c.11.07.26.1.44.1.34,0,.61-.13.79-.38.18-.26.27-.56.27-.9v-3.23h1.97v5.98h-1.9Z"/>
        <path class="cls-4" d="M48.32,11.57c-.07-.02-.16-.04-.25-.06-.1-.02-.19-.02-.29-.02-.18,0-.33.03-.44.1-.11.06-.2.15-.26.26-.06.11-.11.23-.13.37-.02.14-.04.27-.04.41v.6h1.33v1.46h-1.33v4.51h-1.97v-4.51h-1.09v-1.46h1.09v-.58c0-.37.04-.72.12-1.05s.22-.62.41-.88c.2-.25.46-.45.79-.6.33-.15.75-.22,1.24-.22.17,0,.33,0,.5.03.16.02.31.05.45.09l-.13,1.56Z"/>
        <path class="cls-4" d="M48.89,14.03c.35-.34.76-.59,1.23-.76.47-.17.95-.25,1.43-.25s.93.06,1.28.19c.35.12.63.32.85.58.22.26.37.59.47.98.1.4.15.87.15,1.41v3.01h-1.8v-.64h-.04c-.15.25-.38.44-.69.58-.31.14-.64.2-1,.2-.24,0-.49-.03-.74-.1-.26-.06-.49-.17-.7-.31-.21-.14-.39-.34-.52-.58-.14-.24-.2-.54-.2-.89,0-.43.12-.78.35-1.04.24-.26.54-.47.91-.61.37-.14.79-.24,1.24-.29.46-.05.9-.07,1.33-.07v-.1c0-.3-.1-.51-.31-.65-.21-.14-.46-.21-.77-.21-.28,0-.55.06-.81.18-.26.12-.48.26-.67.43l-1-1.07ZM52.51,16.58h-.25c-.22,0-.43,0-.65.03-.22.02-.42.06-.59.11-.17.06-.31.14-.43.25-.11.11-.17.25-.17.43,0,.11.03.21.08.29.05.08.12.14.2.19.08.05.17.08.28.1.1.02.2.03.3.03.4,0,.71-.11.92-.33s.32-.52.32-.89v-.2Z"/>
        <path class="cls-4" d="M59.9,15.14c-.11-.14-.26-.26-.46-.35s-.39-.13-.59-.13-.4.04-.56.13-.31.2-.43.34c-.12.14-.21.3-.28.49-.07.18-.1.38-.1.59s.03.4.1.59c.06.18.16.35.28.49s.27.25.44.33.37.12.58.12c.2,0,.4-.04.59-.11.2-.08.35-.19.47-.33l1.09,1.33c-.25.24-.57.43-.96.56-.39.14-.81.2-1.25.2-.47,0-.91-.07-1.32-.22-.41-.14-.76-.35-1.07-.63-.3-.28-.54-.61-.71-1-.17-.39-.26-.84-.26-1.33s.09-.93.26-1.32c.17-.39.41-.73.71-1,.3-.28.66-.49,1.07-.64.41-.15.85-.22,1.31-.22.22,0,.43.02.64.06.21.04.42.09.61.16.2.07.38.15.54.25.16.1.31.21.43.33l-1.14,1.32Z"/>
        <path class="cls-4" d="M63.94,14.68v2.29c0,.28.05.49.16.63s.3.21.58.21c.1,0,.2,0,.31-.02.11-.02.2-.04.27-.07l.02,1.44c-.14.05-.31.09-.52.13s-.42.05-.62.05c-.4,0-.74-.05-1.01-.15-.27-.1-.49-.24-.65-.43s-.28-.41-.35-.67c-.07-.26-.11-.55-.11-.87v-2.53h-.96v-1.46h.95v-1.57h1.93v1.57h1.4v1.46h-1.4Z"/>
        <path class="cls-4" d="M70.21,19.19v-.83h-.02c-.07.14-.17.26-.28.38-.12.12-.25.22-.41.31-.16.09-.33.16-.52.22s-.39.08-.59.08c-.4,0-.74-.07-1.01-.22-.28-.14-.5-.33-.67-.56-.17-.23-.3-.49-.37-.78-.08-.29-.11-.59-.11-.89v-3.7h1.98v3.24c0,.17.01.33.04.48s.07.29.14.41.16.21.27.28c.11.07.26.1.44.1.34,0,.61-.13.79-.38.18-.26.27-.56.27-.9v-3.23h1.97v5.98h-1.9Z"/>
        <path class="cls-4" d="M77.52,14.83c-.09-.02-.17-.04-.26-.05-.08,0-.17-.01-.25-.01-.26,0-.49.05-.67.14-.18.1-.32.21-.43.35-.11.14-.19.28-.23.44-.05.16-.07.3-.07.42v3.06h-1.97v-5.97h1.9v.86h.02c.15-.31.37-.56.65-.75.28-.19.6-.29.97-.29.08,0,.16,0,.23.01s.14.02.19.04l-.08,1.74Z"/>
        <path class="cls-4" d="M84.1,16.27v.24c0,.08,0,.16-.01.23h-4.33c.02.17.07.32.15.46.08.14.19.25.32.35.13.1.28.18.44.23.16.06.33.08.51.08.31,0,.58-.06.79-.17.22-.12.39-.27.53-.45l1.37.86c-.28.41-.65.72-1.11.94-.46.22-.99.33-1.6.33-.45,0-.87-.07-1.27-.21-.4-.14-.75-.34-1.05-.61-.3-.27-.54-.6-.71-.99-.17-.39-.26-.84-.26-1.34s.08-.93.25-1.33c.17-.4.4-.73.68-1.01.29-.28.63-.49,1.02-.64.39-.15.82-.23,1.27-.23s.84.07,1.21.22c.37.15.68.36.95.64s.47.62.62,1.02c.15.4.22.86.22,1.37ZM82.29,15.52c0-.31-.1-.58-.29-.8-.2-.22-.49-.34-.88-.34-.19,0-.37.03-.53.09-.16.06-.3.14-.42.25-.12.1-.22.23-.29.37-.07.14-.11.29-.12.44h2.53Z"/>
        <path class="cls-4" d="M89.85,19.19v-.78h-.02c-.19.3-.47.54-.82.7s-.73.25-1.13.25c-.45,0-.85-.09-1.2-.26s-.65-.41-.89-.7-.43-.63-.56-1.01c-.13-.38-.19-.78-.19-1.2s.07-.81.2-1.19.32-.71.56-1,.54-.52.89-.68c.35-.17.74-.25,1.17-.25s.81.08,1.12.25c.3.17.54.35.71.55h.02v-3.73h1.97v9.07h-1.81ZM89.78,16.19c0-.19-.03-.38-.1-.56-.07-.18-.16-.35-.29-.49-.12-.14-.27-.26-.45-.35-.18-.09-.38-.13-.6-.13s-.44.04-.61.13c-.18.09-.32.2-.44.34-.12.14-.21.3-.27.49-.06.18-.09.37-.09.56s.03.38.09.57c.06.19.15.35.27.5.12.14.27.26.44.35.18.09.38.13.61.13s.42-.04.6-.13.33-.2.45-.35c.12-.14.22-.31.29-.49.07-.18.1-.37.1-.56Z"/>
        <path class="cls-4" d="M98.36,11.3c0,.15-.03.29-.09.43s-.14.25-.24.34c-.1.1-.22.17-.36.23-.14.06-.29.08-.44.08-.32,0-.59-.11-.8-.32-.22-.21-.32-.47-.32-.76,0-.14.03-.28.08-.41s.14-.25.24-.34c.1-.1.22-.17.36-.23.14-.06.28-.09.44-.09.15,0,.3.03.44.08s.26.13.36.23c.1.1.18.21.24.34.06.13.09.27.09.43ZM96.25,19.19v-5.98h1.97v5.98h-1.97Z"/>
        <path class="cls-4" d="M103.7,19.19v-3.26c0-.17-.01-.33-.04-.48-.03-.15-.07-.29-.14-.4-.06-.12-.15-.21-.27-.28-.12-.07-.26-.1-.44-.1s-.33.03-.46.1c-.13.07-.24.16-.33.28-.09.12-.15.26-.2.41-.04.16-.07.32-.07.49v3.24h-1.98v-5.98h1.91v.83h.02c.07-.13.17-.25.28-.38.12-.12.25-.23.41-.32.16-.09.33-.16.51-.22.18-.06.38-.08.59-.08.4,0,.74.07,1.02.22.28.14.51.33.68.56.17.23.3.49.37.79.08.3.11.59.11.89v3.7h-1.98Z"/>
        <path class="cls-4" d="M114.66,17.34c-.08.37-.22.71-.42,1.01-.2.31-.49.56-.85.76-.36.2-.83.3-1.41.3-.72,0-1.32-.19-1.8-.56s-.8-.85-.96-1.43l1.81-.61c.06.22.16.4.31.54s.33.2.55.2c.34,0,.56-.12.67-.35.11-.23.16-.54.16-.91v-5.6h2.06v5.59c0,.34-.04.69-.11,1.06Z"/>
        <path class="cls-4" d="M116.22,14.03c.35-.34.76-.59,1.23-.76.47-.17.95-.25,1.43-.25s.93.06,1.28.19c.35.12.63.32.85.58.22.26.37.59.47.98.1.4.15.87.15,1.41v3.01h-1.8v-.64h-.04c-.15.25-.38.44-.69.58-.31.14-.64.2-1,.2-.24,0-.49-.03-.74-.1-.26-.06-.49-.17-.7-.31-.21-.14-.39-.34-.52-.58-.14-.24-.2-.54-.2-.89,0-.43.12-.78.35-1.04.24-.26.54-.47.91-.61.37-.14.79-.24,1.24-.29.46-.05.9-.07,1.33-.07v-.1c0-.3-.1-.51-.31-.65-.21-.14-.46-.21-.77-.21-.28,0-.55.06-.81.18-.26.12-.48.26-.67.43l-1-1.07ZM119.83,16.58h-.25c-.22,0-.43,0-.65.03-.22.02-.42.06-.59.11-.17.06-.31.14-.43.25-.11.11-.17.25-.17.43,0,.11.03.21.08.29.05.08.12.14.2.19.08.05.17.08.28.1.1.02.2.03.3.03.4,0,.71-.11.92-.33s.32-.52.32-.89v-.2Z"/>
        <path class="cls-4" d="M129.74,16.18c0,.42-.06.82-.19,1.2-.13.38-.31.72-.56,1.01s-.54.53-.89.7-.75.26-1.2.26c-.37,0-.72-.07-1.04-.22-.33-.15-.58-.35-.77-.61h-.02v3.54h-1.97v-8.86h1.87v.73h.04c.18-.24.44-.45.76-.63s.71-.27,1.15-.27.82.08,1.18.25.65.4.89.68.43.62.56,1c.13.38.2.78.2,1.19ZM127.83,16.18c0-.19-.03-.38-.09-.56-.06-.18-.15-.35-.26-.49-.12-.14-.26-.25-.44-.34-.18-.09-.38-.13-.61-.13s-.42.04-.6.13c-.18.09-.33.2-.45.35-.12.14-.22.31-.29.49-.07.18-.1.37-.1.56s.03.38.1.56c.07.18.16.35.29.49.12.14.27.26.45.35s.38.13.6.13.44-.04.61-.13c.18-.09.32-.2.44-.35.12-.14.2-.31.26-.5.06-.19.09-.38.09-.57Z"/>
        <path class="cls-4" d="M130.89,14.03c.35-.34.76-.59,1.23-.76.47-.17.95-.25,1.43-.25s.93.06,1.28.19c.35.12.63.32.85.58.22.26.37.59.47.98.1.4.15.87.15,1.41v3.01h-1.8v-.64h-.04c-.15.25-.38.44-.69.58-.31.14-.64.2-1,.2-.24,0-.49-.03-.74-.1-.26-.06-.49-.17-.7-.31-.21-.14-.39-.34-.52-.58-.14-.24-.2-.54-.2-.89,0-.43.12-.78.35-1.04.24-.26.54-.47.91-.61.37-.14.79-.24,1.24-.29.46-.05.9-.07,1.33-.07v-.1c0-.3-.1-.51-.31-.65-.21-.14-.46-.21-.77-.21-.28,0-.55.06-.81.18-.26.12-.48.26-.67.43l-1-1.07ZM134.5,16.58h-.25c-.22,0-.43,0-.65.03-.22.02-.42.06-.59.11-.17.06-.31.14-.43.25-.11.11-.17.25-.17.43,0,.11.03.21.08.29.05.08.12.14.2.19.08.05.17.08.28.1.1.02.2.03.3.03.4,0,.71-.11.92-.33s.32-.52.32-.89v-.2Z"/>
        <path class="cls-4" d="M141.69,19.19v-3.26c0-.17-.01-.33-.04-.48-.03-.15-.07-.29-.14-.4-.06-.12-.15-.21-.27-.28-.12-.07-.26-.1-.44-.1s-.33.03-.46.1c-.13.07-.24.16-.33.28-.09.12-.15.26-.2.41-.04.16-.07.32-.07.49v3.24h-1.98v-5.98h1.91v.83h.02c.07-.13.17-.25.28-.38.12-.12.25-.23.41-.32.16-.09.33-.16.51-.22.18-.06.38-.08.59-.08.4,0,.74.07,1.02.22.28.14.51.33.68.56.17.23.3.49.37.79.08.3.11.59.11.89v3.7h-1.98Z"/>
        <path class="cls-4" d="M147.56,14.27c0,.16-.03.31-.1.45-.06.14-.15.26-.25.37-.1.1-.23.19-.37.25-.14.06-.29.09-.44.09-.16,0-.31-.03-.46-.08-.14-.06-.27-.14-.38-.24-.11-.1-.19-.22-.26-.36-.06-.14-.1-.28-.1-.44s.03-.31.1-.45c.06-.14.15-.26.26-.37s.23-.19.38-.25.3-.09.46-.09c.15,0,.3.03.44.09.14.06.27.14.37.24.1.1.19.22.25.36.06.14.1.29.1.44ZM147.56,18.12c0,.16-.03.31-.1.45-.06.14-.15.26-.25.36-.1.1-.23.18-.37.24-.14.06-.29.09-.44.09-.16,0-.31-.03-.46-.08-.14-.06-.27-.14-.38-.24-.11-.1-.19-.22-.26-.36-.06-.14-.1-.28-.1-.44s.03-.31.1-.45c.06-.14.15-.26.26-.37.11-.1.23-.19.38-.25.14-.06.3-.09.46-.09.15,0,.3.03.44.09.14.06.27.14.37.24s.19.22.25.36c.06.14.1.29.1.45Z"/>
      </g>
      <g>
        <path class="cls-4" d="M44.41,31.61h.02l2.09-5.44h1.54v7.08h-.99v-5.92h-.02l-2.35,5.92h-.63l-2.34-5.92h-.02v5.92h-.96v-7.08h1.54l2.12,5.44Z"/>
        <path class="cls-4" d="M52.68,30.17c0-.35-.11-.61-.32-.79-.21-.17-.5-.25-.85-.25-.27,0-.52.05-.75.16s-.44.24-.59.4l-.5-.6c.23-.22.52-.39.85-.52.34-.13.7-.19,1.08-.19.34,0,.63.05.88.15s.46.23.62.39c.16.17.28.36.36.59s.12.47.12.73v2.07c0,.16,0,.33.01.51.01.18.03.32.06.43h-.85c-.05-.23-.08-.45-.08-.68h-.03c-.17.25-.39.45-.65.59-.26.14-.58.21-.94.21-.19,0-.38-.03-.58-.08-.2-.05-.39-.13-.56-.25-.17-.11-.31-.26-.42-.45-.11-.19-.17-.42-.17-.69,0-.36.1-.65.29-.86s.45-.37.76-.48c.31-.11.67-.18,1.06-.21.39-.03.79-.05,1.19-.05v-.13ZM52.45,30.99c-.23,0-.47,0-.72.03-.25.02-.48.06-.68.12-.2.06-.37.15-.5.27-.13.12-.2.28-.2.48,0,.14.03.26.08.35.06.09.13.17.23.23.09.06.2.1.31.12s.23.04.35.04c.44,0,.78-.13,1.01-.39.24-.26.35-.6.35-1v-.25h-.23Z"/>
        <path class="cls-4" d="M56.25,26.79c0,.17-.06.32-.18.43-.12.11-.27.17-.44.17s-.32-.06-.44-.18c-.12-.12-.18-.26-.18-.42s.06-.32.18-.43c.12-.12.26-.17.44-.17s.32.06.44.17c.12.12.18.26.18.43ZM56.1,33.25h-.94v-4.74h.94v4.74Z"/>
        <path class="cls-4" d="M58.59,28.5c.01.12.02.25.03.41s.01.28.01.38h.03c.06-.13.14-.25.25-.36.1-.11.22-.21.35-.29.13-.08.28-.15.44-.19s.33-.07.5-.07c.31,0,.57.05.79.16.22.1.4.24.55.42.15.17.26.38.33.61.07.23.1.48.1.75v2.94h-.94v-2.63c0-.19-.02-.38-.04-.55-.03-.17-.08-.33-.17-.46-.08-.13-.19-.24-.33-.32s-.32-.12-.54-.12c-.37,0-.68.14-.92.42-.24.28-.35.66-.35,1.14v2.52h-.94v-3.72c0-.13,0-.29-.01-.49,0-.2-.02-.38-.03-.53h.89Z"/>
        <path class="cls-4" d="M67.02,33.25h-.94v-7.56h.94v7.56Z"/>
        <path class="cls-4" d="M71.61,30.17c0-.35-.11-.61-.32-.79-.21-.17-.5-.25-.85-.25-.27,0-.52.05-.75.16s-.44.24-.59.4l-.5-.6c.23-.22.52-.39.85-.52.34-.13.7-.19,1.08-.19.34,0,.63.05.88.15s.46.23.62.39c.16.17.28.36.36.59s.12.47.12.73v2.07c0,.16,0,.33.01.51.01.18.03.32.06.43h-.85c-.05-.23-.08-.45-.08-.68h-.03c-.17.25-.39.45-.65.59-.26.14-.58.21-.94.21-.19,0-.38-.03-.58-.08-.2-.05-.39-.13-.56-.25-.17-.11-.31-.26-.42-.45-.11-.19-.17-.42-.17-.69,0-.36.1-.65.29-.86s.45-.37.76-.48c.31-.11.67-.18,1.06-.21.39-.03.79-.05,1.19-.05v-.13ZM71.38,30.99c-.23,0-.47,0-.72.03-.25.02-.48.06-.68.12-.2.06-.37.15-.5.27-.13.12-.2.28-.2.48,0,.14.03.26.08.35.06.09.13.17.23.23.09.06.2.1.31.12s.23.04.35.04c.44,0,.78-.13,1.01-.39.24-.26.35-.6.35-1v-.25h-.23Z"/>
        <path class="cls-4" d="M74.93,28.5c.01.12.02.25.03.41s.01.28.01.38h.03c.06-.13.14-.25.25-.36.1-.11.22-.21.35-.29.13-.08.28-.15.44-.19s.33-.07.5-.07c.31,0,.57.05.79.16.22.1.4.24.55.42.15.17.26.38.33.61.07.23.1.48.1.75v2.94h-.94v-2.63c0-.19-.02-.38-.04-.55-.03-.17-.08-.33-.17-.46-.08-.13-.19-.24-.33-.32s-.32-.12-.54-.12c-.37,0-.68.14-.92.42-.24.28-.35.66-.35,1.14v2.52h-.94v-3.72c0-.13,0-.29-.01-.49,0-.2-.02-.38-.03-.53h.89Z"/>
        <path class="cls-4" d="M83.68,32.5c-.18.29-.42.5-.73.66-.31.15-.63.22-.98.22-.37,0-.7-.06-.99-.2-.29-.13-.54-.31-.75-.53-.21-.23-.37-.49-.48-.8-.11-.31-.17-.63-.17-.98s.06-.67.17-.98c.11-.3.27-.57.48-.79.21-.23.46-.4.75-.53.29-.13.62-.19.97-.19.39,0,.72.08,1.01.25s.51.36.68.59h.02v-3.53h.94v7.56h-.91v-.75h-.02ZM80.56,30.87c0,.22.03.43.1.64.07.21.17.39.3.55.13.16.3.29.49.38s.42.14.68.14c.24,0,.46-.05.65-.14.2-.09.37-.22.51-.37.14-.16.25-.34.32-.54s.12-.42.12-.65-.04-.44-.12-.65-.19-.39-.32-.55c-.14-.16-.31-.29-.51-.38s-.42-.14-.65-.14c-.26,0-.49.05-.68.14s-.36.22-.49.38c-.13.16-.23.34-.3.55-.07.21-.1.42-.1.64Z"/>
        <path class="cls-4" d="M87.35,26.79c0,.17-.06.32-.18.43-.12.11-.27.17-.44.17s-.32-.06-.44-.18c-.12-.12-.18-.26-.18-.42s.06-.32.18-.43c.12-.12.26-.17.44-.17s.32.06.44.17c.12.12.18.26.18.43ZM87.2,33.25h-.94v-4.74h.94v4.74Z"/>
        <path class="cls-4" d="M89.69,28.5c.01.12.02.25.03.41s.01.28.01.38h.03c.06-.13.14-.25.25-.36.1-.11.22-.21.35-.29.13-.08.28-.15.44-.19s.33-.07.5-.07c.31,0,.57.05.79.16.22.1.4.24.55.42.15.17.26.38.33.61.07.23.1.48.1.75v2.94h-.94v-2.63c0-.19-.02-.38-.04-.55-.03-.17-.08-.33-.17-.46-.08-.13-.19-.24-.33-.32s-.32-.12-.54-.12c-.37,0-.68.14-.92.42-.24.28-.35.66-.35,1.14v2.52h-.94v-3.72c0-.13,0-.29-.01-.49,0-.2-.02-.38-.03-.53h.89Z"/>
        <path class="cls-4" d="M95.03,34.05c.21.23.46.42.77.56s.63.21.96.21.58-.04.79-.13c.21-.09.38-.21.51-.37.13-.16.22-.34.28-.56.06-.21.08-.44.08-.69v-.61h-.02c-.17.27-.41.47-.71.61-.3.14-.62.21-.96.21-.36,0-.69-.06-.99-.19-.3-.13-.55-.3-.75-.52s-.37-.48-.48-.78c-.11-.3-.17-.61-.17-.96s.06-.66.17-.96c.11-.3.27-.56.48-.78.21-.22.46-.4.75-.53s.62-.2.98-.2c.34,0,.67.07.98.22.31.15.56.37.73.67h.02v-.76h.91v4.5c0,.35-.04.68-.13,1-.09.32-.23.6-.44.84-.21.24-.48.44-.81.58-.33.15-.75.22-1.24.22-.41,0-.83-.08-1.25-.23-.42-.15-.77-.36-1.07-.63l.6-.73ZM95.31,30.83c0,.22.04.43.11.63.07.2.17.38.31.53.14.15.3.28.5.37.19.09.41.14.66.14s.46-.04.66-.13c.2-.09.37-.21.51-.36.14-.15.25-.33.33-.53.08-.2.12-.42.12-.66s-.04-.44-.12-.64c-.08-.2-.19-.38-.33-.53s-.31-.28-.51-.37-.42-.13-.66-.13-.47.04-.66.13c-.19.09-.36.21-.5.36-.14.15-.24.33-.31.53-.07.2-.11.42-.11.65Z"/>
        <path class="cls-4" d="M103.85,34.05c.21.23.46.42.77.56s.63.21.96.21.58-.04.79-.13c.21-.09.38-.21.51-.37.13-.16.22-.34.28-.56.06-.21.08-.44.08-.69v-.61h-.02c-.17.27-.41.47-.71.61-.3.14-.62.21-.96.21-.36,0-.69-.06-.99-.19-.3-.13-.55-.3-.75-.52s-.37-.48-.48-.78c-.11-.3-.17-.61-.17-.96s.06-.66.17-.96c.11-.3.27-.56.48-.78.21-.22.46-.4.75-.53s.62-.2.98-.2c.34,0,.67.07.98.22.31.15.56.37.73.67h.02v-.76h.91v4.5c0,.35-.04.68-.13,1-.09.32-.23.6-.44.84-.21.24-.48.44-.81.58-.33.15-.75.22-1.24.22-.41,0-.83-.08-1.25-.23-.42-.15-.77-.36-1.07-.63l.6-.73ZM104.13,30.83c0,.22.04.43.11.63.07.2.17.38.31.53.14.15.3.28.5.37.19.09.41.14.66.14s.46-.04.66-.13c.2-.09.37-.21.51-.36.14-.15.25-.33.33-.53.08-.2.12-.42.12-.66s-.04-.44-.12-.64c-.08-.2-.19-.38-.33-.53s-.31-.28-.51-.37-.42-.13-.66-.13-.47.04-.66.13c-.19.09-.36.21-.5.36-.14.15-.24.33-.31.53-.07.2-.11.42-.11.65Z"/>
        <path class="cls-4" d="M114.23,30.84v.16c0,.05,0,.11-.01.16h-3.77c0,.2.05.39.14.56.08.18.19.33.33.46.14.13.3.23.48.3.18.07.38.11.58.11.32,0,.6-.07.83-.21s.42-.31.55-.51l.66.53c-.25.34-.55.58-.9.74-.34.16-.73.24-1.15.24-.36,0-.69-.06-1-.18s-.57-.29-.79-.5c-.22-.22-.39-.48-.52-.79s-.19-.65-.19-1.02.06-.71.19-1.01c.12-.31.3-.58.52-.79.22-.22.48-.39.78-.51.3-.12.62-.19.97-.19s.66.06.95.17c.28.11.52.28.72.49.2.21.35.47.46.78.11.3.16.64.16,1.02ZM113.27,30.46c0-.19-.04-.36-.09-.53-.06-.16-.14-.3-.25-.42s-.25-.21-.41-.29c-.16-.07-.35-.1-.57-.1-.2,0-.39.04-.57.1-.18.07-.33.17-.46.29-.13.12-.24.26-.32.42-.08.16-.13.34-.15.53h2.82Z"/>
        <path class="cls-4" d="M118.42,30.17c0-.35-.11-.61-.32-.79-.21-.17-.5-.25-.85-.25-.27,0-.52.05-.75.16s-.44.24-.59.4l-.5-.6c.23-.22.52-.39.85-.52.34-.13.7-.19,1.08-.19.34,0,.63.05.88.15s.46.23.62.39c.16.17.28.36.36.59s.12.47.12.73v2.07c0,.16,0,.33.01.51.01.18.03.32.06.43h-.85c-.05-.23-.08-.45-.08-.68h-.03c-.17.25-.39.45-.65.59-.26.14-.58.21-.94.21-.19,0-.38-.03-.58-.08-.2-.05-.39-.13-.56-.25-.17-.11-.31-.26-.42-.45-.11-.19-.17-.42-.17-.69,0-.36.1-.65.29-.86s.45-.37.76-.48c.31-.11.67-.18,1.06-.21.39-.03.79-.05,1.19-.05v-.13ZM118.19,30.99c-.23,0-.47,0-.72.03-.25.02-.48.06-.68.12-.2.06-.37.15-.5.27-.13.12-.2.28-.2.48,0,.14.03.26.08.35.06.09.13.17.23.23.09.06.2.1.31.12s.23.04.35.04c.44,0,.78-.13,1.01-.39.24-.26.35-.6.35-1v-.25h-.23Z"/>
        <path class="cls-4" d="M120.88,29.04c0-.2-.02-.38-.03-.53h.89c.01.12.02.26.03.42,0,.16.01.29.01.38h.03c.13-.28.33-.5.58-.67s.54-.25.87-.25c.15,0,.27.01.37.04l-.04.87c-.13-.03-.28-.05-.43-.05-.23,0-.42.04-.59.12-.17.08-.31.19-.42.33-.11.14-.19.3-.25.48-.05.18-.08.38-.08.58v2.49h-.94v-3.72c0-.13,0-.29-.01-.49Z"/>
        <path class="cls-4" d="M41.74,48.25h-.99v-7.08h4.42v.87h-3.43v2.2h3.21v.85h-3.21v3.16Z"/>
        <path class="cls-4" d="M47.3,41.79c0,.17-.06.32-.18.43-.12.11-.27.17-.44.17s-.32-.06-.44-.18c-.12-.12-.18-.26-.18-.42s.06-.32.18-.43c.12-.12.26-.17.44-.17s.32.06.44.17c.12.12.18.26.18.43ZM47.15,48.25h-.94v-4.74h.94v4.74Z"/>
        <path class="cls-4" d="M49.95,45.75l-1.73-2.25h1.16l1.16,1.63,1.17-1.63h1.1l-1.71,2.24,1.91,2.5h-1.17l-1.32-1.85-1.34,1.85h-1.13l1.9-2.49Z"/>
        <path class="cls-4" d="M58.23,45.84v.16c0,.05,0,.11-.01.16h-3.77c0,.2.05.39.14.56.08.18.19.33.33.46.14.13.3.23.48.3.18.07.38.11.58.11.32,0,.6-.07.83-.21s.42-.31.55-.51l.66.53c-.25.34-.55.58-.9.74-.34.16-.73.24-1.15.24-.36,0-.69-.06-1-.18s-.57-.29-.79-.5c-.22-.22-.39-.48-.52-.79s-.19-.65-.19-1.02.06-.71.19-1.01c.12-.31.3-.58.52-.79.22-.22.48-.39.78-.51.3-.12.62-.19.97-.19s.66.06.95.17c.28.11.52.28.72.49.2.21.35.47.46.78.11.3.16.64.16,1.02ZM57.27,45.46c0-.19-.04-.36-.09-.53-.06-.16-.14-.3-.25-.42s-.25-.21-.41-.29c-.16-.07-.35-.1-.57-.1-.2,0-.39.04-.57.1-.18.07-.33.17-.46.29-.13.12-.24.26-.32.42-.08.16-.13.34-.15.53h2.82Z"/>
        <path class="cls-4" d="M63.31,47.5c-.18.29-.42.5-.73.66-.31.15-.63.22-.98.22-.37,0-.7-.06-.99-.2-.29-.13-.54-.31-.75-.53-.21-.23-.37-.49-.48-.8-.11-.31-.17-.63-.17-.98s.06-.67.17-.98c.11-.3.27-.57.48-.79.21-.23.46-.4.75-.53.29-.13.62-.19.97-.19.39,0,.72.08,1.01.25s.51.36.68.59h.02v-3.53h.94v7.56h-.91v-.75h-.02ZM60.19,45.87c0,.22.03.43.1.64.07.21.17.39.3.55.13.16.3.29.49.38s.42.14.68.14c.24,0,.46-.05.65-.14.2-.09.37-.22.51-.37.14-.16.25-.34.32-.54s.12-.42.12-.65-.04-.44-.12-.65-.19-.39-.32-.55c-.14-.16-.31-.29-.51-.38s-.42-.14-.65-.14c-.26,0-.49.05-.68.14s-.36.22-.49.38c-.13.16-.23.34-.3.55-.07.21-.1.42-.1.64Z"/>
        <path class="cls-4" d="M70.7,44.28h-1.26v2.46c0,.29.05.49.16.61.11.12.28.18.51.18.09,0,.18,0,.28-.03.1-.02.19-.05.27-.08l.03.77c-.11.04-.24.07-.38.09-.14.02-.28.04-.43.04-.45,0-.79-.12-1.02-.37-.24-.25-.35-.62-.35-1.11v-2.57h-.91v-.77h.91v-1.36h.93v1.36h1.26v.77Z"/>
        <path class="cls-4" d="M71.66,44.04c0-.2-.02-.38-.03-.53h.89c.01.12.02.26.03.42,0,.16.01.29.01.38h.03c.13-.28.33-.5.58-.67s.54-.25.87-.25c.15,0,.27.01.37.04l-.04.87c-.13-.03-.28-.05-.43-.05-.23,0-.42.04-.59.12-.17.08-.31.19-.42.33-.11.14-.19.3-.25.48-.05.18-.08.38-.08.58v2.49h-.94v-3.72c0-.13,0-.29-.01-.49Z"/>
        <path class="cls-4" d="M78.11,45.17c0-.35-.11-.61-.32-.79-.21-.17-.5-.25-.85-.25-.27,0-.52.05-.75.16s-.44.24-.59.4l-.5-.6c.23-.22.52-.39.85-.52.34-.13.7-.19,1.08-.19.34,0,.63.05.88.15s.46.23.62.39c.16.17.28.36.36.59s.12.47.12.73v2.07c0,.16,0,.33.01.51.01.18.03.32.06.43h-.85c-.05-.23-.08-.45-.08-.68h-.03c-.17.25-.39.45-.65.59-.26.14-.58.21-.94.21-.19,0-.38-.03-.58-.08-.2-.05-.39-.13-.56-.25-.17-.11-.31-.26-.42-.45-.11-.19-.17-.42-.17-.69,0-.36.1-.65.29-.86s.45-.37.76-.48c.31-.11.67-.18,1.06-.21.39-.03.79-.05,1.19-.05v-.13ZM77.88,45.99c-.23,0-.47,0-.72.03-.25.02-.48.06-.68.12-.2.06-.37.15-.5.27-.13.12-.2.28-.2.48,0,.14.03.26.08.35.06.09.13.17.23.23.09.06.2.1.31.12s.23.04.35.04c.44,0,.78-.13,1.01-.39.24-.26.35-.6.35-1v-.25h-.23Z"/>
        <path class="cls-4" d="M81.68,41.79c0,.17-.06.32-.18.43-.12.11-.27.17-.44.17s-.32-.06-.44-.18c-.12-.12-.18-.26-.18-.42s.06-.32.18-.43c.12-.12.26-.17.44-.17s.32.06.44.17c.12.12.18.26.18.43ZM81.53,48.25h-.94v-4.74h.94v4.74Z"/>
        <path class="cls-4" d="M84.13,48.25h-.94v-7.56h.94v7.56Z"/>
        <path class="cls-4" d="M86.87,41.79c0,.17-.06.32-.18.43-.12.11-.27.17-.44.17s-.32-.06-.44-.18c-.12-.12-.18-.26-.18-.42s.06-.32.18-.43c.12-.12.26-.17.44-.17s.32.06.44.17c.12.12.18.26.18.43ZM86.72,48.25h-.94v-4.74h.94v4.74Z"/>
        <path class="cls-4" d="M89.21,43.5c.01.12.02.25.03.41s.01.28.01.38h.03c.06-.13.14-.25.25-.36.1-.11.22-.21.35-.29.13-.08.28-.15.44-.19s.33-.07.5-.07c.31,0,.57.05.79.16.22.1.4.24.55.42.15.17.26.38.33.61.07.23.1.48.1.75v2.94h-.94v-2.63c0-.19-.02-.38-.04-.55-.03-.17-.08-.33-.17-.46-.08-.13-.19-.24-.33-.32s-.32-.12-.54-.12c-.37,0-.68.14-.92.42-.24.28-.35.66-.35,1.14v2.52h-.94v-3.72c0-.13,0-.29-.01-.49,0-.2-.02-.38-.03-.53h.89Z"/>
        <path class="cls-4" d="M94.55,49.05c.21.23.46.42.77.56s.63.21.96.21.58-.04.79-.13c.21-.09.38-.21.51-.37.13-.16.22-.34.28-.56.06-.21.08-.44.08-.69v-.61h-.02c-.17.27-.41.47-.71.61-.3.14-.62.21-.96.21-.36,0-.69-.06-.99-.19-.3-.13-.55-.3-.75-.52s-.37-.48-.48-.78c-.11-.3-.17-.61-.17-.96s.06-.66.17-.96c.11-.3.27-.56.48-.78.21-.22.46-.4.75-.53s.62-.2.98-.2c.34,0,.67.07.98.22.31.15.56.37.73.67h.02v-.76h.91v4.5c0,.35-.04.68-.13,1-.09.32-.23.6-.44.84-.21.24-.48.44-.81.58-.33.15-.75.22-1.24.22-.41,0-.83-.08-1.25-.23-.42-.15-.77-.36-1.07-.63l.6-.73ZM94.83,45.83c0,.22.04.43.11.63.07.2.17.38.31.53.14.15.3.28.5.37.19.09.41.14.66.14s.46-.04.66-.13c.2-.09.37-.21.51-.36.14-.15.25-.33.33-.53.08-.2.12-.42.12-.66s-.04-.44-.12-.64c-.08-.2-.19-.38-.33-.53s-.31-.28-.51-.37-.42-.13-.66-.13-.47.04-.66.13c-.19.09-.36.21-.5.36-.14.15-.24.33-.31.53-.07.2-.11.42-.11.65Z"/>
        <path class="cls-4" d="M107.43,45.84v.16c0,.05,0,.11-.01.16h-3.77c0,.2.05.39.14.56.08.18.19.33.33.46.14.13.3.23.48.3.18.07.38.11.58.11.32,0,.6-.07.83-.21s.42-.31.55-.51l.66.53c-.25.34-.55.58-.9.74-.34.16-.73.24-1.15.24-.36,0-.69-.06-1-.18s-.57-.29-.79-.5c-.22-.22-.39-.48-.52-.79s-.19-.65-.19-1.02.06-.71.19-1.01c.12-.31.3-.58.52-.79.22-.22.48-.39.78-.51.3-.12.62-.19.97-.19s.66.06.95.17c.28.11.52.28.72.49.2.21.35.47.46.78.11.3.16.64.16,1.02ZM106.47,45.46c0-.19-.04-.36-.09-.53-.06-.16-.14-.3-.25-.42s-.25-.21-.41-.29c-.16-.07-.35-.1-.57-.1-.2,0-.39.04-.57.1-.18.07-.33.17-.46.29-.13.12-.24.26-.32.42-.08.16-.13.34-.15.53h2.82Z"/>
        <path class="cls-4" d="M112.51,47.5c-.18.29-.42.5-.73.66-.31.15-.63.22-.98.22-.37,0-.7-.06-.99-.2-.29-.13-.54-.31-.75-.53-.21-.23-.37-.49-.48-.8-.11-.31-.17-.63-.17-.98s.06-.67.17-.98c.11-.3.27-.57.48-.79.21-.23.46-.4.75-.53.29-.13.62-.19.97-.19.39,0,.72.08,1.01.25s.51.36.68.59h.02v-3.53h.94v7.56h-.91v-.75h-.02ZM109.39,45.87c0,.22.03.43.1.64.07.21.17.39.3.55.13.16.3.29.49.38s.42.14.68.14c.24,0,.46-.05.65-.14.2-.09.37-.22.51-.37.14-.16.25-.34.32-.54s.12-.42.12-.65-.04-.44-.12-.65-.19-.39-.32-.55c-.14-.16-.31-.29-.51-.38s-.42-.14-.65-.14c-.26,0-.49.05-.68.14s-.36.22-.49.38c-.13.16-.23.34-.3.55-.07.21-.1.42-.1.64Z"/>
        <path class="cls-4" d="M115.45,49.05c.21.23.46.42.77.56s.63.21.96.21.58-.04.79-.13c.21-.09.38-.21.51-.37.13-.16.22-.34.28-.56.06-.21.08-.44.08-.69v-.61h-.02c-.17.27-.41.47-.71.61-.3.14-.62.21-.96.21-.36,0-.69-.06-.99-.19-.3-.13-.55-.3-.75-.52s-.37-.48-.48-.78c-.11-.3-.17-.61-.17-.96s.06-.66.17-.96c.11-.3.27-.56.48-.78.21-.22.46-.4.75-.53s.62-.2.98-.2c.34,0,.67.07.98.22.31.15.56.37.73.67h.02v-.76h.91v4.5c0,.35-.04.68-.13,1-.09.32-.23.6-.44.84-.21.24-.48.44-.81.58-.33.15-.75.22-1.24.22-.41,0-.83-.08-1.25-.23-.42-.15-.77-.36-1.07-.63l.6-.73ZM115.73,45.83c0,.22.04.43.11.63.07.2.17.38.31.53.14.15.3.28.5.37.19.09.41.14.66.14s.46-.04.66-.13c.2-.09.37-.21.51-.36.14-.15.25-.33.33-.53.08-.2.12-.42.12-.66s-.04-.44-.12-.64c-.08-.2-.19-.38-.33-.53s-.31-.28-.51-.37-.42-.13-.66-.13-.47.04-.66.13c-.19.09-.36.21-.5.36-.14.15-.24.33-.31.53-.07.2-.11.42-.11.65Z"/>
        <path class="cls-4" d="M125.83,45.84v.16c0,.05,0,.11-.01.16h-3.77c0,.2.05.39.14.56.08.18.19.33.33.46.14.13.3.23.48.3.18.07.38.11.58.11.32,0,.6-.07.83-.21s.42-.31.55-.51l.66.53c-.25.34-.55.58-.9.74-.34.16-.73.24-1.15.24-.36,0-.69-.06-1-.18s-.57-.29-.79-.5c-.22-.22-.39-.48-.52-.79s-.19-.65-.19-1.02.06-.71.19-1.01c.12-.31.3-.58.52-.79.22-.22.48-.39.78-.51.3-.12.62-.19.97-.19s.66.06.95.17c.28.11.52.28.72.49.2.21.35.47.46.78.11.3.16.64.16,1.02ZM124.87,45.46c0-.19-.04-.36-.09-.53-.06-.16-.14-.3-.25-.42s-.25-.21-.41-.29c-.16-.07-.35-.1-.57-.1-.2,0-.39.04-.57.1-.18.07-.33.17-.46.29-.13.12-.24.26-.32.42-.08.16-.13.34-.15.53h2.82Z"/>
        <path class="cls-4" d="M41.74,62.37h3.16v.88h-4.15v-7.08h.99v6.2Z"/>
        <path class="cls-4" d="M46.91,56.79c0,.17-.06.32-.18.43-.12.11-.27.17-.44.17s-.32-.06-.44-.18c-.12-.12-.18-.26-.18-.42s.06-.32.18-.43c.12-.12.26-.17.44-.17s.32.06.44.17c.12.12.18.26.18.43ZM46.76,63.25h-.94v-4.74h.94v4.74Z"/>
        <path class="cls-4" d="M50.72,59.28h-1.26v2.46c0,.29.05.49.16.61.11.12.28.18.51.18.09,0,.18,0,.28-.03.1-.02.19-.05.27-.08l.03.77c-.11.04-.24.07-.38.09-.14.02-.28.04-.43.04-.45,0-.79-.12-1.02-.37-.24-.25-.35-.62-.35-1.11v-2.57h-.91v-.77h.91v-1.36h.93v1.36h1.26v.77Z"/>
        <path class="cls-4" d="M52.67,59.23c.11-.23.31-.43.58-.6.27-.17.58-.25.92-.25.31,0,.57.05.79.16.22.1.4.24.55.42.15.17.25.38.33.61.07.23.1.48.1.75v2.94h-.94v-2.63c0-.19-.02-.38-.04-.55-.03-.17-.08-.33-.17-.46s-.19-.24-.33-.32c-.14-.08-.31-.12-.54-.12-.37,0-.68.14-.92.43-.24.28-.36.66-.36,1.14v2.52h-.94v-7.56h.94v3.54h.02Z"/>
        <path class="cls-4" d="M58.63,56.79c0,.17-.06.32-.18.43-.12.11-.27.17-.44.17s-.32-.06-.44-.18c-.12-.12-.18-.26-.18-.42s.06-.32.18-.43c.12-.12.26-.17.44-.17s.32.06.44.17c.12.12.18.26.18.43ZM58.48,63.25h-.94v-4.74h.94v4.74Z"/>
        <path class="cls-4" d="M63.46,63.25c-.01-.12-.02-.25-.03-.41,0-.15-.01-.27-.01-.38h-.02c-.12.25-.32.47-.6.65s-.6.26-.94.26c-.31,0-.57-.05-.79-.15-.22-.1-.41-.24-.55-.42-.14-.18-.25-.38-.32-.62s-.1-.48-.1-.75v-2.94h.94v2.62c0,.19.02.38.04.55.03.18.08.33.17.47.08.13.19.24.33.32s.32.12.54.12c.38,0,.69-.14.92-.42s.35-.66.35-1.13v-2.52h.94v3.72c0,.13,0,.29,0,.49,0,.2.02.38.03.53h-.89Z"/>
        <path class="cls-4" d="M67.43,58.64c.26-.18.57-.26.94-.26.32,0,.61.07.86.22.26.15.46.39.6.73.16-.31.38-.54.67-.71s.6-.25.94-.25c.31,0,.57.05.79.16.22.1.4.24.55.42.15.17.25.38.32.61.07.23.1.48.1.75v2.94h-.94v-2.63c0-.19-.02-.38-.05-.55-.03-.17-.09-.33-.17-.46-.08-.13-.19-.24-.32-.32s-.3-.12-.51-.12-.4.04-.55.13-.28.21-.38.35-.17.3-.21.48c-.04.18-.06.36-.06.55v2.56h-.94v-2.82c0-.19-.02-.36-.05-.51-.03-.15-.09-.29-.17-.39-.08-.11-.18-.2-.31-.26-.13-.06-.28-.09-.47-.09-.35,0-.63.14-.86.42-.23.28-.35.66-.35,1.14v2.52h-.94v-3.72c0-.13,0-.29-.01-.49,0-.2-.02-.38-.03-.53h.89c.01.12.02.25.03.41s.01.28.01.38h.03c.12-.25.31-.47.58-.65Z"/>
        <path class="cls-4" d="M76.76,61.21h-2.32v-.79h2.32v.79Z"/>
        <path class="cls-4" d="M79.11,56.79c0,.17-.06.32-.18.43-.12.11-.27.17-.44.17s-.32-.06-.44-.18c-.12-.12-.18-.26-.18-.42s.06-.32.18-.43c.12-.12.26-.17.44-.17s.32.06.44.17c.12.12.18.26.18.43ZM78.96,63.25h-.94v-4.74h.94v4.74Z"/>
        <path class="cls-4" d="M85.4,60.87c0,.37-.06.7-.19,1.01s-.31.57-.54.79c-.23.22-.5.4-.81.52-.31.12-.65.18-1.01.18s-.7-.06-1.01-.18c-.31-.12-.58-.3-.81-.52-.23-.22-.4-.49-.54-.79-.13-.31-.19-.64-.19-1.01s.06-.7.19-1c.13-.3.31-.57.54-.79s.5-.39.81-.51c.31-.12.65-.19,1.01-.19s.7.06,1.01.19c.31.12.58.29.81.51s.41.48.54.79c.13.3.19.64.19,1ZM84.42,60.87c0-.23-.04-.44-.1-.65-.07-.21-.17-.39-.31-.54s-.3-.28-.5-.37-.42-.14-.68-.14-.48.05-.68.14-.36.22-.5.37-.24.34-.31.54c-.07.21-.11.42-.11.65s.04.44.11.65c.07.21.17.39.31.55.13.16.3.29.5.38.2.09.42.14.68.14s.48-.05.68-.14c.2-.09.36-.22.5-.38.13-.16.24-.34.31-.55.07-.21.1-.42.1-.65Z"/>
        <path class="cls-4" d="M87.55,58.5c.01.12.02.25.03.41s.01.28.01.38h.03c.06-.13.14-.25.25-.36.1-.11.22-.21.35-.29.13-.08.28-.15.44-.19s.33-.07.5-.07c.31,0,.57.05.79.16.22.1.4.24.55.42.15.17.26.38.33.61.07.23.1.48.1.75v2.94h-.94v-2.63c0-.19-.02-.38-.04-.55-.03-.17-.08-.33-.17-.46-.08-.13-.19-.24-.33-.32s-.32-.12-.54-.12c-.37,0-.68.14-.92.42-.24.28-.35.66-.35,1.14v2.52h-.94v-3.72c0-.13,0-.29-.01-.49,0-.2-.02-.38-.03-.53h.89Z"/>
        <path class="cls-4" d="M95.95,62.5v.75h-.91v-7.56h.94v3.53h.03c.16-.23.38-.43.67-.59s.62-.25,1.02-.25c.35,0,.67.06.96.19.29.13.54.3.75.53.21.23.37.49.48.79.11.3.17.63.17.98s-.06.67-.17.98c-.11.31-.27.57-.48.8-.21.23-.46.4-.75.53-.29.13-.62.2-.99.2-.34,0-.66-.08-.97-.22-.31-.15-.55-.37-.74-.66h-.02ZM99.1,60.87c0-.22-.03-.43-.1-.64-.07-.21-.17-.39-.3-.55-.13-.16-.3-.29-.5-.38-.2-.09-.43-.14-.69-.14-.24,0-.46.05-.66.14-.2.09-.36.22-.5.38s-.25.34-.32.55c-.08.21-.12.42-.12.65s.04.44.12.65c.08.21.18.39.32.54s.31.28.5.37c.2.09.42.14.66.14.26,0,.49-.05.69-.14.2-.1.36-.22.5-.38.13-.16.23-.34.3-.55.07-.21.1-.42.1-.64Z"/>
        <path class="cls-4" d="M104.33,60.17c0-.35-.11-.61-.32-.79-.21-.17-.5-.25-.85-.25-.27,0-.52.05-.75.16s-.44.24-.59.4l-.5-.6c.23-.22.52-.39.85-.52.34-.13.7-.19,1.08-.19.34,0,.63.05.88.15s.46.23.62.39c.16.17.28.36.36.59s.12.47.12.73v2.07c0,.16,0,.33.01.51.01.18.03.32.06.43h-.85c-.05-.23-.08-.45-.08-.68h-.03c-.17.25-.39.45-.65.59-.26.14-.58.21-.94.21-.19,0-.38-.03-.58-.08-.2-.05-.39-.13-.56-.25-.17-.11-.31-.26-.42-.45-.11-.19-.17-.42-.17-.69,0-.36.1-.65.29-.86s.45-.37.76-.48c.31-.11.67-.18,1.06-.21.39-.03.79-.05,1.19-.05v-.13ZM104.1,60.99c-.23,0-.47,0-.72.03-.25.02-.48.06-.68.12-.2.06-.37.15-.5.27-.13.12-.2.28-.2.48,0,.14.03.26.08.35.06.09.13.17.23.23.09.06.2.1.31.12s.23.04.35.04c.44,0,.78-.13,1.01-.39.24-.26.35-.6.35-1v-.25h-.23Z"/>
        <path class="cls-4" d="M109.02,59.28h-1.26v2.46c0,.29.05.49.16.61.11.12.28.18.51.18.09,0,.18,0,.28-.03.1-.02.19-.05.27-.08l.03.77c-.11.04-.24.07-.38.09-.14.02-.28.04-.43.04-.45,0-.79-.12-1.02-.37-.24-.25-.35-.62-.35-1.11v-2.57h-.91v-.77h.91v-1.36h.93v1.36h1.26v.77Z"/>
        <path class="cls-4" d="M112.16,59.28h-1.26v2.46c0,.29.05.49.16.61.11.12.28.18.51.18.09,0,.18,0,.28-.03.1-.02.19-.05.27-.08l.03.77c-.11.04-.24.07-.38.09-.14.02-.28.04-.43.04-.45,0-.79-.12-1.02-.37-.24-.25-.35-.62-.35-1.11v-2.57h-.91v-.77h.91v-1.36h.93v1.36h1.26v.77Z"/>
        <path class="cls-4" d="M117.56,60.84v.16c0,.05,0,.11-.01.16h-3.77c0,.2.05.39.14.56.08.18.19.33.33.46.14.13.3.23.48.3.18.07.38.11.58.11.32,0,.6-.07.83-.21s.42-.31.55-.51l.66.53c-.25.34-.55.58-.9.74-.34.16-.73.24-1.15.24-.36,0-.69-.06-1-.18s-.57-.29-.79-.5c-.22-.22-.39-.48-.52-.79s-.19-.65-.19-1.02.06-.71.19-1.01c.12-.31.3-.58.52-.79.22-.22.48-.39.78-.51.3-.12.62-.19.97-.19s.66.06.95.17c.28.11.52.28.72.49.2.21.35.47.46.78.11.3.16.64.16,1.02ZM116.6,60.46c0-.19-.04-.36-.09-.53-.06-.16-.14-.3-.25-.42s-.25-.21-.41-.29c-.16-.07-.35-.1-.57-.1-.2,0-.39.04-.57.1-.18.07-.33.17-.46.29-.13.12-.24.26-.32.42-.08.16-.13.34-.15.53h2.82Z"/>
        <path class="cls-4" d="M118.85,59.04c0-.2-.02-.38-.03-.53h.89c.01.12.02.26.03.42,0,.16.01.29.01.38h.03c.13-.28.33-.5.58-.67s.54-.25.87-.25c.15,0,.27.01.37.04l-.04.87c-.13-.03-.28-.05-.43-.05-.23,0-.42.04-.59.12-.17.08-.31.19-.42.33-.11.14-.19.3-.25.48-.05.18-.08.38-.08.58v2.49h-.94v-3.72c0-.13,0-.29-.01-.49Z"/>
        <path class="cls-4" d="M123.58,56.79c0,.17-.06.32-.18.43-.12.11-.27.17-.44.17s-.32-.06-.44-.18c-.12-.12-.18-.26-.18-.42s.06-.32.18-.43c.12-.12.26-.17.44-.17s.32.06.44.17c.12.12.18.26.18.43ZM123.43,63.25h-.94v-4.74h.94v4.74Z"/>
        <path class="cls-4" d="M129.5,60.84v.16c0,.05,0,.11-.01.16h-3.77c0,.2.05.39.14.56.08.18.19.33.33.46.14.13.3.23.48.3.18.07.38.11.58.11.32,0,.6-.07.83-.21s.42-.31.55-.51l.66.53c-.25.34-.55.58-.9.74-.34.16-.73.24-1.15.24-.36,0-.69-.06-1-.18s-.57-.29-.79-.5c-.22-.22-.39-.48-.52-.79s-.19-.65-.19-1.02.06-.71.19-1.01c.12-.31.3-.58.52-.79.22-.22.48-.39.78-.51.3-.12.62-.19.97-.19s.66.06.95.17c.28.11.52.28.72.49.2.21.35.47.46.78.11.3.16.64.16,1.02ZM128.54,60.46c0-.19-.04-.36-.09-.53-.06-.16-.14-.3-.25-.42s-.25-.21-.41-.29c-.16-.07-.35-.1-.57-.1-.2,0-.39.04-.57.1-.18.07-.33.17-.46.29-.13.12-.24.26-.32.42-.08.16-.13.34-.15.53h2.82Z"/>
        <path class="cls-4" d="M133.36,59.71c-.11-.17-.26-.32-.45-.42-.19-.11-.41-.17-.65-.17-.11,0-.21.01-.32.04-.11.02-.2.06-.29.11-.08.05-.15.11-.2.19-.05.08-.07.17-.07.29,0,.2.09.35.27.44.18.1.45.19.81.27.23.05.44.12.63.19.19.07.36.17.5.28.14.11.25.24.33.39.08.15.12.33.12.54,0,.28-.05.52-.16.71-.11.19-.25.35-.42.48-.18.12-.38.21-.6.26-.23.05-.46.08-.7.08-.36,0-.71-.07-1.05-.21-.34-.14-.63-.35-.86-.64l.67-.57c.13.19.3.34.52.47.22.13.47.19.73.19.12,0,.23-.01.35-.04.11-.02.21-.06.3-.12.09-.05.16-.12.21-.21.05-.09.08-.2.08-.33,0-.22-.1-.38-.31-.49-.21-.11-.52-.21-.92-.3-.16-.04-.32-.09-.49-.14-.16-.06-.31-.13-.44-.24-.13-.1-.24-.22-.33-.38-.08-.15-.12-.33-.12-.55,0-.25.05-.47.16-.66.1-.18.24-.33.4-.45.17-.12.36-.2.57-.26s.43-.08.66-.08c.34,0,.67.07.99.2.32.13.56.33.73.58l-.65.55Z"/>
        <path class="cls-4" d="M42.62,76.8h.02l1.66-5.64h1.09l1.65,5.64h.02l1.56-5.64h1.05l-2.08,7.08h-1.03l-1.72-5.69h-.02l-1.72,5.69h-1.03l-2.08-7.08h1.07l1.56,5.64Z"/>
        <path class="cls-4" d="M51.68,71.79c0,.17-.06.32-.18.43-.12.11-.27.17-.44.17s-.32-.06-.44-.18c-.12-.12-.18-.26-.18-.42s.06-.32.18-.43c.12-.12.26-.17.44-.17s.32.06.44.17c.12.12.18.26.18.43ZM51.53,78.25h-.94v-4.74h.94v4.74Z"/>
        <path class="cls-4" d="M54.02,73.5c.01.12.02.25.03.41s.01.28.01.38h.03c.06-.13.14-.25.25-.36.1-.11.22-.21.35-.29.13-.08.28-.15.44-.19s.33-.07.5-.07c.31,0,.57.05.79.16.22.1.4.24.55.42.15.17.26.38.33.61.07.23.1.48.1.75v2.94h-.94v-2.63c0-.19-.02-.38-.04-.55-.03-.17-.08-.33-.17-.46-.08-.13-.19-.24-.33-.32s-.32-.12-.54-.12c-.37,0-.68.14-.92.42-.24.28-.35.66-.35,1.14v2.52h-.94v-3.72c0-.13,0-.29-.01-.49,0-.2-.02-.38-.03-.53h.89Z"/>
        <path class="cls-4" d="M59.36,79.05c.21.23.46.42.77.56s.63.21.96.21.58-.04.79-.13c.21-.09.38-.21.51-.37.13-.16.22-.34.28-.56.06-.21.08-.44.08-.69v-.61h-.02c-.17.27-.41.47-.71.61-.3.14-.62.21-.96.21-.36,0-.69-.06-.99-.19-.3-.13-.55-.3-.75-.52s-.37-.48-.48-.78c-.11-.3-.17-.61-.17-.96s.06-.66.17-.96c.11-.3.27-.56.48-.78.21-.22.46-.4.75-.53s.62-.2.98-.2c.34,0,.67.07.98.22.31.15.56.37.73.67h.02v-.76h.91v4.5c0,.35-.04.68-.13,1-.09.32-.23.6-.44.84-.21.24-.48.44-.81.58-.33.15-.75.22-1.24.22-.41,0-.83-.08-1.25-.23-.42-.15-.77-.36-1.07-.63l.6-.73ZM59.64,75.83c0,.22.04.43.11.63.07.2.17.38.31.53.14.15.3.28.5.37.19.09.41.14.66.14s.46-.04.66-.13c.2-.09.37-.21.51-.36.14-.15.25-.33.33-.53.08-.2.12-.42.12-.66s-.04-.44-.12-.64c-.08-.2-.19-.38-.33-.53s-.31-.28-.51-.37-.42-.13-.66-.13-.47.04-.66.13c-.19.09-.36.21-.5.36-.14.15-.24.33-.31.53-.07.2-.11.42-.11.65Z"/>
        <path class="cls-4" d="M41.74,93.25h-.99v-7.08h4.42v.87h-3.43v2.2h3.21v.85h-3.21v3.16Z"/>
        <path class="cls-4" d="M50.7,90.87c0,.37-.06.7-.19,1.01s-.31.57-.54.79c-.23.22-.5.4-.81.52-.31.12-.65.18-1.01.18s-.7-.06-1.01-.18c-.31-.12-.58-.3-.81-.52-.23-.22-.4-.49-.54-.79-.13-.31-.19-.64-.19-1.01s.06-.7.19-1c.13-.3.31-.57.54-.79s.5-.39.81-.51c.31-.12.65-.19,1.01-.19s.7.06,1.01.19c.31.12.58.29.81.51s.41.48.54.79c.13.3.19.64.19,1ZM49.72,90.87c0-.23-.04-.44-.1-.65-.07-.21-.17-.39-.31-.54s-.3-.28-.5-.37-.42-.14-.68-.14-.48.05-.68.14-.36.22-.5.37-.24.34-.31.54c-.07.21-.11.42-.11.65s.04.44.11.65c.07.21.17.39.31.55.13.16.3.29.5.38.2.09.42.14.68.14s.48-.05.68-.14c.2-.09.36-.22.5-.38.13-.16.24-.34.31-.55.07-.21.1-.42.1-.65Z"/>
        <path class="cls-4" d="M51.99,89.04c0-.2-.02-.38-.03-.53h.89c.01.12.02.26.03.42,0,.16.01.29.01.38h.03c.13-.28.33-.5.58-.67s.54-.25.87-.25c.15,0,.27.01.37.04l-.04.87c-.13-.03-.28-.05-.43-.05-.23,0-.42.04-.59.12-.17.08-.31.19-.42.33-.11.14-.19.3-.25.48-.05.18-.08.38-.08.58v2.49h-.94v-3.72c0-.13,0-.29-.01-.49Z"/>
        <path class="cls-4" d="M55.97,88.5l1.07,3.62h.02l1.13-3.62h.99l1.15,3.62h.02l1.07-3.62h.99l-1.57,4.74h-.98l-1.17-3.56h-.02l-1.16,3.56h-.98l-1.58-4.74h1.02Z"/>
        <path class="cls-4" d="M66.3,90.17c0-.35-.11-.61-.32-.79-.21-.17-.5-.25-.85-.25-.27,0-.52.05-.75.16s-.44.24-.59.4l-.5-.6c.23-.22.52-.39.85-.52.34-.13.7-.19,1.08-.19.34,0,.63.05.88.15s.46.23.62.39c.16.17.28.36.36.59s.12.47.12.73v2.07c0,.16,0,.33.01.51.01.18.03.32.06.43h-.85c-.05-.23-.08-.45-.08-.68h-.03c-.17.25-.39.45-.65.59-.26.14-.58.21-.94.21-.19,0-.38-.03-.58-.08-.2-.05-.39-.13-.56-.25-.17-.11-.31-.26-.42-.45-.11-.19-.17-.42-.17-.69,0-.36.1-.65.29-.86s.45-.37.76-.48c.31-.11.67-.18,1.06-.21.39-.03.79-.05,1.19-.05v-.13ZM66.07,90.99c-.23,0-.47,0-.72.03-.25.02-.48.06-.68.12-.2.06-.37.15-.5.27-.13.12-.2.28-.2.48,0,.14.03.26.08.35.06.09.13.17.23.23.09.06.2.1.31.12s.23.04.35.04c.44,0,.78-.13,1.01-.39.24-.26.35-.6.35-1v-.25h-.23Z"/>
        <path class="cls-4" d="M68.76,89.04c0-.2-.02-.38-.03-.53h.89c.01.12.02.26.03.42,0,.16.01.29.01.38h.03c.13-.28.33-.5.58-.67s.54-.25.87-.25c.15,0,.27.01.37.04l-.04.87c-.13-.03-.28-.05-.43-.05-.23,0-.42.04-.59.12-.17.08-.31.19-.42.33-.11.14-.19.3-.25.48-.05.18-.08.38-.08.58v2.49h-.94v-3.72c0-.13,0-.29-.01-.49Z"/>
        <path class="cls-4" d="M75.99,92.5c-.18.29-.42.5-.73.66-.31.15-.63.22-.98.22-.37,0-.7-.06-.99-.2-.29-.13-.54-.31-.75-.53-.21-.23-.37-.49-.48-.8-.11-.31-.17-.63-.17-.98s.06-.67.17-.98c.11-.3.27-.57.48-.79.21-.23.46-.4.75-.53.29-.13.62-.19.97-.19.39,0,.72.08,1.01.25s.51.36.68.59h.02v-3.53h.94v7.56h-.91v-.75h-.02ZM72.87,90.87c0,.22.03.43.1.64.07.21.17.39.3.55.13.16.3.29.49.38s.42.14.68.14c.24,0,.46-.05.65-.14.2-.09.37-.22.51-.37.14-.16.25-.34.32-.54s.12-.42.12-.65-.04-.44-.12-.65-.19-.39-.32-.55c-.14-.16-.31-.29-.51-.38s-.42-.14-.65-.14c-.26,0-.49.05-.68.14s-.36.22-.49.38c-.13.16-.23.34-.3.55-.07.21-.1.42-.1.64Z"/>
        <path class="cls-4" d="M83.29,89.28h-1.1v3.97h-.94v-3.97h-.94v-.77h.94v-.99c0-.28.03-.54.1-.77.06-.24.17-.44.31-.62.14-.17.33-.31.55-.41.22-.1.5-.15.81-.15.23,0,.42.02.59.07l-.11.81c-.07-.02-.15-.04-.22-.05-.07-.01-.16-.02-.25-.02-.18,0-.32.03-.43.09-.11.06-.2.15-.26.26-.06.11-.1.23-.12.36s-.03.28-.03.42v.99h1.1v.77Z"/>
        <path class="cls-4" d="M87.5,93.25c-.01-.12-.02-.25-.03-.41,0-.15-.01-.27-.01-.38h-.02c-.12.25-.32.47-.6.65s-.6.26-.94.26c-.31,0-.57-.05-.79-.15-.22-.1-.41-.24-.55-.42-.14-.18-.25-.38-.32-.62s-.1-.48-.1-.75v-2.94h.94v2.62c0,.19.02.38.04.55.03.18.08.33.17.47.08.13.19.24.33.32s.32.12.54.12c.38,0,.69-.14.92-.42s.35-.66.35-1.13v-2.52h.94v3.72c0,.13,0,.29,0,.49,0,.2.02.38.03.53h-.89Z"/>
        <path class="cls-4" d="M92.54,89.71c-.11-.17-.26-.32-.45-.42-.19-.11-.41-.17-.65-.17-.11,0-.21.01-.32.04-.11.02-.2.06-.29.11-.08.05-.15.11-.2.19-.05.08-.07.17-.07.29,0,.2.09.35.27.44.18.1.45.19.81.27.23.05.44.12.63.19.19.07.36.17.5.28.14.11.25.24.33.39.08.15.12.33.12.54,0,.28-.05.52-.16.71-.11.19-.25.35-.42.48-.18.12-.38.21-.6.26-.23.05-.46.08-.7.08-.36,0-.71-.07-1.05-.21-.34-.14-.63-.35-.86-.64l.67-.57c.13.19.3.34.52.47.22.13.47.19.73.19.12,0,.23-.01.35-.04.11-.02.21-.06.3-.12.09-.05.16-.12.21-.21.05-.09.08-.2.08-.33,0-.22-.1-.38-.31-.49-.21-.11-.52-.21-.92-.3-.16-.04-.32-.09-.49-.14-.16-.06-.31-.13-.44-.24-.13-.1-.24-.22-.33-.38-.08-.15-.12-.33-.12-.55,0-.25.05-.47.16-.66.1-.18.24-.33.4-.45.17-.12.36-.2.57-.26s.43-.08.66-.08c.34,0,.67.07.99.2.32.13.56.33.73.58l-.65.55Z"/>
        <path class="cls-4" d="M98.85,90.84v.16c0,.05,0,.11-.01.16h-3.77c0,.2.05.39.14.56.08.18.19.33.33.46.14.13.3.23.48.3.18.07.38.11.58.11.32,0,.6-.07.83-.21s.42-.31.55-.51l.66.53c-.25.34-.55.58-.9.74-.34.16-.73.24-1.15.24-.36,0-.69-.06-1-.18s-.57-.29-.79-.5c-.22-.22-.39-.48-.52-.79s-.19-.65-.19-1.02.06-.71.19-1.01c.12-.31.3-.58.52-.79.22-.22.48-.39.78-.51.3-.12.62-.19.97-.19s.66.06.95.17c.28.11.52.28.72.49.2.21.35.47.46.78.11.3.16.64.16,1.02ZM97.89,90.46c0-.19-.04-.36-.09-.53-.06-.16-.14-.3-.25-.42s-.25-.21-.41-.29c-.16-.07-.35-.1-.57-.1-.2,0-.39.04-.57.1-.18.07-.33.17-.46.29-.13.12-.24.26-.32.42-.08.16-.13.34-.15.53h2.82Z"/>
        <path class="cls-4" d="M101.11,93.25h-.94v-7.56h.94v7.56Z"/>
        <path class="cls-4" d="M105.7,90.17c0-.35-.11-.61-.32-.79-.21-.17-.5-.25-.85-.25-.27,0-.52.05-.75.16s-.44.24-.59.4l-.5-.6c.23-.22.52-.39.85-.52.34-.13.7-.19,1.08-.19.34,0,.63.05.88.15s.46.23.62.39c.16.17.28.36.36.59s.12.47.12.73v2.07c0,.16,0,.33.01.51.01.18.03.32.06.43h-.85c-.05-.23-.08-.45-.08-.68h-.03c-.17.25-.39.45-.65.59-.26.14-.58.21-.94.21-.19,0-.38-.03-.58-.08-.2-.05-.39-.13-.56-.25-.17-.11-.31-.26-.42-.45-.11-.19-.17-.42-.17-.69,0-.36.1-.65.29-.86s.45-.37.76-.48c.31-.11.67-.18,1.06-.21.39-.03.79-.05,1.19-.05v-.13ZM105.47,90.99c-.23,0-.47,0-.72.03-.25.02-.48.06-.68.12-.2.06-.37.15-.5.27-.13.12-.2.28-.2.48,0,.14.03.26.08.35.06.09.13.17.23.23.09.06.2.1.31.12s.23.04.35.04c.44,0,.78-.13,1.01-.39.24-.26.35-.6.35-1v-.25h-.23Z"/>
        <path class="cls-4" d="M108.54,94.05c.21.23.46.42.77.56s.63.21.96.21.58-.04.79-.13c.21-.09.38-.21.51-.37.13-.16.22-.34.28-.56.06-.21.08-.44.08-.69v-.61h-.02c-.17.27-.41.47-.71.61-.3.14-.62.21-.96.21-.36,0-.69-.06-.99-.19-.3-.13-.55-.3-.75-.52s-.37-.48-.48-.78c-.11-.3-.17-.61-.17-.96s.06-.66.17-.96c.11-.3.27-.56.48-.78.21-.22.46-.4.75-.53s.62-.2.98-.2c.34,0,.67.07.98.22.31.15.56.37.73.67h.02v-.76h.91v4.5c0,.35-.04.68-.13,1-.09.32-.23.6-.44.84-.21.24-.48.44-.81.58-.33.15-.75.22-1.24.22-.41,0-.83-.08-1.25-.23-.42-.15-.77-.36-1.07-.63l.6-.73ZM108.82,90.83c0,.22.04.43.11.63.07.2.17.38.31.53.14.15.3.28.5.37.19.09.41.14.66.14s.46-.04.66-.13c.2-.09.37-.21.51-.36.14-.15.25-.33.33-.53.08-.2.12-.42.12-.66s-.04-.44-.12-.64c-.08-.2-.19-.38-.33-.53s-.31-.28-.51-.37-.42-.13-.66-.13-.47.04-.66.13c-.19.09-.36.21-.5.36-.14.15-.24.33-.31.53-.07.2-.11.42-.11.65Z"/>
        <path class="cls-4" d="M118.92,90.84v.16c0,.05,0,.11-.01.16h-3.77c0,.2.05.39.14.56.08.18.19.33.33.46.14.13.3.23.48.3.18.07.38.11.58.11.32,0,.6-.07.83-.21s.42-.31.55-.51l.66.53c-.25.34-.55.58-.9.74-.34.16-.73.24-1.15.24-.36,0-.69-.06-1-.18s-.57-.29-.79-.5c-.22-.22-.39-.48-.52-.79s-.19-.65-.19-1.02.06-.71.19-1.01c.12-.31.3-.58.52-.79.22-.22.48-.39.78-.51.3-.12.62-.19.97-.19s.66.06.95.17c.28.11.52.28.72.49.2.21.35.47.46.78.11.3.16.64.16,1.02ZM117.96,90.46c0-.19-.04-.36-.09-.53-.06-.16-.14-.3-.25-.42s-.25-.21-.41-.29c-.16-.07-.35-.1-.57-.1-.2,0-.39.04-.57.1-.18.07-.33.17-.46.29-.13.12-.24.26-.32.42-.08.16-.13.34-.15.53h2.82Z"/>
        <path class="cls-4" d="M46.82,107.15c-.28.38-.64.69-1.09.92s-.98.35-1.61.35c-.54,0-1.04-.09-1.5-.27-.46-.18-.85-.44-1.18-.77-.33-.33-.59-.72-.78-1.18-.19-.46-.28-.96-.28-1.5s.1-1.06.29-1.52c.19-.46.45-.85.79-1.17.34-.32.73-.57,1.19-.75.46-.18.96-.27,1.5-.27.24,0,.48.02.73.07.25.05.48.12.71.21.23.09.43.21.62.35.19.14.35.29.48.47l-.78.6c-.17-.24-.42-.44-.73-.6-.32-.16-.66-.23-1.02-.23-.41,0-.79.07-1.12.22-.33.15-.61.36-.84.62s-.41.56-.54.91c-.13.34-.19.71-.19,1.09s.06.77.19,1.12c.12.35.3.65.53.9.23.26.51.46.84.61.33.15.7.22,1.11.22s.76-.08,1.09-.24c.33-.16.6-.39.81-.7l.79.54Z"/>
        <path class="cls-4" d="M52.09,105.84v.16c0,.05,0,.11-.01.16h-3.77c0,.2.05.39.14.56.08.18.19.33.33.46.14.13.3.23.48.3.18.07.38.11.58.11.32,0,.6-.07.83-.21s.42-.31.55-.51l.66.53c-.25.34-.55.58-.9.74-.34.16-.73.24-1.15.24-.36,0-.69-.06-1-.18s-.57-.29-.79-.5c-.22-.22-.39-.48-.52-.79s-.19-.65-.19-1.02.06-.71.19-1.01c.12-.31.3-.58.52-.79.22-.22.48-.39.78-.51.3-.12.62-.19.97-.19s.66.06.95.17c.28.11.52.28.72.49.2.21.35.47.46.78.11.3.16.64.16,1.02ZM51.13,105.46c0-.19-.04-.36-.09-.53-.06-.16-.14-.3-.25-.42s-.25-.21-.41-.29c-.16-.07-.35-.1-.57-.1-.2,0-.39.04-.57.1-.18.07-.33.17-.46.29-.13.12-.24.26-.32.42-.08.16-.13.34-.15.53h2.82Z"/>
        <path class="cls-4" d="M54.24,103.5c.01.12.02.25.03.41s.01.28.01.38h.03c.06-.13.14-.25.25-.36.1-.11.22-.21.35-.29.13-.08.28-.15.44-.19s.33-.07.5-.07c.31,0,.57.05.79.16.22.1.4.24.55.42.15.17.26.38.33.61.07.23.1.48.1.75v2.94h-.94v-2.63c0-.19-.02-.38-.04-.55-.03-.17-.08-.33-.17-.46-.08-.13-.19-.24-.33-.32s-.32-.12-.54-.12c-.37,0-.68.14-.92.42-.24.28-.35.66-.35,1.14v2.52h-.94v-3.72c0-.13,0-.29-.01-.49,0-.2-.02-.38-.03-.53h.89Z"/>
        <path class="cls-4" d="M61.53,104.28h-1.26v2.46c0,.29.05.49.16.61.11.12.28.18.51.18.09,0,.18,0,.28-.03.1-.02.19-.05.27-.08l.03.77c-.11.04-.24.07-.38.09-.14.02-.28.04-.43.04-.45,0-.79-.12-1.02-.37-.24-.25-.35-.62-.35-1.11v-2.57h-.91v-.77h.91v-1.36h.93v1.36h1.26v.77Z"/>
        <path class="cls-4" d="M62.49,104.04c0-.2-.02-.38-.03-.53h.89c.01.12.02.26.03.42,0,.16.01.29.01.38h.03c.13-.28.33-.5.58-.67s.54-.25.87-.25c.15,0,.27.01.37.04l-.04.87c-.13-.03-.28-.05-.43-.05-.23,0-.42.04-.59.12-.17.08-.31.19-.42.33-.11.14-.19.3-.25.48-.05.18-.08.38-.08.58v2.49h-.94v-3.72c0-.13,0-.29-.01-.49Z"/>
        <path class="cls-4" d="M70.37,105.84v.16c0,.05,0,.11-.01.16h-3.77c0,.2.05.39.14.56.08.18.19.33.33.46.14.13.3.23.48.3.18.07.38.11.58.11.32,0,.6-.07.83-.21s.42-.31.55-.51l.66.53c-.25.34-.55.58-.9.74-.34.16-.73.24-1.15.24-.36,0-.69-.06-1-.18s-.57-.29-.79-.5c-.22-.22-.39-.48-.52-.79s-.19-.65-.19-1.02.06-.71.19-1.01c.12-.31.3-.58.52-.79.22-.22.48-.39.78-.51.3-.12.62-.19.97-.19s.66.06.95.17c.28.11.52.28.72.49.2.21.35.47.46.78.11.3.16.64.16,1.02ZM69.41,105.46c0-.19-.04-.36-.09-.53-.06-.16-.14-.3-.25-.42s-.25-.21-.41-.29c-.16-.07-.35-.1-.57-.1-.2,0-.39.04-.57.1-.18.07-.33.17-.46.29-.13.12-.24.26-.32.42-.08.16-.13.34-.15.53h2.82Z"/>
        <path class="cls-4" d="M74.52,103.5l1.07,3.62h.02l1.13-3.62h.99l1.15,3.62h.02l1.07-3.62h.99l-1.57,4.74h-.98l-1.17-3.56h-.02l-1.16,3.56h-.98l-1.58-4.74h1.02Z"/>
        <path class="cls-4" d="M83,101.79c0,.17-.06.32-.18.43-.12.11-.27.17-.44.17s-.32-.06-.44-.18c-.12-.12-.18-.26-.18-.42s.06-.32.18-.43c.12-.12.26-.17.44-.17s.32.06.44.17c.12.12.18.26.18.43ZM82.85,108.25h-.94v-4.74h.94v4.74Z"/>
        <path class="cls-4" d="M85.34,103.5c.01.12.02.25.03.41s.01.28.01.38h.03c.06-.13.14-.25.25-.36.1-.11.22-.21.35-.29.13-.08.28-.15.44-.19s.33-.07.5-.07c.31,0,.57.05.79.16.22.1.4.24.55.42.15.17.26.38.33.61.07.23.1.48.1.75v2.94h-.94v-2.63c0-.19-.02-.38-.04-.55-.03-.17-.08-.33-.17-.46-.08-.13-.19-.24-.33-.32s-.32-.12-.54-.12c-.37,0-.68.14-.92.42-.24.28-.35.66-.35,1.14v2.52h-.94v-3.72c0-.13,0-.29-.01-.49,0-.2-.02-.38-.03-.53h.89Z"/>
        <path class="cls-4" d="M90.68,109.05c.21.23.46.42.77.56s.63.21.96.21.58-.04.79-.13c.21-.09.38-.21.51-.37.13-.16.22-.34.28-.56.06-.21.08-.44.08-.69v-.61h-.02c-.17.27-.41.47-.71.61-.3.14-.62.21-.96.21-.36,0-.69-.06-.99-.19-.3-.13-.55-.3-.75-.52s-.37-.48-.48-.78c-.11-.3-.17-.61-.17-.96s.06-.66.17-.96c.11-.3.27-.56.48-.78.21-.22.46-.4.75-.53s.62-.2.98-.2c.34,0,.67.07.98.22.31.15.56.37.73.67h.02v-.76h.91v4.5c0,.35-.04.68-.13,1-.09.32-.23.6-.44.84-.21.24-.48.44-.81.58-.33.15-.75.22-1.24.22-.41,0-.83-.08-1.25-.23-.42-.15-.77-.36-1.07-.63l.6-.73ZM90.96,105.83c0,.22.04.43.11.63.07.2.17.38.31.53.14.15.3.28.5.37.19.09.41.14.66.14s.46-.04.66-.13c.2-.09.37-.21.51-.36.14-.15.25-.33.33-.53.08-.2.12-.42.12-.66s-.04-.44-.12-.64c-.08-.2-.19-.38-.33-.53s-.31-.28-.51-.37-.42-.13-.66-.13-.47.04-.66.13c-.19.09-.36.21-.5.36-.14.15-.24.33-.31.53-.07.2-.11.42-.11.65Z"/>
        <path class="cls-4" d="M100.06,107.5v.75h-.91v-7.56h.94v3.53h.03c.16-.23.38-.43.67-.59s.62-.25,1.02-.25c.35,0,.67.06.96.19.29.13.54.3.75.53.21.23.37.49.48.79.11.3.17.63.17.98s-.06.67-.17.98c-.11.31-.27.57-.48.8-.21.23-.46.4-.75.53-.29.13-.62.2-.99.2-.34,0-.66-.08-.97-.22-.31-.15-.55-.37-.74-.66h-.02ZM103.21,105.87c0-.22-.03-.43-.1-.64-.07-.21-.17-.39-.3-.55-.13-.16-.3-.29-.5-.38-.2-.09-.43-.14-.69-.14-.24,0-.46.05-.66.14-.2.09-.36.22-.5.38s-.25.34-.32.55c-.08.21-.12.42-.12.65s.04.44.12.65c.08.21.18.39.32.54s.31.28.5.37c.2.09.42.14.66.14.26,0,.49-.05.69-.14.2-.1.36-.22.5-.38.13-.16.23-.34.3-.55.07-.21.1-.42.1-.64Z"/>
        <path class="cls-4" d="M110.29,105.87c0,.37-.06.7-.19,1.01s-.31.57-.54.79c-.23.22-.5.4-.81.52-.31.12-.65.18-1.01.18s-.7-.06-1.01-.18c-.31-.12-.58-.3-.81-.52-.23-.22-.4-.49-.54-.79-.13-.31-.19-.64-.19-1.01s.06-.7.19-1c.13-.3.31-.57.54-.79s.5-.39.81-.51c.31-.12.65-.19,1.01-.19s.7.06,1.01.19c.31.12.58.29.81.51s.41.48.54.79c.13.3.19.64.19,1ZM109.31,105.87c0-.23-.04-.44-.1-.65-.07-.21-.17-.39-.31-.54s-.3-.28-.5-.37-.42-.14-.68-.14-.48.05-.68.14-.36.22-.5.37-.24.34-.31.54c-.07.21-.11.42-.11.65s.04.44.11.65c.07.21.17.39.31.55.13.16.3.29.5.38.2.09.42.14.68.14s.48-.05.68-.14c.2-.09.36-.22.5-.38.13-.16.24-.34.31-.55.07-.21.1-.42.1-.65Z"/>
        <path class="cls-4" d="M112.65,105.75l-1.73-2.25h1.16l1.16,1.63,1.17-1.63h1.1l-1.71,2.24,1.91,2.5h-1.17l-1.32-1.85-1.34,1.85h-1.13l1.9-2.49Z"/>
      </g>
    </g>
  </g>
</svg>