<?xml version="1.0" encoding="UTF-8"?>
<svg id="Layer_2" data-name="Layer 2" xmlns="http://www.w3.org/2000/svg" viewBox="0 0 231.38 54.73">
  <defs>
    <style>
      .cls-1 {
        fill: #000;
      }

      .cls-1, .cls-2 {
        stroke-width: 0px;
      }

      .cls-3 {
        stroke: #86b6ee;
        stroke-width: 1.21px;
      }

      .cls-3, .cls-4 {
        stroke-miterlimit: 10;
      }

      .cls-3, .cls-2 {
        fill: #fff;
      }

      .cls-4 {
        fill: none;
        stroke: #fff;
        stroke-width: 1.51px;
      }
    </style>
  </defs>
  <g id="Where_It_s_made" data-name="Where It&amp;apos;s made">
    <g>
      <g>
        <line class="cls-4" x1="231.38" y1="3.89" x2="156.1" y2="3.89"/>
        <circle class="cls-2" cx="159.68" cy="3.89" r="3.89"/>
      </g>
      <rect class="cls-3" x=".6" y=".67" width="163.57" height="53.46" rx="14.48" ry="14.48"/>
      <g>
        <path class="cls-1" d="M23.13,20.16l.05-6.01h-.04l-2.21,6.01h-1.44l-2.15-6.01h-.04l.05,6.01h-1.93v-8.5h2.92l1.93,5.45h.05l1.85-5.45h2.97v8.5h-2.02Z"/>
        <path class="cls-1" d="M26.69,15c.35-.34.76-.59,1.23-.76.47-.17.95-.25,1.43-.25s.93.06,1.28.19c.35.12.63.32.85.58.22.26.37.59.47.98.1.4.15.87.15,1.41v3.01h-1.8v-.64h-.04c-.15.25-.38.44-.69.58-.31.14-.64.2-1,.2-.24,0-.49-.03-.74-.1-.26-.06-.49-.17-.7-.31-.21-.14-.39-.34-.52-.58-.14-.24-.2-.54-.2-.89,0-.43.12-.78.35-1.04.24-.26.54-.47.91-.61.37-.14.79-.24,1.24-.29.46-.05.9-.07,1.33-.07v-.1c0-.3-.1-.51-.31-.65-.21-.14-.46-.21-.77-.21-.28,0-.55.06-.81.18-.26.12-.48.26-.67.43l-1-1.07ZM30.31,17.56h-.25c-.22,0-.43,0-.65.03-.22.02-.42.06-.59.11-.17.06-.31.14-.43.25-.11.11-.17.25-.17.43,0,.11.03.21.08.29.05.08.12.14.2.19.08.05.17.08.28.1.1.02.2.03.3.03.4,0,.71-.11.92-.33s.32-.52.32-.89v-.2Z"/>
        <path class="cls-1" d="M37.49,20.16v-3.26c0-.17-.01-.33-.04-.48-.03-.15-.07-.29-.14-.4-.06-.12-.15-.21-.27-.28-.12-.07-.26-.1-.44-.1s-.33.03-.46.1c-.13.07-.24.16-.33.28-.09.12-.15.26-.2.41-.04.16-.07.32-.07.49v3.24h-1.98v-5.98h1.91v.83h.02c.07-.13.17-.25.28-.38.12-.12.25-.23.41-.32.16-.09.33-.16.51-.22.18-.06.38-.08.59-.08.4,0,.74.07,1.02.22.28.14.51.33.68.56.17.23.3.49.37.79.08.3.11.59.11.89v3.7h-1.98Z"/>
        <path class="cls-1" d="M44.9,20.16v-.83h-.02c-.07.14-.17.26-.28.38-.12.12-.25.22-.41.31-.16.09-.33.16-.52.22s-.39.08-.59.08c-.4,0-.74-.07-1.01-.22-.28-.14-.5-.33-.67-.56-.17-.23-.3-.49-.37-.78-.08-.29-.11-.59-.11-.89v-3.7h1.98v3.24c0,.17.01.33.04.48s.07.29.14.41.16.21.27.28c.11.07.26.1.44.1.34,0,.61-.13.79-.38.18-.26.27-.56.27-.9v-3.23h1.97v5.98h-1.9Z"/>
        <path class="cls-1" d="M52.04,12.54c-.07-.02-.16-.04-.25-.06-.1-.02-.19-.02-.29-.02-.18,0-.33.03-.44.1-.11.06-.2.15-.26.26-.06.11-.11.23-.13.37-.02.14-.04.27-.04.41v.6h1.33v1.46h-1.33v4.51h-1.97v-4.51h-1.09v-1.46h1.09v-.58c0-.37.04-.72.12-1.05s.22-.62.41-.88c.2-.25.46-.45.79-.6.33-.15.75-.22,1.24-.22.17,0,.33,0,.5.03.16.02.31.05.45.09l-.13,1.56Z"/>
        <path class="cls-1" d="M52.62,15c.35-.34.76-.59,1.23-.76.47-.17.95-.25,1.43-.25s.93.06,1.28.19c.35.12.63.32.85.58.22.26.37.59.47.98.1.4.15.87.15,1.41v3.01h-1.8v-.64h-.04c-.15.25-.38.44-.69.58-.31.14-.64.2-1,.2-.24,0-.49-.03-.74-.1-.26-.06-.49-.17-.7-.31-.21-.14-.39-.34-.52-.58-.14-.24-.2-.54-.2-.89,0-.43.12-.78.35-1.04.24-.26.54-.47.91-.61.37-.14.79-.24,1.24-.29.46-.05.9-.07,1.33-.07v-.1c0-.3-.1-.51-.31-.65-.21-.14-.46-.21-.77-.21-.28,0-.55.06-.81.18-.26.12-.48.26-.67.43l-1-1.07ZM56.23,17.56h-.25c-.22,0-.43,0-.65.03-.22.02-.42.06-.59.11-.17.06-.31.14-.43.25-.11.11-.17.25-.17.43,0,.11.03.21.08.29.05.08.12.14.2.19.08.05.17.08.28.1.1.02.2.03.3.03.4,0,.71-.11.92-.33s.32-.52.32-.89v-.2Z"/>
        <path class="cls-1" d="M63.62,16.12c-.11-.14-.26-.26-.46-.35s-.39-.13-.59-.13-.4.04-.56.13-.31.2-.43.34c-.12.14-.21.3-.28.49-.07.18-.1.38-.1.59s.03.4.1.59c.06.18.16.35.28.49s.27.25.44.33.37.12.58.12c.2,0,.4-.04.59-.11.2-.08.35-.19.47-.33l1.09,1.33c-.25.24-.57.43-.96.56-.39.14-.81.2-1.25.2-.47,0-.91-.07-1.32-.22-.41-.14-.76-.35-1.07-.63-.3-.28-.54-.61-.71-1-.17-.39-.26-.84-.26-1.33s.09-.93.26-1.32c.17-.39.41-.73.71-1,.3-.28.66-.49,1.07-.64.41-.15.85-.22,1.31-.22.22,0,.43.02.64.06.21.04.42.09.61.16.2.07.38.15.54.25.16.1.31.21.43.33l-1.14,1.32Z"/>
        <path class="cls-1" d="M67.66,15.65v2.29c0,.28.05.49.16.63s.3.21.58.21c.1,0,.2,0,.31-.02.11-.02.2-.04.27-.07l.02,1.44c-.14.05-.31.09-.52.13s-.42.05-.62.05c-.4,0-.74-.05-1.01-.15-.27-.1-.49-.24-.65-.43s-.28-.41-.35-.67c-.07-.26-.11-.55-.11-.87v-2.53h-.96v-1.46h.95v-1.57h1.93v1.57h1.4v1.46h-1.4Z"/>
        <path class="cls-1" d="M73.93,20.16v-.83h-.02c-.07.14-.17.26-.28.38-.12.12-.25.22-.41.31-.16.09-.33.16-.52.22s-.39.08-.59.08c-.4,0-.74-.07-1.01-.22-.28-.14-.5-.33-.67-.56-.17-.23-.3-.49-.37-.78-.08-.29-.11-.59-.11-.89v-3.7h1.98v3.24c0,.17.01.33.04.48s.07.29.14.41.16.21.27.28c.11.07.26.1.44.1.34,0,.61-.13.79-.38.18-.26.27-.56.27-.9v-3.23h1.97v5.98h-1.9Z"/>
        <path class="cls-1" d="M81.24,15.81c-.09-.02-.17-.04-.26-.05-.08,0-.17-.01-.25-.01-.26,0-.49.05-.67.14-.18.1-.32.21-.43.35-.11.14-.19.28-.23.44-.05.16-.07.3-.07.42v3.06h-1.97v-5.97h1.9v.86h.02c.15-.31.37-.56.65-.75.28-.19.6-.29.97-.29.08,0,.16,0,.23.01s.14.02.19.04l-.08,1.74Z"/>
        <path class="cls-1" d="M87.82,17.25v.24c0,.08,0,.16-.01.23h-4.33c.02.17.07.32.15.46.08.14.19.25.32.35.13.1.28.18.44.23.16.06.33.08.51.08.31,0,.58-.06.79-.17.22-.12.39-.27.53-.45l1.37.86c-.28.41-.65.72-1.11.94-.46.22-.99.33-1.6.33-.45,0-.87-.07-1.27-.21-.4-.14-.75-.34-1.05-.61-.3-.27-.54-.6-.71-.99-.17-.39-.26-.84-.26-1.34s.08-.93.25-1.33c.17-.4.4-.73.68-1.01.29-.28.63-.49,1.02-.64.39-.15.82-.23,1.27-.23s.84.07,1.21.22c.37.15.68.36.95.64s.47.62.62,1.02c.15.4.22.86.22,1.37ZM86.01,16.49c0-.31-.1-.58-.29-.8-.2-.22-.49-.34-.88-.34-.19,0-.37.03-.53.09-.16.06-.3.14-.42.25-.12.1-.22.23-.29.37-.07.14-.11.29-.12.44h2.53Z"/>
        <path class="cls-1" d="M93.57,20.16v-.78h-.02c-.19.3-.47.54-.82.7s-.73.25-1.13.25c-.45,0-.85-.09-1.2-.26s-.65-.41-.89-.7-.43-.63-.56-1.01c-.13-.38-.19-.78-.19-1.2s.07-.81.2-1.19.32-.71.56-1,.54-.52.89-.68c.35-.17.74-.25,1.17-.25s.81.08,1.12.25c.3.17.54.35.71.55h.02v-3.73h1.97v9.07h-1.81ZM93.5,17.16c0-.19-.03-.38-.1-.56-.07-.18-.16-.35-.29-.49-.12-.14-.27-.26-.45-.35-.18-.09-.38-.13-.6-.13s-.44.04-.61.13c-.18.09-.32.2-.44.34-.12.14-.21.3-.27.49-.06.18-.09.37-.09.56s.03.38.09.57c.06.19.15.35.27.5.12.14.27.26.44.35.18.09.38.13.61.13s.42-.04.6-.13.33-.2.45-.35c.12-.14.22-.31.29-.49.07-.18.1-.37.1-.56Z"/>
        <path class="cls-1" d="M102.08,12.28c0,.15-.03.29-.09.43s-.14.25-.24.34c-.1.1-.22.17-.36.23-.14.06-.29.08-.44.08-.32,0-.59-.11-.8-.32-.22-.21-.32-.47-.32-.76,0-.14.03-.28.08-.41s.14-.25.24-.34c.1-.1.22-.17.36-.23.14-.06.28-.09.44-.09.15,0,.3.03.44.08s.26.13.36.23c.1.1.18.21.24.34.06.13.09.27.09.43ZM99.97,20.16v-5.98h1.97v5.98h-1.97Z"/>
        <path class="cls-1" d="M107.42,20.16v-3.26c0-.17-.01-.33-.04-.48-.03-.15-.07-.29-.14-.4-.06-.12-.15-.21-.27-.28-.12-.07-.26-.1-.44-.1s-.33.03-.46.1c-.13.07-.24.16-.33.28-.09.12-.15.26-.2.41-.04.16-.07.32-.07.49v3.24h-1.98v-5.98h1.91v.83h.02c.07-.13.17-.25.28-.38.12-.12.25-.23.41-.32.16-.09.33-.16.51-.22.18-.06.38-.08.59-.08.4,0,.74.07,1.02.22.28.14.51.33.68.56.17.23.3.49.37.79.08.3.11.59.11.89v3.7h-1.98Z"/>
        <path class="cls-1" d="M119.18,20.16l-3.16-3.91h-.02v3.91h-2v-8.5h2v3.46h.04l3.04-3.46h2.57l-3.66,3.91,3.88,4.58h-2.68Z"/>
        <path class="cls-1" d="M128.39,17.15c0,.49-.09.93-.26,1.33-.18.4-.42.73-.72,1.01-.3.28-.66.49-1.06.64-.4.15-.83.23-1.28.23s-.87-.08-1.28-.23c-.4-.15-.76-.37-1.06-.64-.3-.28-.54-.61-.71-1.01-.18-.4-.26-.84-.26-1.33s.09-.93.26-1.32c.18-.39.41-.72.71-1,.3-.27.65-.48,1.06-.62.4-.14.83-.22,1.28-.22s.88.07,1.28.22c.4.14.75.35,1.06.62.3.27.54.6.72,1,.18.39.26.83.26,1.32ZM126.5,17.15c0-.19-.03-.38-.1-.56-.06-.18-.16-.35-.28-.49-.12-.14-.27-.25-.44-.34-.18-.09-.38-.13-.61-.13s-.44.04-.61.13c-.18.09-.32.2-.44.34-.12.14-.2.3-.26.49-.06.18-.09.37-.09.56s.03.38.09.56c.06.18.15.35.27.5.12.15.27.27.44.35.18.09.38.13.61.13s.44-.04.61-.13c.18-.09.32-.21.44-.35.12-.15.21-.31.27-.5.06-.18.09-.37.09-.56Z"/>
        <path class="cls-1" d="M133.52,15.81c-.09-.02-.17-.04-.26-.05-.08,0-.17-.01-.25-.01-.26,0-.49.05-.67.14-.18.1-.32.21-.43.35-.11.14-.19.28-.23.44-.05.16-.07.3-.07.42v3.06h-1.97v-5.97h1.9v.86h.02c.15-.31.37-.56.65-.75.28-.19.6-.29.97-.29.08,0,.16,0,.23.01s.14.02.19.04l-.08,1.74Z"/>
        <path class="cls-1" d="M140.11,17.25v.24c0,.08,0,.16-.01.23h-4.33c.02.17.07.32.15.46.08.14.19.25.32.35.13.1.28.18.44.23.16.06.33.08.51.08.31,0,.58-.06.79-.17.22-.12.39-.27.53-.45l1.37.86c-.28.41-.65.72-1.11.94-.46.22-.99.33-1.6.33-.45,0-.87-.07-1.27-.21-.4-.14-.75-.34-1.05-.61-.3-.27-.54-.6-.71-.99-.17-.39-.26-.84-.26-1.34s.08-.93.25-1.33c.17-.4.4-.73.68-1.01.29-.28.63-.49,1.02-.64.39-.15.82-.23,1.27-.23s.84.07,1.21.22c.37.15.68.36.95.64s.47.62.62,1.02c.15.4.22.86.22,1.37ZM138.29,16.49c0-.31-.1-.58-.29-.8-.2-.22-.49-.34-.88-.34-.19,0-.37.03-.53.09-.16.06-.3.14-.42.25-.12.1-.22.23-.29.37-.07.14-.11.29-.12.44h2.53Z"/>
        <path class="cls-1" d="M141.17,15c.35-.34.76-.59,1.23-.76.47-.17.95-.25,1.43-.25s.93.06,1.28.19c.35.12.63.32.85.58.22.26.37.59.47.98.1.4.15.87.15,1.41v3.01h-1.8v-.64h-.04c-.15.25-.38.44-.69.58-.31.14-.64.2-1,.2-.24,0-.49-.03-.74-.1-.26-.06-.49-.17-.7-.31-.21-.14-.39-.34-.52-.58-.14-.24-.2-.54-.2-.89,0-.43.12-.78.35-1.04.24-.26.54-.47.91-.61.37-.14.79-.24,1.24-.29.46-.05.9-.07,1.33-.07v-.1c0-.3-.1-.51-.31-.65-.21-.14-.46-.21-.77-.21-.28,0-.55.06-.81.18-.26.12-.48.26-.67.43l-1-1.07ZM144.79,17.56h-.25c-.22,0-.43,0-.65.03-.22.02-.42.06-.59.11-.17.06-.31.14-.43.25-.11.11-.17.25-.17.43,0,.11.03.21.08.29.05.08.12.14.2.19.08.05.17.08.28.1.1.02.2.03.3.03.4,0,.71-.11.92-.33s.32-.52.32-.89v-.2Z"/>
        <path class="cls-1" d="M150.45,15.24c0,.16-.03.31-.1.45-.06.14-.15.26-.25.37-.1.1-.23.19-.37.25-.14.06-.29.09-.44.09-.16,0-.31-.03-.46-.08-.14-.06-.27-.14-.38-.24-.11-.1-.19-.22-.26-.36-.06-.14-.1-.28-.1-.44s.03-.31.1-.45c.06-.14.15-.26.26-.37s.23-.19.38-.25.3-.09.46-.09c.15,0,.3.03.44.09.14.06.27.14.37.24.1.1.19.22.25.36.06.14.1.29.1.44ZM150.45,19.09c0,.16-.03.31-.1.45-.06.14-.15.26-.25.36-.1.1-.23.18-.37.24-.14.06-.29.09-.44.09-.16,0-.31-.03-.46-.08-.14-.06-.27-.14-.38-.24-.11-.1-.19-.22-.26-.36-.06-.14-.1-.28-.1-.44s.03-.31.1-.45c.06-.14.15-.26.26-.37.11-.1.23-.19.38-.25.14-.06.3-.09.46-.09.15,0,.3.03.44.09.14.06.27.14.37.24s.19.22.25.36c.06.14.1.29.1.45Z"/>
      </g>
      <g>
        <path class="cls-1" d="M15.28,34.16c0-.25.05-.48.14-.69.09-.21.22-.4.38-.56s.35-.29.56-.38.44-.14.69-.14.48.05.69.14.4.22.56.38.29.35.38.56c.09.21.14.44.14.69s-.05.48-.14.69c-.09.21-.22.4-.38.56s-.35.29-.56.38c-.21.09-.44.14-.69.14s-.48-.05-.69-.14c-.21-.09-.4-.22-.56-.38s-.29-.35-.38-.56c-.09-.21-.14-.44-.14-.69Z"/>
        <path class="cls-1" d="M35.28,36.26h.02l1.66-5.64h1.09l1.65,5.64h.02l1.56-5.64h1.05l-2.08,7.08h-1.03l-1.72-5.69h-.02l-1.72,5.69h-1.03l-2.08-7.08h1.07l1.56,5.64Z"/>
        <path class="cls-1" d="M44.34,31.25c0,.17-.06.32-.18.43-.12.11-.27.17-.44.17s-.32-.06-.44-.18c-.12-.12-.18-.26-.18-.42s.06-.32.18-.43c.12-.12.26-.17.44-.17s.32.06.44.17c.12.12.18.26.18.43ZM44.19,37.7h-.94v-4.74h.94v4.74Z"/>
        <path class="cls-1" d="M46.68,32.96c.01.12.02.25.03.41s.01.28.01.38h.03c.06-.13.14-.25.25-.36.1-.11.22-.21.35-.29.13-.08.28-.15.44-.19s.33-.07.5-.07c.31,0,.57.05.79.16.22.1.4.24.55.42.15.17.26.38.33.61.07.23.1.48.1.75v2.94h-.94v-2.63c0-.19-.02-.38-.04-.55-.03-.17-.08-.33-.17-.46-.08-.13-.19-.24-.33-.32s-.32-.12-.54-.12c-.37,0-.68.14-.92.42-.24.28-.35.66-.35,1.14v2.52h-.94v-3.72c0-.13,0-.29-.01-.49,0-.2-.02-.38-.03-.53h.89Z"/>
        <path class="cls-1" d="M52.02,38.51c.21.23.46.42.77.56s.63.21.96.21.58-.04.79-.13c.21-.09.38-.21.51-.37.13-.16.22-.34.28-.56.06-.21.08-.44.08-.69v-.61h-.02c-.17.27-.41.47-.71.61-.3.14-.62.21-.96.21-.36,0-.69-.06-.99-.19-.3-.13-.55-.3-.75-.52s-.37-.48-.48-.78c-.11-.3-.17-.61-.17-.96s.06-.66.17-.96c.11-.3.27-.56.48-.78.21-.22.46-.4.75-.53s.62-.2.98-.2c.34,0,.67.07.98.22.31.15.56.37.73.67h.02v-.76h.91v4.5c0,.35-.04.68-.13,1-.09.32-.23.6-.44.84-.21.24-.48.44-.81.58-.33.15-.75.22-1.24.22-.41,0-.83-.08-1.25-.23-.42-.15-.77-.36-1.07-.63l.6-.73ZM52.3,35.28c0,.22.04.43.11.63.07.2.17.38.31.53.14.15.3.28.5.37.19.09.41.14.66.14s.46-.04.66-.13c.2-.09.37-.21.51-.36.14-.15.25-.33.33-.53.08-.2.12-.42.12-.66s-.04-.44-.12-.64c-.08-.2-.19-.38-.33-.53s-.31-.28-.51-.37-.42-.13-.66-.13-.47.04-.66.13c-.19.09-.36.21-.5.36-.14.15-.24.33-.31.53-.07.2-.11.42-.11.65Z"/>
        <path class="cls-1" d="M62.79,33.73h-1.26v2.46c0,.29.05.49.16.61.11.12.28.18.51.18.09,0,.18,0,.28-.03.1-.02.19-.05.27-.08l.03.77c-.11.04-.24.07-.38.09-.14.02-.28.04-.43.04-.45,0-.79-.12-1.02-.37-.24-.25-.35-.62-.35-1.11v-2.57h-.91v-.77h.91v-1.36h.93v1.36h1.26v.77Z"/>
        <path class="cls-1" d="M64.86,31.25c0,.17-.06.32-.18.43-.12.11-.27.17-.44.17s-.32-.06-.44-.18c-.12-.12-.18-.26-.18-.42s.06-.32.18-.43c.12-.12.26-.17.44-.17s.32.06.44.17c.12.12.18.26.18.43ZM64.71,37.7h-.94v-4.74h.94v4.74Z"/>
        <path class="cls-1" d="M67.29,40.1h-.94v-7.14h.92v.74h.03c.15-.25.38-.46.67-.62s.64-.25,1.03-.25c.35,0,.67.06.96.19.29.13.54.3.75.53.21.23.37.49.48.79.11.3.17.63.17.98s-.06.67-.17.98c-.11.31-.27.57-.48.8-.21.23-.46.4-.75.53-.29.13-.62.2-.99.2-.34,0-.66-.07-.96-.22s-.54-.35-.71-.62h-.03v3.11ZM70.41,35.32c0-.22-.03-.43-.1-.64-.07-.21-.17-.39-.3-.55-.13-.16-.3-.29-.5-.38-.2-.09-.43-.14-.69-.14-.24,0-.46.05-.66.14-.2.09-.36.22-.5.38-.14.16-.25.34-.32.55-.08.21-.12.42-.12.65s.04.44.12.65c.08.21.19.39.32.54.14.16.31.28.5.38.2.09.42.14.66.14.26,0,.49-.05.69-.14.2-.1.36-.23.5-.39.13-.16.23-.34.3-.55.07-.21.1-.42.1-.64Z"/>
        <path class="cls-1" d="M75.25,34.16c-.11-.17-.26-.32-.45-.42-.19-.11-.41-.17-.65-.17-.11,0-.21.01-.32.04-.11.02-.2.06-.29.11-.08.05-.15.11-.2.19-.05.08-.07.17-.07.29,0,.2.09.35.27.44.18.1.45.19.81.27.23.05.44.12.63.19.19.07.36.17.5.28.14.11.25.24.33.39.08.15.12.33.12.54,0,.28-.05.52-.16.71-.11.19-.25.35-.42.48-.18.12-.38.21-.6.26-.23.05-.46.08-.7.08-.36,0-.71-.07-1.05-.21-.34-.14-.63-.35-.86-.64l.67-.57c.13.19.3.34.52.47.22.13.47.19.73.19.12,0,.23-.01.35-.04.11-.02.21-.06.3-.12.09-.05.16-.12.21-.21.05-.09.08-.2.08-.33,0-.22-.1-.38-.31-.49-.21-.11-.52-.21-.92-.3-.16-.04-.32-.09-.49-.14-.16-.06-.31-.13-.44-.24-.13-.1-.24-.22-.33-.38-.08-.15-.12-.33-.12-.55,0-.25.05-.47.16-.66.1-.18.24-.33.4-.45.17-.12.36-.2.57-.26s.43-.08.66-.08c.34,0,.67.07.99.2.32.13.56.33.73.58l-.65.55Z"/>
      </g>
    </g>
  </g>
</svg>