<?xml version="1.0" encoding="UTF-8"?>
<svg id="Layer_2" data-name="Layer 2" xmlns="http://www.w3.org/2000/svg" viewBox="0 0 184.93 55.9">
  <defs>
    <style>
      .cls-1 {
        fill: #0a1e3f;
        stroke-width: 0px;
      }
    </style>
  </defs>
  <g id="Design">
    <g>
      <path class="cls-1" d="M1.91,13.61V.86h3.1v10.06h4.93v2.68H1.91Z"/>
      <path class="cls-1" d="M11.09,5.87c.53-.5,1.14-.88,1.85-1.13s1.42-.38,2.15-.38,1.4.09,1.92.28.94.47,1.27.86c.32.39.56.88.71,1.48s.23,1.3.23,2.12v4.52h-2.7v-.95h-.05c-.23.37-.57.66-1.04.86-.46.21-.96.31-1.5.31-.36,0-.73-.05-1.12-.14-.38-.1-.73-.25-1.05-.47-.32-.21-.58-.5-.78-.86s-.31-.8-.31-1.33c0-.65.18-1.17.53-1.57.35-.39.81-.7,1.37-.92.56-.21,1.18-.36,1.86-.43s1.35-.11,2-.11v-.14c0-.44-.16-.77-.47-.98-.31-.21-.7-.31-1.15-.31-.42,0-.83.09-1.21.27-.39.18-.72.4-1,.65l-1.49-1.6ZM16.51,9.7h-.38c-.32,0-.65.02-.98.04-.33.03-.62.09-.88.17-.26.08-.47.21-.64.37s-.25.38-.25.64c0,.17.04.31.12.43.08.12.18.22.3.29.12.07.26.12.41.15.16.03.31.04.45.04.6,0,1.06-.16,1.38-.49s.48-.78.48-1.34v-.31Z"/>
      <path class="cls-1" d="M27.22,7.07c-.13-.04-.26-.06-.39-.07s-.25-.02-.37-.02c-.4,0-.73.07-1,.21-.27.14-.49.32-.65.52-.16.2-.28.42-.35.66-.07.24-.11.45-.11.63v4.6h-2.95V4.65h2.84v1.3h.04c.23-.46.55-.83.97-1.12.42-.29.91-.43,1.46-.43.12,0,.24,0,.35.02.11.01.21.03.28.05l-.13,2.61Z"/>
      <path class="cls-1" d="M37.71,12.76c0,.88-.13,1.64-.38,2.29-.25.65-.61,1.18-1.06,1.61s-1.01.74-1.67.96c-.65.21-1.38.31-2.17.31s-1.6-.12-2.44-.36-1.56-.59-2.17-1.04l1.48-2.11c.43.38.91.67,1.43.86.52.19,1.03.28,1.54.28.86,0,1.5-.23,1.92-.69.41-.46.62-1.06.62-1.82v-.54h-.05c-.28.36-.65.65-1.12.86-.47.22-1,.32-1.6.32-.68,0-1.29-.12-1.82-.37-.53-.24-.98-.58-1.34-1-.37-.42-.65-.91-.84-1.47-.19-.56-.29-1.15-.29-1.77s.1-1.22.29-1.78c.19-.56.47-1.06.84-1.49.37-.43.81-.78,1.34-1.04.53-.26,1.13-.39,1.8-.39.56,0,1.1.11,1.62.34s.93.58,1.24,1.06h.04v-1.15h2.79v8.12ZM34.9,9.07c0-.3-.05-.59-.15-.87-.1-.28-.25-.52-.44-.73-.19-.21-.42-.38-.68-.49-.26-.12-.56-.18-.9-.18s-.63.06-.89.18c-.26.12-.48.28-.66.49-.18.2-.32.44-.41.72-.1.28-.14.57-.14.88s.05.59.14.86c.1.28.23.52.41.73.18.21.4.38.66.5.26.13.56.19.89.19s.64-.06.91-.19c.27-.12.5-.29.68-.49.19-.2.33-.44.43-.72.1-.28.15-.57.15-.88Z"/>
      <path class="cls-1" d="M48.94,9.23v.36c0,.12,0,.23-.02.34h-6.5c.02.25.1.48.23.68.13.21.29.38.49.53.2.15.42.27.67.35s.5.12.77.12c.47,0,.86-.09,1.19-.26.32-.17.59-.4.79-.68l2.05,1.3c-.42.61-.98,1.08-1.67,1.41-.69.33-1.49.5-2.4.5-.67,0-1.31-.11-1.91-.32-.6-.21-1.12-.52-1.58-.92-.45-.4-.8-.9-1.06-1.48s-.39-1.26-.39-2.02.13-1.39.38-1.99c.25-.6.59-1.1,1.03-1.51s.94-.73,1.53-.96c.59-.23,1.22-.34,1.91-.34s1.27.11,1.82.33c.55.22,1.03.54,1.42.96s.7.93.93,1.53.33,1.29.33,2.05ZM46.22,8.1c0-.47-.15-.87-.44-1.21s-.73-.5-1.32-.5c-.29,0-.55.04-.79.13-.24.09-.45.21-.63.37-.18.16-.32.34-.43.55-.11.21-.17.43-.18.66h3.8Z"/>
      <path class="cls-1" d="M56.59,7.07c-.13-.04-.26-.06-.39-.07s-.25-.02-.37-.02c-.4,0-.73.07-1,.21-.27.14-.49.32-.65.52-.16.2-.28.42-.35.66-.07.24-.11.45-.11.63v4.6h-2.95V4.65h2.84v1.3h.04c.23-.46.55-.83.97-1.12.42-.29.91-.43,1.46-.43.12,0,.24,0,.35.02.11.01.21.03.28.05l-.13,2.61Z"/>
      <path class="cls-1" d="M65.61,6.84v3.43c0,.42.08.74.24.95s.45.31.87.31c.14,0,.3-.01.46-.04.16-.02.3-.06.4-.11l.04,2.16c-.2.07-.46.13-.77.19-.31.05-.62.08-.94.08-.6,0-1.1-.08-1.51-.23-.41-.15-.73-.37-.98-.65s-.42-.62-.53-1.01c-.11-.39-.16-.83-.16-1.31v-3.79h-1.44v-2.2h1.42v-2.36h2.9v2.36h2.11v2.2h-2.11Z"/>
      <path class="cls-1" d="M75.01,13.61v-4.86c0-.25-.02-.49-.05-.72-.04-.23-.1-.43-.21-.6s-.24-.31-.4-.41c-.17-.1-.38-.15-.65-.15-.52,0-.91.18-1.19.55-.28.37-.41.82-.41,1.36v4.84h-2.95V0h2.95v5.78h.04c.2-.36.53-.68.97-.96.44-.28.98-.42,1.6-.42s1.12.11,1.54.32c.41.21.75.49,1.01.84.26.34.44.74.56,1.18.11.44.17.89.17,1.33v5.54h-2.97Z"/>
      <path class="cls-1" d="M80.08,5.87c.53-.5,1.14-.88,1.85-1.13s1.42-.38,2.15-.38,1.4.09,1.92.28.94.47,1.27.86c.32.39.56.88.71,1.48s.23,1.3.23,2.12v4.52h-2.7v-.95h-.05c-.23.37-.57.66-1.04.86-.46.21-.96.31-1.5.31-.36,0-.73-.05-1.12-.14-.38-.1-.73-.25-1.05-.47-.32-.21-.58-.5-.78-.86s-.31-.8-.31-1.33c0-.65.18-1.17.53-1.57.35-.39.81-.7,1.37-.92.56-.21,1.18-.36,1.86-.43s1.35-.11,2-.11v-.14c0-.44-.16-.77-.47-.98-.31-.21-.7-.31-1.15-.31-.42,0-.83.09-1.21.27-.39.18-.72.4-1,.65l-1.49-1.6ZM85.5,9.7h-.38c-.32,0-.65.02-.98.04-.33.03-.62.09-.88.17-.26.08-.47.21-.64.37s-.25.38-.25.64c0,.17.04.31.12.43.08.12.18.22.3.29.12.07.26.12.41.15.16.03.31.04.45.04.6,0,1.06-.16,1.38-.49s.48-.78.48-1.34v-.31Z"/>
      <path class="cls-1" d="M96.28,13.61v-4.9c0-.25-.02-.49-.06-.72-.04-.23-.11-.43-.21-.6-.1-.17-.23-.31-.41-.41s-.39-.15-.66-.15-.5.05-.69.15c-.2.1-.36.24-.5.42-.13.18-.23.39-.3.62-.07.23-.1.48-.1.73v4.86h-2.97V4.64h2.86v1.24h.04c.11-.19.25-.38.42-.57.17-.19.38-.34.61-.48.23-.13.49-.24.77-.32.28-.08.57-.12.88-.12.6,0,1.11.11,1.53.32.42.21.76.49,1.02.84.26.34.44.74.56,1.18.11.44.17.89.17,1.33v5.54h-2.97Z"/>
      <path class="cls-1" d="M117.4,13.61h-2.97l-1.76-5.58h-.04l-1.73,5.58h-2.97l-3.1-8.96h3.19l1.55,5.67h.05l1.6-5.67h2.97l1.66,5.67h.04l1.57-5.67h3.06l-3.11,8.96Z"/>
      <path class="cls-1" d="M124.86,1.78c0,.23-.04.44-.13.64-.09.2-.21.37-.36.51s-.33.26-.54.34-.43.13-.66.13c-.48,0-.88-.16-1.21-.48-.32-.32-.49-.7-.49-1.14,0-.21.04-.42.13-.62.08-.2.2-.37.36-.51.16-.14.34-.26.54-.35s.43-.13.67-.13c.23,0,.45.04.66.12s.39.2.54.34c.15.14.27.31.36.51.09.2.13.41.13.64ZM121.7,13.61V4.64h2.95v8.96h-2.95Z"/>
      <path class="cls-1" d="M132.87,13.61v-4.9c0-.25-.02-.49-.06-.72-.04-.23-.11-.43-.21-.6-.1-.17-.23-.31-.41-.41s-.39-.15-.66-.15-.5.05-.69.15c-.2.1-.36.24-.5.42-.13.18-.23.39-.3.62-.07.23-.1.48-.1.73v4.86h-2.97V4.64h2.86v1.24h.04c.11-.19.25-.38.42-.57.17-.19.38-.34.61-.48.23-.13.49-.24.77-.32.28-.08.57-.12.88-.12.6,0,1.11.11,1.53.32.42.21.76.49,1.02.84.26.34.44.74.56,1.18.11.44.17.89.17,1.33v5.54h-2.97Z"/>
      <path class="cls-1" d="M144.86,13.61v-1.17h-.04c-.29.46-.7.81-1.23,1.05-.53.25-1.1.37-1.7.37-.67,0-1.27-.13-1.8-.39-.53-.27-.98-.62-1.34-1.05-.37-.44-.65-.94-.84-1.52-.19-.58-.29-1.18-.29-1.8s.1-1.22.3-1.79c.2-.57.48-1.07.85-1.5.37-.43.81-.78,1.33-1.03.52-.25,1.11-.38,1.76-.38s1.22.12,1.67.38.81.53,1.06.83h.04V0h2.95v13.61h-2.72ZM144.75,9.11c0-.29-.05-.57-.15-.85-.1-.28-.25-.52-.43-.74-.19-.21-.41-.39-.68-.52s-.56-.2-.9-.2-.65.06-.92.2c-.26.13-.49.3-.67.51-.18.21-.31.45-.4.73-.09.28-.14.56-.14.85s.04.57.14.86c.09.28.22.53.4.75.18.22.4.39.67.52.26.13.57.2.92.2s.64-.07.9-.2c.26-.13.49-.31.68-.52.19-.21.33-.46.43-.74.1-.28.15-.56.15-.85Z"/>
      <path class="cls-1" d="M159.42,9.09c0,.73-.13,1.39-.4,1.99-.26.6-.62,1.1-1.08,1.51-.46.41-.98.73-1.58.96-.6.23-1.24.34-1.93.34s-1.31-.12-1.92-.34c-.61-.23-1.13-.55-1.58-.96-.45-.41-.81-.92-1.07-1.51-.26-.59-.4-1.26-.4-1.99s.13-1.39.4-1.98c.26-.59.62-1.09,1.07-1.49.45-.41.98-.72,1.58-.94.61-.21,1.25-.32,1.92-.32s1.33.11,1.93.32c.6.22,1.13.53,1.58.94.46.41.82.91,1.08,1.49.26.59.4,1.25.4,1.98ZM156.58,9.09c0-.29-.05-.57-.14-.85-.1-.28-.23-.52-.41-.73-.18-.21-.4-.38-.67-.51s-.57-.2-.92-.2-.65.06-.92.2c-.26.13-.48.3-.66.51-.17.21-.31.45-.4.73-.09.28-.14.56-.14.85s.04.57.14.85c.09.28.22.53.4.75.18.22.4.4.67.53.26.13.57.2.92.2s.65-.07.92-.2c.26-.13.49-.31.67-.53.18-.22.31-.47.4-.75.09-.28.14-.56.14-.85Z"/>
      <path class="cls-1" d="M172.71,13.61h-2.97l-1.76-5.58h-.04l-1.73,5.58h-2.97l-3.1-8.96h3.19l1.55,5.67h.05l1.6-5.67h2.97l1.66,5.67h.04l1.57-5.67h3.06l-3.11,8.96Z"/>
      <path class="cls-1" d="M182.25,7.29c-.24-.23-.52-.42-.85-.57-.32-.16-.67-.23-1.03-.23-.28,0-.53.05-.77.16-.23.11-.35.29-.35.56s.13.43.39.54c.26.11.67.23,1.25.36.34.07.67.17,1.02.31.34.13.65.3.93.52.28.22.5.48.67.79.17.31.25.68.25,1.12,0,.56-.11,1.04-.34,1.43-.23.39-.53.71-.89.94-.37.24-.78.41-1.23.52-.46.11-.91.16-1.37.16-.73,0-1.45-.12-2.15-.35-.7-.23-1.29-.58-1.75-1.04l1.66-1.75c.26.29.59.53.97.72.38.19.79.29,1.22.29.24,0,.48-.06.71-.17.23-.12.35-.32.35-.6s-.14-.48-.43-.61c-.29-.13-.74-.27-1.35-.41-.31-.07-.62-.17-.94-.29-.31-.12-.59-.28-.84-.49-.25-.2-.45-.46-.6-.76-.16-.3-.23-.66-.23-1.08,0-.54.11-1,.34-1.38.23-.38.52-.69.88-.93.36-.24.76-.42,1.2-.53.44-.12.87-.17,1.3-.17.67,0,1.33.11,1.97.32.64.21,1.19.52,1.63.94l-1.62,1.67Z"/>
      <path class="cls-1" d="M9.95,30.09c0,.73-.13,1.39-.4,1.99-.26.6-.62,1.1-1.08,1.51-.46.41-.98.73-1.58.96-.6.23-1.24.34-1.93.34s-1.31-.12-1.92-.34c-.61-.23-1.13-.55-1.58-.96-.45-.41-.81-.92-1.07-1.51-.26-.59-.4-1.26-.4-1.99s.13-1.39.4-1.98c.26-.59.62-1.09,1.07-1.49.45-.41.98-.72,1.58-.94.61-.21,1.25-.32,1.92-.32s1.33.11,1.93.32c.6.22,1.13.53,1.58.94.46.41.82.91,1.08,1.49.26.59.4,1.25.4,1.98ZM7.11,30.09c0-.29-.05-.57-.14-.85-.1-.28-.23-.52-.41-.73-.18-.21-.4-.38-.67-.51s-.57-.2-.92-.2-.65.06-.92.2c-.26.13-.48.3-.66.51-.17.21-.31.45-.4.73-.09.28-.14.56-.14.85s.04.57.14.85c.09.28.22.53.4.75.18.22.4.4.67.53.26.13.57.2.92.2s.65-.07.92-.2c.26-.13.49-.31.67-.53.18-.22.31-.47.4-.75.09-.28.14-.56.14-.85Z"/>
      <path class="cls-1" d="M17.71,34.61v-4.9c0-.25-.02-.49-.06-.72-.04-.23-.11-.43-.21-.6-.1-.17-.23-.31-.41-.41s-.39-.15-.66-.15-.5.05-.69.15c-.2.1-.36.24-.5.42-.13.18-.23.39-.3.62-.07.23-.1.48-.1.73v4.86h-2.97v-8.96h2.86v1.24h.04c.11-.19.25-.38.42-.57.17-.19.38-.34.61-.48.23-.13.49-.24.77-.32.28-.08.57-.12.88-.12.6,0,1.11.11,1.53.32.42.21.76.49,1.02.84.26.34.44.74.56,1.18.11.44.17.89.17,1.33v5.54h-2.97Z"/>
      <path class="cls-1" d="M27.29,26.87c.53-.5,1.14-.88,1.85-1.13s1.42-.38,2.15-.38,1.4.09,1.92.28.94.47,1.27.86c.32.39.56.88.71,1.48s.23,1.3.23,2.12v4.52h-2.7v-.95h-.05c-.23.37-.57.66-1.04.86-.46.21-.96.31-1.5.31-.36,0-.73-.05-1.12-.14-.38-.1-.73-.25-1.05-.47-.32-.21-.58-.5-.78-.86s-.31-.8-.31-1.33c0-.65.18-1.17.53-1.57.35-.39.81-.7,1.37-.92.56-.21,1.18-.36,1.86-.43s1.35-.11,2-.11v-.14c0-.44-.16-.77-.47-.98-.31-.21-.7-.31-1.15-.31-.42,0-.83.09-1.21.27-.39.18-.72.4-1,.65l-1.49-1.6ZM32.71,30.7h-.38c-.32,0-.65.02-.98.04-.33.03-.62.09-.88.17-.26.08-.47.21-.64.37s-.25.38-.25.64c0,.17.04.31.12.43.08.12.18.22.3.29.12.07.26.12.41.15.16.03.31.04.45.04.6,0,1.06-.16,1.38-.49s.48-.78.48-1.34v-.31Z"/>
      <path class="cls-1" d="M43.49,34.61v-4.9c0-.25-.02-.49-.06-.72-.04-.23-.11-.43-.21-.6-.1-.17-.23-.31-.41-.41s-.39-.15-.66-.15-.5.05-.69.15c-.2.1-.36.24-.5.42-.13.18-.23.39-.3.62-.07.23-.1.48-.1.73v4.86h-2.97v-8.96h2.86v1.24h.04c.11-.19.25-.38.42-.57.17-.19.38-.34.61-.48.23-.13.49-.24.77-.32.28-.08.57-.12.88-.12.6,0,1.11.11,1.53.32.42.21.76.49,1.02.84.26.34.44.74.56,1.18.11.44.17.89.17,1.33v5.54h-2.97Z"/>
      <path class="cls-1" d="M53.75,35.96c-.18.47-.38.88-.6,1.25-.22.37-.49.68-.79.94s-.67.45-1.08.59c-.41.13-.9.2-1.47.2-.28,0-.56-.02-.85-.05-.29-.04-.55-.08-.77-.14l.32-2.48c.14.05.3.09.48.12.17.03.33.04.48.04.46,0,.79-.11.99-.31.2-.21.38-.51.52-.89l.29-.74-3.74-8.82h3.28l2,5.76h.05l1.78-5.76h3.13l-4.01,10.31Z"/>
      <path class="cls-1" d="M72.9,30.09c0,.73-.13,1.39-.4,1.99-.26.6-.62,1.1-1.08,1.51-.46.41-.98.73-1.58.96-.6.23-1.24.34-1.93.34s-1.31-.12-1.92-.34c-.61-.23-1.13-.55-1.58-.96-.45-.41-.81-.92-1.07-1.51-.26-.59-.4-1.26-.4-1.99s.13-1.39.4-1.98c.26-.59.62-1.09,1.07-1.49.45-.41.98-.72,1.58-.94.61-.21,1.25-.32,1.92-.32s1.33.11,1.93.32c.6.22,1.13.53,1.58.94.46.41.82.91,1.08,1.49.26.59.4,1.25.4,1.98ZM70.06,30.09c0-.29-.05-.57-.14-.85-.1-.28-.23-.52-.41-.73-.18-.21-.4-.38-.67-.51s-.57-.2-.92-.2-.65.06-.92.2c-.26.13-.48.3-.66.51-.17.21-.31.45-.4.73-.09.28-.14.56-.14.85s.04.57.14.85c.09.28.22.53.4.75.18.22.4.4.67.53.26.13.57.2.92.2s.65-.07.92-.2c.26-.13.49-.31.67-.53.18-.22.31-.47.4-.75.09-.28.14-.56.14-.85Z"/>
      <path class="cls-1" d="M77.98,27.84v3.43c0,.42.08.74.24.95s.45.31.87.31c.14,0,.3-.01.46-.04.16-.02.3-.06.4-.11l.04,2.16c-.2.07-.46.13-.77.19-.31.05-.62.08-.94.08-.6,0-1.1-.08-1.51-.23-.41-.15-.73-.37-.98-.65s-.42-.62-.53-1.01c-.11-.39-.16-.83-.16-1.31v-3.79h-1.44v-2.2h1.42v-2.36h2.9v2.36h2.11v2.2h-2.11Z"/>
      <path class="cls-1" d="M87.37,34.61v-4.86c0-.25-.02-.49-.05-.72-.04-.23-.1-.43-.21-.6s-.24-.31-.4-.41c-.17-.1-.38-.15-.65-.15-.52,0-.91.18-1.19.55-.28.37-.41.82-.41,1.36v4.84h-2.95v-13.61h2.95v5.78h.04c.2-.36.53-.68.97-.96.44-.28.98-.42,1.6-.42s1.12.11,1.54.32c.41.21.75.49,1.01.84.26.34.44.74.56,1.18.11.44.17.89.17,1.33v5.54h-2.97Z"/>
      <path class="cls-1" d="M101.46,30.23v.36c0,.12,0,.23-.02.34h-6.5c.02.25.1.48.23.68.13.21.29.38.49.53.2.15.42.27.67.35s.5.12.77.12c.47,0,.86-.09,1.19-.26.32-.17.59-.4.79-.68l2.05,1.3c-.42.61-.98,1.08-1.67,1.41-.69.33-1.49.5-2.4.5-.67,0-1.31-.11-1.91-.32-.6-.21-1.12-.52-1.58-.92-.45-.4-.8-.9-1.06-1.48s-.39-1.26-.39-2.02.13-1.39.38-1.99c.25-.6.59-1.1,1.03-1.51s.94-.73,1.53-.96c.59-.23,1.22-.34,1.91-.34s1.27.11,1.82.33c.55.22,1.03.54,1.42.96s.7.93.93,1.53.33,1.29.33,2.05ZM98.75,29.1c0-.47-.15-.87-.44-1.21s-.73-.5-1.32-.5c-.29,0-.55.04-.79.13-.24.09-.45.21-.63.37-.18.16-.32.34-.43.55-.11.21-.17.43-.18.66h3.8Z"/>
      <path class="cls-1" d="M109.11,28.07c-.13-.04-.26-.06-.39-.07s-.25-.02-.37-.02c-.4,0-.73.07-1,.21-.27.14-.49.32-.65.52-.16.2-.28.42-.35.66-.07.24-.11.45-.11.63v4.6h-2.95v-8.95h2.84v1.3h.04c.23-.46.55-.83.97-1.12.42-.29.91-.43,1.46-.43.12,0,.24,0,.35.02.11.01.21.03.28.05l-.13,2.61Z"/>
      <path class="cls-1" d="M114.8,26.87c.53-.5,1.14-.88,1.85-1.13s1.42-.38,2.15-.38,1.4.09,1.92.28.94.47,1.27.86c.32.39.56.88.71,1.48s.23,1.3.23,2.12v4.52h-2.7v-.95h-.05c-.23.37-.57.66-1.04.86-.46.21-.96.31-1.5.31-.36,0-.73-.05-1.12-.14-.38-.1-.73-.25-1.05-.47-.32-.21-.58-.5-.78-.86s-.31-.8-.31-1.33c0-.65.18-1.17.53-1.57.35-.39.81-.7,1.37-.92.56-.21,1.18-.36,1.86-.43s1.35-.11,2-.11v-.14c0-.44-.16-.77-.47-.98-.31-.21-.7-.31-1.15-.31-.42,0-.83.09-1.21.27-.39.18-.72.4-1,.65l-1.49-1.6ZM120.22,30.7h-.38c-.32,0-.65.02-.98.04-.33.03-.62.09-.88.17-.26.08-.47.21-.64.37s-.25.38-.25.64c0,.17.04.31.12.43.08.12.18.22.3.29.12.07.26.12.41.15.16.03.31.04.45.04.6,0,1.06-.16,1.38-.49s.48-.78.48-1.34v-.31Z"/>
      <path class="cls-1" d="M128.32,22.78c0,.23-.04.44-.13.64-.09.2-.21.37-.36.51s-.33.26-.54.34-.43.13-.66.13c-.48,0-.88-.16-1.21-.48-.32-.32-.49-.7-.49-1.14,0-.21.04-.42.13-.62.08-.2.2-.37.36-.51.16-.14.34-.26.54-.35s.43-.13.67-.13c.23,0,.45.04.66.12s.39.2.54.34c.15.14.27.31.36.51.09.2.13.41.13.64ZM125.15,34.61v-8.96h2.95v8.96h-2.95Z"/>
      <path class="cls-1" d="M136.26,28.07c-.13-.04-.26-.06-.39-.07s-.25-.02-.37-.02c-.4,0-.73.07-1,.21-.27.14-.49.32-.65.52-.16.2-.28.42-.35.66-.07.24-.11.45-.11.63v4.6h-2.95v-8.95h2.84v1.3h.04c.23-.46.55-.83.97-1.12.42-.29.91-.43,1.46-.43.12,0,.24,0,.35.02.11.01.21.03.28.05l-.13,2.61Z"/>
      <path class="cls-1" d="M147.54,30.09c0,.62-.1,1.22-.29,1.8s-.47,1.08-.84,1.52c-.37.44-.81.79-1.34,1.05-.53.26-1.13.39-1.8.39-.55,0-1.07-.11-1.57-.33-.49-.22-.88-.53-1.15-.91h-.04v5.31h-2.95v-13.28h2.81v1.1h.05c.28-.36.66-.68,1.14-.95.49-.27,1.06-.4,1.72-.4s1.24.12,1.76.38c.53.25.97.59,1.34,1.03.37.43.65.93.85,1.5.2.57.3,1.17.3,1.79ZM144.68,30.09c0-.29-.05-.57-.14-.85s-.22-.52-.4-.73c-.17-.21-.39-.38-.66-.51-.26-.13-.57-.2-.92-.2s-.64.06-.9.2-.49.31-.67.52c-.19.22-.33.46-.43.74-.1.28-.15.56-.15.85s.05.57.15.85c.1.28.25.52.43.74.19.22.41.39.67.52.26.13.56.2.9.2s.65-.07.92-.2c.26-.13.48-.31.66-.52.17-.21.31-.46.4-.75s.14-.57.14-.86Z"/>
      <path class="cls-1" d="M149.43,34.61v-13.61h3.01v13.61h-3.01Z"/>
      <path class="cls-1" d="M154.64,26.87c.53-.5,1.14-.88,1.85-1.13s1.42-.38,2.15-.38,1.4.09,1.92.28.94.47,1.27.86c.32.39.56.88.71,1.48s.23,1.3.23,2.12v4.52h-2.7v-.95h-.05c-.23.37-.57.66-1.04.86-.46.21-.96.31-1.5.31-.36,0-.73-.05-1.12-.14-.38-.1-.73-.25-1.05-.47-.32-.21-.58-.5-.78-.86s-.31-.8-.31-1.33c0-.65.18-1.17.53-1.57.35-.39.81-.7,1.37-.92.56-.21,1.18-.36,1.86-.43s1.35-.11,2-.11v-.14c0-.44-.16-.77-.47-.98-.31-.21-.7-.31-1.15-.31-.42,0-.83.09-1.21.27-.39.18-.72.4-1,.65l-1.49-1.6ZM160.05,30.7h-.38c-.32,0-.65.02-.98.04-.33.03-.62.09-.88.17-.26.08-.47.21-.64.37s-.25.38-.25.64c0,.17.04.31.12.43.08.12.18.22.3.29.12.07.26.12.41.15.16.03.31.04.45.04.6,0,1.06-.16,1.38-.49s.48-.78.48-1.34v-.31Z"/>
      <path class="cls-1" d="M170.84,34.61v-4.9c0-.25-.02-.49-.06-.72-.04-.23-.11-.43-.21-.6-.1-.17-.23-.31-.41-.41s-.39-.15-.66-.15-.5.05-.69.15c-.2.1-.36.24-.5.42-.13.18-.23.39-.3.62-.07.23-.1.48-.1.73v4.86h-2.97v-8.96h2.86v1.24h.04c.11-.19.25-.38.42-.57.17-.19.38-.34.61-.48.23-.13.49-.24.77-.32.28-.08.57-.12.88-.12.6,0,1.11.11,1.53.32.42.21.76.49,1.02.84.26.34.44.74.56,1.18.11.44.17.89.17,1.33v5.54h-2.97Z"/>
      <path class="cls-1" d="M184.93,30.23v.36c0,.12,0,.23-.02.34h-6.5c.02.25.1.48.23.68.13.21.29.38.49.53.2.15.42.27.67.35s.5.12.77.12c.47,0,.86-.09,1.19-.26.32-.17.59-.4.79-.68l2.05,1.3c-.42.61-.98,1.08-1.67,1.41-.69.33-1.49.5-2.4.5-.67,0-1.31-.11-1.91-.32-.6-.21-1.12-.52-1.58-.92-.45-.4-.8-.9-1.06-1.48s-.39-1.26-.39-2.02.13-1.39.38-1.99c.25-.6.59-1.1,1.03-1.51s.94-.73,1.53-.96c.59-.23,1.22-.34,1.91-.34s1.27.11,1.82.33c.55.22,1.03.54,1.42.96s.7.93.93,1.53.33,1.29.33,2.05ZM182.21,29.1c0-.47-.15-.87-.44-1.21s-.73-.5-1.32-.5c-.29,0-.55.04-.79.13-.24.09-.45.21-.63.37-.18.16-.32.34-.43.55-.11.21-.17.43-.18.66h3.8Z"/>
      <path class="cls-1" d="M63.46,48.84v3.43c0,.42.08.74.24.95s.45.31.87.31c.14,0,.3-.01.46-.04.16-.02.3-.06.4-.11l.04,2.16c-.2.07-.46.13-.77.19-.31.05-.62.08-.94.08-.6,0-1.1-.08-1.51-.23-.41-.15-.73-.37-.98-.65s-.42-.62-.53-1.01c-.11-.39-.16-.83-.16-1.31v-3.79h-1.44v-2.2h1.42v-2.36h2.9v2.36h2.11v2.2h-2.11Z"/>
      <path class="cls-1" d="M76.45,51.09c0,.73-.13,1.39-.4,1.99-.26.6-.62,1.1-1.08,1.51-.46.41-.98.73-1.58.96-.6.23-1.24.34-1.93.34s-1.31-.12-1.92-.34c-.61-.23-1.13-.55-1.58-.96-.45-.41-.81-.92-1.07-1.51-.26-.59-.4-1.26-.4-1.99s.13-1.39.4-1.98c.26-.59.62-1.09,1.07-1.49.45-.41.98-.72,1.58-.94.61-.21,1.25-.32,1.92-.32s1.33.11,1.93.32c.6.22,1.13.53,1.58.94.46.41.82.91,1.08,1.49.26.59.4,1.25.4,1.98ZM73.61,51.09c0-.29-.05-.57-.14-.85-.1-.28-.23-.52-.41-.73-.18-.21-.4-.38-.67-.51s-.57-.2-.92-.2-.65.06-.92.2c-.26.13-.48.3-.66.51-.17.21-.31.45-.4.73-.09.28-.14.56-.14.85s.04.57.14.85c.09.28.22.53.4.75.18.22.4.4.67.53.26.13.57.2.92.2s.65-.07.92-.2c.26-.13.49-.31.67-.53.18-.22.31-.47.4-.75.09-.28.14-.56.14-.85Z"/>
      <path class="cls-1" d="M89.61,55.61v-1.17h-.04c-.29.46-.7.81-1.23,1.05-.53.25-1.1.37-1.7.37-.67,0-1.27-.13-1.8-.39-.53-.27-.98-.62-1.34-1.05-.37-.44-.65-.94-.84-1.52-.19-.58-.29-1.18-.29-1.8s.1-1.22.3-1.79c.2-.57.48-1.07.85-1.5.37-.43.81-.78,1.33-1.03.52-.25,1.11-.38,1.76-.38s1.22.12,1.67.38.81.53,1.06.83h.04v-5.6h2.95v13.61h-2.72ZM89.5,51.11c0-.29-.05-.57-.15-.85-.1-.28-.25-.52-.43-.74-.19-.21-.41-.39-.68-.52s-.56-.2-.9-.2-.65.06-.92.2c-.26.13-.49.3-.67.51-.18.21-.31.45-.4.73-.09.28-.14.56-.14.85s.04.57.14.86c.09.28.22.53.4.75.18.22.4.39.67.52.26.13.57.2.92.2s.64-.07.9-.2c.26-.13.49-.31.68-.52.19-.21.33-.46.43-.74.1-.28.15-.56.15-.85Z"/>
      <path class="cls-1" d="M94.54,47.87c.53-.5,1.14-.88,1.85-1.13s1.42-.38,2.15-.38,1.4.09,1.92.28.94.47,1.27.86c.32.39.56.88.71,1.48s.23,1.3.23,2.12v4.52h-2.7v-.95h-.05c-.23.37-.57.66-1.04.86-.46.21-.96.31-1.5.31-.36,0-.73-.05-1.12-.14-.38-.1-.73-.25-1.05-.47-.32-.21-.58-.5-.78-.86s-.31-.8-.31-1.33c0-.65.18-1.17.53-1.57.35-.39.81-.7,1.37-.92.56-.21,1.18-.36,1.86-.43s1.35-.11,2-.11v-.14c0-.44-.16-.77-.47-.98-.31-.21-.7-.31-1.15-.31-.42,0-.83.09-1.21.27-.39.18-.72.4-1,.65l-1.49-1.6ZM99.96,51.7h-.38c-.32,0-.65.02-.98.04-.33.03-.62.09-.88.17-.26.08-.47.21-.64.37s-.25.38-.25.64c0,.17.04.31.12.43.08.12.18.22.3.29.12.07.26.12.41.15.16.03.31.04.45.04.6,0,1.06-.16,1.38-.49s.48-.78.48-1.34v-.31Z"/>
      <path class="cls-1" d="M107.88,48.84v3.43c0,.42.08.74.24.95s.45.31.87.31c.14,0,.3-.01.46-.04.16-.02.3-.06.4-.11l.04,2.16c-.2.07-.46.13-.77.19-.31.05-.62.08-.94.08-.6,0-1.1-.08-1.51-.23-.41-.15-.73-.37-.98-.65s-.42-.62-.53-1.01c-.11-.39-.16-.83-.16-1.31v-3.79h-1.44v-2.2h1.42v-2.36h2.9v2.36h2.11v2.2h-2.11Z"/>
      <path class="cls-1" d="M120.27,51.23v.36c0,.12,0,.23-.02.34h-6.5c.02.25.1.48.23.68.13.21.29.38.49.53.2.15.42.27.67.35s.5.12.77.12c.47,0,.86-.09,1.19-.26.32-.17.59-.4.79-.68l2.05,1.3c-.42.61-.98,1.08-1.67,1.41-.69.33-1.49.5-2.4.5-.67,0-1.31-.11-1.91-.32-.6-.21-1.12-.52-1.58-.92-.45-.4-.8-.9-1.06-1.48s-.39-1.26-.39-2.02.13-1.39.38-1.99c.25-.6.59-1.1,1.03-1.51s.94-.73,1.53-.96c.59-.23,1.22-.34,1.91-.34s1.27.11,1.82.33c.55.22,1.03.54,1.42.96s.7.93.93,1.53.33,1.29.33,2.05ZM117.55,50.1c0-.47-.15-.87-.44-1.21s-.73-.5-1.32-.5c-.29,0-.55.04-.79.13-.24.09-.45.21-.63.37-.18.16-.32.34-.43.55-.11.21-.17.43-.18.66h3.8Z"/>
      <path class="cls-1" d="M125.47,54.02c0,.5-.18.92-.53,1.26s-.78.5-1.27.5c-.25,0-.49-.04-.71-.13s-.42-.21-.58-.37c-.17-.15-.3-.34-.4-.55-.1-.21-.14-.44-.14-.69,0-.24.05-.47.14-.68.1-.21.23-.4.4-.57s.36-.29.58-.39.46-.14.71-.14c.49,0,.92.17,1.27.5s.53.76.53,1.26Z"/>
    </g>
  </g>
</svg>