<?xml version="1.0" encoding="UTF-8"?>
<svg id="Layer_2" data-name="Layer 2" xmlns="http://www.w3.org/2000/svg" viewBox="0 0 788.46 160.7">
  <defs>
    <style>
      .cls-1 {
        stroke-width: 6.31px;
      }

      .cls-1, .cls-2, .cls-3, .cls-4, .cls-5, .cls-6, .cls-7, .cls-8, .cls-9, .cls-10, .cls-11, .cls-12 {
        stroke-miterlimit: 10;
      }

      .cls-1, .cls-8, .cls-11, .cls-12 {
        fill: #0b97d7;
        stroke: #fff;
      }

      .cls-2 {
        stroke-width: .7px;
      }

      .cls-2, .cls-3, .cls-4, .cls-5, .cls-6, .cls-7, .cls-9, .cls-10 {
        stroke: #231f20;
      }

      .cls-2, .cls-3, .cls-5, .cls-6 {
        fill: none;
      }

      .cls-3 {
        stroke-width: .99px;
      }

      .cls-4 {
        stroke-width: .93px;
      }

      .cls-4, .cls-7, .cls-9, .cls-10 {
        fill: #fff;
      }

      .cls-5 {
        stroke-width: .97px;
      }

      .cls-6 {
        stroke-width: .96px;
      }

      .cls-7 {
        stroke-width: .87px;
      }

      .cls-8 {
        stroke-width: 4.25px;
      }

      .cls-9 {
        stroke-width: .85px;
      }

      .cls-10 {
        stroke-width: .65px;
      }

      .cls-11 {
        stroke-width: 5.87px;
      }

      .cls-12 {
        stroke-width: 6px;
      }
    </style>
  </defs>
  <g id="Design">
    <g id="Material_composition" data-name="Material composition">
      <g>
        <path class="cls-9" d="M251.57,83.53s-109.8,2.3-114.6,1.1C121.87,80.07,52.84,5.77,47.32,3.3c-2.44-.26-25.41-2.88-27.32-2.88,17.02,47.69,39.31,95.4,39.31,95.4,0,0-35.95-7.23-39.31-7.19s-9.42-.07-18.22.24c20.64,9.61,28.25,11.91,34.99,15.58-3.22.41-13.64,1.81-16.94,2.55-1.96.44-2.12,4.52-.16,4.95,0,0,92.52,26.21,157.79,31.33,12.7,0,74.07-1.31,74.07-1.31M251.54,141.97l111.21.99s.99-61.6-.76-61.55c-4.78-1.64-110.43,2.12-110.43,2.12"/>
        <ellipse class="cls-6" cx="359.61" cy="112" rx="19.2" ry="31.04"/>
        <ellipse class="cls-1" cx="357.96" cy="112.01" rx="17.54" ry="27.63"/>
      </g>
      <g>
        <path class="cls-9" d="M543.32,79.33c-33.16.14-59.44.3-59.44.3,0,0-93.96,1.44-96.35,1.44-19.17,1.28-28.12,57.25,0,62,2.4,0,16.97-.1,18.94.55,18.46,2.95,25.33,6.86,25.17,8.39s-.96,6.23,1.2,6.23c5.84,2.15,36.55,2.89,48.04.79,1.88-.34,3.5-1.57,4.28-3.31,1.18-2.65,2.09-6.23,2.57-15.69.57-.29,24.6-.92,55.61-1.71"/>
        <ellipse class="cls-4" cx="540.99" cy="108.82" rx="19.2" ry="29.49"/>
        <ellipse class="cls-3" cx="540.58" cy="108.82" rx="17.83" ry="29.49"/>
        <ellipse class="cls-12" cx="539.41" cy="108.93" rx="16.67" ry="26.27"/>
      </g>
      <g>
        <path class="cls-9" d="M660.48,78.16c-27.31-.06-93.97.19-97.07.19-20.79.75-27.5,49.17,0,58.99,2.02,0,68.67-1.71,97.07-2.58"/>
        <ellipse class="cls-7" cx="659.13" cy="106.37" rx="17.57" ry="28.37"/>
        <ellipse class="cls-5" cx="659.54" cy="106.51" rx="17.83" ry="28.25"/>
        <ellipse class="cls-11" cx="658.38" cy="106.62" rx="16.67" ry="25.17"/>
      </g>
      <g>
        <path class="cls-9" d="M745.9,90.72c-8.94-5.17-18.92-9.29-28.37-10.78-1.16-.3-30.63-.49-36.19-.49-20.2,2.63-24.27,49.41,0,56.6,3.78-.13,40.3-1.4,41.95-1.94,8.85-1.26,16.33-2.5,22.61-3.76"/>
        <ellipse class="cls-10" cx="743.47" cy="110.66" rx="13.66" ry="20.44"/>
        <ellipse class="cls-2" cx="743.47" cy="110.66" rx="12.9" ry="20.44"/>
        <ellipse class="cls-8" cx="742.63" cy="110.74" rx="12.06" ry="18.21"/>
      </g>
      <path class="cls-9" d="M760.42,131.64c2.64-.7,20.97-5.36,25.21-8.67,2.56-2,3.17-5.68,1.38-8.39-4.55-6.9-23.08-19.89-27.29-22.02-17.37-.05-16.24,38.54.7,39.08Z"/>
    </g>
  </g>
</svg>