<?xml version="1.0" encoding="UTF-8"?>
<svg id="Layer_2" data-name="Layer 2" xmlns="http://www.w3.org/2000/svg" viewBox="0 0 253.22 92.76">
  <defs>
    <style>
      .cls-1 {
        fill: #fff;
        stroke: #86b6ee;
        stroke-miterlimit: 10;
        stroke-width: 3.22px;
      }

      .cls-2 {
        fill: #231f20;
      }

      .cls-2, .cls-3 {
        stroke-width: 0px;
      }

      .cls-3 {
        fill: #0239a1;
      }
    </style>
  </defs>
  <g id="Timeline">
    <g>
      <rect class="cls-1" x="1.61" y="1.61" width="250" height="89.54" rx="11.56" ry="11.56"/>
      <g>
        <path class="cls-2" d="M13.35,20.52h-1.19v-8.5h1.19v8.5Z"/>
        <path class="cls-2" d="M16.38,14.83c.02.14.03.31.04.49s.01.33.01.45h.04c.07-.15.17-.29.29-.43s.27-.25.43-.35c.16-.1.34-.18.53-.23.19-.06.39-.08.6-.08.37,0,.68.06.95.19s.48.29.66.5c.18.21.31.45.39.73s.13.58.13.9v3.53h-1.13v-3.16c0-.23-.02-.45-.05-.66-.04-.21-.1-.39-.2-.55s-.23-.29-.4-.38-.38-.14-.65-.14c-.45,0-.81.17-1.1.51s-.43.79-.43,1.36v3.02h-1.13v-4.46c0-.15,0-.35-.01-.59s-.02-.45-.04-.64h1.07Z"/>
        <path class="cls-3" d="M29.77,18.67c-.08.37-.22.71-.42,1.01-.2.31-.49.56-.85.76-.36.2-.83.3-1.41.3-.72,0-1.32-.19-1.8-.56s-.8-.85-.96-1.43l1.81-.61c.06.22.16.4.31.54s.33.2.55.2c.34,0,.56-.12.67-.35.11-.23.16-.54.16-.91v-5.6h2.06v5.59c0,.34-.04.69-.11,1.06Z"/>
        <path class="cls-3" d="M35.42,20.52v-.83h-.02c-.07.14-.17.26-.28.38-.12.12-.25.22-.41.31-.16.09-.33.16-.52.22s-.39.08-.59.08c-.4,0-.74-.07-1.01-.22-.28-.14-.5-.33-.67-.56-.17-.23-.3-.49-.37-.78-.08-.29-.11-.59-.11-.89v-3.7h1.98v3.24c0,.17.01.33.04.48s.07.29.14.41.16.21.27.28c.11.07.26.1.44.1.34,0,.61-.13.79-.38.18-.26.27-.56.27-.9v-3.23h1.97v5.98h-1.9Z"/>
        <path class="cls-3" d="M38.88,20.52v-9.07h2v9.07h-2Z"/>
        <path class="cls-3" d="M45.8,21.42c-.12.31-.25.59-.4.83-.15.24-.32.45-.53.62-.2.17-.44.3-.72.39-.28.09-.6.13-.98.13-.18,0-.37-.01-.57-.04-.2-.02-.37-.06-.51-.1l.22-1.66c.1.03.2.06.32.08.12.02.22.03.32.03.3,0,.52-.07.66-.21.14-.14.25-.34.35-.59l.19-.49-2.5-5.88h2.18l1.33,3.84h.04l1.19-3.84h2.09l-2.68,6.88Z"/>
        <path class="cls-3" d="M52.28,20.52v-1.68l3.31-3c.21-.2.38-.4.5-.61.13-.21.19-.44.19-.69,0-.3-.1-.55-.29-.74-.19-.19-.45-.28-.77-.28-.34,0-.61.12-.82.35-.21.24-.34.55-.38.93l-1.93-.26c.05-.43.17-.82.35-1.15.19-.34.43-.62.71-.86.29-.24.62-.42.99-.54.37-.12.77-.19,1.18-.19.39,0,.77.05,1.14.16.37.1.7.26.98.48s.52.49.69.82c.17.33.26.71.26,1.15,0,.3-.04.58-.12.82-.08.24-.19.47-.33.68-.14.21-.3.4-.48.58s-.37.36-.56.53l-1.97,1.75h3.47v1.75h-6.14Z"/>
        <path class="cls-3" d="M66.42,16.25c0,.6-.06,1.17-.18,1.72s-.31,1.02-.58,1.43c-.26.41-.61.74-1.03.98-.42.24-.93.37-1.53.37s-1.11-.12-1.54-.37c-.42-.24-.77-.57-1.04-.98s-.46-.89-.58-1.43-.18-1.12-.18-1.72.06-1.17.18-1.71.31-1.01.58-1.42c.27-.4.61-.73,1.04-.97.42-.24.94-.36,1.54-.36s1.11.12,1.53.36c.42.24.76.56,1.03.97.26.4.46.88.58,1.42s.18,1.11.18,1.71ZM64.35,16.25c0-.26-.02-.56-.05-.88-.03-.32-.09-.62-.18-.89-.09-.28-.21-.51-.38-.7-.16-.19-.38-.28-.64-.28s-.48.09-.65.28c-.17.19-.3.42-.39.7-.09.28-.15.57-.19.89-.03.32-.05.61-.05.88s.02.57.05.89c.03.32.09.62.19.9.09.28.22.51.39.7.17.19.38.28.65.28s.48-.09.64-.28c.16-.19.29-.42.38-.7.09-.28.15-.58.18-.9.03-.32.05-.62.05-.89Z"/>
        <path class="cls-3" d="M74.17,16.25c0,.6-.06,1.17-.18,1.72s-.31,1.02-.58,1.43c-.26.41-.61.74-1.03.98-.42.24-.93.37-1.53.37s-1.11-.12-1.54-.37c-.42-.24-.77-.57-1.04-.98s-.46-.89-.58-1.43-.18-1.12-.18-1.72.06-1.17.18-1.71.31-1.01.58-1.42c.27-.4.61-.73,1.04-.97.42-.24.94-.36,1.54-.36s1.11.12,1.53.36c.42.24.76.56,1.03.97.26.4.46.88.58,1.42s.18,1.11.18,1.71ZM72.1,16.25c0-.26-.02-.56-.05-.88-.03-.32-.09-.62-.18-.89-.09-.28-.21-.51-.38-.7-.16-.19-.38-.28-.64-.28s-.48.09-.65.28c-.17.19-.3.42-.39.7-.09.28-.15.57-.19.89-.03.32-.05.61-.05.88s.02.57.05.89c.03.32.09.62.19.9.09.28.22.51.39.7.17.19.38.28.65.28s.48-.09.64-.28c.16-.19.29-.42.38-.7.09-.28.15-.58.18-.9.03-.32.05-.62.05-.89Z"/>
        <path class="cls-3" d="M81.72,18.05c0,.46-.09.86-.28,1.2-.19.34-.43.62-.74.84-.3.22-.65.38-1.03.49-.38.11-.77.16-1.16.16s-.76-.04-1.12-.13-.7-.22-1-.4c-.3-.18-.56-.41-.79-.7-.22-.28-.39-.63-.5-1.03l1.87-.49c.08.28.24.53.49.74s.56.32.95.32c.14,0,.29-.02.44-.06.15-.04.28-.1.4-.19.12-.08.21-.19.29-.33s.11-.3.11-.5c0-.22-.05-.4-.15-.54-.1-.14-.23-.26-.4-.34-.16-.08-.35-.14-.56-.18-.21-.04-.42-.05-.62-.05h-.54v-1.46h.59c.19,0,.38-.01.55-.04.18-.03.33-.08.47-.16s.25-.18.34-.31c.08-.13.13-.3.13-.51,0-.31-.11-.54-.32-.7-.22-.16-.46-.24-.74-.24s-.54.09-.75.26c-.21.17-.35.4-.41.69l-1.87-.43c.1-.36.26-.67.47-.94.21-.27.45-.49.74-.67.28-.18.59-.32.93-.41s.68-.14,1.03-.14c.38,0,.74.05,1.1.14.36.1.67.25.95.45.28.2.51.45.68.75.17.3.26.66.26,1.06,0,.47-.13.87-.4,1.2-.27.33-.61.54-1.03.66v.04c.24.06.46.15.66.27.2.12.37.27.52.44s.26.36.34.58.12.44.12.68Z"/>
        <path class="cls-2" d="M83.84,22.12h-.96l.83-3h1.13l-1,3Z"/>
        <path class="cls-2" d="M92.74,16.84c0-.42-.13-.74-.38-.94s-.6-.31-1.02-.31c-.32,0-.62.06-.91.19-.28.12-.52.28-.71.47l-.6-.72c.28-.26.62-.47,1.03-.62.4-.15.84-.23,1.3-.23.41,0,.76.06,1.06.17.3.12.55.27.74.47.19.2.34.44.43.71.1.27.14.56.14.88v2.48c0,.19,0,.39.02.61.01.21.03.39.07.52h-1.02c-.06-.27-.1-.54-.1-.82h-.04c-.21.3-.47.54-.79.71s-.69.25-1.12.25c-.22,0-.46-.03-.7-.09-.24-.06-.47-.16-.67-.29-.2-.14-.37-.32-.5-.54-.13-.22-.2-.5-.2-.83,0-.43.12-.77.35-1.03s.54-.44.91-.58.8-.22,1.27-.26.95-.06,1.43-.06v-.16ZM92.47,17.81c-.28,0-.57.01-.87.04-.3.02-.57.07-.82.14-.24.07-.45.18-.61.32s-.24.34-.24.58c0,.17.03.31.1.42.07.11.16.2.27.28.11.07.24.12.37.15.14.03.28.04.42.04.53,0,.93-.16,1.22-.47.28-.32.43-.71.43-1.19v-.3h-.28Z"/>
        <path class="cls-2" d="M99.84,23.4h-1.13v-8.57h1.1v.89h.04c.18-.3.45-.55.81-.75s.77-.29,1.24-.29c.42,0,.81.08,1.15.23.35.15.65.36.9.64.25.27.44.59.58.95.14.36.2.75.2,1.17s-.07.81-.2,1.18-.33.69-.57.96c-.25.27-.55.49-.9.64-.35.16-.75.23-1.19.23-.41,0-.79-.09-1.15-.26-.36-.18-.64-.42-.85-.74h-.04v3.73ZM103.58,17.66c0-.26-.04-.52-.12-.77-.08-.25-.2-.47-.36-.66-.16-.19-.36-.34-.59-.46-.24-.11-.51-.17-.82-.17-.29,0-.55.06-.79.17-.24.11-.44.26-.61.46-.17.19-.3.41-.39.66-.09.25-.14.51-.14.78s.05.53.14.78c.09.25.22.47.39.65.17.19.37.34.61.45.24.11.5.17.79.17.31,0,.59-.06.82-.17s.43-.27.59-.46c.16-.19.28-.41.36-.66.08-.25.12-.5.12-.77Z"/>
        <path class="cls-2" d="M110.32,20.52c-.02-.14-.03-.31-.04-.49,0-.18-.01-.33-.01-.45h-.02c-.14.3-.39.56-.73.77-.34.21-.72.32-1.13.32-.37,0-.69-.06-.95-.18-.27-.12-.49-.29-.66-.5-.17-.21-.3-.46-.38-.74s-.13-.58-.13-.9v-3.53h1.13v3.14c0,.23.02.45.05.67s.1.4.2.56c.1.16.23.29.4.38.17.1.38.14.65.14.46,0,.82-.17,1.1-.51.28-.34.42-.79.42-1.36v-3.02h1.13v4.46c0,.15,0,.35.01.59,0,.24.02.45.04.64h-1.07Z"/>
        <path class="cls-2" d="M114.42,19.62v.9h-1.09v-9.07h1.13v4.24h.04c.19-.28.46-.52.8-.71s.75-.29,1.22-.29c.42,0,.81.08,1.15.23.35.15.65.36.9.64.25.27.44.59.58.95.14.36.2.75.2,1.17s-.07.81-.2,1.18-.33.69-.57.96c-.25.27-.55.49-.9.64s-.75.23-1.19.23c-.41,0-.79-.09-1.16-.27-.37-.18-.66-.44-.89-.79h-.02ZM118.2,17.67c0-.26-.04-.52-.12-.77-.08-.25-.2-.47-.36-.66-.16-.19-.36-.34-.59-.46-.24-.11-.51-.17-.82-.17-.29,0-.55.06-.79.17-.24.11-.44.26-.61.46s-.3.41-.39.66c-.09.25-.14.51-.14.78s.05.53.14.78c.09.25.22.46.39.65s.37.34.61.45c.24.11.5.17.79.17.31,0,.59-.06.82-.17.24-.12.43-.27.59-.46.16-.19.28-.41.36-.66.08-.25.12-.5.12-.77Z"/>
        <path class="cls-2" d="M122.08,20.52h-1.13v-9.07h1.13v9.07Z"/>
        <path class="cls-2" d="M125.37,12.78c0,.21-.07.38-.22.52-.15.14-.32.2-.53.2s-.38-.07-.52-.21c-.14-.14-.21-.31-.21-.51s.07-.38.21-.52c.14-.14.32-.21.52-.21s.38.07.53.21c.15.14.22.31.22.52ZM125.19,20.52h-1.13v-5.69h1.13v5.69Z"/>
        <path class="cls-2" d="M131.14,16.27c-.12-.18-.3-.34-.54-.46-.24-.12-.5-.19-.77-.19-.3,0-.56.06-.79.17-.23.11-.42.26-.58.45-.16.19-.28.41-.37.65s-.13.51-.13.78.04.53.13.78c.08.25.21.47.37.65.16.19.36.34.59.45.23.11.5.17.79.17s.55-.06.79-.17.43-.26.58-.46l.76.68c-.24.28-.54.5-.9.65-.36.16-.77.23-1.22.23s-.85-.07-1.22-.22c-.37-.14-.69-.35-.97-.61s-.49-.57-.64-.94c-.16-.37-.23-.78-.23-1.24s.08-.86.23-1.22c.15-.37.36-.68.64-.95.27-.26.59-.47.97-.61.37-.14.77-.22,1.21-.22.4,0,.8.08,1.19.24.4.16.71.39.94.7l-.82.66Z"/>
        <path class="cls-2" d="M137.11,14.83c.02.14.03.31.04.49s.01.33.01.45h.04c.07-.15.17-.29.29-.43s.27-.25.43-.35c.16-.1.34-.18.53-.23.19-.06.39-.08.6-.08.37,0,.68.06.95.19s.48.29.66.5c.18.21.31.45.39.73s.13.58.13.9v3.53h-1.13v-3.16c0-.23-.02-.45-.05-.66-.04-.21-.1-.39-.2-.55s-.23-.29-.4-.38-.38-.14-.65-.14c-.45,0-.81.17-1.1.51s-.43.79-.43,1.36v3.02h-1.13v-4.46c0-.15,0-.35-.01-.59s-.02-.45-.04-.64h1.07Z"/>
        <path class="cls-2" d="M146.61,16.84c0-.42-.13-.74-.38-.94s-.6-.31-1.02-.31c-.32,0-.62.06-.91.19-.28.12-.52.28-.71.47l-.6-.72c.28-.26.62-.47,1.03-.62.4-.15.84-.23,1.3-.23.41,0,.76.06,1.06.17.3.12.55.27.74.47.19.2.34.44.43.71.1.27.14.56.14.88v2.48c0,.19,0,.39.02.61.01.21.03.39.07.52h-1.02c-.06-.27-.1-.54-.1-.82h-.04c-.21.3-.47.54-.79.71s-.69.25-1.12.25c-.22,0-.46-.03-.7-.09-.24-.06-.47-.16-.67-.29-.2-.14-.37-.32-.5-.54-.13-.22-.2-.5-.2-.83,0-.43.12-.77.35-1.03s.54-.44.91-.58.8-.22,1.27-.26.95-.06,1.43-.06v-.16ZM146.34,17.81c-.28,0-.57.01-.87.04-.3.02-.57.07-.82.14-.24.07-.45.18-.61.32s-.24.34-.24.58c0,.17.03.31.1.42.07.11.16.2.27.28.11.07.24.12.37.15.14.03.28.04.42.04.53,0,.93-.16,1.22-.47.28-.32.43-.71.43-1.19v-.3h-.28Z"/>
        <path class="cls-2" d="M151.37,14.99c.32-.21.69-.32,1.12-.32.38,0,.73.09,1.04.26.31.18.55.47.73.88.19-.37.46-.65.8-.85.34-.2.72-.29,1.13-.29.37,0,.68.06.95.19.26.12.48.29.66.5s.31.45.39.73.13.58.13.9v3.53h-1.13v-3.16c0-.23-.02-.45-.06-.66-.04-.21-.11-.39-.2-.55-.1-.16-.22-.29-.38-.38-.16-.1-.36-.14-.61-.14s-.48.05-.66.16c-.18.11-.33.25-.45.42-.12.17-.2.37-.25.58-.05.22-.08.44-.08.66v3.07h-1.13v-3.38c0-.22-.02-.43-.06-.61-.04-.18-.11-.34-.2-.47-.1-.13-.22-.24-.37-.31-.15-.08-.34-.11-.56-.11-.42,0-.76.17-1.04.51-.28.34-.41.79-.41,1.36v3.02h-1.13v-4.46c0-.15,0-.35-.01-.59s-.02-.45-.04-.64h1.07c.02.14.03.31.04.49s.01.33.01.45h.04c.14-.3.37-.56.69-.77Z"/>
        <path class="cls-2" d="M161.54,12.78c0,.21-.07.38-.22.52-.15.14-.32.2-.53.2s-.38-.07-.52-.21c-.14-.14-.21-.31-.21-.51s.07-.38.21-.52c.14-.14.32-.21.52-.21s.38.07.53.21c.15.14.22.31.22.52ZM161.36,20.52h-1.13v-5.69h1.13v5.69Z"/>
        <path class="cls-2" d="M164.35,14.83c.02.14.03.31.04.49s.01.33.01.45h.04c.07-.15.17-.29.29-.43s.27-.25.43-.35c.16-.1.34-.18.53-.23.19-.06.39-.08.6-.08.37,0,.68.06.95.19s.48.29.66.5c.18.21.31.45.39.73s.13.58.13.9v3.53h-1.13v-3.16c0-.23-.02-.45-.05-.66-.04-.21-.1-.39-.2-.55s-.23-.29-.4-.38-.38-.14-.65-.14c-.45,0-.81.17-1.1.51s-.43.79-.43,1.36v3.02h-1.13v-4.46c0-.15,0-.35-.01-.59s-.02-.45-.04-.64h1.07Z"/>
        <path class="cls-2" d="M170.76,21.49c.25.28.56.5.93.67.37.17.75.25,1.15.25s.69-.05.95-.16c.26-.11.46-.26.62-.44.16-.19.27-.41.34-.67s.1-.53.1-.83v-.73h-.02c-.21.32-.49.56-.85.73-.36.17-.74.25-1.15.25-.43,0-.83-.08-1.18-.23-.36-.15-.66-.36-.91-.62-.25-.26-.44-.57-.58-.93-.14-.36-.2-.74-.2-1.15s.07-.79.2-1.15c.14-.36.33-.67.58-.94.25-.27.55-.48.9-.64.35-.16.74-.23,1.18-.23.41,0,.8.09,1.17.26s.67.44.88.8h.02v-.91h1.09v5.4c0,.42-.05.81-.16,1.19s-.28.72-.53,1.01-.57.53-.97.7c-.4.18-.9.26-1.49.26-.5,0-.99-.09-1.49-.27-.5-.18-.93-.43-1.29-.76l.72-.88ZM171.09,17.62c0,.26.04.52.13.76.08.24.21.45.37.64.16.18.36.33.6.44.23.11.5.17.79.17s.55-.05.79-.16c.24-.1.45-.25.61-.43.17-.18.3-.39.39-.64s.14-.51.14-.79-.05-.53-.14-.77-.22-.45-.4-.64c-.17-.18-.38-.33-.61-.44-.24-.11-.5-.16-.79-.16s-.56.05-.79.16c-.23.11-.43.25-.6.43-.16.18-.29.39-.37.64-.08.24-.13.5-.13.77Z"/>
        <path class="cls-2" d="M184.88,16.27c-.12-.18-.3-.34-.54-.46-.24-.12-.5-.19-.77-.19-.3,0-.56.06-.79.17-.23.11-.42.26-.58.45-.16.19-.28.41-.37.65s-.13.51-.13.78.04.53.13.78c.08.25.21.47.37.65.16.19.36.34.59.45.23.11.5.17.79.17s.55-.06.79-.17.43-.26.58-.46l.76.68c-.24.28-.54.5-.9.65-.36.16-.77.23-1.22.23s-.85-.07-1.22-.22c-.37-.14-.69-.35-.97-.61s-.49-.57-.64-.94c-.16-.37-.23-.78-.23-1.24s.08-.86.23-1.22c.15-.37.36-.68.64-.95.27-.26.59-.47.97-.61.37-.14.77-.22,1.21-.22.4,0,.8.08,1.19.24.4.16.71.39.94.7l-.82.66Z"/>
        <path class="cls-2" d="M192.58,17.66c0,.44-.08.84-.23,1.21-.16.37-.37.69-.65.95-.28.27-.6.48-.98.62-.38.15-.78.22-1.21.22s-.84-.07-1.21-.22c-.38-.15-.7-.36-.97-.62-.27-.27-.49-.59-.64-.95-.16-.37-.23-.77-.23-1.21s.08-.84.23-1.21c.16-.36.37-.68.64-.94s.6-.47.97-.62c.38-.15.78-.22,1.21-.22s.84.07,1.21.22c.38.15.7.35.98.62s.49.58.65.94c.16.36.23.77.23,1.21ZM191.41,17.67c0-.27-.04-.53-.13-.78-.08-.25-.21-.46-.37-.65s-.36-.34-.6-.45c-.24-.11-.51-.17-.81-.17s-.58.06-.81.17c-.24.11-.44.26-.6.45-.16.19-.28.4-.37.65-.08.25-.13.51-.13.78s.04.53.13.78c.08.25.21.47.37.66.16.19.36.34.6.46.24.11.51.17.81.17s.58-.06.81-.17c.24-.11.44-.26.6-.46s.28-.41.37-.66c.08-.25.13-.51.13-.78Z"/>
        <path class="cls-2" d="M195.94,14.99c.32-.21.69-.32,1.12-.32.38,0,.73.09,1.04.26.31.18.55.47.73.88.19-.37.46-.65.8-.85.34-.2.72-.29,1.13-.29.37,0,.68.06.95.19.26.12.48.29.66.5s.31.45.39.73.13.58.13.9v3.53h-1.13v-3.16c0-.23-.02-.45-.06-.66-.04-.21-.11-.39-.2-.55-.1-.16-.22-.29-.38-.38-.16-.1-.36-.14-.61-.14s-.48.05-.66.16c-.18.11-.33.25-.45.42-.12.17-.2.37-.25.58-.05.22-.08.44-.08.66v3.07h-1.13v-3.38c0-.22-.02-.43-.06-.61-.04-.18-.11-.34-.2-.47-.1-.13-.22-.24-.37-.31-.15-.08-.34-.11-.56-.11-.42,0-.76.17-1.04.51-.28.34-.41.79-.41,1.36v3.02h-1.13v-4.46c0-.15,0-.35-.01-.59s-.02-.45-.04-.64h1.07c.02.14.03.31.04.49s.01.33.01.45h.04c.14-.3.37-.56.69-.77Z"/>
        <path class="cls-2" d="M205.92,23.4h-1.13v-8.57h1.1v.89h.04c.18-.3.45-.55.81-.75s.77-.29,1.24-.29c.42,0,.81.08,1.15.23.35.15.65.36.9.64.25.27.44.59.58.95.14.36.2.75.2,1.17s-.07.81-.2,1.18-.33.69-.57.96c-.25.27-.55.49-.9.64-.35.16-.75.23-1.19.23-.41,0-.79-.09-1.15-.26-.36-.18-.64-.42-.85-.74h-.04v3.73ZM209.66,17.66c0-.26-.04-.52-.12-.77-.08-.25-.2-.47-.36-.66-.16-.19-.36-.34-.59-.46-.24-.11-.51-.17-.82-.17-.29,0-.55.06-.79.17-.24.11-.44.26-.61.46-.17.19-.3.41-.39.66-.09.25-.14.51-.14.78s.05.53.14.78c.09.25.22.47.39.65.17.19.37.34.61.45.24.11.5.17.79.17.31,0,.59-.06.82-.17s.43-.27.59-.46c.16-.19.28-.41.36-.66.08-.25.12-.5.12-.77Z"/>
        <path class="cls-2" d="M217.71,17.63v.19c0,.06,0,.13-.01.19h-4.52c0,.24.06.46.16.67.1.21.23.39.4.55.17.15.36.28.58.36.22.09.45.13.7.13.38,0,.72-.08,1-.25.28-.17.5-.37.66-.61l.79.64c-.3.4-.66.7-1.07.89-.41.19-.87.29-1.37.29-.43,0-.83-.07-1.2-.22-.37-.14-.68-.35-.95-.61-.26-.26-.47-.57-.62-.94-.15-.37-.23-.78-.23-1.22s.07-.85.22-1.22.35-.69.62-.95c.26-.26.58-.47.94-.62.36-.15.75-.22,1.17-.22s.8.07,1.14.2c.34.14.63.33.87.59.24.26.42.57.55.93.13.36.19.77.19,1.23ZM216.56,17.17c0-.22-.05-.43-.11-.63-.07-.2-.17-.37-.3-.51-.13-.14-.3-.26-.49-.34-.2-.08-.43-.13-.69-.13-.24,0-.47.04-.68.13s-.4.2-.55.34c-.16.14-.28.31-.38.51-.1.2-.16.41-.17.63h3.38Z"/>
        <path class="cls-2" d="M222.05,15.76h-1.51v2.96c0,.34.06.59.19.74s.33.22.61.22c.1,0,.22-.01.34-.03.12-.02.23-.05.32-.1l.04.92c-.14.05-.29.08-.45.11s-.33.04-.51.04c-.54,0-.95-.15-1.23-.44-.28-.3-.43-.74-.43-1.33v-3.08h-1.09v-.92h1.09v-1.63h1.12v1.63h1.51v.92Z"/>
        <path class="cls-2" d="M224.54,12.78c0,.21-.07.38-.22.52-.15.14-.32.2-.53.2s-.38-.07-.52-.21c-.14-.14-.21-.31-.21-.51s.07-.38.21-.52c.14-.14.32-.21.52-.21s.38.07.53.21c.15.14.22.31.22.52ZM224.36,20.52h-1.13v-5.69h1.13v5.69Z"/>
        <path class="cls-2" d="M228.67,18.07h-2.78v-.95h2.78v.95Z"/>
        <path class="cls-2" d="M14.89,30.16h-1.51v2.96c0,.34.06.59.19.74s.33.22.61.22c.1,0,.22-.01.34-.03.12-.02.23-.05.32-.1l.04.92c-.14.05-.29.08-.45.11s-.33.04-.51.04c-.54,0-.95-.15-1.23-.44-.28-.3-.43-.74-.43-1.33v-3.08h-1.09v-.92h1.09v-1.63h1.12v1.63h1.51v.92Z"/>
        <path class="cls-2" d="M17.37,27.18c0,.21-.07.38-.22.52-.15.14-.32.2-.53.2s-.38-.07-.52-.21c-.14-.14-.21-.31-.21-.51s.07-.38.21-.52c.14-.14.32-.21.52-.21s.38.07.53.21c.15.14.22.31.22.52ZM17.19,34.92h-1.13v-5.69h1.13v5.69Z"/>
        <path class="cls-2" d="M24.92,32.06c0,.44-.08.84-.23,1.21-.16.37-.37.69-.65.95-.28.27-.6.48-.98.62-.38.15-.78.22-1.21.22s-.84-.07-1.21-.22c-.38-.15-.7-.36-.97-.62-.27-.27-.49-.59-.64-.95-.16-.37-.23-.77-.23-1.21s.08-.84.23-1.21c.16-.36.37-.68.64-.94s.6-.47.97-.62c.38-.15.78-.22,1.21-.22s.84.07,1.21.22c.38.15.7.35.98.62s.49.58.65.94c.16.36.23.77.23,1.21ZM23.74,32.07c0-.27-.04-.53-.13-.78-.08-.25-.21-.46-.37-.65s-.36-.34-.6-.45c-.24-.11-.51-.17-.81-.17s-.58.06-.81.17c-.24.11-.44.26-.6.45-.16.19-.28.4-.37.65-.08.25-.13.51-.13.78s.04.53.13.78c.08.25.21.47.37.66.16.19.36.34.6.46.24.11.51.17.81.17s.58-.06.81-.17c.24-.11.44-.26.6-.46s.28-.41.37-.66c.08-.25.13-.51.13-.78Z"/>
        <path class="cls-2" d="M27.5,29.23c.02.14.03.31.04.49s.01.33.01.45h.04c.07-.15.17-.29.29-.43s.27-.25.43-.35c.16-.1.34-.18.53-.23.19-.06.39-.08.6-.08.37,0,.68.06.95.19s.48.29.66.5c.18.21.31.45.39.73s.13.58.13.9v3.53h-1.13v-3.16c0-.23-.02-.45-.05-.66-.04-.21-.1-.39-.2-.55s-.23-.29-.4-.38-.38-.14-.65-.14c-.45,0-.81.17-1.1.51s-.43.79-.43,1.36v3.02h-1.13v-4.46c0-.15,0-.35-.01-.59s-.02-.45-.04-.64h1.07Z"/>
        <path class="cls-2" d="M36.88,29.23l1.28,4.34h.02l1.36-4.34h1.19l1.38,4.34h.02l1.28-4.34h1.19l-1.88,5.69h-1.18l-1.4-4.27h-.02l-1.39,4.27h-1.18l-1.9-5.69h1.22Z"/>
        <path class="cls-2" d="M49.28,31.24c0-.42-.13-.74-.38-.94s-.6-.31-1.02-.31c-.32,0-.62.06-.91.19-.28.12-.52.28-.71.47l-.6-.72c.28-.26.62-.47,1.03-.62.4-.15.84-.23,1.3-.23.41,0,.76.06,1.06.17.3.12.55.27.74.47.19.2.34.44.43.71.1.27.14.56.14.88v2.48c0,.19,0,.39.02.61.01.21.03.39.07.52h-1.02c-.06-.27-.1-.54-.1-.82h-.04c-.21.3-.47.54-.79.71s-.69.25-1.12.25c-.22,0-.46-.03-.7-.09-.24-.06-.47-.16-.67-.29-.2-.14-.37-.32-.5-.54-.13-.22-.2-.5-.2-.83,0-.43.12-.77.35-1.03s.54-.44.91-.58.8-.22,1.27-.26.95-.06,1.43-.06v-.16ZM49,32.21c-.28,0-.57.01-.87.04-.3.02-.57.07-.82.14-.24.07-.45.18-.61.32s-.24.34-.24.58c0,.17.03.31.1.42.07.11.16.2.27.28.11.07.24.12.37.15.14.03.28.04.42.04.53,0,.93-.16,1.22-.47.28-.32.43-.71.43-1.19v-.3h-.28Z"/>
        <path class="cls-2" d="M55.32,30.67c-.13-.21-.31-.38-.54-.51s-.49-.2-.78-.2c-.13,0-.26.01-.38.04s-.24.07-.34.13c-.1.06-.18.14-.24.23-.06.09-.09.21-.09.34,0,.24.11.42.32.53.22.12.54.22.97.32.27.06.52.14.76.23.23.09.43.2.61.33.17.13.31.29.4.47.1.18.14.4.14.65,0,.34-.06.62-.19.85-.13.23-.3.42-.51.57-.21.15-.45.25-.73.32-.27.06-.55.1-.84.1-.43,0-.85-.08-1.27-.25s-.75-.42-1.03-.77l.8-.68c.15.22.36.41.63.56.27.15.56.23.88.23.14,0,.28-.01.41-.04s.25-.07.36-.14c.11-.06.19-.15.26-.25.06-.1.1-.24.1-.4,0-.26-.13-.46-.38-.59s-.62-.25-1.11-.36c-.19-.05-.39-.11-.58-.17-.2-.07-.37-.16-.53-.28s-.29-.27-.39-.45c-.1-.18-.15-.4-.15-.67,0-.3.06-.57.19-.79.12-.22.29-.4.49-.54.2-.14.43-.24.68-.31.26-.07.52-.1.79-.1.41,0,.8.08,1.18.24.38.16.67.39.88.7l-.78.66Z"/>
        <path class="cls-2" d="M61.75,30.1c.14-.28.37-.52.7-.72.33-.2.7-.3,1.1-.3.37,0,.68.06.95.19s.48.29.66.5c.18.21.31.45.39.73s.13.58.13.9v3.53h-1.13v-3.15c0-.23-.02-.45-.05-.66-.04-.21-.1-.39-.2-.55-.1-.16-.23-.29-.39-.39-.16-.1-.38-.14-.64-.14-.45,0-.82.17-1.1.51s-.43.8-.43,1.37v3.02h-1.13v-9.07h1.13v4.25h.02Z"/>
        <path class="cls-2" d="M72.9,32.03v.19c0,.06,0,.13-.01.19h-4.52c0,.24.06.46.16.67.1.21.23.39.4.55.17.15.36.28.58.36.22.09.45.13.7.13.38,0,.72-.08,1-.25.28-.17.5-.37.66-.61l.79.64c-.3.4-.66.7-1.07.89-.41.19-.87.29-1.37.29-.43,0-.83-.07-1.2-.22-.37-.14-.68-.35-.95-.61-.26-.26-.47-.57-.62-.94-.15-.37-.23-.78-.23-1.22s.07-.85.22-1.22.35-.69.62-.95c.26-.26.58-.47.94-.62.36-.15.75-.22,1.17-.22s.8.07,1.14.2c.34.14.63.33.87.59.24.26.42.57.55.93.13.36.19.77.19,1.23ZM71.74,31.57c0-.22-.05-.43-.11-.63-.07-.2-.17-.37-.3-.51-.13-.14-.3-.26-.49-.34-.2-.08-.43-.13-.69-.13-.24,0-.47.04-.68.13s-.4.2-.55.34c-.16.14-.28.31-.38.51-.1.2-.16.41-.17.63h3.38Z"/>
        <path class="cls-2" d="M75.61,34.92h-1.13v-9.07h1.13v9.07Z"/>
        <path class="cls-2" d="M82.11,34.02c-.22.34-.51.61-.88.79-.37.18-.76.27-1.17.27-.44,0-.84-.08-1.19-.23s-.65-.37-.9-.64c-.25-.27-.44-.59-.58-.96-.14-.37-.2-.76-.2-1.18s.07-.81.2-1.17c.14-.36.33-.68.58-.95.25-.27.55-.48.91-.64.35-.15.74-.23,1.16-.23.46,0,.87.1,1.21.29.34.2.62.43.82.71h.02v-4.24h1.13v9.07h-1.09v-.9h-.02ZM78.37,32.07c0,.26.04.52.12.77s.2.47.36.66c.16.19.36.34.59.46.23.12.5.17.82.17.29,0,.55-.06.79-.17.24-.11.44-.26.61-.45s.3-.4.39-.65c.09-.25.14-.51.14-.78s-.05-.53-.14-.78c-.09-.25-.22-.47-.39-.66s-.37-.34-.61-.46c-.24-.11-.5-.17-.79-.17-.31,0-.58.06-.82.17-.23.11-.43.26-.59.46-.16.19-.28.41-.36.66-.08.25-.12.5-.12.77Z"/>
        <path class="cls-2" d="M90.87,30.16h-1.32v4.76h-1.13v-4.76h-1.13v-.92h1.13v-1.19c0-.34.04-.65.11-.93s.2-.53.37-.74c.17-.21.39-.37.66-.49.27-.12.59-.18.98-.18.27,0,.51.03.71.08l-.13.97c-.09-.02-.18-.04-.26-.06-.09-.02-.19-.02-.3-.02-.22,0-.39.04-.52.11s-.23.18-.31.31c-.07.13-.12.27-.14.44-.02.16-.04.33-.04.51v1.19h1.32v.92Z"/>
        <path class="cls-2" d="M97.68,32.06c0,.44-.08.84-.23,1.21-.16.37-.37.69-.65.95-.28.27-.6.48-.98.62-.38.15-.78.22-1.21.22s-.84-.07-1.21-.22c-.38-.15-.7-.36-.97-.62-.27-.27-.49-.59-.64-.95-.16-.37-.23-.77-.23-1.21s.08-.84.23-1.21c.16-.36.37-.68.64-.94s.6-.47.97-.62c.38-.15.78-.22,1.21-.22s.84.07,1.21.22c.38.15.7.35.98.62s.49.58.65.94c.16.36.23.77.23,1.21ZM96.5,32.07c0-.27-.04-.53-.13-.78-.08-.25-.21-.46-.37-.65s-.36-.34-.6-.45c-.24-.11-.51-.17-.81-.17s-.58.06-.81.17c-.24.11-.44.26-.6.45-.16.19-.28.4-.37.65-.08.25-.13.51-.13.78s.04.53.13.78c.08.25.21.47.37.66.16.19.36.34.6.46.24.11.51.17.81.17s.58-.06.81-.17c.24-.11.44-.26.6-.46s.28-.41.37-.66c.08-.25.13-.51.13-.78Z"/>
        <path class="cls-2" d="M99.22,29.87c0-.24-.02-.45-.04-.64h1.07c.02.14.03.31.04.5,0,.19.01.34.01.46h.04c.16-.34.39-.61.7-.81s.65-.31,1.04-.31c.18,0,.32.02.44.05l-.05,1.04c-.16-.04-.33-.06-.52-.06-.27,0-.51.05-.71.15-.2.1-.37.23-.5.4-.13.17-.23.36-.29.58s-.1.45-.1.69v2.99h-1.13v-4.46c0-.15,0-.35-.01-.59Z"/>
        <path class="cls-2" d="M109.36,30.16h-1.51v2.96c0,.34.06.59.19.74s.33.22.61.22c.1,0,.22-.01.34-.03.12-.02.23-.05.32-.1l.04.92c-.14.05-.29.08-.45.11s-.33.04-.51.04c-.54,0-.95-.15-1.23-.44-.28-.3-.43-.74-.43-1.33v-3.08h-1.09v-.92h1.09v-1.63h1.12v1.63h1.51v.92Z"/>
        <path class="cls-2" d="M111.7,30.1c.14-.28.37-.52.7-.72.33-.2.7-.3,1.1-.3.37,0,.68.06.95.19s.48.29.66.5c.18.21.31.45.39.73s.13.58.13.9v3.53h-1.13v-3.15c0-.23-.02-.45-.05-.66-.04-.21-.1-.39-.2-.55-.1-.16-.23-.29-.39-.39-.16-.1-.38-.14-.64-.14-.45,0-.82.17-1.1.51s-.43.8-.43,1.37v3.02h-1.13v-9.07h1.13v4.25h.02Z"/>
        <path class="cls-2" d="M122.85,32.03v.19c0,.06,0,.13-.01.19h-4.52c0,.24.06.46.16.67.1.21.23.39.4.55.17.15.36.28.58.36.22.09.45.13.7.13.38,0,.72-.08,1-.25.28-.17.5-.37.66-.61l.79.64c-.3.4-.66.7-1.07.89-.41.19-.87.29-1.37.29-.43,0-.83-.07-1.2-.22-.37-.14-.68-.35-.95-.61-.26-.26-.47-.57-.62-.94-.15-.37-.23-.78-.23-1.22s.07-.85.22-1.22.35-.69.62-.95c.26-.26.58-.47.94-.62.36-.15.75-.22,1.17-.22s.8.07,1.14.2c.34.14.63.33.87.59.24.26.42.57.55.93.13.36.19.77.19,1.23ZM121.7,31.57c0-.22-.05-.43-.11-.63-.07-.2-.17-.37-.3-.51-.13-.14-.3-.26-.49-.34-.2-.08-.43-.13-.69-.13-.24,0-.47.04-.68.13s-.4.2-.55.34c-.16.14-.28.31-.38.51-.1.2-.16.41-.17.63h3.38Z"/>
        <path class="cls-2" d="M132.62,27.48l-3.41,7.44h-1.33l3.54-7.46h-4.21v-1.03h5.41v1.06Z"/>
        <path class="cls-2" d="M138.39,30.44c.22.06.43.15.63.28.2.13.37.29.51.47.14.18.26.4.34.64s.13.5.13.77c0,.4-.08.76-.23,1.07-.15.31-.36.58-.62.79-.26.22-.56.38-.91.5-.34.12-.71.17-1.09.17s-.75-.06-1.1-.17-.65-.28-.91-.5-.47-.48-.62-.79c-.15-.31-.23-.67-.23-1.07,0-.28.04-.54.13-.78.08-.24.2-.45.35-.64.15-.18.32-.34.52-.46.2-.12.4-.22.62-.28v-.02c-.38-.14-.7-.37-.94-.7-.24-.33-.37-.73-.37-1.2,0-.35.07-.67.2-.95.14-.28.32-.53.55-.73s.5-.36.81-.47c.31-.11.64-.16.99-.16s.67.05.98.16c.31.11.58.26.81.46s.41.44.55.72c.14.28.2.6.2.95,0,.46-.12.87-.37,1.21s-.56.58-.94.71v.02ZM135.49,32.54c0,.24.04.46.12.66s.19.37.34.51c.15.14.32.25.53.33s.43.12.68.12.46-.04.67-.12c.2-.08.38-.19.52-.33s.26-.31.34-.51.13-.42.13-.66-.04-.45-.13-.64c-.08-.2-.2-.37-.34-.51-.14-.14-.32-.26-.52-.34-.2-.08-.43-.12-.67-.12s-.46.04-.67.12c-.2.08-.38.19-.53.34-.15.14-.26.31-.35.51-.08.2-.13.41-.13.64ZM135.75,28.55c0,.19.03.37.1.54.07.17.16.32.29.44.12.12.27.22.45.3.17.07.36.11.56.11s.37-.04.54-.11c.17-.07.32-.17.45-.3.13-.12.23-.27.3-.44.07-.17.11-.35.11-.54s-.04-.39-.11-.56-.18-.32-.3-.45c-.12-.12-.27-.22-.44-.29-.17-.07-.35-.1-.54-.1s-.39.03-.56.1c-.17.07-.32.16-.45.29-.12.12-.22.27-.29.45s-.1.36-.1.56Z"/>
        <path class="cls-2" d="M146.9,27.48l-3.41,7.44h-1.33l3.54-7.46h-4.21v-1.03h5.41v1.06Z"/>
        <path class="cls-2" d="M149.23,36.52h-.96l.83-3h1.13l-1,3Z"/>
        <path class="cls-2" d="M160.35,32.06c0,.44-.08.84-.23,1.21-.16.37-.37.69-.65.95-.28.27-.6.48-.98.62-.38.15-.78.22-1.21.22s-.84-.07-1.21-.22c-.38-.15-.7-.36-.97-.62-.27-.27-.49-.59-.64-.95-.16-.37-.23-.77-.23-1.21s.08-.84.23-1.21c.16-.36.37-.68.64-.94s.6-.47.97-.62c.38-.15.78-.22,1.21-.22s.84.07,1.21.22c.38.15.7.35.98.62s.49.58.65.94c.16.36.23.77.23,1.21ZM159.17,32.07c0-.27-.04-.53-.13-.78-.08-.25-.21-.46-.37-.65s-.36-.34-.6-.45c-.24-.11-.51-.17-.81-.17s-.58.06-.81.17c-.24.11-.44.26-.6.45-.16.19-.28.4-.37.65-.08.25-.13.51-.13.78s.04.53.13.78c.08.25.21.47.37.66.16.19.36.34.6.46.24.11.51.17.81.17s.58-.06.81-.17c.24-.11.44-.26.6-.46s.28-.41.37-.66c.08-.25.13-.51.13-.78Z"/>
        <path class="cls-2" d="M164.59,34.92h-1.22l-2.32-5.69h1.25l1.67,4.48h.02l1.68-4.48h1.2l-2.28,5.69Z"/>
        <path class="cls-2" d="M173.27,32.03v.19c0,.06,0,.13-.01.19h-4.52c0,.24.06.46.16.67.1.21.23.39.4.55.17.15.36.28.58.36.22.09.45.13.7.13.38,0,.72-.08,1-.25.28-.17.5-.37.66-.61l.79.64c-.3.4-.66.7-1.07.89-.41.19-.87.29-1.37.29-.43,0-.83-.07-1.2-.22-.37-.14-.68-.35-.95-.61-.26-.26-.47-.57-.62-.94-.15-.37-.23-.78-.23-1.22s.07-.85.22-1.22.35-.69.62-.95c.26-.26.58-.47.94-.62.36-.15.75-.22,1.17-.22s.8.07,1.14.2c.34.14.63.33.87.59.24.26.42.57.55.93.13.36.19.77.19,1.23ZM172.12,31.57c0-.22-.05-.43-.11-.63-.07-.2-.17-.37-.3-.51-.13-.14-.3-.26-.49-.34-.2-.08-.43-.13-.69-.13-.24,0-.47.04-.68.13s-.4.2-.55.34c-.16.14-.28.31-.38.51-.1.2-.16.41-.17.63h3.38Z"/>
        <path class="cls-2" d="M174.82,29.87c0-.24-.02-.45-.04-.64h1.07c.02.14.03.31.04.5,0,.19.01.34.01.46h.04c.16-.34.39-.61.7-.81s.65-.31,1.04-.31c.18,0,.32.02.44.05l-.05,1.04c-.16-.04-.33-.06-.52-.06-.27,0-.51.05-.71.15-.2.1-.37.23-.5.4-.13.17-.23.36-.29.58s-.1.45-.1.69v2.99h-1.13v-4.46c0-.15,0-.35-.01-.59Z"/>
        <path class="cls-2" d="M187.09,27.46h-3.5l-.07,2.22c.16-.06.34-.1.53-.12.2-.02.38-.04.56-.04.41,0,.79.06,1.13.19.35.12.65.3.9.54s.45.52.59.85c.14.33.22.7.22,1.11,0,.45-.08.85-.23,1.21-.15.36-.36.67-.62.92-.26.25-.58.45-.94.59-.36.14-.75.21-1.18.21-.66,0-1.22-.15-1.68-.46-.46-.31-.8-.72-1.03-1.24l1.06-.42c.14.34.35.62.64.83.29.21.63.31,1.01.31.25,0,.48-.04.7-.13.22-.09.4-.21.56-.37.16-.16.29-.35.38-.58.09-.22.14-.47.14-.74,0-.32-.05-.6-.16-.83s-.25-.43-.44-.58c-.18-.15-.4-.26-.64-.34-.24-.07-.49-.11-.76-.11-.32,0-.65.04-.98.13-.34.09-.64.2-.9.34l.12-4.51h4.58v1.03Z"/>
        <path class="cls-2" d="M191.92,26.21c.5,0,.94.12,1.3.35.36.23.66.55.9.95.24.4.41.88.52,1.42.11.54.17,1.12.17,1.74s-.06,1.21-.17,1.75c-.11.54-.29,1.01-.52,1.42s-.54.72-.9.95c-.36.23-.8.35-1.3.35s-.94-.12-1.31-.35c-.37-.23-.67-.55-.91-.95s-.41-.88-.52-1.42c-.11-.54-.17-1.12-.17-1.75s.06-1.2.17-1.74c.11-.54.29-1.02.52-1.42.24-.4.54-.72.91-.95.37-.23.8-.35,1.31-.35ZM191.92,27.18c-.35,0-.64.11-.86.34-.22.23-.4.52-.52.86-.12.35-.21.73-.26,1.13-.05.41-.07.79-.07,1.15s.02.74.07,1.15c.05.41.13.78.26,1.13s.3.63.52.86c.22.23.51.34.86.34s.63-.11.85-.34c.22-.23.39-.51.52-.86s.22-.72.26-1.13c.05-.41.07-.79.07-1.15s-.02-.74-.07-1.15c-.05-.41-.14-.79-.26-1.13-.13-.35-.3-.64-.52-.86-.22-.23-.5-.34-.85-.34Z"/>
        <path class="cls-2" d="M199.06,26.21c.5,0,.94.12,1.3.35.36.23.66.55.9.95.24.4.41.88.52,1.42.11.54.17,1.12.17,1.74s-.06,1.21-.17,1.75c-.11.54-.29,1.01-.52,1.42s-.54.72-.9.95c-.36.23-.8.35-1.3.35s-.94-.12-1.31-.35c-.37-.23-.67-.55-.91-.95s-.41-.88-.52-1.42c-.11-.54-.17-1.12-.17-1.75s.06-1.2.17-1.74c.11-.54.29-1.02.52-1.42.24-.4.54-.72.91-.95.37-.23.8-.35,1.31-.35ZM199.06,27.18c-.35,0-.64.11-.86.34-.22.23-.4.52-.52.86-.12.35-.21.73-.26,1.13-.05.41-.07.79-.07,1.15s.02.74.07,1.15c.05.41.13.78.26,1.13s.3.63.52.86c.22.23.51.34.86.34s.63-.11.85-.34c.22-.23.39-.51.52-.86s.22-.72.26-1.13c.05-.41.07-.79.07-1.15s-.02-.74-.07-1.15c-.05-.41-.14-.79-.26-1.13-.13-.35-.3-.64-.52-.86-.22-.23-.5-.34-.85-.34Z"/>
        <path class="cls-2" d="M203.99,36.52h-.96l.83-3h1.13l-1,3Z"/>
        <path class="cls-2" d="M209.32,26.21c.5,0,.94.12,1.3.35.36.23.66.55.9.95.24.4.41.88.52,1.42.11.54.17,1.12.17,1.74s-.06,1.21-.17,1.75c-.11.54-.29,1.01-.52,1.42s-.54.72-.9.95c-.36.23-.8.35-1.3.35s-.94-.12-1.31-.35c-.37-.23-.67-.55-.91-.95s-.41-.88-.52-1.42c-.11-.54-.17-1.12-.17-1.75s.06-1.2.17-1.74c.11-.54.29-1.02.52-1.42.24-.4.54-.72.91-.95.37-.23.8-.35,1.31-.35ZM209.32,27.18c-.35,0-.64.11-.86.34-.22.23-.4.52-.52.86-.12.35-.21.73-.26,1.13-.05.41-.07.79-.07,1.15s.02.74.07,1.15c.05.41.13.78.26,1.13s.3.63.52.86c.22.23.51.34.86.34s.63-.11.85-.34c.22-.23.39-.51.52-.86s.22-.72.26-1.13c.05-.41.07-.79.07-1.15s-.02-.74-.07-1.15c-.05-.41-.14-.79-.26-1.13-.13-.35-.3-.64-.52-.86-.22-.23-.5-.34-.85-.34Z"/>
        <path class="cls-2" d="M216.46,26.21c.5,0,.94.12,1.3.35.36.23.66.55.9.95.24.4.41.88.52,1.42.11.54.17,1.12.17,1.74s-.06,1.21-.17,1.75c-.11.54-.29,1.01-.52,1.42s-.54.72-.9.95c-.36.23-.8.35-1.3.35s-.94-.12-1.31-.35c-.37-.23-.67-.55-.91-.95s-.41-.88-.52-1.42c-.11-.54-.17-1.12-.17-1.75s.06-1.2.17-1.74c.11-.54.29-1.02.52-1.42.24-.4.54-.72.91-.95.37-.23.8-.35,1.31-.35ZM216.46,27.18c-.35,0-.64.11-.86.34-.22.23-.4.52-.52.86-.12.35-.21.73-.26,1.13-.05.41-.07.79-.07,1.15s.02.74.07,1.15c.05.41.13.78.26,1.13s.3.63.52.86c.22.23.51.34.86.34s.63-.11.85-.34c.22-.23.39-.51.52-.86s.22-.72.26-1.13c.05-.41.07-.79.07-1.15s-.02-.74-.07-1.15c-.05-.41-.14-.79-.26-1.13-.13-.35-.3-.64-.52-.86-.22-.23-.5-.34-.85-.34Z"/>
        <path class="cls-2" d="M223.6,26.21c.5,0,.94.12,1.3.35.36.23.66.55.9.95.24.4.41.88.52,1.42.11.54.17,1.12.17,1.74s-.06,1.21-.17,1.75c-.11.54-.29,1.01-.52,1.42s-.54.72-.9.95c-.36.23-.8.35-1.3.35s-.94-.12-1.31-.35c-.37-.23-.67-.55-.91-.95s-.41-.88-.52-1.42c-.11-.54-.17-1.12-.17-1.75s.06-1.2.17-1.74c.11-.54.29-1.02.52-1.42.24-.4.54-.72.91-.95.37-.23.8-.35,1.31-.35ZM223.6,27.18c-.35,0-.64.11-.86.34-.22.23-.4.52-.52.86-.12.35-.21.73-.26,1.13-.05.41-.07.79-.07,1.15s.02.74.07,1.15c.05.41.13.78.26,1.13s.3.63.52.86c.22.23.51.34.86.34s.63-.11.85-.34c.22-.23.39-.51.52-.86s.22-.72.26-1.13c.05-.41.07-.79.07-1.15s-.02-.74-.07-1.15c-.05-.41-.14-.79-.26-1.13-.13-.35-.3-.64-.52-.86-.22-.23-.5-.34-.85-.34Z"/>
        <path class="cls-2" d="M14.78,49.32h-1.22l-2.32-5.69h1.25l1.67,4.48h.02l1.68-4.48h1.2l-2.28,5.69Z"/>
        <path class="cls-2" d="M23.91,46.46c0,.44-.08.84-.23,1.21-.16.37-.37.69-.65.95-.28.27-.6.48-.98.62-.38.15-.78.22-1.21.22s-.84-.07-1.21-.22c-.38-.15-.7-.36-.97-.62-.27-.27-.49-.59-.64-.95-.16-.37-.23-.77-.23-1.21s.08-.84.23-1.21c.16-.36.37-.68.64-.94s.6-.47.97-.62c.38-.15.78-.22,1.21-.22s.84.07,1.21.22c.38.15.7.35.98.62s.49.58.65.94c.16.36.23.77.23,1.21ZM22.74,46.47c0-.27-.04-.53-.13-.78-.08-.25-.21-.46-.37-.65s-.36-.34-.6-.45c-.24-.11-.51-.17-.81-.17s-.58.06-.81.17c-.24.11-.44.26-.6.45-.16.19-.28.4-.37.65-.08.25-.13.51-.13.78s.04.53.13.78c.08.25.21.47.37.66.16.19.36.34.6.46.24.11.51.17.81.17s.58-.06.81-.17c.24-.11.44-.26.6-.46s.28-.41.37-.66c.08-.25.13-.51.13-.78Z"/>
        <path class="cls-2" d="M28.26,44.56h-1.51v2.96c0,.34.06.59.19.74s.33.22.61.22c.1,0,.22-.01.34-.03.12-.02.23-.05.32-.1l.04.92c-.14.05-.29.08-.45.11s-.33.04-.51.04c-.54,0-.95-.15-1.23-.44-.28-.3-.43-.74-.43-1.33v-3.08h-1.09v-.92h1.09v-1.63h1.12v1.63h1.51v.92Z"/>
        <path class="cls-2" d="M34.74,46.43v.19c0,.06,0,.13-.01.19h-4.52c0,.24.06.46.16.67.1.21.23.39.4.55.17.15.36.28.58.36.22.09.45.13.7.13.38,0,.72-.08,1-.25.28-.17.5-.37.66-.61l.79.64c-.3.4-.66.7-1.07.89-.41.19-.87.29-1.37.29-.43,0-.83-.07-1.2-.22-.37-.14-.68-.35-.95-.61-.26-.26-.47-.57-.62-.94-.15-.37-.23-.78-.23-1.22s.07-.85.22-1.22.35-.69.62-.95c.26-.26.58-.47.94-.62.36-.15.75-.22,1.17-.22s.8.07,1.14.2c.34.14.63.33.87.59.24.26.42.57.55.93.13.36.19.77.19,1.23ZM33.58,45.97c0-.22-.05-.43-.11-.63-.07-.2-.17-.37-.3-.51-.13-.14-.3-.26-.49-.34-.2-.08-.43-.13-.69-.13-.24,0-.47.04-.68.13s-.4.2-.55.34c-.16.14-.28.31-.38.51-.1.2-.16.41-.17.63h3.38Z"/>
        <path class="cls-2" d="M39.37,45.07c-.13-.21-.31-.38-.54-.51s-.49-.2-.78-.2c-.13,0-.26.01-.38.04s-.24.07-.34.13c-.1.06-.18.14-.24.23-.06.09-.09.21-.09.34,0,.24.11.42.32.53.22.12.54.22.97.32.27.06.52.14.76.23.23.09.43.2.61.33.17.13.31.29.4.47.1.18.14.4.14.65,0,.34-.06.62-.19.85-.13.23-.3.42-.51.57-.21.15-.45.25-.73.32-.27.06-.55.1-.84.1-.43,0-.85-.08-1.27-.25s-.75-.42-1.03-.77l.8-.68c.15.22.36.41.63.56.27.15.56.23.88.23.14,0,.28-.01.41-.04s.25-.07.36-.14c.11-.06.19-.15.26-.25.06-.1.1-.24.1-.4,0-.26-.13-.46-.38-.59s-.62-.25-1.11-.36c-.19-.05-.39-.11-.58-.17-.2-.07-.37-.16-.53-.28s-.29-.27-.39-.45c-.1-.18-.15-.4-.15-.67,0-.3.06-.57.19-.79.12-.22.29-.4.49-.54.2-.14.43-.24.68-.31.26-.07.52-.1.79-.1.41,0,.8.08,1.18.24.38.16.67.39.88.7l-.78.66Z"/>
        <path class="cls-2" d="M45.04,43.63l1.28,4.34h.02l1.36-4.34h1.19l1.38,4.34h.02l1.28-4.34h1.19l-1.88,5.69h-1.18l-1.4-4.27h-.02l-1.39,4.27h-1.18l-1.9-5.69h1.22Z"/>
        <path class="cls-2" d="M59.22,46.43v.19c0,.06,0,.13-.01.19h-4.52c0,.24.06.46.16.67.1.21.23.39.4.55.17.15.36.28.58.36.22.09.45.13.7.13.38,0,.72-.08,1-.25.28-.17.5-.37.66-.61l.79.64c-.3.4-.66.7-1.07.89-.41.19-.87.29-1.37.29-.43,0-.83-.07-1.2-.22-.37-.14-.68-.35-.95-.61-.26-.26-.47-.57-.62-.94-.15-.37-.23-.78-.23-1.22s.07-.85.22-1.22.35-.69.62-.95c.26-.26.58-.47.94-.62.36-.15.75-.22,1.17-.22s.8.07,1.14.2c.34.14.63.33.87.59.24.26.42.57.55.93.13.36.19.77.19,1.23ZM58.06,45.97c0-.22-.05-.43-.11-.63-.07-.2-.17-.37-.3-.51-.13-.14-.3-.26-.49-.34-.2-.08-.43-.13-.69-.13-.24,0-.47.04-.68.13s-.4.2-.55.34c-.16.14-.28.31-.38.51-.1.2-.16.41-.17.63h3.38Z"/>
        <path class="cls-2" d="M60.76,44.27c0-.24-.02-.45-.04-.64h1.07c.02.14.03.31.04.5,0,.19.01.34.01.46h.04c.16-.34.39-.61.7-.81s.65-.31,1.04-.31c.18,0,.32.02.44.05l-.05,1.04c-.16-.04-.33-.06-.52-.06-.27,0-.51.05-.71.15-.2.1-.37.23-.5.4-.13.17-.23.36-.29.58s-.1.45-.1.69v2.99h-1.13v-4.46c0-.15,0-.35-.01-.59Z"/>
        <path class="cls-2" d="M70.22,46.43v.19c0,.06,0,.13-.01.19h-4.52c0,.24.06.46.16.67.1.21.23.39.4.55.17.15.36.28.58.36.22.09.45.13.7.13.38,0,.72-.08,1-.25.28-.17.5-.37.66-.61l.79.64c-.3.4-.66.7-1.07.89-.41.19-.87.29-1.37.29-.43,0-.83-.07-1.2-.22-.37-.14-.68-.35-.95-.61-.26-.26-.47-.57-.62-.94-.15-.37-.23-.78-.23-1.22s.07-.85.22-1.22.35-.69.62-.95c.26-.26.58-.47.94-.62.36-.15.75-.22,1.17-.22s.8.07,1.14.2c.34.14.63.33.87.59.24.26.42.57.55.93.13.36.19.77.19,1.23ZM69.07,45.97c0-.22-.05-.43-.11-.63-.07-.2-.17-.37-.3-.51-.13-.14-.3-.26-.49-.34-.2-.08-.43-.13-.69-.13-.24,0-.47.04-.68.13s-.4.2-.55.34c-.16.14-.28.31-.38.51-.1.2-.16.41-.17.63h3.38Z"/>
        <path class="cls-2" d="M78.76,45.07c-.12-.18-.3-.34-.54-.46-.24-.12-.5-.19-.77-.19-.3,0-.56.06-.79.17-.23.11-.42.26-.58.45-.16.19-.28.41-.37.65s-.13.51-.13.78.04.53.13.78c.08.25.21.47.37.65.16.19.36.34.59.45.23.11.5.17.79.17s.55-.06.79-.17.43-.26.58-.46l.76.68c-.24.28-.54.5-.9.65-.36.16-.77.23-1.22.23s-.85-.07-1.22-.22c-.37-.14-.69-.35-.97-.61s-.49-.57-.64-.94c-.16-.37-.23-.78-.23-1.24s.08-.86.23-1.22c.15-.37.36-.68.64-.95.27-.26.59-.47.97-.61.37-.14.77-.22,1.21-.22.4,0,.8.08,1.19.24.4.16.71.39.94.7l-.82.66Z"/>
        <path class="cls-2" d="M84.25,45.64c0-.42-.13-.74-.38-.94s-.6-.31-1.02-.31c-.32,0-.62.06-.91.19-.28.12-.52.28-.71.47l-.6-.72c.28-.26.62-.47,1.03-.62.4-.15.84-.23,1.3-.23.41,0,.76.06,1.06.17.3.12.55.27.74.47.19.2.34.44.43.71.1.27.14.56.14.88v2.48c0,.19,0,.39.02.61.01.21.03.39.07.52h-1.02c-.06-.27-.1-.54-.1-.82h-.04c-.21.3-.47.54-.79.71s-.69.25-1.12.25c-.22,0-.46-.03-.7-.09-.24-.06-.47-.16-.67-.29-.2-.14-.37-.32-.5-.54-.13-.22-.2-.5-.2-.83,0-.43.12-.77.35-1.03s.54-.44.91-.58.8-.22,1.27-.26.95-.06,1.43-.06v-.16ZM83.97,46.61c-.28,0-.57.01-.87.04-.3.02-.57.07-.82.14-.24.07-.45.18-.61.32s-.24.34-.24.58c0,.17.03.31.1.42.07.11.16.2.27.28.11.07.24.12.37.15.14.03.28.04.42.04.53,0,.93-.16,1.22-.47.28-.32.43-.71.43-1.19v-.3h-.28Z"/>
        <path class="cls-2" d="M90.28,45.07c-.13-.21-.31-.38-.54-.51s-.49-.2-.78-.2c-.13,0-.26.01-.38.04s-.24.07-.34.13c-.1.06-.18.14-.24.23-.06.09-.09.21-.09.34,0,.24.11.42.32.53.22.12.54.22.97.32.27.06.52.14.76.23.23.09.43.2.61.33.17.13.31.29.4.47.1.18.14.4.14.65,0,.34-.06.62-.19.85-.13.23-.3.42-.51.57-.21.15-.45.25-.73.32-.27.06-.55.1-.84.1-.43,0-.85-.08-1.27-.25s-.75-.42-1.03-.77l.8-.68c.15.22.36.41.63.56.27.15.56.23.88.23.14,0,.28-.01.41-.04s.25-.07.36-.14c.11-.06.19-.15.26-.25.06-.1.1-.24.1-.4,0-.26-.13-.46-.38-.59s-.62-.25-1.11-.36c-.19-.05-.39-.11-.58-.17-.2-.07-.37-.16-.53-.28s-.29-.27-.39-.45c-.1-.18-.15-.4-.15-.67,0-.3.06-.57.19-.79.12-.22.29-.4.49-.54.2-.14.43-.24.68-.31.26-.07.52-.1.79-.1.41,0,.8.08,1.18.24.38.16.67.39.88.7l-.78.66Z"/>
        <path class="cls-2" d="M95.32,44.56h-1.51v2.96c0,.34.06.59.19.74s.33.22.61.22c.1,0,.22-.01.34-.03.12-.02.23-.05.32-.1l.04.92c-.14.05-.29.08-.45.11s-.33.04-.51.04c-.54,0-.95-.15-1.23-.44-.28-.3-.43-.74-.43-1.33v-3.08h-1.09v-.92h1.09v-1.63h1.12v1.63h1.51v.92Z"/>
        <path class="cls-2" d="M105.25,46.46c0,.44-.08.84-.23,1.21-.16.37-.37.69-.65.95-.28.27-.6.48-.98.62-.38.15-.78.22-1.21.22s-.84-.07-1.21-.22c-.38-.15-.7-.36-.97-.62-.27-.27-.49-.59-.64-.95-.16-.37-.23-.77-.23-1.21s.08-.84.23-1.21c.16-.36.37-.68.64-.94s.6-.47.97-.62c.38-.15.78-.22,1.21-.22s.84.07,1.21.22c.38.15.7.35.98.62s.49.58.65.94c.16.36.23.77.23,1.21ZM104.07,46.47c0-.27-.04-.53-.13-.78-.08-.25-.21-.46-.37-.65s-.36-.34-.6-.45c-.24-.11-.51-.17-.81-.17s-.58.06-.81.17c-.24.11-.44.26-.6.45-.16.19-.28.4-.37.65-.08.25-.13.51-.13.78s.04.53.13.78c.08.25.21.47.37.66.16.19.36.34.6.46.24.11.51.17.81.17s.58-.06.81-.17c.24-.11.44-.26.6-.46s.28-.41.37-.66c.08-.25.13-.51.13-.78Z"/>
        <path class="cls-2" d="M107.83,43.63c.02.14.03.31.04.49s.01.33.01.45h.04c.07-.15.17-.29.29-.43s.27-.25.43-.35c.16-.1.34-.18.53-.23.19-.06.39-.08.6-.08.37,0,.68.06.95.19s.48.29.66.5c.18.21.31.45.39.73s.13.58.13.9v3.53h-1.13v-3.16c0-.23-.02-.45-.05-.66-.04-.21-.1-.39-.2-.55s-.23-.29-.4-.38-.38-.14-.65-.14c-.45,0-.81.17-1.1.51s-.43.79-.43,1.36v3.02h-1.13v-4.46c0-.15,0-.35-.01-.59s-.02-.45-.04-.64h1.07Z"/>
        <path class="cls-2" d="M114.94,49.32h-1.13v-9.07h1.13v9.07Z"/>
        <path class="cls-2" d="M118.23,41.58c0,.21-.07.38-.22.52-.15.14-.32.2-.53.2s-.38-.07-.52-.21c-.14-.14-.21-.31-.21-.51s.07-.38.21-.52c.14-.14.32-.21.52-.21s.38.07.53.21c.15.14.22.31.22.52ZM118.05,49.32h-1.13v-5.69h1.13v5.69Z"/>
        <path class="cls-2" d="M121.04,43.63c.02.14.03.31.04.49s.01.33.01.45h.04c.07-.15.17-.29.29-.43s.27-.25.43-.35c.16-.1.34-.18.53-.23.19-.06.39-.08.6-.08.37,0,.68.06.95.19s.48.29.66.5c.18.21.31.45.39.73s.13.58.13.9v3.53h-1.13v-3.16c0-.23-.02-.45-.05-.66-.04-.21-.1-.39-.2-.55s-.23-.29-.4-.38-.38-.14-.65-.14c-.45,0-.81.17-1.1.51s-.43.79-.43,1.36v3.02h-1.13v-4.46c0-.15,0-.35-.01-.59s-.02-.45-.04-.64h1.07Z"/>
        <path class="cls-2" d="M132.32,46.43v.19c0,.06,0,.13-.01.19h-4.52c0,.24.06.46.16.67.1.21.23.39.4.55.17.15.36.28.58.36.22.09.45.13.7.13.38,0,.72-.08,1-.25.28-.17.5-.37.66-.61l.79.64c-.3.4-.66.7-1.07.89-.41.19-.87.29-1.37.29-.43,0-.83-.07-1.2-.22-.37-.14-.68-.35-.95-.61-.26-.26-.47-.57-.62-.94-.15-.37-.23-.78-.23-1.22s.07-.85.22-1.22.35-.69.62-.95c.26-.26.58-.47.94-.62.36-.15.75-.22,1.17-.22s.8.07,1.14.2c.34.14.63.33.87.59.24.26.42.57.55.93.13.36.19.77.19,1.23ZM131.17,45.97c0-.22-.05-.43-.11-.63-.07-.2-.17-.37-.3-.51-.13-.14-.3-.26-.49-.34-.2-.08-.43-.13-.69-.13-.24,0-.47.04-.68.13s-.4.2-.55.34c-.16.14-.28.31-.38.51-.1.2-.16.41-.17.63h3.38Z"/>
        <path class="cls-2" d="M135.27,48.6c0,.21-.08.39-.23.55-.15.16-.34.24-.58.24s-.41-.08-.57-.23c-.16-.16-.23-.34-.23-.55s.08-.4.23-.56c.15-.16.34-.23.58-.23s.42.08.58.23c.15.15.23.34.23.55Z"/>
        <path class="cls-2" d="M142.39,49.32h-1.19v-7.45h-2.72v-1.04h6.64v1.04h-2.72v7.45Z"/>
        <path class="cls-2" d="M147.14,44.5c.14-.28.37-.52.7-.72.33-.2.7-.3,1.1-.3.37,0,.68.06.95.19s.48.29.66.5c.18.21.31.45.39.73s.13.58.13.9v3.53h-1.13v-3.15c0-.23-.02-.45-.05-.66-.04-.21-.1-.39-.2-.55-.1-.16-.23-.29-.39-.39-.16-.1-.38-.14-.64-.14-.45,0-.82.17-1.1.51s-.43.8-.43,1.37v3.02h-1.13v-9.07h1.13v4.25h.02Z"/>
        <path class="cls-2" d="M158.29,46.43v.19c0,.06,0,.13-.01.19h-4.52c0,.24.06.46.16.67.1.21.23.39.4.55.17.15.36.28.58.36.22.09.45.13.7.13.38,0,.72-.08,1-.25.28-.17.5-.37.66-.61l.79.64c-.3.4-.66.7-1.07.89-.41.19-.87.29-1.37.29-.43,0-.83-.07-1.2-.22-.37-.14-.68-.35-.95-.61-.26-.26-.47-.57-.62-.94-.15-.37-.23-.78-.23-1.22s.07-.85.22-1.22.35-.69.62-.95c.26-.26.58-.47.94-.62.36-.15.75-.22,1.17-.22s.8.07,1.14.2c.34.14.63.33.87.59.24.26.42.57.55.93.13.36.19.77.19,1.23ZM157.13,45.97c0-.22-.05-.43-.11-.63-.07-.2-.17-.37-.3-.51-.13-.14-.3-.26-.49-.34-.2-.08-.43-.13-.69-.13-.24,0-.47.04-.68.13s-.4.2-.55.34c-.16.14-.28.31-.38.51-.1.2-.16.41-.17.63h3.38Z"/>
        <path class="cls-2" d="M163.27,43.63l1.28,4.34h.02l1.36-4.34h1.19l1.38,4.34h.02l1.28-4.34h1.19l-1.88,5.69h-1.18l-1.4-4.27h-.02l-1.39,4.27h-1.18l-1.9-5.69h1.22Z"/>
        <path class="cls-2" d="M173.44,41.58c0,.21-.07.38-.22.52-.15.14-.32.2-.53.2s-.38-.07-.52-.21c-.14-.14-.21-.31-.21-.51s.07-.38.21-.52c.14-.14.32-.21.52-.21s.38.07.53.21c.15.14.22.31.22.52ZM173.26,49.32h-1.13v-5.69h1.13v5.69Z"/>
        <path class="cls-2" d="M176.25,43.63c.02.14.03.31.04.49s.01.33.01.45h.04c.07-.15.17-.29.29-.43s.27-.25.43-.35c.16-.1.34-.18.53-.23.19-.06.39-.08.6-.08.37,0,.68.06.95.19s.48.29.66.5c.18.21.31.45.39.73s.13.58.13.9v3.53h-1.13v-3.16c0-.23-.02-.45-.05-.66-.04-.21-.1-.39-.2-.55s-.23-.29-.4-.38-.38-.14-.65-.14c-.45,0-.81.17-1.1.51s-.43.79-.43,1.36v3.02h-1.13v-4.46c0-.15,0-.35-.01-.59s-.02-.45-.04-.64h1.07Z"/>
        <path class="cls-2" d="M183.23,43.63c.02.14.03.31.04.49s.01.33.01.45h.04c.07-.15.17-.29.29-.43s.27-.25.43-.35c.16-.1.34-.18.53-.23.19-.06.39-.08.6-.08.37,0,.68.06.95.19s.48.29.66.5c.18.21.31.45.39.73s.13.58.13.9v3.53h-1.13v-3.16c0-.23-.02-.45-.05-.66-.04-.21-.1-.39-.2-.55s-.23-.29-.4-.38-.38-.14-.65-.14c-.45,0-.81.17-1.1.51s-.43.79-.43,1.36v3.02h-1.13v-4.46c0-.15,0-.35-.01-.59s-.02-.45-.04-.64h1.07Z"/>
        <path class="cls-2" d="M190.52,41.58c0,.21-.07.38-.22.52-.15.14-.32.2-.53.2s-.38-.07-.52-.21c-.14-.14-.21-.31-.21-.51s.07-.38.21-.52c.14-.14.32-.21.52-.21s.38.07.53.21c.15.14.22.31.22.52ZM190.34,49.32h-1.13v-5.69h1.13v5.69Z"/>
        <path class="cls-2" d="M193.33,43.63c.02.14.03.31.04.49s.01.33.01.45h.04c.07-.15.17-.29.29-.43s.27-.25.43-.35c.16-.1.34-.18.53-.23.19-.06.39-.08.6-.08.37,0,.68.06.95.19s.48.29.66.5c.18.21.31.45.39.73s.13.58.13.9v3.53h-1.13v-3.16c0-.23-.02-.45-.05-.66-.04-.21-.1-.39-.2-.55s-.23-.29-.4-.38-.38-.14-.65-.14c-.45,0-.81.17-1.1.51s-.43.79-.43,1.36v3.02h-1.13v-4.46c0-.15,0-.35-.01-.59s-.02-.45-.04-.64h1.07Z"/>
        <path class="cls-2" d="M199.73,50.29c.25.28.56.5.93.67.37.17.75.25,1.15.25s.69-.05.95-.16c.26-.11.46-.26.62-.44.16-.19.27-.41.34-.67s.1-.53.1-.83v-.73h-.02c-.21.32-.49.56-.85.73-.36.17-.74.25-1.15.25-.43,0-.83-.08-1.18-.23-.36-.15-.66-.36-.91-.62-.25-.26-.44-.57-.58-.93-.14-.36-.2-.74-.2-1.15s.07-.79.2-1.15c.14-.36.33-.67.58-.94.25-.27.55-.48.9-.64.35-.16.74-.23,1.18-.23.41,0,.8.09,1.17.26s.67.44.88.8h.02v-.91h1.09v5.4c0,.42-.05.81-.16,1.19s-.28.72-.53,1.01-.57.53-.97.7c-.4.18-.9.26-1.49.26-.5,0-.99-.09-1.49-.27-.5-.18-.93-.43-1.29-.76l.72-.88ZM200.07,46.42c0,.26.04.52.13.76.08.24.21.45.37.64.16.18.36.33.6.44.23.11.5.17.79.17s.55-.05.79-.16c.24-.1.45-.25.61-.43.17-.18.3-.39.39-.64s.14-.51.14-.79-.05-.53-.14-.77-.22-.45-.4-.64c-.17-.18-.38-.33-.61-.44-.24-.11-.5-.16-.79-.16s-.56.05-.79.16c-.23.11-.43.25-.6.43-.16.18-.29.39-.37.64-.08.24-.13.5-.13.77Z"/>
        <path class="cls-2" d="M210.89,43.63c.02.14.03.31.04.49s.01.33.01.45h.04c.07-.15.17-.29.29-.43s.27-.25.43-.35c.16-.1.34-.18.53-.23.19-.06.39-.08.6-.08.37,0,.68.06.95.19s.48.29.66.5c.18.21.31.45.39.73s.13.58.13.9v3.53h-1.13v-3.16c0-.23-.02-.45-.05-.66-.04-.21-.1-.39-.2-.55s-.23-.29-.4-.38-.38-.14-.65-.14c-.45,0-.81.17-1.1.51s-.43.79-.43,1.36v3.02h-1.13v-4.46c0-.15,0-.35-.01-.59s-.02-.45-.04-.64h1.07Z"/>
        <path class="cls-2" d="M220.4,45.64c0-.42-.13-.74-.38-.94s-.6-.31-1.02-.31c-.32,0-.62.06-.91.19-.28.12-.52.28-.71.47l-.6-.72c.28-.26.62-.47,1.03-.62.4-.15.84-.23,1.3-.23.41,0,.76.06,1.06.17.3.12.55.27.74.47.19.2.34.44.43.71.1.27.14.56.14.88v2.48c0,.19,0,.39.02.61.01.21.03.39.07.52h-1.02c-.06-.27-.1-.54-.1-.82h-.04c-.21.3-.47.54-.79.71s-.69.25-1.12.25c-.22,0-.46-.03-.7-.09-.24-.06-.47-.16-.67-.29-.2-.14-.37-.32-.5-.54-.13-.22-.2-.5-.2-.83,0-.43.12-.77.35-1.03s.54-.44.91-.58.8-.22,1.27-.26.95-.06,1.43-.06v-.16ZM220.12,46.61c-.28,0-.57.01-.87.04-.3.02-.57.07-.82.14-.24.07-.45.18-.61.32s-.24.34-.24.58c0,.17.03.31.1.42.07.11.16.2.27.28.11.07.24.12.37.15.14.03.28.04.42.04.53,0,.93-.16,1.22-.47.28-.32.43-.71.43-1.19v-.3h-.28Z"/>
        <path class="cls-2" d="M225.16,43.79c.32-.21.69-.32,1.12-.32.38,0,.73.09,1.04.26.31.18.55.47.73.88.19-.37.46-.65.8-.85.34-.2.72-.29,1.13-.29.37,0,.68.06.95.19.26.12.48.29.66.5s.31.45.39.73.13.58.13.9v3.53h-1.13v-3.16c0-.23-.02-.45-.06-.66-.04-.21-.11-.39-.2-.55-.1-.16-.22-.29-.38-.38-.16-.1-.36-.14-.61-.14s-.48.05-.66.16c-.18.11-.33.25-.45.42-.12.17-.2.37-.25.58-.05.22-.08.44-.08.66v3.07h-1.13v-3.38c0-.22-.02-.43-.06-.61-.04-.18-.11-.34-.2-.47-.1-.13-.22-.24-.37-.31-.15-.08-.34-.11-.56-.11-.42,0-.76.17-1.04.51-.28.34-.41.79-.41,1.36v3.02h-1.13v-4.46c0-.15,0-.35-.01-.59s-.02-.45-.04-.64h1.07c.02.14.03.31.04.49s.01.33.01.45h.04c.14-.3.37-.56.69-.77Z"/>
        <path class="cls-2" d="M239.32,46.43v.19c0,.06,0,.13-.01.19h-4.52c0,.24.06.46.16.67.1.21.23.39.4.55.17.15.36.28.58.36.22.09.45.13.7.13.38,0,.72-.08,1-.25.28-.17.5-.37.66-.61l.79.64c-.3.4-.66.7-1.07.89-.41.19-.87.29-1.37.29-.43,0-.83-.07-1.2-.22-.37-.14-.68-.35-.95-.61-.26-.26-.47-.57-.62-.94-.15-.37-.23-.78-.23-1.22s.07-.85.22-1.22.35-.69.62-.95c.26-.26.58-.47.94-.62.36-.15.75-.22,1.17-.22s.8.07,1.14.2c.34.14.63.33.87.59.24.26.42.57.55.93.13.36.19.77.19,1.23ZM238.17,45.97c0-.22-.05-.43-.11-.63-.07-.2-.17-.37-.3-.51-.13-.14-.3-.26-.49-.34-.2-.08-.43-.13-.69-.13-.24,0-.47.04-.68.13s-.4.2-.55.34c-.16.14-.28.31-.38.51-.1.2-.16.41-.17.63h3.38Z"/>
        <path class="cls-2" d="M12.52,58.03l1.28,4.34h.02l1.36-4.34h1.19l1.38,4.34h.02l1.28-4.34h1.19l-1.88,5.69h-1.18l-1.4-4.27h-.02l-1.39,4.27h-1.18l-1.9-5.69h1.22Z"/>
        <path class="cls-2" d="M24.92,60.04c0-.42-.13-.74-.38-.94s-.6-.31-1.02-.31c-.32,0-.62.06-.91.19-.28.12-.52.28-.71.47l-.6-.72c.28-.26.62-.47,1.03-.62.4-.15.84-.23,1.3-.23.41,0,.76.06,1.06.17.3.12.55.27.74.47.19.2.34.44.43.71.1.27.14.56.14.88v2.48c0,.19,0,.39.02.61.01.21.03.39.07.52h-1.02c-.06-.27-.1-.54-.1-.82h-.04c-.21.3-.47.54-.79.71s-.69.25-1.12.25c-.22,0-.46-.03-.7-.09-.24-.06-.47-.16-.67-.29-.2-.14-.37-.32-.5-.54-.13-.22-.2-.5-.2-.83,0-.43.12-.77.35-1.03s.54-.44.91-.58.8-.22,1.27-.26.95-.06,1.43-.06v-.16ZM24.64,61.01c-.28,0-.57.01-.87.04-.3.02-.57.07-.82.14-.24.07-.45.18-.61.32s-.24.34-.24.58c0,.17.03.31.1.42.07.11.16.2.27.28.11.07.24.12.37.15.14.03.28.04.42.04.53,0,.93-.16,1.22-.47.28-.32.43-.71.43-1.19v-.3h-.28Z"/>
        <path class="cls-2" d="M30.96,59.47c-.13-.21-.31-.38-.54-.51s-.49-.2-.78-.2c-.13,0-.26.01-.38.04s-.24.07-.34.13c-.1.06-.18.14-.24.23-.06.09-.09.21-.09.34,0,.24.11.42.32.53.22.12.54.22.97.32.27.06.52.14.76.23.23.09.43.2.61.33.17.13.31.29.4.47.1.18.14.4.14.65,0,.34-.06.62-.19.85-.13.23-.3.42-.51.57-.21.15-.45.25-.73.32-.27.06-.55.1-.84.1-.43,0-.85-.08-1.27-.25s-.75-.42-1.03-.77l.8-.68c.15.22.36.41.63.56.27.15.56.23.88.23.14,0,.28-.01.41-.04s.25-.07.36-.14c.11-.06.19-.15.26-.25.06-.1.1-.24.1-.4,0-.26-.13-.46-.38-.59s-.62-.25-1.11-.36c-.19-.05-.39-.11-.58-.17-.2-.07-.37-.16-.53-.28s-.29-.27-.39-.45c-.1-.18-.15-.4-.15-.67,0-.3.06-.57.19-.79.12-.22.29-.4.49-.54.2-.14.43-.24.68-.31.26-.07.52-.1.79-.1.41,0,.8.08,1.18.24.38.16.67.39.88.7l-.78.66Z"/>
        <path class="cls-2" d="M36.27,55.22h2.92c.54,0,1.09.08,1.63.24.54.16,1.04.41,1.48.76.44.34.8.78,1.07,1.32s.41,1.18.41,1.93-.14,1.36-.41,1.89c-.27.53-.63.97-1.07,1.32-.44.35-.93.61-1.48.78-.54.17-1.09.26-1.63.26h-2.92v-8.5ZM37.46,62.68h1.49c.51,0,.99-.07,1.42-.22.44-.14.81-.35,1.13-.62.32-.27.56-.61.74-1.01.18-.4.26-.85.26-1.36s-.09-.99-.26-1.39c-.18-.4-.42-.73-.74-1-.32-.27-.69-.47-1.13-.61s-.91-.21-1.42-.21h-1.49v6.42Z"/>
        <path class="cls-2" d="M45.33,58.67c0-.24-.02-.45-.04-.64h1.07c.02.14.03.31.04.5,0,.19.01.34.01.46h.04c.16-.34.39-.61.7-.81s.65-.31,1.04-.31c.18,0,.32.02.44.05l-.05,1.04c-.16-.04-.33-.06-.52-.06-.27,0-.51.05-.71.15-.2.1-.37.23-.5.4-.13.17-.23.36-.29.58s-.1.45-.1.69v2.99h-1.13v-4.46c0-.15,0-.35-.01-.59Z"/>
        <path class="cls-2" d="M54.79,60.83v.19c0,.06,0,.13-.01.19h-4.52c0,.24.06.46.16.67.1.21.23.39.4.55.17.15.36.28.58.36.22.09.45.13.7.13.38,0,.72-.08,1-.25.28-.17.5-.37.66-.61l.79.64c-.3.4-.66.7-1.07.89-.41.19-.87.29-1.37.29-.43,0-.83-.07-1.2-.22-.37-.14-.68-.35-.95-.61-.26-.26-.47-.57-.62-.94-.15-.37-.23-.78-.23-1.22s.07-.85.22-1.22.35-.69.62-.95c.26-.26.58-.47.94-.62.36-.15.75-.22,1.17-.22s.8.07,1.14.2c.34.14.63.33.87.59.24.26.42.57.55.93.13.36.19.77.19,1.23ZM53.64,60.37c0-.22-.05-.43-.11-.63-.07-.2-.17-.37-.3-.51-.13-.14-.3-.26-.49-.34-.2-.08-.43-.13-.69-.13-.24,0-.47.04-.68.13s-.4.2-.55.34c-.16.14-.28.31-.38.51-.1.2-.16.41-.17.63h3.38Z"/>
        <path class="cls-2" d="M59.82,60.04c0-.42-.13-.74-.38-.94s-.6-.31-1.02-.31c-.32,0-.62.06-.91.19-.28.12-.52.28-.71.47l-.6-.72c.28-.26.62-.47,1.03-.62.4-.15.84-.23,1.3-.23.41,0,.76.06,1.06.17.3.12.55.27.74.47.19.2.34.44.43.71.1.27.14.56.14.88v2.48c0,.19,0,.39.02.61.01.21.03.39.07.52h-1.02c-.06-.27-.1-.54-.1-.82h-.04c-.21.3-.47.54-.79.71s-.69.25-1.12.25c-.22,0-.46-.03-.7-.09-.24-.06-.47-.16-.67-.29-.2-.14-.37-.32-.5-.54-.13-.22-.2-.5-.2-.83,0-.43.12-.77.35-1.03s.54-.44.91-.58.8-.22,1.27-.26.95-.06,1.43-.06v-.16ZM59.54,61.01c-.28,0-.57.01-.87.04-.3.02-.57.07-.82.14-.24.07-.45.18-.61.32s-.24.34-.24.58c0,.17.03.31.1.42.07.11.16.2.27.28.11.07.24.12.37.15.14.03.28.04.42.04.53,0,.93-.16,1.22-.47.28-.32.43-.71.43-1.19v-.3h-.28Z"/>
        <path class="cls-2" d="M64.57,58.19c.32-.21.69-.32,1.12-.32.38,0,.73.09,1.04.26.31.18.55.47.73.88.19-.37.46-.65.8-.85.34-.2.72-.29,1.13-.29.37,0,.68.06.95.19.26.12.48.29.66.5s.31.45.39.73.13.58.13.9v3.53h-1.13v-3.16c0-.23-.02-.45-.06-.66-.04-.21-.11-.39-.2-.55-.1-.16-.22-.29-.38-.38-.16-.1-.36-.14-.61-.14s-.48.05-.66.16c-.18.11-.33.25-.45.42-.12.17-.2.37-.25.58-.05.22-.08.44-.08.66v3.07h-1.13v-3.38c0-.22-.02-.43-.06-.61-.04-.18-.11-.34-.2-.47-.1-.13-.22-.24-.37-.31-.15-.08-.34-.11-.56-.11-.42,0-.76.17-1.04.51-.28.34-.41.79-.41,1.36v3.02h-1.13v-4.46c0-.15,0-.35-.01-.59s-.02-.45-.04-.64h1.07c.02.14.03.31.04.49s.01.33.01.45h.04c.14-.3.37-.56.69-.77Z"/>
        <path class="cls-2" d="M74.58,63.72h-1.13v-9.07h1.13v9.07Z"/>
        <path class="cls-2" d="M77.86,55.98c0,.21-.07.38-.22.52-.15.14-.32.2-.53.2s-.38-.07-.52-.21c-.14-.14-.21-.31-.21-.51s.07-.38.21-.52c.14-.14.32-.21.52-.21s.38.07.53.21c.15.14.22.31.22.52ZM77.68,63.72h-1.13v-5.69h1.13v5.69Z"/>
        <path class="cls-2" d="M80.67,58.03c.02.14.03.31.04.49s.01.33.01.45h.04c.07-.15.17-.29.29-.43s.27-.25.43-.35c.16-.1.34-.18.53-.23.19-.06.39-.08.6-.08.37,0,.68.06.95.19s.48.29.66.5c.18.21.31.45.39.73s.13.58.13.9v3.53h-1.13v-3.16c0-.23-.02-.45-.05-.66-.04-.21-.1-.39-.2-.55s-.23-.29-.4-.38-.38-.14-.65-.14c-.45,0-.81.17-1.1.51s-.43.79-.43,1.36v3.02h-1.13v-4.46c0-.15,0-.35-.01-.59s-.02-.45-.04-.64h1.07Z"/>
        <path class="cls-2" d="M91.95,60.83v.19c0,.06,0,.13-.01.19h-4.52c0,.24.06.46.16.67.1.21.23.39.4.55.17.15.36.28.58.36.22.09.45.13.7.13.38,0,.72-.08,1-.25.28-.17.5-.37.66-.61l.79.64c-.3.4-.66.7-1.07.89-.41.19-.87.29-1.37.29-.43,0-.83-.07-1.2-.22-.37-.14-.68-.35-.95-.61-.26-.26-.47-.57-.62-.94-.15-.37-.23-.78-.23-1.22s.07-.85.22-1.22.35-.69.62-.95c.26-.26.58-.47.94-.62.36-.15.75-.22,1.17-.22s.8.07,1.14.2c.34.14.63.33.87.59.24.26.42.57.55.93.13.36.19.77.19,1.23ZM90.8,60.37c0-.22-.05-.43-.11-.63-.07-.2-.17-.37-.3-.51-.13-.14-.3-.26-.49-.34-.2-.08-.43-.13-.69-.13-.24,0-.47.04-.68.13s-.4.2-.55.34c-.16.14-.28.31-.38.51-.1.2-.16.41-.17.63h3.38Z"/>
        <path class="cls-2" d="M93.5,58.67c0-.24-.02-.45-.04-.64h1.07c.02.14.03.31.04.5,0,.19.01.34.01.46h.04c.16-.34.39-.61.7-.81s.65-.31,1.04-.31c.18,0,.32.02.44.05l-.05,1.04c-.16-.04-.33-.06-.52-.06-.27,0-.51.05-.71.15-.2.1-.37.23-.5.4-.13.17-.23.36-.29.58s-.1.45-.1.69v2.99h-1.13v-4.46c0-.15,0-.35-.01-.59Z"/>
        <path class="cls-2" d="M98.67,63c0,.21-.08.39-.23.55-.15.16-.34.24-.58.24s-.41-.08-.57-.23c-.16-.16-.23-.34-.23-.55s.08-.4.23-.56c.15-.16.34-.23.58-.23s.42.08.58.23c.15.15.23.34.23.55Z"/>
        <path class="cls-2" d="M111.67,59.46c0,.66-.11,1.26-.34,1.81s-.54,1.02-.94,1.42c-.4.4-.88.7-1.43.92-.55.22-1.15.33-1.8.33s-1.25-.11-1.79-.33-1.02-.53-1.42-.92c-.4-.4-.71-.87-.94-1.42-.22-.55-.34-1.15-.34-1.81s.11-1.27.34-1.82c.22-.55.54-1.02.94-1.4.4-.39.87-.69,1.42-.91s1.15-.32,1.79-.32,1.25.11,1.8.32c.55.22,1.03.52,1.43.91.4.39.71.86.94,1.4s.34,1.15.34,1.82ZM110.38,59.46c0-.46-.08-.9-.23-1.31s-.37-.77-.65-1.09c-.28-.31-.62-.56-1.01-.74-.4-.18-.84-.27-1.34-.27s-.93.09-1.33.27c-.4.18-.73.43-1.01.74-.28.31-.49.67-.64,1.09s-.23.85-.23,1.31.08.92.23,1.33.37.78.65,1.09c.28.31.62.55,1.01.73.39.18.83.26,1.32.26s.93-.09,1.33-.26c.4-.18.74-.42,1.02-.73.28-.31.5-.67.65-1.09s.23-.86.23-1.33Z"/>
        <path class="cls-2" d="M116.01,58.96h-1.51v2.96c0,.34.06.59.19.74s.33.22.61.22c.1,0,.22-.01.34-.03.12-.02.23-.05.32-.1l.04.92c-.14.05-.29.08-.45.11s-.33.04-.51.04c-.54,0-.95-.15-1.23-.44-.28-.3-.43-.74-.43-1.33v-3.08h-1.09v-.92h1.09v-1.63h1.12v1.63h1.51v.92Z"/>
        <path class="cls-2" d="M118.35,58.89c.14-.28.37-.52.7-.72.33-.2.7-.3,1.1-.3.37,0,.68.06.95.19s.48.29.66.5c.18.21.31.45.39.73s.13.58.13.9v3.53h-1.13v-3.15c0-.23-.02-.45-.05-.66-.04-.21-.1-.39-.2-.55-.1-.16-.23-.29-.39-.39-.16-.1-.38-.14-.64-.14-.45,0-.82.17-1.1.51s-.43.8-.43,1.37v3.02h-1.13v-9.07h1.13v4.25h.02Z"/>
        <path class="cls-2" d="M129.5,60.83v.19c0,.06,0,.13-.01.19h-4.52c0,.24.06.46.16.67.1.21.23.39.4.55.17.15.36.28.58.36.22.09.45.13.7.13.38,0,.72-.08,1-.25.28-.17.5-.37.66-.61l.79.64c-.3.4-.66.7-1.07.89-.41.19-.87.29-1.37.29-.43,0-.83-.07-1.2-.22-.37-.14-.68-.35-.95-.61-.26-.26-.47-.57-.62-.94-.15-.37-.23-.78-.23-1.22s.07-.85.22-1.22.35-.69.62-.95c.26-.26.58-.47.94-.62.36-.15.75-.22,1.17-.22s.8.07,1.14.2c.34.14.63.33.87.59.24.26.42.57.55.93.13.36.19.77.19,1.23ZM128.35,60.37c0-.22-.05-.43-.11-.63-.07-.2-.17-.37-.3-.51-.13-.14-.3-.26-.49-.34-.2-.08-.43-.13-.69-.13-.24,0-.47.04-.68.13s-.4.2-.55.34c-.16.14-.28.31-.38.51-.1.2-.16.41-.17.63h3.38Z"/>
        <path class="cls-2" d="M131.05,58.67c0-.24-.02-.45-.04-.64h1.07c.02.14.03.31.04.5,0,.19.01.34.01.46h.04c.16-.34.39-.61.7-.81s.65-.31,1.04-.31c.18,0,.32.02.44.05l-.05,1.04c-.16-.04-.33-.06-.52-.06-.27,0-.51.05-.71.15-.2.1-.37.23-.5.4-.13.17-.23.36-.29.58s-.1.45-.1.69v2.99h-1.13v-4.46c0-.15,0-.35-.01-.59Z"/>
        <path class="cls-2" d="M139.42,58.03c.02.14.03.31.04.49s.01.33.01.45h.04c.07-.15.17-.29.29-.43s.27-.25.43-.35c.16-.1.34-.18.53-.23.19-.06.39-.08.6-.08.37,0,.68.06.95.19s.48.29.66.5c.18.21.31.45.39.73s.13.58.13.9v3.53h-1.13v-3.16c0-.23-.02-.45-.05-.66-.04-.21-.1-.39-.2-.55s-.23-.29-.4-.38-.38-.14-.65-.14c-.45,0-.81.17-1.1.51s-.43.79-.43,1.36v3.02h-1.13v-4.46c0-.15,0-.35-.01-.59s-.02-.45-.04-.64h1.07Z"/>
        <path class="cls-2" d="M148.93,60.04c0-.42-.13-.74-.38-.94s-.6-.31-1.02-.31c-.32,0-.62.06-.91.19-.28.12-.52.28-.71.47l-.6-.72c.28-.26.62-.47,1.03-.62.4-.15.84-.23,1.3-.23.41,0,.76.06,1.06.17.3.12.55.27.74.47.19.2.34.44.43.71.1.27.14.56.14.88v2.48c0,.19,0,.39.02.61.01.21.03.39.07.52h-1.02c-.06-.27-.1-.54-.1-.82h-.04c-.21.3-.47.54-.79.71s-.69.25-1.12.25c-.22,0-.46-.03-.7-.09-.24-.06-.47-.16-.67-.29-.2-.14-.37-.32-.5-.54-.13-.22-.2-.5-.2-.83,0-.43.12-.77.35-1.03s.54-.44.91-.58.8-.22,1.27-.26.95-.06,1.43-.06v-.16ZM148.65,61.01c-.28,0-.57.01-.87.04-.3.02-.57.07-.82.14-.24.07-.45.18-.61.32s-.24.34-.24.58c0,.17.03.31.1.42.07.11.16.2.27.28.11.07.24.12.37.15.14.03.28.04.42.04.53,0,.93-.16,1.22-.47.28-.32.43-.71.43-1.19v-.3h-.28Z"/>
        <path class="cls-2" d="M153.69,58.19c.32-.21.69-.32,1.12-.32.38,0,.73.09,1.04.26.31.18.55.47.73.88.19-.37.46-.65.8-.85.34-.2.72-.29,1.13-.29.37,0,.68.06.95.19.26.12.48.29.66.5s.31.45.39.73.13.58.13.9v3.53h-1.13v-3.16c0-.23-.02-.45-.06-.66-.04-.21-.11-.39-.2-.55-.1-.16-.22-.29-.38-.38-.16-.1-.36-.14-.61-.14s-.48.05-.66.16c-.18.11-.33.25-.45.42-.12.17-.2.37-.25.58-.05.22-.08.44-.08.66v3.07h-1.13v-3.38c0-.22-.02-.43-.06-.61-.04-.18-.11-.34-.2-.47-.1-.13-.22-.24-.37-.31-.15-.08-.34-.11-.56-.11-.42,0-.76.17-1.04.51-.28.34-.41.79-.41,1.36v3.02h-1.13v-4.46c0-.15,0-.35-.01-.59s-.02-.45-.04-.64h1.07c.02.14.03.31.04.49s.01.33.01.45h.04c.14-.3.37-.56.69-.77Z"/>
        <path class="cls-2" d="M167.85,60.83v.19c0,.06,0,.13-.01.19h-4.52c0,.24.06.46.16.67.1.21.23.39.4.55.17.15.36.28.58.36.22.09.45.13.7.13.38,0,.72-.08,1-.25.28-.17.5-.37.66-.61l.79.64c-.3.4-.66.7-1.07.89-.41.19-.87.29-1.37.29-.43,0-.83-.07-1.2-.22-.37-.14-.68-.35-.95-.61-.26-.26-.47-.57-.62-.94-.15-.37-.23-.78-.23-1.22s.07-.85.22-1.22.35-.69.62-.95c.26-.26.58-.47.94-.62.36-.15.75-.22,1.17-.22s.8.07,1.14.2c.34.14.63.33.87.59.24.26.42.57.55.93.13.36.19.77.19,1.23ZM166.7,60.37c0-.22-.05-.43-.11-.63-.07-.2-.17-.37-.3-.51-.13-.14-.3-.26-.49-.34-.2-.08-.43-.13-.69-.13-.24,0-.47.04-.68.13s-.4.2-.55.34c-.16.14-.28.31-.38.51-.1.2-.16.41-.17.63h3.38Z"/>
        <path class="cls-2" d="M172.48,59.47c-.13-.21-.31-.38-.54-.51s-.49-.2-.78-.2c-.13,0-.26.01-.38.04s-.24.07-.34.13c-.1.06-.18.14-.24.23-.06.09-.09.21-.09.34,0,.24.11.42.32.53.22.12.54.22.97.32.27.06.52.14.76.23.23.09.43.2.61.33.17.13.31.29.4.47.1.18.14.4.14.65,0,.34-.06.62-.19.85-.13.23-.3.42-.51.57-.21.15-.45.25-.73.32-.27.06-.55.1-.84.1-.43,0-.85-.08-1.27-.25s-.75-.42-1.03-.77l.8-.68c.15.22.36.41.63.56.27.15.56.23.88.23.14,0,.28-.01.41-.04s.25-.07.36-.14c.11-.06.19-.15.26-.25.06-.1.1-.24.1-.4,0-.26-.13-.46-.38-.59s-.62-.25-1.11-.36c-.19-.05-.39-.11-.58-.17-.2-.07-.37-.16-.53-.28s-.29-.27-.39-.45c-.1-.18-.15-.4-.15-.67,0-.3.06-.57.19-.79.12-.22.29-.4.49-.54.2-.14.43-.24.68-.31.26-.07.52-.1.79-.1.41,0,.8.08,1.18.24.38.16.67.39.88.7l-.78.66Z"/>
        <path class="cls-2" d="M179.06,55.98c0,.21-.07.38-.22.52-.15.14-.32.2-.53.2s-.38-.07-.52-.21c-.14-.14-.21-.31-.21-.51s.07-.38.21-.52c.14-.14.32-.21.52-.21s.38.07.53.21c.15.14.22.31.22.52ZM178.88,63.72h-1.13v-5.69h1.13v5.69Z"/>
        <path class="cls-2" d="M181.87,58.03c.02.14.03.31.04.49s.01.33.01.45h.04c.07-.15.17-.29.29-.43s.27-.25.43-.35c.16-.1.34-.18.53-.23.19-.06.39-.08.6-.08.37,0,.68.06.95.19s.48.29.66.5c.18.21.31.45.39.73s.13.58.13.9v3.53h-1.13v-3.16c0-.23-.02-.45-.05-.66-.04-.21-.1-.39-.2-.55s-.23-.29-.4-.38-.38-.14-.65-.14c-.45,0-.81.17-1.1.51s-.43.79-.43,1.36v3.02h-1.13v-4.46c0-.15,0-.35-.01-.59s-.02-.45-.04-.64h1.07Z"/>
        <path class="cls-2" d="M191.81,59.47c-.12-.18-.3-.34-.54-.46-.24-.12-.5-.19-.77-.19-.3,0-.56.06-.79.17-.23.11-.42.26-.58.45-.16.19-.28.41-.37.65s-.13.51-.13.78.04.53.13.78c.08.25.21.47.37.65.16.19.36.34.59.45.23.11.5.17.79.17s.55-.06.79-.17.43-.26.58-.46l.76.68c-.24.28-.54.5-.9.65-.36.16-.77.23-1.22.23s-.85-.07-1.22-.22c-.37-.14-.69-.35-.97-.61s-.49-.57-.64-.94c-.16-.37-.23-.78-.23-1.24s.08-.86.23-1.22c.15-.37.36-.68.64-.95.27-.26.59-.47.97-.61.37-.14.77-.22,1.21-.22.4,0,.8.08,1.19.24.4.16.71.39.94.7l-.82.66Z"/>
        <path class="cls-2" d="M194.91,63.72h-1.13v-9.07h1.13v9.07Z"/>
        <path class="cls-2" d="M200.89,63.72c-.02-.14-.03-.31-.04-.49,0-.18-.01-.33-.01-.45h-.02c-.14.3-.39.56-.73.77-.34.21-.72.32-1.13.32-.37,0-.69-.06-.95-.18-.27-.12-.49-.29-.66-.5-.17-.21-.3-.46-.38-.74s-.13-.58-.13-.9v-3.53h1.13v3.14c0,.23.02.45.05.67s.1.4.2.56c.1.16.23.29.4.38.17.1.38.14.65.14.46,0,.82-.17,1.1-.51.28-.34.42-.79.42-1.36v-3.02h1.13v4.46c0,.15,0,.35.01.59,0,.24.02.45.04.64h-1.07Z"/>
        <path class="cls-2" d="M208.4,62.82c-.22.34-.51.61-.88.79-.37.18-.76.27-1.17.27-.44,0-.84-.08-1.19-.23s-.65-.37-.9-.64c-.25-.27-.44-.59-.58-.96-.14-.37-.2-.76-.2-1.18s.07-.81.2-1.17c.14-.36.33-.68.58-.95.25-.27.55-.48.91-.64.35-.15.74-.23,1.16-.23.46,0,.87.1,1.21.29.34.2.62.43.82.71h.02v-4.24h1.13v9.07h-1.09v-.9h-.02ZM204.65,60.87c0,.26.04.52.12.77s.2.47.36.66c.16.19.36.34.59.46.23.12.5.17.82.17.29,0,.55-.06.79-.17.24-.11.44-.26.61-.45s.3-.4.39-.65c.09-.25.14-.51.14-.78s-.05-.53-.14-.78c-.09-.25-.22-.47-.39-.66s-.37-.34-.61-.46c-.24-.11-.5-.17-.79-.17-.31,0-.58.06-.82.17-.23.11-.43.26-.59.46-.16.19-.28.41-.36.66-.08.25-.12.5-.12.77Z"/>
        <path class="cls-2" d="M216.8,60.83v.19c0,.06,0,.13-.01.19h-4.52c0,.24.06.46.16.67.1.21.23.39.4.55.17.15.36.28.58.36.22.09.45.13.7.13.38,0,.72-.08,1-.25.28-.17.5-.37.66-.61l.79.64c-.3.4-.66.7-1.07.89-.41.19-.87.29-1.37.29-.43,0-.83-.07-1.2-.22-.37-.14-.68-.35-.95-.61-.26-.26-.47-.57-.62-.94-.15-.37-.23-.78-.23-1.22s.07-.85.22-1.22.35-.69.62-.95c.26-.26.58-.47.94-.62.36-.15.75-.22,1.17-.22s.8.07,1.14.2c.34.14.63.33.87.59.24.26.42.57.55.93.13.36.19.77.19,1.23ZM215.65,60.37c0-.22-.05-.43-.11-.63-.07-.2-.17-.37-.3-.51-.13-.14-.3-.26-.49-.34-.2-.08-.43-.13-.69-.13-.24,0-.47.04-.68.13s-.4.2-.55.34c-.16.14-.28.31-.38.51-.1.2-.16.41-.17.63h3.38Z"/>
        <path class="cls-2" d="M222.89,62.82c-.22.34-.51.61-.88.79-.37.18-.76.27-1.17.27-.44,0-.84-.08-1.19-.23s-.65-.37-.9-.64c-.25-.27-.44-.59-.58-.96-.14-.37-.2-.76-.2-1.18s.07-.81.2-1.17c.14-.36.33-.68.58-.95.25-.27.55-.48.91-.64.35-.15.74-.23,1.16-.23.46,0,.87.1,1.21.29.34.2.62.43.82.71h.02v-4.24h1.13v9.07h-1.09v-.9h-.02ZM219.15,60.87c0,.26.04.52.12.77s.2.47.36.66c.16.19.36.34.59.46.23.12.5.17.82.17.29,0,.55-.06.79-.17.24-.11.44-.26.61-.45s.3-.4.39-.65c.09-.25.14-.51.14-.78s-.05-.53-.14-.78c-.09-.25-.22-.47-.39-.66s-.37-.34-.61-.46c-.24-.11-.5-.17-.79-.17-.31,0-.58.06-.82.17-.23.11-.43.26-.59.46-.16.19-.28.41-.36.66-.08.25-.12.5-.12.77Z"/>
        <path class="cls-2" d="M17.42,75.23v.19c0,.06,0,.13-.01.19h-4.52c0,.24.06.46.16.67.1.21.23.39.4.55.17.15.36.28.58.36.22.09.45.13.7.13.38,0,.72-.08,1-.25.28-.17.5-.37.66-.61l.79.64c-.3.4-.66.7-1.07.89-.41.19-.87.29-1.37.29-.43,0-.83-.07-1.2-.22-.37-.14-.68-.35-.95-.61-.26-.26-.47-.57-.62-.94-.15-.37-.23-.78-.23-1.22s.07-.85.22-1.22.35-.69.62-.95c.26-.26.58-.47.94-.62.36-.15.75-.22,1.17-.22s.8.07,1.14.2c.34.14.63.33.87.59.24.26.42.57.55.93.13.36.19.77.19,1.23ZM16.27,74.77c0-.22-.05-.43-.11-.63-.07-.2-.17-.37-.3-.51-.13-.14-.3-.26-.49-.34-.2-.08-.43-.13-.69-.13-.24,0-.47.04-.68.13s-.4.2-.55.34c-.16.14-.28.31-.38.51-.1.2-.16.41-.17.63h3.38Z"/>
        <path class="cls-2" d="M20.23,77.06h3.79v1.06h-4.98v-8.5h1.19v7.44Z"/>
        <path class="cls-2" d="M26.43,70.38c0,.21-.07.38-.22.52-.15.14-.32.2-.53.2s-.38-.07-.52-.21c-.14-.14-.21-.31-.21-.51s.07-.38.21-.52c.14-.14.32-.21.52-.21s.38.07.53.21c.15.14.22.31.22.52ZM26.25,78.12h-1.13v-5.69h1.13v5.69Z"/>
        <path class="cls-2" d="M29.24,72.43c.02.14.03.31.04.49s.01.33.01.45h.04c.07-.15.17-.29.29-.43s.27-.25.43-.35c.16-.1.34-.18.53-.23.19-.06.39-.08.6-.08.37,0,.68.06.95.19s.48.29.66.5c.18.21.31.45.39.73s.13.58.13.9v3.53h-1.13v-3.16c0-.23-.02-.45-.05-.66-.04-.21-.1-.39-.2-.55s-.23-.29-.4-.38-.38-.14-.65-.14c-.45,0-.81.17-1.1.51s-.43.79-.43,1.36v3.02h-1.13v-4.46c0-.15,0-.35-.01-.59s-.02-.45-.04-.64h1.07Z"/>
        <path class="cls-2" d="M40.52,75.23v.19c0,.06,0,.13-.01.19h-4.52c0,.24.06.46.16.67.1.21.23.39.4.55.17.15.36.28.58.36.22.09.45.13.7.13.38,0,.72-.08,1-.25.28-.17.5-.37.66-.61l.79.64c-.3.4-.66.7-1.07.89-.41.19-.87.29-1.37.29-.43,0-.83-.07-1.2-.22-.37-.14-.68-.35-.95-.61-.26-.26-.47-.57-.62-.94-.15-.37-.23-.78-.23-1.22s.07-.85.22-1.22.35-.69.62-.95c.26-.26.58-.47.94-.62.36-.15.75-.22,1.17-.22s.8.07,1.14.2c.34.14.63.33.87.59.24.26.42.57.55.93.13.36.19.77.19,1.23ZM39.37,74.77c0-.22-.05-.43-.11-.63-.07-.2-.17-.37-.3-.51-.13-.14-.3-.26-.49-.34-.2-.08-.43-.13-.69-.13-.24,0-.47.04-.68.13s-.4.2-.55.34c-.16.14-.28.31-.38.51-.1.2-.16.41-.17.63h3.38Z"/>
        <path class="cls-2" d="M42.07,73.07c0-.24-.02-.45-.04-.64h1.07c.02.14.03.31.04.5,0,.19.01.34.01.46h.04c.16-.34.39-.61.7-.81s.65-.31,1.04-.31c.18,0,.32.02.44.05l-.05,1.04c-.16-.04-.33-.06-.52-.06-.27,0-.51.05-.71.15-.2.1-.37.23-.5.4-.13.17-.23.36-.29.58s-.1.45-.1.69v2.99h-1.13v-4.46c0-.15,0-.35-.01-.59Z"/>
        <path class="cls-2" d="M46.24,79.72h-.96l.83-3h1.13l-1,3Z"/>
        <path class="cls-2" d="M58.08,71.38c-.26-.28-.58-.5-.98-.67s-.84-.25-1.33-.25-.94.09-1.34.27c-.4.18-.74.43-1.02.74-.28.31-.5.67-.65,1.09s-.23.85-.23,1.31.08.92.23,1.33.37.78.65,1.09c.28.31.62.55,1.03.73.41.18.86.26,1.37.26.4,0,.77-.04,1.1-.11s.63-.18.88-.31v-2.36h-1.88v-1.01h3.06v4.12c-.45.24-.94.42-1.46.55-.53.13-1.1.19-1.73.19-.66,0-1.27-.11-1.83-.33-.56-.22-1.03-.53-1.43-.92-.4-.4-.71-.87-.94-1.42-.22-.55-.34-1.15-.34-1.81s.11-1.27.34-1.82.54-1.02.95-1.4c.4-.39.88-.69,1.43-.91.55-.22,1.15-.32,1.8-.32.68,0,1.29.1,1.82.3s.97.47,1.33.8l-.83.86Z"/>
        <path class="cls-2" d="M62.1,78.12h-1.13v-9.07h1.13v9.07Z"/>
        <path class="cls-2" d="M69.82,75.26c0,.44-.08.84-.23,1.21-.16.37-.37.69-.65.95-.28.27-.6.48-.98.62-.38.15-.78.22-1.21.22s-.84-.07-1.21-.22c-.38-.15-.7-.36-.97-.62-.27-.27-.49-.59-.64-.95-.16-.37-.23-.77-.23-1.21s.08-.84.23-1.21c.16-.36.37-.68.64-.94s.6-.47.97-.62c.38-.15.78-.22,1.21-.22s.84.07,1.21.22c.38.15.7.35.98.62s.49.58.65.94c.16.36.23.77.23,1.21ZM68.65,75.27c0-.27-.04-.53-.13-.78-.08-.25-.21-.46-.37-.65s-.36-.34-.6-.45c-.24-.11-.51-.17-.81-.17s-.58.06-.81.17c-.24.11-.44.26-.6.45-.16.19-.28.4-.37.65-.08.25-.13.51-.13.78s.04.53.13.78c.08.25.21.47.37.66.16.19.36.34.6.46.24.11.51.17.81.17s.58-.06.81-.17c.24-.11.44-.26.6-.46s.28-.41.37-.66c.08-.25.13-.51.13-.78Z"/>
        <path class="cls-2" d="M72.5,77.22v.9h-1.09v-9.07h1.13v4.24h.04c.19-.28.46-.52.8-.71s.75-.29,1.22-.29c.42,0,.81.08,1.15.23.35.15.65.36.9.64.25.27.44.59.58.95.14.36.2.75.2,1.17s-.07.81-.2,1.18-.33.69-.57.96c-.25.27-.55.49-.9.64s-.75.23-1.19.23c-.41,0-.79-.09-1.16-.27-.37-.18-.66-.44-.89-.79h-.02ZM76.28,75.27c0-.26-.04-.52-.12-.77-.08-.25-.2-.47-.36-.66-.16-.19-.36-.34-.59-.46-.24-.11-.51-.17-.82-.17-.29,0-.55.06-.79.17-.24.11-.44.26-.61.46s-.3.41-.39.66c-.09.25-.14.51-.14.78s.05.53.14.78c.09.25.22.46.39.65s.37.34.61.45c.24.11.5.17.79.17.31,0,.59-.06.82-.17.24-.12.43-.27.59-.46.16-.19.28-.41.36-.66.08-.25.12-.5.12-.77Z"/>
        <path class="cls-2" d="M82.56,74.44c0-.42-.13-.74-.38-.94s-.6-.31-1.02-.31c-.32,0-.62.06-.91.19-.28.12-.52.28-.71.47l-.6-.72c.28-.26.62-.47,1.03-.62.4-.15.84-.23,1.3-.23.41,0,.76.06,1.06.17.3.12.55.27.74.47.19.2.34.44.43.71.1.27.14.56.14.88v2.48c0,.19,0,.39.02.61.01.21.03.39.07.52h-1.02c-.06-.27-.1-.54-.1-.82h-.04c-.21.3-.47.54-.79.71s-.69.25-1.12.25c-.22,0-.46-.03-.7-.09-.24-.06-.47-.16-.67-.29-.2-.14-.37-.32-.5-.54-.13-.22-.2-.5-.2-.83,0-.43.12-.77.35-1.03s.54-.44.91-.58.8-.22,1.27-.26.95-.06,1.43-.06v-.16ZM82.28,75.41c-.28,0-.57.01-.87.04-.3.02-.57.07-.82.14-.24.07-.45.18-.61.32s-.24.34-.24.58c0,.17.03.31.1.42.07.11.16.2.27.28.11.07.24.12.37.15.14.03.28.04.42.04.53,0,.93-.16,1.22-.47.28-.32.43-.71.43-1.19v-.3h-.28Z"/>
        <path class="cls-2" d="M86.67,78.12h-1.13v-9.07h1.13v9.07Z"/>
        <path class="cls-2" d="M98.98,76.8c-.34.46-.77.83-1.31,1.11-.54.28-1.18.43-1.93.43-.65,0-1.25-.11-1.79-.33-.55-.22-1.02-.53-1.42-.92-.4-.4-.71-.87-.93-1.42-.22-.55-.34-1.15-.34-1.81s.11-1.27.34-1.82.54-1.02.95-1.4c.4-.39.88-.69,1.43-.91.55-.22,1.15-.32,1.8-.32.29,0,.58.03.88.08s.58.14.85.25.52.25.74.41c.22.16.42.35.58.57l-.94.72c-.21-.29-.5-.53-.88-.71-.38-.19-.79-.28-1.23-.28-.5,0-.94.09-1.34.27-.4.18-.73.43-1.01.74-.28.31-.5.67-.65,1.09s-.23.85-.23,1.31.07.93.22,1.34c.15.42.36.78.64,1.09.28.31.61.55,1.01.73.4.18.84.26,1.33.26s.92-.1,1.31-.29.72-.47.97-.84l.95.65Z"/>
        <path class="cls-2" d="M100.12,73.07c0-.24-.02-.45-.04-.64h1.07c.02.14.03.31.04.5,0,.19.01.34.01.46h.04c.16-.34.39-.61.7-.81s.65-.31,1.04-.31c.18,0,.32.02.44.05l-.05,1.04c-.16-.04-.33-.06-.52-.06-.27,0-.51.05-.71.15-.2.1-.37.23-.5.4-.13.17-.23.36-.29.58s-.1.45-.1.69v2.99h-1.13v-4.46c0-.15,0-.35-.01-.59Z"/>
        <path class="cls-2" d="M108.49,78.12c-.02-.14-.03-.31-.04-.49,0-.18-.01-.33-.01-.45h-.02c-.14.3-.39.56-.73.77-.34.21-.72.32-1.13.32-.37,0-.69-.06-.95-.18-.27-.12-.49-.29-.66-.5-.17-.21-.3-.46-.38-.74s-.13-.58-.13-.9v-3.53h1.13v3.14c0,.23.02.45.05.67s.1.4.2.56c.1.16.23.29.4.38.17.1.38.14.65.14.46,0,.82-.17,1.1-.51.28-.34.42-.79.42-1.36v-3.02h1.13v4.46c0,.15,0,.35.01.59,0,.24.02.45.04.64h-1.07Z"/>
        <path class="cls-2" d="M112.78,70.38c0,.21-.07.38-.22.52-.15.14-.32.2-.53.2s-.38-.07-.52-.21c-.14-.14-.21-.31-.21-.51s.07-.38.21-.52c.14-.14.32-.21.52-.21s.38.07.53.21c.15.14.22.31.22.52ZM112.6,78.12h-1.13v-5.69h1.13v5.69Z"/>
        <path class="cls-2" d="M117.64,73.87c-.13-.21-.31-.38-.54-.51s-.49-.2-.78-.2c-.13,0-.26.01-.38.04s-.24.07-.34.13c-.1.06-.18.14-.24.23-.06.09-.09.21-.09.34,0,.24.11.42.32.53.22.12.54.22.97.32.27.06.52.14.76.23.23.09.43.2.61.33.17.13.31.29.4.47.1.18.14.4.14.65,0,.34-.06.62-.19.85-.13.23-.3.42-.51.57-.21.15-.45.25-.73.32-.27.06-.55.1-.84.1-.43,0-.85-.08-1.27-.25s-.75-.42-1.03-.77l.8-.68c.15.22.36.41.63.56.27.15.56.23.88.23.14,0,.28-.01.41-.04s.25-.07.36-.14c.11-.06.19-.15.26-.25.06-.1.1-.24.1-.4,0-.26-.13-.46-.38-.59s-.62-.25-1.11-.36c-.19-.05-.39-.11-.58-.17-.2-.07-.37-.16-.53-.28s-.29-.27-.39-.45c-.1-.18-.15-.4-.15-.67,0-.3.06-.57.19-.79.12-.22.29-.4.49-.54.2-.14.43-.24.68-.31.26-.07.52-.1.79-.1.41,0,.8.08,1.18.24.38.16.67.39.88.7l-.78.66Z"/>
        <path class="cls-2" d="M125.22,75.23v.19c0,.06,0,.13-.01.19h-4.52c0,.24.06.46.16.67.1.21.23.39.4.55.17.15.36.28.58.36.22.09.45.13.7.13.38,0,.72-.08,1-.25.28-.17.5-.37.66-.61l.79.64c-.3.4-.66.7-1.07.89-.41.19-.87.29-1.37.29-.43,0-.83-.07-1.2-.22-.37-.14-.68-.35-.95-.61-.26-.26-.47-.57-.62-.94-.15-.37-.23-.78-.23-1.22s.07-.85.22-1.22.35-.69.62-.95c.26-.26.58-.47.94-.62.36-.15.75-.22,1.17-.22s.8.07,1.14.2c.34.14.63.33.87.59.24.26.42.57.55.93.13.36.19.77.19,1.23ZM124.06,74.77c0-.22-.05-.43-.11-.63-.07-.2-.17-.37-.3-.51-.13-.14-.3-.26-.49-.34-.2-.08-.43-.13-.69-.13-.24,0-.47.04-.68.13s-.4.2-.55.34c-.16.14-.28.31-.38.51-.1.2-.16.41-.17.63h3.38Z"/>
        <path class="cls-2" d="M126.76,73.07c0-.24-.02-.45-.04-.64h1.07c.02.14.03.31.04.5,0,.19.01.34.01.46h.04c.16-.34.39-.61.7-.81s.65-.31,1.04-.31c.18,0,.32.02.44.05l-.05,1.04c-.16-.04-.33-.06-.52-.06-.27,0-.51.05-.71.15-.2.1-.37.23-.5.4-.13.17-.23.36-.29.58s-.1.45-.1.69v2.99h-1.13v-4.46c0-.15,0-.35-.01-.59Z"/>
        <path class="cls-2" d="M130.94,79.72h-.96l.83-3h1.13l-1,3Z"/>
        <path class="cls-2" d="M139.84,74.44c0-.42-.13-.74-.38-.94s-.6-.31-1.02-.31c-.32,0-.62.06-.91.19-.28.12-.52.28-.71.47l-.6-.72c.28-.26.62-.47,1.03-.62.4-.15.84-.23,1.3-.23.41,0,.76.06,1.06.17.3.12.55.27.74.47.19.2.34.44.43.71.1.27.14.56.14.88v2.48c0,.19,0,.39.02.61.01.21.03.39.07.52h-1.02c-.06-.27-.1-.54-.1-.82h-.04c-.21.3-.47.54-.79.71s-.69.25-1.12.25c-.22,0-.46-.03-.7-.09-.24-.06-.47-.16-.67-.29-.2-.14-.37-.32-.5-.54-.13-.22-.2-.5-.2-.83,0-.43.12-.77.35-1.03s.54-.44.91-.58.8-.22,1.27-.26.95-.06,1.43-.06v-.16ZM139.57,75.41c-.28,0-.57.01-.87.04-.3.02-.57.07-.82.14-.24.07-.45.18-.61.32s-.24.34-.24.58c0,.17.03.31.1.42.07.11.16.2.27.28.11.07.24.12.37.15.14.03.28.04.42.04.53,0,.93-.16,1.22-.47.28-.32.43-.71.43-1.19v-.3h-.28Z"/>
        <path class="cls-2" d="M143.83,72.43c.02.14.03.31.04.49s.01.33.01.45h.04c.07-.15.17-.29.29-.43s.27-.25.43-.35c.16-.1.34-.18.53-.23.19-.06.39-.08.6-.08.37,0,.68.06.95.19s.48.29.66.5c.18.21.31.45.39.73s.13.58.13.9v3.53h-1.13v-3.16c0-.23-.02-.45-.05-.66-.04-.21-.1-.39-.2-.55s-.23-.29-.4-.38-.38-.14-.65-.14c-.45,0-.81.17-1.1.51s-.43.79-.43,1.36v3.02h-1.13v-4.46c0-.15,0-.35-.01-.59s-.02-.45-.04-.64h1.07Z"/>
        <path class="cls-2" d="M154.33,77.22c-.22.34-.51.61-.88.79-.37.18-.76.27-1.17.27-.44,0-.84-.08-1.19-.23s-.65-.37-.9-.64c-.25-.27-.44-.59-.58-.96-.14-.37-.2-.76-.2-1.18s.07-.81.2-1.17c.14-.36.33-.68.58-.95.25-.27.55-.48.91-.64.35-.15.74-.23,1.16-.23.46,0,.87.1,1.21.29.34.2.62.43.82.71h.02v-4.24h1.13v9.07h-1.09v-.9h-.02ZM150.58,75.27c0,.26.04.52.12.77s.2.47.36.66c.16.19.36.34.59.46.23.12.5.17.82.17.29,0,.55-.06.79-.17.24-.11.44-.26.61-.45s.3-.4.39-.65c.09-.25.14-.51.14-.78s-.05-.53-.14-.78c-.09-.25-.22-.47-.39-.66s-.37-.34-.61-.46c-.24-.11-.5-.17-.79-.17-.31,0-.58.06-.82.17-.23.11-.43.26-.59.46-.16.19-.28.41-.36.66-.08.25-.12.5-.12.77Z"/>
        <path class="cls-2" d="M164.7,71.2c-.17-.23-.4-.42-.68-.57-.29-.15-.61-.22-.97-.22-.19,0-.39.03-.58.08-.2.05-.37.14-.53.25s-.29.26-.39.43c-.1.17-.15.38-.15.62s.05.43.14.58c.09.16.22.29.37.4.16.11.34.2.55.28s.44.15.68.23c.29.09.58.19.88.3s.56.26.8.44c.24.18.44.41.59.69.15.28.23.63.23,1.05s-.08.82-.25,1.15c-.16.32-.38.59-.65.8s-.59.37-.94.47c-.36.1-.72.16-1.1.16-.54,0-1.05-.1-1.55-.31s-.91-.52-1.24-.92l.92-.78c.2.3.47.54.8.72.34.18.7.28,1.09.28.2,0,.4-.03.6-.08.2-.06.38-.14.55-.26.16-.12.3-.27.4-.45.1-.18.16-.4.16-.65s-.05-.47-.16-.64c-.11-.17-.25-.32-.44-.44-.18-.12-.4-.22-.64-.31-.24-.08-.5-.17-.77-.26-.27-.08-.54-.18-.8-.29-.26-.12-.5-.26-.71-.44-.21-.18-.38-.4-.5-.67-.13-.26-.19-.59-.19-.98,0-.42.09-.79.26-1.09s.4-.56.67-.76c.28-.2.59-.35.94-.44.35-.09.7-.14,1.05-.14.5,0,.96.09,1.39.26.43.18.78.41,1.04.71l-.84.82Z"/>
        <path class="cls-2" d="M169.95,73.36h-1.51v2.96c0,.34.06.59.19.74s.33.22.61.22c.1,0,.22-.01.34-.03.12-.02.23-.05.32-.1l.04.92c-.14.05-.29.08-.45.11s-.33.04-.51.04c-.54,0-.95-.15-1.23-.44-.28-.3-.43-.74-.43-1.33v-3.08h-1.09v-.92h1.09v-1.63h1.12v1.63h1.51v.92Z"/>
        <path class="cls-2" d="M171.1,73.07c0-.24-.02-.45-.04-.64h1.07c.02.14.03.31.04.5,0,.19.01.34.01.46h.04c.16-.34.39-.61.7-.81s.65-.31,1.04-.31c.18,0,.32.02.44.05l-.05,1.04c-.16-.04-.33-.06-.52-.06-.27,0-.51.05-.71.15-.2.1-.37.23-.5.4-.13.17-.23.36-.29.58s-.1.45-.1.69v2.99h-1.13v-4.46c0-.15,0-.35-.01-.59Z"/>
        <path class="cls-2" d="M178.84,74.44c0-.42-.13-.74-.38-.94s-.6-.31-1.02-.31c-.32,0-.62.06-.91.19-.28.12-.52.28-.71.47l-.6-.72c.28-.26.62-.47,1.03-.62.4-.15.84-.23,1.3-.23.41,0,.76.06,1.06.17.3.12.55.27.74.47.19.2.34.44.43.71.1.27.14.56.14.88v2.48c0,.19,0,.39.02.61.01.21.03.39.07.52h-1.02c-.06-.27-.1-.54-.1-.82h-.04c-.21.3-.47.54-.79.71s-.69.25-1.12.25c-.22,0-.46-.03-.7-.09-.24-.06-.47-.16-.67-.29-.2-.14-.37-.32-.5-.54-.13-.22-.2-.5-.2-.83,0-.43.12-.77.35-1.03s.54-.44.91-.58.8-.22,1.27-.26.95-.06,1.43-.06v-.16ZM178.57,75.41c-.28,0-.57.01-.87.04-.3.02-.57.07-.82.14-.24.07-.45.18-.61.32s-.24.34-.24.58c0,.17.03.31.1.42.07.11.16.2.27.28.11.07.24.12.37.15.14.03.28.04.42.04.53,0,.93-.16,1.22-.47.28-.32.43-.71.43-1.19v-.3h-.28Z"/>
        <path class="cls-2" d="M184.47,73.36h-1.51v2.96c0,.34.06.59.19.74s.33.22.61.22c.1,0,.22-.01.34-.03.12-.02.23-.05.32-.1l.04.92c-.14.05-.29.08-.45.11s-.33.04-.51.04c-.54,0-.95-.15-1.23-.44-.28-.3-.43-.74-.43-1.33v-3.08h-1.09v-.92h1.09v-1.63h1.12v1.63h1.51v.92Z"/>
        <path class="cls-2" d="M191.4,75.26c0,.44-.08.84-.23,1.21-.16.37-.37.69-.65.95-.28.27-.6.48-.98.62-.38.15-.78.22-1.21.22s-.84-.07-1.21-.22c-.38-.15-.7-.36-.97-.62-.27-.27-.49-.59-.64-.95-.16-.37-.23-.77-.23-1.21s.08-.84.23-1.21c.16-.36.37-.68.64-.94s.6-.47.97-.62c.38-.15.78-.22,1.21-.22s.84.07,1.21.22c.38.15.7.35.98.62s.49.58.65.94c.16.36.23.77.23,1.21ZM190.22,75.27c0-.27-.04-.53-.13-.78-.08-.25-.21-.46-.37-.65s-.36-.34-.6-.45c-.24-.11-.51-.17-.81-.17s-.58.06-.81.17c-.24.11-.44.26-.6.45-.16.19-.28.4-.37.65-.08.25-.13.51-.13.78s.04.53.13.78c.08.25.21.47.37.66.16.19.36.34.6.46.24.11.51.17.81.17s.58-.06.81-.17c.24-.11.44-.26.6-.46s.28-.41.37-.66c.08-.25.13-.51.13-.78Z"/>
        <path class="cls-2" d="M196.94,73.87c-.12-.18-.3-.34-.54-.46-.24-.12-.5-.19-.77-.19-.3,0-.56.06-.79.17-.23.11-.42.26-.58.45-.16.19-.28.41-.37.65s-.13.51-.13.78.04.53.13.78c.08.25.21.47.37.65.16.19.36.34.59.45.23.11.5.17.79.17s.55-.06.79-.17.43-.26.58-.46l.76.68c-.24.28-.54.5-.9.65-.36.16-.77.23-1.22.23s-.85-.07-1.22-.22c-.37-.14-.69-.35-.97-.61s-.49-.57-.64-.94c-.16-.37-.23-.78-.23-1.24s.08-.86.23-1.22c.15-.37.36-.68.64-.95.27-.26.59-.47.97-.61.37-.14.77-.22,1.21-.22.4,0,.8.08,1.19.24.4.16.71.39.94.7l-.82.66Z"/>
        <path class="cls-2" d="M200.04,78.12h-1.13v-9.07h1.13v9.07Z"/>
        <path class="cls-2" d="M203.32,70.38c0,.21-.07.38-.22.52-.15.14-.32.2-.53.2s-.38-.07-.52-.21c-.14-.14-.21-.31-.21-.51s.07-.38.21-.52c.14-.14.32-.21.52-.21s.38.07.53.21c.15.14.22.31.22.52ZM203.14,78.12h-1.13v-5.69h1.13v5.69Z"/>
        <path class="cls-2" d="M206.91,72.59c.32-.21.69-.32,1.12-.32.38,0,.73.09,1.04.26.31.18.55.47.73.88.19-.37.46-.65.8-.85.34-.2.72-.29,1.13-.29.37,0,.68.06.95.19.26.12.48.29.66.5s.31.45.39.73.13.58.13.9v3.53h-1.13v-3.16c0-.23-.02-.45-.06-.66-.04-.21-.11-.39-.2-.55-.1-.16-.22-.29-.38-.38-.16-.1-.36-.14-.61-.14s-.48.05-.66.16c-.18.11-.33.25-.45.42-.12.17-.2.37-.25.58-.05.22-.08.44-.08.66v3.07h-1.13v-3.38c0-.22-.02-.43-.06-.61-.04-.18-.11-.34-.2-.47-.1-.13-.22-.24-.37-.31-.15-.08-.34-.11-.56-.11-.42,0-.76.17-1.04.51-.28.34-.41.79-.41,1.36v3.02h-1.13v-4.46c0-.15,0-.35-.01-.59s-.02-.45-.04-.64h1.07c.02.14.03.31.04.49s.01.33.01.45h.04c.14-.3.37-.56.69-.77Z"/>
        <path class="cls-2" d="M216.87,77.22v.9h-1.09v-9.07h1.13v4.24h.04c.19-.28.46-.52.8-.71s.75-.29,1.22-.29c.42,0,.81.08,1.15.23.35.15.65.36.9.64.25.27.44.59.58.95.14.36.2.75.2,1.17s-.07.81-.2,1.18-.33.69-.57.96c-.25.27-.55.49-.9.64s-.75.23-1.19.23c-.41,0-.79-.09-1.16-.27-.37-.18-.66-.44-.89-.79h-.02ZM220.65,75.27c0-.26-.04-.52-.12-.77-.08-.25-.2-.47-.36-.66-.16-.19-.36-.34-.59-.46-.24-.11-.51-.17-.82-.17-.29,0-.55.06-.79.17-.24.11-.44.26-.61.46s-.3.41-.39.66c-.09.25-.14.51-.14.78s.05.53.14.78c.09.25.22.46.39.65s.37.34.61.45c.24.11.5.17.79.17.31,0,.59-.06.82-.17.24-.12.43-.27.59-.46.16-.19.28-.41.36-.66.08-.25.12-.5.12-.77Z"/>
        <path class="cls-2" d="M228.7,75.23v.19c0,.06,0,.13-.01.19h-4.52c0,.24.06.46.16.67.1.21.23.39.4.55.17.15.36.28.58.36.22.09.45.13.7.13.38,0,.72-.08,1-.25.28-.17.5-.37.66-.61l.79.64c-.3.4-.66.7-1.07.89-.41.19-.87.29-1.37.29-.43,0-.83-.07-1.2-.22-.37-.14-.68-.35-.95-.61-.26-.26-.47-.57-.62-.94-.15-.37-.23-.78-.23-1.22s.07-.85.22-1.22.35-.69.62-.95c.26-.26.58-.47.94-.62.36-.15.75-.22,1.17-.22s.8.07,1.14.2c.34.14.63.33.87.59.24.26.42.57.55.93.13.36.19.77.19,1.23ZM227.55,74.77c0-.22-.05-.43-.11-.63-.07-.2-.17-.37-.3-.51-.13-.14-.3-.26-.49-.34-.2-.08-.43-.13-.69-.13-.24,0-.47.04-.68.13s-.4.2-.55.34c-.16.14-.28.31-.38.51-.1.2-.16.41-.17.63h3.38Z"/>
        <path class="cls-2" d="M230.25,73.07c0-.24-.02-.45-.04-.64h1.07c.02.14.03.31.04.5,0,.19.01.34.01.46h.04c.16-.34.39-.61.7-.81s.65-.31,1.04-.31c.18,0,.32.02.44.05l-.05,1.04c-.16-.04-.33-.06-.52-.06-.27,0-.51.05-.71.15-.2.1-.37.23-.5.4-.13.17-.23.36-.29.58s-.1.45-.1.69v2.99h-1.13v-4.46c0-.15,0-.35-.01-.59Z"/>
        <path class="cls-2" d="M235.42,77.4c0,.21-.08.39-.23.55-.15.16-.34.24-.58.24s-.41-.08-.57-.23c-.16-.16-.23-.34-.23-.55s.08-.4.23-.56c.15-.16.34-.23.58-.23s.42.08.58.23c.15.15.23.34.23.55Z"/>
      </g>
    </g>
  </g>
</svg>