<?xml version="1.0" encoding="UTF-8"?>
<svg id="Layer_2" data-name="Layer 2" xmlns="http://www.w3.org/2000/svg" viewBox="0 0 253.07 84.23">
  <defs>
    <style>
      .cls-1 {
        fill: #fff;
        stroke: #86b6ee;
        stroke-miterlimit: 10;
        stroke-width: 3.06px;
      }

      .cls-2 {
        fill: #231f20;
      }

      .cls-2, .cls-3 {
        stroke-width: 0px;
      }

      .cls-3 {
        fill: #0239a1;
      }
    </style>
  </defs>
  <g id="Timeline">
    <g>
      <rect class="cls-1" x="1.53" y="1.53" width="250" height="81.17" rx="11" ry="11"/>
      <g>
        <path class="cls-2" d="M22,16.58h-1.19v-7.45h-2.72v-1.04h6.64v1.04h-2.72v7.45Z"/>
        <path class="cls-2" d="M26.76,11.76c.14-.28.37-.52.7-.72s.7-.3,1.1-.3c.37,0,.68.06.95.19.26.12.48.29.66.5s.31.45.39.73c.08.28.13.58.13.9v3.53h-1.13v-3.15c0-.23-.02-.45-.05-.66-.04-.21-.1-.39-.2-.55-.1-.16-.23-.29-.39-.38-.16-.1-.38-.14-.64-.14-.45,0-.82.17-1.1.51s-.43.8-.43,1.37v3.02h-1.13V7.51h1.13v4.25h.02Z"/>
        <path class="cls-2" d="M37.91,13.69v.19c0,.06,0,.13-.01.19h-4.52c0,.24.06.46.16.67.1.21.23.39.4.55.17.16.36.28.58.36.22.09.45.13.7.13.38,0,.72-.08,1-.25s.5-.37.66-.61l.79.64c-.3.4-.66.7-1.07.89s-.87.29-1.37.29c-.43,0-.83-.07-1.2-.22-.37-.14-.68-.35-.95-.61s-.47-.57-.62-.94c-.15-.37-.23-.78-.23-1.22s.07-.85.22-1.22c.15-.37.35-.69.62-.95.26-.26.58-.47.94-.62.36-.15.75-.22,1.17-.22s.8.07,1.14.2c.34.14.63.33.87.59.24.26.42.57.55.93s.19.77.19,1.23ZM36.75,13.23c0-.22-.05-.43-.11-.63-.07-.2-.17-.37-.3-.51s-.3-.26-.49-.34c-.2-.08-.43-.13-.69-.13-.24,0-.47.04-.68.13s-.4.2-.55.34c-.16.14-.28.31-.38.51-.1.2-.16.41-.17.63h3.38Z"/>
        <path class="cls-2" d="M47,15.68c-.22.34-.51.61-.88.79s-.76.27-1.17.27c-.44,0-.84-.08-1.19-.23-.35-.16-.65-.37-.9-.64-.25-.27-.44-.59-.58-.96-.14-.37-.2-.76-.2-1.18s.07-.81.2-1.17.33-.68.58-.95c.25-.27.55-.48.91-.64.35-.15.74-.23,1.16-.23.46,0,.87.1,1.21.29.34.2.62.43.82.71h.02v-4.24h1.13v9.07h-1.09v-.9h-.02ZM43.26,13.73c0,.26.04.52.12.77.08.25.2.47.36.66s.36.35.59.46c.23.12.5.17.82.17.29,0,.55-.06.79-.17.24-.11.44-.26.61-.45s.3-.41.39-.65.14-.51.14-.78-.05-.53-.14-.78-.22-.47-.39-.66c-.17-.19-.37-.34-.61-.45-.24-.11-.5-.17-.79-.17-.31,0-.58.06-.82.17-.23.11-.43.26-.59.45-.16.19-.28.41-.36.66s-.12.5-.12.77Z"/>
        <path class="cls-2" d="M55.4,13.69v.19c0,.06,0,.13-.01.19h-4.52c0,.24.06.46.16.67.1.21.23.39.4.55.17.16.36.28.58.36.22.09.45.13.7.13.38,0,.72-.08,1-.25s.5-.37.66-.61l.79.64c-.3.4-.66.7-1.07.89s-.87.29-1.37.29c-.43,0-.83-.07-1.2-.22-.37-.14-.68-.35-.95-.61s-.47-.57-.62-.94c-.15-.37-.23-.78-.23-1.22s.07-.85.22-1.22c.15-.37.35-.69.62-.95.26-.26.58-.47.94-.62.36-.15.75-.22,1.17-.22s.8.07,1.14.2c.34.14.63.33.87.59.24.26.42.57.55.93s.19.77.19,1.23ZM54.25,13.23c0-.22-.05-.43-.11-.63-.07-.2-.17-.37-.3-.51s-.3-.26-.49-.34c-.2-.08-.43-.13-.69-.13-.24,0-.47.04-.68.13s-.4.2-.55.34c-.16.14-.28.31-.38.51-.1.2-.16.41-.17.63h3.38Z"/>
        <path class="cls-2" d="M59.64,16.58h-1.22l-2.32-5.69h1.25l1.67,4.48h.02l1.68-4.48h1.2l-2.28,5.69Z"/>
        <path class="cls-2" d="M68.33,13.69v.19c0,.06,0,.13-.01.19h-4.52c0,.24.06.46.16.67.1.21.23.39.4.55.17.16.36.28.58.36.22.09.45.13.7.13.38,0,.72-.08,1-.25s.5-.37.66-.61l.79.64c-.3.4-.66.7-1.07.89s-.87.29-1.37.29c-.43,0-.83-.07-1.2-.22-.37-.14-.68-.35-.95-.61s-.47-.57-.62-.94c-.15-.37-.23-.78-.23-1.22s.07-.85.22-1.22c.15-.37.35-.69.62-.95.26-.26.58-.47.94-.62.36-.15.75-.22,1.17-.22s.8.07,1.14.2c.34.14.63.33.87.59.24.26.42.57.55.93s.19.77.19,1.23ZM67.17,13.23c0-.22-.05-.43-.11-.63-.07-.2-.17-.37-.3-.51s-.3-.26-.49-.34c-.2-.08-.43-.13-.69-.13-.24,0-.47.04-.68.13s-.4.2-.55.34c-.16.14-.28.31-.38.51-.1.2-.16.41-.17.63h3.38Z"/>
        <path class="cls-2" d="M71.04,16.58h-1.13V7.51h1.13v9.07Z"/>
        <path class="cls-2" d="M78.77,13.72c0,.44-.08.84-.23,1.21-.16.37-.37.69-.65.95-.28.27-.6.48-.98.62-.38.15-.78.22-1.21.22s-.84-.07-1.21-.22c-.38-.15-.7-.36-.97-.62-.27-.27-.49-.59-.64-.95-.16-.37-.23-.77-.23-1.21s.08-.84.23-1.21c.16-.36.37-.68.64-.94.27-.26.6-.47.97-.62s.78-.22,1.21-.22.84.07,1.21.22.7.35.98.62c.28.26.49.58.65.94.16.36.23.77.23,1.21ZM77.59,13.73c0-.27-.04-.53-.13-.78s-.21-.46-.37-.65-.36-.34-.6-.45c-.24-.11-.51-.17-.81-.17s-.58.06-.81.17c-.24.11-.44.26-.6.45-.16.19-.28.41-.37.65-.08.25-.13.51-.13.78s.04.53.13.78c.08.25.21.47.37.66.16.19.36.34.6.45.24.11.51.17.81.17s.58-.06.81-.17c.24-.11.44-.26.6-.45s.28-.41.37-.66.13-.51.13-.78Z"/>
        <path class="cls-2" d="M81.45,19.46h-1.13v-8.57h1.1v.89h.04c.18-.3.45-.55.81-.75.36-.2.77-.29,1.24-.29.42,0,.81.08,1.16.23.35.15.65.36.9.64.25.27.44.59.58.95s.2.75.2,1.17-.07.81-.2,1.18c-.14.37-.33.69-.57.96-.25.27-.55.49-.9.64-.35.16-.75.23-1.19.23-.41,0-.79-.09-1.15-.26-.36-.18-.64-.42-.85-.74h-.04v3.73ZM85.2,13.72c0-.26-.04-.52-.12-.77s-.2-.47-.36-.66-.36-.34-.59-.46c-.24-.11-.51-.17-.82-.17-.29,0-.55.06-.79.17-.24.11-.44.26-.61.46s-.3.41-.39.66-.14.51-.14.78.05.53.14.78.22.47.39.65.37.34.61.45c.24.11.5.17.79.17.31,0,.59-.06.82-.17.24-.12.43-.27.59-.46.16-.19.28-.41.36-.66s.12-.5.12-.77Z"/>
        <path class="cls-2" d="M89.73,11.05c.32-.21.69-.32,1.12-.32.38,0,.73.09,1.04.26s.55.47.73.88c.19-.37.46-.65.8-.85.34-.2.72-.29,1.13-.29.37,0,.68.06.95.19.26.12.48.29.66.5.18.21.31.45.39.73.08.28.13.58.13.9v3.53h-1.13v-3.16c0-.23-.02-.45-.06-.66s-.11-.39-.2-.55c-.1-.16-.22-.29-.38-.38-.16-.1-.36-.14-.61-.14s-.48.05-.66.16c-.18.11-.33.25-.45.42s-.2.37-.25.58-.08.44-.08.66v3.07h-1.13v-3.38c0-.22-.02-.43-.06-.61-.04-.18-.11-.34-.2-.47-.1-.13-.22-.24-.37-.31-.15-.08-.34-.11-.56-.11-.42,0-.76.17-1.04.51-.28.34-.41.79-.41,1.36v3.02h-1.13v-4.46c0-.15,0-.35-.01-.59,0-.24-.02-.45-.04-.64h1.07c.02.14.03.31.04.49,0,.18.01.33.01.45h.04c.14-.3.37-.56.69-.77Z"/>
        <path class="cls-2" d="M103.89,13.69v.19c0,.06,0,.13-.01.19h-4.52c0,.24.06.46.16.67.1.21.23.39.4.55.17.16.36.28.58.36.22.09.45.13.7.13.38,0,.72-.08,1-.25s.5-.37.66-.61l.79.64c-.3.4-.66.7-1.07.89s-.87.29-1.37.29c-.43,0-.83-.07-1.2-.22-.37-.14-.68-.35-.95-.61s-.47-.57-.62-.94c-.15-.37-.23-.78-.23-1.22s.07-.85.22-1.22c.15-.37.35-.69.62-.95.26-.26.58-.47.94-.62.36-.15.75-.22,1.17-.22s.8.07,1.14.2c.34.14.63.33.87.59.24.26.42.57.55.93s.19.77.19,1.23ZM102.74,13.23c0-.22-.05-.43-.11-.63-.07-.2-.17-.37-.3-.51s-.3-.26-.49-.34c-.2-.08-.43-.13-.69-.13-.24,0-.47.04-.68.13s-.4.2-.55.34c-.16.14-.28.31-.38.51-.1.2-.16.41-.17.63h3.38Z"/>
        <path class="cls-2" d="M106.47,10.89c.02.14.03.31.04.49,0,.18.01.33.01.45h.04c.07-.15.17-.29.29-.43.12-.13.27-.25.43-.35.16-.1.34-.18.53-.23.19-.06.39-.08.6-.08.37,0,.68.06.95.19s.48.29.66.5c.18.21.31.45.39.73.08.28.13.58.13.9v3.53h-1.13v-3.16c0-.23-.02-.45-.05-.66s-.1-.39-.2-.55-.23-.29-.4-.38c-.17-.1-.38-.14-.65-.14-.45,0-.81.17-1.1.51-.28.34-.43.79-.43,1.36v3.02h-1.13v-4.46c0-.15,0-.35-.01-.59,0-.24-.02-.45-.04-.64h1.07Z"/>
        <path class="cls-2" d="M115.22,11.82h-1.51v2.96c0,.34.06.59.19.74s.33.22.61.22c.1,0,.22-.01.34-.03.12-.02.23-.06.32-.1l.04.92c-.14.05-.29.09-.45.11s-.33.04-.51.04c-.54,0-.95-.15-1.23-.44-.28-.3-.43-.74-.43-1.33v-3.08h-1.09v-.92h1.09v-1.63h1.12v1.63h1.51v.92Z"/>
        <path class="cls-2" d="M125.14,13.72c0,.44-.08.84-.23,1.21-.16.37-.37.69-.65.95-.28.27-.6.48-.98.62-.38.15-.78.22-1.21.22s-.84-.07-1.21-.22c-.38-.15-.7-.36-.97-.62-.27-.27-.49-.59-.64-.95-.16-.37-.23-.77-.23-1.21s.08-.84.23-1.21c.16-.36.37-.68.64-.94.27-.26.6-.47.97-.62s.78-.22,1.21-.22.84.07,1.21.22.7.35.98.62c.28.26.49.58.65.94.16.36.23.77.23,1.21ZM123.97,13.73c0-.27-.04-.53-.13-.78s-.21-.46-.37-.65-.36-.34-.6-.45c-.24-.11-.51-.17-.81-.17s-.58.06-.81.17c-.24.11-.44.26-.6.45-.16.19-.28.41-.37.65-.08.25-.13.51-.13.78s.04.53.13.78c.08.25.21.47.37.66.16.19.36.34.6.45.24.11.51.17.81.17s.58-.06.81-.17c.24-.11.44-.26.6-.45s.28-.41.37-.66.13-.51.13-.78Z"/>
        <path class="cls-2" d="M129.38,11.82h-1.32v4.76h-1.13v-4.76h-1.13v-.92h1.13v-1.19c0-.34.04-.65.11-.93.08-.28.2-.53.37-.74.17-.21.39-.37.66-.49.27-.12.59-.18.98-.18.27,0,.51.03.71.08l-.13.97c-.09-.02-.18-.04-.26-.06-.09-.02-.19-.02-.3-.02-.22,0-.39.04-.52.11-.13.08-.23.18-.31.31s-.12.27-.14.44c-.02.16-.04.33-.04.51v1.19h1.32v.92Z"/>
        <path class="cls-2" d="M136.5,11.82h-1.51v2.96c0,.34.06.59.19.74s.33.22.61.22c.1,0,.22-.01.34-.03.12-.02.23-.06.32-.1l.04.92c-.14.05-.29.09-.45.11s-.33.04-.51.04c-.54,0-.95-.15-1.23-.44-.28-.3-.43-.74-.43-1.33v-3.08h-1.09v-.92h1.09v-1.63h1.12v1.63h1.51v.92Z"/>
        <path class="cls-2" d="M138.84,11.76c.14-.28.37-.52.7-.72s.7-.3,1.1-.3c.37,0,.68.06.95.19.26.12.48.29.66.5s.31.45.39.73c.08.28.13.58.13.9v3.53h-1.13v-3.15c0-.23-.02-.45-.05-.66-.04-.21-.1-.39-.2-.55-.1-.16-.23-.29-.39-.38-.16-.1-.38-.14-.64-.14-.45,0-.82.17-1.1.51s-.43.8-.43,1.37v3.02h-1.13V7.51h1.13v4.25h.02Z"/>
        <path class="cls-2" d="M149.98,13.69v.19c0,.06,0,.13-.01.19h-4.52c0,.24.06.46.16.67.1.21.23.39.4.55.17.16.36.28.58.36.22.09.45.13.7.13.38,0,.72-.08,1-.25s.5-.37.66-.61l.79.64c-.3.4-.66.7-1.07.89s-.87.29-1.37.29c-.43,0-.83-.07-1.2-.22-.37-.14-.68-.35-.95-.61s-.47-.57-.62-.94c-.15-.37-.23-.78-.23-1.22s.07-.85.22-1.22c.15-.37.35-.69.62-.95.26-.26.58-.47.94-.62.36-.15.75-.22,1.17-.22s.8.07,1.14.2c.34.14.63.33.87.59.24.26.42.57.55.93s.19.77.19,1.23ZM148.83,13.23c0-.22-.05-.43-.11-.63-.07-.2-.17-.37-.3-.51s-.3-.26-.49-.34c-.2-.08-.43-.13-.69-.13-.24,0-.47.04-.68.13s-.4.2-.55.34c-.16.14-.28.31-.38.51-.1.2-.16.41-.17.63h3.38Z"/>
        <path class="cls-2" d="M159.75,9.14l-3.41,7.44h-1.33l3.54-7.46h-4.21v-1.03h5.41v1.06Z"/>
        <path class="cls-2" d="M165.52,12.1c.22.06.43.15.63.28.2.13.37.29.51.47.14.18.26.4.34.64.08.24.13.5.13.77,0,.4-.08.76-.23,1.07-.15.31-.36.58-.62.79-.26.22-.56.38-.91.5-.34.12-.71.17-1.09.17s-.75-.06-1.1-.17c-.35-.12-.65-.28-.91-.5-.26-.22-.47-.48-.62-.79-.15-.31-.23-.67-.23-1.07,0-.28.04-.54.13-.78.08-.24.2-.45.35-.64.15-.18.32-.34.52-.46s.4-.22.62-.28v-.02c-.38-.14-.7-.37-.94-.7s-.37-.73-.37-1.2c0-.35.07-.67.2-.95.14-.28.32-.53.55-.73.23-.2.5-.36.81-.47.31-.11.64-.16.99-.16s.67.05.98.16c.31.11.58.26.81.46.23.2.41.44.55.72s.2.6.2.95c0,.46-.12.87-.37,1.21s-.56.58-.94.71v.02ZM162.62,14.21c0,.24.04.46.12.66.08.2.19.37.34.51.15.14.32.25.53.33.2.08.43.12.68.12s.46-.04.67-.12.38-.19.52-.33c.14-.14.26-.31.34-.51.08-.2.13-.42.13-.66s-.04-.45-.13-.64c-.08-.2-.2-.37-.34-.51s-.32-.26-.52-.34-.43-.12-.67-.12-.46.04-.67.12-.38.19-.53.34c-.15.14-.26.31-.35.51-.08.2-.13.41-.13.64ZM162.88,10.21c0,.19.03.37.1.54.07.17.17.32.29.44.12.12.27.22.45.29s.36.11.56.11.37-.04.54-.11.32-.17.45-.29c.13-.12.23-.27.3-.44.07-.17.11-.35.11-.54s-.04-.39-.11-.56-.18-.32-.3-.45c-.12-.12-.27-.22-.44-.29-.17-.07-.35-.1-.54-.1s-.39.04-.56.1c-.17.07-.32.17-.45.29s-.22.27-.29.45-.1.36-.1.56Z"/>
        <path class="cls-2" d="M174.03,9.14l-3.41,7.44h-1.33l3.54-7.46h-4.21v-1.03h5.41v1.06Z"/>
        <path class="cls-2" d="M182.03,12.33c-.13-.21-.31-.38-.54-.51-.23-.13-.49-.2-.78-.2-.13,0-.26.01-.38.04s-.24.07-.34.13c-.1.06-.18.14-.24.23-.06.09-.09.21-.09.34,0,.24.11.42.32.53.22.12.54.22.97.32.27.06.52.14.76.23.23.09.43.2.61.33.17.13.31.29.4.47.1.18.14.4.14.65,0,.34-.06.62-.19.85s-.3.42-.51.57c-.21.15-.45.25-.73.32-.27.06-.55.1-.84.1-.43,0-.85-.08-1.27-.25s-.75-.42-1.03-.77l.8-.68c.15.22.36.41.63.56.27.15.56.23.88.23.14,0,.28-.01.41-.04.13-.03.25-.07.36-.14.11-.06.19-.15.26-.25.06-.1.1-.24.1-.4,0-.26-.13-.46-.38-.59s-.62-.25-1.11-.36c-.19-.05-.39-.11-.58-.17-.2-.07-.37-.16-.53-.28-.16-.12-.29-.27-.39-.45-.1-.18-.15-.4-.15-.67,0-.3.06-.57.19-.79.12-.22.29-.4.49-.54.2-.14.43-.24.68-.31s.52-.1.79-.1c.41,0,.8.08,1.18.24.38.16.67.39.88.7l-.78.66Z"/>
        <path class="cls-2" d="M187.08,11.82h-1.51v2.96c0,.34.06.59.19.74s.33.22.61.22c.1,0,.22-.01.34-.03.12-.02.23-.06.32-.1l.04.92c-.14.05-.29.09-.45.11s-.33.04-.51.04c-.54,0-.95-.15-1.23-.44-.28-.3-.43-.74-.43-1.33v-3.08h-1.09v-.92h1.09v-1.63h1.12v1.63h1.51v.92Z"/>
        <path class="cls-2" d="M191.78,12.9c0-.42-.13-.74-.38-.94s-.6-.31-1.02-.31c-.32,0-.62.06-.91.19s-.52.28-.71.47l-.6-.72c.28-.26.62-.47,1.03-.62s.84-.23,1.3-.23c.41,0,.76.06,1.06.17.3.12.55.27.74.47.19.2.34.44.43.71.1.27.14.56.14.88v2.48c0,.19,0,.39.02.61.01.21.03.39.07.52h-1.02c-.06-.27-.1-.54-.1-.82h-.04c-.21.3-.47.54-.79.71-.32.17-.69.25-1.12.25-.22,0-.46-.03-.7-.09s-.47-.16-.67-.29-.37-.32-.5-.54-.2-.5-.2-.83c0-.43.12-.77.35-1.03.23-.25.54-.44.91-.58s.8-.22,1.27-.26.95-.06,1.43-.06v-.16ZM191.5,13.87c-.28,0-.57.01-.87.04-.3.02-.57.07-.82.14s-.45.18-.61.32c-.16.14-.24.34-.24.58,0,.17.03.31.1.42.07.11.16.2.27.28.11.07.24.12.37.15.14.03.28.04.42.04.53,0,.93-.16,1.22-.47.28-.32.43-.71.43-1.19v-.3h-.28Z"/>
        <path class="cls-2" d="M194.73,11.53c0-.24-.02-.45-.04-.64h1.07c.02.14.03.31.04.5,0,.19.01.34.01.46h.04c.16-.34.39-.61.7-.81.31-.2.65-.31,1.04-.31.18,0,.32.02.44.05l-.05,1.04c-.16-.04-.33-.06-.52-.06-.27,0-.51.05-.71.15-.2.1-.37.23-.5.4-.13.17-.23.36-.29.58-.06.22-.1.45-.1.69v2.99h-1.13v-4.46c0-.15,0-.35-.01-.59Z"/>
        <path class="cls-2" d="M201.73,11.82h-1.51v2.96c0,.34.06.59.19.74s.33.22.61.22c.1,0,.22-.01.34-.03.12-.02.23-.06.32-.1l.04.92c-.14.05-.29.09-.45.11s-.33.04-.51.04c-.54,0-.95-.15-1.23-.44-.28-.3-.43-.74-.43-1.33v-3.08h-1.09v-.92h1.09v-1.63h1.12v1.63h1.51v.92Z"/>
        <path class="cls-2" d="M205.96,12.33c-.13-.21-.31-.38-.54-.51-.23-.13-.49-.2-.78-.2-.13,0-.26.01-.38.04s-.24.07-.34.13c-.1.06-.18.14-.24.23-.06.09-.09.21-.09.34,0,.24.11.42.32.53.22.12.54.22.97.32.27.06.52.14.76.23.23.09.43.2.61.33.17.13.31.29.4.47.1.18.14.4.14.65,0,.34-.06.62-.19.85s-.3.42-.51.57c-.21.15-.45.25-.73.32-.27.06-.55.1-.84.1-.43,0-.85-.08-1.27-.25s-.75-.42-1.03-.77l.8-.68c.15.22.36.41.63.56.27.15.56.23.88.23.14,0,.28-.01.41-.04.13-.03.25-.07.36-.14.11-.06.19-.15.26-.25.06-.1.1-.24.1-.4,0-.26-.13-.46-.38-.59s-.62-.25-1.11-.36c-.19-.05-.39-.11-.58-.17-.2-.07-.37-.16-.53-.28-.16-.12-.29-.27-.39-.45-.1-.18-.15-.4-.15-.67,0-.3.06-.57.19-.79.12-.22.29-.4.49-.54.2-.14.43-.24.68-.31s.52-.1.79-.1c.41,0,.8.08,1.18.24.38.16.67.39.88.7l-.78.66Z"/>
        <path class="cls-2" d="M23.5,30.08c-.22.34-.51.61-.88.79s-.76.27-1.17.27c-.44,0-.84-.08-1.19-.23-.35-.16-.65-.37-.9-.64-.25-.27-.44-.59-.58-.96-.14-.37-.2-.76-.2-1.18s.07-.81.2-1.17.33-.68.58-.95c.25-.27.55-.48.91-.64.35-.15.74-.23,1.16-.23.46,0,.87.1,1.21.29.34.2.62.43.82.71h.02v-4.24h1.13v9.07h-1.09v-.9h-.02ZM19.76,28.13c0,.26.04.52.12.77.08.25.2.47.36.66s.36.35.59.46c.23.12.5.17.82.17.29,0,.55-.06.79-.17.24-.11.44-.26.61-.45s.3-.41.39-.65.14-.51.14-.78-.05-.53-.14-.78-.22-.47-.39-.66c-.17-.19-.37-.34-.61-.45-.24-.11-.5-.17-.79-.17-.31,0-.58.06-.82.17-.23.11-.43.26-.59.45-.16.19-.28.41-.36.66s-.12.5-.12.77Z"/>
        <path class="cls-2" d="M30.6,30.98c-.02-.14-.03-.31-.04-.49,0-.18-.01-.33-.01-.45h-.02c-.14.3-.39.56-.73.77s-.72.32-1.13.32c-.37,0-.69-.06-.95-.18-.27-.12-.49-.29-.66-.5s-.3-.46-.38-.74c-.08-.28-.13-.58-.13-.9v-3.53h1.13v3.14c0,.23.02.45.05.67.04.21.1.4.2.56.1.16.23.29.4.38.17.1.38.14.65.14.46,0,.82-.17,1.1-.51.28-.34.42-.79.42-1.36v-3.02h1.13v4.46c0,.15,0,.35.01.59,0,.24.02.45.04.64h-1.07Z"/>
        <path class="cls-2" d="M33.56,25.93c0-.24-.02-.45-.04-.64h1.07c.02.14.03.31.04.5,0,.19.01.34.01.46h.04c.16-.34.39-.61.7-.81.31-.2.65-.31,1.04-.31.18,0,.32.02.44.05l-.05,1.04c-.16-.04-.33-.06-.52-.06-.27,0-.51.05-.71.15-.2.1-.37.23-.5.4-.13.17-.23.36-.29.58-.06.22-.1.45-.1.69v2.99h-1.13v-4.46c0-.15,0-.35-.01-.59Z"/>
        <path class="cls-2" d="M39.24,23.24c0,.21-.07.38-.22.52-.15.14-.32.2-.53.2s-.38-.07-.52-.21c-.14-.14-.21-.31-.21-.51s.07-.38.21-.52c.14-.14.32-.21.52-.21s.38.07.53.21c.15.14.22.31.22.52ZM39.06,30.98h-1.13v-5.69h1.13v5.69Z"/>
        <path class="cls-2" d="M42.04,25.29c.02.14.03.31.04.49,0,.18.01.33.01.45h.04c.07-.15.17-.29.29-.43.12-.13.27-.25.43-.35.16-.1.34-.18.53-.23.19-.06.39-.08.6-.08.37,0,.68.06.95.19s.48.29.66.5c.18.21.31.45.39.73.08.28.13.58.13.9v3.53h-1.13v-3.16c0-.23-.02-.45-.05-.66s-.1-.39-.2-.55-.23-.29-.4-.38c-.17-.1-.38-.14-.65-.14-.45,0-.81.17-1.1.51-.28.34-.43.79-.43,1.36v3.02h-1.13v-4.46c0-.15,0-.35-.01-.59,0-.24-.02-.45-.04-.64h1.07Z"/>
        <path class="cls-2" d="M48.45,31.95c.25.28.56.5.93.67s.75.25,1.15.25.69-.05.95-.16c.26-.11.46-.26.62-.44.16-.19.27-.41.34-.67.07-.26.1-.53.1-.83v-.73h-.02c-.21.32-.49.56-.85.73s-.74.25-1.15.25c-.43,0-.83-.08-1.18-.23-.36-.15-.66-.36-.91-.62-.25-.26-.44-.57-.58-.93-.14-.36-.2-.74-.2-1.15s.07-.79.2-1.15.33-.67.58-.94c.25-.27.55-.48.9-.64.35-.16.74-.23,1.18-.23.41,0,.8.09,1.17.26s.67.44.88.8h.02v-.91h1.09v5.4c0,.42-.05.81-.16,1.19-.1.38-.28.72-.53,1.01-.25.29-.57.53-.97.7-.4.18-.9.26-1.49.26-.5,0-.99-.09-1.49-.27-.5-.18-.93-.43-1.29-.76l.72-.88ZM48.79,28.08c0,.26.04.52.13.76.08.24.21.45.37.64.16.18.36.33.6.44.23.11.5.17.79.17s.55-.05.79-.16c.24-.1.45-.25.61-.43.17-.18.3-.39.39-.64s.14-.51.14-.79-.05-.53-.14-.77c-.09-.24-.22-.45-.4-.64-.17-.18-.38-.33-.61-.44-.24-.11-.5-.16-.79-.16s-.56.05-.79.16c-.23.11-.43.25-.6.43-.17.18-.29.39-.37.64-.08.24-.13.5-.13.77Z"/>
        <path class="cls-2" d="M61.37,26.22h-1.51v2.96c0,.34.06.59.19.74s.33.22.61.22c.1,0,.22-.01.34-.03.12-.02.23-.06.32-.1l.04.92c-.14.05-.29.09-.45.11s-.33.04-.51.04c-.54,0-.95-.15-1.23-.44-.28-.3-.43-.74-.43-1.33v-3.08h-1.09v-.92h1.09v-1.63h1.12v1.63h1.51v.92Z"/>
        <path class="cls-2" d="M63.72,26.16c.14-.28.37-.52.7-.72s.7-.3,1.1-.3c.37,0,.68.06.95.19.26.12.48.29.66.5s.31.45.39.73c.08.28.13.58.13.9v3.53h-1.13v-3.15c0-.23-.02-.45-.05-.66-.04-.21-.1-.39-.2-.55-.1-.16-.23-.29-.39-.38-.16-.1-.38-.14-.64-.14-.45,0-.82.17-1.1.51s-.43.8-.43,1.37v3.02h-1.13v-9.07h1.13v4.25h.02Z"/>
        <path class="cls-2" d="M74.86,28.09v.19c0,.06,0,.13-.01.19h-4.52c0,.24.06.46.16.67.1.21.23.39.4.55.17.16.36.28.58.36.22.09.45.13.7.13.38,0,.72-.08,1-.25s.5-.37.66-.61l.79.64c-.3.4-.66.7-1.07.89s-.87.29-1.37.29c-.43,0-.83-.07-1.2-.22-.37-.14-.68-.35-.95-.61s-.47-.57-.62-.94c-.15-.37-.23-.78-.23-1.22s.07-.85.22-1.22c.15-.37.35-.69.62-.95.26-.26.58-.47.94-.62.36-.15.75-.22,1.17-.22s.8.07,1.14.2c.34.14.63.33.87.59.24.26.42.57.55.93s.19.77.19,1.23ZM73.71,27.63c0-.22-.05-.43-.11-.63-.07-.2-.17-.37-.3-.51s-.3-.26-.49-.34c-.2-.08-.43-.13-.69-.13-.24,0-.47.04-.68.13s-.4.2-.55.34c-.16.14-.28.31-.38.51-.1.2-.16.41-.17.63h3.38Z"/>
        <path class="cls-2" d="M80.58,30.98h-1.13v-9.07h1.13v9.07Z"/>
        <path class="cls-2" d="M86.08,27.3c0-.42-.13-.74-.38-.94s-.6-.31-1.02-.31c-.32,0-.62.06-.91.19s-.52.28-.71.47l-.6-.72c.28-.26.62-.47,1.03-.62s.84-.23,1.3-.23c.41,0,.76.06,1.06.17.3.12.55.27.74.47.19.2.34.44.43.71.1.27.14.56.14.88v2.48c0,.19,0,.39.02.61.01.21.03.39.07.52h-1.02c-.06-.27-.1-.54-.1-.82h-.04c-.21.3-.47.54-.79.71-.32.17-.69.25-1.12.25-.22,0-.46-.03-.7-.09s-.47-.16-.67-.29-.37-.32-.5-.54-.2-.5-.2-.83c0-.43.12-.77.35-1.03.23-.25.54-.44.91-.58s.8-.22,1.27-.26.95-.06,1.43-.06v-.16ZM85.81,28.27c-.28,0-.57.01-.87.04-.3.02-.57.07-.82.14s-.45.18-.61.32c-.16.14-.24.34-.24.58,0,.17.03.31.1.42.07.11.16.2.27.28.11.07.24.12.37.15.14.03.28.04.42.04.53,0,.93-.16,1.22-.47.28-.32.43-.71.43-1.19v-.3h-.28Z"/>
        <path class="cls-2" d="M91.71,26.22h-1.51v2.96c0,.34.06.59.19.74s.33.22.61.22c.1,0,.22-.01.34-.03.12-.02.23-.06.32-.1l.04.92c-.14.05-.29.09-.45.11s-.33.04-.51.04c-.54,0-.95-.15-1.23-.44-.28-.3-.43-.74-.43-1.33v-3.08h-1.09v-.92h1.09v-1.63h1.12v1.63h1.51v.92Z"/>
        <path class="cls-2" d="M98.19,28.09v.19c0,.06,0,.13-.01.19h-4.52c0,.24.06.46.16.67.1.21.23.39.4.55.17.16.36.28.58.36.22.09.45.13.7.13.38,0,.72-.08,1-.25s.5-.37.66-.61l.79.64c-.3.4-.66.7-1.07.89s-.87.29-1.37.29c-.43,0-.83-.07-1.2-.22-.37-.14-.68-.35-.95-.61s-.47-.57-.62-.94c-.15-.37-.23-.78-.23-1.22s.07-.85.22-1.22c.15-.37.35-.69.62-.95.26-.26.58-.47.94-.62.36-.15.75-.22,1.17-.22s.8.07,1.14.2c.34.14.63.33.87.59.24.26.42.57.55.93s.19.77.19,1.23ZM97.04,27.63c0-.22-.05-.43-.11-.63-.07-.2-.17-.37-.3-.51s-.3-.26-.49-.34c-.2-.08-.43-.13-.69-.13-.24,0-.47.04-.68.13s-.4.2-.55.34c-.16.14-.28.31-.38.51-.1.2-.16.41-.17.63h3.38Z"/>
        <path class="cls-3" d="M105.18,30.98v-6.24l-1.58,1.22-1.04-1.43,2.8-2.05h1.84v8.5h-2Z"/>
        <path class="cls-3" d="M116.74,25.29c0,.5-.09.96-.26,1.37s-.4.83-.68,1.25l-2.05,3.06h-2.43l2.11-2.93.02-.04c-.09.03-.19.06-.29.07-.11.02-.21.02-.3.02-.38,0-.73-.07-1.07-.2-.34-.13-.63-.32-.89-.56-.25-.24-.46-.54-.61-.88-.15-.34-.23-.72-.23-1.13,0-.48.09-.91.26-1.3.18-.38.42-.71.72-.97.3-.26.66-.47,1.07-.61.41-.14.84-.21,1.29-.21s.9.07,1.31.21c.41.14.76.34,1.06.61.3.26.54.58.71.96s.26.8.26,1.26ZM114.74,25.27c0-.37-.12-.69-.36-.95-.24-.27-.56-.4-.97-.4s-.74.13-.98.38-.37.58-.37.99c0,.38.12.7.36.95s.56.38.96.38.73-.12.98-.37.37-.57.37-.97Z"/>
        <path class="cls-3" d="M124.49,25.29c0,.5-.09.96-.26,1.37s-.4.83-.68,1.25l-2.05,3.06h-2.43l2.11-2.93.02-.04c-.09.03-.19.06-.29.07-.11.02-.21.02-.3.02-.38,0-.73-.07-1.07-.2-.34-.13-.63-.32-.89-.56-.25-.24-.46-.54-.61-.88-.15-.34-.23-.72-.23-1.13,0-.48.09-.91.26-1.3.18-.38.42-.71.72-.97.3-.26.66-.47,1.07-.61.41-.14.84-.21,1.29-.21s.9.07,1.31.21c.41.14.76.34,1.06.61.3.26.54.58.71.96s.26.8.26,1.26ZM122.49,25.27c0-.37-.12-.69-.36-.95-.24-.27-.56-.4-.97-.4s-.74.13-.98.38-.37.58-.37.99c0,.38.12.7.36.95s.56.38.96.38.73-.12.98-.37.37-.57.37-.97Z"/>
        <path class="cls-3" d="M132.24,26.71c0,.6-.06,1.17-.18,1.72-.12.54-.31,1.02-.58,1.43-.26.41-.61.74-1.03.98-.42.24-.93.37-1.53.37s-1.11-.12-1.54-.37c-.42-.24-.77-.57-1.04-.98-.27-.41-.46-.89-.58-1.43-.12-.54-.18-1.12-.18-1.72s.06-1.17.18-1.71c.12-.54.31-1.01.58-1.42.27-.4.61-.73,1.04-.97.42-.24.94-.36,1.54-.36s1.11.12,1.53.36.76.56,1.03.97c.26.4.46.88.58,1.42.12.54.18,1.11.18,1.71ZM130.17,26.71c0-.26-.02-.56-.05-.88-.03-.32-.09-.62-.18-.89-.09-.28-.21-.51-.38-.7-.16-.19-.38-.28-.64-.28s-.48.09-.65.28c-.17.19-.3.42-.39.7-.09.28-.15.57-.19.89-.03.32-.05.61-.05.88s.02.57.05.89c.03.32.09.62.19.9.09.28.22.51.39.7.17.19.38.28.65.28s.48-.09.64-.28c.16-.19.29-.42.38-.7.09-.28.15-.58.18-.9.03-.32.05-.62.05-.89Z"/>
        <path class="cls-2" d="M136.83,26.73c-.13-.21-.31-.38-.54-.51-.23-.13-.49-.2-.78-.2-.13,0-.26.01-.38.04s-.24.07-.34.13c-.1.06-.18.14-.24.23-.06.09-.09.21-.09.34,0,.24.11.42.32.53.22.12.54.22.97.32.27.06.52.14.76.23.23.09.43.2.61.33.17.13.31.29.4.47.1.18.14.4.14.65,0,.34-.06.62-.19.85s-.3.42-.51.57c-.21.15-.45.25-.73.32-.27.06-.55.1-.84.1-.43,0-.85-.08-1.27-.25s-.75-.42-1.03-.77l.8-.68c.15.22.36.41.63.56.27.15.56.23.88.23.14,0,.28-.01.41-.04.13-.03.25-.07.36-.14.11-.06.19-.15.26-.25.06-.1.1-.24.1-.4,0-.26-.13-.46-.38-.59s-.62-.25-1.11-.36c-.19-.05-.39-.11-.58-.17-.2-.07-.37-.16-.53-.28-.16-.12-.29-.27-.39-.45-.1-.18-.15-.4-.15-.67,0-.3.06-.57.19-.79.12-.22.29-.4.49-.54.2-.14.43-.24.68-.31s.52-.1.79-.1c.41,0,.8.08,1.18.24.38.16.67.39.88.7l-.78.66Z"/>
        <path class="cls-2" d="M142.51,25.29l1.28,4.34h.02l1.36-4.34h1.19l1.38,4.34h.02l1.28-4.34h1.19l-1.88,5.69h-1.18l-1.4-4.27h-.02l-1.39,4.27h-1.18l-1.9-5.69h1.22Z"/>
        <path class="cls-2" d="M152.54,26.16c.14-.28.37-.52.7-.72s.7-.3,1.1-.3c.37,0,.68.06.95.19.26.12.48.29.66.5s.31.45.39.73c.08.28.13.58.13.9v3.53h-1.13v-3.15c0-.23-.02-.45-.05-.66-.04-.21-.1-.39-.2-.55-.1-.16-.23-.29-.39-.38-.16-.1-.38-.14-.64-.14-.45,0-.82.17-1.1.51s-.43.8-.43,1.37v3.02h-1.13v-9.07h1.13v4.25h.02Z"/>
        <path class="cls-2" d="M163.69,28.09v.19c0,.06,0,.13-.01.19h-4.52c0,.24.06.46.16.67.1.21.23.39.4.55.17.16.36.28.58.36.22.09.45.13.7.13.38,0,.72-.08,1-.25s.5-.37.66-.61l.79.64c-.3.4-.66.7-1.07.89s-.87.29-1.37.29c-.43,0-.83-.07-1.2-.22-.37-.14-.68-.35-.95-.61s-.47-.57-.62-.94c-.15-.37-.23-.78-.23-1.22s.07-.85.22-1.22c.15-.37.35-.69.62-.95.26-.26.58-.47.94-.62.36-.15.75-.22,1.17-.22s.8.07,1.14.2c.34.14.63.33.87.59.24.26.42.57.55.93s.19.77.19,1.23ZM162.53,27.63c0-.22-.05-.43-.11-.63-.07-.2-.17-.37-.3-.51s-.3-.26-.49-.34c-.2-.08-.43-.13-.69-.13-.24,0-.47.04-.68.13s-.4.2-.55.34c-.16.14-.28.31-.38.51-.1.2-.16.41-.17.63h3.38Z"/>
        <path class="cls-2" d="M166.27,25.29c.02.14.03.31.04.49,0,.18.01.33.01.45h.04c.07-.15.17-.29.29-.43.12-.13.27-.25.43-.35.16-.1.34-.18.53-.23.19-.06.39-.08.6-.08.37,0,.68.06.95.19s.48.29.66.5c.18.21.31.45.39.73.08.28.13.58.13.9v3.53h-1.13v-3.16c0-.23-.02-.45-.05-.66s-.1-.39-.2-.55-.23-.29-.4-.38c-.17-.1-.38-.14-.65-.14-.45,0-.81.17-1.1.51-.28.34-.43.79-.43,1.36v3.02h-1.13v-4.46c0-.15,0-.35-.01-.59,0-.24-.02-.45-.04-.64h1.07Z"/>
        <path class="cls-2" d="M175.29,22.49h2.93c.32,0,.64.04.96.11.32.07.61.19.86.36s.46.39.61.66c.16.27.23.61.23,1.02,0,.47-.14.87-.41,1.19-.27.32-.63.54-1.08.66v.02c.27.03.52.1.76.21.23.11.43.25.6.43.17.18.3.38.39.62.09.24.14.51.14.8,0,.41-.08.76-.25,1.07-.17.3-.4.55-.68.75-.29.2-.63.34-1.01.44-.39.1-.8.15-1.24.15h-2.8v-8.5ZM176.48,26.07h1.55c.22,0,.44-.03.64-.08s.38-.13.53-.24c.15-.11.27-.24.36-.41s.13-.36.13-.59c0-.46-.17-.78-.5-.98s-.79-.29-1.36-.29h-1.36v2.59ZM176.48,29.97h1.49c.25,0,.5-.02.75-.07s.48-.12.68-.23c.2-.11.37-.26.49-.45.12-.19.19-.43.19-.71,0-.5-.17-.87-.52-1.09-.34-.22-.84-.34-1.49-.34h-1.6v2.89Z"/>
        <path class="cls-2" d="M188.7,28.13c0,.44-.08.84-.23,1.21-.16.37-.37.69-.65.95-.28.27-.6.48-.98.62-.38.15-.78.22-1.21.22s-.84-.07-1.21-.22c-.38-.15-.7-.36-.97-.62-.27-.27-.49-.59-.64-.95-.16-.37-.23-.77-.23-1.21s.08-.84.23-1.21c.16-.36.37-.68.64-.94.27-.26.6-.47.97-.62s.78-.22,1.21-.22.84.07,1.21.22.7.35.98.62c.28.26.49.58.65.94.16.36.23.77.23,1.21ZM187.52,28.13c0-.27-.04-.53-.13-.78s-.21-.46-.37-.65-.36-.34-.6-.45c-.24-.11-.51-.17-.81-.17s-.58.06-.81.17c-.24.11-.44.26-.6.45-.16.19-.28.41-.37.65-.08.25-.13.51-.13.78s.04.53.13.78c.08.25.21.47.37.66.16.19.36.34.6.45.24.11.51.17.81.17s.58-.06.81-.17c.24-.11.44-.26.6-.45s.28-.41.37-.66.13-.51.13-.78Z"/>
        <path class="cls-2" d="M195.57,28.09v.19c0,.06,0,.13-.01.19h-4.52c0,.24.06.46.16.67.1.21.23.39.4.55.17.16.36.28.58.36.22.09.45.13.7.13.38,0,.72-.08,1-.25s.5-.37.66-.61l.79.64c-.3.4-.66.7-1.07.89s-.87.29-1.37.29c-.43,0-.83-.07-1.2-.22-.37-.14-.68-.35-.95-.61s-.47-.57-.62-.94c-.15-.37-.23-.78-.23-1.22s.07-.85.22-1.22c.15-.37.35-.69.62-.95.26-.26.58-.47.94-.62.36-.15.75-.22,1.17-.22s.8.07,1.14.2c.34.14.63.33.87.59.24.26.42.57.55.93s.19.77.19,1.23ZM194.42,27.63c0-.22-.05-.43-.11-.63-.07-.2-.17-.37-.3-.51s-.3-.26-.49-.34c-.2-.08-.43-.13-.69-.13-.24,0-.47.04-.68.13s-.4.2-.55.34c-.16.14-.28.31-.38.51-.1.2-.16.41-.17.63h3.38Z"/>
        <path class="cls-2" d="M198.45,23.24c0,.21-.07.38-.22.52-.15.14-.32.2-.53.2s-.38-.07-.52-.21c-.14-.14-.21-.31-.21-.51s.07-.38.21-.52c.14-.14.32-.21.52-.21s.38.07.53.21c.15.14.22.31.22.52ZM198.27,30.98h-1.13v-5.69h1.13v5.69Z"/>
        <path class="cls-2" d="M201.26,25.29c.02.14.03.31.04.49,0,.18.01.33.01.45h.04c.07-.15.17-.29.29-.43.12-.13.27-.25.43-.35.16-.1.34-.18.53-.23.19-.06.39-.08.6-.08.37,0,.68.06.95.19s.48.29.66.5c.18.21.31.45.39.73.08.28.13.58.13.9v3.53h-1.13v-3.16c0-.23-.02-.45-.05-.66s-.1-.39-.2-.55-.23-.29-.4-.38c-.17-.1-.38-.14-.65-.14-.45,0-.81.17-1.1.51-.28.34-.43.79-.43,1.36v3.02h-1.13v-4.46c0-.15,0-.35-.01-.59,0-.24-.02-.45-.04-.64h1.07Z"/>
        <path class="cls-2" d="M207.66,31.95c.25.28.56.5.93.67s.75.25,1.15.25.69-.05.95-.16c.26-.11.46-.26.62-.44.16-.19.27-.41.34-.67.07-.26.1-.53.1-.83v-.73h-.02c-.21.32-.49.56-.85.73s-.74.25-1.15.25c-.43,0-.83-.08-1.18-.23-.36-.15-.66-.36-.91-.62-.25-.26-.44-.57-.58-.93-.14-.36-.2-.74-.2-1.15s.07-.79.2-1.15.33-.67.58-.94c.25-.27.55-.48.9-.64.35-.16.74-.23,1.18-.23.41,0,.8.09,1.17.26s.67.44.88.8h.02v-.91h1.09v5.4c0,.42-.05.81-.16,1.19-.1.38-.28.72-.53,1.01-.25.29-.57.53-.97.7-.4.18-.9.26-1.49.26-.5,0-.99-.09-1.49-.27-.5-.18-.93-.43-1.29-.76l.72-.88ZM208,28.08c0,.26.04.52.13.76.08.24.21.45.37.64.16.18.36.33.6.44.23.11.5.17.79.17s.55-.05.79-.16c.24-.1.45-.25.61-.43.17-.18.3-.39.39-.64s.14-.51.14-.79-.05-.53-.14-.77c-.09-.24-.22-.45-.4-.64-.17-.18-.38-.33-.61-.44-.24-.11-.5-.16-.79-.16s-.56.05-.79.16c-.23.11-.43.25-.6.43-.17.18-.29.39-.37.64-.08.24-.13.5-.13.77Z"/>
        <path class="cls-2" d="M20.1,48.26h-1.13v-8.57h1.1v.89h.04c.18-.3.45-.55.81-.75s.77-.29,1.24-.29c.42,0,.81.08,1.16.23.35.15.65.36.9.64.25.27.44.59.58.95.14.36.2.75.2,1.17s-.07.81-.2,1.18-.33.69-.57.96c-.25.27-.55.49-.9.64-.35.16-.75.23-1.19.23-.41,0-.79-.09-1.15-.26-.36-.18-.64-.42-.85-.74h-.04v3.73ZM23.84,42.53c0-.26-.04-.52-.12-.77s-.2-.47-.36-.66c-.16-.19-.36-.34-.59-.46-.24-.11-.51-.17-.82-.17-.29,0-.55.06-.79.17-.24.11-.44.26-.61.46-.17.19-.3.41-.39.66s-.14.51-.14.78.05.53.14.78.22.47.39.65c.17.19.37.34.61.45.24.11.5.17.79.17.31,0,.59-.06.82-.17.24-.12.43-.27.59-.46s.28-.41.36-.66.12-.5.12-.77Z"/>
        <path class="cls-2" d="M26.56,40.33c0-.24-.02-.45-.04-.64h1.07c.02.14.03.31.04.5,0,.19.01.34.01.46h.04c.16-.34.39-.61.7-.81.31-.2.65-.31,1.04-.31.18,0,.32.02.44.05l-.05,1.04c-.16-.04-.33-.06-.52-.06-.27,0-.51.05-.71.15-.2.1-.37.23-.5.4s-.23.36-.29.58c-.06.22-.1.45-.1.69v2.99h-1.13v-4.46c0-.15,0-.35-.01-.59Z"/>
        <path class="cls-2" d="M36.46,42.53c0,.44-.08.84-.23,1.21s-.37.69-.65.95c-.28.27-.6.48-.98.62-.38.15-.78.22-1.21.22s-.84-.07-1.21-.22c-.38-.15-.7-.36-.97-.62-.27-.27-.49-.59-.64-.95s-.23-.77-.23-1.21.08-.84.23-1.21.37-.68.64-.94c.27-.26.6-.47.97-.62.38-.15.78-.22,1.21-.22s.84.07,1.21.22c.38.15.7.35.98.62.28.26.49.58.65.94s.23.77.23,1.21ZM35.29,42.53c0-.27-.04-.53-.13-.78-.08-.25-.21-.46-.37-.65s-.36-.34-.6-.45c-.24-.11-.51-.17-.81-.17s-.58.06-.81.17c-.24.11-.44.26-.6.45-.16.19-.28.4-.37.65-.08.25-.13.51-.13.78s.04.53.13.78c.08.25.21.47.37.66.16.19.36.34.6.46.24.11.51.17.81.17s.58-.06.81-.17c.24-.11.44-.26.6-.46s.28-.41.37-.66c.08-.25.13-.51.13-.78Z"/>
        <path class="cls-2" d="M39.15,48.26h-1.13v-8.57h1.1v.89h.04c.18-.3.45-.55.81-.75s.77-.29,1.24-.29c.42,0,.81.08,1.16.23.35.15.65.36.9.64.25.27.44.59.58.95.14.36.2.75.2,1.17s-.07.81-.2,1.18-.33.69-.57.96c-.25.27-.55.49-.9.64-.35.16-.75.23-1.19.23-.41,0-.79-.09-1.15-.26-.36-.18-.64-.42-.85-.74h-.04v3.73ZM42.9,42.53c0-.26-.04-.52-.12-.77s-.2-.47-.36-.66c-.16-.19-.36-.34-.59-.46-.24-.11-.51-.17-.82-.17-.29,0-.55.06-.79.17-.24.11-.44.26-.61.46-.17.19-.3.41-.39.66s-.14.51-.14.78.05.53.14.78.22.47.39.65c.17.19.37.34.61.45.24.11.5.17.79.17.31,0,.59-.06.82-.17.24-.12.43-.27.59-.46s.28-.41.36-.66.12-.5.12-.77Z"/>
        <path class="cls-2" d="M51.39,42.53c0,.44-.08.84-.23,1.21s-.37.69-.65.95c-.28.27-.6.48-.98.62-.38.15-.78.22-1.21.22s-.84-.07-1.21-.22c-.38-.15-.7-.36-.97-.62-.27-.27-.49-.59-.64-.95s-.23-.77-.23-1.21.08-.84.23-1.21.37-.68.64-.94c.27-.26.6-.47.97-.62.38-.15.78-.22,1.21-.22s.84.07,1.21.22c.38.15.7.35.98.62.28.26.49.58.65.94s.23.77.23,1.21ZM50.22,42.53c0-.27-.04-.53-.13-.78-.08-.25-.21-.46-.37-.65s-.36-.34-.6-.45c-.24-.11-.51-.17-.81-.17s-.58.06-.81.17c-.24.11-.44.26-.6.45-.16.19-.28.4-.37.65-.08.25-.13.51-.13.78s.04.53.13.78c.08.25.21.47.37.66.16.19.36.34.6.46.24.11.51.17.81.17s.58-.06.81-.17c.24-.11.44-.26.6-.46s.28-.41.37-.66c.08-.25.13-.51.13-.78Z"/>
        <path class="cls-2" d="M56.02,41.13c-.13-.21-.31-.38-.54-.51s-.49-.2-.78-.2c-.13,0-.26.01-.38.04-.13.03-.24.07-.34.13-.1.06-.18.14-.24.23-.06.09-.09.21-.09.34,0,.24.11.42.32.53s.54.22.97.32c.27.06.52.14.76.23.23.09.43.2.61.33s.31.29.4.47c.1.18.14.4.14.65,0,.34-.06.62-.19.85-.13.23-.3.42-.51.57-.21.15-.45.25-.73.32-.27.06-.55.1-.84.1-.43,0-.85-.08-1.27-.25s-.75-.42-1.03-.77l.8-.68c.15.22.36.41.63.56.27.15.56.23.88.23.14,0,.28-.01.41-.04s.25-.07.36-.14c.11-.06.19-.15.26-.25.06-.1.1-.24.1-.4,0-.26-.13-.46-.38-.59s-.62-.25-1.11-.36c-.19-.05-.39-.11-.58-.17-.2-.07-.37-.16-.53-.28-.16-.12-.29-.27-.39-.45-.1-.18-.15-.4-.15-.67,0-.3.06-.57.19-.79s.29-.4.49-.54c.2-.14.43-.24.68-.31.26-.07.52-.1.79-.1.41,0,.8.08,1.18.24.38.16.67.39.88.7l-.78.66Z"/>
        <path class="cls-2" d="M63.6,42.49v.19c0,.06,0,.13-.01.19h-4.52c0,.24.06.46.16.67.1.21.23.39.4.55s.36.28.58.36c.22.09.45.13.7.13.38,0,.72-.08,1-.25s.5-.37.66-.61l.79.64c-.3.4-.66.7-1.07.89-.41.19-.87.29-1.37.29-.43,0-.83-.07-1.2-.22-.37-.14-.68-.35-.95-.61-.26-.26-.47-.57-.62-.94-.15-.37-.23-.78-.23-1.22s.07-.85.22-1.22.35-.69.62-.95.58-.47.94-.62c.36-.15.75-.22,1.17-.22s.8.07,1.14.2.63.33.87.59c.24.26.42.57.55.93.13.36.19.77.19,1.23ZM62.44,42.03c0-.22-.05-.43-.11-.63-.07-.2-.17-.37-.3-.51-.13-.14-.3-.26-.49-.34-.2-.08-.43-.13-.69-.13-.24,0-.47.04-.68.13s-.4.2-.55.34c-.16.14-.28.31-.38.51-.1.2-.16.41-.17.63h3.38Z"/>
        <path class="cls-2" d="M69.69,44.48c-.22.34-.51.61-.88.79-.37.18-.76.27-1.17.27-.44,0-.84-.08-1.19-.23-.35-.16-.65-.37-.9-.64-.25-.27-.44-.59-.58-.96s-.2-.76-.2-1.18.07-.81.2-1.17c.14-.36.33-.68.58-.95.25-.27.55-.48.91-.64.35-.15.74-.23,1.16-.23.46,0,.87.1,1.21.29.34.2.62.43.82.71h.02v-4.24h1.13v9.07h-1.09v-.9h-.02ZM65.95,42.53c0,.26.04.52.12.77s.2.47.36.66.36.34.59.46c.23.12.5.17.82.17.29,0,.55-.06.79-.17.24-.11.44-.26.61-.45s.3-.4.39-.65c.09-.25.14-.51.14-.78s-.05-.53-.14-.78-.22-.47-.39-.66-.37-.34-.61-.46c-.24-.11-.5-.17-.79-.17-.31,0-.58.06-.82.17-.23.11-.43.26-.59.46s-.28.41-.36.66-.12.5-.12.77Z"/>
        <path class="cls-2" d="M79.32,41.7c0-.42-.13-.74-.38-.94s-.6-.31-1.02-.31c-.32,0-.62.06-.91.19s-.52.28-.71.47l-.6-.72c.28-.26.62-.47,1.03-.62.4-.15.84-.23,1.3-.23.41,0,.76.06,1.06.17.3.12.55.27.74.47.19.2.34.44.43.71.1.27.14.56.14.88v2.48c0,.19,0,.39.02.61.01.21.03.39.07.52h-1.02c-.06-.27-.1-.54-.1-.82h-.04c-.21.3-.47.54-.79.71-.32.17-.69.25-1.12.25-.22,0-.46-.03-.7-.09-.24-.06-.47-.16-.67-.29-.2-.14-.37-.32-.5-.54-.13-.22-.2-.5-.2-.83,0-.43.12-.77.35-1.03.23-.25.54-.44.91-.58s.8-.22,1.27-.26.95-.06,1.43-.06v-.16ZM79.04,42.67c-.28,0-.57.01-.87.04s-.57.07-.82.14c-.24.07-.45.18-.61.32-.16.14-.24.34-.24.58,0,.17.03.31.1.42.07.11.16.2.27.28.11.07.24.12.37.15.14.03.28.04.42.04.53,0,.93-.16,1.22-.47s.43-.71.43-1.19v-.3h-.28Z"/>
        <path class="cls-2" d="M86.3,39.69c.02.14.03.31.04.49,0,.18.01.33.01.45h.04c.07-.15.17-.29.29-.43s.27-.25.43-.35c.16-.1.34-.18.53-.23.19-.06.39-.08.6-.08.37,0,.68.06.95.19.26.12.48.29.66.5.18.21.31.45.39.73s.13.58.13.9v3.53h-1.13v-3.16c0-.23-.02-.45-.05-.66s-.1-.39-.2-.55c-.1-.16-.23-.29-.4-.38-.17-.1-.38-.14-.65-.14-.45,0-.81.17-1.1.51-.28.34-.43.79-.43,1.36v3.02h-1.13v-4.46c0-.15,0-.35-.01-.59s-.02-.45-.04-.64h1.07Z"/>
        <path class="cls-2" d="M97.58,42.49v.19c0,.06,0,.13-.01.19h-4.52c0,.24.06.46.16.67.1.21.23.39.4.55s.36.28.58.36c.22.09.45.13.7.13.38,0,.72-.08,1-.25s.5-.37.66-.61l.79.64c-.3.4-.66.7-1.07.89-.41.19-.87.29-1.37.29-.43,0-.83-.07-1.2-.22-.37-.14-.68-.35-.95-.61-.26-.26-.47-.57-.62-.94-.15-.37-.23-.78-.23-1.22s.07-.85.22-1.22.35-.69.62-.95.58-.47.94-.62c.36-.15.75-.22,1.17-.22s.8.07,1.14.2.63.33.87.59c.24.26.42.57.55.93.13.36.19.77.19,1.23ZM96.43,42.03c0-.22-.05-.43-.11-.63-.07-.2-.17-.37-.3-.51-.13-.14-.3-.26-.49-.34-.2-.08-.43-.13-.69-.13-.24,0-.47.04-.68.13s-.4.2-.55.34c-.16.14-.28.31-.38.51-.1.2-.16.41-.17.63h3.38Z"/>
        <path class="cls-2" d="M99.56,39.69l1.28,4.34h.02l1.36-4.34h1.19l1.38,4.34h.02l1.28-4.34h1.19l-1.88,5.69h-1.18l-1.4-4.27h-.02l-1.39,4.27h-1.18l-1.9-5.69h1.22Z"/>
        <path class="cls-2" d="M114.96,41.7c0-.42-.13-.74-.38-.94s-.6-.31-1.02-.31c-.32,0-.62.06-.91.19s-.52.28-.71.47l-.6-.72c.28-.26.62-.47,1.03-.62.4-.15.84-.23,1.3-.23.41,0,.76.06,1.06.17.3.12.55.27.74.47.19.2.34.44.43.71.1.27.14.56.14.88v2.48c0,.19,0,.39.02.61.01.21.03.39.07.52h-1.02c-.06-.27-.1-.54-.1-.82h-.04c-.21.3-.47.54-.79.71-.32.17-.69.25-1.12.25-.22,0-.46-.03-.7-.09-.24-.06-.47-.16-.67-.29-.2-.14-.37-.32-.5-.54-.13-.22-.2-.5-.2-.83,0-.43.12-.77.35-1.03.23-.25.54-.44.91-.58s.8-.22,1.27-.26.95-.06,1.43-.06v-.16ZM114.68,42.67c-.28,0-.57.01-.87.04s-.57.07-.82.14c-.24.07-.45.18-.61.32-.16.14-.24.34-.24.58,0,.17.03.31.1.42.07.11.16.2.27.28.11.07.24.12.37.15.14.03.28.04.42.04.53,0,.93-.16,1.22-.47s.43-.71.43-1.19v-.3h-.28Z"/>
        <path class="cls-2" d="M119.24,37.64c0,.21-.07.38-.22.52-.15.14-.32.2-.53.2s-.38-.07-.52-.21c-.14-.14-.21-.31-.21-.51s.07-.38.21-.52c.14-.14.32-.21.52-.21s.38.07.53.21c.15.14.22.31.22.52ZM119.06,45.38h-1.13v-5.69h1.13v5.69Z"/>
        <path class="cls-2" d="M121.02,40.33c0-.24-.02-.45-.04-.64h1.07c.02.14.03.31.04.5,0,.19.01.34.01.46h.04c.16-.34.39-.61.7-.81.31-.2.65-.31,1.04-.31.18,0,.32.02.44.05l-.05,1.04c-.16-.04-.33-.06-.52-.06-.27,0-.51.05-.71.15-.2.1-.37.23-.5.4s-.23.36-.29.58c-.06.22-.1.45-.1.69v2.99h-1.13v-4.46c0-.15,0-.35-.01-.59Z"/>
        <path class="cls-2" d="M129.14,41.13c-.12-.18-.3-.34-.54-.46s-.5-.19-.77-.19c-.3,0-.56.06-.79.17-.23.11-.42.26-.58.45-.16.19-.28.41-.37.65s-.13.51-.13.78.04.53.13.78.21.47.37.65c.16.19.36.34.59.45.23.11.5.17.79.17s.55-.06.79-.17c.24-.11.43-.26.58-.46l.76.68c-.24.28-.54.5-.9.65-.36.16-.77.23-1.22.23s-.85-.07-1.22-.22c-.37-.14-.69-.35-.97-.61-.27-.26-.49-.57-.64-.94s-.23-.78-.23-1.24.08-.86.23-1.22c.15-.37.36-.68.64-.95.27-.26.59-.47.97-.61.37-.14.77-.22,1.21-.22.4,0,.8.08,1.19.24.4.16.71.39.94.7l-.82.66Z"/>
        <path class="cls-2" d="M131.07,40.33c0-.24-.02-.45-.04-.64h1.07c.02.14.03.31.04.5,0,.19.01.34.01.46h.04c.16-.34.39-.61.7-.81.31-.2.65-.31,1.04-.31.18,0,.32.02.44.05l-.05,1.04c-.16-.04-.33-.06-.52-.06-.27,0-.51.05-.71.15-.2.1-.37.23-.5.4s-.23.36-.29.58c-.06.22-.1.45-.1.69v2.99h-1.13v-4.46c0-.15,0-.35-.01-.59Z"/>
        <path class="cls-2" d="M138.81,41.7c0-.42-.13-.74-.38-.94s-.6-.31-1.02-.31c-.32,0-.62.06-.91.19s-.52.28-.71.47l-.6-.72c.28-.26.62-.47,1.03-.62.4-.15.84-.23,1.3-.23.41,0,.76.06,1.06.17.3.12.55.27.74.47.19.2.34.44.43.71.1.27.14.56.14.88v2.48c0,.19,0,.39.02.61.01.21.03.39.07.52h-1.02c-.06-.27-.1-.54-.1-.82h-.04c-.21.3-.47.54-.79.71-.32.17-.69.25-1.12.25-.22,0-.46-.03-.7-.09-.24-.06-.47-.16-.67-.29-.2-.14-.37-.32-.5-.54-.13-.22-.2-.5-.2-.83,0-.43.12-.77.35-1.03.23-.25.54-.44.91-.58s.8-.22,1.27-.26.95-.06,1.43-.06v-.16ZM138.53,42.67c-.28,0-.57.01-.87.04s-.57.07-.82.14c-.24.07-.45.18-.61.32-.16.14-.24.34-.24.58,0,.17.03.31.1.42.07.11.16.2.27.28.11.07.24.12.37.15.14.03.28.04.42.04.53,0,.93-.16,1.22-.47s.43-.71.43-1.19v-.3h-.28Z"/>
        <path class="cls-2" d="M144.45,40.62h-1.32v4.76h-1.13v-4.76h-1.13v-.92h1.13v-1.19c0-.34.04-.65.11-.93.08-.28.2-.53.37-.74.17-.21.39-.37.66-.49.27-.12.59-.18.98-.18.27,0,.51.03.71.08l-.13.97c-.09-.02-.18-.04-.26-.06s-.19-.02-.3-.02c-.22,0-.39.04-.52.11-.13.08-.23.18-.31.31-.07.13-.12.27-.14.44-.02.16-.04.33-.04.51v1.19h1.32v.92Z"/>
        <path class="cls-2" d="M148.1,40.62h-1.51v2.96c0,.34.06.59.19.74s.33.22.61.22c.1,0,.22-.01.34-.03.12-.02.23-.05.32-.1l.04.92c-.14.05-.29.09-.45.11-.16.03-.33.04-.51.04-.54,0-.95-.15-1.23-.44s-.43-.74-.43-1.33v-3.08h-1.09v-.92h1.09v-1.63h1.12v1.63h1.51v.92Z"/>
        <path class="cls-2" d="M156.25,41.13c-.12-.18-.3-.34-.54-.46s-.5-.19-.77-.19c-.3,0-.56.06-.79.17-.23.11-.42.26-.58.45-.16.19-.28.41-.37.65s-.13.51-.13.78.04.53.13.78.21.47.37.65c.16.19.36.34.59.45.23.11.5.17.79.17s.55-.06.79-.17c.24-.11.43-.26.58-.46l.76.68c-.24.28-.54.5-.9.65-.36.16-.77.23-1.22.23s-.85-.07-1.22-.22c-.37-.14-.69-.35-.97-.61-.27-.26-.49-.57-.64-.94s-.23-.78-.23-1.24.08-.86.23-1.22c.15-.37.36-.68.64-.95.27-.26.59-.47.97-.61.37-.14.77-.22,1.21-.22.4,0,.8.08,1.19.24.4.16.71.39.94.7l-.82.66Z"/>
        <path class="cls-2" d="M161.73,41.7c0-.42-.13-.74-.38-.94s-.6-.31-1.02-.31c-.32,0-.62.06-.91.19s-.52.28-.71.47l-.6-.72c.28-.26.62-.47,1.03-.62.4-.15.84-.23,1.3-.23.41,0,.76.06,1.06.17.3.12.55.27.74.47.19.2.34.44.43.71.1.27.14.56.14.88v2.48c0,.19,0,.39.02.61.01.21.03.39.07.52h-1.02c-.06-.27-.1-.54-.1-.82h-.04c-.21.3-.47.54-.79.71-.32.17-.69.25-1.12.25-.22,0-.46-.03-.7-.09-.24-.06-.47-.16-.67-.29-.2-.14-.37-.32-.5-.54-.13-.22-.2-.5-.2-.83,0-.43.12-.77.35-1.03.23-.25.54-.44.91-.58s.8-.22,1.27-.26.95-.06,1.43-.06v-.16ZM161.45,42.67c-.28,0-.57.01-.87.04s-.57.07-.82.14c-.24.07-.45.18-.61.32-.16.14-.24.34-.24.58,0,.17.03.31.1.42.07.11.16.2.27.28.11.07.24.12.37.15.14.03.28.04.42.04.53,0,.93-.16,1.22-.47s.43-.71.43-1.19v-.3h-.28Z"/>
        <path class="cls-2" d="M165.85,45.38h-1.13v-9.07h1.13v9.07Z"/>
        <path class="cls-2" d="M168.97,45.38h-1.13v-9.07h1.13v9.07Z"/>
        <path class="cls-2" d="M176.25,42.49v.19c0,.06,0,.13-.01.19h-4.52c0,.24.06.46.16.67.1.21.23.39.4.55s.36.28.58.36c.22.09.45.13.7.13.38,0,.72-.08,1-.25s.5-.37.66-.61l.79.64c-.3.4-.66.7-1.07.89-.41.19-.87.29-1.37.29-.43,0-.83-.07-1.2-.22-.37-.14-.68-.35-.95-.61-.26-.26-.47-.57-.62-.94-.15-.37-.23-.78-.23-1.22s.07-.85.22-1.22.35-.69.62-.95.58-.47.94-.62c.36-.15.75-.22,1.17-.22s.8.07,1.14.2.63.33.87.59c.24.26.42.57.55.93.13.36.19.77.19,1.23ZM175.1,42.03c0-.22-.05-.43-.11-.63-.07-.2-.17-.37-.3-.51-.13-.14-.3-.26-.49-.34-.2-.08-.43-.13-.69-.13-.24,0-.47.04-.68.13s-.4.2-.55.34c-.16.14-.28.31-.38.51-.1.2-.16.41-.17.63h3.38Z"/>
        <path class="cls-2" d="M182.35,44.48c-.22.34-.51.61-.88.79-.37.18-.76.27-1.17.27-.44,0-.84-.08-1.19-.23-.35-.16-.65-.37-.9-.64-.25-.27-.44-.59-.58-.96s-.2-.76-.2-1.18.07-.81.2-1.17c.14-.36.33-.68.58-.95.25-.27.55-.48.91-.64.35-.15.74-.23,1.16-.23.46,0,.87.1,1.21.29.34.2.62.43.82.71h.02v-4.24h1.13v9.07h-1.09v-.9h-.02ZM178.6,42.53c0,.26.04.52.12.77s.2.47.36.66.36.34.59.46c.23.12.5.17.82.17.29,0,.55-.06.79-.17.24-.11.44-.26.61-.45s.3-.4.39-.65c.09-.25.14-.51.14-.78s-.05-.53-.14-.78-.22-.47-.39-.66-.37-.34-.61-.46c-.24-.11-.5-.17-.79-.17-.31,0-.58.06-.82.17-.23.11-.43.26-.59.46s-.28.41-.36.66-.12.5-.12.77Z"/>
        <path class="cls-2" d="M191.21,40.62h-1.51v2.96c0,.34.06.59.19.74s.33.22.61.22c.1,0,.22-.01.34-.03.12-.02.23-.05.32-.1l.04.92c-.14.05-.29.09-.45.11-.16.03-.33.04-.51.04-.54,0-.95-.15-1.23-.44s-.43-.74-.43-1.33v-3.08h-1.09v-.92h1.09v-1.63h1.12v1.63h1.51v.92Z"/>
        <path class="cls-2" d="M193.56,40.56c.14-.28.37-.52.7-.72.33-.2.7-.3,1.1-.3.37,0,.68.06.95.19.26.12.48.29.66.5.18.21.31.45.39.73s.13.58.13.9v3.53h-1.13v-3.15c0-.23-.02-.45-.05-.66-.04-.21-.1-.39-.2-.55-.1-.16-.23-.29-.39-.38-.16-.1-.38-.14-.64-.14-.45,0-.82.17-1.1.51s-.43.8-.43,1.37v3.02h-1.13v-9.07h1.13v4.25h.02Z"/>
        <path class="cls-2" d="M204.7,42.49v.19c0,.06,0,.13-.01.19h-4.52c0,.24.06.46.16.67.1.21.23.39.4.55s.36.28.58.36c.22.09.45.13.7.13.38,0,.72-.08,1-.25s.5-.37.66-.61l.79.64c-.3.4-.66.7-1.07.89-.41.19-.87.29-1.37.29-.43,0-.83-.07-1.2-.22-.37-.14-.68-.35-.95-.61-.26-.26-.47-.57-.62-.94-.15-.37-.23-.78-.23-1.22s.07-.85.22-1.22.35-.69.62-.95.58-.47.94-.62c.36-.15.75-.22,1.17-.22s.8.07,1.14.2.63.33.87.59c.24.26.42.57.55.93.13.36.19.77.19,1.23ZM203.55,42.03c0-.22-.05-.43-.11-.63-.07-.2-.17-.37-.3-.51-.13-.14-.3-.26-.49-.34-.2-.08-.43-.13-.69-.13-.24,0-.47.04-.68.13s-.4.2-.55.34c-.16.14-.28.31-.38.51-.1.2-.16.41-.17.63h3.38Z"/>
        <path class="cls-2" d="M212.33,41.13c-.13-.21-.31-.38-.54-.51s-.49-.2-.78-.2c-.13,0-.26.01-.38.04-.13.03-.24.07-.34.13-.1.06-.18.14-.24.23-.06.09-.09.21-.09.34,0,.24.11.42.32.53s.54.22.97.32c.27.06.52.14.76.23.23.09.43.2.61.33s.31.29.4.47c.1.18.14.4.14.65,0,.34-.06.62-.19.85-.13.23-.3.42-.51.57-.21.15-.45.25-.73.32-.27.06-.55.1-.84.1-.43,0-.85-.08-1.27-.25s-.75-.42-1.03-.77l.8-.68c.15.22.36.41.63.56.27.15.56.23.88.23.14,0,.28-.01.41-.04s.25-.07.36-.14c.11-.06.19-.15.26-.25.06-.1.1-.24.1-.4,0-.26-.13-.46-.38-.59s-.62-.25-1.11-.36c-.19-.05-.39-.11-.58-.17-.2-.07-.37-.16-.53-.28-.16-.12-.29-.27-.39-.45-.1-.18-.15-.4-.15-.67,0-.3.06-.57.19-.79s.29-.4.49-.54c.2-.14.43-.24.68-.31.26-.07.52-.1.79-.1.41,0,.8.08,1.18.24.38.16.67.39.88.7l-.78.66Z"/>
        <path class="cls-2" d="M220.35,42.53c0,.44-.08.84-.23,1.21s-.37.69-.65.95c-.28.27-.6.48-.98.62-.38.15-.78.22-1.21.22s-.84-.07-1.21-.22c-.38-.15-.7-.36-.97-.62-.27-.27-.49-.59-.64-.95s-.23-.77-.23-1.21.08-.84.23-1.21.37-.68.64-.94c.27-.26.6-.47.97-.62.38-.15.78-.22,1.21-.22s.84.07,1.21.22c.38.15.7.35.98.62.28.26.49.58.65.94s.23.77.23,1.21ZM219.17,42.53c0-.27-.04-.53-.13-.78-.08-.25-.21-.46-.37-.65s-.36-.34-.6-.45c-.24-.11-.51-.17-.81-.17s-.58.06-.81.17c-.24.11-.44.26-.6.45-.16.19-.28.4-.37.65-.08.25-.13.51-.13.78s.04.53.13.78c.08.25.21.47.37.66.16.19.36.34.6.46.24.11.51.17.81.17s.58-.06.81-.17c.24-.11.44-.26.6-.46s.28-.41.37-.66c.08-.25.13-.51.13-.78Z"/>
        <path class="cls-2" d="M222.93,39.69c.02.14.03.31.04.49,0,.18.01.33.01.45h.04c.07-.15.17-.29.29-.43s.27-.25.43-.35c.16-.1.34-.18.53-.23.19-.06.39-.08.6-.08.37,0,.68.06.95.19.26.12.48.29.66.5.18.21.31.45.39.73s.13.58.13.9v3.53h-1.13v-3.16c0-.23-.02-.45-.05-.66s-.1-.39-.2-.55c-.1-.16-.23-.29-.4-.38-.17-.1-.38-.14-.65-.14-.45,0-.81.17-1.1.51-.28.34-.43.79-.43,1.36v3.02h-1.13v-4.46c0-.15,0-.35-.01-.59s-.02-.45-.04-.64h1.07Z"/>
        <path class="cls-2" d="M230.21,37.64c0,.21-.07.38-.22.52-.15.14-.32.2-.53.2s-.38-.07-.52-.21c-.14-.14-.21-.31-.21-.51s.07-.38.21-.52c.14-.14.32-.21.52-.21s.38.07.53.21c.15.14.22.31.22.52ZM230.03,45.38h-1.13v-5.69h1.13v5.69Z"/>
        <path class="cls-2" d="M235.99,41.13c-.12-.18-.3-.34-.54-.46s-.5-.19-.77-.19c-.3,0-.56.06-.79.17-.23.11-.42.26-.58.45-.16.19-.28.41-.37.65s-.13.51-.13.78.04.53.13.78.21.47.37.65c.16.19.36.34.59.45.23.11.5.17.79.17s.55-.06.79-.17c.24-.11.43-.26.58-.46l.76.68c-.24.28-.54.5-.9.65-.36.16-.77.23-1.22.23s-.85-.07-1.22-.22c-.37-.14-.69-.35-.97-.61-.27-.26-.49-.57-.64-.94s-.23-.78-.23-1.24.08-.86.23-1.22c.15-.37.36-.68.64-.95.27-.26.59-.47.97-.61.37-.14.77-.22,1.21-.22.4,0,.8.08,1.19.24.4.16.71.39.94.7l-.82.66Z"/>
        <path class="cls-2" d="M240.27,42.93h-2.78v-.95h2.78v.95Z"/>
        <path class="cls-2" d="M22.95,55.53c-.12-.18-.3-.34-.54-.46s-.5-.19-.77-.19c-.3,0-.56.06-.79.17-.23.11-.42.26-.58.45-.16.19-.28.41-.37.65s-.13.51-.13.78.04.53.13.78.21.47.37.65c.16.19.36.34.59.45.23.11.5.17.79.17s.55-.06.79-.17c.24-.11.43-.26.58-.46l.76.68c-.24.28-.54.5-.9.65-.36.16-.77.23-1.22.23s-.85-.07-1.22-.22c-.37-.14-.69-.35-.97-.61-.27-.26-.49-.57-.64-.94s-.23-.78-.23-1.24.08-.86.23-1.22c.15-.37.36-.68.64-.95.27-.26.59-.47.97-.61.37-.14.77-.22,1.21-.22.4,0,.8.08,1.19.24.4.16.71.39.94.7l-.82.66Z"/>
        <path class="cls-2" d="M24.88,54.73c0-.24-.02-.45-.04-.64h1.07c.02.14.03.31.04.5,0,.19.01.34.01.46h.04c.16-.34.39-.61.7-.81.31-.2.65-.31,1.04-.31.18,0,.32.02.44.05l-.05,1.04c-.16-.04-.33-.06-.52-.06-.27,0-.51.05-.71.15-.2.1-.37.23-.5.4-.13.17-.23.36-.29.58-.06.22-.1.45-.1.69v2.99h-1.13v-4.46c0-.15,0-.35-.01-.59Z"/>
        <path class="cls-2" d="M33.25,59.78c-.02-.14-.03-.31-.04-.49,0-.18-.01-.33-.01-.45h-.02c-.14.3-.39.56-.73.77s-.72.32-1.13.32c-.37,0-.69-.06-.95-.18-.27-.12-.49-.29-.66-.5s-.3-.46-.38-.74c-.08-.28-.13-.58-.13-.9v-3.53h1.13v3.14c0,.23.02.45.05.67.04.21.1.4.2.56.1.16.23.29.4.38.17.1.38.14.65.14.46,0,.82-.17,1.1-.51.28-.34.42-.79.42-1.36v-3.02h1.13v4.46c0,.15,0,.35.01.59,0,.24.02.45.04.64h-1.07Z"/>
        <path class="cls-2" d="M37.54,52.04c0,.21-.07.38-.22.52-.15.14-.32.2-.53.2s-.38-.07-.52-.21c-.14-.14-.21-.31-.21-.51s.07-.38.21-.52c.14-.14.32-.21.52-.21s.38.07.53.21c.15.14.22.31.22.52ZM37.36,59.78h-1.13v-5.69h1.13v5.69Z"/>
        <path class="cls-2" d="M42.4,55.53c-.13-.21-.31-.38-.54-.51-.23-.13-.49-.2-.78-.2-.13,0-.26.01-.38.04s-.24.07-.34.13c-.1.06-.18.14-.24.23-.06.09-.09.21-.09.34,0,.24.11.42.32.53.22.12.54.22.97.32.27.06.52.14.76.23.23.09.43.2.61.33.17.13.31.29.4.47.1.18.14.4.14.65,0,.34-.06.62-.19.85s-.3.42-.51.57c-.21.15-.45.25-.73.32-.27.06-.55.1-.84.1-.43,0-.85-.08-1.27-.25s-.75-.42-1.03-.77l.8-.68c.15.22.36.41.63.56.27.15.56.23.88.23.14,0,.28-.01.41-.04.13-.03.25-.07.36-.14.11-.06.19-.15.26-.25.06-.1.1-.24.1-.4,0-.26-.13-.46-.38-.59s-.62-.25-1.11-.36c-.19-.05-.39-.11-.58-.17-.2-.07-.37-.16-.53-.28-.16-.12-.29-.27-.39-.45-.1-.18-.15-.4-.15-.67,0-.3.06-.57.19-.79.12-.22.29-.4.49-.54.2-.14.43-.24.68-.31s.52-.1.79-.1c.41,0,.8.08,1.18.24.38.16.67.39.88.7l-.78.66Z"/>
        <path class="cls-2" d="M49.98,56.89v.19c0,.06,0,.13-.01.19h-4.52c0,.24.06.46.16.67.1.21.23.39.4.55.17.16.36.28.58.36.22.09.45.13.7.13.38,0,.72-.08,1-.25s.5-.37.66-.61l.79.64c-.3.4-.66.7-1.07.89s-.87.29-1.37.29c-.43,0-.83-.07-1.2-.22-.37-.14-.68-.35-.95-.61s-.47-.57-.62-.94c-.15-.37-.23-.78-.23-1.22s.07-.85.22-1.22c.15-.37.35-.69.62-.95.26-.26.58-.47.94-.62.36-.15.75-.22,1.17-.22s.8.07,1.14.2c.34.14.63.33.87.59.24.26.42.57.55.93s.19.77.19,1.23ZM48.82,56.43c0-.22-.05-.43-.11-.63-.07-.2-.17-.37-.3-.51s-.3-.26-.49-.34c-.2-.08-.43-.13-.69-.13-.24,0-.47.04-.68.13s-.4.2-.55.34c-.16.14-.28.31-.38.51-.1.2-.16.41-.17.63h3.38Z"/>
        <path class="cls-2" d="M51.52,54.73c0-.24-.02-.45-.04-.64h1.07c.02.14.03.31.04.5,0,.19.01.34.01.46h.04c.16-.34.39-.61.7-.81.31-.2.65-.31,1.04-.31.18,0,.32.02.44.05l-.05,1.04c-.16-.04-.33-.06-.52-.06-.27,0-.51.05-.71.15-.2.1-.37.23-.5.4-.13.17-.23.36-.29.58-.06.22-.1.45-.1.69v2.99h-1.13v-4.46c0-.15,0-.35-.01-.59Z"/>
        <path class="cls-2" d="M59.3,54.09l1.28,4.34h.02l1.36-4.34h1.19l1.38,4.34h.02l1.28-4.34h1.19l-1.88,5.69h-1.18l-1.4-4.27h-.02l-1.39,4.27h-1.18l-1.9-5.69h1.22Z"/>
        <path class="cls-2" d="M69.33,54.96c.14-.28.37-.52.7-.72s.7-.3,1.1-.3c.37,0,.68.06.95.19.26.12.48.29.66.5s.31.45.39.73c.08.28.13.58.13.9v3.53h-1.13v-3.15c0-.23-.02-.45-.05-.66-.04-.21-.1-.39-.2-.55-.1-.16-.23-.29-.39-.38-.16-.1-.38-.14-.64-.14-.45,0-.82.17-1.1.51s-.43.8-.43,1.37v3.02h-1.13v-9.07h1.13v4.25h.02Z"/>
        <path class="cls-2" d="M76.48,52.04c0,.21-.07.38-.22.52-.15.14-.32.2-.53.2s-.38-.07-.52-.21c-.14-.14-.21-.31-.21-.51s.07-.38.21-.52c.14-.14.32-.21.52-.21s.38.07.53.21c.15.14.22.31.22.52ZM76.3,59.78h-1.13v-5.69h1.13v5.69Z"/>
        <path class="cls-2" d="M82.25,55.53c-.12-.18-.3-.34-.54-.46s-.5-.19-.77-.19c-.3,0-.56.06-.79.17-.23.11-.42.26-.58.45-.16.19-.28.41-.37.65s-.13.51-.13.78.04.53.13.78.21.47.37.65c.16.19.36.34.59.45.23.11.5.17.79.17s.55-.06.79-.17c.24-.11.43-.26.58-.46l.76.68c-.24.28-.54.5-.9.65-.36.16-.77.23-1.22.23s-.85-.07-1.22-.22c-.37-.14-.69-.35-.97-.61-.27-.26-.49-.57-.64-.94s-.23-.78-.23-1.24.08-.86.23-1.22c.15-.37.36-.68.64-.95.27-.26.59-.47.97-.61.37-.14.77-.22,1.21-.22.4,0,.8.08,1.19.24.4.16.71.39.94.7l-.82.66Z"/>
        <path class="cls-2" d="M85.37,54.96c.14-.28.37-.52.7-.72s.7-.3,1.1-.3c.37,0,.68.06.95.19.26.12.48.29.66.5s.31.45.39.73c.08.28.13.58.13.9v3.53h-1.13v-3.15c0-.23-.02-.45-.05-.66-.04-.21-.1-.39-.2-.55-.1-.16-.23-.29-.39-.38-.16-.1-.38-.14-.64-.14-.45,0-.82.17-1.1.51s-.43.8-.43,1.37v3.02h-1.13v-9.07h1.13v4.25h.02Z"/>
        <path class="cls-2" d="M96,54.25c.32-.21.69-.32,1.12-.32.38,0,.73.09,1.04.26s.55.47.73.88c.19-.37.46-.65.8-.85.34-.2.72-.29,1.13-.29.37,0,.68.06.95.19.26.12.48.29.66.5.18.21.31.45.39.73.08.28.13.58.13.9v3.53h-1.13v-3.16c0-.23-.02-.45-.06-.66s-.11-.39-.2-.55c-.1-.16-.22-.29-.38-.38-.16-.1-.36-.14-.61-.14s-.48.05-.66.16c-.18.11-.33.25-.45.42s-.2.37-.25.58-.08.44-.08.66v3.07h-1.13v-3.38c0-.22-.02-.43-.06-.61-.04-.18-.11-.34-.2-.47-.1-.13-.22-.24-.37-.31-.15-.08-.34-.11-.56-.11-.42,0-.76.17-1.04.51-.28.34-.41.79-.41,1.36v3.02h-1.13v-4.46c0-.15,0-.35-.01-.59,0-.24-.02-.45-.04-.64h1.07c.02.14.03.31.04.49,0,.18.01.33.01.45h.04c.14-.3.37-.56.69-.77Z"/>
        <path class="cls-2" d="M108.39,56.1c0-.42-.13-.74-.38-.94s-.6-.31-1.02-.31c-.32,0-.62.06-.91.19s-.52.28-.71.47l-.6-.72c.28-.26.62-.47,1.03-.62s.84-.23,1.3-.23c.41,0,.76.06,1.06.17.3.12.55.27.74.47.19.2.34.44.43.71.1.27.14.56.14.88v2.48c0,.19,0,.39.02.61.01.21.03.39.07.52h-1.02c-.06-.27-.1-.54-.1-.82h-.04c-.21.3-.47.54-.79.71-.32.17-.69.25-1.12.25-.22,0-.46-.03-.7-.09s-.47-.16-.67-.29-.37-.32-.5-.54-.2-.5-.2-.83c0-.43.12-.77.35-1.03.23-.25.54-.44.91-.58s.8-.22,1.27-.26.95-.06,1.43-.06v-.16ZM108.11,57.07c-.28,0-.57.01-.87.04-.3.02-.57.07-.82.14s-.45.18-.61.32c-.16.14-.24.34-.24.58,0,.17.03.31.1.42.07.11.16.2.27.28.11.07.24.12.37.15.14.03.28.04.42.04.53,0,.93-.16,1.22-.47.28-.32.43-.71.43-1.19v-.3h-.28Z"/>
        <path class="cls-2" d="M112.37,54.09c.02.14.03.31.04.49,0,.18.01.33.01.45h.04c.07-.15.17-.29.29-.43.12-.13.27-.25.43-.35.16-.1.34-.18.53-.23.19-.06.39-.08.6-.08.37,0,.68.06.95.19s.48.29.66.5c.18.21.31.45.39.73.08.28.13.58.13.9v3.53h-1.13v-3.16c0-.23-.02-.45-.05-.66s-.1-.39-.2-.55-.23-.29-.4-.38c-.17-.1-.38-.14-.65-.14-.45,0-.81.17-1.1.51-.28.34-.43.79-.43,1.36v3.02h-1.13v-4.46c0-.15,0-.35-.01-.59,0-.24-.02-.45-.04-.64h1.07Z"/>
        <path class="cls-2" d="M120.5,58.56h.02l1.57-4.46h1.2l-2.76,7.03c-.1.24-.2.45-.31.64-.11.19-.24.35-.4.48s-.33.23-.53.31c-.2.07-.45.11-.73.11-.12,0-.24,0-.37-.02-.12-.01-.25-.03-.38-.07l.11-1c.19.06.38.1.56.1.3,0,.52-.08.66-.25.14-.16.28-.4.4-.7l.36-.95-2.44-5.69h1.26l1.76,4.46Z"/>
        <path class="cls-2" d="M130.92,56.1c0-.42-.13-.74-.38-.94s-.6-.31-1.02-.31c-.32,0-.62.06-.91.19s-.52.28-.71.47l-.6-.72c.28-.26.62-.47,1.03-.62s.84-.23,1.3-.23c.41,0,.76.06,1.06.17.3.12.55.27.74.47.19.2.34.44.43.71.1.27.14.56.14.88v2.48c0,.19,0,.39.02.61.01.21.03.39.07.52h-1.02c-.06-.27-.1-.54-.1-.82h-.04c-.21.3-.47.54-.79.71-.32.17-.69.25-1.12.25-.22,0-.46-.03-.7-.09s-.47-.16-.67-.29-.37-.32-.5-.54-.2-.5-.2-.83c0-.43.12-.77.35-1.03.23-.25.54-.44.91-.58s.8-.22,1.27-.26.95-.06,1.43-.06v-.16ZM130.65,57.07c-.28,0-.57.01-.87.04-.3.02-.57.07-.82.14s-.45.18-.61.32c-.16.14-.24.34-.24.58,0,.17.03.31.1.42.07.11.16.2.27.28.11.07.24.12.37.15.14.03.28.04.42.04.53,0,.93-.16,1.22-.47.28-.32.43-.71.43-1.19v-.3h-.28Z"/>
        <path class="cls-2" d="M135.68,54.25c.32-.21.69-.32,1.12-.32.38,0,.73.09,1.04.26s.55.47.73.88c.19-.37.46-.65.8-.85.34-.2.72-.29,1.13-.29.37,0,.68.06.95.19.26.12.48.29.66.5.18.21.31.45.39.73.08.28.13.58.13.9v3.53h-1.13v-3.16c0-.23-.02-.45-.06-.66s-.11-.39-.2-.55c-.1-.16-.22-.29-.38-.38-.16-.1-.36-.14-.61-.14s-.48.05-.66.16c-.18.11-.33.25-.45.42s-.2.37-.25.58-.08.44-.08.66v3.07h-1.13v-3.38c0-.22-.02-.43-.06-.61-.04-.18-.11-.34-.2-.47-.1-.13-.22-.24-.37-.31-.15-.08-.34-.11-.56-.11-.42,0-.76.17-1.04.51-.28.34-.41.79-.41,1.36v3.02h-1.13v-4.46c0-.15,0-.35-.01-.59,0-.24-.02-.45-.04-.64h1.07c.02.14.03.31.04.49,0,.18.01.33.01.45h.04c.14-.3.37-.56.69-.77Z"/>
        <path class="cls-2" d="M149.85,56.89v.19c0,.06,0,.13-.01.19h-4.52c0,.24.06.46.16.67.1.21.23.39.4.55.17.16.36.28.58.36.22.09.45.13.7.13.38,0,.72-.08,1-.25s.5-.37.66-.61l.79.64c-.3.4-.66.7-1.07.89s-.87.29-1.37.29c-.43,0-.83-.07-1.2-.22-.37-.14-.68-.35-.95-.61s-.47-.57-.62-.94c-.15-.37-.23-.78-.23-1.22s.07-.85.22-1.22c.15-.37.35-.69.62-.95.26-.26.58-.47.94-.62.36-.15.75-.22,1.17-.22s.8.07,1.14.2c.34.14.63.33.87.59.24.26.42.57.55.93s.19.77.19,1.23ZM148.7,56.43c0-.22-.05-.43-.11-.63-.07-.2-.17-.37-.3-.51s-.3-.26-.49-.34c-.2-.08-.43-.13-.69-.13-.24,0-.47.04-.68.13s-.4.2-.55.34c-.16.14-.28.31-.38.51-.1.2-.16.41-.17.63h3.38Z"/>
        <path class="cls-2" d="M151.4,54.73c0-.24-.02-.45-.04-.64h1.07c.02.14.03.31.04.5,0,.19.01.34.01.46h.04c.16-.34.39-.61.7-.81.31-.2.65-.31,1.04-.31.18,0,.32.02.44.05l-.05,1.04c-.16-.04-.33-.06-.52-.06-.27,0-.51.05-.71.15-.2.1-.37.23-.5.4-.13.17-.23.36-.29.58-.06.22-.1.45-.1.69v2.99h-1.13v-4.46c0-.15,0-.35-.01-.59Z"/>
        <path class="cls-2" d="M157.07,52.04c0,.21-.07.38-.22.52-.15.14-.32.2-.53.2s-.38-.07-.52-.21c-.14-.14-.21-.31-.21-.51s.07-.38.21-.52c.14-.14.32-.21.52-.21s.38.07.53.21c.15.14.22.31.22.52ZM156.89,59.78h-1.13v-5.69h1.13v5.69Z"/>
        <path class="cls-2" d="M162.84,55.53c-.12-.18-.3-.34-.54-.46s-.5-.19-.77-.19c-.3,0-.56.06-.79.17-.23.11-.42.26-.58.45-.16.19-.28.41-.37.65s-.13.51-.13.78.04.53.13.78.21.47.37.65c.16.19.36.34.59.45.23.11.5.17.79.17s.55-.06.79-.17c.24-.11.43-.26.58-.46l.76.68c-.24.28-.54.5-.9.65-.36.16-.77.23-1.22.23s-.85-.07-1.22-.22c-.37-.14-.69-.35-.97-.61-.27-.26-.49-.57-.64-.94s-.23-.78-.23-1.24.08-.86.23-1.22c.15-.37.36-.68.64-.95.27-.26.59-.47.97-.61.37-.14.77-.22,1.21-.22.4,0,.8.08,1.19.24.4.16.71.39.94.7l-.82.66Z"/>
        <path class="cls-2" d="M168.33,56.1c0-.42-.13-.74-.38-.94s-.6-.31-1.02-.31c-.32,0-.62.06-.91.19s-.52.28-.71.47l-.6-.72c.28-.26.62-.47,1.03-.62s.84-.23,1.3-.23c.41,0,.76.06,1.06.17.3.12.55.27.74.47.19.2.34.44.43.71.1.27.14.56.14.88v2.48c0,.19,0,.39.02.61.01.21.03.39.07.52h-1.02c-.06-.27-.1-.54-.1-.82h-.04c-.21.3-.47.54-.79.71-.32.17-.69.25-1.12.25-.22,0-.46-.03-.7-.09s-.47-.16-.67-.29-.37-.32-.5-.54-.2-.5-.2-.83c0-.43.12-.77.35-1.03.23-.25.54-.44.91-.58s.8-.22,1.27-.26.95-.06,1.43-.06v-.16ZM168.05,57.07c-.28,0-.57.01-.87.04-.3.02-.57.07-.82.14s-.45.18-.61.32c-.16.14-.24.34-.24.58,0,.17.03.31.1.42.07.11.16.2.27.28.11.07.24.12.37.15.14.03.28.04.42.04.53,0,.93-.16,1.22-.47.28-.32.43-.71.43-1.19v-.3h-.28Z"/>
        <path class="cls-2" d="M172.31,54.09c.02.14.03.31.04.49,0,.18.01.33.01.45h.04c.07-.15.17-.29.29-.43.12-.13.27-.25.43-.35.16-.1.34-.18.53-.23.19-.06.39-.08.6-.08.37,0,.68.06.95.19s.48.29.66.5c.18.21.31.45.39.73.08.28.13.58.13.9v3.53h-1.13v-3.16c0-.23-.02-.45-.05-.66s-.1-.39-.2-.55-.23-.29-.4-.38c-.17-.1-.38-.14-.65-.14-.45,0-.81.17-1.1.51-.28.34-.43.79-.43,1.36v3.02h-1.13v-4.46c0-.15,0-.35-.01-.59,0-.24-.02-.45-.04-.64h1.07Z"/>
        <path class="cls-2" d="M184.81,56.1c0-.42-.13-.74-.38-.94s-.6-.31-1.02-.31c-.32,0-.62.06-.91.19s-.52.28-.71.47l-.6-.72c.28-.26.62-.47,1.03-.62s.84-.23,1.3-.23c.41,0,.76.06,1.06.17.3.12.55.27.74.47.19.2.34.44.43.71.1.27.14.56.14.88v2.48c0,.19,0,.39.02.61.01.21.03.39.07.52h-1.02c-.06-.27-.1-.54-.1-.82h-.04c-.21.3-.47.54-.79.71-.32.17-.69.25-1.12.25-.22,0-.46-.03-.7-.09s-.47-.16-.67-.29-.37-.32-.5-.54-.2-.5-.2-.83c0-.43.12-.77.35-1.03.23-.25.54-.44.91-.58s.8-.22,1.27-.26.95-.06,1.43-.06v-.16ZM184.54,57.07c-.28,0-.57.01-.87.04-.3.02-.57.07-.82.14s-.45.18-.61.32c-.16.14-.24.34-.24.58,0,.17.03.31.1.42.07.11.16.2.27.28.11.07.24.12.37.15.14.03.28.04.42.04.53,0,.93-.16,1.22-.47.28-.32.43-.71.43-1.19v-.3h-.28Z"/>
        <path class="cls-2" d="M189.1,52.04c0,.21-.07.38-.22.52-.15.14-.32.2-.53.2s-.38-.07-.52-.21c-.14-.14-.21-.31-.21-.51s.07-.38.21-.52c.14-.14.32-.21.52-.21s.38.07.53.21c.15.14.22.31.22.52ZM188.92,59.78h-1.13v-5.69h1.13v5.69Z"/>
        <path class="cls-2" d="M190.87,54.73c0-.24-.02-.45-.04-.64h1.07c.02.14.03.31.04.5,0,.19.01.34.01.46h.04c.16-.34.39-.61.7-.81.31-.2.65-.31,1.04-.31.18,0,.32.02.44.05l-.05,1.04c-.16-.04-.33-.06-.52-.06-.27,0-.51.05-.71.15-.2.1-.37.23-.5.4-.13.17-.23.36-.29.58-.06.22-.1.45-.1.69v2.99h-1.13v-4.46c0-.15,0-.35-.01-.59Z"/>
        <path class="cls-2" d="M196.38,59.78h-1.13v-9.07h1.13v9.07Z"/>
        <path class="cls-2" d="M199.67,52.04c0,.21-.07.38-.22.52-.15.14-.32.2-.53.2s-.38-.07-.52-.21c-.14-.14-.21-.31-.21-.51s.07-.38.21-.52c.14-.14.32-.21.52-.21s.38.07.53.21c.15.14.22.31.22.52ZM199.49,59.78h-1.13v-5.69h1.13v5.69Z"/>
        <path class="cls-2" d="M202.48,54.09c.02.14.03.31.04.49,0,.18.01.33.01.45h.04c.07-.15.17-.29.29-.43.12-.13.27-.25.43-.35.16-.1.34-.18.53-.23.19-.06.39-.08.6-.08.37,0,.68.06.95.19s.48.29.66.5c.18.21.31.45.39.73.08.28.13.58.13.9v3.53h-1.13v-3.16c0-.23-.02-.45-.05-.66s-.1-.39-.2-.55-.23-.29-.4-.38c-.17-.1-.38-.14-.65-.14-.45,0-.81.17-1.1.51-.28.34-.43.79-.43,1.36v3.02h-1.13v-4.46c0-.15,0-.35-.01-.59,0-.24-.02-.45-.04-.64h1.07Z"/>
        <path class="cls-2" d="M213.76,56.89v.19c0,.06,0,.13-.01.19h-4.52c0,.24.06.46.16.67.1.21.23.39.4.55.17.16.36.28.58.36.22.09.45.13.7.13.38,0,.72-.08,1-.25s.5-.37.66-.61l.79.64c-.3.4-.66.7-1.07.89s-.87.29-1.37.29c-.43,0-.83-.07-1.2-.22-.37-.14-.68-.35-.95-.61s-.47-.57-.62-.94c-.15-.37-.23-.78-.23-1.22s.07-.85.22-1.22c.15-.37.35-.69.62-.95.26-.26.58-.47.94-.62.36-.15.75-.22,1.17-.22s.8.07,1.14.2c.34.14.63.33.87.59.24.26.42.57.55.93s.19.77.19,1.23ZM212.6,56.43c0-.22-.05-.43-.11-.63-.07-.2-.17-.37-.3-.51s-.3-.26-.49-.34c-.2-.08-.43-.13-.69-.13-.24,0-.47.04-.68.13s-.4.2-.55.34c-.16.14-.28.31-.38.51-.1.2-.16.41-.17.63h3.38Z"/>
        <path class="cls-2" d="M218.39,55.53c-.13-.21-.31-.38-.54-.51-.23-.13-.49-.2-.78-.2-.13,0-.26.01-.38.04s-.24.07-.34.13c-.1.06-.18.14-.24.23-.06.09-.09.21-.09.34,0,.24.11.42.32.53.22.12.54.22.97.32.27.06.52.14.76.23.23.09.43.2.61.33.17.13.31.29.4.47.1.18.14.4.14.65,0,.34-.06.62-.19.85s-.3.42-.51.57c-.21.15-.45.25-.73.32-.27.06-.55.1-.84.1-.43,0-.85-.08-1.27-.25s-.75-.42-1.03-.77l.8-.68c.15.22.36.41.63.56.27.15.56.23.88.23.14,0,.28-.01.41-.04.13-.03.25-.07.36-.14.11-.06.19-.15.26-.25.06-.1.1-.24.1-.4,0-.26-.13-.46-.38-.59s-.62-.25-1.11-.36c-.19-.05-.39-.11-.58-.17-.2-.07-.37-.16-.53-.28-.16-.12-.29-.27-.39-.45-.1-.18-.15-.4-.15-.67,0-.3.06-.57.19-.79.12-.22.29-.4.49-.54.2-.14.43-.24.68-.31s.52-.1.79-.1c.41,0,.8.08,1.18.24.38.16.67.39.88.7l-.78.66Z"/>
        <path class="cls-2" d="M22.04,69.93c-.13-.21-.31-.38-.54-.51s-.49-.2-.78-.2c-.13,0-.26.01-.38.04-.13.03-.24.07-.34.13-.1.06-.18.14-.24.23-.06.09-.09.21-.09.34,0,.24.11.42.32.53s.54.22.97.32c.27.06.52.14.76.23.23.09.43.2.61.33s.31.29.4.47c.1.18.14.4.14.65,0,.34-.06.62-.19.85-.13.23-.3.42-.51.57-.21.15-.45.25-.73.32-.27.06-.55.1-.84.1-.43,0-.85-.08-1.27-.25s-.75-.42-1.03-.77l.8-.68c.15.22.36.41.63.56.27.15.56.23.88.23.14,0,.28-.01.41-.04s.25-.07.36-.14c.11-.06.19-.15.26-.25.06-.1.1-.24.1-.4,0-.26-.13-.46-.38-.59s-.62-.25-1.11-.36c-.19-.05-.39-.11-.58-.17-.2-.07-.37-.16-.53-.28-.16-.12-.29-.27-.39-.45-.1-.18-.15-.4-.15-.67,0-.3.06-.57.19-.79s.29-.4.49-.54c.2-.14.43-.24.68-.31.26-.07.52-.1.79-.1.41,0,.8.08,1.18.24.38.16.67.39.88.7l-.78.66Z"/>
        <path class="cls-2" d="M25.47,69.36c.14-.28.37-.52.7-.72.33-.2.7-.3,1.1-.3.37,0,.68.06.95.19.26.12.48.29.66.5.18.21.31.45.39.73s.13.58.13.9v3.53h-1.13v-3.15c0-.23-.02-.45-.05-.66-.04-.21-.1-.39-.2-.55-.1-.16-.23-.29-.39-.38-.16-.1-.38-.14-.64-.14-.45,0-.82.17-1.1.51s-.43.8-.43,1.37v3.02h-1.13v-9.07h1.13v4.25h.02Z"/>
        <path class="cls-2" d="M37.07,71.33c0,.44-.08.84-.23,1.21s-.37.69-.65.95c-.28.27-.6.48-.98.62-.38.15-.78.22-1.21.22s-.84-.07-1.21-.22c-.38-.15-.7-.36-.97-.62-.27-.27-.49-.59-.64-.95s-.23-.77-.23-1.21.08-.84.23-1.21.37-.68.64-.94c.27-.26.6-.47.97-.62.38-.15.78-.22,1.21-.22s.84.07,1.21.22c.38.15.7.35.98.62.28.26.49.58.65.94s.23.77.23,1.21ZM35.89,71.33c0-.27-.04-.53-.13-.78-.08-.25-.21-.46-.37-.65s-.36-.34-.6-.45c-.24-.11-.51-.17-.81-.17s-.58.06-.81.17c-.24.11-.44.26-.6.45-.16.19-.28.4-.37.65-.08.25-.13.51-.13.78s.04.53.13.78c.08.25.21.47.37.66.16.19.36.34.6.46.24.11.51.17.81.17s.58-.06.81-.17c.24-.11.44-.26.6-.46s.28-.41.37-.66c.08-.25.13-.51.13-.78Z"/>
        <path class="cls-2" d="M39.04,68.49l1.28,4.34h.02l1.36-4.34h1.19l1.38,4.34h.02l1.28-4.34h1.19l-1.88,5.69h-1.18l-1.4-4.27h-.02l-1.39,4.27h-1.18l-1.9-5.69h1.22Z"/>
        <path class="cls-2" d="M53.22,71.29v.19c0,.06,0,.13-.01.19h-4.52c0,.24.06.46.16.67.1.21.23.39.4.55s.36.28.58.36c.22.09.45.13.7.13.38,0,.72-.08,1-.25s.5-.37.66-.61l.79.64c-.3.4-.66.7-1.07.89-.41.19-.87.29-1.37.29-.43,0-.83-.07-1.2-.22-.37-.14-.68-.35-.95-.61-.26-.26-.47-.57-.62-.94-.15-.37-.23-.78-.23-1.22s.07-.85.22-1.22.35-.69.62-.95.58-.47.94-.62c.36-.15.75-.22,1.17-.22s.8.07,1.14.2.63.33.87.59c.24.26.42.57.55.93.13.36.19.77.19,1.23ZM52.07,70.83c0-.22-.05-.43-.11-.63-.07-.2-.17-.37-.3-.51-.13-.14-.3-.26-.49-.34-.2-.08-.43-.13-.69-.13-.24,0-.47.04-.68.13s-.4.2-.55.34c-.16.14-.28.31-.38.51-.1.2-.16.41-.17.63h3.38Z"/>
        <path class="cls-2" d="M59.31,73.28c-.22.34-.51.61-.88.79-.37.18-.76.27-1.17.27-.44,0-.84-.08-1.19-.23-.35-.16-.65-.37-.9-.64-.25-.27-.44-.59-.58-.96s-.2-.76-.2-1.18.07-.81.2-1.17c.14-.36.33-.68.58-.95.25-.27.55-.48.91-.64.35-.15.74-.23,1.16-.23.46,0,.87.1,1.21.29.34.2.62.43.82.71h.02v-4.24h1.13v9.07h-1.09v-.9h-.02ZM55.57,71.33c0,.26.04.52.12.77s.2.47.36.66.36.34.59.46c.23.12.5.17.82.17.29,0,.55-.06.79-.17.24-.11.44-.26.61-.45s.3-.4.39-.65c.09-.25.14-.51.14-.78s-.05-.53-.14-.78-.22-.47-.39-.66-.37-.34-.61-.46c-.24-.11-.5-.17-.79-.17-.31,0-.58.06-.82.17-.23.11-.43.26-.59.46s-.28.41-.36.66-.12.5-.12.77Z"/>
        <path class="cls-2" d="M66.72,66.44c0,.21-.07.38-.22.52-.15.14-.32.2-.53.2s-.38-.07-.52-.21c-.14-.14-.21-.31-.21-.51s.07-.38.21-.52c.14-.14.32-.21.52-.21s.38.07.53.21c.15.14.22.31.22.52ZM66.54,74.18h-1.13v-5.69h1.13v5.69Z"/>
        <path class="cls-2" d="M69.53,68.49c.02.14.03.31.04.49,0,.18.01.33.01.45h.04c.07-.15.17-.29.29-.43s.27-.25.43-.35c.16-.1.34-.18.53-.23.19-.06.39-.08.6-.08.37,0,.68.06.95.19.26.12.48.29.66.5.18.21.31.45.39.73s.13.58.13.9v3.53h-1.13v-3.16c0-.23-.02-.45-.05-.66s-.1-.39-.2-.55c-.1-.16-.23-.29-.4-.38-.17-.1-.38-.14-.65-.14-.45,0-.81.17-1.1.51-.28.34-.43.79-.43,1.36v3.02h-1.13v-4.46c0-.15,0-.35-.01-.59s-.02-.45-.04-.64h1.07Z"/>
        <path class="cls-2" d="M78.27,69.42h-1.51v2.96c0,.34.06.59.19.74s.33.22.61.22c.1,0,.22-.01.34-.03.12-.02.23-.05.32-.1l.04.92c-.14.05-.29.09-.45.11-.16.03-.33.04-.51.04-.54,0-.95-.15-1.23-.44s-.43-.74-.43-1.33v-3.08h-1.09v-.92h1.09v-1.63h1.12v1.63h1.51v.92Z"/>
        <path class="cls-2" d="M84.75,71.29v.19c0,.06,0,.13-.01.19h-4.52c0,.24.06.46.16.67.1.21.23.39.4.55s.36.28.58.36c.22.09.45.13.7.13.38,0,.72-.08,1-.25s.5-.37.66-.61l.79.64c-.3.4-.66.7-1.07.89-.41.19-.87.29-1.37.29-.43,0-.83-.07-1.2-.22-.37-.14-.68-.35-.95-.61-.26-.26-.47-.57-.62-.94-.15-.37-.23-.78-.23-1.22s.07-.85.22-1.22.35-.69.62-.95.58-.47.94-.62c.36-.15.75-.22,1.17-.22s.8.07,1.14.2.63.33.87.59c.24.26.42.57.55.93.13.36.19.77.19,1.23ZM83.6,70.83c0-.22-.05-.43-.11-.63-.07-.2-.17-.37-.3-.51-.13-.14-.3-.26-.49-.34-.2-.08-.43-.13-.69-.13-.24,0-.47.04-.68.13s-.4.2-.55.34c-.16.14-.28.31-.38.51-.1.2-.16.41-.17.63h3.38Z"/>
        <path class="cls-2" d="M86.3,69.13c0-.24-.02-.45-.04-.64h1.07c.02.14.03.31.04.5,0,.19.01.34.01.46h.04c.16-.34.39-.61.7-.81.31-.2.65-.31,1.04-.31.18,0,.32.02.44.05l-.05,1.04c-.16-.04-.33-.06-.52-.06-.27,0-.51.05-.71.15-.2.1-.37.23-.5.4s-.23.36-.29.58c-.06.22-.1.45-.1.69v2.99h-1.13v-4.46c0-.15,0-.35-.01-.59Z"/>
        <path class="cls-2" d="M95.76,71.29v.19c0,.06,0,.13-.01.19h-4.52c0,.24.06.46.16.67.1.21.23.39.4.55s.36.28.58.36c.22.09.45.13.7.13.38,0,.72-.08,1-.25s.5-.37.66-.61l.79.64c-.3.4-.66.7-1.07.89-.41.19-.87.29-1.37.29-.43,0-.83-.07-1.2-.22-.37-.14-.68-.35-.95-.61-.26-.26-.47-.57-.62-.94-.15-.37-.23-.78-.23-1.22s.07-.85.22-1.22.35-.69.62-.95.58-.47.94-.62c.36-.15.75-.22,1.17-.22s.8.07,1.14.2.63.33.87.59c.24.26.42.57.55.93.13.36.19.77.19,1.23ZM94.6,70.83c0-.22-.05-.43-.11-.63-.07-.2-.17-.37-.3-.51-.13-.14-.3-.26-.49-.34-.2-.08-.43-.13-.69-.13-.24,0-.47.04-.68.13s-.4.2-.55.34c-.16.14-.28.31-.38.51-.1.2-.16.41-.17.63h3.38Z"/>
        <path class="cls-2" d="M100.39,69.93c-.13-.21-.31-.38-.54-.51s-.49-.2-.78-.2c-.13,0-.26.01-.38.04-.13.03-.24.07-.34.13-.1.06-.18.14-.24.23-.06.09-.09.21-.09.34,0,.24.11.42.32.53s.54.22.97.32c.27.06.52.14.76.23.23.09.43.2.61.33s.31.29.4.47c.1.18.14.4.14.65,0,.34-.06.62-.19.85-.13.23-.3.42-.51.57-.21.15-.45.25-.73.32-.27.06-.55.1-.84.1-.43,0-.85-.08-1.27-.25s-.75-.42-1.03-.77l.8-.68c.15.22.36.41.63.56.27.15.56.23.88.23.14,0,.28-.01.41-.04s.25-.07.36-.14c.11-.06.19-.15.26-.25.06-.1.1-.24.1-.4,0-.26-.13-.46-.38-.59s-.62-.25-1.11-.36c-.19-.05-.39-.11-.58-.17-.2-.07-.37-.16-.53-.28-.16-.12-.29-.27-.39-.45-.1-.18-.15-.4-.15-.67,0-.3.06-.57.19-.79s.29-.4.49-.54c.2-.14.43-.24.68-.31.26-.07.52-.1.79-.1.41,0,.8.08,1.18.24.38.16.67.39.88.7l-.78.66Z"/>
        <path class="cls-2" d="M105.43,69.42h-1.51v2.96c0,.34.06.59.19.74s.33.22.61.22c.1,0,.22-.01.34-.03.12-.02.23-.05.32-.1l.04.92c-.14.05-.29.09-.45.11-.16.03-.33.04-.51.04-.54,0-.95-.15-1.23-.44s-.43-.74-.43-1.33v-3.08h-1.09v-.92h1.09v-1.63h1.12v1.63h1.51v.92Z"/>
        <path class="cls-2" d="M110.91,66.44c0,.21-.07.38-.22.52-.15.14-.32.2-.53.2s-.38-.07-.52-.21c-.14-.14-.21-.31-.21-.51s.07-.38.21-.52c.14-.14.32-.21.52-.21s.38.07.53.21c.15.14.22.31.22.52ZM110.73,74.18h-1.13v-5.69h1.13v5.69Z"/>
        <path class="cls-2" d="M113.72,68.49c.02.14.03.31.04.49,0,.18.01.33.01.45h.04c.07-.15.17-.29.29-.43s.27-.25.43-.35c.16-.1.34-.18.53-.23.19-.06.39-.08.6-.08.37,0,.68.06.95.19.26.12.48.29.66.5.18.21.31.45.39.73s.13.58.13.9v3.53h-1.13v-3.16c0-.23-.02-.45-.05-.66s-.1-.39-.2-.55c-.1-.16-.23-.29-.4-.38-.17-.1-.38-.14-.65-.14-.45,0-.81.17-1.1.51-.28.34-.43.79-.43,1.36v3.02h-1.13v-4.46c0-.15,0-.35-.01-.59s-.02-.45-.04-.64h1.07Z"/>
        <path class="cls-2" d="M121.08,73.46c0,.21-.08.39-.23.55-.15.16-.34.24-.58.24s-.41-.08-.57-.23c-.16-.16-.23-.34-.23-.55s.08-.4.23-.56c.15-.16.34-.23.58-.23s.42.08.58.23c.15.15.23.34.23.55Z"/>
      </g>
    </g>
  </g>
</svg>