<?xml version="1.0" encoding="UTF-8"?>
<svg id="Layer_2" data-name="Layer 2" xmlns="http://www.w3.org/2000/svg" viewBox="0 0 252.99 80.21">
  <defs>
    <style>
      .cls-1 {
        fill: #fff;
        stroke: #86b6ee;
        stroke-miterlimit: 10;
        stroke-width: 2.99px;
      }

      .cls-2 {
        fill: #231f20;
      }

      .cls-2, .cls-3 {
        stroke-width: 0px;
      }

      .cls-3 {
        fill: #0239a1;
      }
    </style>
  </defs>
  <g id="Timeline">
    <g>
      <rect class="cls-1" x="1.49" y="1.49" width="250" height="77.22" rx="10.73" ry="10.73"/>
      <g>
        <path class="cls-3" d="M10.14,19.18v-1.68l3.31-3c.21-.2.38-.4.5-.61.13-.21.19-.44.19-.69,0-.3-.1-.55-.29-.74-.19-.19-.45-.28-.77-.28-.34,0-.61.12-.82.35-.21.24-.34.55-.38.93l-1.93-.26c.05-.43.17-.82.35-1.15.19-.34.43-.62.71-.86.29-.24.62-.42.99-.54.37-.12.77-.19,1.18-.19.39,0,.77.05,1.14.16.37.1.7.26.98.48s.52.49.69.82c.17.33.26.71.26,1.15,0,.3-.04.58-.12.82-.08.24-.19.47-.33.68-.14.21-.3.4-.48.58s-.37.36-.56.53l-1.97,1.75h3.47v1.75h-6.14Z"/>
        <path class="cls-3" d="M24.28,14.91c0,.6-.06,1.17-.18,1.72s-.31,1.02-.58,1.43c-.26.41-.61.74-1.03.98-.42.24-.93.37-1.53.37s-1.11-.12-1.54-.37c-.42-.24-.77-.57-1.04-.98s-.46-.89-.58-1.43-.18-1.12-.18-1.72.06-1.17.18-1.71.31-1.01.58-1.42c.27-.4.61-.73,1.04-.97.42-.24.94-.36,1.54-.36s1.11.12,1.53.36c.42.24.76.56,1.03.97.26.4.46.88.58,1.42s.18,1.11.18,1.71ZM22.21,14.91c0-.26-.02-.56-.05-.88-.03-.32-.09-.62-.18-.89-.09-.28-.21-.51-.38-.7-.16-.19-.38-.28-.64-.28s-.48.09-.65.28c-.17.19-.3.42-.39.7-.09.28-.15.57-.19.89-.03.32-.05.61-.05.88s.02.57.05.89c.03.32.09.62.19.9.09.28.22.51.39.7.17.19.38.28.65.28s.48-.09.64-.28c.16-.19.29-.42.38-.7.09-.28.15-.58.18-.9.03-.32.05-.62.05-.89Z"/>
        <path class="cls-3" d="M32.03,14.91c0,.6-.06,1.17-.18,1.72s-.31,1.02-.58,1.43c-.26.41-.61.74-1.03.98-.42.24-.93.37-1.53.37s-1.11-.12-1.54-.37c-.42-.24-.77-.57-1.04-.98s-.46-.89-.58-1.43-.18-1.12-.18-1.72.06-1.17.18-1.71.31-1.01.58-1.42c.27-.4.61-.73,1.04-.97.42-.24.94-.36,1.54-.36s1.11.12,1.53.36c.42.24.76.56,1.03.97.26.4.46.88.58,1.42s.18,1.11.18,1.71ZM29.96,14.91c0-.26-.02-.56-.05-.88-.03-.32-.09-.62-.18-.89-.09-.28-.21-.51-.38-.7-.16-.19-.38-.28-.64-.28s-.48.09-.65.28c-.17.19-.3.42-.39.7-.09.28-.15.57-.19.89-.03.32-.05.61-.05.88s.02.57.05.89c.03.32.09.62.19.9.09.28.22.51.39.7.17.19.38.28.65.28s.48-.09.64-.28c.16-.19.29-.42.38-.7.09-.28.15-.58.18-.9.03-.32.05-.62.05-.89Z"/>
        <path class="cls-3" d="M35.98,19.18v-6.24l-1.58,1.22-1.04-1.43,2.79-2.05h1.84v8.5h-2Z"/>
        <path class="cls-3" d="M40.76,16.81v-1.56h3.05v1.56h-3.05Z"/>
        <path class="cls-3" d="M45.06,19.18v-1.68l3.31-3c.21-.2.38-.4.5-.61.13-.21.19-.44.19-.69,0-.3-.1-.55-.29-.74-.19-.19-.45-.28-.77-.28-.34,0-.61.12-.82.35-.21.24-.34.55-.38.93l-1.93-.26c.05-.43.17-.82.35-1.15.19-.34.43-.62.71-.86.29-.24.62-.42.99-.54.37-.12.77-.19,1.18-.19.39,0,.77.05,1.14.16.37.1.7.26.98.48s.52.49.69.82c.17.33.26.71.26,1.15,0,.3-.04.58-.12.82-.08.24-.19.47-.33.68-.14.21-.3.4-.48.58s-.37.36-.56.53l-1.97,1.75h3.47v1.75h-6.14Z"/>
        <path class="cls-3" d="M59.2,14.91c0,.6-.06,1.17-.18,1.72s-.31,1.02-.58,1.43c-.26.41-.61.74-1.03.98-.42.24-.93.37-1.53.37s-1.11-.12-1.54-.37c-.42-.24-.77-.57-1.04-.98s-.46-.89-.58-1.43-.18-1.12-.18-1.72.06-1.17.18-1.71.31-1.01.58-1.42c.27-.4.61-.73,1.04-.97.42-.24.94-.36,1.54-.36s1.11.12,1.53.36c.42.24.76.56,1.03.97.26.4.46.88.58,1.42s.18,1.11.18,1.71ZM57.13,14.91c0-.26-.02-.56-.05-.88-.03-.32-.09-.62-.18-.89-.09-.28-.21-.51-.38-.7-.16-.19-.38-.28-.64-.28s-.48.09-.65.28c-.17.19-.3.42-.39.7-.09.28-.15.57-.19.89-.03.32-.05.61-.05.88s.02.57.05.89c.03.32.09.62.19.9.09.28.22.51.39.7.17.19.38.28.65.28s.48-.09.64-.28c.16-.19.29-.42.38-.7.09-.28.15-.58.18-.9.03-.32.05-.62.05-.89Z"/>
        <path class="cls-3" d="M66.95,14.91c0,.6-.06,1.17-.18,1.72s-.31,1.02-.58,1.43c-.26.41-.61.74-1.03.98-.42.24-.93.37-1.53.37s-1.11-.12-1.54-.37c-.42-.24-.77-.57-1.04-.98s-.46-.89-.58-1.43-.18-1.12-.18-1.72.06-1.17.18-1.71.31-1.01.58-1.42c.27-.4.61-.73,1.04-.97.42-.24.94-.36,1.54-.36s1.11.12,1.53.36c.42.24.76.56,1.03.97.26.4.46.88.58,1.42s.18,1.11.18,1.71ZM64.88,14.91c0-.26-.02-.56-.05-.88-.03-.32-.09-.62-.18-.89-.09-.28-.21-.51-.38-.7-.16-.19-.38-.28-.64-.28s-.48.09-.65.28c-.17.19-.3.42-.39.7-.09.28-.15.57-.19.89-.03.32-.05.61-.05.88s.02.57.05.89c.03.32.09.62.19.9.09.28.22.51.39.7.17.19.38.28.65.28s.48-.09.64-.28c.16-.19.29-.42.38-.7.09-.28.15-.58.18-.9.03-.32.05-.62.05-.89Z"/>
        <path class="cls-3" d="M68.32,19.18v-1.68l3.31-3c.21-.2.38-.4.5-.61.13-.21.19-.44.19-.69,0-.3-.1-.55-.29-.74-.19-.19-.45-.28-.77-.28-.34,0-.61.12-.82.35-.21.24-.34.55-.38.93l-1.93-.26c.05-.43.17-.82.35-1.15.19-.34.43-.62.71-.86.29-.24.62-.42.99-.54.37-.12.77-.19,1.18-.19.39,0,.77.05,1.14.16.37.1.7.26.98.48s.52.49.69.82c.17.33.26.71.26,1.15,0,.3-.04.58-.12.82-.08.24-.19.47-.33.68-.14.21-.3.4-.48.58s-.37.36-.56.53l-1.97,1.75h3.47v1.75h-6.14Z"/>
        <path class="cls-2" d="M12.6,31.85h.02l1.99-6.77h1.31l1.98,6.77h.02l1.87-6.77h1.26l-2.5,8.5h-1.24l-2.06-6.83h-.02l-2.06,6.83h-1.24l-2.5-8.5h1.28l1.87,6.77Z"/>
        <path class="cls-2" d="M23.47,25.84c0,.21-.07.38-.22.52-.15.14-.32.2-.53.2s-.38-.07-.52-.21c-.14-.14-.21-.31-.21-.51s.07-.38.21-.52c.14-.14.32-.21.52-.21s.38.07.53.21c.15.14.22.31.22.52ZM23.29,33.58h-1.13v-5.69h1.13v5.69Z"/>
        <path class="cls-2" d="M28.04,28.81h-1.51v2.96c0,.34.06.59.19.74s.33.22.61.22c.1,0,.22-.01.34-.03.12-.02.23-.05.32-.1l.04.92c-.14.05-.29.08-.45.11s-.33.04-.51.04c-.54,0-.95-.15-1.23-.44-.28-.3-.43-.74-.43-1.33v-3.08h-1.09v-.92h1.09v-1.63h1.12v1.63h1.51v.92Z"/>
        <path class="cls-2" d="M30.38,28.75c.14-.28.37-.52.7-.72.33-.2.7-.3,1.1-.3.37,0,.68.06.95.19s.48.29.66.5c.18.21.31.45.39.73s.13.58.13.9v3.53h-1.13v-3.15c0-.23-.02-.45-.05-.66-.04-.21-.1-.39-.2-.55-.1-.16-.23-.29-.39-.39-.16-.1-.38-.14-.64-.14-.45,0-.82.17-1.1.51s-.43.8-.43,1.37v3.02h-1.13v-9.07h1.13v4.25h.02Z"/>
        <path class="cls-2" d="M42,28.81h-1.51v2.96c0,.34.06.59.19.74s.33.22.61.22c.1,0,.22-.01.34-.03.12-.02.23-.05.32-.1l.04.92c-.14.05-.29.08-.45.11s-.33.04-.51.04c-.54,0-.95-.15-1.23-.44-.28-.3-.43-.74-.43-1.33v-3.08h-1.09v-.92h1.09v-1.63h1.12v1.63h1.51v.92Z"/>
        <path class="cls-2" d="M44.34,28.75c.14-.28.37-.52.7-.72.33-.2.7-.3,1.1-.3.37,0,.68.06.95.19s.48.29.66.5c.18.21.31.45.39.73s.13.58.13.9v3.53h-1.13v-3.15c0-.23-.02-.45-.05-.66-.04-.21-.1-.39-.2-.55-.1-.16-.23-.29-.39-.39-.16-.1-.38-.14-.64-.14-.45,0-.82.17-1.1.51s-.43.8-.43,1.37v3.02h-1.13v-9.07h1.13v4.25h.02Z"/>
        <path class="cls-2" d="M55.49,30.69v.19c0,.06,0,.13-.01.19h-4.52c0,.24.06.46.16.67.1.21.23.39.4.55.17.15.36.28.58.36.22.09.45.13.7.13.38,0,.72-.08,1-.25.28-.17.5-.37.66-.61l.79.64c-.3.4-.66.7-1.07.89-.41.19-.87.29-1.37.29-.43,0-.83-.07-1.2-.22-.37-.14-.68-.35-.95-.61-.26-.26-.47-.57-.62-.94-.15-.37-.23-.78-.23-1.22s.07-.85.22-1.22.35-.69.62-.95c.26-.26.58-.47.94-.62.36-.15.75-.22,1.17-.22s.8.07,1.14.2c.34.14.63.33.87.59.24.26.42.57.55.93.13.36.19.77.19,1.23ZM54.34,30.23c0-.22-.05-.43-.11-.63-.07-.2-.17-.37-.3-.51-.13-.14-.3-.26-.49-.34-.2-.08-.43-.13-.69-.13-.24,0-.47.04-.68.13s-.4.2-.55.34c-.16.14-.28.31-.38.51-.1.2-.16.41-.17.63h3.38Z"/>
        <path class="cls-2" d="M63.45,30.15h-.01c-.12.06-.28.12-.49.16-.1.02-.19.03-.29.04-.1.01-.19.02-.28.02-.38,0-.72-.07-1.04-.2s-.6-.32-.84-.55c-.24-.24-.43-.52-.56-.85s-.2-.68-.2-1.07c0-.42.07-.81.22-1.16.15-.35.35-.65.62-.89.26-.25.57-.44.93-.58s.75-.2,1.16-.2.8.07,1.16.21.67.33.93.58c.26.25.46.54.61.89.15.34.22.72.22,1.12,0,.46-.08.88-.23,1.26s-.35.76-.59,1.15l-2.22,3.5h-1.38l2.27-3.43ZM64.43,27.65c0-.25-.04-.48-.13-.7s-.2-.41-.36-.58c-.16-.16-.34-.29-.56-.39-.22-.1-.46-.14-.72-.14s-.5.05-.72.14c-.22.09-.4.22-.56.38-.16.16-.28.35-.36.58-.08.22-.13.47-.13.73s.04.49.13.71.2.4.35.56c.15.16.34.28.55.37.22.09.46.13.72.13s.51-.04.73-.13c.22-.09.41-.21.56-.37.16-.16.28-.35.36-.56s.13-.46.13-.72Z"/>
        <path class="cls-2" d="M67.04,33.97l-.85-.29,3.68-9.01.85.31-3.68,8.99Z"/>
        <path class="cls-2" d="M75.31,33.58h-1.15v-7.08l-1.61,1.34-.68-.8,2.41-1.96h1.03v8.5Z"/>
        <path class="cls-2" d="M82.45,33.58h-1.15v-7.08l-1.61,1.34-.68-.8,2.41-1.96h1.03v8.5Z"/>
        <path class="cls-2" d="M92.57,29.89c0-.42-.13-.74-.38-.94s-.6-.31-1.02-.31c-.32,0-.62.06-.91.19-.28.12-.52.28-.71.47l-.6-.72c.28-.26.62-.47,1.03-.62.4-.15.84-.23,1.3-.23.41,0,.76.06,1.06.17.3.12.55.27.74.47.19.2.34.44.43.71.1.27.14.56.14.88v2.48c0,.19,0,.39.02.61.01.21.03.39.07.52h-1.02c-.06-.27-.1-.54-.1-.82h-.04c-.21.3-.47.54-.79.71s-.69.25-1.12.25c-.22,0-.46-.03-.7-.09-.24-.06-.47-.16-.67-.29-.2-.14-.37-.32-.5-.54-.13-.22-.2-.5-.2-.83,0-.43.12-.77.35-1.03s.54-.44.91-.58.8-.22,1.27-.26.95-.06,1.43-.06v-.16ZM92.29,30.87c-.28,0-.57.01-.87.04-.3.02-.57.07-.82.14-.24.07-.45.18-.61.32s-.24.34-.24.58c0,.17.03.31.1.42.07.11.16.2.27.28.11.07.24.12.37.15.14.03.28.04.42.04.53,0,.93-.16,1.22-.47.28-.32.43-.71.43-1.19v-.3h-.28Z"/>
        <path class="cls-2" d="M98.19,28.81h-1.51v2.96c0,.34.06.59.19.74s.33.22.61.22c.1,0,.22-.01.34-.03.12-.02.23-.05.32-.1l.04.92c-.14.05-.29.08-.45.11s-.33.04-.51.04c-.54,0-.95-.15-1.23-.44-.28-.3-.43-.74-.43-1.33v-3.08h-1.09v-.92h1.09v-1.63h1.12v1.63h1.51v.92Z"/>
        <path class="cls-2" d="M101.96,28.81h-1.51v2.96c0,.34.06.59.19.74s.33.22.61.22c.1,0,.22-.01.34-.03.12-.02.23-.05.32-.1l.04.92c-.14.05-.29.08-.45.11s-.33.04-.51.04c-.54,0-.95-.15-1.23-.44-.28-.3-.43-.74-.43-1.33v-3.08h-1.09v-.92h1.09v-1.63h1.12v1.63h1.51v.92Z"/>
        <path class="cls-2" d="M106.67,29.89c0-.42-.13-.74-.38-.94s-.6-.31-1.02-.31c-.32,0-.62.06-.91.19-.28.12-.52.28-.71.47l-.6-.72c.28-.26.62-.47,1.03-.62.4-.15.84-.23,1.3-.23.41,0,.76.06,1.06.17.3.12.55.27.74.47.19.2.34.44.43.71.1.27.14.56.14.88v2.48c0,.19,0,.39.02.61.01.21.03.39.07.52h-1.02c-.06-.27-.1-.54-.1-.82h-.04c-.21.3-.47.54-.79.71s-.69.25-1.12.25c-.22,0-.46-.03-.7-.09-.24-.06-.47-.16-.67-.29-.2-.14-.37-.32-.5-.54-.13-.22-.2-.5-.2-.83,0-.43.12-.77.35-1.03s.54-.44.91-.58.8-.22,1.27-.26.95-.06,1.43-.06v-.16ZM106.39,30.87c-.28,0-.57.01-.87.04-.3.02-.57.07-.82.14-.24.07-.45.18-.61.32s-.24.34-.24.58c0,.17.03.31.1.42.07.11.16.2.27.28.11.07.24.12.37.15.14.03.28.04.42.04.53,0,.93-.16,1.22-.47.28-.32.43-.71.43-1.19v-.3h-.28Z"/>
        <path class="cls-2" d="M113.61,29.33c-.12-.18-.3-.34-.54-.46-.24-.12-.5-.19-.77-.19-.3,0-.56.06-.79.17-.23.11-.42.26-.58.45-.16.19-.28.41-.37.65s-.13.51-.13.78.04.53.13.78c.08.25.21.47.37.65.16.19.36.34.59.45.23.11.5.17.79.17s.55-.06.79-.17.43-.26.58-.46l.76.68c-.24.28-.54.5-.9.65-.36.16-.77.23-1.22.23s-.85-.07-1.22-.22c-.37-.14-.69-.35-.97-.61s-.49-.57-.64-.94c-.16-.37-.23-.78-.23-1.24s.08-.86.23-1.22c.15-.37.36-.68.64-.95.27-.26.59-.47.97-.61.37-.14.77-.22,1.21-.22.4,0,.8.08,1.19.24.4.16.71.39.94.7l-.82.66Z"/>
        <path class="cls-2" d="M116.71,30.36h.04l2.39-2.47h1.51l-2.66,2.58,2.89,3.11h-1.56l-2.57-2.95h-.04v2.95h-1.13v-9.07h1.13v5.86Z"/>
        <path class="cls-2" d="M124.88,29.33c-.13-.21-.31-.38-.54-.51s-.49-.2-.78-.2c-.13,0-.26.01-.38.04s-.24.07-.34.13c-.1.06-.18.14-.24.23-.06.09-.09.21-.09.34,0,.24.11.42.32.53.22.12.54.22.97.32.27.06.52.14.76.23.23.09.43.2.61.33.17.13.31.29.4.47.1.18.14.4.14.65,0,.34-.06.62-.19.85-.13.23-.3.42-.51.57-.21.15-.45.25-.73.32-.27.06-.55.1-.84.1-.43,0-.85-.08-1.27-.25s-.75-.42-1.03-.77l.8-.68c.15.22.36.41.63.56.27.15.56.23.88.23.14,0,.28-.01.41-.04s.25-.07.36-.14c.11-.06.19-.15.26-.25.06-.1.1-.24.1-.4,0-.26-.13-.46-.38-.59s-.62-.25-1.11-.36c-.19-.05-.39-.11-.58-.17-.2-.07-.37-.16-.53-.28s-.29-.27-.39-.45c-.1-.18-.15-.4-.15-.67,0-.3.06-.57.19-.79.12-.22.29-.4.49-.54.2-.14.43-.24.68-.31.26-.07.52-.1.79-.1.41,0,.8.08,1.18.24.38.16.67.39.88.7l-.78.66Z"/>
        <path class="cls-2" d="M133.68,29.89c0-.42-.13-.74-.38-.94s-.6-.31-1.02-.31c-.32,0-.62.06-.91.19-.28.12-.52.28-.71.47l-.6-.72c.28-.26.62-.47,1.03-.62.4-.15.84-.23,1.3-.23.41,0,.76.06,1.06.17.3.12.55.27.74.47.19.2.34.44.43.71.1.27.14.56.14.88v2.48c0,.19,0,.39.02.61.01.21.03.39.07.52h-1.02c-.06-.27-.1-.54-.1-.82h-.04c-.21.3-.47.54-.79.71s-.69.25-1.12.25c-.22,0-.46-.03-.7-.09-.24-.06-.47-.16-.67-.29-.2-.14-.37-.32-.5-.54-.13-.22-.2-.5-.2-.83,0-.43.12-.77.35-1.03s.54-.44.91-.58.8-.22,1.27-.26.95-.06,1.43-.06v-.16ZM133.4,30.87c-.28,0-.57.01-.87.04-.3.02-.57.07-.82.14-.24.07-.45.18-.61.32s-.24.34-.24.58c0,.17.03.31.1.42.07.11.16.2.27.28.11.07.24.12.37.15.14.03.28.04.42.04.53,0,.93-.16,1.22-.47.28-.32.43-.71.43-1.19v-.3h-.28Z"/>
        <path class="cls-2" d="M139.32,28.81h-1.32v4.76h-1.13v-4.76h-1.13v-.92h1.13v-1.19c0-.34.04-.65.11-.93s.2-.53.37-.74c.17-.21.39-.37.66-.49.27-.12.59-.18.98-.18.27,0,.51.03.71.08l-.13.97c-.09-.02-.18-.04-.26-.06-.09-.02-.19-.02-.3-.02-.22,0-.39.04-.52.11s-.23.18-.31.31c-.07.13-.12.27-.14.44-.02.16-.04.33-.04.51v1.19h1.32v.92Z"/>
        <path class="cls-2" d="M142.78,28.81h-1.32v4.76h-1.13v-4.76h-1.13v-.92h1.13v-1.19c0-.34.04-.65.11-.93s.2-.53.37-.74c.17-.21.39-.37.66-.49.27-.12.59-.18.98-.18.27,0,.51.03.71.08l-.13.97c-.09-.02-.18-.04-.26-.06-.09-.02-.19-.02-.3-.02-.22,0-.39.04-.52.11s-.23.18-.31.31c-.07.13-.12.27-.14.44-.02.16-.04.33-.04.51v1.19h1.32v.92Z"/>
        <path class="cls-2" d="M149.14,30.69v.19c0,.06,0,.13-.01.19h-4.52c0,.24.06.46.16.67.1.21.23.39.4.55.17.15.36.28.58.36.22.09.45.13.7.13.38,0,.72-.08,1-.25.28-.17.5-.37.66-.61l.79.64c-.3.4-.66.7-1.07.89-.41.19-.87.29-1.37.29-.43,0-.83-.07-1.2-.22-.37-.14-.68-.35-.95-.61-.26-.26-.47-.57-.62-.94-.15-.37-.23-.78-.23-1.22s.07-.85.22-1.22.35-.69.62-.95c.26-.26.58-.47.94-.62.36-.15.75-.22,1.17-.22s.8.07,1.14.2c.34.14.63.33.87.59.24.26.42.57.55.93.13.36.19.77.19,1.23ZM147.99,30.23c0-.22-.05-.43-.11-.63-.07-.2-.17-.37-.3-.51-.13-.14-.3-.26-.49-.34-.2-.08-.43-.13-.69-.13-.24,0-.47.04-.68.13s-.4.2-.55.34c-.16.14-.28.31-.38.51-.1.2-.16.41-.17.63h3.38Z"/>
        <path class="cls-2" d="M154.69,29.33c-.12-.18-.3-.34-.54-.46-.24-.12-.5-.19-.77-.19-.3,0-.56.06-.79.17-.23.11-.42.26-.58.45-.16.19-.28.41-.37.65s-.13.51-.13.78.04.53.13.78c.08.25.21.47.37.65.16.19.36.34.59.45.23.11.5.17.79.17s.55-.06.79-.17.43-.26.58-.46l.76.68c-.24.28-.54.5-.9.65-.36.16-.77.23-1.22.23s-.85-.07-1.22-.22c-.37-.14-.69-.35-.97-.61s-.49-.57-.64-.94c-.16-.37-.23-.78-.23-1.24s.08-.86.23-1.22c.15-.37.36-.68.64-.95.27-.26.59-.47.97-.61.37-.14.77-.22,1.21-.22.4,0,.8.08,1.19.24.4.16.71.39.94.7l-.82.66Z"/>
        <path class="cls-2" d="M159.42,28.81h-1.51v2.96c0,.34.06.59.19.74s.33.22.61.22c.1,0,.22-.01.34-.03.12-.02.23-.05.32-.1l.04.92c-.14.05-.29.08-.45.11s-.33.04-.51.04c-.54,0-.95-.15-1.23-.44-.28-.3-.43-.74-.43-1.33v-3.08h-1.09v-.92h1.09v-1.63h1.12v1.63h1.51v.92Z"/>
        <path class="cls-2" d="M161.9,25.84c0,.21-.07.38-.22.52-.15.14-.32.2-.53.2s-.38-.07-.52-.21c-.14-.14-.21-.31-.21-.51s.07-.38.21-.52c.14-.14.32-.21.52-.21s.38.07.53.21c.15.14.22.31.22.52ZM161.72,33.58h-1.13v-5.69h1.13v5.69Z"/>
        <path class="cls-2" d="M164.71,27.89c.02.14.03.31.04.49s.01.33.01.45h.04c.07-.15.17-.29.29-.43s.27-.25.43-.35c.16-.1.34-.18.53-.23.19-.06.39-.08.6-.08.37,0,.68.06.95.19s.48.29.66.5c.18.21.31.45.39.73s.13.58.13.9v3.53h-1.13v-3.16c0-.23-.02-.45-.05-.66-.04-.21-.1-.39-.2-.55s-.23-.29-.4-.38-.38-.14-.65-.14c-.45,0-.81.17-1.1.51s-.43.79-.43,1.36v3.02h-1.13v-4.46c0-.15,0-.35-.01-.59s-.02-.45-.04-.64h1.07Z"/>
        <path class="cls-2" d="M171.12,34.55c.25.28.56.5.93.67.37.17.75.25,1.15.25s.69-.05.95-.16c.26-.11.46-.26.62-.44.16-.19.27-.41.34-.67s.1-.53.1-.83v-.73h-.02c-.21.32-.49.56-.85.73-.36.17-.74.25-1.15.25-.43,0-.83-.08-1.18-.23-.36-.15-.66-.36-.91-.62-.25-.26-.44-.57-.58-.93-.14-.36-.2-.74-.2-1.15s.07-.79.2-1.15c.14-.36.33-.67.58-.94.25-.27.55-.48.9-.64.35-.16.74-.23,1.18-.23.41,0,.8.09,1.17.26s.67.44.88.8h.02v-.91h1.09v5.4c0,.42-.05.81-.16,1.19s-.28.72-.53,1.01-.57.53-.97.7c-.4.18-.9.26-1.49.26-.5,0-.99-.09-1.49-.27-.5-.18-.93-.43-1.29-.76l.72-.88ZM171.45,30.67c0,.26.04.52.13.76.08.24.21.45.37.64.16.18.36.33.6.44.23.11.5.17.79.17s.55-.05.79-.16c.24-.1.45-.25.61-.43.17-.18.3-.39.39-.64s.14-.51.14-.79-.05-.53-.14-.77-.22-.45-.4-.64c-.17-.18-.38-.33-.61-.44-.24-.11-.5-.16-.79-.16s-.56.05-.79.16c-.23.11-.43.25-.6.43-.16.18-.29.39-.37.64-.08.24-.13.5-.13.77Z"/>
        <path class="cls-2" d="M184.04,28.81h-1.51v2.96c0,.34.06.59.19.74s.33.22.61.22c.1,0,.22-.01.34-.03.12-.02.23-.05.32-.1l.04.92c-.14.05-.29.08-.45.11s-.33.04-.51.04c-.54,0-.95-.15-1.23-.44-.28-.3-.43-.74-.43-1.33v-3.08h-1.09v-.92h1.09v-1.63h1.12v1.63h1.51v.92Z"/>
        <path class="cls-2" d="M186.38,28.75c.14-.28.37-.52.7-.72.33-.2.7-.3,1.1-.3.37,0,.68.06.95.19s.48.29.66.5c.18.21.31.45.39.73s.13.58.13.9v3.53h-1.13v-3.15c0-.23-.02-.45-.05-.66-.04-.21-.1-.39-.2-.55-.1-.16-.23-.29-.39-.39-.16-.1-.38-.14-.64-.14-.45,0-.82.17-1.1.51s-.43.8-.43,1.37v3.02h-1.13v-9.07h1.13v4.25h.02Z"/>
        <path class="cls-2" d="M197.53,30.69v.19c0,.06,0,.13-.01.19h-4.52c0,.24.06.46.16.67.1.21.23.39.4.55.17.15.36.28.58.36.22.09.45.13.7.13.38,0,.72-.08,1-.25.28-.17.5-.37.66-.61l.79.64c-.3.4-.66.7-1.07.89-.41.19-.87.29-1.37.29-.43,0-.83-.07-1.2-.22-.37-.14-.68-.35-.95-.61-.26-.26-.47-.57-.62-.94-.15-.37-.23-.78-.23-1.22s.07-.85.22-1.22.35-.69.62-.95c.26-.26.58-.47.94-.62.36-.15.75-.22,1.17-.22s.8.07,1.14.2c.34.14.63.33.87.59.24.26.42.57.55.93.13.36.19.77.19,1.23ZM196.38,30.23c0-.22-.05-.43-.11-.63-.07-.2-.17-.37-.3-.51-.13-.14-.3-.26-.49-.34-.2-.08-.43-.13-.69-.13-.24,0-.47.04-.68.13s-.4.2-.55.34c-.16.14-.28.31-.38.51-.1.2-.16.41-.17.63h3.38Z"/>
        <path class="cls-2" d="M205.63,29.89c0-.42-.13-.74-.38-.94s-.6-.31-1.02-.31c-.32,0-.62.06-.91.19-.28.12-.52.28-.71.47l-.6-.72c.28-.26.62-.47,1.03-.62.4-.15.84-.23,1.3-.23.41,0,.76.06,1.06.17.3.12.55.27.74.47.19.2.34.44.43.71.1.27.14.56.14.88v2.48c0,.19,0,.39.02.61.01.21.03.39.07.52h-1.02c-.06-.27-.1-.54-.1-.82h-.04c-.21.3-.47.54-.79.71s-.69.25-1.12.25c-.22,0-.46-.03-.7-.09-.24-.06-.47-.16-.67-.29-.2-.14-.37-.32-.5-.54-.13-.22-.2-.5-.2-.83,0-.43.12-.77.35-1.03s.54-.44.91-.58.8-.22,1.27-.26.95-.06,1.43-.06v-.16ZM205.35,30.87c-.28,0-.57.01-.87.04-.3.02-.57.07-.82.14-.24.07-.45.18-.61.32s-.24.34-.24.58c0,.17.03.31.1.42.07.11.16.2.27.28.11.07.24.12.37.15.14.03.28.04.42.04.53,0,.93-.16,1.22-.47.28-.32.43-.71.43-1.19v-.3h-.28Z"/>
        <path class="cls-2" d="M209.91,25.84c0,.21-.07.38-.22.52-.15.14-.32.2-.53.2s-.38-.07-.52-.21c-.14-.14-.21-.31-.21-.51s.07-.38.21-.52c.14-.14.32-.21.52-.21s.38.07.53.21c.15.14.22.31.22.52ZM209.73,33.58h-1.13v-5.69h1.13v5.69Z"/>
        <path class="cls-2" d="M211.69,28.53c0-.24-.02-.45-.04-.64h1.07c.02.14.03.31.04.5,0,.19.01.34.01.46h.04c.16-.34.39-.61.7-.81s.65-.31,1.04-.31c.18,0,.32.02.44.05l-.05,1.04c-.16-.04-.33-.06-.52-.06-.27,0-.51.05-.71.15-.2.1-.37.23-.5.4-.13.17-.23.36-.29.58s-.1.45-.1.69v2.99h-1.13v-4.46c0-.15,0-.35-.01-.59Z"/>
        <path class="cls-2" d="M217.2,33.58h-1.13v-9.07h1.13v9.07Z"/>
        <path class="cls-2" d="M220.48,25.84c0,.21-.07.38-.22.52-.15.14-.32.2-.53.2s-.38-.07-.52-.21c-.14-.14-.21-.31-.21-.51s.07-.38.21-.52c.14-.14.32-.21.52-.21s.38.07.53.21c.15.14.22.31.22.52ZM220.3,33.58h-1.13v-5.69h1.13v5.69Z"/>
        <path class="cls-2" d="M223.59,25.84c0,.21-.07.38-.22.52-.15.14-.32.2-.53.2s-.38-.07-.52-.21c-.14-.14-.21-.31-.21-.51s.07-.38.21-.52c.14-.14.32-.21.52-.21s.38.07.53.21c.15.14.22.31.22.52ZM223.41,33.58h-1.13v-5.69h1.13v5.69Z"/>
        <path class="cls-2" d="M226.4,27.89c.02.14.03.31.04.49s.01.33.01.45h.04c.07-.15.17-.29.29-.43s.27-.25.43-.35c.16-.1.34-.18.53-.23.19-.06.39-.08.6-.08.37,0,.68.06.95.19s.48.29.66.5c.18.21.31.45.39.73s.13.58.13.9v3.53h-1.13v-3.16c0-.23-.02-.45-.05-.66-.04-.21-.1-.39-.2-.55s-.23-.29-.4-.38-.38-.14-.65-.14c-.45,0-.81.17-1.1.51s-.43.79-.43,1.36v3.02h-1.13v-4.46c0-.15,0-.35-.01-.59s-.02-.45-.04-.64h1.07Z"/>
        <path class="cls-2" d="M237.68,30.69v.19c0,.06,0,.13-.01.19h-4.52c0,.24.06.46.16.67.1.21.23.39.4.55.17.15.36.28.58.36.22.09.45.13.7.13.38,0,.72-.08,1-.25.28-.17.5-.37.66-.61l.79.64c-.3.4-.66.7-1.07.89-.41.19-.87.29-1.37.29-.43,0-.83-.07-1.2-.22-.37-.14-.68-.35-.95-.61-.26-.26-.47-.57-.62-.94-.15-.37-.23-.78-.23-1.22s.07-.85.22-1.22.35-.69.62-.95c.26-.26.58-.47.94-.62.36-.15.75-.22,1.17-.22s.8.07,1.14.2c.34.14.63.33.87.59.24.26.42.57.55.93.13.36.19.77.19,1.23ZM236.53,30.23c0-.22-.05-.43-.11-.63-.07-.2-.17-.37-.3-.51-.13-.14-.3-.26-.49-.34-.2-.08-.43-.13-.69-.13-.24,0-.47.04-.68.13s-.4.2-.55.34c-.16.14-.28.31-.38.51-.1.2-.16.41-.17.63h3.38Z"/>
        <path class="cls-2" d="M11.62,40.24c0,.21-.07.38-.22.52-.15.14-.32.2-.53.2s-.38-.07-.52-.21c-.14-.14-.21-.31-.21-.51s.07-.38.21-.52c.14-.14.32-.21.52-.21s.38.07.53.21c.15.14.22.31.22.52ZM11.44,47.98h-1.13v-5.69h1.13v5.69Z"/>
        <path class="cls-2" d="M14.42,42.29c.02.14.03.31.04.49s.01.33.01.45h.04c.07-.15.17-.29.29-.43s.27-.25.43-.35c.16-.1.34-.18.53-.23.19-.06.39-.08.6-.08.37,0,.68.06.95.19s.48.29.66.5c.18.21.31.45.39.73s.13.58.13.9v3.53h-1.13v-3.16c0-.23-.02-.45-.05-.66-.04-.21-.1-.39-.2-.55s-.23-.29-.4-.38-.38-.14-.65-.14c-.45,0-.81.17-1.1.51s-.43.79-.43,1.36v3.02h-1.13v-4.46c0-.15,0-.35-.01-.59s-.02-.45-.04-.64h1.07Z"/>
        <path class="cls-2" d="M24.92,47.08c-.22.34-.51.61-.88.79-.37.18-.76.27-1.17.27-.44,0-.84-.08-1.19-.23s-.65-.37-.9-.64c-.25-.27-.44-.59-.58-.96-.14-.37-.2-.76-.2-1.18s.07-.81.2-1.17c.14-.36.33-.68.58-.95.25-.27.55-.48.91-.64.35-.15.74-.23,1.16-.23.46,0,.87.1,1.21.29.34.2.62.43.82.71h.02v-4.24h1.13v9.07h-1.09v-.9h-.02ZM21.18,45.13c0,.26.04.52.12.77s.2.47.36.66c.16.19.36.34.59.46.23.12.5.17.82.17.29,0,.55-.06.79-.17.24-.11.44-.26.61-.45s.3-.4.39-.65c.09-.25.14-.51.14-.78s-.05-.53-.14-.78c-.09-.25-.22-.47-.39-.66s-.37-.34-.61-.46c-.24-.11-.5-.17-.79-.17-.31,0-.58.06-.82.17-.23.11-.43.26-.59.46-.16.19-.28.41-.36.66-.08.25-.12.5-.12.77Z"/>
        <path class="cls-2" d="M32.02,47.98c-.02-.14-.03-.31-.04-.49,0-.18-.01-.33-.01-.45h-.02c-.14.3-.39.56-.73.77-.34.21-.72.32-1.13.32-.37,0-.69-.06-.95-.18-.27-.12-.49-.29-.66-.5-.17-.21-.3-.46-.38-.74s-.13-.58-.13-.9v-3.53h1.13v3.14c0,.23.02.45.05.67s.1.4.2.56c.1.16.23.29.4.38.17.1.38.14.65.14.46,0,.82-.17,1.1-.51.28-.34.42-.79.42-1.36v-3.02h1.13v4.46c0,.15,0,.35.01.59,0,.24.02.45.04.64h-1.07Z"/>
        <path class="cls-2" d="M38.06,43.73c-.13-.21-.31-.38-.54-.51s-.49-.2-.78-.2c-.13,0-.26.01-.38.04s-.24.07-.34.13c-.1.06-.18.14-.24.23-.06.09-.09.21-.09.34,0,.24.11.42.32.53.22.12.54.22.97.32.27.06.52.14.76.23.23.09.43.2.61.33.17.13.31.29.4.47.1.18.14.4.14.65,0,.34-.06.62-.19.85-.13.23-.3.42-.51.57-.21.15-.45.25-.73.32-.27.06-.55.1-.84.1-.43,0-.85-.08-1.27-.25s-.75-.42-1.03-.77l.8-.68c.15.22.36.41.63.56.27.15.56.23.88.23.14,0,.28-.01.41-.04s.25-.07.36-.14c.11-.06.19-.15.26-.25.06-.1.1-.24.1-.4,0-.26-.13-.46-.38-.59s-.62-.25-1.11-.36c-.19-.05-.39-.11-.58-.17-.2-.07-.37-.16-.53-.28s-.29-.27-.39-.45c-.1-.18-.15-.4-.15-.67,0-.3.06-.57.19-.79.12-.22.29-.4.49-.54.2-.14.43-.24.68-.31.26-.07.52-.1.79-.1.41,0,.8.08,1.18.24.38.16.67.39.88.7l-.78.66Z"/>
        <path class="cls-2" d="M43.1,43.21h-1.51v2.96c0,.34.06.59.19.74s.33.22.61.22c.1,0,.22-.01.34-.03.12-.02.23-.05.32-.1l.04.92c-.14.05-.29.08-.45.11s-.33.04-.51.04c-.54,0-.95-.15-1.23-.44-.28-.3-.43-.74-.43-1.33v-3.08h-1.09v-.92h1.09v-1.63h1.12v1.63h1.51v.92Z"/>
        <path class="cls-2" d="M44.26,42.93c0-.24-.02-.45-.04-.64h1.07c.02.14.03.31.04.5,0,.19.01.34.01.46h.04c.16-.34.39-.61.7-.81s.65-.31,1.04-.31c.18,0,.32.02.44.05l-.05,1.04c-.16-.04-.33-.06-.52-.06-.27,0-.51.05-.71.15-.2.1-.37.23-.5.4-.13.17-.23.36-.29.58s-.1.45-.1.69v2.99h-1.13v-4.46c0-.15,0-.35-.01-.59Z"/>
        <path class="cls-2" d="M50.77,46.75h.02l1.57-4.46h1.2l-2.76,7.03c-.1.24-.2.45-.31.64-.11.19-.24.35-.4.48s-.33.23-.53.31c-.2.07-.45.11-.73.11-.12,0-.24,0-.37-.02-.12-.01-.25-.03-.38-.07l.11-1c.19.06.38.1.56.1.3,0,.52-.08.66-.25.14-.16.28-.4.4-.7l.36-.95-2.44-5.69h1.26l1.76,4.46Z"/>
        <path class="cls-2" d="M58.98,40.24c0,.21-.07.38-.22.52-.15.14-.32.2-.53.2s-.38-.07-.52-.21c-.14-.14-.21-.31-.21-.51s.07-.38.21-.52c.14-.14.32-.21.52-.21s.38.07.53.21c.15.14.22.31.22.52ZM58.8,47.98h-1.13v-5.69h1.13v5.69Z"/>
        <path class="cls-2" d="M63.55,43.21h-1.51v2.96c0,.34.06.59.19.74s.33.22.61.22c.1,0,.22-.01.34-.03.12-.02.23-.05.32-.1l.04.92c-.14.05-.29.08-.45.11s-.33.04-.51.04c-.54,0-.95-.15-1.23-.44-.28-.3-.43-.74-.43-1.33v-3.08h-1.09v-.92h1.09v-1.63h1.12v1.63h1.51v.92Z"/>
        <path class="cls-2" d="M70.39,43.21h-1.32v4.76h-1.13v-4.76h-1.13v-.92h1.13v-1.19c0-.34.04-.65.11-.93s.2-.53.37-.74c.17-.21.39-.37.66-.49.27-.12.59-.18.98-.18.27,0,.51.03.71.08l-.13.97c-.09-.02-.18-.04-.26-.06-.09-.02-.19-.02-.3-.02-.22,0-.39.04-.52.11s-.23.18-.31.31c-.07.13-.12.27-.14.44-.02.16-.04.33-.04.51v1.19h1.32v.92Z"/>
        <path class="cls-2" d="M77.19,45.12c0,.44-.08.84-.23,1.21-.16.37-.37.69-.65.95-.28.27-.6.48-.98.62-.38.15-.78.22-1.21.22s-.84-.07-1.21-.22c-.38-.15-.7-.36-.97-.62-.27-.27-.49-.59-.64-.95-.16-.37-.23-.77-.23-1.21s.08-.84.23-1.21c.16-.36.37-.68.64-.94s.6-.47.97-.62c.38-.15.78-.22,1.21-.22s.84.07,1.21.22c.38.15.7.35.98.62s.49.58.65.94c.16.36.23.77.23,1.21ZM76.02,45.13c0-.27-.04-.53-.13-.78-.08-.25-.21-.46-.37-.65s-.36-.34-.6-.45c-.24-.11-.51-.17-.81-.17s-.58.06-.81.17c-.24.11-.44.26-.6.45-.16.19-.28.4-.37.65-.08.25-.13.51-.13.78s.04.53.13.78c.08.25.21.47.37.66.16.19.36.34.6.46.24.11.51.17.81.17s.58-.06.81-.17c.24-.11.44-.26.6-.46s.28-.41.37-.66c.08-.25.13-.51.13-.78Z"/>
        <path class="cls-2" d="M78.74,42.93c0-.24-.02-.45-.04-.64h1.07c.02.14.03.31.04.5,0,.19.01.34.01.46h.04c.16-.34.39-.61.7-.81s.65-.31,1.04-.31c.18,0,.32.02.44.05l-.05,1.04c-.16-.04-.33-.06-.52-.06-.27,0-.51.05-.71.15-.2.1-.37.23-.5.4-.13.17-.23.36-.29.58s-.1.45-.1.69v2.99h-1.13v-4.46c0-.15,0-.35-.01-.59Z"/>
        <path class="cls-2" d="M86.87,43.73c-.12-.18-.3-.34-.54-.46-.24-.12-.5-.19-.77-.19-.3,0-.56.06-.79.17-.23.11-.42.26-.58.45-.16.19-.28.41-.37.65s-.13.51-.13.78.04.53.13.78c.08.25.21.47.37.65.16.19.36.34.59.45.23.11.5.17.79.17s.55-.06.79-.17.43-.26.58-.46l.76.68c-.24.28-.54.5-.9.65-.36.16-.77.23-1.22.23s-.85-.07-1.22-.22c-.37-.14-.69-.35-.97-.61s-.49-.57-.64-.94c-.16-.37-.23-.78-.23-1.24s.08-.86.23-1.22c.15-.37.36-.68.64-.95.27-.26.59-.47.97-.61.37-.14.77-.22,1.21-.22.4,0,.8.08,1.19.24.4.16.71.39.94.7l-.82.66Z"/>
        <path class="cls-2" d="M94.13,45.09v.19c0,.06,0,.13-.01.19h-4.52c0,.24.06.46.16.67.1.21.23.39.4.55.17.15.36.28.58.36.22.09.45.13.7.13.38,0,.72-.08,1-.25.28-.17.5-.37.66-.61l.79.64c-.3.4-.66.7-1.07.89-.41.19-.87.29-1.37.29-.43,0-.83-.07-1.2-.22-.37-.14-.68-.35-.95-.61-.26-.26-.47-.57-.62-.94-.15-.37-.23-.78-.23-1.22s.07-.85.22-1.22.35-.69.62-.95c.26-.26.58-.47.94-.62.36-.15.75-.22,1.17-.22s.8.07,1.14.2c.34.14.63.33.87.59.24.26.42.57.55.93.13.36.19.77.19,1.23ZM92.97,44.63c0-.22-.05-.43-.11-.63-.07-.2-.17-.37-.3-.51-.13-.14-.3-.26-.49-.34-.2-.08-.43-.13-.69-.13-.24,0-.47.04-.68.13s-.4.2-.55.34c-.16.14-.28.31-.38.51-.1.2-.16.41-.17.63h3.38Z"/>
        <path class="cls-2" d="M100.22,47.08c-.22.34-.51.61-.88.79-.37.18-.76.27-1.17.27-.44,0-.84-.08-1.19-.23s-.65-.37-.9-.64c-.25-.27-.44-.59-.58-.96-.14-.37-.2-.76-.2-1.18s.07-.81.2-1.17c.14-.36.33-.68.58-.95.25-.27.55-.48.91-.64.35-.15.74-.23,1.16-.23.46,0,.87.1,1.21.29.34.2.62.43.82.71h.02v-4.24h1.13v9.07h-1.09v-.9h-.02ZM96.48,45.13c0,.26.04.52.12.77s.2.47.36.66c.16.19.36.34.59.46.23.12.5.17.82.17.29,0,.55-.06.79-.17.24-.11.44-.26.61-.45s.3-.4.39-.65c.09-.25.14-.51.14-.78s-.05-.53-.14-.78c-.09-.25-.22-.47-.39-.66s-.37-.34-.61-.46c-.24-.11-.5-.17-.79-.17-.31,0-.58.06-.82.17-.23.11-.43.26-.59.46-.16.19-.28.41-.36.66-.08.25-.12.5-.12.77Z"/>
        <path class="cls-2" d="M107.42,47.08v.9h-1.09v-9.07h1.13v4.24h.04c.19-.28.46-.52.8-.71s.75-.29,1.22-.29c.42,0,.81.08,1.15.23.35.15.65.36.9.64.25.27.44.59.58.95.14.36.2.75.2,1.17s-.07.81-.2,1.18-.33.69-.57.96c-.25.27-.55.49-.9.64s-.75.23-1.19.23c-.41,0-.79-.09-1.16-.27-.37-.18-.66-.44-.89-.79h-.02ZM111.2,45.13c0-.26-.04-.52-.12-.77-.08-.25-.2-.47-.36-.66-.16-.19-.36-.34-.59-.46-.24-.11-.51-.17-.82-.17-.29,0-.55.06-.79.17-.24.11-.44.26-.61.46s-.3.41-.39.66c-.09.25-.14.51-.14.78s.05.53.14.78c.09.25.22.46.39.65s.37.34.61.45c.24.11.5.17.79.17.31,0,.59-.06.82-.17.24-.12.43-.27.59-.46.16-.19.28-.41.36-.66.08-.25.12-.5.12-.77Z"/>
        <path class="cls-2" d="M119.7,45.12c0,.44-.08.84-.23,1.21-.16.37-.37.69-.65.95-.28.27-.6.48-.98.62-.38.15-.78.22-1.21.22s-.84-.07-1.21-.22c-.38-.15-.7-.36-.97-.62-.27-.27-.49-.59-.64-.95-.16-.37-.23-.77-.23-1.21s.08-.84.23-1.21c.16-.36.37-.68.64-.94s.6-.47.97-.62c.38-.15.78-.22,1.21-.22s.84.07,1.21.22c.38.15.7.35.98.62s.49.58.65.94c.16.36.23.77.23,1.21ZM118.52,45.13c0-.27-.04-.53-.13-.78-.08-.25-.21-.46-.37-.65s-.36-.34-.6-.45c-.24-.11-.51-.17-.81-.17s-.58.06-.81.17c-.24.11-.44.26-.6.45-.16.19-.28.4-.37.65-.08.25-.13.51-.13.78s.04.53.13.78c.08.25.21.47.37.66.16.19.36.34.6.46.24.11.51.17.81.17s.58-.06.81-.17c.24-.11.44-.26.6-.46s.28-.41.37-.66c.08-.25.13-.51.13-.78Z"/>
        <path class="cls-2" d="M126.57,45.09v.19c0,.06,0,.13-.01.19h-4.52c0,.24.06.46.16.67.1.21.23.39.4.55.17.15.36.28.58.36.22.09.45.13.7.13.38,0,.72-.08,1-.25.28-.17.5-.37.66-.61l.79.64c-.3.4-.66.7-1.07.89-.41.19-.87.29-1.37.29-.43,0-.83-.07-1.2-.22-.37-.14-.68-.35-.95-.61-.26-.26-.47-.57-.62-.94-.15-.37-.23-.78-.23-1.22s.07-.85.22-1.22.35-.69.62-.95c.26-.26.58-.47.94-.62.36-.15.75-.22,1.17-.22s.8.07,1.14.2c.34.14.63.33.87.59.24.26.42.57.55.93.13.36.19.77.19,1.23ZM125.42,44.63c0-.22-.05-.43-.11-.63-.07-.2-.17-.37-.3-.51-.13-.14-.3-.26-.49-.34-.2-.08-.43-.13-.69-.13-.24,0-.47.04-.68.13s-.4.2-.55.34c-.16.14-.28.31-.38.51-.1.2-.16.41-.17.63h3.38Z"/>
        <path class="cls-2" d="M129.45,40.24c0,.21-.07.38-.22.52-.15.14-.32.2-.53.2s-.38-.07-.52-.21c-.14-.14-.21-.31-.21-.51s.07-.38.21-.52c.14-.14.32-.21.52-.21s.38.07.53.21c.15.14.22.31.22.52ZM129.27,47.98h-1.13v-5.69h1.13v5.69Z"/>
        <path class="cls-2" d="M132.26,42.29c.02.14.03.31.04.49s.01.33.01.45h.04c.07-.15.17-.29.29-.43s.27-.25.43-.35c.16-.1.34-.18.53-.23.19-.06.39-.08.6-.08.37,0,.68.06.95.19s.48.29.66.5c.18.21.31.45.39.73s.13.58.13.9v3.53h-1.13v-3.16c0-.23-.02-.45-.05-.66-.04-.21-.1-.39-.2-.55s-.23-.29-.4-.38-.38-.14-.65-.14c-.45,0-.81.17-1.1.51s-.43.79-.43,1.36v3.02h-1.13v-4.46c0-.15,0-.35-.01-.59s-.02-.45-.04-.64h1.07Z"/>
        <path class="cls-2" d="M138.67,48.95c.25.28.56.5.93.67.37.17.75.25,1.15.25s.69-.05.95-.16c.26-.11.46-.26.62-.44.16-.19.27-.41.34-.67s.1-.53.1-.83v-.73h-.02c-.21.32-.49.56-.85.73-.36.17-.74.25-1.15.25-.43,0-.83-.08-1.18-.23-.36-.15-.66-.36-.91-.62-.25-.26-.44-.57-.58-.93-.14-.36-.2-.74-.2-1.15s.07-.79.2-1.15c.14-.36.33-.67.58-.94.25-.27.55-.48.9-.64.35-.16.74-.23,1.18-.23.41,0,.8.09,1.17.26s.67.44.88.8h.02v-.91h1.09v5.4c0,.42-.05.81-.16,1.19s-.28.72-.53,1.01-.57.53-.97.7c-.4.18-.9.26-1.49.26-.5,0-.99-.09-1.49-.27-.5-.18-.93-.43-1.29-.76l.72-.88ZM139.01,45.07c0,.26.04.52.13.76.08.24.21.45.37.64.16.18.36.33.6.44.23.11.5.17.79.17s.55-.05.79-.16c.24-.1.45-.25.61-.43.17-.18.3-.39.39-.64s.14-.51.14-.79-.05-.53-.14-.77-.22-.45-.4-.64c-.17-.18-.38-.33-.61-.44-.24-.11-.5-.16-.79-.16s-.56.05-.79.16c-.23.11-.43.25-.6.43-.16.18-.29.39-.37.64-.08.24-.13.5-.13.77Z"/>
        <path class="cls-2" d="M151.59,43.21h-1.51v2.96c0,.34.06.59.19.74s.33.22.61.22c.1,0,.22-.01.34-.03.12-.02.23-.05.32-.1l.04.92c-.14.05-.29.08-.45.11s-.33.04-.51.04c-.54,0-.95-.15-1.23-.44-.28-.3-.43-.74-.43-1.33v-3.08h-1.09v-.92h1.09v-1.63h1.12v1.63h1.51v.92Z"/>
        <path class="cls-2" d="M158.52,45.12c0,.44-.08.84-.23,1.21-.16.37-.37.69-.65.95-.28.27-.6.48-.98.62-.38.15-.78.22-1.21.22s-.84-.07-1.21-.22c-.38-.15-.7-.36-.97-.62-.27-.27-.49-.59-.64-.95-.16-.37-.23-.77-.23-1.21s.08-.84.23-1.21c.16-.36.37-.68.64-.94s.6-.47.97-.62c.38-.15.78-.22,1.21-.22s.84.07,1.21.22c.38.15.7.35.98.62s.49.58.65.94c.16.36.23.77.23,1.21ZM157.34,45.13c0-.27-.04-.53-.13-.78-.08-.25-.21-.46-.37-.65s-.36-.34-.6-.45c-.24-.11-.51-.17-.81-.17s-.58.06-.81.17c-.24.11-.44.26-.6.45-.16.19-.28.4-.37.65-.08.25-.13.51-.13.78s.04.53.13.78c.08.25.21.47.37.66.16.19.36.34.6.46.24.11.51.17.81.17s.58-.06.81-.17c.24-.11.44-.26.6-.46s.28-.41.37-.66c.08-.25.13-.51.13-.78Z"/>
        <path class="cls-2" d="M167.06,43.73c-.12-.18-.3-.34-.54-.46-.24-.12-.5-.19-.77-.19-.3,0-.56.06-.79.17-.23.11-.42.26-.58.45-.16.19-.28.41-.37.65s-.13.51-.13.78.04.53.13.78c.08.25.21.47.37.65.16.19.36.34.59.45.23.11.5.17.79.17s.55-.06.79-.17.43-.26.58-.46l.76.68c-.24.28-.54.5-.9.65-.36.16-.77.23-1.22.23s-.85-.07-1.22-.22c-.37-.14-.69-.35-.97-.61s-.49-.57-.64-.94c-.16-.37-.23-.78-.23-1.24s.08-.86.23-1.22c.15-.37.36-.68.64-.95.27-.26.59-.47.97-.61.37-.14.77-.22,1.21-.22.4,0,.8.08,1.19.24.4.16.71.39.94.7l-.82.66Z"/>
        <path class="cls-2" d="M172.55,44.29c0-.42-.13-.74-.38-.94s-.6-.31-1.02-.31c-.32,0-.62.06-.91.19-.28.12-.52.28-.71.47l-.6-.72c.28-.26.62-.47,1.03-.62.4-.15.84-.23,1.3-.23.41,0,.76.06,1.06.17.3.12.55.27.74.47.19.2.34.44.43.71.1.27.14.56.14.88v2.48c0,.19,0,.39.02.61.01.21.03.39.07.52h-1.02c-.06-.27-.1-.54-.1-.82h-.04c-.21.3-.47.54-.79.71s-.69.25-1.12.25c-.22,0-.46-.03-.7-.09-.24-.06-.47-.16-.67-.29-.2-.14-.37-.32-.5-.54-.13-.22-.2-.5-.2-.83,0-.43.12-.77.35-1.03s.54-.44.91-.58.8-.22,1.27-.26.95-.06,1.43-.06v-.16ZM172.27,45.27c-.28,0-.57.01-.87.04-.3.02-.57.07-.82.14-.24.07-.45.18-.61.32s-.24.34-.24.58c0,.17.03.31.1.42.07.11.16.2.27.28.11.07.24.12.37.15.14.03.28.04.42.04.53,0,.93-.16,1.22-.47.28-.32.43-.71.43-1.19v-.3h-.28Z"/>
        <path class="cls-2" d="M176.53,42.29c.02.14.03.31.04.49s.01.33.01.45h.04c.07-.15.17-.29.29-.43s.27-.25.43-.35c.16-.1.34-.18.53-.23.19-.06.39-.08.6-.08.37,0,.68.06.95.19s.48.29.66.5c.18.21.31.45.39.73s.13.58.13.9v3.53h-1.13v-3.16c0-.23-.02-.45-.05-.66-.04-.21-.1-.39-.2-.55s-.23-.29-.4-.38-.38-.14-.65-.14c-.45,0-.81.17-1.1.51s-.43.79-.43,1.36v3.02h-1.13v-4.46c0-.15,0-.35-.01-.59s-.02-.45-.04-.64h1.07Z"/>
        <path class="cls-2" d="M186.48,43.73c-.12-.18-.3-.34-.54-.46-.24-.12-.5-.19-.77-.19-.3,0-.56.06-.79.17-.23.11-.42.26-.58.45-.16.19-.28.41-.37.65s-.13.51-.13.78.04.53.13.78c.08.25.21.47.37.65.16.19.36.34.59.45.23.11.5.17.79.17s.55-.06.79-.17.43-.26.58-.46l.76.68c-.24.28-.54.5-.9.65-.36.16-.77.23-1.22.23s-.85-.07-1.22-.22c-.37-.14-.69-.35-.97-.61s-.49-.57-.64-.94c-.16-.37-.23-.78-.23-1.24s.08-.86.23-1.22c.15-.37.36-.68.64-.95.27-.26.59-.47.97-.61.37-.14.77-.22,1.21-.22.4,0,.8.08,1.19.24.4.16.71.39.94.7l-.82.66Z"/>
        <path class="cls-2" d="M193.74,45.09v.19c0,.06,0,.13-.01.19h-4.52c0,.24.06.46.16.67.1.21.23.39.4.55.17.15.36.28.58.36.22.09.45.13.7.13.38,0,.72-.08,1-.25.28-.17.5-.37.66-.61l.79.64c-.3.4-.66.7-1.07.89-.41.19-.87.29-1.37.29-.43,0-.83-.07-1.2-.22-.37-.14-.68-.35-.95-.61-.26-.26-.47-.57-.62-.94-.15-.37-.23-.78-.23-1.22s.07-.85.22-1.22.35-.69.62-.95c.26-.26.58-.47.94-.62.36-.15.75-.22,1.17-.22s.8.07,1.14.2c.34.14.63.33.87.59.24.26.42.57.55.93.13.36.19.77.19,1.23ZM192.59,44.63c0-.22-.05-.43-.11-.63-.07-.2-.17-.37-.3-.51-.13-.14-.3-.26-.49-.34-.2-.08-.43-.13-.69-.13-.24,0-.47.04-.68.13s-.4.2-.55.34c-.16.14-.28.31-.38.51-.1.2-.16.41-.17.63h3.38Z"/>
        <path class="cls-2" d="M196.45,47.98h-1.13v-9.07h1.13v9.07Z"/>
        <path class="cls-2" d="M204.2,43.21h-1.51v2.96c0,.34.06.59.19.74s.33.22.61.22c.1,0,.22-.01.34-.03.12-.02.23-.05.32-.1l.04.92c-.14.05-.29.08-.45.11s-.33.04-.51.04c-.54,0-.95-.15-1.23-.44-.28-.3-.43-.74-.43-1.33v-3.08h-1.09v-.92h1.09v-1.63h1.12v1.63h1.51v.92Z"/>
        <path class="cls-2" d="M206.54,43.15c.14-.28.37-.52.7-.72.33-.2.7-.3,1.1-.3.37,0,.68.06.95.19s.48.29.66.5c.18.21.31.45.39.73s.13.58.13.9v3.53h-1.13v-3.15c0-.23-.02-.45-.05-.66-.04-.21-.1-.39-.2-.55-.1-.16-.23-.29-.39-.39-.16-.1-.38-.14-.64-.14-.45,0-.82.17-1.1.51s-.43.8-.43,1.37v3.02h-1.13v-9.07h1.13v4.25h.02Z"/>
        <path class="cls-2" d="M217.69,45.09v.19c0,.06,0,.13-.01.19h-4.52c0,.24.06.46.16.67.1.21.23.39.4.55.17.15.36.28.58.36.22.09.45.13.7.13.38,0,.72-.08,1-.25.28-.17.5-.37.66-.61l.79.64c-.3.4-.66.7-1.07.89-.41.19-.87.29-1.37.29-.43,0-.83-.07-1.2-.22-.37-.14-.68-.35-.95-.61-.26-.26-.47-.57-.62-.94-.15-.37-.23-.78-.23-1.22s.07-.85.22-1.22.35-.69.62-.95c.26-.26.58-.47.94-.62.36-.15.75-.22,1.17-.22s.8.07,1.14.2c.34.14.63.33.87.59.24.26.42.57.55.93.13.36.19.77.19,1.23ZM216.54,44.63c0-.22-.05-.43-.11-.63-.07-.2-.17-.37-.3-.51-.13-.14-.3-.26-.49-.34-.2-.08-.43-.13-.69-.13-.24,0-.47.04-.68.13s-.4.2-.55.34c-.16.14-.28.31-.38.51-.1.2-.16.41-.17.63h3.38Z"/>
        <path class="cls-2" d="M13.37,58.13c-.13-.21-.31-.38-.54-.51s-.49-.2-.78-.2c-.13,0-.26.01-.38.04s-.24.07-.34.13c-.1.06-.18.14-.24.23-.06.09-.09.21-.09.34,0,.24.11.42.32.53.22.12.54.22.97.32.27.06.52.14.76.23.23.09.43.2.61.33.17.13.31.29.4.47.1.18.14.4.14.65,0,.34-.06.62-.19.85-.13.23-.3.42-.51.57-.21.15-.45.25-.73.32-.27.06-.55.1-.84.1-.43,0-.85-.08-1.27-.25s-.75-.42-1.03-.77l.8-.68c.15.22.36.41.63.56.27.15.56.23.88.23.14,0,.28-.01.41-.04s.25-.07.36-.14c.11-.06.19-.15.26-.25.06-.1.1-.24.1-.4,0-.26-.13-.46-.38-.59s-.62-.25-1.11-.36c-.19-.05-.39-.11-.58-.17-.2-.07-.37-.16-.53-.28s-.29-.27-.39-.45c-.1-.18-.15-.4-.15-.67,0-.3.06-.57.19-.79.12-.22.29-.4.49-.54.2-.14.43-.24.68-.31.26-.07.52-.1.79-.1.41,0,.8.08,1.18.24.38.16.67.39.88.7l-.78.66Z"/>
        <path class="cls-2" d="M21.38,59.52c0,.44-.08.84-.23,1.21-.16.37-.37.69-.65.95-.28.27-.6.48-.98.62-.38.15-.78.22-1.21.22s-.84-.07-1.21-.22c-.38-.15-.7-.36-.97-.62-.27-.27-.49-.59-.64-.95-.16-.37-.23-.77-.23-1.21s.08-.84.23-1.21c.16-.36.37-.68.64-.94s.6-.47.97-.62c.38-.15.78-.22,1.21-.22s.84.07,1.21.22c.38.15.7.35.98.62s.49.58.65.94c.16.36.23.77.23,1.21ZM20.21,59.53c0-.27-.04-.53-.13-.78-.08-.25-.21-.46-.37-.65s-.36-.34-.6-.45c-.24-.11-.51-.17-.81-.17s-.58.06-.81.17c-.24.11-.44.26-.6.45-.16.19-.28.4-.37.65-.08.25-.13.51-.13.78s.04.53.13.78c.08.25.21.47.37.66.16.19.36.34.6.46.24.11.51.17.81.17s.58-.06.81-.17c.24-.11.44-.26.6-.46s.28-.41.37-.66c.08-.25.13-.51.13-.78Z"/>
        <path class="cls-2" d="M23.96,56.69c.02.14.03.31.04.49s.01.33.01.45h.04c.07-.15.17-.29.29-.43s.27-.25.43-.35c.16-.1.34-.18.53-.23.19-.06.39-.08.6-.08.37,0,.68.06.95.19s.48.29.66.5c.18.21.31.45.39.73s.13.58.13.9v3.53h-1.13v-3.16c0-.23-.02-.45-.05-.66-.04-.21-.1-.39-.2-.55s-.23-.29-.4-.38-.38-.14-.65-.14c-.45,0-.81.17-1.1.51s-.43.79-.43,1.36v3.02h-1.13v-4.46c0-.15,0-.35-.01-.59s-.02-.45-.04-.64h1.07Z"/>
        <path class="cls-2" d="M31.25,54.64c0,.21-.07.38-.22.52-.15.14-.32.2-.53.2s-.38-.07-.52-.21c-.14-.14-.21-.31-.21-.51s.07-.38.21-.52c.14-.14.32-.21.52-.21s.38.07.53.21c.15.14.22.31.22.52ZM31.07,62.38h-1.13v-5.69h1.13v5.69Z"/>
        <path class="cls-2" d="M37.02,58.13c-.12-.18-.3-.34-.54-.46-.24-.12-.5-.19-.77-.19-.3,0-.56.06-.79.17-.23.11-.42.26-.58.45-.16.19-.28.41-.37.65s-.13.51-.13.78.04.53.13.78c.08.25.21.47.37.65.16.19.36.34.59.45.23.11.5.17.79.17s.55-.06.79-.17.43-.26.58-.46l.76.68c-.24.28-.54.5-.9.65-.36.16-.77.23-1.22.23s-.85-.07-1.22-.22c-.37-.14-.69-.35-.97-.61s-.49-.57-.64-.94c-.16-.37-.23-.78-.23-1.24s.08-.86.23-1.22c.15-.37.36-.68.64-.95.27-.26.59-.47.97-.61.37-.14.77-.22,1.21-.22.4,0,.8.08,1.19.24.4.16.71.39.94.7l-.82.66Z"/>
        <path class="cls-2" d="M45.95,58.13c-.12-.18-.3-.34-.54-.46-.24-.12-.5-.19-.77-.19-.3,0-.56.06-.79.17-.23.11-.42.26-.58.45-.16.19-.28.41-.37.65s-.13.51-.13.78.04.53.13.78c.08.25.21.47.37.65.16.19.36.34.59.45.23.11.5.17.79.17s.55-.06.79-.17.43-.26.58-.46l.76.68c-.24.28-.54.5-.9.65-.36.16-.77.23-1.22.23s-.85-.07-1.22-.22c-.37-.14-.69-.35-.97-.61s-.49-.57-.64-.94c-.16-.37-.23-.78-.23-1.24s.08-.86.23-1.22c.15-.37.36-.68.64-.95.27-.26.59-.47.97-.61.37-.14.77-.22,1.21-.22.4,0,.8.08,1.19.24.4.16.71.39.94.7l-.82.66Z"/>
        <path class="cls-2" d="M47.88,57.33c0-.24-.02-.45-.04-.64h1.07c.02.14.03.31.04.5,0,.19.01.34.01.46h.04c.16-.34.39-.61.7-.81s.65-.31,1.04-.31c.18,0,.32.02.44.05l-.05,1.04c-.16-.04-.33-.06-.52-.06-.27,0-.51.05-.71.15-.2.1-.37.23-.5.4-.13.17-.23.36-.29.58s-.1.45-.1.69v2.99h-1.13v-4.46c0-.15,0-.35-.01-.59Z"/>
        <path class="cls-2" d="M56.24,62.38c-.02-.14-.03-.31-.04-.49,0-.18-.01-.33-.01-.45h-.02c-.14.3-.39.56-.73.77-.34.21-.72.32-1.13.32-.37,0-.69-.06-.95-.18-.27-.12-.49-.29-.66-.5-.17-.21-.3-.46-.38-.74s-.13-.58-.13-.9v-3.53h1.13v3.14c0,.23.02.45.05.67s.1.4.2.56c.1.16.23.29.4.38.17.1.38.14.65.14.46,0,.82-.17,1.1-.51.28-.34.42-.79.42-1.36v-3.02h1.13v4.46c0,.15,0,.35.01.59,0,.24.02.45.04.64h-1.07Z"/>
        <path class="cls-2" d="M60.54,54.64c0,.21-.07.38-.22.52-.15.14-.32.2-.53.2s-.38-.07-.52-.21c-.14-.14-.21-.31-.21-.51s.07-.38.21-.52c.14-.14.32-.21.52-.21s.38.07.53.21c.15.14.22.31.22.52ZM60.36,62.38h-1.13v-5.69h1.13v5.69Z"/>
        <path class="cls-2" d="M65.4,58.13c-.13-.21-.31-.38-.54-.51s-.49-.2-.78-.2c-.13,0-.26.01-.38.04s-.24.07-.34.13c-.1.06-.18.14-.24.23-.06.09-.09.21-.09.34,0,.24.11.42.32.53.22.12.54.22.97.32.27.06.52.14.76.23.23.09.43.2.61.33.17.13.31.29.4.47.1.18.14.4.14.65,0,.34-.06.62-.19.85-.13.23-.3.42-.51.57-.21.15-.45.25-.73.32-.27.06-.55.1-.84.1-.43,0-.85-.08-1.27-.25s-.75-.42-1.03-.77l.8-.68c.15.22.36.41.63.56.27.15.56.23.88.23.14,0,.28-.01.41-.04s.25-.07.36-.14c.11-.06.19-.15.26-.25.06-.1.1-.24.1-.4,0-.26-.13-.46-.38-.59s-.62-.25-1.11-.36c-.19-.05-.39-.11-.58-.17-.2-.07-.37-.16-.53-.28s-.29-.27-.39-.45c-.1-.18-.15-.4-.15-.67,0-.3.06-.57.19-.79.12-.22.29-.4.49-.54.2-.14.43-.24.68-.31.26-.07.52-.1.79-.1.41,0,.8.08,1.18.24.38.16.67.39.88.7l-.78.66Z"/>
        <path class="cls-2" d="M72.97,59.49v.19c0,.06,0,.13-.01.19h-4.52c0,.24.06.46.16.67.1.21.23.39.4.55.17.15.36.28.58.36.22.09.45.13.7.13.38,0,.72-.08,1-.25.28-.17.5-.37.66-.61l.79.64c-.3.4-.66.7-1.07.89-.41.19-.87.29-1.37.29-.43,0-.83-.07-1.2-.22-.37-.14-.68-.35-.95-.61-.26-.26-.47-.57-.62-.94-.15-.37-.23-.78-.23-1.22s.07-.85.22-1.22.35-.69.62-.95c.26-.26.58-.47.94-.62.36-.15.75-.22,1.17-.22s.8.07,1.14.2c.34.14.63.33.87.59.24.26.42.57.55.93.13.36.19.77.19,1.23ZM71.82,59.03c0-.22-.05-.43-.11-.63-.07-.2-.17-.37-.3-.51-.13-.14-.3-.26-.49-.34-.2-.08-.43-.13-.69-.13-.24,0-.47.04-.68.13s-.4.2-.55.34c-.16.14-.28.31-.38.51-.1.2-.16.41-.17.63h3.38Z"/>
        <path class="cls-2" d="M74.52,57.33c0-.24-.02-.45-.04-.64h1.07c.02.14.03.31.04.5,0,.19.01.34.01.46h.04c.16-.34.39-.61.7-.81s.65-.31,1.04-.31c.18,0,.32.02.44.05l-.05,1.04c-.16-.04-.33-.06-.52-.06-.27,0-.51.05-.71.15-.2.1-.37.23-.5.4-.13.17-.23.36-.29.58s-.1.45-.1.69v2.99h-1.13v-4.46c0-.15,0-.35-.01-.59Z"/>
        <path class="cls-2" d="M83,65.26h-1.13v-8.57h1.1v.89h.04c.18-.3.45-.55.81-.75s.77-.29,1.24-.29c.42,0,.81.08,1.15.23.35.15.65.36.9.64.25.27.44.59.58.95.14.36.2.75.2,1.17s-.07.81-.2,1.18-.33.69-.57.96c-.25.27-.55.49-.9.64-.35.16-.75.23-1.19.23-.41,0-.79-.09-1.15-.26-.36-.18-.64-.42-.85-.74h-.04v3.73ZM86.75,59.52c0-.26-.04-.52-.12-.77-.08-.25-.2-.47-.36-.66-.16-.19-.36-.34-.59-.46-.24-.11-.51-.17-.82-.17-.29,0-.55.06-.79.17-.24.11-.44.26-.61.46-.17.19-.3.41-.39.66-.09.25-.14.51-.14.78s.05.53.14.78c.09.25.22.47.39.65.17.19.37.34.61.45.24.11.5.17.79.17.31,0,.59-.06.82-.17s.43-.27.59-.46c.16-.19.28-.41.36-.66.08-.25.12-.5.12-.77Z"/>
        <path class="cls-2" d="M89.47,57.33c0-.24-.02-.45-.04-.64h1.07c.02.14.03.31.04.5,0,.19.01.34.01.46h.04c.16-.34.39-.61.7-.81s.65-.31,1.04-.31c.18,0,.32.02.44.05l-.05,1.04c-.16-.04-.33-.06-.52-.06-.27,0-.51.05-.71.15-.2.1-.37.23-.5.4-.13.17-.23.36-.29.58s-.1.45-.1.69v2.99h-1.13v-4.46c0-.15,0-.35-.01-.59Z"/>
        <path class="cls-2" d="M99.37,59.52c0,.44-.08.84-.23,1.21-.16.37-.37.69-.65.95-.28.27-.6.48-.98.62-.38.15-.78.22-1.21.22s-.84-.07-1.21-.22c-.38-.15-.7-.36-.97-.62-.27-.27-.49-.59-.64-.95-.16-.37-.23-.77-.23-1.21s.08-.84.23-1.21c.16-.36.37-.68.64-.94s.6-.47.97-.62c.38-.15.78-.22,1.21-.22s.84.07,1.21.22c.38.15.7.35.98.62s.49.58.65.94c.16.36.23.77.23,1.21ZM98.19,59.53c0-.27-.04-.53-.13-.78-.08-.25-.21-.46-.37-.65s-.36-.34-.6-.45c-.24-.11-.51-.17-.81-.17s-.58.06-.81.17c-.24.11-.44.26-.6.45-.16.19-.28.4-.37.65-.08.25-.13.51-.13.78s.04.53.13.78c.08.25.21.47.37.66.16.19.36.34.6.46.24.11.51.17.81.17s.58-.06.81-.17c.24-.11.44-.26.6-.46s.28-.41.37-.66c.08-.25.13-.51.13-.78Z"/>
        <path class="cls-2" d="M99.71,64.23c.16.04.31.06.46.06.17,0,.3-.03.41-.1.1-.06.18-.15.24-.26.06-.11.09-.24.11-.38s.03-.31.03-.47v-6.38h1.13v6.42c0,.29-.03.56-.08.82s-.15.48-.28.68c-.14.2-.32.36-.56.47-.24.12-.55.17-.92.17-.1,0-.22,0-.34-.02-.12-.02-.22-.03-.31-.05l.12-.96ZM102.27,54.64c0,.21-.07.38-.22.52-.15.14-.33.2-.53.2s-.39-.07-.53-.21c-.15-.14-.22-.31-.22-.51s.07-.38.22-.52c.15-.14.33-.21.53-.21s.39.07.53.21c.15.14.22.31.22.52Z"/>
        <path class="cls-2" d="M109.37,59.49v.19c0,.06,0,.13-.01.19h-4.52c0,.24.06.46.16.67.1.21.23.39.4.55.17.15.36.28.58.36.22.09.45.13.7.13.38,0,.72-.08,1-.25.28-.17.5-.37.66-.61l.79.64c-.3.4-.66.7-1.07.89-.41.19-.87.29-1.37.29-.43,0-.83-.07-1.2-.22-.37-.14-.68-.35-.95-.61-.26-.26-.47-.57-.62-.94-.15-.37-.23-.78-.23-1.22s.07-.85.22-1.22.35-.69.62-.95c.26-.26.58-.47.94-.62.36-.15.75-.22,1.17-.22s.8.07,1.14.2c.34.14.63.33.87.59.24.26.42.57.55.93.13.36.19.77.19,1.23ZM108.21,59.03c0-.22-.05-.43-.11-.63-.07-.2-.17-.37-.3-.51-.13-.14-.3-.26-.49-.34-.2-.08-.43-.13-.69-.13-.24,0-.47.04-.68.13s-.4.2-.55.34c-.16.14-.28.31-.38.51-.1.2-.16.41-.17.63h3.38Z"/>
        <path class="cls-2" d="M114.91,58.13c-.12-.18-.3-.34-.54-.46-.24-.12-.5-.19-.77-.19-.3,0-.56.06-.79.17-.23.11-.42.26-.58.45-.16.19-.28.41-.37.65s-.13.51-.13.78.04.53.13.78c.08.25.21.47.37.65.16.19.36.34.59.45.23.11.5.17.79.17s.55-.06.79-.17.43-.26.58-.46l.76.68c-.24.28-.54.5-.9.65-.36.16-.77.23-1.22.23s-.85-.07-1.22-.22c-.37-.14-.69-.35-.97-.61s-.49-.57-.64-.94c-.16-.37-.23-.78-.23-1.24s.08-.86.23-1.22c.15-.37.36-.68.64-.95.27-.26.59-.47.97-.61.37-.14.77-.22,1.21-.22.4,0,.8.08,1.19.24.4.16.71.39.94.7l-.82.66Z"/>
        <path class="cls-2" d="M119.64,57.61h-1.51v2.96c0,.34.06.59.19.74s.33.22.61.22c.1,0,.22-.01.34-.03.12-.02.23-.05.32-.1l.04.92c-.14.05-.29.08-.45.11s-.33.04-.51.04c-.54,0-.95-.15-1.23-.44-.28-.3-.43-.74-.43-1.33v-3.08h-1.09v-.92h1.09v-1.63h1.12v1.63h1.51v.92Z"/>
        <path class="cls-2" d="M122.19,61.66c0,.21-.08.39-.23.55-.15.16-.34.24-.58.24s-.41-.08-.57-.23c-.16-.16-.23-.34-.23-.55s.08-.4.23-.56c.15-.16.34-.23.58-.23s.42.08.58.23c.15.15.23.34.23.55Z"/>
      </g>
    </g>
  </g>
</svg>