<?xml version="1.0" encoding="UTF-8"?>
<svg id="Layer_2" data-name="Layer 2" xmlns="http://www.w3.org/2000/svg" viewBox="0 0 204.69 81.96">
  <defs>
    <style>
      .cls-1 {
        fill: #0239a1;
        stroke-width: 0px;
      }
    </style>
  </defs>
  <g id="Operations">
    <g>
      <path class="cls-1" d="M15.41,18.6l.1-12.02h-.07l-4.42,12.02h-2.88L3.84,6.58h-.07l.1,12.02H0V1.61h5.84l3.87,10.9h.1L13.5,1.61h5.94v16.99h-4.03Z"/>
      <path class="cls-1" d="M35.38,12.58c0,.98-.18,1.86-.53,2.65-.35.79-.83,1.46-1.44,2.02-.61.55-1.31.98-2.11,1.28-.8.3-1.66.46-2.57.46s-1.75-.15-2.56-.46c-.81-.3-1.51-.73-2.11-1.28-.6-.55-1.08-1.22-1.43-2.02s-.53-1.68-.53-2.65.18-1.86.53-2.64c.35-.78.83-1.45,1.43-1.99s1.3-.96,2.11-1.25c.81-.29,1.66-.43,2.56-.43s1.77.14,2.57.43c.8.29,1.5.7,2.11,1.25.61.54,1.09,1.21,1.44,1.99.35.78.53,1.66.53,2.64ZM31.58,12.58c0-.38-.06-.76-.19-1.13-.13-.37-.31-.69-.55-.97-.24-.28-.54-.51-.89-.68-.35-.18-.76-.26-1.22-.26s-.87.09-1.22.26-.64.4-.88.68c-.23.28-.41.6-.53.97-.12.37-.18.74-.18,1.13s.06.76.18,1.13c.12.37.3.7.54,1,.24.3.54.53.89.71.35.18.76.26,1.22.26s.87-.09,1.22-.26c.35-.18.65-.41.89-.71.24-.3.42-.63.54-1,.12-.37.18-.74.18-1.13Z"/>
      <path class="cls-1" d="M45.62,9.89c-.18-.05-.35-.08-.52-.1-.17-.02-.33-.02-.49-.02-.53,0-.97.1-1.33.29-.36.19-.65.42-.86.69s-.37.57-.47.89c-.1.32-.14.6-.14.84v6.13h-3.94V6.66h3.79v1.73h.05c.3-.61.74-1.11,1.3-1.5s1.21-.58,1.94-.58c.16,0,.32,0,.47.02.15.02.28.04.37.07l-.17,3.48Z"/>
      <path class="cls-1" d="M58.8,12.77v.48c0,.16,0,.31-.02.46h-8.66c.03.34.13.64.3.91.17.27.38.51.65.71.26.2.56.36.89.47.33.11.67.17,1.02.17.62,0,1.15-.12,1.58-.35.43-.23.78-.53,1.06-.9l2.74,1.73c-.56.82-1.3,1.44-2.22,1.88-.92.44-1.99.66-3.2.66-.9,0-1.74-.14-2.54-.42-.8-.28-1.5-.69-2.1-1.22-.6-.54-1.07-1.2-1.42-1.98-.34-.78-.52-1.68-.52-2.69s.17-1.86.5-2.65.79-1.46,1.37-2.02c.58-.55,1.26-.98,2.04-1.28.78-.3,1.63-.46,2.54-.46s1.69.15,2.42.44,1.37.72,1.9,1.28c.53.56.94,1.24,1.24,2.04.3.8.44,1.71.44,2.74ZM55.18,11.26c0-.62-.2-1.16-.59-1.61-.39-.45-.98-.67-1.76-.67-.38,0-.74.06-1.06.18-.32.12-.6.28-.84.49-.24.21-.43.45-.58.73s-.22.57-.24.88h5.06Z"/>
      <path class="cls-1" d="M74.66,3.36c-.14-.05-.31-.09-.5-.12-.19-.03-.38-.05-.58-.05-.37,0-.66.06-.89.19s-.4.3-.53.52c-.13.22-.22.46-.26.73-.05.27-.07.54-.07.82v1.2h2.66v2.93h-2.66v9.02h-3.94v-9.02h-2.18v-2.93h2.18v-1.15c0-.74.08-1.44.24-2.1s.44-1.25.83-1.75.92-.9,1.58-1.2c.66-.3,1.49-.44,2.48-.44.34,0,.67.02,1,.06.33.04.63.1.9.18l-.26,3.12Z"/>
      <path class="cls-1" d="M83.86,18.6v-1.66h-.05c-.14.27-.33.53-.56.77-.23.24-.5.45-.82.62s-.66.32-1.03.43c-.38.11-.77.17-1.19.17-.8,0-1.48-.14-2.03-.43-.55-.29-1-.66-1.34-1.12-.34-.46-.59-.98-.74-1.56-.15-.58-.23-1.18-.23-1.79v-7.39h3.96v6.48c0,.34.02.66.07.96.05.3.14.58.28.82.14.24.32.43.54.56.22.14.52.2.89.2.69,0,1.21-.26,1.57-.77.36-.51.54-1.11.54-1.8v-6.46h3.94v11.95h-3.79Z"/>
      <path class="cls-1" d="M102.58,12.77v.48c0,.16,0,.31-.02.46h-8.66c.03.34.13.64.3.91.17.27.38.51.65.71.26.2.56.36.89.47.33.11.67.17,1.02.17.62,0,1.15-.12,1.58-.35.43-.23.78-.53,1.06-.9l2.74,1.73c-.56.82-1.3,1.44-2.22,1.88-.92.44-1.99.66-3.2.66-.9,0-1.74-.14-2.54-.42-.8-.28-1.5-.69-2.1-1.22-.6-.54-1.07-1.2-1.42-1.98-.34-.78-.52-1.68-.52-2.69s.17-1.86.5-2.65.79-1.46,1.37-2.02c.58-.55,1.26-.98,2.04-1.28.78-.3,1.63-.46,2.54-.46s1.69.15,2.42.44,1.37.72,1.9,1.28c.53.56.94,1.24,1.24,2.04.3.8.44,1.71.44,2.74ZM98.95,11.26c0-.62-.2-1.16-.59-1.61-.39-.45-.98-.67-1.76-.67-.38,0-.74.06-1.06.18-.32.12-.6.28-.84.49-.24.21-.43.45-.58.73s-.22.57-.24.88h5.06Z"/>
      <path class="cls-1" d="M105.07,18.6V.46h4.01v18.14h-4.01Z"/>
      <path class="cls-1" d="M130.03,12.77v.48c0,.16,0,.31-.02.46h-8.66c.03.34.13.64.3.91.17.27.38.51.65.71.26.2.56.36.89.47.33.11.67.17,1.02.17.62,0,1.15-.12,1.58-.35.43-.23.78-.53,1.06-.9l2.74,1.73c-.56.82-1.3,1.44-2.22,1.88-.92.44-1.99.66-3.2.66-.9,0-1.74-.14-2.54-.42-.8-.28-1.5-.69-2.1-1.22-.6-.54-1.07-1.2-1.42-1.98-.34-.78-.52-1.68-.52-2.69s.17-1.86.5-2.65.79-1.46,1.37-2.02c.58-.55,1.26-.98,2.04-1.28.78-.3,1.63-.46,2.54-.46s1.69.15,2.42.44,1.37.72,1.9,1.28c.53.56.94,1.24,1.24,2.04.3.8.44,1.71.44,2.74ZM126.41,11.26c0-.62-.2-1.16-.59-1.61-.39-.45-.98-.67-1.76-.67-.38,0-.74.06-1.06.18-.32.12-.6.28-.84.49-.24.21-.43.45-.58.73s-.22.57-.24.88h5.06Z"/>
      <path class="cls-1" d="M139.9,3.36c-.14-.05-.31-.09-.5-.12-.19-.03-.38-.05-.58-.05-.37,0-.66.06-.89.19s-.4.3-.53.52c-.13.22-.22.46-.26.73-.05.27-.07.54-.07.82v1.2h2.66v2.93h-2.66v9.02h-3.94v-9.02h-2.18v-2.93h2.18v-1.15c0-.74.08-1.44.24-2.1s.44-1.25.83-1.75.92-.9,1.58-1.2c.66-.3,1.49-.44,2.48-.44.34,0,.67.02,1,.06.33.04.63.1.9.18l-.26,3.12Z"/>
      <path class="cls-1" d="M147.91,3.36c-.14-.05-.31-.09-.5-.12-.19-.03-.38-.05-.58-.05-.37,0-.66.06-.89.19s-.4.3-.53.52c-.13.22-.22.46-.26.73-.05.27-.07.54-.07.82v1.2h2.66v2.93h-2.66v9.02h-3.94v-9.02h-2.18v-2.93h2.18v-1.15c0-.74.08-1.44.24-2.1s.44-1.25.83-1.75.92-.9,1.58-1.2c.66-.3,1.49-.44,2.48-.44.34,0,.67.02,1,.06.33.04.63.1.9.18l-.26,3.12ZM153.62,2.83c0,.3-.06.59-.18.85s-.28.49-.49.68c-.21.19-.45.34-.72.46-.27.11-.56.17-.86.17-.64,0-1.18-.21-1.61-.64-.43-.42-.65-.93-.65-1.52,0-.29.06-.56.17-.83.11-.26.27-.49.48-.68.21-.19.45-.35.72-.47.27-.12.57-.18.89-.18.3,0,.59.06.86.17.27.11.51.26.72.46.21.19.37.42.49.68s.18.55.18.85ZM149.37,18.6V6.65h3.96v11.95h-3.96Z"/>
      <path class="cls-1" d="M164.71,10.51c-.22-.29-.53-.52-.91-.7-.38-.18-.78-.26-1.18-.26s-.79.08-1.13.25-.62.39-.86.67c-.24.28-.43.6-.56.97-.14.37-.2.76-.2,1.18s.06.81.19,1.18c.13.37.32.69.56.97.25.28.54.5.89.66.34.16.73.24,1.16.24.4,0,.8-.08,1.19-.23.39-.15.71-.37.95-.66l2.18,2.66c-.5.48-1.14.86-1.92,1.13-.78.27-1.62.41-2.5.41-.94,0-1.83-.14-2.64-.43s-1.53-.71-2.13-1.26c-.6-.55-1.08-1.22-1.42-2-.35-.78-.52-1.67-.52-2.66s.17-1.86.52-2.64c.35-.78.82-1.45,1.42-2s1.31-.98,2.13-1.27,1.69-.44,2.62-.44c.43,0,.86.04,1.28.12.42.08.83.19,1.22.32.39.14.75.3,1.08.5.33.2.61.42.85.66l-2.28,2.64Z"/>
      <path class="cls-1" d="M180.38,12.77v.48c0,.16,0,.31-.02.46h-8.66c.03.34.13.64.3.91.17.27.38.51.65.71.26.2.56.36.89.47.33.11.67.17,1.02.17.62,0,1.15-.12,1.58-.35.43-.23.78-.53,1.06-.9l2.74,1.73c-.56.82-1.3,1.44-2.22,1.88-.92.44-1.99.66-3.2.66-.9,0-1.74-.14-2.54-.42-.8-.28-1.5-.69-2.1-1.22-.6-.54-1.07-1.2-1.42-1.98-.34-.78-.52-1.68-.52-2.69s.17-1.86.5-2.65.79-1.46,1.37-2.02c.58-.55,1.26-.98,2.04-1.28.78-.3,1.63-.46,2.54-.46s1.69.15,2.42.44,1.37.72,1.9,1.28c.53.56.94,1.24,1.24,2.04.3.8.44,1.71.44,2.74ZM176.76,11.26c0-.62-.2-1.16-.59-1.61-.39-.45-.98-.67-1.76-.67-.38,0-.74.06-1.06.18-.32.12-.6.28-.84.49-.24.21-.43.45-.58.73s-.22.57-.24.88h5.06Z"/>
      <path class="cls-1" d="M190.68,18.6v-6.53c0-.34-.03-.66-.08-.96-.06-.3-.15-.57-.28-.8-.13-.23-.31-.42-.54-.55s-.52-.2-.88-.2-.66.07-.92.2-.48.32-.66.56c-.18.24-.31.52-.4.83-.09.31-.13.64-.13.97v6.48h-3.96V6.65h3.82v1.66h.05c.14-.26.33-.51.56-.76s.5-.46.82-.64c.31-.18.65-.32,1.02-.43.37-.11.76-.17,1.18-.17.8,0,1.48.14,2.04.43.56.29,1.01.66,1.36,1.12.34.46.59.98.74,1.57.15.59.23,1.18.23,1.78v7.39h-3.96Z"/>
      <path class="cls-1" d="M201.89,9.58v4.58c0,.56.11.98.32,1.26.22.28.6.42,1.16.42.19,0,.4-.02.61-.05.22-.03.4-.08.54-.14l.05,2.88c-.27.1-.62.18-1.03.25-.42.07-.83.11-1.25.11-.8,0-1.47-.1-2.02-.3-.54-.2-.98-.49-1.31-.87-.33-.38-.56-.83-.71-1.35s-.22-1.1-.22-1.74v-5.05h-1.92v-2.93h1.9v-3.14h3.86v3.14h2.81v2.93h-2.81Z"/>
      <path class="cls-1" d="M17.9,38.38v4.58c0,.56.11.98.32,1.26.22.28.6.42,1.16.42.19,0,.4-.02.61-.05.22-.03.4-.08.54-.14l.05,2.88c-.27.1-.62.18-1.03.25-.42.07-.83.11-1.25.11-.8,0-1.47-.1-2.02-.3-.54-.2-.98-.49-1.31-.87-.33-.38-.56-.83-.71-1.35s-.22-1.1-.22-1.74v-5.05h-1.92v-2.93h1.9v-3.14h3.86v3.14h2.81v2.93h-2.81Z"/>
      <path class="cls-1" d="M30.43,47.4v-6.48c0-.34-.02-.66-.07-.96-.05-.3-.14-.57-.28-.8-.14-.23-.32-.42-.54-.55-.22-.14-.51-.2-.86-.2-.69,0-1.22.24-1.58.73s-.55,1.09-.55,1.81v6.46h-3.94v-18.14h3.94v7.7h.05c.27-.48.7-.91,1.3-1.28s1.3-.56,2.14-.56,1.5.14,2.05.43c.55.29,1,.66,1.34,1.12.34.46.59.98.74,1.57.15.59.23,1.18.23,1.78v7.39h-3.96Z"/>
      <path class="cls-1" d="M37.2,37.08c.7-.67,1.52-1.18,2.46-1.51s1.89-.5,2.87-.5,1.86.12,2.56.37c.7.25,1.26.63,1.69,1.15.43.52.75,1.18.95,1.97.2.79.3,1.73.3,2.82v6.02h-3.6v-1.27h-.07c-.3.5-.76.88-1.38,1.15-.62.27-1.28.41-2,.41-.48,0-.98-.06-1.49-.19-.51-.13-.98-.34-1.4-.62-.42-.29-.77-.67-1.04-1.15-.27-.48-.41-1.07-.41-1.78,0-.86.24-1.56.71-2.09.47-.53,1.08-.94,1.82-1.22.74-.29,1.57-.48,2.48-.58.91-.1,1.8-.14,2.66-.14v-.19c0-.59-.21-1.03-.62-1.31-.42-.28-.93-.42-1.54-.42-.56,0-1.1.12-1.62.36s-.96.53-1.33.86l-1.99-2.14ZM44.42,42.19h-.5c-.43,0-.87.02-1.31.06-.44.04-.83.12-1.18.23-.34.11-.63.28-.85.49s-.34.5-.34.85c0,.22.05.42.16.58s.24.29.4.38c.16.1.34.16.55.2.21.04.41.06.6.06.8,0,1.41-.22,1.84-.66.42-.44.64-1.04.64-1.79v-.41Z"/>
      <path class="cls-1" d="M58.8,47.4v-6.53c0-.34-.03-.66-.08-.96-.06-.3-.15-.57-.28-.8-.13-.23-.31-.42-.54-.55s-.52-.2-.88-.2-.66.07-.92.2-.48.32-.66.56c-.18.24-.31.52-.4.83-.09.31-.13.64-.13.97v6.48h-3.96v-11.95h3.82v1.66h.05c.14-.26.33-.51.56-.76s.5-.46.82-.64c.31-.18.65-.32,1.02-.43.37-.11.76-.17,1.18-.17.8,0,1.48.14,2.04.43.56.29,1.01.66,1.36,1.12.34.46.59.98.74,1.57.15.59.23,1.18.23,1.78v7.39h-3.96Z"/>
      <path class="cls-1" d="M76.01,38.38v4.58c0,.56.11.98.32,1.26.22.28.6.42,1.16.42.19,0,.4-.02.61-.05.22-.03.4-.08.54-.14l.05,2.88c-.27.1-.62.18-1.03.25-.42.07-.83.11-1.25.11-.8,0-1.47-.1-2.02-.3-.54-.2-.98-.49-1.31-.87-.33-.38-.56-.83-.71-1.35s-.22-1.1-.22-1.74v-5.05h-1.92v-2.93h1.9v-3.14h3.86v3.14h2.81v2.93h-2.81Z"/>
      <path class="cls-1" d="M88.54,47.4v-6.48c0-.34-.02-.66-.07-.96-.05-.3-.14-.57-.28-.8-.14-.23-.32-.42-.54-.55-.22-.14-.51-.2-.86-.2-.69,0-1.22.24-1.58.73s-.55,1.09-.55,1.81v6.46h-3.94v-18.14h3.94v7.7h.05c.27-.48.7-.91,1.3-1.28s1.3-.56,2.14-.56,1.5.14,2.05.43c.55.29,1,.66,1.34,1.12.34.46.59.98.74,1.57.15.59.23,1.18.23,1.78v7.39h-3.96Z"/>
      <path class="cls-1" d="M107.33,41.57v.48c0,.16,0,.31-.02.46h-8.66c.03.34.13.64.3.91.17.27.38.51.65.71.26.2.56.36.89.47.33.11.67.17,1.02.17.62,0,1.15-.12,1.58-.35.43-.23.78-.53,1.06-.9l2.74,1.73c-.56.82-1.3,1.44-2.22,1.88-.92.44-1.99.66-3.2.66-.9,0-1.74-.14-2.54-.42-.8-.28-1.5-.69-2.1-1.22-.6-.54-1.07-1.2-1.42-1.98-.34-.78-.52-1.68-.52-2.69s.17-1.86.5-2.65.79-1.46,1.37-2.02c.58-.55,1.26-.98,2.04-1.28.78-.3,1.63-.46,2.54-.46s1.69.15,2.42.44,1.37.72,1.9,1.28c.53.56.94,1.24,1.24,2.04.3.8.44,1.71.44,2.74ZM103.7,40.06c0-.62-.2-1.16-.59-1.61-.39-.45-.98-.67-1.76-.67-.38,0-.74.06-1.06.18-.32.12-.6.28-.84.49-.24.21-.43.45-.58.73s-.22.57-.24.88h5.06Z"/>
      <path class="cls-1" d="M129.07,41.38c0,.83-.13,1.63-.38,2.4-.26.77-.63,1.44-1.12,2.03-.49.58-1.08,1.05-1.79,1.4-.7.35-1.5.53-2.4.53-.74,0-1.43-.15-2.09-.44-.66-.3-1.17-.7-1.54-1.21h-.05v7.08h-3.94v-17.71h3.74v1.46h.07c.37-.48.88-.9,1.52-1.26s1.41-.54,2.29-.54,1.65.17,2.35.5c.7.34,1.3.79,1.79,1.37.49.58.86,1.24,1.13,2s.4,1.56.4,2.39ZM125.25,41.38c0-.38-.06-.76-.18-1.13-.12-.37-.3-.69-.53-.97-.23-.28-.52-.51-.88-.68-.35-.18-.76-.26-1.22-.26s-.85.09-1.2.26-.65.41-.9.7-.44.62-.58.98c-.14.37-.2.74-.2,1.13s.07.76.2,1.13c.14.37.33.7.58.98s.55.52.9.7c.35.18.75.26,1.2.26s.87-.09,1.22-.26c.35-.18.64-.41.88-.7.23-.29.41-.62.53-1s.18-.76.18-1.14Z"/>
      <path class="cls-1" d="M131.59,47.4v-18.14h4.01v18.14h-4.01Z"/>
      <path class="cls-1" d="M138.53,37.08c.7-.67,1.52-1.18,2.46-1.51s1.89-.5,2.87-.5,1.86.12,2.56.37c.7.25,1.26.63,1.69,1.15.43.52.75,1.18.95,1.97.2.79.3,1.73.3,2.82v6.02h-3.6v-1.27h-.07c-.3.5-.76.88-1.38,1.15-.62.27-1.28.41-2,.41-.48,0-.98-.06-1.49-.19-.51-.13-.98-.34-1.4-.62-.42-.29-.77-.67-1.04-1.15-.27-.48-.41-1.07-.41-1.78,0-.86.24-1.56.71-2.09.47-.53,1.08-.94,1.82-1.22.74-.29,1.57-.48,2.48-.58.91-.1,1.8-.14,2.66-.14v-.19c0-.59-.21-1.03-.62-1.31-.42-.28-.93-.42-1.54-.42-.56,0-1.1.12-1.62.36s-.96.53-1.33.86l-1.99-2.14ZM145.75,42.19h-.5c-.43,0-.87.02-1.31.06-.44.04-.83.12-1.18.23-.34.11-.63.28-.85.49s-.34.5-.34.85c0,.22.05.42.16.58s.24.29.4.38c.16.1.34.16.55.2.21.04.41.06.6.06.8,0,1.41-.22,1.84-.66.42-.44.64-1.04.64-1.79v-.41Z"/>
      <path class="cls-1" d="M160.13,47.4v-6.53c0-.34-.03-.66-.08-.96-.06-.3-.15-.57-.28-.8-.13-.23-.31-.42-.54-.55s-.52-.2-.88-.2-.66.07-.92.2-.48.32-.66.56c-.18.24-.31.52-.4.83-.09.31-.13.64-.13.97v6.48h-3.96v-11.95h3.82v1.66h.05c.14-.26.33-.51.56-.76s.5-.46.82-.64c.31-.18.65-.32,1.02-.43.37-.11.76-.17,1.18-.17.8,0,1.48.14,2.04.43.56.29,1.01.66,1.36,1.12.34.46.59.98.74,1.57.15.59.23,1.18.23,1.78v7.39h-3.96Z"/>
      <path class="cls-1" d="M178.92,41.57v.48c0,.16,0,.31-.02.46h-8.66c.03.34.13.64.3.91.17.27.38.51.65.71.26.2.56.36.89.47.33.11.67.17,1.02.17.62,0,1.15-.12,1.58-.35.43-.23.78-.53,1.06-.9l2.74,1.73c-.56.82-1.3,1.44-2.22,1.88-.92.44-1.99.66-3.2.66-.9,0-1.74-.14-2.54-.42-.8-.28-1.5-.69-2.1-1.22-.6-.54-1.07-1.2-1.42-1.98-.34-.78-.52-1.68-.52-2.69s.17-1.86.5-2.65.79-1.46,1.37-2.02c.58-.55,1.26-.98,2.04-1.28.78-.3,1.63-.46,2.54-.46s1.69.15,2.42.44,1.37.72,1.9,1.28c.53.56.94,1.24,1.24,2.04.3.8.44,1.71.44,2.74ZM175.29,40.06c0-.62-.2-1.16-.59-1.61-.39-.45-.98-.67-1.76-.67-.38,0-.74.06-1.06.18-.32.12-.6.28-.84.49-.24.21-.43.45-.58.73s-.22.57-.24.88h5.06Z"/>
      <path class="cls-1" d="M188.4,38.98c-.32-.3-.7-.56-1.13-.77-.43-.21-.89-.31-1.37-.31-.37,0-.71.07-1.02.22-.31.14-.47.39-.47.74s.17.58.52.72c.34.14.9.3,1.67.48.45.1.9.23,1.36.41.46.18.87.41,1.24.7s.66.64.89,1.06c.22.42.34.91.34,1.49,0,.75-.15,1.39-.46,1.91-.3.52-.7.94-1.19,1.26-.49.32-1.04.55-1.64.7s-1.22.22-1.82.22c-.98,0-1.93-.16-2.87-.47-.94-.31-1.72-.77-2.34-1.38l2.21-2.33c.35.38.78.7,1.3.96.51.26,1.06.38,1.63.38.32,0,.64-.08.95-.23s.47-.42.47-.8-.19-.64-.58-.82c-.38-.18-.98-.36-1.8-.55-.42-.1-.83-.22-1.25-.38-.42-.16-.79-.38-1.12-.65-.33-.27-.6-.61-.8-1.01-.21-.4-.31-.88-.31-1.44,0-.72.15-1.33.46-1.84.3-.5.7-.92,1.18-1.24.48-.32,1.01-.56,1.6-.71.58-.15,1.16-.23,1.74-.23.9,0,1.77.14,2.63.42.86.28,1.58.7,2.17,1.26l-2.16,2.23Z"/>
      <path class="cls-1" d="M10.37,67.18v4.58c0,.56.11.98.32,1.26.22.28.6.42,1.16.42.19,0,.4-.02.61-.05.22-.03.4-.08.54-.14l.05,2.88c-.27.1-.62.18-1.03.25-.42.07-.83.11-1.25.11-.8,0-1.47-.1-2.02-.3-.54-.2-.98-.49-1.31-.87-.33-.38-.56-.83-.71-1.35s-.22-1.1-.22-1.74v-5.05h-1.92v-2.93h1.9v-3.14h3.86v3.14h2.81v2.93h-2.81Z"/>
      <path class="cls-1" d="M22.9,76.2v-6.48c0-.34-.02-.66-.07-.96-.05-.3-.14-.57-.28-.8-.14-.23-.32-.42-.54-.55-.22-.14-.51-.2-.86-.2-.69,0-1.22.24-1.58.73s-.55,1.09-.55,1.81v6.46h-3.94v-18.14h3.94v7.7h.05c.27-.48.7-.91,1.3-1.28s1.3-.56,2.14-.56,1.5.14,2.05.43c.55.29,1,.66,1.34,1.12.34.46.59.98.74,1.57.15.59.23,1.18.23,1.78v7.39h-3.96Z"/>
      <path class="cls-1" d="M41.69,70.37v.48c0,.16,0,.31-.02.46h-8.66c.03.34.13.64.3.91.17.27.38.51.65.71.26.2.56.36.89.47.33.11.67.17,1.02.17.62,0,1.15-.12,1.58-.35.43-.23.78-.53,1.06-.9l2.74,1.73c-.56.82-1.3,1.44-2.22,1.88-.92.44-1.99.66-3.2.66-.9,0-1.74-.14-2.54-.42-.8-.28-1.5-.69-2.1-1.22-.6-.54-1.07-1.2-1.42-1.98-.34-.78-.52-1.68-.52-2.69s.17-1.86.5-2.65.79-1.46,1.37-2.02c.58-.55,1.26-.98,2.04-1.28.78-.3,1.63-.46,2.54-.46s1.69.15,2.42.44,1.37.72,1.9,1.28c.53.56.94,1.24,1.24,2.04.3.8.44,1.71.44,2.74ZM38.06,68.86c0-.62-.2-1.16-.59-1.61-.39-.45-.98-.67-1.76-.67-.38,0-.74.06-1.06.18-.32.12-.6.28-.84.49-.24.21-.43.45-.58.73s-.22.57-.24.88h5.06Z"/>
      <path class="cls-1" d="M55.94,76.2h-4.68l6.89-13.54h-8.04v-3.46h12.34v3.22l-6.5,13.78Z"/>
      <path class="cls-1" d="M78.21,71.35c0,.9-.18,1.68-.53,2.34-.35.66-.82,1.22-1.4,1.66-.58.44-1.26.77-2.04.98-.77.22-1.58.32-2.41.32s-1.65-.11-2.42-.32c-.77-.22-1.44-.54-2.02-.97-.58-.43-1.05-.98-1.4-1.64-.35-.66-.53-1.44-.53-2.34,0-.51.08-.99.24-1.43.16-.44.38-.83.66-1.18.28-.34.6-.64.97-.89.37-.25.76-.44,1.18-.56v-.05c-.74-.27-1.35-.72-1.85-1.33s-.74-1.4-.74-2.34c0-.78.16-1.48.48-2.09.32-.61.75-1.12,1.3-1.52.54-.41,1.18-.72,1.9-.92.72-.21,1.47-.31,2.26-.31s1.53.1,2.24.3c.71.2,1.34.5,1.88.9.54.4.98.9,1.31,1.5.33.6.49,1.29.49,2.08,0,.94-.24,1.74-.72,2.38s-1.1,1.09-1.87,1.34v.07c.43.13.83.32,1.19.56.37.25.68.54.95.89s.48.74.64,1.18c.16.44.24.91.24,1.4ZM74.21,71.21c0-.66-.22-1.2-.66-1.64s-1-.66-1.69-.66-1.28.22-1.72.65c-.44.43-.66.98-.66,1.66s.22,1.24.66,1.64c.44.41,1.01.61,1.72.61s1.27-.2,1.7-.61c.43-.41.65-.96.65-1.64ZM73.9,63.82c0-.56-.2-1.02-.6-1.39-.4-.37-.88-.55-1.44-.55-.61,0-1.1.18-1.46.55-.37.37-.55.83-.55,1.39s.18,1.02.54,1.42c.36.4.85.6,1.48.6.59,0,1.08-.2,1.46-.6.38-.4.58-.87.58-1.42Z"/>
      <path class="cls-1" d="M86.95,76.2h-4.68l6.89-13.54h-8.04v-3.46h12.34v3.22l-6.5,13.78Z"/>
      <path class="cls-1" d="M110.4,67.49c-.18-.05-.35-.08-.52-.1-.17-.02-.33-.02-.49-.02-.53,0-.97.1-1.33.29-.36.19-.65.42-.86.69s-.37.57-.47.89c-.1.32-.14.6-.14.84v6.13h-3.94v-11.94h3.79v1.73h.05c.3-.61.74-1.11,1.3-1.5s1.21-.58,1.94-.58c.16,0,.32,0,.47.02.15.02.28.04.37.07l-.17,3.48Z"/>
      <path class="cls-1" d="M123.58,70.37v.48c0,.16,0,.31-.02.46h-8.66c.03.34.13.64.3.91.17.27.38.51.65.71.26.2.56.36.89.47.33.11.67.17,1.02.17.62,0,1.15-.12,1.58-.35.43-.23.78-.53,1.06-.9l2.74,1.73c-.56.82-1.3,1.44-2.22,1.88-.92.44-1.99.66-3.2.66-.9,0-1.74-.14-2.54-.42-.8-.28-1.5-.69-2.1-1.22-.6-.54-1.07-1.2-1.42-1.98-.34-.78-.52-1.68-.52-2.69s.17-1.86.5-2.65.79-1.46,1.37-2.02c.58-.55,1.26-.98,2.04-1.28.78-.3,1.63-.46,2.54-.46s1.69.15,2.42.44,1.37.72,1.9,1.28c.53.56.94,1.24,1.24,2.04.3.8.44,1.71.44,2.74ZM119.95,68.86c0-.62-.2-1.16-.59-1.61-.39-.45-.98-.67-1.76-.67-.38,0-.74.06-1.06.18-.32.12-.6.28-.84.49-.24.21-.43.45-.58.73s-.22.57-.24.88h5.06Z"/>
      <path class="cls-1" d="M139.32,70.18c0,.83-.13,1.63-.38,2.4-.26.77-.63,1.44-1.12,2.03-.49.58-1.08,1.05-1.79,1.4-.7.35-1.5.53-2.4.53-.74,0-1.43-.15-2.09-.44-.66-.3-1.17-.7-1.54-1.21h-.05v7.08h-3.94v-17.71h3.74v1.46h.07c.37-.48.88-.9,1.52-1.26s1.41-.54,2.29-.54,1.65.17,2.35.5c.7.34,1.3.79,1.79,1.37.49.58.86,1.24,1.13,2s.4,1.56.4,2.39ZM135.5,70.18c0-.38-.06-.76-.18-1.13-.12-.37-.3-.69-.53-.97-.23-.28-.52-.51-.88-.68-.35-.18-.76-.26-1.22-.26s-.85.09-1.2.26-.65.41-.9.7-.44.62-.58.98c-.14.37-.2.74-.2,1.13s.07.76.2,1.13c.14.37.33.7.58.98s.55.52.9.7c.35.18.75.26,1.2.26s.87-.09,1.22-.26c.35-.18.64-.41.88-.7.23-.29.41-.62.53-1s.18-.76.18-1.14Z"/>
      <path class="cls-1" d="M141.84,76.2v-18.14h4.01v18.14h-4.01Z"/>
      <path class="cls-1" d="M148.77,65.88c.7-.67,1.52-1.18,2.46-1.51s1.89-.5,2.87-.5,1.86.12,2.56.37c.7.25,1.26.63,1.69,1.15.43.52.75,1.18.95,1.97.2.79.3,1.73.3,2.82v6.02h-3.6v-1.27h-.07c-.3.5-.76.88-1.38,1.15-.62.27-1.28.41-2,.41-.48,0-.98-.06-1.49-.19-.51-.13-.98-.34-1.4-.62-.42-.29-.77-.67-1.04-1.15-.27-.48-.41-1.07-.41-1.78,0-.86.24-1.56.71-2.09.47-.53,1.08-.94,1.82-1.22.74-.29,1.57-.48,2.48-.58.91-.1,1.8-.14,2.66-.14v-.19c0-.59-.21-1.03-.62-1.31-.42-.28-.93-.42-1.54-.42-.56,0-1.1.12-1.62.36s-.96.53-1.33.86l-1.99-2.14ZM156,70.99h-.5c-.43,0-.87.02-1.31.06-.44.04-.83.12-1.18.23-.34.11-.63.28-.85.49s-.34.5-.34.85c0,.22.05.42.16.58s.24.29.4.38c.16.1.34.16.55.2.21.04.41.06.6.06.8,0,1.41-.22,1.84-.66.42-.44.64-1.04.64-1.79v-.41Z"/>
      <path class="cls-1" d="M170.78,68.11c-.22-.29-.53-.52-.91-.7-.38-.18-.78-.26-1.18-.26s-.79.08-1.13.25-.62.39-.86.67c-.24.28-.43.6-.56.97-.14.37-.2.76-.2,1.18s.06.81.19,1.18c.13.37.32.69.56.97.25.28.54.5.89.66.34.16.73.24,1.16.24.4,0,.8-.08,1.19-.23.39-.15.71-.37.95-.66l2.18,2.66c-.5.48-1.14.86-1.92,1.13-.78.27-1.62.41-2.5.41-.94,0-1.83-.14-2.64-.43s-1.53-.71-2.13-1.26c-.6-.55-1.08-1.22-1.42-2-.35-.78-.52-1.67-.52-2.66s.17-1.86.52-2.64c.35-.78.82-1.45,1.42-2s1.31-.98,2.13-1.27,1.69-.44,2.62-.44c.43,0,.86.04,1.28.12.42.08.83.19,1.22.32.39.14.75.3,1.08.5.33.2.61.42.85.66l-2.28,2.64Z"/>
      <path class="cls-1" d="M186.45,70.37v.48c0,.16,0,.31-.02.46h-8.66c.03.34.13.64.3.91.17.27.38.51.65.71.26.2.56.36.89.47.33.11.67.17,1.02.17.62,0,1.15-.12,1.58-.35.43-.23.78-.53,1.06-.9l2.74,1.73c-.56.82-1.3,1.44-2.22,1.88-.92.44-1.99.66-3.2.66-.9,0-1.74-.14-2.54-.42-.8-.28-1.5-.69-2.1-1.22-.6-.54-1.07-1.2-1.42-1.98-.34-.78-.52-1.68-.52-2.69s.17-1.86.5-2.65.79-1.46,1.37-2.02c.58-.55,1.26-.98,2.04-1.28.78-.3,1.63-.46,2.54-.46s1.69.15,2.42.44,1.37.72,1.9,1.28c.53.56.94,1.24,1.24,2.04.3.8.44,1.71.44,2.74ZM182.83,68.86c0-.62-.2-1.16-.59-1.61-.39-.45-.98-.67-1.76-.67-.38,0-.74.06-1.06.18-.32.12-.6.28-.84.49-.24.21-.43.45-.58.73s-.22.57-.24.88h5.06Z"/>
      <path class="cls-1" d="M195.93,67.78c-.32-.3-.7-.56-1.13-.77-.43-.21-.89-.31-1.37-.31-.37,0-.71.07-1.02.22-.31.14-.47.39-.47.74s.17.58.52.72c.34.14.9.3,1.67.48.45.1.9.23,1.36.41.46.18.87.41,1.24.7s.66.64.89,1.06c.22.42.34.91.34,1.49,0,.75-.15,1.39-.46,1.91-.3.52-.7.94-1.19,1.26-.49.32-1.04.55-1.64.7s-1.22.22-1.82.22c-.98,0-1.93-.16-2.87-.47-.94-.31-1.72-.77-2.34-1.38l2.21-2.33c.35.38.78.7,1.3.96.51.26,1.06.38,1.63.38.32,0,.64-.08.95-.23s.47-.42.47-.8-.19-.64-.58-.82c-.38-.18-.98-.36-1.8-.55-.42-.1-.83-.22-1.25-.38-.42-.16-.79-.38-1.12-.65-.33-.27-.6-.61-.8-1.01-.21-.4-.31-.88-.31-1.44,0-.72.15-1.33.46-1.84.3-.5.7-.92,1.18-1.24.48-.32,1.01-.56,1.6-.71.58-.15,1.16-.23,1.74-.23.9,0,1.77.14,2.63.42.86.28,1.58.7,2.17,1.26l-2.16,2.23Z"/>
    </g>
  </g>
</svg>