<?xml version="1.0" encoding="utf-8"?>
<!-- Generator: Adobe Illustrator 28.3.0, SVG Export Plug-In . SVG Version: 6.00 Build 0)  -->
<svg version="1.1" xmlns="http://www.w3.org/2000/svg" xmlns:xlink="http://www.w3.org/1999/xlink" x="0px" y="0px"
	 viewBox="0 0 960 600" style="enable-background:new 0 0 960 600;" xml:space="preserve">
<style type="text/css">
	.st0{fill:url(#SVGID_1_);}
	.st1{fill:#0239A1;}
	.st2{fill:#0A1E3F;}
	.st3{fill:#A2DCF8;stroke:#231F20;stroke-miterlimit:10;}
	.st4{fill:#8BCEF0;stroke:#231F20;stroke-miterlimit:10;}
	.st5{fill:#0B97D7;}
	.st6{fill:none;stroke:#231F20;stroke-width:2;stroke-miterlimit:10;}
	.st7{fill:url(#SVGID_00000087403378533899320680000002903774338413305764_);}
	.st8{fill:#EEF2F8;}
	.st9{fill:#A2DCF8;}
	.st10{fill:#8BCEF0;}
	.st11{fill:none;stroke:#0B97D7;stroke-width:3;stroke-miterlimit:10;}
	.st12{display:none;opacity:0.58;}
	.st13{opacity:0.58;}
	.st14{display:inline;}
	.st15{fill:none;stroke:#000000;stroke-width:0.8;stroke-miterlimit:10;}
	.st16{fill:#FFFFFF;stroke:#231F20;stroke-width:0.8489;stroke-miterlimit:10;}
	.st17{fill:none;stroke:#231F20;stroke-width:0.9557;stroke-miterlimit:10;}
	.st18{fill:#0B97D7;stroke:#FFFFFF;stroke-width:6.3139;stroke-miterlimit:10;}
	.st19{fill:#FFFFFF;stroke:#231F20;stroke-width:0.9317;stroke-miterlimit:10;}
	.st20{fill:none;stroke:#231F20;stroke-width:0.9887;stroke-miterlimit:10;}
	.st21{fill:#0B97D7;stroke:#FFFFFF;stroke-width:6.0018;stroke-miterlimit:10;}
	.st22{fill:#FFFFFF;stroke:#231F20;stroke-width:0.8743;stroke-miterlimit:10;}
	.st23{fill:none;stroke:#231F20;stroke-width:0.9676;stroke-miterlimit:10;}
	.st24{fill:#0B97D7;stroke:#FFFFFF;stroke-width:5.874;stroke-miterlimit:10;}
	.st25{fill:#FFFFFF;stroke:#231F20;stroke-width:0.6543;stroke-miterlimit:10;}
	.st26{fill:none;stroke:#231F20;stroke-width:0.7002;stroke-miterlimit:10;}
	.st27{fill:#0B97D7;stroke:#FFFFFF;stroke-width:4.2504;stroke-miterlimit:10;}
	
		.st28{fill:url(#SVGID_00000059309610152384628500000017780186849941985161_);stroke:#95ADBB;stroke-width:1.8321;stroke-miterlimit:10;}
	
		.st29{fill:url(#SVGID_00000101815396871116603200000010374506673418455973_);stroke:#CBD0D5;stroke-width:1.2214;stroke-miterlimit:10;}
	.st30{fill:none;stroke:#0B97D7;stroke-width:22.8726;stroke-miterlimit:10;}
	.st31{fill:none;stroke:#A2DCF8;stroke-width:16.2516;stroke-miterlimit:10;}
	
		.st32{fill:url(#SVGID_00000160873331621350713910000016495274179524937373_);stroke:#95ADBB;stroke-width:2.8048;stroke-miterlimit:10;}
	
		.st33{fill:url(#SVGID_00000160183790773458046190000005772891528977669557_);stroke:#CBD0D5;stroke-width:1.8699;stroke-miterlimit:10;}
	.st34{fill:#2252AD;}
	.st35{fill:none;stroke:#FFFFFF;stroke-width:2;stroke-miterlimit:10;}
	.st36{fill:#FFFFFF;}
	.st37{fill:none;stroke:#FFFFFF;stroke-width:1.4152;stroke-miterlimit:10;}
	.st38{fill:url(#SVGID_00000122705801132030372990000016355795886994439869_);}
	.st39{opacity:0.4;fill:none;stroke:#FFFFFF;stroke-width:1.505;stroke-miterlimit:10;}
	.st40{fill:none;stroke:#FFFFFF;stroke-width:1.505;stroke-miterlimit:10;}
	.st41{fill:#FFFFFF;stroke:#86B6EE;stroke-width:1.8861;stroke-miterlimit:10;}
	.st42{fill:#FFFFFF;stroke:#86B6EE;stroke-width:1.3589;stroke-miterlimit:10;}
	.st43{fill:#FFFFFF;stroke:#86B6EE;stroke-width:1.2244;stroke-miterlimit:10;}
	.st44{fill:#FFFFFF;stroke:#86B6EE;stroke-width:1.2102;stroke-miterlimit:10;}
	.st45{fill:#FFFFFF;stroke:#86B6EE;stroke-width:1.3346;stroke-miterlimit:10;}
	.st46{fill:#FFFFFF;stroke:#86B6EE;stroke-width:1.2064;stroke-miterlimit:10;}
	.st47{fill:#FFFFFF;stroke:#86B6EE;stroke-width:1.7495;stroke-miterlimit:10;}
	.st48{fill:#FFFFFF;stroke:#86B6EE;stroke-width:1.105;stroke-miterlimit:10;}
	.st49{fill:#FFFFFF;stroke:#86B6EE;stroke-width:3.337;stroke-miterlimit:10;}
	.st50{display:none;}
	.st51{display:inline;fill:#FFFFFF;stroke:#86B6EE;stroke-width:3.337;stroke-miterlimit:10;}
	.st52{display:inline;fill:#FFFFFF;stroke:#86B6EE;stroke-width:2.2117;stroke-miterlimit:10;}
	.st53{fill:url(#SVGID_00000047035330745978515740000003356873566063313796_);}
	.st54{fill:none;}
	.st55{fill-rule:evenodd;clip-rule:evenodd;fill:#293B57;}
	.st56{fill:none;stroke:#FFFFFF;stroke-width:4.4595;stroke-miterlimit:10;}
	.st57{fill:#FFFFFF;stroke:#86B6EE;stroke-width:3.0637;stroke-miterlimit:10;}
	.st58{fill:#FFFFFF;stroke:#86B6EE;stroke-width:3.1461;stroke-miterlimit:10;}
	.st59{fill:#FFFFFF;stroke:#86B6EE;stroke-width:2.9882;stroke-miterlimit:10;}
	.st60{fill:#FFFFFF;stroke:#86B6EE;stroke-width:3.2179;stroke-miterlimit:10;}
	.st61{fill:#FFFFFF;stroke:#86B6EE;stroke-width:3.4165;stroke-miterlimit:10;}
	.st62{fill:#FFFFFF;stroke:#86B6EE;stroke-width:3.6239;stroke-miterlimit:10;}
	.st63{fill:url(#SVGID_00000068658796363019525060000005442286596846901921_);}
	.st64{fill:url(#SVGID_00000153692336877841886090000001634584942055264427_);}
	.st65{fill:#86B6EE;}
	.st66{fill:url(#SVGID_00000063601042758129170260000012950923221710551211_);}
	.st67{fill-rule:evenodd;clip-rule:evenodd;fill:#FFFFFF;}
	.st68{fill:#F2F6FF;}
	.st69{fill:none;stroke:#000000;stroke-width:0.5;stroke-miterlimit:10;}
	.st70{fill:#808080;stroke:#000000;stroke-width:0.25;stroke-miterlimit:10;}
	.st71{opacity:0.81;fill:#16B8F5;}
	.st72{opacity:0.81;fill:#0239A1;}
	.st73{opacity:0.81;fill:#029AA0;}
	.st74{fill:url(#SVGID_00000121988347603422856510000017202994504596225670_);}
	.st75{fill:#231F20;}
	.st76{fill-rule:evenodd;clip-rule:evenodd;fill:#2252AD;}
	.st77{fill:url(#SVGID_00000024695938868188732820000012892118030541687169_);}
	.st78{fill:url(#SVGID_00000101081069086731840810000001129431443059858605_);}
	.st79{opacity:0.62;}
	.st80{fill:none;stroke:#231F20;stroke-width:3;stroke-miterlimit:10;}
	.st81{clip-path:url(#SVGID_00000169554923285507802210000018388221322201393834_);}
	.st82{display:inline;clip-path:url(#SVGID_00000003091506760709226040000014616548807704429230_);}
	.st83{display:none;fill:url(#SVGID_00000066483025649366747250000001305536927600784062_);}
	.st84{fill:#0A1E3F;stroke:#0A1E3F;stroke-width:0.968;stroke-miterlimit:10;}
	.st85{fill:#231F20;stroke:#000000;stroke-width:0.4259;stroke-miterlimit:10;}
	.st86{font-family:'MyriadPro-Regular';}
	.st87{font-size:18.1907px;}
	.st88{fill:#16B8F5;}
	.st89{display:inline;fill:none;}
	.st90{font-family:'AvenirNext-Medium';}
	.st91{font-size:17.424px;}
	.st92{display:inline;fill:#0239A1;}
	.st93{display:inline;fill:#16B8F5;}
	.st94{font-family:'AvenirNext-Bold';}
	.st95{font-size:28px;}
	.st96{display:none;fill:#0239A1;}
	.st97{font-family:'AnfaceRegular';}
	.st98{font-size:84.6781px;}
	.st99{letter-spacing:7.7;}
	.st100{display:inline;fill:none;stroke:#0B97D7;stroke-width:24.9923;stroke-miterlimit:10;}
	.st101{display:inline;fill:none;stroke:#A2DCF8;stroke-width:17.7577;stroke-miterlimit:10;}
	.st102{font-family:'Avenir-Black';}
	.st103{font-size:39.3363px;}
	.st104{fill:none;stroke:#0B97D7;stroke-width:21.5648;stroke-miterlimit:10;}
	.st105{fill:none;stroke:#A2DCF8;stroke-width:15.3224;stroke-miterlimit:10;}
	.st106{display:inline;fill:none;stroke:#0B97D7;stroke-width:25.428;stroke-miterlimit:10;}
	.st107{display:inline;fill:none;stroke:#A2DCF8;stroke-width:18.0673;stroke-miterlimit:10;}
	.st108{font-size:40.0221px;}
	.st109{fill:none;stroke:#0B97D7;stroke-width:21.3783;stroke-miterlimit:10;}
	.st110{fill:none;stroke:#A2DCF8;stroke-width:15.1898;stroke-miterlimit:10;}
	.st111{font-size:24px;}
	.st112{fill:url(#SVGID_00000062902267562636687670000000158354692816707986_);}
	.st113{fill:#334B6D;}
	.st114{fill:#9296A0;}
	.st115{clip-path:url(#SVGID_00000010996672285324994870000007112205534447390390_);}
	.st116{clip-path:url(#Wing_Right_Colour_00000039817625624098471930000014032233225798468027_);}
	.st117{opacity:0.58;clip-path:url(#Body_Colour_00000004530003973702464510000011532752223852877994_);}
	.st118{opacity:0.47;clip-path:url(#Body_Colour_00000004530003973702464510000011532752223852877994_);}
	.st119{opacity:0.51;clip-path:url(#Body_Colour_00000004530003973702464510000011532752223852877994_);}
	.st120{fill:url(#SVGID_00000048476543563692384640000015128311945421635228_);}
	.st121{clip-path:url(#SVGID_00000094591134385017177420000007769649142099142544_);}
	.st122{fill:url(#LeftWing_00000145745256381134548090000006976473252509366690_);}
</style>
<g id="Layer_1">
</g>
<g id="Design">
</g>
<g id="Where_It_x27_s_made">
</g>
<g id="Timeline">
</g>
<g id="Credits">
</g>
<g id="Layer_4">
</g>
<g id="Development">
</g>
<g id="Operations">
	<linearGradient id="SVGID_1_" gradientUnits="userSpaceOnUse" x1="734.0667" y1="-24.3657" x2="142.0997" y2="731.3956">
		<stop  offset="0" style="stop-color:#89D5F6"/>
		<stop  offset="0.7244" style="stop-color:#ADE1FA"/>
	</linearGradient>
	<rect x="0" style="display:none;fill:url(#SVGID_1_);" width="960" height="600"/>
	<g class="st50">
		<g class="st14">
			<path class="st8" d="M-151.6,242.1l7.5-6.4c2.6-2,5.3-4,8-6c4-2.6,8.6-5.7,12.8-7.9c0,0,2.2-1.2,2.2-1.2l2.3-1l4.6-2.1
				c2.3-0.8,4.9-1.8,7.2-2.6c38.4-12,71.2,9.5,90.5,42c1.1,1.7,1.7,3,2.7,4.9c0,0-9.4-4.1-9.4-4.1l1.4-0.5c21.5-7,46.5-6.7,66.2,5.5
				c4.8,3,9.1,6.6,13,10.6c0,0-12.7-1.6-12.7-1.6c51.9-34.8,113.8-30.9,131.7,36.9c0,0-18.3-7.9-18.3-7.9c4.4-2.4,9-4.7,13.9-6.5
				c16-6.2,34.5-6,49.6,3.1c18.2,10.9,29,29.8,36.7,48.7c0,0-19.9-6.2-19.9-6.2c3.8-2.5,8.2-4.4,12.6-5.3
				c23.6-4.7,49.3,13.9,60.3,33.4c1,1.8,1.9,3.9,2.7,6.4l-20.8-7c3.8-2.7,8-5,12.3-6.6c21.7-8.2,46.6-5.7,66.6,5.8
				c24.1,13.5,36.8,39.8,38.6,66.5c0,0-18.7-9.6-18.7-9.6c15.9-9.3,35.1-9.3,50.7,0.6c0,0-16.2,4.1-16.2,4.1
				c4.3-6.9,9.1-13.7,15.4-19.9c13.6-13.7,31.9-19.2,50.8-15.3c8.3,1.6,16.1,4.5,23.6,8.1c0,0-10.2,1.3-10.2,1.3
				c6.1-4.5,12.1-7.4,18.4-10c12.6-4.9,26-7.4,39.5-7c20.3,0.4,40.5,9.3,54,24.4c4.3,4.7,8.4,10.3,11.6,15.9
				c3.4,5.6,5.8,11.5,8.2,17.4l-4.1-2.9c7.1,0.6,14.9,1.1,22,3.2c15.2,4.2,26,15.8,31.4,30.4c2.6,6.8,4.2,13.9,5.2,21
				c-3.8-13.3-9.7-27.2-20.4-36c-12.1-10.1-26.4-9.3-41.3-9.2c0,0-1.5-2.8-1.5-2.8c-7.5-15.3-18.3-29.7-33.6-37.8
				c-23.6-12.8-56.4-7.1-77.2,8.9c0,0-4.3,3.7-4.3,3.7c-12.8-5.4-28.6-11.4-42.1-6.6c-15,5.3-23.3,22.1-31,35.5
				c0,0-10.5-5.9-10.5-5.9c-4.4-2.5-8.8-3.7-13.1-3.5c-4.3,0.1-8.7,1.5-13,4.1l-16.2,9.8l-2.4-19.4c-1.7-18.3-10.2-37-26.8-45.9
				c-11.5-6.5-26.4-8.4-39.3-5.1c-4.2,1-8,2.8-10.8,4.8l-13.4,9.4c-1-2-7.7-17.6-8.7-19c-3.8-5.8-9.6-10.9-15.5-14.5
				c-5.9-3.3-12.5-6.2-18.1-2.8c0,0-13.9,8.9-13.9,8.9l-6-15.1c-12.5-30.6-28.9-51.7-63.1-33.2c0,0-14.2,7.5-14.2,7.5
				c-2.4-8.7-5.3-22.2-9-30.2c-2.1-4.6-4.6-8.8-7.6-12.5c-20.8-25.2-59.5-14-83.9,0.7c0,0-7.2,4.4-7.2,4.4l-5.5-6
				c-14.1-16.9-38.6-20-59.2-15.1c0,0-1,0.2-1,0.2l-0.8,0.2l-7.2,1.9l-2.3-6c-1-2.6-2.6-5.4-3.9-8c-15.6-27.9-40.8-45.7-73.8-39
				c-4.8,1.1-7.2,1.7-11.6,3.2c0,0-2.3,0.8-2.3,0.8l-2.2,0.9C-132,229.7-142.2,235.9-151.6,242.1L-151.6,242.1z"/>
		</g>
		<g class="st14">
			<path class="st9" d="M-153,242.1c90-71.1,130.9,22.7,130.9,22.7s43.2-15.1,70.8,15.1c32.4-21.2,96-38.4,114.1,31.8
				c38.4-21.2,64.8-3,81.6,39.3c20.4-13.6,51,12.9,55.2,27.2c25.6-18.6,91.2-11.6,97.2,55.9c12.7-7.4,26-7.4,38.4,0
				c16.4-27.6,36.8-41.5,75.6-24.2c20.3-16.1,89.6-39,121.3,34.8c16.4,0.8,47.9-1.8,58.8,49.9c14.1,66.5-80.4,52.9-199.3,49.9
				S-189,521.8-189,521.8L-153,242.1z"/>
			<g>
				<path class="st10" d="M-174.1,459.6c17.1,22.7,43.2,47.2,64.1,30.2c15.8-12.9,19.2-44.5,37.1-51.6
					c16.2,25.3,45.4,28.7,71.2,27.7c25.8-1,53.7-3.9,75.2,14c-13.7,2.8-27,8.7-39,17.5c45.9,23.1,97.7,27.3,145.6,11.8
					c7.6-2.5,15.6-5.5,23.3-3.4c6,1.6,11.2,6.2,16.7,9.6c21.6,13.7,49.6,9.7,68.3-9.7c48.9,23.4,105.9,18.2,151.6-13.7
					c1.5,25.4,23.4,42,43.7,43c20.2,1.1,39.7-8.5,59.6-13.1c31.2-7.2,64.1-2,92.9,14.6c-4.1,12.5-17.3,14.6-28.1,14.7
					c-62.9,0.8-125.8,1.6-188.8,2.3c4.6-0.9,5.6-9.6,2.6-14.1c-3-4.5-8-5.7-12.6-6.5c-92.4-16.8-185.7,12-278.7,23
					c-20.6,2.4-41.7,4-61.8-2.6s-39.1-22.6-47.3-46.6c52.7,35.9,116.4,45.2,174.2,25.5c-22.7-12.7-49-7.1-73,0.5
					s-48.9,17.2-73.3,11.5S1.6,511.6,5,480.6c-30.8,13.8-65.6,12.9-96-2.3c-5.8,4.8-5.2,16.6-0.5,23c4.7,6.4,11.9,8.7,18.8,10.1
					c21.6,4.6,43.9,4.4,65.4-0.7c-59.8,5.5-124.8,9.3-174.5-33.1c4.5,19.9,13.3,38.3,25.1,52.8"/>
			</g>
			<g>
				<path class="st8" d="M88.5,358.7c31.7-35.6,80.5-45.9,110-1.7c7.6,11.5,13,23.9,16.5,37.1c-10.7-10-19.8-21.7-30.5-31.5
					c-11.8-11.2-24.7-18.4-41.4-17.9C124.3,345,106.5,353.4,88.5,358.7L88.5,358.7z"/>
			</g>
			<g>
				<path class="st8" d="M28.5,324.4c22.8-25.7,58.2-33.1,79.3-1.3c5.5,8.3,9.4,17.2,11.9,26.7c-7.1-6.8-13.1-14.1-19.6-20.4
					c-6.1-5.9-12.4-11.2-20.5-13.7C63,310.7,44.8,319.4,28.5,324.4L28.5,324.4z"/>
			</g>
			<g>
				<path class="st8" d="M334.5,469.1c22.8-25.7,58.2-33.1,79.3-1.3c5.5,8.3,9.4,17.2,11.9,26.7c-7.1-6.8-13.1-14.1-19.6-20.4
					c-6.1-5.9-12.4-11.2-20.5-13.7C369,455.4,350.8,464.2,334.5,469.1L334.5,469.1z"/>
			</g>
		</g>
	</g>
	<g class="st50">
		<g class="st14">
			<path class="st8" d="M1117.9,341.8c-8.1-5.5-17-10.7-26.1-14.2c-2-0.9-5.7-2.1-7.9-2.8c-2.5-0.6-5.4-1.5-8.1-1.8
				c-30.2-5.5-53.7,14.9-65.3,41.1c0,0-2,5.2-2,5.2l-6.2-1.6c-15-3.8-32.3-3.2-45.2,5.8c-4.5,2.9-8.7,8.2-12.3,12.1
				c-16.8-10.9-38.8-20.2-58.7-16.4c-17.9,3.1-27.2,19.2-31,35.6c0,0-3.5,13.3-3.5,13.3l-12.3-6.5c-36.6-19.7-48.7,13.3-59.8,41.9
				c0,0-12-7.7-12-7.7c-4.9-2.9-10.5-0.4-15.7,2.5c-5.5,3.4-12,8.9-14.6,14.8c0,0-5.2,15.1-5.2,15.1l-12.9-9
				c-5.5-4-13.7-5.6-20.8-5.5c-26.9,0.3-43.4,19.6-45.8,45.5c0,0-2.1,16.8-2.1,16.8l-14.1-8.5c-3.7-2.2-7.5-3.4-11.2-3.6
				c-3.7-0.1-7.6,0.9-11.4,3.1l-9.1,5.1c-4.2-7.3-9.2-16.8-14.8-22.5c-13.8-15.3-31.8-9.6-48.4-2.5c0,0-3.8-3.2-3.8-3.2
				c-18.1-13.8-46.2-18.8-66.9-7.7c-13.2,7-22.6,19.5-29.1,32.7c0,0-1.3,2.5-1.3,2.5c-9.7,0-19.5-0.7-28.4,3.4
				c-14,6.3-21,21.6-25,35.8c2.6-19.5,11.2-38.8,31.7-44.5c6.1-1.9,12.9-2.3,19-2.8c0,0-3.5,2.5-3.5,2.5
				c13.2-35.8,43-55.7,81.3-48.6c11.9,2.3,22.6,6.1,32.7,13.4c0,0-8.8-1.1-8.8-1.1c22.3-10.9,45.9-12.3,64.4,6.3
				c5.5,5.4,9.6,11.3,13.3,17.3l-14-3.6c6.4-4,14.1-6.5,21.9-6.5c7.7-0.1,15.5,2.3,22,6c0,0-16.2,8.4-16.2,8.4
				c0.5-5.5,1.3-10.9,2.8-16.4c4.3-16.9,15.2-32.5,30.7-41.2c18.1-10.3,40.6-12.3,59.8-4.1c2.9,1.2,5.7,2.9,8.5,4.8l-18,6.1
				c2.1-6.7,6.3-12.2,10.9-17.1c11.1-11.3,26.7-20.5,43.6-17.4c3.9,0.8,7.7,2.4,10.9,4.6l-17.2,5.4c12.5-32.4,37.4-58.7,74.7-44.9
				c4.3,1.6,8.3,3.5,12.1,5.6l-15.8,6.8c1.6-5.5,3.4-11.1,6-16.5c21.7-45.3,72-40.1,108-15.5c0,0-11,1.4-11,1.4
				c8.8-9.3,20.9-15.4,33.6-17.2c11.9-1.7,23.7-0.4,35,3.2c0,0,1.2,0.4,1.2,0.4l-8.2,3.6c5.6-11,13.3-20.7,22.8-28.6
				c20-16.8,44.7-19.2,68.1-7.9c0,0,2,0.9,2,0.9l1.9,1l3.8,2.1C1104.5,330.7,1111.5,336.2,1117.9,341.8L1117.9,341.8z"/>
		</g>
		<g class="st14">
			<path class="st9" d="M1119.1,341.8c-78-61.5-113.3,19.6-113.3,19.6s-37.4-13.1-61.3,13.1c-28.1-18.3-83.2-33.2-98.8,27.5
				c-33.3-18.3-56.1-2.6-70.7,34c-17.7-11.8-44.1,11.2-47.8,23.6c-22.2-16.1-79-10-84.2,48.4c-11-6.4-22.5-6.4-33.3,0
				c-14.2-23.9-31.9-36-65.5-20.9c-17.6-14-77.6-33.8-105,30.1c-14.2,0.7-41.5-1.6-50.9,43.2c-12.2,57.6,69.7,45.8,172.6,43.2
				c102.9-2.6,589.5-19.6,589.5-19.6L1119.1,341.8z"/>
			<g>
				<path class="st10" d="M1137.4,530.2c-14.8,19.7-37.5,40.9-55.5,26.1c-13.6-11.1-16.6-38.6-32.1-44.7c-14,21.9-39.3,24.9-61.6,24
					c-22.3-0.9-46.5-3.4-65.1,12.1c11.9,2.4,23.4,7.6,33.8,15.2c-39.8,20-84.6,23.6-126.1,10.2c-6.6-2.1-13.5-4.7-20.2-2.9
					c-5.2,1.4-9.7,5.3-14.4,8.4c-18.7,11.9-42.9,8.4-59.1-8.4c-42.3,20.2-91.7,15.8-131.3-11.9c-1.3,22-20.3,36.3-37.8,37.3
					c-17.5,0.9-34.4-7.3-51.6-11.3c-27-6.3-55.5-1.8-80.4,12.7c3.6,10.9,15,12.6,24.3,12.8c54.5,0.7,109,1.4,163.5,2
					c-4-0.8-4.9-8.3-2.3-12.2c2.6-3.9,6.9-4.9,10.9-5.7c80.1-14.6,160.8,10.4,241.4,19.9c17.9,2.1,36.1,3.4,53.5-2.3
					c17.4-5.7,33.9-19.5,40.9-40.3c-45.6,31.1-100.8,39.1-150.9,22.1c19.6-11,42.4-6.2,63.3,0.5c20.8,6.6,42.3,14.9,63.5,10
					c21.1-4.9,41.5-28.4,38.5-55.2c26.7,11.9,56.8,11.2,83.1-2c5,4.1,4.5,14.4,0.4,19.9c-4.1,5.5-10.3,7.5-16.3,8.8
					c-18.7,4-38,3.8-56.6-0.6c51.8,4.7,108.1,8.1,151.1-28.7c-3.9,17.3-11.5,33.2-21.7,45.7"/>
			</g>
			<g>
				<path class="st8" d="M909.9,442.8c-22.8-7.1-48.6-19.8-71.1-6c-15.2,9.5-25.1,23.9-38.5,36.6c3.1-11.4,7.7-22.2,14.3-32.1
					C840.2,403,882.6,412,909.9,442.8L909.9,442.8z"/>
			</g>
			<g>
				<path class="st8" d="M961.9,413.1c-24.7-8-41.6-16.8-62.1,4.4c-5.6,5.4-10.8,11.8-17,17.7c2.2-8.3,5.5-16,10.3-23.2
					C911.4,384.5,942.2,390.9,961.9,413.1L961.9,413.1z"/>
			</g>
			<g>
				<path class="st8" d="M696.9,538.4c-24.7-8-41.6-16.8-62.1,4.4c-5.6,5.4-10.8,11.8-17,17.7c2.2-8.3,5.5-16,10.3-23.2
					C646.4,509.8,677.2,516.2,696.9,538.4L696.9,538.4z"/>
			</g>
		</g>
	</g>
	<g class="st50">
		<g class="st14">
			<path class="st8" d="M-168.9,436.8c14.3-10.4,31.8-18.2,49.8-17.4c18.8,0.9,36.6,12,46.7,27.9l-5.5-2.3
				c9.2-2.6,18.6-3.4,28.1-2.5c9.8,0.9,19.6,4.4,27.3,10.9c0,0-7-0.8-7-0.8c25.9-14.2,66.5-20.4,85,8.4c2.6,4,4.5,8.2,6,12.5
				l-10.7-4.8c5.9-2.6,12.2-4.7,19.1-5.5c22.9-2.9,39.8,11.6,49.3,31c0,0-11.5-3.7-11.5-3.7c15.6-8,34.9,0.6,46,12.3
				c1.7,1.9,3.3,3.8,4.8,7.4l-12.1-4.3c8.1-4.5,16.5-5.9,25.3-6.1c21.2-0.4,44.7,10,52.3,31.2c1.6,4.1,2.5,8.4,3,12.7l-11.1-6.2
				c10.3-4.9,23.4-4.8,33.6,0.4c0,0-9.1,2.3-9.1,2.3c3.3-4.3,7.2-8.5,12-12c14.9-11.2,33.1-9.2,49.4-2.9c0,0-5.4,0.6-5.4,0.6
				c8.2-4.6,16.4-6.9,25.4-8.2c27.4-4.2,53.6,5.7,66,31.6c0,0-2.4-1.5-2.4-1.5c4.5,0.3,9.3,0.6,14,1.6c15.5,3,24.5,14,27.4,29.2
				c-0.8-2.2-1.6-4.3-2.6-6.4c-2.8-6-7.3-11.5-13.1-14.7c-8-4.5-16.9-4.1-25.9-4c0,0-1.5,0-1.5,0l-0.9-1.5
				c-12.6-21.6-35.5-28.5-59.1-23.4c-8.1,1.7-16.4,4.6-23,9.4c0,0-3-0.9-3-0.9c-19.2-6.1-33.2-5.1-45.4,12.2c0,0-3.5,4.8-3.5,4.8
				l-5.6-2.5c-12-5.3-19.7,0-30.2,5c0,0-1.5-10.8-1.5-10.8c-1.4-12.4-9.3-21.6-21-25.8c-11-3.9-25.1-4.5-35.6,0.9
				c0,0-12.1-4.3-12.1-4.3c0,0.1-0.1-0.2-0.4-0.6c-4.8-5.9-12.9-10.4-20.3-11.2c-2.6-0.2-4.7,0.2-6.4,1l-7.7,4l-3.8-7.7
				C93.5,480.6,79.1,473.8,57,483c0,0-8.1,3.3-8.1,3.3l-2.6-8.2c-9.2-31.4-46.5-25.8-70-14.7c0,0-4,1.9-4,1.9
				c-3.6-3.4-7.6-6.8-12.3-8.8c-12.2-5.3-26.4-4.7-39.2-1.8c-3.8-8.4-10.2-15.5-17.6-21c-10-7.4-22.9-10.5-35.3-9.4
				C-145.1,425.7-157.6,430.7-168.9,436.8L-168.9,436.8z"/>
		</g>
		<g class="st14">
			<path class="st9" d="M-169.9,436.8c63.5-39.8,92.3,12.7,92.3,12.7s30.5-8.5,50,8.5c22.9-11.9,67.8-21.5,80.5,17.8
				c27.1-11.9,45.7-1.7,57.6,22c14.4-7.6,36,7.2,39,15.2c18.1-10.4,64.4-6.5,68.6,31.3c8.9-4.1,18.4-4.1,27.1,0
				c11.6-15.4,26-23.3,53.4-13.6c14.3-9,63.2-21.8,85.6,19.5c11.6,0.5,33.8-1,41.5,28c9.9,37.3-56.8,29.6-140.6,28
				c-83.9-1.7-480.3-12.7-480.3-12.7L-169.9,436.8z"/>
			<g>
				<path class="st10" d="M-184.8,558.6c12.1,12.7,30.5,26.5,45.2,16.9c11.1-7.2,13.5-25,26.2-28.9c11.4,14.1,32,16.1,50.2,15.5
					s37.9-2.2,53.1,7.8c-9.7,1.5-19.1,4.9-27.5,9.8c32.4,12.9,68.9,15.3,102.7,6.6c5.4-1.4,11-3.1,16.4-1.9
					c4.2,0.9,7.9,3.5,11.8,5.4c15.3,7.7,35,5.4,48.2-5.4c34.5,13.1,74.7,10.2,106.9-7.7c1,14.2,16.5,23.5,30.8,24.1
					c14.3,0.6,28-4.7,42.1-7.3c22-4,45.2-1.1,65.5,8.2c-2.9,7-12.2,8.2-19.8,8.3c-44.4,0.4-88.8,0.9-133.2,1.3
					c3.2-0.5,4-5.4,1.9-7.9c-2.1-2.5-5.6-3.2-8.9-3.7c-65.2-9.4-131.1,6.7-196.7,12.9c-14.6,1.4-29.4,2.2-43.6-1.5
					s-27.6-12.6-33.3-26.1c37.2,20.1,82.1,25.3,122.9,14.3c-16-7.1-34.6-4-51.5,0.3s-34.5,9.6-51.7,6.4s-33.8-18.4-31.4-35.7
					c-21.7,7.7-46.3,7.2-67.7-1.3c-4.1,2.7-3.7,9.3-0.3,12.9c3.3,3.6,8.4,4.9,13.3,5.7c15.2,2.6,30.9,2.5,46.1-0.4
					c-42.2,3.1-88.1,5.2-123.1-18.6c3.2,11.2,9.4,21.5,17.7,29.6"/>
			</g>
			<g>
				<path class="st8" d="M0.5,502.1c27-24,63.6-26.3,83.4,7.8c2.3,3.8,4.3,7.8,5.9,12c-7-5.5-13.2-11.7-19.8-16.5
					C47.6,487.8,25.4,496.3,0.5,502.1L0.5,502.1z"/>
			</g>
			<g>
				<path class="st8" d="M-41.8,482.9c19.5-17.3,45.9-19,60.1,5.6c1.6,2.8,3.1,5.6,4.3,8.6c-5.1-4-9.5-8.4-14.3-11.9
					C-7.7,472.6-23.9,478.7-41.8,482.9L-41.8,482.9z"/>
			</g>
			<g>
				<path class="st8" d="M174.1,564c19.5-17.3,45.9-19,60.1,5.6c1.6,2.8,3.1,5.6,4.3,8.6c-5.1-4-9.5-8.4-14.3-11.9
					C208.2,553.7,192,559.8,174.1,564L174.1,564z"/>
			</g>
		</g>
	</g>
	<g>
		<circle class="st11" cx="49.3" cy="195.9" r="11.4"/>
		<circle class="st11" cx="49.3" cy="237.5" r="11.4"/>
		<circle class="st5" cx="49.3" cy="362.5" r="7.2"/>
		<circle class="st11" cx="49.3" cy="279.2" r="11.4"/>
		<circle class="st11" cx="49.3" cy="320.8" r="11.4"/>
		<circle class="st11" cx="49.3" cy="362.5" r="11.4"/>
		<circle class="st11" cx="49.3" cy="404.1" r="11.4"/>
	</g>
	<g id="Graph" class="st50">
		<g class="st14">
			<g>
				<line class="st84" x1="453.1" y1="527.6" x2="841.1" y2="527.6"/>
				<g>
					<g>
						<line class="st84" x1="453.1" y1="527.6" x2="453.1" y2="521.6"/>
						<line class="st85" x1="501.6" y1="527.6" x2="501.6" y2="521.6"/>
						<line class="st85" x1="550.1" y1="527.6" x2="550.1" y2="521.6"/>
						<line class="st85" x1="598.6" y1="527.6" x2="598.6" y2="521.6"/>
						<line class="st85" x1="647.1" y1="527.6" x2="647.1" y2="521.6"/>
						<line class="st85" x1="695.6" y1="527.6" x2="695.6" y2="521.6"/>
						<line class="st85" x1="744.1" y1="527.6" x2="744.1" y2="521.6"/>
						<line class="st85" x1="792.6" y1="527.6" x2="792.6" y2="521.6"/>
						<line class="st85" x1="841.1" y1="527.6" x2="841.1" y2="521.6"/>
					</g>
					<g>
					</g>
				</g>
			</g>
			<g>
				<g>
					<text transform="matrix(1 0 0 1 437.6844 534.4702)" class="st2 st86 st87">0</text>
					<text transform="matrix(1 0 0 1 428.3529 504.0912)" class="st2 st86 st87">10</text>
					<text transform="matrix(1 0 0 1 428.3529 473.7123)" class="st2 st86 st87">20</text>
					<text transform="matrix(1 0 0 1 428.3529 443.3324)" class="st2 st86 st87">30</text>
					<text transform="matrix(1 0 0 1 428.3529 412.9525)" class="st2 st86 st87">40</text>
					<text transform="matrix(1 0 0 1 428.3529 382.5736)" class="st2 st86 st87">50</text>
					<text transform="matrix(1 0 0 1 428.3529 352.1938)" class="st2 st86 st87">60</text>
					<text transform="matrix(1 0 0 1 428.3529 321.8158)" class="st2 st86 st87">70</text>
					<text transform="matrix(1 0 0 1 428.3529 291.4359)" class="st2 st86 st87">80</text>
				</g>
				<line class="st84" x1="453.1" y1="527.6" x2="453.1" y2="284.6"/>
				<g>
					<g>
						<line class="st84" x1="453.1" y1="527.6" x2="462.8" y2="527.6"/>
						<line class="st84" x1="453.1" y1="497.3" x2="462.8" y2="497.3"/>
						<line class="st84" x1="453.1" y1="466.9" x2="462.8" y2="466.9"/>
						<line class="st84" x1="453.1" y1="436.5" x2="462.8" y2="436.5"/>
						<line class="st84" x1="453.1" y1="406.1" x2="462.8" y2="406.1"/>
						<line class="st84" x1="453.1" y1="375.8" x2="462.8" y2="375.8"/>
						<line class="st84" x1="453.1" y1="345.4" x2="462.8" y2="345.4"/>
						<line class="st84" x1="453.1" y1="315" x2="462.8" y2="315"/>
						<line class="st84" x1="453.1" y1="284.6" x2="462.8" y2="284.6"/>
					</g>
					<g>
					</g>
				</g>
			</g>
			<g>
				<g>
					<g>
						<rect x="459.9" y="524.6" class="st1" width="34.9" height="3"/>
						<rect x="508.4" y="500.3" class="st88" width="34.9" height="27.3"/>
						<rect x="556.9" y="430.4" class="st1" width="34.9" height="97.2"/>
						<rect x="605.4" y="454.7" class="st88" width="34.9" height="72.9"/>
						<rect x="653.9" y="427.4" class="st1" width="34.9" height="100.3"/>
						<rect x="702.4" y="394" class="st88" width="34.9" height="133.7"/>
						<rect x="750.9" y="333.2" class="st1" width="34.9" height="194.4"/>
						<rect x="799.4" y="442.6" class="st88" width="34.9" height="85.1"/>
					</g>
				</g>
			</g>
			<g>
				<g>
				</g>
			</g>
		</g>
		<rect x="433.4" y="234.5" class="st89" width="464.7" height="22.5"/>
		<text transform="matrix(1 0 0 1 433.3529 247.6977)" class="st14 st90 st91">New Direct Routes Created By Year With the Boeing 787</text>
		<rect x="457.4" y="533.8" class="st89" width="37.2" height="14.9"/>
		<text transform="matrix(1 0 0 1 457.3519 546.2153)" class="st14 st86 st91">2012</text>
		<rect x="507.3" y="533.8" class="st89" width="37.2" height="14.9"/>
		<text transform="matrix(1 0 0 1 507.2787 546.2153)" class="st14 st86 st91">2013</text>
		<rect x="557.6" y="533.8" class="st89" width="37.2" height="14.9"/>
		<text transform="matrix(1 0 0 1 557.5677 546.2153)" class="st14 st86 st91">2014</text>
		<rect x="606.1" y="533.8" class="st89" width="37.2" height="14.9"/>
		<text transform="matrix(1 0 0 1 606.1068 546.2153)" class="st14 st86 st91">2015</text>
		<rect x="653" y="533.8" class="st89" width="37.2" height="14.9"/>
		<text transform="matrix(1 0 0 1 653.0111 546.2153)" class="st14 st86 st91">2016</text>
		<rect x="701.5" y="533.8" class="st89" width="37.2" height="14.9"/>
		<text transform="matrix(1 0 0 1 701.4799 546.2153)" class="st14 st86 st91">2017</text>
		<rect x="751.8" y="533.8" class="st89" width="37.2" height="14.9"/>
		<text transform="matrix(1 0 0 1 751.7709 546.1586)" class="st14 st86 st91">2018</text>
		<rect x="799.9" y="533.7" class="st89" width="37.2" height="14.9"/>
		<text transform="matrix(1 0 0 1 799.8744 546.102)" class="st14 st86 st91">2019</text>
		<circle class="st92" cx="477.4" cy="510.8" r="5.9"/>
		<circle class="st93" cx="525.9" cy="487.6" r="5.9"/>
		<circle class="st92" cx="574.7" cy="416.5" r="5.9"/>
		<circle class="st93" cx="621.5" cy="439.9" r="5.9"/>
		<circle class="st92" cx="671.6" cy="412.8" r="5.9"/>
		<circle class="st93" cx="719" cy="380" r="5.9"/>
		<circle class="st93" cx="817.2" cy="427.9" r="5.9"/>
		<circle class="st92" cx="767.4" cy="319.3" r="5.9"/>
	</g>
	<rect x="436.9" y="145.8" class="st54" width="422.7" height="59.3"/>
	<text transform="matrix(1 0 0 1 458.4953 166.9329)" class="st50"><tspan x="0" y="0" class="st92 st94 st95">370 New direct routes were </tspan><tspan x="0.7" y="33.6" class="st92 st94 st95">made possible with the 787</tspan></text>
	<polygon class="st54" points="909.5,86.2 336.2,86.2 400.2,28.7 973.5,28.7 	"/>
	<text transform="matrix(0.9099 0 -0.5262 0.8503 365.5516 80.4982)" class="st96 st97 st98 st99">OPERATIONS</text>
	<g class="st50">
		<circle class="st100" cx="238.5" cy="127.4" r="58.3"/>
		<path class="st101" d="M238.5,69.1c26.5,0,48.9,17.7,56,41.9"/>
		<rect x="196.2" y="111" class="st89" width="84.6" height="34.8"/>
		<text transform="matrix(1 0 0 1 196.1512 140.7443)" class="st92 st102 st103">20%</text>
	</g>
	<g class="st50">
		<circle class="st106" cx="234.3" cy="378.1" r="59.3"/>
		<path class="st107" d="M234.3,318.8c32.8,0,59.3,26.6,59.3,59.3"/>
		<rect x="191.2" y="361.4" class="st89" width="86.1" height="35.4"/>
		<text transform="matrix(1 0 0 1 191.2256 391.6553)" class="st92 st102 st108">25%</text>
	</g>
	<rect x="124.7" y="470.4" class="st54" width="219.1" height="86.4"/>
	<text transform="matrix(1 0 0 1 130.3246 488.5119)" class="st50"><tspan x="0" y="0" class="st92 st94 st111">More fuel efficent </tspan><tspan x="14.4" y="28.8" class="st92 st94 st111">than the planes </tspan><tspan x="6.7" y="57.6" class="st92 st94 st111">the 787 replaces</tspan></text>
	<rect x="128.9" y="213.4" class="st54" width="219.1" height="86.4"/>
	<text transform="matrix(1 0 0 1 135.8082 231.5032)" class="st50"><tspan x="0" y="0" class="st92 st94 st111">Reduction in CO2 </tspan><tspan x="45.3" y="28.8" class="st92 st94 st111">emissions</tspan></text>
</g>
<g id="Title">
</g>
<g id="Dimensions">
</g>
</svg>
