<?xml version="1.0" encoding="UTF-8"?>
<svg id="Layer_2" data-name="Layer 2" xmlns="http://www.w3.org/2000/svg" viewBox="0 0 376.12 61.49">
  <defs>
    <style>
      .cls-1 {
        fill: #0239a1;
        stroke-width: 0px;
      }
    </style>
  </defs>
  <g id="Operations">
    <g>
      <path class="cls-1" d="M15.43,15.41c0,1.08-.22,2.02-.66,2.81-.44.79-1.01,1.44-1.72,1.96s-1.51.9-2.39,1.15c-.89.25-1.79.38-2.7.38s-1.77-.1-2.62-.31c-.85-.21-1.62-.52-2.32-.94-.7-.42-1.31-.96-1.83-1.62-.52-.66-.91-1.46-1.18-2.39l4.37-1.15c.19.65.57,1.23,1.15,1.72.58.5,1.32.74,2.21.74.34,0,.68-.05,1.02-.14.35-.09.65-.24.92-.43.27-.2.49-.45.67-.77.18-.32.27-.71.27-1.18,0-.5-.12-.92-.35-1.26-.23-.34-.54-.6-.92-.8-.38-.2-.82-.34-1.3-.42-.49-.08-.97-.13-1.46-.13h-1.26v-3.42h1.37c.45,0,.88-.03,1.29-.1.41-.07.78-.19,1.11-.37s.59-.42.78-.72c.2-.3.29-.7.29-1.18,0-.71-.25-1.26-.76-1.63-.5-.38-1.08-.56-1.74-.56s-1.26.2-1.75.6-.82.94-.97,1.61L.59,5.85c.24-.84.61-1.57,1.09-2.2.48-.63,1.06-1.15,1.72-1.57s1.39-.74,2.17-.95c.78-.21,1.59-.32,2.41-.32.88,0,1.73.11,2.56.34.83.22,1.57.57,2.23,1.04.65.47,1.18,1.05,1.58,1.75.4.7.6,1.53.6,2.48,0,1.1-.31,2.03-.94,2.79-.63.76-1.42,1.27-2.39,1.53v.08c.56.13,1.07.34,1.54.63.47.29.87.63,1.2,1.03.34.4.6.85.78,1.34s.28,1.02.28,1.58Z"/>
      <path class="cls-1" d="M25.76,21.17h-5.46l8.04-15.79h-9.38V1.34h14.39v3.75l-7.59,16.07Z"/>
      <path class="cls-1" d="M52.08,11.2c0,1.4-.14,2.73-.42,4-.28,1.27-.73,2.38-1.34,3.35-.62.96-1.41,1.73-2.39,2.3s-2.17.85-3.57.85-2.59-.29-3.58-.85-1.8-1.33-2.42-2.3c-.63-.96-1.08-2.08-1.36-3.35s-.42-2.6-.42-4,.14-2.73.42-3.99.73-2.36,1.36-3.3,1.43-1.69,2.42-2.25c.99-.56,2.18-.84,3.58-.84s2.59.28,3.57.84c.98.56,1.78,1.31,2.39,2.25.62.94,1.06,2.04,1.34,3.3.28,1.26.42,2.59.42,3.99ZM47.26,11.2c0-.62-.04-1.3-.11-2.04-.07-.75-.21-1.44-.42-2.09-.21-.64-.5-1.19-.88-1.62-.38-.44-.88-.66-1.5-.66s-1.12.22-1.51.66-.7.98-.91,1.62c-.21.64-.36,1.34-.43,2.09-.07.75-.11,1.43-.11,2.04s.04,1.33.11,2.09.22,1.46.43,2.1c.21.64.52,1.19.91,1.62.39.44.9.66,1.51.66s1.12-.22,1.5-.66c.38-.44.68-.98.88-1.62.21-.64.35-1.34.42-2.1.07-.76.11-1.45.11-2.09Z"/>
      <path class="cls-1" d="M75.01,21.17l-7.98-12.96h-.08l.11,12.96h-4.65V1.34h5.46l7.95,12.94h.08l-.11-12.94h4.65v19.82h-5.43Z"/>
      <path class="cls-1" d="M98.11,14.36v.56c0,.19,0,.36-.03.53h-10.11c.04.39.15.75.35,1.06.2.32.45.59.76.83.31.23.65.42,1.04.55.38.13.78.2,1.19.2.73,0,1.34-.13,1.85-.41.5-.27.91-.62,1.23-1.05l3.19,2.02c-.65.95-1.52,1.68-2.59,2.2-1.07.51-2.32.77-3.74.77-1.05,0-2.04-.16-2.97-.49-.93-.33-1.75-.8-2.45-1.43-.7-.62-1.25-1.4-1.65-2.31-.4-.91-.6-1.96-.6-3.14s.2-2.17.59-3.09c.39-.92.92-1.71,1.6-2.35.67-.64,1.47-1.14,2.38-1.5.91-.35,1.9-.53,2.97-.53s1.97.17,2.83.52c.86.35,1.6.84,2.21,1.5.62.65,1.1,1.45,1.44,2.38.35.93.52,2,.52,3.19ZM93.88,12.6c0-.73-.23-1.35-.69-1.88-.46-.52-1.14-.78-2.06-.78-.45,0-.86.07-1.23.21-.37.14-.7.33-.98.57-.28.24-.5.53-.67.85s-.26.67-.28,1.02h5.91Z"/>
      <path class="cls-1" d="M118.72,21.17h-4.62l-2.74-8.68h-.06l-2.69,8.68h-4.62l-4.82-13.94h4.96l2.41,8.82h.08l2.49-8.82h4.62l2.58,8.82h.06l2.44-8.82h4.76l-4.84,13.94Z"/>
      <path class="cls-1" d="M142.91,21.17v-1.82h-.06c-.45.71-1.09,1.26-1.92,1.64-.83.38-1.71.57-2.65.57-1.05,0-1.98-.21-2.8-.62-.82-.41-1.52-.96-2.09-1.64-.57-.68-1-1.47-1.3-2.37-.3-.9-.45-1.83-.45-2.8s.15-1.9.46-2.79c.31-.89.75-1.67,1.32-2.34.57-.67,1.26-1.2,2.07-1.6s1.72-.59,2.73-.59,1.89.2,2.6.59,1.26.82,1.65,1.29h.06V0h4.59v21.17h-4.23ZM142.74,14.17c0-.45-.08-.89-.24-1.32-.16-.43-.38-.81-.67-1.15-.29-.34-.64-.61-1.05-.81-.41-.21-.88-.31-1.4-.31s-1.02.1-1.43.31c-.41.21-.76.47-1.04.8-.28.33-.49.7-.63,1.13s-.21.87-.21,1.32.07.89.21,1.33c.14.44.35.83.63,1.16.28.34.62.61,1.04.81.41.21.89.31,1.43.31s.99-.1,1.4-.31c.41-.21.76-.48,1.05-.81.29-.34.51-.72.67-1.15s.24-.87.24-1.32Z"/>
      <path class="cls-1" d="M155.76,2.77c0,.36-.07.69-.21.99-.14.31-.33.57-.56.8-.23.22-.51.4-.84.53-.33.13-.67.2-1.02.2-.75,0-1.37-.25-1.88-.74-.5-.49-.76-1.09-.76-1.78,0-.34.06-.66.2-.97.13-.31.32-.57.56-.8.24-.22.52-.41.84-.55s.66-.21,1.04-.21.7.07,1.02.2c.33.13.61.31.84.53.23.22.42.49.56.8.14.31.21.64.21.99ZM150.83,21.17V7.22h4.59v13.94h-4.59Z"/>
      <path class="cls-1" d="M168.11,11c-.21-.06-.41-.09-.6-.11-.2-.02-.39-.03-.57-.03-.62,0-1.13.11-1.55.33s-.76.49-1.01.81-.43.66-.55,1.03c-.11.37-.17.7-.17.98v7.15h-4.59V7.24h4.42v2.02h.06c.35-.71.86-1.3,1.51-1.75.65-.45,1.41-.68,2.27-.68.19,0,.37,0,.55.03.18.02.32.05.43.08l-.2,4.06Z"/>
      <path class="cls-1" d="M183.48,14.36v.56c0,.19,0,.36-.03.53h-10.11c.04.39.15.75.35,1.06.2.32.45.59.76.83.31.23.65.42,1.04.55.38.13.78.2,1.19.2.73,0,1.34-.13,1.85-.41.5-.27.91-.62,1.23-1.05l3.19,2.02c-.65.95-1.52,1.68-2.59,2.2-1.07.51-2.32.77-3.74.77-1.05,0-2.04-.16-2.97-.49-.93-.33-1.75-.8-2.45-1.43-.7-.62-1.25-1.4-1.65-2.31-.4-.91-.6-1.96-.6-3.14s.2-2.17.59-3.09c.39-.92.92-1.71,1.6-2.35.67-.64,1.47-1.14,2.38-1.5.91-.35,1.9-.53,2.97-.53s1.97.17,2.83.52c.86.35,1.6.84,2.21,1.5.62.65,1.1,1.45,1.44,2.38.35.93.52,2,.52,3.19ZM179.25,12.6c0-.73-.23-1.35-.69-1.88-.46-.52-1.14-.78-2.06-.78-.45,0-.86.07-1.23.21-.37.14-.7.33-.98.57-.28.24-.5.53-.67.85s-.26.67-.28,1.02h5.91Z"/>
      <path class="cls-1" d="M195.97,11.73c-.26-.34-.62-.61-1.06-.81-.45-.21-.91-.31-1.37-.31s-.92.1-1.32.29c-.39.2-.73.46-1.01.78-.28.33-.5.7-.66,1.13s-.24.89-.24,1.37.07.94.22,1.37c.15.43.37.81.66,1.13.29.33.63.58,1.04.77.4.19.85.28,1.36.28.47,0,.93-.09,1.39-.27.46-.18.83-.43,1.11-.77l2.55,3.11c-.58.56-1.33,1-2.24,1.32-.92.32-1.89.48-2.91.48-1.1,0-2.13-.17-3.08-.5s-1.78-.83-2.49-1.47c-.7-.64-1.26-1.42-1.66-2.34-.4-.91-.61-1.95-.61-3.11s.2-2.17.61-3.08.96-1.69,1.66-2.34c.7-.64,1.53-1.14,2.49-1.48.95-.34,1.97-.52,3.06-.52.5,0,1,.05,1.5.14.49.09.97.22,1.43.38.46.16.88.35,1.26.59.38.23.71.49.99.77l-2.66,3.08Z"/>
      <path class="cls-1" d="M205.41,10.64v5.34c0,.66.13,1.15.38,1.48s.7.49,1.36.49c.22,0,.46-.02.71-.06.25-.04.46-.09.63-.17l.06,3.36c-.32.11-.72.21-1.2.29-.49.08-.97.13-1.46.13-.93,0-1.72-.12-2.35-.35-.63-.23-1.14-.57-1.53-1.01-.38-.44-.66-.96-.83-1.57-.17-.61-.25-1.29-.25-2.04v-5.9h-2.24v-3.42h2.21v-3.67h4.51v3.67h3.28v3.42h-3.28Z"/>
      <path class="cls-1" d="M226.88,11c-.21-.06-.41-.09-.6-.11-.2-.02-.39-.03-.57-.03-.62,0-1.13.11-1.55.33s-.76.49-1.01.81-.43.66-.55,1.03c-.11.37-.17.7-.17.98v7.15h-4.59V7.24h4.42v2.02h.06c.35-.71.86-1.3,1.51-1.75.65-.45,1.41-.68,2.27-.68.19,0,.37,0,.55.03.18.02.32.05.43.08l-.2,4.06Z"/>
      <path class="cls-1" d="M243.21,14.14c0,1.14-.21,2.17-.62,3.09-.41.92-.97,1.71-1.68,2.35s-1.53,1.14-2.46,1.5c-.93.35-1.93.53-3,.53s-2.04-.18-2.98-.53c-.94-.35-1.76-.85-2.46-1.5s-1.26-1.43-1.67-2.35c-.41-.92-.62-1.96-.62-3.09s.21-2.17.62-3.08c.41-.91.97-1.69,1.67-2.32s1.52-1.12,2.46-1.46c.94-.34,1.94-.5,2.98-.5s2.06.17,3,.5c.93.34,1.75.82,2.46,1.46s1.27,1.41,1.68,2.32c.41.92.62,1.94.62,3.08ZM238.78,14.14c0-.45-.07-.89-.22-1.32-.15-.43-.36-.81-.64-1.13-.28-.33-.63-.59-1.04-.8-.41-.21-.89-.31-1.43-.31s-1.02.1-1.43.31c-.41.21-.75.47-1.02.8-.27.33-.48.7-.62,1.13s-.21.87-.21,1.32.07.89.21,1.32.35.82.63,1.16c.28.35.63.62,1.04.83s.89.31,1.43.31,1.02-.1,1.43-.31.76-.48,1.04-.83.49-.73.63-1.16.21-.87.21-1.32Z"/>
      <path class="cls-1" d="M255.3,21.17v-1.93h-.06c-.17.32-.39.62-.66.9-.27.28-.59.52-.95.73-.36.21-.77.37-1.2.5-.44.13-.9.2-1.39.2-.93,0-1.72-.17-2.37-.5s-1.17-.77-1.57-1.3c-.4-.53-.69-1.14-.87-1.82-.18-.68-.27-1.38-.27-2.09V7.22h4.62v7.56c0,.39.03.77.08,1.12s.16.67.32.95c.16.28.37.5.63.66.26.16.61.24,1.04.24.8,0,1.41-.3,1.83-.9.42-.6.63-1.3.63-2.1v-7.53h4.59v13.94h-4.42Z"/>
      <path class="cls-1" d="M268.29,10.64v5.34c0,.66.13,1.15.38,1.48s.7.49,1.36.49c.22,0,.46-.02.71-.06.25-.04.46-.09.63-.17l.06,3.36c-.32.11-.72.21-1.2.29-.49.08-.97.13-1.46.13-.93,0-1.72-.12-2.35-.35-.63-.23-1.14-.57-1.53-1.01-.38-.44-.66-.96-.83-1.57-.17-.61-.25-1.29-.25-2.04v-5.9h-2.24v-3.42h2.21v-3.67h4.51v3.67h3.28v3.42h-3.28Z"/>
      <path class="cls-1" d="M287.56,14.36v.56c0,.19,0,.36-.03.53h-10.11c.04.39.15.75.35,1.06.2.32.45.59.76.83.31.23.65.42,1.04.55.38.13.78.2,1.19.2.73,0,1.34-.13,1.85-.41.5-.27.91-.62,1.23-1.05l3.19,2.02c-.65.95-1.52,1.68-2.59,2.2-1.07.51-2.32.77-3.74.77-1.05,0-2.04-.16-2.97-.49-.93-.33-1.75-.8-2.45-1.43-.7-.62-1.25-1.4-1.65-2.31-.4-.91-.6-1.96-.6-3.14s.2-2.17.59-3.09c.39-.92.92-1.71,1.6-2.35.67-.64,1.47-1.14,2.38-1.5.91-.35,1.9-.53,2.97-.53s1.97.17,2.83.52c.86.35,1.6.84,2.21,1.5.62.65,1.1,1.45,1.44,2.38.35.93.52,2,.52,3.19ZM283.33,12.6c0-.73-.23-1.35-.69-1.88-.46-.52-1.14-.78-2.06-.78-.45,0-.86.07-1.23.21-.37.14-.7.33-.98.57-.28.24-.5.53-.67.85s-.26.67-.28,1.02h5.91Z"/>
      <path class="cls-1" d="M298.62,11.34c-.37-.35-.81-.65-1.32-.9-.5-.24-1.04-.36-1.6-.36-.43,0-.83.08-1.19.25-.36.17-.55.46-.55.87s.2.67.6.84c.4.17,1.05.35,1.95.56.52.11,1.05.27,1.58.48.53.21,1.01.48,1.44.81.43.34.77.75,1.04,1.23.26.49.39,1.06.39,1.74,0,.88-.18,1.62-.53,2.23s-.82,1.1-1.39,1.47c-.57.37-1.21.64-1.92.81-.71.17-1.42.25-2.13.25-1.14,0-2.25-.18-3.35-.55-1.09-.36-2-.9-2.73-1.61l2.58-2.72c.41.45.91.82,1.51,1.12.6.3,1.23.45,1.9.45.37,0,.74-.09,1.11-.27.36-.18.55-.49.55-.94s-.22-.75-.67-.95c-.45-.21-1.15-.42-2.1-.64-.49-.11-.97-.26-1.46-.45-.49-.19-.92-.44-1.3-.76-.38-.32-.7-.71-.94-1.18-.24-.47-.36-1.03-.36-1.68,0-.84.18-1.55.53-2.14.35-.59.81-1.07,1.37-1.44s1.18-.65,1.86-.83c.68-.18,1.36-.27,2.03-.27,1.05,0,2.07.16,3.07.49,1,.33,1.84.82,2.53,1.47l-2.52,2.6Z"/>
      <path class="cls-1" d="M328.38,21.17h-4.62l-2.74-8.68h-.06l-2.69,8.68h-4.62l-4.82-13.94h4.96l2.41,8.82h.08l2.49-8.82h4.62l2.58,8.82h.06l2.44-8.82h4.76l-4.84,13.94Z"/>
      <path class="cls-1" d="M348.85,14.36v.56c0,.19,0,.36-.03.53h-10.11c.04.39.15.75.35,1.06.2.32.45.59.76.83.31.23.65.42,1.04.55.38.13.78.2,1.19.2.73,0,1.34-.13,1.85-.41.5-.27.91-.62,1.23-1.05l3.19,2.02c-.65.95-1.52,1.68-2.59,2.2-1.07.51-2.32.77-3.74.77-1.05,0-2.04-.16-2.97-.49-.93-.33-1.75-.8-2.45-1.43-.7-.62-1.25-1.4-1.65-2.31-.4-.91-.6-1.96-.6-3.14s.2-2.17.59-3.09c.39-.92.92-1.71,1.6-2.35.67-.64,1.47-1.14,2.38-1.5.91-.35,1.9-.53,2.97-.53s1.97.17,2.83.52c.86.35,1.6.84,2.21,1.5.62.65,1.1,1.45,1.44,2.38.35.93.52,2,.52,3.19ZM344.62,12.6c0-.73-.23-1.35-.69-1.88-.46-.52-1.14-.78-2.06-.78-.45,0-.86.07-1.23.21-.37.14-.7.33-.98.57-.28.24-.5.53-.67.85s-.26.67-.28,1.02h5.91Z"/>
      <path class="cls-1" d="M360.75,11c-.21-.06-.41-.09-.6-.11-.2-.02-.39-.03-.57-.03-.62,0-1.13.11-1.55.33s-.76.49-1.01.81-.43.66-.55,1.03c-.11.37-.17.7-.17.98v7.15h-4.59V7.24h4.42v2.02h.06c.35-.71.86-1.3,1.51-1.75.65-.45,1.41-.68,2.27-.68.19,0,.37,0,.55.03.18.02.32.05.43.08l-.2,4.06Z"/>
      <path class="cls-1" d="M376.12,14.36v.56c0,.19,0,.36-.03.53h-10.11c.04.39.15.75.35,1.06.2.32.45.59.76.83.31.23.65.42,1.04.55.38.13.78.2,1.19.2.73,0,1.34-.13,1.85-.41.5-.27.91-.62,1.23-1.05l3.19,2.02c-.65.95-1.52,1.68-2.59,2.2-1.07.51-2.32.77-3.74.77-1.05,0-2.04-.16-2.97-.49-.93-.33-1.75-.8-2.45-1.43-.7-.62-1.25-1.4-1.65-2.31-.4-.91-.6-1.96-.6-3.14s.2-2.17.59-3.09c.39-.92.92-1.71,1.6-2.35.67-.64,1.47-1.14,2.38-1.5.91-.35,1.9-.53,2.97-.53s1.97.17,2.83.52c.86.35,1.6.84,2.21,1.5.62.65,1.1,1.45,1.44,2.38.35.93.52,2,.52,3.19ZM371.89,12.6c0-.73-.23-1.35-.69-1.88-.46-.52-1.14-.78-2.06-.78-.45,0-.86.07-1.23.21-.37.14-.7.33-.98.57-.28.24-.5.53-.67.85s-.26.67-.28,1.02h5.91Z"/>
      <path class="cls-1" d="M18.68,54.77v-7.62c0-.39-.03-.77-.08-1.13-.06-.36-.16-.68-.31-.94-.15-.26-.35-.47-.6-.63-.25-.16-.58-.24-.99-.24s-.73.08-1.02.25-.53.39-.73.67c-.2.28-.34.6-.43.97-.09.36-.14.74-.14,1.13v7.53h-4.59v-7.95c0-.8-.16-1.44-.48-1.9-.32-.47-.82-.7-1.51-.7-.73,0-1.29.29-1.69.87-.4.58-.6,1.29-.6,2.13v7.56H.87v-13.94h4.45v1.93h.06c.17-.3.38-.59.63-.87s.56-.53.91-.74c.35-.21.75-.39,1.19-.52s.92-.2,1.44-.2c1.01,0,1.86.21,2.56.62.7.41,1.25,1,1.64,1.76.47-.73,1.06-1.31,1.79-1.74.73-.43,1.61-.64,2.66-.64.95,0,1.75.17,2.39.52.64.35,1.16.79,1.55,1.34.39.55.68,1.17.85,1.85s.27,1.35.27,2v8.62h-4.59Z"/>
      <path class="cls-1" d="M26.54,42.73c.82-.78,1.78-1.37,2.87-1.76,1.09-.39,2.21-.59,3.35-.59s2.17.14,2.98.43c.81.29,1.47.74,1.97,1.34.5.61.87,1.37,1.11,2.3.23.92.35,2.02.35,3.29v7.03h-4.2v-1.48h-.08c-.35.58-.89,1.03-1.61,1.34-.72.32-1.5.48-2.34.48-.56,0-1.14-.08-1.74-.22-.6-.15-1.14-.39-1.64-.73-.5-.34-.9-.78-1.22-1.34s-.48-1.25-.48-2.07c0-1.01.28-1.82.83-2.44.55-.62,1.26-1.09,2.13-1.43.87-.34,1.83-.56,2.9-.67,1.06-.11,2.1-.17,3.11-.17v-.22c0-.69-.24-1.2-.73-1.53-.49-.33-1.08-.49-1.79-.49-.65,0-1.28.14-1.89.42-.61.28-1.12.62-1.55,1.01l-2.32-2.49ZM34.97,48.69h-.59c-.5,0-1.01.02-1.53.07-.51.05-.97.14-1.37.27-.4.13-.73.32-.99.57-.26.25-.39.58-.39.99,0,.26.06.49.18.67.12.19.28.34.46.45.19.11.4.19.64.24.24.05.48.07.7.07.93,0,1.65-.26,2.14-.77.49-.51.74-1.21.74-2.09v-.48Z"/>
      <path class="cls-1" d="M53.14,54.77v-1.82h-.06c-.45.71-1.09,1.26-1.92,1.64-.83.38-1.71.57-2.65.57-1.05,0-1.98-.21-2.8-.62-.82-.41-1.52-.96-2.09-1.64-.57-.68-1-1.47-1.3-2.37-.3-.9-.45-1.83-.45-2.8s.15-1.9.46-2.79c.31-.89.75-1.67,1.32-2.34.57-.67,1.26-1.2,2.07-1.6s1.72-.59,2.73-.59,1.89.2,2.6.59,1.26.82,1.65,1.29h.06v-8.71h4.59v21.17h-4.23ZM52.98,47.77c0-.45-.08-.89-.24-1.32-.16-.43-.38-.81-.67-1.15-.29-.34-.64-.61-1.05-.81-.41-.21-.88-.31-1.4-.31s-1.02.1-1.43.31c-.41.21-.76.47-1.04.8-.28.33-.49.7-.63,1.13s-.21.87-.21,1.32.07.89.21,1.33c.14.44.35.83.63,1.16.28.34.62.61,1.04.81.41.21.89.31,1.43.31s.99-.1,1.4-.31c.41-.21.76-.48,1.05-.81.29-.34.51-.72.67-1.15s.24-.87.24-1.32Z"/>
      <path class="cls-1" d="M74.84,47.96v.56c0,.19,0,.36-.03.53h-10.11c.04.39.15.75.35,1.06.2.32.45.59.76.83.31.23.65.42,1.04.55.38.13.78.2,1.19.2.73,0,1.34-.13,1.85-.41.5-.27.91-.62,1.23-1.05l3.19,2.02c-.65.95-1.52,1.68-2.59,2.2-1.07.51-2.32.77-3.74.77-1.05,0-2.04-.16-2.97-.49-.93-.33-1.75-.8-2.45-1.43-.7-.62-1.25-1.4-1.65-2.31-.4-.91-.6-1.96-.6-3.14s.2-2.17.59-3.09c.39-.92.92-1.71,1.6-2.35.67-.64,1.47-1.14,2.38-1.5.91-.35,1.9-.53,2.97-.53s1.97.17,2.83.52c.86.35,1.6.84,2.21,1.5.62.65,1.1,1.45,1.44,2.38.35.93.52,2,.52,3.19ZM70.62,46.2c0-.73-.23-1.35-.69-1.88-.46-.52-1.14-.78-2.06-.78-.45,0-.86.07-1.23.21-.37.14-.7.33-.98.57-.28.24-.5.53-.67.85s-.26.67-.28,1.02h5.91Z"/>
      <path class="cls-1" d="M100.21,47.74c0,.97-.15,1.9-.45,2.8-.3.9-.73,1.68-1.3,2.37-.57.68-1.27,1.23-2.09,1.64-.82.41-1.75.62-2.8.62-.86,0-1.67-.17-2.44-.52-.77-.34-1.36-.82-1.79-1.41h-.06v8.26h-4.59v-20.66h4.37v1.71h.08c.43-.56,1.02-1.05,1.78-1.47s1.65-.63,2.67-.63,1.92.2,2.74.59c.82.39,1.52.92,2.09,1.6s1.01,1.45,1.32,2.34c.31.89.46,1.82.46,2.79ZM95.76,47.74c0-.45-.07-.89-.21-1.32s-.35-.81-.62-1.13c-.27-.33-.61-.59-1.02-.8-.41-.21-.89-.31-1.43-.31s-.99.1-1.4.31c-.41.21-.76.48-1.05.81-.29.34-.51.72-.67,1.15-.16.43-.24.87-.24,1.32s.08.89.24,1.32c.16.43.38.81.67,1.15.29.34.64.61,1.05.81s.88.31,1.4.31,1.02-.1,1.43-.31.75-.48,1.02-.81.48-.72.62-1.16c.14-.44.21-.88.21-1.33Z"/>
      <path class="cls-1" d="M117.88,47.74c0,1.14-.21,2.17-.62,3.09-.41.92-.97,1.71-1.68,2.35s-1.53,1.14-2.46,1.5c-.93.35-1.93.53-3,.53s-2.04-.18-2.98-.53c-.94-.35-1.76-.85-2.46-1.5s-1.26-1.43-1.67-2.35c-.41-.92-.62-1.96-.62-3.09s.21-2.17.62-3.08c.41-.91.97-1.69,1.67-2.32s1.52-1.12,2.46-1.46c.94-.34,1.94-.5,2.98-.5s2.06.17,3,.5c.93.34,1.75.82,2.46,1.46s1.27,1.41,1.68,2.32c.41.92.62,1.94.62,3.08ZM113.46,47.74c0-.45-.07-.89-.22-1.32-.15-.43-.36-.81-.64-1.13-.28-.33-.63-.59-1.04-.8-.41-.21-.89-.31-1.43-.31s-1.02.1-1.43.31c-.41.21-.75.47-1.02.8-.27.33-.48.7-.62,1.13s-.21.87-.21,1.32.07.89.21,1.32.35.82.63,1.16c.28.35.63.62,1.04.83s.89.31,1.43.31,1.02-.1,1.43-.31.76-.48,1.04-.83.49-.73.63-1.16.21-.87.21-1.32Z"/>
      <path class="cls-1" d="M129,44.94c-.37-.35-.81-.65-1.32-.9-.5-.24-1.04-.36-1.6-.36-.43,0-.83.08-1.19.25-.36.17-.55.46-.55.87s.2.67.6.84c.4.17,1.05.35,1.95.56.52.11,1.05.27,1.58.48.53.21,1.01.48,1.44.81.43.34.77.75,1.04,1.23.26.49.39,1.06.39,1.74,0,.88-.18,1.62-.53,2.23s-.82,1.1-1.39,1.47c-.57.37-1.21.64-1.92.81-.71.17-1.42.25-2.13.25-1.14,0-2.25-.18-3.35-.55-1.09-.36-2-.9-2.73-1.61l2.58-2.72c.41.45.91.82,1.51,1.12.6.3,1.23.45,1.9.45.37,0,.74-.09,1.11-.27.36-.18.55-.49.55-.94s-.22-.75-.67-.95c-.45-.21-1.15-.42-2.1-.64-.49-.11-.97-.26-1.46-.45-.49-.19-.92-.44-1.3-.76-.38-.32-.7-.71-.94-1.18-.24-.47-.36-1.03-.36-1.68,0-.84.18-1.55.53-2.14.35-.59.81-1.07,1.37-1.44s1.18-.65,1.86-.83c.68-.18,1.36-.27,2.03-.27,1.05,0,2.07.16,3.07.49,1,.33,1.84.82,2.53,1.47l-2.52,2.6Z"/>
      <path class="cls-1" d="M142.21,44.94c-.37-.35-.81-.65-1.32-.9-.5-.24-1.04-.36-1.6-.36-.43,0-.83.08-1.19.25-.36.17-.55.46-.55.87s.2.67.6.84c.4.17,1.05.35,1.95.56.52.11,1.05.27,1.58.48.53.21,1.01.48,1.44.81.43.34.77.75,1.04,1.23.26.49.39,1.06.39,1.74,0,.88-.18,1.62-.53,2.23s-.82,1.1-1.39,1.47c-.57.37-1.21.64-1.92.81-.71.17-1.42.25-2.13.25-1.14,0-2.25-.18-3.35-.55-1.09-.36-2-.9-2.73-1.61l2.58-2.72c.41.45.91.82,1.51,1.12.6.3,1.23.45,1.9.45.37,0,.74-.09,1.11-.27.36-.18.55-.49.55-.94s-.22-.75-.67-.95c-.45-.21-1.15-.42-2.1-.64-.49-.11-.97-.26-1.46-.45-.49-.19-.92-.44-1.3-.76-.38-.32-.7-.71-.94-1.18-.24-.47-.36-1.03-.36-1.68,0-.84.18-1.55.53-2.14.35-.59.81-1.07,1.37-1.44s1.18-.65,1.86-.83c.68-.18,1.36-.27,2.03-.27,1.05,0,2.07.16,3.07.49,1,.33,1.84.82,2.53,1.47l-2.52,2.6Z"/>
      <path class="cls-1" d="M152.21,36.37c0,.36-.07.69-.21.99-.14.31-.33.57-.56.8-.23.22-.51.4-.84.53-.33.13-.67.2-1.02.2-.75,0-1.37-.25-1.88-.74-.5-.49-.76-1.09-.76-1.78,0-.34.06-.66.2-.97.13-.31.32-.57.56-.8.24-.22.52-.41.84-.55s.66-.21,1.04-.21.7.07,1.02.2c.33.13.61.31.84.53.23.22.42.49.56.8.14.31.21.64.21.99ZM147.28,54.77v-13.94h4.59v13.94h-4.59Z"/>
      <path class="cls-1" d="M171.05,47.74c0,.97-.15,1.9-.45,2.8-.3.9-.73,1.68-1.3,2.37-.57.68-1.26,1.23-2.09,1.64-.82.41-1.75.62-2.8.62-.93,0-1.82-.19-2.65-.57-.83-.38-1.47-.93-1.92-1.64h-.06v1.82h-4.23v-21.17h4.59v8.71h.06c.39-.47.94-.9,1.65-1.29s1.58-.59,2.6-.59,1.92.2,2.73.59,1.5.92,2.07,1.6c.57.67,1.01,1.45,1.32,2.34.31.89.46,1.82.46,2.79ZM166.63,47.74c0-.45-.07-.89-.21-1.32-.14-.43-.35-.81-.63-1.13-.28-.33-.63-.59-1.04-.8-.41-.21-.89-.31-1.43-.31s-.99.1-1.4.31c-.41.21-.76.48-1.05.81s-.51.72-.67,1.15c-.16.43-.24.87-.24,1.32s.08.89.24,1.32c.16.43.38.81.67,1.15s.64.61,1.05.81c.41.21.88.31,1.4.31s1.02-.1,1.43-.31c.41-.21.76-.48,1.04-.81.28-.34.49-.72.63-1.16.14-.44.21-.88.21-1.33Z"/>
      <path class="cls-1" d="M174.02,54.77v-21.17h4.68v21.17h-4.68Z"/>
      <path class="cls-1" d="M196.14,47.96v.56c0,.19,0,.36-.03.53h-10.11c.04.39.15.75.35,1.06.2.32.45.59.76.83.31.23.65.42,1.04.55.38.13.78.2,1.19.2.73,0,1.34-.13,1.85-.41.5-.27.91-.62,1.23-1.05l3.19,2.02c-.65.95-1.52,1.68-2.59,2.2-1.07.51-2.32.77-3.74.77-1.05,0-2.04-.16-2.97-.49-.93-.33-1.75-.8-2.45-1.43-.7-.62-1.25-1.4-1.65-2.31-.4-.91-.6-1.96-.6-3.14s.2-2.17.59-3.09c.39-.92.92-1.71,1.6-2.35.67-.64,1.47-1.14,2.38-1.5.91-.35,1.9-.53,2.97-.53s1.97.17,2.83.52c.86.35,1.6.84,2.21,1.5.62.65,1.1,1.45,1.44,2.38.35.93.52,2,.52,3.19ZM191.91,46.2c0-.73-.23-1.35-.69-1.88-.46-.52-1.14-.78-2.06-.78-.45,0-.86.07-1.23.21-.37.14-.7.33-.98.57-.28.24-.5.53-.67.85s-.26.67-.28,1.02h5.91Z"/>
      <path class="cls-1" d="M223.75,54.77h-4.62l-2.74-8.68h-.06l-2.69,8.68h-4.62l-4.82-13.94h4.96l2.41,8.82h.08l2.49-8.82h4.62l2.58,8.82h.06l2.44-8.82h4.76l-4.84,13.94Z"/>
      <path class="cls-1" d="M235.37,36.37c0,.36-.07.69-.21.99-.14.31-.33.57-.56.8-.23.22-.51.4-.84.53-.33.13-.67.2-1.02.2-.75,0-1.37-.25-1.88-.74-.5-.49-.76-1.09-.76-1.78,0-.34.06-.66.2-.97.13-.31.32-.57.56-.8.24-.22.52-.41.84-.55s.66-.21,1.04-.21.7.07,1.02.2c.33.13.61.31.84.53.23.22.42.49.56.8.14.31.21.64.21.99ZM230.44,54.77v-13.94h4.59v13.94h-4.59Z"/>
      <path class="cls-1" d="M243.65,44.24v5.34c0,.66.13,1.15.38,1.48s.7.49,1.36.49c.22,0,.46-.02.71-.06.25-.04.46-.09.63-.17l.06,3.36c-.32.11-.72.21-1.2.29-.49.08-.97.13-1.46.13-.93,0-1.72-.12-2.35-.35-.63-.23-1.14-.57-1.53-1.01-.38-.44-.66-.96-.83-1.57-.17-.61-.25-1.29-.25-2.04v-5.9h-2.24v-3.42h2.21v-3.67h4.51v3.67h3.28v3.42h-3.28Z"/>
      <path class="cls-1" d="M258.27,54.77v-7.56c0-.39-.03-.77-.08-1.12s-.16-.67-.32-.94-.37-.49-.63-.64c-.26-.16-.6-.24-1.01-.24-.8,0-1.42.29-1.85.85-.43.57-.64,1.27-.64,2.11v7.53h-4.59v-21.17h4.59v8.99h.06c.32-.56.82-1.06,1.51-1.5s1.52-.66,2.49-.66,1.75.17,2.39.5,1.17.77,1.57,1.3c.4.53.69,1.14.87,1.83.18.69.27,1.38.27,2.07v8.62h-4.62Z"/>
      <path class="cls-1" d="M278.35,44.24v5.34c0,.66.13,1.15.38,1.48s.7.49,1.36.49c.22,0,.46-.02.71-.06.25-.04.46-.09.63-.17l.06,3.36c-.32.11-.72.21-1.2.29-.49.08-.97.13-1.46.13-.93,0-1.72-.12-2.35-.35-.63-.23-1.14-.57-1.53-1.01-.38-.44-.66-.96-.83-1.57-.17-.61-.25-1.29-.25-2.04v-5.9h-2.24v-3.42h2.21v-3.67h4.51v3.67h3.28v3.42h-3.28Z"/>
      <path class="cls-1" d="M292.96,54.77v-7.56c0-.39-.03-.77-.08-1.12s-.16-.67-.32-.94-.37-.49-.63-.64c-.26-.16-.6-.24-1.01-.24-.8,0-1.42.29-1.85.85-.43.57-.64,1.27-.64,2.11v7.53h-4.59v-21.17h4.59v8.99h.06c.32-.56.82-1.06,1.51-1.5s1.52-.66,2.49-.66,1.75.17,2.39.5,1.17.77,1.57,1.3c.4.53.69,1.14.87,1.83.18.69.27,1.38.27,2.07v8.62h-4.62Z"/>
      <path class="cls-1" d="M314.89,47.96v.56c0,.19,0,.36-.03.53h-10.11c.04.39.15.75.35,1.06.2.32.45.59.76.83.31.23.65.42,1.04.55.38.13.78.2,1.19.2.73,0,1.34-.13,1.85-.41.5-.27.91-.62,1.23-1.05l3.19,2.02c-.65.95-1.52,1.68-2.59,2.2-1.07.51-2.32.77-3.74.77-1.05,0-2.04-.16-2.97-.49-.93-.33-1.75-.8-2.45-1.43-.7-.62-1.25-1.4-1.65-2.31-.4-.91-.6-1.96-.6-3.14s.2-2.17.59-3.09c.39-.92.92-1.71,1.6-2.35.67-.64,1.47-1.14,2.38-1.5.91-.35,1.9-.53,2.97-.53s1.97.17,2.83.52c.86.35,1.6.84,2.21,1.5.62.65,1.1,1.45,1.44,2.38.35.93.52,2,.52,3.19ZM310.66,46.2c0-.73-.23-1.35-.69-1.88-.46-.52-1.14-.78-2.06-.78-.45,0-.86.07-1.23.21-.37.14-.7.33-.98.57-.28.24-.5.53-.67.85s-.26.67-.28,1.02h5.91Z"/>
      <path class="cls-1" d="M331.52,54.77h-5.46l8.04-15.79h-9.38v-4.03h14.39v3.75l-7.59,16.07Z"/>
      <path class="cls-1" d="M357.5,49.11c0,1.05-.21,1.96-.62,2.73-.41.77-.95,1.42-1.63,1.93-.68.51-1.47.9-2.38,1.15-.9.25-1.84.38-2.81.38s-1.93-.13-2.82-.38c-.89-.25-1.68-.63-2.36-1.13-.68-.5-1.23-1.14-1.64-1.92-.41-.77-.61-1.68-.61-2.73,0-.6.09-1.15.28-1.67.19-.51.44-.97.77-1.37.33-.4.7-.75,1.13-1.04.43-.29.89-.51,1.37-.66v-.06c-.86-.32-1.58-.83-2.16-1.55-.58-.72-.87-1.63-.87-2.73,0-.91.19-1.73.56-2.44.37-.71.88-1.3,1.51-1.78.63-.48,1.37-.83,2.21-1.08.84-.24,1.72-.36,2.63-.36s1.79.12,2.62.35c.83.23,1.56.58,2.2,1.05.63.47,1.14,1.05,1.53,1.75.38.7.57,1.51.57,2.42,0,1.1-.28,2.03-.84,2.77-.56.75-1.29,1.27-2.18,1.57v.08c.5.15.96.37,1.39.66.43.29.8.63,1.11,1.04s.56.86.75,1.37c.19.51.28,1.06.28,1.64ZM352.83,48.94c0-.76-.26-1.4-.77-1.92-.51-.51-1.17-.77-1.97-.77s-1.49.25-2,.76c-.51.5-.77,1.15-.77,1.93s.26,1.44.77,1.92c.51.48,1.18.71,2,.71s1.48-.24,1.99-.71c.5-.48.76-1.12.76-1.92ZM352.46,40.32c0-.65-.23-1.19-.7-1.62-.47-.43-1.03-.64-1.68-.64-.71,0-1.28.21-1.71.64-.43.43-.64.97-.64,1.62s.21,1.19.63,1.65c.42.47.99.7,1.72.7.69,0,1.26-.23,1.71-.7.45-.47.67-1.02.67-1.65Z"/>
      <path class="cls-1" d="M367.69,54.77h-5.46l8.04-15.79h-9.38v-4.03h14.39v3.75l-7.59,16.07Z"/>
    </g>
  </g>
</svg>