<?xml version="1.0" encoding="UTF-8"?>
<svg id="Layer_2" data-name="Layer 2" xmlns="http://www.w3.org/2000/svg" viewBox="0 0 191.44 81.87">
  <defs>
    <style>
      .cls-1 {
        fill: none;
        stroke-width: .99px;
      }

      .cls-1, .cls-2, .cls-3 {
        stroke: #231f20;
      }

      .cls-1, .cls-2, .cls-3, .cls-4 {
        stroke-miterlimit: 10;
      }

      .cls-2 {
        stroke-width: .93px;
      }

      .cls-2, .cls-3 {
        fill: #fff;
      }

      .cls-3 {
        stroke-width: .85px;
      }

      .cls-4 {
        fill: #0b97d7;
        stroke: #fff;
        stroke-width: 6px;
      }
    </style>
  </defs>
  <g id="Design">
    <g>
      <path class="cls-3" d="M174.11.49c-33.16.14-59.44.3-59.44.3,0,0-93.96,1.44-96.35,1.44-19.17,1.28-28.12,57.25,0,62,2.4,0,16.97-.1,18.94.55,18.46,2.95,25.33,6.86,25.17,8.39s-.96,6.23,1.2,6.23c5.84,2.15,36.55,2.89,48.04.79,1.88-.34,3.5-1.57,4.28-3.31,1.18-2.65,2.09-6.23,2.57-15.69.57-.29,24.6-.92,55.61-1.71"/>
      <ellipse class="cls-2" cx="171.78" cy="29.99" rx="19.2" ry="29.49"/>
      <ellipse class="cls-1" cx="171.37" cy="29.99" rx="17.83" ry="29.49"/>
      <ellipse class="cls-4" cx="170.21" cy="30.1" rx="16.67" ry="26.27"/>
    </g>
  </g>
</svg>