<?xml version="1.0" encoding="UTF-8"?>
<svg id="Layer_2" data-name="Layer 2" xmlns="http://www.w3.org/2000/svg" viewBox="0 0 379.28 143.7">
  <defs>
    <style>
      .cls-1 {
        fill: #0b97d7;
        stroke: #fff;
        stroke-width: 6.31px;
      }

      .cls-1, .cls-2, .cls-3 {
        stroke-miterlimit: 10;
      }

      .cls-2 {
        fill: none;
        stroke-width: .96px;
      }

      .cls-2, .cls-3 {
        stroke: #231f20;
      }

      .cls-3 {
        fill: #fff;
        stroke-width: .85px;
      }
    </style>
  </defs>
  <g id="Design">
    <g>
      <path class="cls-3" d="M251.57,83.53s-109.8,2.3-114.6,1.1C121.87,80.07,52.84,5.77,47.32,3.3c-2.44-.26-25.41-2.88-27.32-2.88,17.02,47.69,39.31,95.4,39.31,95.4,0,0-35.95-7.23-39.31-7.19s-9.42-.07-18.22.24c20.64,9.61,28.25,11.91,34.99,15.58-3.22.41-13.64,1.81-16.94,2.55-1.96.44-2.12,4.52-.16,4.95,0,0,92.52,26.21,157.79,31.33,12.7,0,74.07-1.31,74.07-1.31M251.54,141.97l111.21.99s.99-61.6-.76-61.55c-4.78-1.64-110.43,2.12-110.43,2.12"/>
      <ellipse class="cls-2" cx="359.61" cy="112" rx="19.2" ry="31.04"/>
      <ellipse class="cls-1" cx="357.96" cy="112.01" rx="17.54" ry="27.63"/>
    </g>
  </g>
</svg>