<?xml version="1.0" encoding="UTF-8"?>
<svg id="Layer_2" data-name="Layer 2" xmlns="http://www.w3.org/2000/svg" viewBox="0 0 374.07 20.31">
  <defs>
    <style>
      .cls-1 {
        fill: #000;
      }

      .cls-1, .cls-2 {
        stroke-width: 0px;
      }

      .cls-2 {
        fill: #0239a1;
      }
    </style>
  </defs>
  <g id="Design">
    <g>
      <path class="cls-1" d="M5.1,15.27H1.01L7.03,3.42H0V.4h10.79v2.81l-5.69,12.05Z"/>
      <path class="cls-1" d="M24.59,11.02c0,.78-.15,1.47-.46,2.05s-.72,1.06-1.23,1.45c-.51.38-1.1.67-1.78.86-.68.19-1.38.28-2.11.28s-1.45-.09-2.12-.28c-.67-.19-1.26-.47-1.77-.85s-.92-.86-1.23-1.44c-.31-.58-.46-1.26-.46-2.05,0-.45.07-.86.21-1.25.14-.38.33-.73.58-1.03.25-.3.53-.56.85-.78.32-.22.67-.38,1.03-.49v-.04c-.64-.24-1.18-.63-1.62-1.17-.43-.54-.65-1.22-.65-2.05,0-.69.14-1.29.42-1.83.28-.53.66-.98,1.13-1.33s1.03-.63,1.66-.81c.63-.18,1.29-.27,1.97-.27s1.34.09,1.96.26c.62.18,1.17.44,1.65.79.48.35.86.79,1.14,1.31.29.52.43,1.13.43,1.82,0,.83-.21,1.52-.63,2.08s-.97.95-1.64,1.18v.06c.37.11.72.28,1.04.49.32.22.6.48.83.78.24.3.42.64.56,1.03.14.39.21.79.21,1.23ZM21.08,10.9c0-.57-.19-1.05-.58-1.44-.39-.38-.88-.58-1.48-.58s-1.12.19-1.5.57c-.39.38-.58.86-.58,1.45s.19,1.08.58,1.44c.38.36.89.54,1.5.54s1.11-.18,1.49-.54c.38-.36.57-.84.57-1.44ZM20.81,4.43c0-.49-.18-.9-.52-1.22-.35-.32-.77-.48-1.26-.48-.53,0-.96.16-1.28.48-.32.32-.48.73-.48,1.22s.16.89.47,1.24c.31.35.75.52,1.29.52.52,0,.94-.17,1.28-.52.34-.35.5-.76.5-1.24Z"/>
      <path class="cls-1" d="M32.23,15.27h-4.09l6.03-11.84h-7.03V.4h10.79v2.81l-5.69,12.05Z"/>
      <path class="cls-1" d="M40.13,11.13v-2.73h5.33v2.73h-5.33Z"/>
      <path class="cls-1" d="M58.84,5.31c0,.88-.15,1.68-.46,2.4-.31.72-.71,1.45-1.2,2.19l-3.59,5.36h-4.26l3.7-5.12.04-.06c-.15.06-.33.1-.51.13-.19.03-.37.04-.53.04-.66,0-1.28-.12-1.87-.35-.59-.23-1.1-.56-1.55-.99-.45-.43-.8-.94-1.07-1.53-.27-.59-.4-1.26-.4-1.98,0-.84.15-1.6.46-2.27.31-.67.73-1.24,1.26-1.7.53-.46,1.15-.82,1.87-1.06.71-.25,1.47-.37,2.26-.37s1.57.12,2.28.37c.71.25,1.33.6,1.86,1.06s.94,1.02,1.25,1.68c.31.66.46,1.39.46,2.21ZM55.33,5.27c0-.64-.21-1.2-.62-1.67-.42-.47-.98-.7-1.7-.7s-1.29.22-1.72.66c-.43.44-.64,1.02-.64,1.73,0,.67.21,1.23.63,1.67.42.44.98.66,1.69.66s1.27-.22,1.71-.65.65-1,.65-1.7Z"/>
      <path class="cls-1" d="M77.22,15c-.97.44-2.08.66-3.34.66-1.15,0-2.21-.19-3.18-.57-.97-.38-1.82-.91-2.53-1.61s-1.27-1.52-1.68-2.49c-.41-.97-.61-2.03-.61-3.19s.21-2.27.62-3.23c.41-.97.98-1.79,1.71-2.47s1.58-1.2,2.56-1.56,2.04-.55,3.17-.55c1.05,0,2.08.19,3.1.56,1.02.37,1.84.91,2.47,1.63l-2.44,2.44c-.34-.46-.78-.8-1.32-1.03s-1.11-.34-1.68-.34c-.63,0-1.21.12-1.73.35-.52.23-.98.55-1.35.96s-.67.89-.88,1.44-.31,1.16-.31,1.82.1,1.29.31,1.85c.21.56.5,1.04.87,1.44.37.4.82.71,1.33.93.52.22,1.08.34,1.7.34.71,0,1.34-.14,1.87-.42.53-.28.96-.64,1.28-1.09l2.5,2.35c-.66.76-1.47,1.35-2.44,1.79Z"/>
      <path class="cls-1" d="M80.47,6.24c.62-.59,1.33-1.03,2.15-1.32.82-.29,1.66-.44,2.51-.44s1.63.11,2.24.33c.61.22,1.1.55,1.48,1.01.38.46.65,1.03.83,1.72.18.69.26,1.52.26,2.47v5.27h-3.15v-1.11h-.06c-.27.43-.67.77-1.21,1.01-.54.24-1.12.36-1.75.36-.42,0-.85-.06-1.3-.17-.45-.11-.86-.29-1.23-.55s-.68-.59-.91-1.01c-.24-.42-.36-.94-.36-1.55,0-.76.21-1.36.62-1.83.41-.46.94-.82,1.6-1.07.65-.25,1.38-.42,2.17-.5s1.58-.13,2.33-.13v-.17c0-.52-.18-.9-.55-1.14-.36-.25-.81-.37-1.34-.37-.49,0-.96.11-1.42.32-.46.21-.84.46-1.17.76l-1.74-1.87ZM86.79,10.71h-.44c-.38,0-.76.02-1.14.05-.39.04-.73.1-1.03.2s-.55.24-.75.43c-.2.19-.29.44-.29.75,0,.2.05.36.14.5.09.14.21.25.35.34.14.08.3.14.48.18.18.04.36.05.52.05.7,0,1.24-.19,1.61-.58.37-.38.56-.91.56-1.56v-.36Z"/>
      <path class="cls-1" d="M99.37,15.27v-5.71c0-.29-.02-.57-.07-.84-.05-.27-.13-.5-.24-.7-.11-.2-.27-.36-.47-.48s-.46-.18-.77-.18-.58.06-.81.18-.42.28-.58.49c-.15.21-.27.45-.35.72s-.12.56-.12.85v5.67h-3.46V4.81h3.34v1.45h.04c.13-.22.29-.44.49-.66.2-.22.44-.4.71-.56.27-.15.57-.28.89-.38.32-.1.66-.15,1.03-.15.7,0,1.29.13,1.79.38.49.25.89.58,1.19.98.3.4.52.86.65,1.38.13.52.2,1.04.2,1.55v6.47h-3.46Z"/>
      <path class="cls-1" d="M117.91,8.19c-.2-.25-.46-.46-.8-.61-.34-.15-.68-.23-1.03-.23s-.69.07-.99.22c-.29.15-.55.34-.76.59s-.38.53-.49.85c-.12.32-.18.67-.18,1.03s.06.71.17,1.03c.11.32.28.61.49.85.22.25.48.44.78.58.3.14.64.21,1.02.21.35,0,.7-.07,1.04-.2.34-.13.62-.33.83-.58l1.91,2.33c-.43.42-.99.75-1.68.99-.69.24-1.41.36-2.18.36-.83,0-1.6-.13-2.31-.38s-1.34-.62-1.87-1.1-.94-1.07-1.25-1.75c-.3-.69-.45-1.46-.45-2.33s.15-1.62.45-2.31c.3-.69.72-1.27,1.25-1.75.53-.48,1.15-.85,1.87-1.11s1.48-.39,2.29-.39c.38,0,.75.04,1.12.1.37.07.73.17,1.07.28.34.12.66.27.94.44.29.18.54.37.75.58l-2,2.31Z"/>
      <path class="cls-1" d="M121.11,6.24c.62-.59,1.33-1.03,2.15-1.32.82-.29,1.66-.44,2.51-.44s1.63.11,2.24.33c.61.22,1.1.55,1.48,1.01.38.46.65,1.03.83,1.72.18.69.26,1.52.26,2.47v5.27h-3.15v-1.11h-.06c-.27.43-.67.77-1.21,1.01-.54.24-1.12.36-1.75.36-.42,0-.85-.06-1.3-.17-.45-.11-.86-.29-1.23-.55s-.68-.59-.91-1.01c-.24-.42-.36-.94-.36-1.55,0-.76.21-1.36.62-1.83.41-.46.94-.82,1.6-1.07.65-.25,1.38-.42,2.17-.5s1.58-.13,2.33-.13v-.17c0-.52-.18-.9-.55-1.14-.36-.25-.81-.37-1.34-.37-.49,0-.96.11-1.42.32-.46.21-.84.46-1.17.76l-1.74-1.87ZM127.43,10.71h-.44c-.38,0-.76.02-1.14.05-.39.04-.73.1-1.03.2s-.55.24-.75.43c-.2.19-.29.44-.29.75,0,.2.05.36.14.5.09.14.21.25.35.34.14.08.3.14.48.18.18.04.36.05.52.05.7,0,1.24-.19,1.61-.58.37-.38.56-.91.56-1.56v-.36Z"/>
      <path class="cls-1" d="M139.92,7.64c-.15-.04-.3-.07-.45-.08s-.29-.02-.43-.02c-.46,0-.85.08-1.17.25-.31.17-.57.37-.76.61-.19.24-.33.5-.41.77-.08.28-.13.52-.13.73v5.36h-3.44V4.82h3.32v1.51h.04c.27-.54.64-.97,1.13-1.31.49-.34,1.06-.51,1.7-.51.14,0,.28,0,.41.02.13.01.24.04.33.06l-.15,3.04Z"/>
      <path class="cls-1" d="M148.24,7.64c-.15-.04-.3-.07-.45-.08s-.29-.02-.43-.02c-.46,0-.85.08-1.17.25-.31.17-.57.37-.76.61-.19.24-.33.5-.41.77-.08.28-.13.52-.13.73v5.36h-3.44V4.82h3.32v1.51h.04c.27-.54.64-.97,1.13-1.31.49-.34,1.06-.51,1.7-.51.14,0,.28,0,.41.02.13.01.24.04.33.06l-.15,3.04Z"/>
      <path class="cls-1" d="M155.67,16.84c-.21.55-.44,1.03-.7,1.46-.26.43-.57.79-.92,1.09-.36.3-.78.53-1.26.68s-1.05.23-1.71.23c-.32,0-.65-.02-1-.06-.34-.04-.64-.1-.89-.17l.38-2.9c.17.06.35.1.56.14.2.03.39.05.56.05.53,0,.92-.12,1.15-.37.24-.25.44-.59.61-1.04l.34-.86-4.37-10.29h3.82l2.33,6.72h.06l2.08-6.72h3.65l-4.68,12.03Z"/>
      <path class="cls-2" d="M167.01,15.27v-2.94l5.8-5.24c.36-.35.66-.71.88-1.07.22-.36.34-.77.34-1.22,0-.53-.17-.96-.5-1.29s-.78-.49-1.34-.49c-.59,0-1.07.21-1.44.62s-.59.96-.66,1.63l-3.38-.46c.08-.76.29-1.43.62-2.02.33-.59.75-1.09,1.25-1.51s1.08-.73,1.73-.95c.65-.22,1.34-.33,2.07-.33.69,0,1.35.09,1.99.27.64.18,1.22.46,1.72.84s.91.85,1.21,1.43c.3.57.45,1.25.45,2.02,0,.53-.07,1.01-.21,1.44-.14.43-.33.82-.58,1.19-.25.36-.52.7-.84,1.02-.32.31-.64.63-.98.93l-3.44,3.07h6.07v3.07h-10.75Z"/>
      <path class="cls-2" d="M191.37,10.35c0,.91-.16,1.7-.48,2.36-.32.67-.75,1.21-1.29,1.65-.54.43-1.15.76-1.84.98s-1.39.33-2.12.33c-.67,0-1.31-.09-1.92-.26s-1.16-.42-1.66-.75c-.5-.32-.92-.72-1.28-1.19-.36-.47-.62-1-.79-1.58l3.21-.99c.15.52.44.95.87,1.28s.93.5,1.52.5,1.12-.18,1.56-.55c.44-.36.66-.9.66-1.62,0-.43-.09-.8-.27-1.09-.18-.29-.42-.53-.7-.7-.29-.18-.61-.3-.98-.37-.36-.07-.73-.1-1.09-.1-.53,0-1.14.06-1.82.18-.68.12-1.28.28-1.82.47l.36-8.5h9.11v3.02h-5.98l-.13,2.35c.22-.06.47-.09.75-.12.27-.02.52-.03.75-.03.74,0,1.44.1,2.1.29s1.23.49,1.71.89c.48.4.86.89,1.14,1.48.28.59.42,1.27.42,2.06Z"/>
      <path class="cls-2" d="M205.32,7.79c0,1.05-.1,2.05-.31,3s-.55,1.79-1.01,2.51c-.46.72-1.06,1.3-1.8,1.72s-1.63.64-2.68.64-1.95-.21-2.69-.64c-.74-.43-1.35-1-1.82-1.72-.47-.72-.81-1.56-1.02-2.51-.21-.95-.31-1.95-.31-3s.1-2.05.31-2.99c.21-.94.55-1.77,1.02-2.48s1.07-1.27,1.82-1.69c.74-.42,1.64-.63,2.69-.63s1.94.21,2.68.63,1.33.98,1.8,1.69.8,1.53,1.01,2.48c.21.95.31,1.94.31,2.99ZM201.7,7.79c0-.46-.03-.97-.08-1.53s-.16-1.08-.31-1.56c-.15-.48-.37-.89-.66-1.22-.29-.33-.66-.49-1.12-.49s-.84.17-1.13.49-.52.73-.68,1.22c-.16.48-.27,1-.33,1.56-.06.56-.08,1.07-.08,1.53s.03,1,.08,1.56c.06.57.16,1.09.33,1.57.16.48.39.89.68,1.22s.67.49,1.13.49.84-.16,1.12-.49c.29-.33.51-.74.66-1.22.15-.48.26-1.01.31-1.57.06-.57.08-1.09.08-1.56Z"/>
      <path class="cls-2" d="M207.04,11.13v-2.73h5.33v2.73h-5.33Z"/>
      <path class="cls-2" d="M214.56,15.27v-2.94l5.8-5.24c.36-.35.66-.71.88-1.07.22-.36.34-.77.34-1.22,0-.53-.17-.96-.5-1.29s-.78-.49-1.34-.49c-.59,0-1.07.21-1.44.62s-.59.96-.66,1.63l-3.38-.46c.08-.76.29-1.43.62-2.02.33-.59.75-1.09,1.25-1.51s1.08-.73,1.73-.95c.65-.22,1.34-.33,2.07-.33.69,0,1.35.09,1.99.27.64.18,1.22.46,1.72.84s.91.85,1.21,1.43c.3.57.45,1.25.45,2.02,0,.53-.07,1.01-.21,1.44-.14.43-.33.82-.58,1.19-.25.36-.52.7-.84,1.02-.32.31-.64.63-.98.93l-3.44,3.07h6.07v3.07h-10.75Z"/>
      <path class="cls-2" d="M239.31,5.31c0,.88-.15,1.68-.46,2.4-.31.72-.71,1.45-1.2,2.19l-3.59,5.36h-4.26l3.7-5.12.04-.06c-.15.06-.33.1-.51.13-.19.03-.37.04-.53.04-.66,0-1.28-.12-1.87-.35-.59-.23-1.1-.56-1.55-.99-.45-.43-.8-.94-1.07-1.53-.27-.59-.4-1.26-.4-1.98,0-.84.15-1.6.46-2.27.31-.67.73-1.24,1.26-1.7.53-.46,1.15-.82,1.87-1.06.71-.25,1.47-.37,2.26-.37s1.57.12,2.28.37c.71.25,1.33.6,1.86,1.06s.94,1.02,1.25,1.68c.31.66.46,1.39.46,2.21ZM235.81,5.27c0-.64-.21-1.2-.62-1.67-.42-.47-.98-.7-1.7-.7s-1.29.22-1.72.66c-.43.44-.64,1.02-.64,1.73,0,.67.21,1.23.63,1.67.42.44.98.66,1.69.66s1.27-.22,1.71-.65.65-1,.65-1.7Z"/>
      <path class="cls-2" d="M252.86,7.79c0,1.05-.1,2.05-.31,3s-.55,1.79-1.01,2.51c-.46.72-1.06,1.3-1.8,1.72s-1.63.64-2.68.64-1.95-.21-2.69-.64c-.74-.43-1.35-1-1.82-1.72-.47-.72-.81-1.56-1.02-2.51-.21-.95-.31-1.95-.31-3s.1-2.05.31-2.99c.21-.94.55-1.77,1.02-2.48s1.07-1.27,1.82-1.69c.74-.42,1.64-.63,2.69-.63s1.94.21,2.68.63,1.33.98,1.8,1.69.8,1.53,1.01,2.48c.21.95.31,1.94.31,2.99ZM249.25,7.79c0-.46-.03-.97-.08-1.53s-.16-1.08-.31-1.56c-.15-.48-.37-.89-.66-1.22-.29-.33-.66-.49-1.12-.49s-.84.17-1.13.49-.52.73-.68,1.22c-.16.48-.27,1-.33,1.56-.06.56-.08,1.07-.08,1.53s.03,1,.08,1.56c.06.57.16,1.09.33,1.57.16.48.39.89.68,1.22s.67.49,1.13.49.84-.16,1.12-.49c.29-.33.51-.74.66-1.22.15-.48.26-1.01.31-1.57.06-.57.08-1.09.08-1.56Z"/>
      <path class="cls-1" d="M272.05,10c0,.73-.11,1.43-.34,2.1-.22.67-.55,1.26-.98,1.77-.43.51-.95.92-1.56,1.23-.62.31-1.32.46-2.1.46-.64,0-1.25-.13-1.83-.39s-1.02-.61-1.34-1.06h-.04v6.2h-3.44V4.81h3.28v1.28h.06c.32-.42.77-.79,1.33-1.1.57-.32,1.24-.47,2.01-.47s1.44.15,2.06.44c.62.29,1.14.69,1.56,1.2.43.5.76,1.09.99,1.75s.35,1.36.35,2.09ZM268.71,10c0-.34-.05-.66-.16-.99s-.26-.61-.46-.85c-.2-.25-.46-.44-.77-.6-.31-.15-.67-.23-1.07-.23s-.74.08-1.05.23-.57.36-.79.61c-.22.25-.39.54-.5.86-.12.32-.18.65-.18.99s.06.67.18.99.29.61.5.86c.22.25.48.46.79.61s.66.23,1.05.23.76-.08,1.07-.23c.31-.15.56-.36.77-.61.2-.25.36-.54.46-.87s.16-.66.16-1Z"/>
      <path class="cls-1" d="M274.07,6.24c.62-.59,1.33-1.03,2.15-1.32.82-.29,1.66-.44,2.51-.44s1.63.11,2.24.33c.61.22,1.1.55,1.48,1.01.38.46.65,1.03.83,1.72.18.69.26,1.52.26,2.47v5.27h-3.15v-1.11h-.06c-.27.43-.67.77-1.21,1.01-.54.24-1.12.36-1.75.36-.42,0-.85-.06-1.3-.17-.45-.11-.86-.29-1.23-.55s-.68-.59-.91-1.01c-.24-.42-.36-.94-.36-1.55,0-.76.21-1.36.62-1.83.41-.46.94-.82,1.6-1.07.65-.25,1.38-.42,2.17-.5s1.58-.13,2.33-.13v-.17c0-.52-.18-.9-.55-1.14-.36-.25-.81-.37-1.34-.37-.49,0-.96.11-1.42.32-.46.21-.84.46-1.17.76l-1.74-1.87ZM280.39,10.71h-.44c-.38,0-.76.02-1.14.05-.39.04-.73.1-1.03.2s-.55.24-.75.43c-.2.19-.29.44-.29.75,0,.2.05.36.14.5.09.14.21.25.35.34.14.08.3.14.48.18.18.04.36.05.52.05.7,0,1.24-.19,1.61-.58.37-.38.56-.91.56-1.56v-.36Z"/>
      <path class="cls-1" d="M292.25,7.9c-.28-.27-.61-.49-.99-.67-.38-.18-.78-.27-1.2-.27-.32,0-.62.06-.89.19s-.41.34-.41.65.15.5.45.63c.3.13.79.27,1.46.42.39.08.79.2,1.19.36.4.15.76.36,1.08.61.32.25.58.56.78.92.2.36.29.8.29,1.3,0,.66-.13,1.21-.4,1.67s-.61.82-1.04,1.1c-.43.28-.91.48-1.44.61s-1.06.19-1.6.19c-.85,0-1.69-.14-2.51-.41-.82-.27-1.5-.68-2.05-1.21l1.93-2.04c.31.34.69.62,1.13.84.45.22.92.34,1.43.34.28,0,.56-.07.83-.2.27-.13.41-.37.41-.7s-.17-.56-.5-.71-.86-.32-1.58-.48c-.36-.08-.73-.2-1.09-.34-.36-.14-.69-.33-.98-.57-.29-.24-.52-.53-.7-.88-.18-.35-.27-.77-.27-1.26,0-.63.13-1.17.4-1.61s.61-.8,1.03-1.08.89-.49,1.4-.62c.51-.13,1.02-.2,1.52-.2.78,0,1.55.12,2.3.37.75.25,1.38.61,1.9,1.1l-1.89,1.95Z"/>
      <path class="cls-1" d="M302.17,7.9c-.28-.27-.61-.49-.99-.67-.38-.18-.78-.27-1.2-.27-.32,0-.62.06-.89.19s-.41.34-.41.65.15.5.45.63c.3.13.79.27,1.46.42.39.08.79.2,1.19.36.4.15.76.36,1.08.61.32.25.58.56.78.92.2.36.29.8.29,1.3,0,.66-.13,1.21-.4,1.67s-.61.82-1.04,1.1c-.43.28-.91.48-1.44.61s-1.06.19-1.6.19c-.85,0-1.69-.14-2.51-.41-.82-.27-1.5-.68-2.05-1.21l1.93-2.04c.31.34.69.62,1.13.84.45.22.92.34,1.43.34.28,0,.56-.07.83-.2.27-.13.41-.37.41-.7s-.17-.56-.5-.71-.86-.32-1.58-.48c-.36-.08-.73-.2-1.09-.34-.36-.14-.69-.33-.98-.57-.29-.24-.52-.53-.7-.88-.18-.35-.27-.77-.27-1.26,0-.63.13-1.17.4-1.61s.61-.8,1.03-1.08.89-.49,1.4-.62c.51-.13,1.02-.2,1.52-.2.78,0,1.55.12,2.3.37.75.25,1.38.61,1.9,1.1l-1.89,1.95Z"/>
      <path class="cls-1" d="M316.3,10.16v.42c0,.14,0,.27-.02.4h-7.58c.03.29.12.56.26.8.15.24.34.45.57.62s.49.31.78.41c.29.1.58.15.89.15.55,0,1.01-.1,1.39-.3s.69-.47.92-.79l2.39,1.51c-.49.71-1.14,1.26-1.94,1.65-.81.38-1.74.58-2.8.58-.78,0-1.53-.12-2.23-.37-.7-.25-1.31-.6-1.84-1.07-.52-.47-.94-1.05-1.24-1.73-.3-.69-.45-1.47-.45-2.35s.15-1.63.44-2.32c.29-.69.69-1.28,1.2-1.76s1.1-.86,1.79-1.12c.69-.27,1.43-.4,2.23-.4s1.48.13,2.12.39,1.2.63,1.66,1.12c.46.49.82,1.08,1.08,1.79.26.7.39,1.5.39,2.39ZM313.13,8.84c0-.55-.17-1.01-.51-1.41-.34-.39-.86-.59-1.54-.59-.34,0-.64.05-.92.16-.28.11-.52.25-.73.43s-.38.4-.5.64-.2.5-.21.77h4.43Z"/>
      <path class="cls-1" d="M325.31,15.27v-5.71c0-.29-.02-.57-.07-.84-.05-.27-.13-.5-.24-.7-.11-.2-.27-.36-.47-.48s-.46-.18-.77-.18-.58.06-.81.18-.42.28-.58.49c-.15.21-.27.45-.35.72s-.12.56-.12.85v5.67h-3.46V4.81h3.34v1.45h.04c.13-.22.29-.44.49-.66.2-.22.44-.4.71-.56.27-.15.57-.28.89-.38.32-.1.66-.15,1.03-.15.7,0,1.29.13,1.79.38.49.25.89.58,1.19.98.3.4.52.86.65,1.38.13.52.2,1.04.2,1.55v6.47h-3.46Z"/>
      <path class="cls-1" d="M342.46,14.28c0,1.02-.15,1.91-.44,2.67-.29.76-.71,1.38-1.24,1.88-.53.5-1.18.87-1.94,1.11-.76.24-1.61.37-2.53.37s-1.87-.14-2.85-.42c-.97-.28-1.82-.69-2.53-1.22l1.72-2.46c.5.45,1.06.78,1.67,1s1.21.33,1.8.33c1.01,0,1.75-.27,2.24-.8.48-.53.72-1.24.72-2.12v-.63h-.06c-.32.42-.76.76-1.3,1.01s-1.17.38-1.87.38c-.8,0-1.5-.14-2.12-.43s-1.14-.68-1.56-1.17c-.43-.49-.75-1.06-.98-1.71-.22-.65-.34-1.34-.34-2.07s.11-1.42.34-2.08.55-1.24.98-1.74.95-.91,1.56-1.21c.62-.3,1.32-.45,2.1-.45.66,0,1.29.13,1.89.4.6.27,1.08.68,1.45,1.24h.04v-1.34h3.26v9.47ZM339.19,9.97c0-.35-.06-.69-.18-1.01-.12-.32-.29-.61-.51-.85s-.49-.44-.8-.58c-.31-.14-.66-.21-1.05-.21s-.74.07-1.04.21c-.3.14-.56.33-.77.57-.21.24-.37.52-.48.84-.11.32-.17.67-.17,1.03s.06.69.17,1.01c.11.32.27.61.48.85s.47.44.77.59c.3.15.65.22,1.04.22s.75-.07,1.06-.22c.32-.15.58-.34.8-.58.22-.24.38-.52.5-.84.12-.32.18-.67.18-1.03Z"/>
      <path class="cls-1" d="M355.57,10.16v.42c0,.14,0,.27-.02.4h-7.58c.03.29.12.56.26.8.15.24.34.45.57.62s.49.31.78.41c.29.1.58.15.89.15.55,0,1.01-.1,1.39-.3s.69-.47.92-.79l2.39,1.51c-.49.71-1.14,1.26-1.94,1.65-.81.38-1.74.58-2.8.58-.78,0-1.53-.12-2.23-.37-.7-.25-1.31-.6-1.84-1.07-.52-.47-.94-1.05-1.24-1.73-.3-.69-.45-1.47-.45-2.35s.15-1.63.44-2.32c.29-.69.69-1.28,1.2-1.76s1.1-.86,1.79-1.12c.69-.27,1.43-.4,2.23-.4s1.48.13,2.12.39,1.2.63,1.66,1.12c.46.49.82,1.08,1.08,1.79.26.7.39,1.5.39,2.39ZM352.4,8.84c0-.55-.17-1.01-.51-1.41-.34-.39-.86-.59-1.54-.59-.34,0-.64.05-.92.16-.28.11-.52.25-.73.43s-.38.4-.5.64-.2.5-.21.77h4.43Z"/>
      <path class="cls-1" d="M364.49,7.64c-.15-.04-.3-.07-.45-.08s-.29-.02-.43-.02c-.46,0-.85.08-1.17.25-.31.17-.57.37-.76.61-.19.24-.33.5-.41.77-.08.28-.13.52-.13.73v5.36h-3.44V4.82h3.32v1.51h.04c.27-.54.64-.97,1.13-1.31.49-.34,1.06-.51,1.7-.51.14,0,.28,0,.41.02.13.01.24.04.33.06l-.15,3.04Z"/>
      <path class="cls-1" d="M372.18,7.9c-.28-.27-.61-.49-.99-.67-.38-.18-.78-.27-1.2-.27-.32,0-.62.06-.89.19s-.41.34-.41.65.15.5.45.63c.3.13.79.27,1.46.42.39.08.79.2,1.19.36.4.15.76.36,1.08.61.32.25.58.56.78.92.2.36.29.8.29,1.3,0,.66-.13,1.21-.4,1.67s-.61.82-1.04,1.1c-.43.28-.91.48-1.44.61s-1.06.19-1.6.19c-.85,0-1.69-.14-2.51-.41-.82-.27-1.5-.68-2.05-1.21l1.93-2.04c.31.34.69.62,1.13.84.45.22.92.34,1.43.34.28,0,.56-.07.83-.2.27-.13.41-.37.41-.7s-.17-.56-.5-.71-.86-.32-1.58-.48c-.36-.08-.73-.2-1.09-.34-.36-.14-.69-.33-.98-.57-.29-.24-.52-.53-.7-.88-.18-.35-.27-.77-.27-1.26,0-.63.13-1.17.4-1.61s.61-.8,1.03-1.08.89-.49,1.4-.62c.51-.13,1.02-.2,1.52-.2.78,0,1.55.12,2.3.37.75.25,1.38.61,1.9,1.1l-1.89,1.95Z"/>
    </g>
  </g>
</svg>