<?xml version="1.0" encoding="UTF-8"?>
<svg id="Layer_2" data-name="Layer 2" xmlns="http://www.w3.org/2000/svg" xmlns:xlink="http://www.w3.org/1999/xlink" viewBox="0 0 215.67 298.06">
  <defs>
    <style>
      .cls-1 {
        fill: none;
      }

      .cls-1, .cls-2, .cls-3, .cls-4, .cls-5, .cls-6 {
        stroke-width: 0px;
      }

      .cls-2, .cls-7 {
        fill: #f2f6ff;
      }

      .cls-3 {
        fill: url(#linear-gradient);
      }

      .cls-8 {
        letter-spacing: -.08em;
      }

      .cls-7 {
        font-family: MyriadPro-Regular, 'Myriad Pro';
        font-size: 20.3px;
      }

      .cls-9 {
        letter-spacing: 0em;
      }

      .cls-4 {
        fill-rule: evenodd;
      }

      .cls-4, .cls-5 {
        fill: #fff;
      }

      .cls-6 {
        fill: #0a1e3f;
      }
    </style>
    <linearGradient id="linear-gradient" x1="0" y1="149.03" x2="215.67" y2="149.03" gradientUnits="userSpaceOnUse">
      <stop offset=".02" stop-color="#0a1e3f"/>
      <stop offset="1" stop-color="#14325e"/>
    </linearGradient>
  </defs>
  <g id="Credits">
    <g id="Passport">
      <rect class="cls-3" y="4.59" width="215.67" height="288.89" rx="14.8" ry="14.8"/>
      <g>
        <g>
          <rect class="cls-1" x="181.05" y="277" width="13.04" height="14.59"/>
          <rect class="cls-5" x="182.01" y="283.36" width="2.42" height="1.46"/>
          <rect class="cls-5" x="186.35" y="283.36" width="2.42" height="1.46"/>
          <rect class="cls-5" x="190.68" y="283.36" width="2.42" height="1.46"/>
        </g>
        <g>
          <rect class="cls-1" x="168.01" y="277" width="13.04" height="14.59"/>
          <rect class="cls-5" x="168.97" y="283.36" width="2.42" height="1.46"/>
          <rect class="cls-5" x="173.31" y="283.36" width="2.42" height="1.46"/>
          <rect class="cls-5" x="177.64" y="283.36" width="2.42" height="1.46"/>
        </g>
        <g>
          <rect class="cls-1" x="154.97" y="277" width="13.04" height="14.59"/>
          <rect class="cls-5" x="155.94" y="283.36" width="2.42" height="1.46"/>
          <rect class="cls-5" x="160.28" y="283.36" width="2.42" height="1.46"/>
          <rect class="cls-5" x="164.6" y="283.36" width="2.42" height="1.46"/>
        </g>
        <g>
          <rect class="cls-1" x="141.93" y="277" width="13.04" height="14.59"/>
          <rect class="cls-5" x="142.9" y="283.36" width="2.42" height="1.46"/>
          <rect class="cls-5" x="147.24" y="283.36" width="2.42" height="1.46"/>
          <rect class="cls-5" x="151.56" y="283.36" width="2.42" height="1.46"/>
        </g>
        <g>
          <rect class="cls-1" x="128.9" y="277" width="13.04" height="14.59"/>
          <rect class="cls-5" x="129.86" y="283.36" width="2.42" height="1.46"/>
          <rect class="cls-5" x="134.2" y="283.36" width="2.42" height="1.46"/>
          <rect class="cls-5" x="138.53" y="283.36" width="2.42" height="1.46"/>
        </g>
        <g>
          <rect class="cls-1" x="115.86" y="277" width="13.04" height="14.59"/>
          <rect class="cls-5" x="116.82" y="283.36" width="2.42" height="1.46"/>
          <rect class="cls-5" x="121.16" y="283.36" width="2.42" height="1.46"/>
          <rect class="cls-5" x="125.49" y="283.36" width="2.42" height="1.46"/>
        </g>
        <g>
          <rect class="cls-1" x="102.82" y="277" width="13.04" height="14.59"/>
          <rect class="cls-5" x="103.79" y="283.36" width="2.42" height="1.46"/>
          <rect class="cls-5" x="108.13" y="283.36" width="2.42" height="1.46"/>
          <rect class="cls-5" x="112.45" y="283.36" width="2.42" height="1.46"/>
        </g>
        <g>
          <rect class="cls-1" x="89.79" y="277" width="13.04" height="14.59"/>
          <rect class="cls-5" x="90.75" y="283.36" width="2.42" height="1.46"/>
          <rect class="cls-5" x="95.09" y="283.36" width="2.42" height="1.46"/>
          <rect class="cls-5" x="99.42" y="283.36" width="2.42" height="1.46"/>
        </g>
        <g>
          <rect class="cls-1" x="76.75" y="277" width="13.04" height="14.59"/>
          <rect class="cls-5" x="77.71" y="283.36" width="2.42" height="1.46"/>
          <rect class="cls-5" x="82.05" y="283.36" width="2.42" height="1.46"/>
          <rect class="cls-5" x="86.38" y="283.36" width="2.42" height="1.46"/>
        </g>
        <g>
          <rect class="cls-1" x="63.71" y="277" width="13.04" height="14.59"/>
          <rect class="cls-5" x="64.68" y="283.36" width="2.42" height="1.46"/>
          <rect class="cls-5" x="69.02" y="283.36" width="2.42" height="1.46"/>
          <rect class="cls-5" x="73.34" y="283.36" width="2.42" height="1.46"/>
        </g>
        <g>
          <rect class="cls-1" x="50.68" y="277" width="13.04" height="14.59"/>
          <rect class="cls-5" x="51.64" y="283.36" width="2.42" height="1.46"/>
          <rect class="cls-5" x="55.98" y="283.36" width="2.42" height="1.46"/>
          <rect class="cls-5" x="60.3" y="283.36" width="2.42" height="1.46"/>
        </g>
        <g>
          <rect class="cls-1" x="37.64" y="277" width="13.04" height="14.59"/>
          <rect class="cls-5" x="38.6" y="283.36" width="2.42" height="1.46"/>
          <rect class="cls-5" x="42.94" y="283.36" width="2.42" height="1.46"/>
          <rect class="cls-5" x="47.27" y="283.36" width="2.42" height="1.46"/>
        </g>
        <g>
          <rect class="cls-1" x="24.6" y="277" width="13.04" height="14.59"/>
          <rect class="cls-5" x="25.56" y="283.36" width="2.42" height="1.46"/>
          <rect class="cls-5" x="29.9" y="283.36" width="2.42" height="1.46"/>
          <rect class="cls-5" x="34.23" y="283.36" width="2.42" height="1.46"/>
        </g>
        <g>
          <path class="cls-1" d="M24.6,277h-1.63c-.26-.04-.5-.01-.75-.05-.24-.05-.49-.05-.72-.14l-.35-.09c-.11-.05-.22-.09-.34-.13-.92-.32-1.72-.94-2.38-1.67l-11.04,9.54c2.21,2.53,5.01,4.56,8.17,5.75l1.19.43c.4.12.81.22,1.22.33.81.23,1.65.34,2.48.46.83.12,1.68.12,2.5.16h1.63v-14.59Z"/>
          <path class="cls-4" d="M15.13,282.37l.83-1.2-.9-.68-.83-.76-1.03,1.03.93.85c.33.26.67.51,1,.76Z"/>
          <path class="cls-4" d="M19.19,284.28l.4-1.4c-.72-.21-1.43-.47-2.09-.81l-.65,1.31c.75.38,1.54.67,2.34.91Z"/>
          <path class="cls-4" d="M23.61,284.82v-1.46c-.41,0-.81,0-1.17-.03-.37-.02-.75-.02-1.12-.09l-.19,1.45c.41.08.83.08,1.25.11.42.03.83.03,1.23.03Z"/>
        </g>
        <g>
          <path class="cls-1" d="M18.44,274.92c-.67-.73-1.07-1.65-1.31-2.58-.06-.23-.07-.48-.12-.72,0-.12,0-.25-.01-.37l-.02-.19s0-.24,0-.36v-3.26H2.38v3.26c0,.16,0,.22,0,.46l.03.63.07,1.26c.11.83.21,1.67.41,2.49.76,3.28,2.29,6.41,4.51,8.93l11.04-9.54Z"/>
          <rect class="cls-5" x="9.16" y="268.41" width="1.46" height="2.42"/>
          <path class="cls-4" d="M9.83,275.26l1.39-.45c-.21-.72-.39-1.45-.48-2.19l-1.45.19c.1.83.3,1.65.54,2.45Z"/>
          <path class="cls-4" d="M11.89,279.23l1.17-.87c-.24-.29-.44-.6-.63-.93-.2-.32-.39-.64-.54-.98l-1.31.64c.17.38.38.75.6,1.1.21.36.44.71.7,1.04Z"/>
        </g>
        <g>
          <rect class="cls-1" x="2.38" y="254.4" width="14.59" height="13.04"/>
          <rect class="cls-5" x="9.16" y="255.37" width="1.46" height="2.42"/>
          <rect class="cls-5" x="9.16" y="259.71" width="1.46" height="2.42"/>
          <rect class="cls-5" x="9.16" y="264.03" width="1.46" height="2.42"/>
        </g>
        <g>
          <rect class="cls-1" x="2.38" y="241.37" width="14.59" height="13.04"/>
          <rect class="cls-5" x="9.16" y="242.33" width="1.46" height="2.42"/>
          <rect class="cls-5" x="9.16" y="246.67" width="1.46" height="2.42"/>
          <rect class="cls-5" x="9.16" y="251" width="1.46" height="2.42"/>
        </g>
        <g>
          <rect class="cls-1" x="2.38" y="228.33" width="14.59" height="13.04"/>
          <rect class="cls-5" x="9.16" y="229.29" width="1.46" height="2.42"/>
          <rect class="cls-5" x="9.16" y="233.63" width="1.46" height="2.42"/>
          <rect class="cls-5" x="9.16" y="237.96" width="1.46" height="2.42"/>
        </g>
        <g>
          <rect class="cls-1" x="2.38" y="215.29" width="14.59" height="13.04"/>
          <rect class="cls-5" x="9.16" y="216.26" width="1.46" height="2.42"/>
          <rect class="cls-5" x="9.16" y="220.6" width="1.46" height="2.42"/>
          <rect class="cls-5" x="9.16" y="224.92" width="1.46" height="2.42"/>
        </g>
        <g>
          <rect class="cls-1" x="2.38" y="202.26" width="14.59" height="13.04"/>
          <rect class="cls-5" x="9.16" y="203.22" width="1.46" height="2.42"/>
          <rect class="cls-5" x="9.16" y="207.56" width="1.46" height="2.42"/>
          <rect class="cls-5" x="9.16" y="211.89" width="1.46" height="2.42"/>
        </g>
        <g>
          <rect class="cls-1" x="2.38" y="189.22" width="14.59" height="13.04"/>
          <rect class="cls-5" x="9.16" y="190.18" width="1.46" height="2.42"/>
          <rect class="cls-5" x="9.16" y="194.52" width="1.46" height="2.42"/>
          <rect class="cls-5" x="9.16" y="198.85" width="1.46" height="2.42"/>
        </g>
        <g>
          <rect class="cls-1" x="2.38" y="176.18" width="14.59" height="13.04"/>
          <rect class="cls-5" x="9.16" y="177.15" width="1.46" height="2.42"/>
          <rect class="cls-5" x="9.16" y="181.49" width="1.46" height="2.42"/>
          <rect class="cls-5" x="9.16" y="185.81" width="1.46" height="2.42"/>
        </g>
        <g>
          <rect class="cls-1" x="2.38" y="163.15" width="14.59" height="13.04"/>
          <rect class="cls-5" x="9.16" y="164.11" width="1.46" height="2.42"/>
          <rect class="cls-5" x="9.16" y="168.45" width="1.46" height="2.42"/>
          <rect class="cls-5" x="9.16" y="172.77" width="1.46" height="2.42"/>
        </g>
        <g>
          <rect class="cls-1" x="2.38" y="150.11" width="14.59" height="13.04"/>
          <rect class="cls-5" x="9.16" y="151.07" width="1.46" height="2.42"/>
          <rect class="cls-5" x="9.16" y="155.41" width="1.46" height="2.42"/>
          <rect class="cls-5" x="9.16" y="159.74" width="1.46" height="2.42"/>
        </g>
        <g>
          <rect class="cls-1" x="2.38" y="137.07" width="14.59" height="13.04"/>
          <rect class="cls-5" x="9.16" y="138.03" width="1.46" height="2.42"/>
          <rect class="cls-5" x="9.16" y="142.37" width="1.46" height="2.42"/>
          <rect class="cls-5" x="9.16" y="146.7" width="1.46" height="2.42"/>
        </g>
        <g>
          <rect class="cls-1" x="2.38" y="124.03" width="14.59" height="13.04"/>
          <rect class="cls-5" x="9.16" y="125" width="1.46" height="2.42"/>
          <rect class="cls-5" x="9.16" y="129.34" width="1.46" height="2.42"/>
          <rect class="cls-5" x="9.16" y="133.66" width="1.46" height="2.42"/>
        </g>
        <g>
          <rect class="cls-1" x="2.38" y="111" width="14.59" height="13.04"/>
          <rect class="cls-5" x="9.16" y="111.96" width="1.46" height="2.42"/>
          <rect class="cls-5" x="9.16" y="116.3" width="1.46" height="2.42"/>
          <rect class="cls-5" x="9.16" y="120.63" width="1.46" height="2.42"/>
        </g>
        <g>
          <rect class="cls-1" x="2.38" y="97.96" width="14.59" height="13.04"/>
          <rect class="cls-5" x="9.16" y="98.92" width="1.46" height="2.42"/>
          <rect class="cls-5" x="9.16" y="103.26" width="1.46" height="2.42"/>
          <rect class="cls-5" x="9.16" y="107.59" width="1.46" height="2.42"/>
        </g>
        <g>
          <rect class="cls-1" x="2.38" y="84.92" width="14.59" height="13.04"/>
          <rect class="cls-5" x="9.16" y="85.89" width="1.46" height="2.42"/>
          <rect class="cls-5" x="9.16" y="90.23" width="1.46" height="2.42"/>
          <rect class="cls-5" x="9.16" y="94.55" width="1.46" height="2.42"/>
        </g>
        <g>
          <rect class="cls-1" x="2.38" y="71.89" width="14.59" height="13.04"/>
          <rect class="cls-5" x="9.16" y="72.85" width="1.46" height="2.42"/>
          <rect class="cls-5" x="9.16" y="77.19" width="1.46" height="2.42"/>
          <rect class="cls-5" x="9.16" y="81.52" width="1.46" height="2.42"/>
        </g>
        <g>
          <rect class="cls-1" x="2.38" y="58.85" width="14.59" height="13.04"/>
          <rect class="cls-5" x="9.16" y="59.81" width="1.46" height="2.42"/>
          <rect class="cls-5" x="9.16" y="64.15" width="1.46" height="2.42"/>
          <rect class="cls-5" x="9.16" y="68.48" width="1.46" height="2.42"/>
        </g>
        <g>
          <rect class="cls-1" x="2.38" y="45.81" width="14.59" height="13.04"/>
          <rect class="cls-5" x="9.16" y="46.77" width="1.46" height="2.42"/>
          <rect class="cls-5" x="9.16" y="51.12" width="1.46" height="2.42"/>
          <rect class="cls-5" x="9.16" y="55.44" width="1.46" height="2.42"/>
        </g>
        <g>
          <rect class="cls-1" x="2.38" y="32.77" width="14.59" height="13.04"/>
          <rect class="cls-5" x="9.16" y="33.74" width="1.46" height="2.42"/>
          <rect class="cls-5" x="9.16" y="38.08" width="1.46" height="2.42"/>
          <rect class="cls-5" x="9.16" y="42.4" width="1.46" height="2.42"/>
        </g>
        <g>
          <path class="cls-1" d="M16.97,32.77v-4.89c0-.12,0-.32,0-.36l.02-.19c0-.12.01-.25.01-.37.1-.98.45-1.9.97-2.73l-12.12-8.12c-1.86,2.8-3.04,6.08-3.37,9.43l-.07,1.26-.03.63v.45s0,1.63,0,1.63v3.26h14.59Z"/>
          <path class="cls-4" d="M9.94,23.04l1.38.48c.24-.71.56-1.39.92-2.04l-1.27-.72c-.41.73-.77,1.49-1.03,2.29Z"/>
          <polygon class="cls-4" points="9.17 27.46 10.63 27.47 10.68 26.34 10.85 25.23 9.41 24.96 9.23 26.2 9.17 27.46"/>
          <rect class="cls-5" x="9.16" y="29.37" width="1.46" height="2.42"/>
        </g>
        <g>
          <path class="cls-1" d="M17.98,24.24c.56-.81,1.31-1.49,2.16-1.96.87-.44,1.81-.69,2.82-.7V6.98c-3.35.01-6.73.85-9.71,2.43-2.97,1.6-5.52,3.92-7.4,6.71l12.12,8.12Z"/>
          <path class="cls-4" d="M19.49,14.22l.37,1.41c.36-.1.72-.19,1.1-.23.37-.05.74-.13,1.12-.13l-.1-1.46c-.42,0-.83.09-1.25.15-.42.05-.82.15-1.23.26Z"/>
          <path class="cls-4" d="M15.38,16.03l.8,1.22c.32-.19.64-.4.96-.58l1.01-.49-.57-1.34-1.13.54c-.37.2-.72.43-1.08.65Z"/>
          <path class="cls-4" d="M12.1,19.07l1.15.9c.46-.59.97-1.14,1.54-1.63l-.97-1.09c-.63.55-1.2,1.17-1.72,1.83Z"/>
        </g>
        <g>
          <rect class="cls-1" x="22.96" y="6.98" width="13.04" height="14.59"/>
          <rect class="cls-5" x="32.61" y="13.76" width="2.42" height="1.46"/>
          <rect class="cls-5" x="28.27" y="13.76" width="2.42" height="1.46"/>
          <rect class="cls-5" x="23.95" y="13.76" width="2.42" height="1.46"/>
        </g>
        <g>
          <rect class="cls-1" x="36" y="6.98" width="13.04" height="14.59"/>
          <rect class="cls-5" x="45.65" y="13.76" width="2.42" height="1.46"/>
          <rect class="cls-5" x="41.31" y="13.76" width="2.42" height="1.46"/>
          <rect class="cls-5" x="36.99" y="13.76" width="2.42" height="1.46"/>
        </g>
        <g>
          <rect class="cls-1" x="49.03" y="6.98" width="13.04" height="14.59"/>
          <rect class="cls-5" x="58.69" y="13.76" width="2.42" height="1.46"/>
          <rect class="cls-5" x="54.35" y="13.76" width="2.42" height="1.46"/>
          <rect class="cls-5" x="50.02" y="13.76" width="2.42" height="1.46"/>
        </g>
        <g>
          <rect class="cls-1" x="62.07" y="6.98" width="13.04" height="14.59"/>
          <rect class="cls-5" x="71.73" y="13.76" width="2.42" height="1.46"/>
          <rect class="cls-5" x="67.39" y="13.76" width="2.42" height="1.46"/>
          <rect class="cls-5" x="63.06" y="13.76" width="2.42" height="1.46"/>
        </g>
        <g>
          <rect class="cls-1" x="75.11" y="6.98" width="13.04" height="14.59"/>
          <rect class="cls-5" x="84.76" y="13.76" width="2.42" height="1.46"/>
          <rect class="cls-5" x="80.42" y="13.76" width="2.42" height="1.46"/>
          <rect class="cls-5" x="76.1" y="13.76" width="2.42" height="1.46"/>
        </g>
        <g>
          <rect class="cls-1" x="88.15" y="6.98" width="13.04" height="14.59"/>
          <rect class="cls-5" x="97.8" y="13.76" width="2.42" height="1.46"/>
          <rect class="cls-5" x="93.46" y="13.76" width="2.42" height="1.46"/>
          <rect class="cls-5" x="89.13" y="13.76" width="2.42" height="1.46"/>
        </g>
        <g>
          <rect class="cls-1" x="101.18" y="6.98" width="13.04" height="14.59"/>
          <rect class="cls-5" x="110.84" y="13.76" width="2.42" height="1.46"/>
          <rect class="cls-5" x="106.5" y="13.76" width="2.42" height="1.46"/>
          <rect class="cls-5" x="102.17" y="13.76" width="2.42" height="1.46"/>
        </g>
        <g>
          <rect class="cls-1" x="114.22" y="6.98" width="13.04" height="14.59"/>
          <rect class="cls-5" x="123.87" y="13.76" width="2.42" height="1.46"/>
          <rect class="cls-5" x="119.53" y="13.76" width="2.42" height="1.46"/>
          <rect class="cls-5" x="115.21" y="13.76" width="2.42" height="1.46"/>
        </g>
        <g>
          <rect class="cls-1" x="127.26" y="6.98" width="13.04" height="14.59"/>
          <rect class="cls-5" x="136.91" y="13.76" width="2.42" height="1.46"/>
          <rect class="cls-5" x="132.57" y="13.76" width="2.42" height="1.46"/>
          <rect class="cls-5" x="128.25" y="13.76" width="2.42" height="1.46"/>
        </g>
        <g>
          <rect class="cls-1" x="140.29" y="6.98" width="13.04" height="14.59"/>
          <rect class="cls-5" x="149.95" y="13.76" width="2.42" height="1.46"/>
          <rect class="cls-5" x="145.61" y="13.76" width="2.42" height="1.46"/>
          <rect class="cls-5" x="141.28" y="13.76" width="2.42" height="1.46"/>
        </g>
        <g>
          <rect class="cls-1" x="153.33" y="6.98" width="13.04" height="14.59"/>
          <rect class="cls-5" x="162.99" y="13.76" width="2.42" height="1.46"/>
          <rect class="cls-5" x="158.65" y="13.76" width="2.42" height="1.46"/>
          <rect class="cls-5" x="154.32" y="13.76" width="2.42" height="1.46"/>
        </g>
        <g>
          <rect class="cls-1" x="166.37" y="6.98" width="13.04" height="14.59"/>
          <rect class="cls-5" x="176.02" y="13.76" width="2.42" height="1.46"/>
          <rect class="cls-5" x="171.68" y="13.76" width="2.42" height="1.46"/>
          <rect class="cls-5" x="167.36" y="13.76" width="2.42" height="1.46"/>
        </g>
        <g>
          <rect class="cls-1" x="179.41" y="6.98" width="13.04" height="14.59"/>
          <rect class="cls-5" x="189.06" y="13.76" width="2.42" height="1.46"/>
          <rect class="cls-5" x="184.72" y="13.76" width="2.42" height="1.46"/>
          <rect class="cls-5" x="180.39" y="13.76" width="2.42" height="1.46"/>
        </g>
        <g>
          <path class="cls-1" d="M192.44,21.57h1.63c.26.04.5.01.75.05.24.05.49.05.72.14l.35.09c.11.05.22.09.34.13.92.32,1.72.94,2.38,1.67l11.04-9.54c-2.21-2.53-5.01-4.56-8.17-5.75l-1.19-.43c-.4-.12-.81-.22-1.22-.33-.81-.23-1.65-.34-2.48-.46-.83-.11-1.68-.12-2.5-.16h-1.63v14.59Z"/>
          <path class="cls-4" d="M201.91,16.2l-.83,1.2.9.68.83.76,1.03-1.03-.93-.85c-.33-.26-.67-.51-1-.76Z"/>
          <path class="cls-4" d="M197.85,14.29l-.4,1.4c.72.21,1.43.47,2.09.81l.65-1.31c-.75-.38-1.54-.67-2.34-.91Z"/>
          <path class="cls-4" d="M193.43,13.76v1.46c.41,0,.81,0,1.17.03.37.02.75.02,1.12.09l.19-1.45c-.41-.08-.83-.08-1.25-.11-.42-.03-.83-.03-1.23-.03Z"/>
        </g>
        <g>
          <path class="cls-1" d="M198.61,23.65c.67.73,1.07,1.65,1.31,2.58.06.23.07.48.12.72,0,.12,0,.25.01.37l.02.19s0,.24,0,.36v3.26h14.59v-3.26c0-.16,0-.22,0-.46l-.03-.63-.07-1.26c-.11-.83-.21-1.67-.41-2.49-.76-3.28-2.29-6.41-4.51-8.93l-11.04,9.54Z"/>
          <rect class="cls-5" x="206.42" y="27.75" width="1.46" height="2.42"/>
          <path class="cls-4" d="M207.21,23.32l-1.39.45c.21.72.39,1.45.48,2.19l1.45-.19c-.1-.83-.3-1.65-.54-2.45Z"/>
          <path class="cls-4" d="M205.15,19.35l-1.17.87c.24.29.44.6.63.93.2.32.39.64.54.98l1.31-.64c-.17-.38-.38-.75-.6-1.1-.21-.36-.44-.71-.7-1.04Z"/>
        </g>
        <g>
          <rect class="cls-1" x="200.07" y="31.13" width="14.59" height="13.04"/>
          <rect class="cls-5" x="206.42" y="40.79" width="1.46" height="2.42"/>
          <rect class="cls-5" x="206.42" y="36.45" width="1.46" height="2.42"/>
          <rect class="cls-5" x="206.42" y="32.12" width="1.46" height="2.42"/>
        </g>
        <g>
          <rect class="cls-1" x="200.07" y="44.17" width="14.59" height="13.04"/>
          <rect class="cls-5" x="206.42" y="53.83" width="1.46" height="2.42"/>
          <rect class="cls-5" x="206.42" y="49.49" width="1.46" height="2.42"/>
          <rect class="cls-5" x="206.42" y="45.16" width="1.46" height="2.42"/>
        </g>
        <g>
          <rect class="cls-1" x="200.07" y="57.21" width="14.59" height="13.04"/>
          <rect class="cls-5" x="206.42" y="66.86" width="1.46" height="2.42"/>
          <rect class="cls-5" x="206.42" y="62.52" width="1.46" height="2.42"/>
          <rect class="cls-5" x="206.42" y="58.2" width="1.46" height="2.42"/>
        </g>
        <g>
          <rect class="cls-1" x="200.07" y="70.25" width="14.59" height="13.04"/>
          <rect class="cls-5" x="206.42" y="79.9" width="1.46" height="2.42"/>
          <rect class="cls-5" x="206.42" y="75.56" width="1.46" height="2.42"/>
          <rect class="cls-5" x="206.42" y="71.23" width="1.46" height="2.42"/>
        </g>
        <g>
          <rect class="cls-1" x="200.07" y="83.28" width="14.59" height="13.04"/>
          <rect class="cls-5" x="206.42" y="92.94" width="1.46" height="2.42"/>
          <rect class="cls-5" x="206.42" y="88.6" width="1.46" height="2.42"/>
          <rect class="cls-5" x="206.42" y="84.27" width="1.46" height="2.42"/>
        </g>
        <g>
          <rect class="cls-1" x="200.07" y="96.32" width="14.59" height="13.04"/>
          <rect class="cls-5" x="206.42" y="105.97" width="1.46" height="2.42"/>
          <rect class="cls-5" x="206.42" y="101.63" width="1.46" height="2.42"/>
          <rect class="cls-5" x="206.42" y="97.31" width="1.46" height="2.42"/>
        </g>
        <g>
          <rect class="cls-1" x="200.07" y="109.36" width="14.59" height="13.04"/>
          <rect class="cls-5" x="206.42" y="119.01" width="1.46" height="2.42"/>
          <rect class="cls-5" x="206.42" y="114.67" width="1.46" height="2.42"/>
          <rect class="cls-5" x="206.42" y="110.34" width="1.46" height="2.42"/>
        </g>
        <g>
          <rect class="cls-1" x="200.07" y="122.39" width="14.59" height="13.04"/>
          <rect class="cls-5" x="206.42" y="132.05" width="1.46" height="2.42"/>
          <rect class="cls-5" x="206.42" y="127.71" width="1.46" height="2.42"/>
          <rect class="cls-5" x="206.42" y="123.38" width="1.46" height="2.42"/>
        </g>
        <g>
          <rect class="cls-1" x="200.07" y="135.43" width="14.59" height="13.04"/>
          <rect class="cls-5" x="206.42" y="145.09" width="1.46" height="2.42"/>
          <rect class="cls-5" x="206.42" y="140.74" width="1.46" height="2.42"/>
          <rect class="cls-5" x="206.42" y="136.42" width="1.46" height="2.42"/>
        </g>
        <g>
          <rect class="cls-1" x="200.07" y="148.47" width="14.59" height="13.04"/>
          <rect class="cls-5" x="206.42" y="158.12" width="1.46" height="2.42"/>
          <rect class="cls-5" x="206.42" y="153.78" width="1.46" height="2.42"/>
          <rect class="cls-5" x="206.42" y="149.46" width="1.46" height="2.42"/>
        </g>
        <g>
          <rect class="cls-1" x="200.07" y="161.5" width="14.59" height="13.04"/>
          <rect class="cls-5" x="206.42" y="171.16" width="1.46" height="2.42"/>
          <rect class="cls-5" x="206.42" y="166.82" width="1.46" height="2.42"/>
          <rect class="cls-5" x="206.42" y="162.49" width="1.46" height="2.42"/>
        </g>
        <g>
          <rect class="cls-1" x="200.07" y="174.54" width="14.59" height="13.04"/>
          <rect class="cls-5" x="206.42" y="184.2" width="1.46" height="2.42"/>
          <rect class="cls-5" x="206.42" y="179.86" width="1.46" height="2.42"/>
          <rect class="cls-5" x="206.42" y="175.53" width="1.46" height="2.42"/>
        </g>
        <g>
          <rect class="cls-1" x="200.07" y="187.58" width="14.59" height="13.04"/>
          <rect class="cls-5" x="206.42" y="197.23" width="1.46" height="2.42"/>
          <rect class="cls-5" x="206.42" y="192.89" width="1.46" height="2.42"/>
          <rect class="cls-5" x="206.42" y="188.57" width="1.46" height="2.42"/>
        </g>
        <g>
          <rect class="cls-1" x="200.07" y="200.62" width="14.59" height="13.04"/>
          <rect class="cls-5" x="206.42" y="210.27" width="1.46" height="2.42"/>
          <rect class="cls-5" x="206.42" y="205.93" width="1.46" height="2.42"/>
          <rect class="cls-5" x="206.42" y="201.6" width="1.46" height="2.42"/>
        </g>
        <g>
          <rect class="cls-1" x="200.07" y="213.65" width="14.59" height="13.04"/>
          <rect class="cls-5" x="206.42" y="223.31" width="1.46" height="2.42"/>
          <rect class="cls-5" x="206.42" y="218.97" width="1.46" height="2.42"/>
          <rect class="cls-5" x="206.42" y="214.64" width="1.46" height="2.42"/>
        </g>
        <g>
          <rect class="cls-1" x="200.07" y="226.69" width="14.59" height="13.04"/>
          <rect class="cls-5" x="206.42" y="236.34" width="1.46" height="2.42"/>
          <rect class="cls-5" x="206.42" y="232" width="1.46" height="2.42"/>
          <rect class="cls-5" x="206.42" y="227.68" width="1.46" height="2.42"/>
        </g>
        <g>
          <rect class="cls-1" x="200.07" y="239.73" width="14.59" height="13.04"/>
          <rect class="cls-5" x="206.42" y="249.38" width="1.46" height="2.42"/>
          <rect class="cls-5" x="206.42" y="245.04" width="1.46" height="2.42"/>
          <rect class="cls-5" x="206.42" y="240.72" width="1.46" height="2.42"/>
        </g>
        <g>
          <rect class="cls-1" x="200.07" y="252.76" width="14.59" height="13.04"/>
          <rect class="cls-5" x="206.42" y="262.42" width="1.46" height="2.42"/>
          <rect class="cls-5" x="206.42" y="258.08" width="1.46" height="2.42"/>
          <rect class="cls-5" x="206.42" y="253.75" width="1.46" height="2.42"/>
        </g>
        <g>
          <path class="cls-1" d="M200.07,265.8v4.89c0,.12,0,.32,0,.36l-.02.19c0,.12-.01.25-.01.37-.1.98-.45,1.9-.97,2.73l12.12,8.12c1.86-2.8,3.04-6.08,3.37-9.43l.07-1.26.03-.63v-.45s0-1.63,0-1.63v-3.26h-14.59Z"/>
          <path class="cls-4" d="M207.11,275.54l-1.38-.48c-.24.71-.56,1.39-.92,2.04l1.27.72c.41-.73.77-1.49,1.03-2.29Z"/>
          <polygon class="cls-4" points="207.88 271.12 206.42 271.11 206.36 272.23 206.2 273.34 207.63 273.62 207.81 272.37 207.88 271.12"/>
          <rect class="cls-5" x="206.42" y="266.79" width="1.46" height="2.42"/>
        </g>
        <g>
          <path class="cls-1" d="M199.06,274.34c-.56.81-1.31,1.49-2.16,1.96-.87.44-1.81.69-2.82.71v14.59c3.35-.01,6.73-.85,9.71-2.43,2.97-1.6,5.52-3.92,7.4-6.71l-12.12-8.12Z"/>
          <path class="cls-4" d="M197.56,284.36l-.37-1.41c-.36.1-.72.19-1.1.23-.37.05-.74.13-1.11.13l.1,1.46c.42,0,.83-.09,1.25-.15.42-.05.82-.15,1.23-.26Z"/>
          <path class="cls-4" d="M201.66,282.54l-.8-1.22c-.32.19-.64.4-.96.58l-1.01.49.57,1.34,1.13-.54c.37-.2.72-.43,1.08-.65Z"/>
          <path class="cls-4" d="M204.95,279.51l-1.15-.9c-.46.59-.97,1.14-1.54,1.63l.97,1.09c.63-.55,1.2-1.17,1.72-1.83Z"/>
        </g>
      </g>
      <g id="Globe">
        <path class="cls-2" d="M161.62,139.48c-.28,23.97-15.21,45.92-37.95,54.08-22.56,8.09-48.3,1.09-63.67-17.28-15.56-18.59-17.57-45.84-5.02-66.55s37.33-31.48,60.97-26.51c26.54,5.59,45.37,29.34,45.68,56.26.03,2.42,3.79,2.43,3.76,0-.29-25.49-16.07-48.56-40.09-57.47-24.08-8.94-52.08-1.3-68.37,18.52-16.3,19.84-18.53,48.59-5.2,70.61,13.16,21.73,38.95,33.16,63.89,28.5,28.78-5.38,49.43-31.17,49.77-60.15.03-2.42-3.73-2.42-3.76,0Z"/>
        <path class="cls-2" d="M116.69,83.69c14.89,35.96,13.41,74.76,0,110.9-.84,2.27,2.79,3.25,3.63,1,13.61-36.68,15.11-76.41,0-112.9-.91-2.21-4.55-1.24-3.63,1h0Z"/>
        <path class="cls-2" d="M87.88,82.69c-15.11,36.49-13.61,76.22,0,112.9.84,2.25,4.47,1.28,3.63-1-13.41-36.14-14.89-74.94,0-110.9.93-2.23-2.71-3.21-3.63-1h0Z"/>
        <path class="cls-2" d="M52.86,111.86h102.92c2.42,0,2.42-3.76,0-3.76H52.86c-2.42,0-2.42,3.76,0,3.76h0Z"/>
        <path class="cls-2" d="M53.21,170.86h102.58c2.42,0,2.42-3.76,0-3.76H53.21c-2.42,0-2.42,3.76,0,3.76h0Z"/>
        <path class="cls-2" d="M44.8,141.36h118.7c2.42,0,2.42-3.76,0-3.76H44.8c-2.42,0-2.42,3.76,0,3.76h0Z"/>
      </g>
      <text class="cls-7" transform="translate(60.04 234.26)"><tspan class="cls-8" x="0" y="0">P</tspan><tspan x="9.09" y="0">ASSPO</tspan><tspan class="cls-9" x="66.32" y="0">R</tspan><tspan x="77.43" y="0">T</tspan></text>
      <rect class="cls-6" x="174.85" width="24.84" height="298.06" rx="5.93" ry="5.93"/>
      <rect class="cls-5" x="39.56" y="37.62" width="128.49" height="21.5" rx="9.18" ry="9.18"/>
    </g>
  </g>
</svg>