<?xml version="1.0" encoding="UTF-8"?>
<svg id="Layer_2" data-name="Layer 2" xmlns="http://www.w3.org/2000/svg" viewBox="0 0 436.13 141.64">
  <defs>
    <style>
      .cls-1 {
        letter-spacing: .1em;
      }

      .cls-2 {
        fill: none;
      }

      .cls-2, .cls-3, .cls-4, .cls-5, .cls-6, .cls-7 {
        stroke-width: 0px;
      }

      .cls-8 {
        letter-spacing: -.02em;
      }

      .cls-9 {
        letter-spacing: .04em;
      }

      .cls-10 {
        letter-spacing: -.01em;
      }

      .cls-11 {
        letter-spacing: -.02em;
      }

      .cls-12 {
        letter-spacing: 0em;
      }

      .cls-13 {
        letter-spacing: -.02em;
      }

      .cls-14 {
        font-size: 10.94px;
      }

      .cls-14, .cls-15 {
        font-family: AvenirNext-Bold, 'Avenir Next';
        font-weight: 700;
      }

      .cls-14, .cls-7 {
        fill: #0239a1;
      }

      .cls-16 {
        letter-spacing: -.04em;
      }

      .cls-3 {
        fill: #2252ad;
      }

      .cls-17 {
        letter-spacing: -.01em;
      }

      .cls-18 {
        letter-spacing: .08em;
      }

      .cls-4 {
        fill: #86b6ee;
      }

      .cls-19 {
        letter-spacing: 0em;
      }

      .cls-5 {
        fill: #fff;
      }

      .cls-15 {
        fill: #000;
        font-size: 8.21px;
      }

      .cls-6 {
        fill: #231f20;
      }
    </style>
  </defs>
  <g id="Title">
    <g>
      <g>
        <rect class="cls-5" width="415.24" height="141.64" rx="11.02" ry="11.02"/>
        <path class="cls-4" d="M0,35.41V11.02C0,4.93,4.93,0,11.02,0h393.19c6.09,0,11.02,4.93,11.02,11.02v24.39"/>
      </g>
      <text class="cls-15" transform="translate(24.43 57.74)"><tspan x="0" y="0">h</tspan><tspan class="cls-11" x="5.06" y="0">t</tspan><tspan x="7.92" y="0">tps://ww</tspan><tspan class="cls-16" x="44.08" y="0">w</tspan><tspan x="50.93" y="0">.aversan.com/10-fun-facts-about-the-787</tspan><tspan x="0" y="9.85">-boeing-d</tspan><tspan class="cls-8" x="39.13" y="9.85">r</tspan><tspan class="cls-12" x="42.23" y="9.85">e</tspan><tspan x="47.07" y="9.85">amliner/</tspan></text>
      <text class="cls-15" transform="translate(24.43 86.85)"><tspan x="0" y="0">h</tspan><tspan class="cls-11" x="5.06" y="0">t</tspan><tspan x="7.92" y="0">tps://ww</tspan><tspan class="cls-16" x="44.08" y="0">w</tspan><tspan x="50.93" y="0">.iba.ae</tspan><tspan class="cls-13" x="77.87" y="0">r</tspan><tspan x="80.98" y="0">o/insight/avi</tspan><tspan class="cls-19" x="132.01" y="0">a</tspan><tspan x="136.57" y="0">tion-carbon-</tspan><tspan x="0" y="9.85">emissions-case-study-q</tspan><tspan class="cls-19" x="92.18" y="9.85">a</tspan><tspan x="96.74" y="9.85">ta</tspan><tspan class="cls-17" x="104.44" y="9.85">r</tspan><tspan x="107.6" y="9.85">-airways/</tspan></text>
      <text class="cls-15" transform="translate(24.43 118.48)"><tspan x="0" y="0">h</tspan><tspan class="cls-11" x="5.06" y="0">t</tspan><tspan x="7.92" y="0">tps://ww</tspan><tspan class="cls-16" x="44.08" y="0">w</tspan><tspan x="50.93" y="0">.boeing.com/</tspan><tspan class="cls-10" x="104.53" y="0">C</tspan><tspan x="110.15" y="0">omme</tspan><tspan class="cls-8" x="135.39" y="0">r</tspan><tspan x="138.5" y="0">cial/787by-design#tabs</tspan><tspan x="0" y="9.85">-ae1ad6d783-item-</tspan><tspan class="cls-12" x="77.48" y="9.85">e</tspan><tspan x="82.32" y="9.85">ac4dcb363-tab</tspan></text>
      <g id="Globe">
        <g>
          <path class="cls-7" d="M388.65,83.21c-.35,13.84-11.27,25.32-25.35,25.35-13.79.03-25.39-11.56-25.35-25.35.03-13.82,11.51-25.35,25.35-25.35s25,11.54,25.35,25.35c.06,2.2,3.48,2.21,3.42,0-.3-11.81-7.22-22.51-18.4-26.83s-24.67-.99-32.47,8.4c-16.87,20.32,1.41,51.41,27.33,46.7,13.72-2.49,23.18-14.59,23.53-28.28.06-2.2-3.36-2.2-3.42,0Z"/>
          <path class="cls-7" d="M368.19,58c6.65,16.43,6.03,33.61,0,50.12-.76,2.07,2.55,2.96,3.3.91,6.21-17.01,6.85-35.01,0-51.93-.82-2.01-4.12-1.13-3.3.91h0Z"/>
          <path class="cls-7" d="M355.05,57.09c-6.85,16.92-6.21,34.93,0,51.93.75,2.05,4.06,1.16,3.3-.91-6.03-16.5-6.65-33.69,0-50.12.83-2.04-2.48-2.93-3.3-.91h0Z"/>
          <path class="cls-7" d="M339.91,71.47h46.93c2.2,0,2.2-3.42,0-3.42h-46.93c-2.2,0-2.2,3.42,0,3.42h0Z"/>
          <path class="cls-7" d="M340.07,98.38h46.77c2.2,0,2.2-3.42,0-3.42h-46.77c-2.2,0-2.2,3.42,0,3.42h0Z"/>
          <path class="cls-7" d="M336.23,84.92h54.13c2.2,0,2.2-3.42,0-3.42h-54.13c-2.2,0-2.2,3.42,0,3.42h0Z"/>
        </g>
      </g>
      <g>
        <rect class="cls-6" x="293.34" y="35.73" width="14.76" height=".77"/>
        <rect class="cls-6" x="293.34" y="45.68" width="14.76" height=".77"/>
        <rect class="cls-6" x="293.34" y="47.48" width="14.76" height=".77"/>
        <rect class="cls-6" x="293.34" y="57.18" width="14.76" height=".77"/>
        <rect class="cls-6" x="293.34" y="65.38" width="14.76" height=".77"/>
        <rect class="cls-6" x="293.34" y="70.83" width="14.76" height=".77"/>
        <rect class="cls-6" x="293.34" y="75.42" width="14.76" height=".77"/>
        <rect class="cls-6" x="293.34" y="77.23" width="14.76" height="2.64"/>
        <rect class="cls-6" x="293.34" y="81.52" width="14.76" height="1.9"/>
        <rect class="cls-6" x="293.34" y="85.07" width="14.76" height=".95"/>
        <rect class="cls-6" x="293.34" y="38.21" width="14.76" height="1.98"/>
        <rect class="cls-6" x="293.34" y="41.91" width="14.76" height="2.47"/>
        <rect class="cls-6" x="293.34" y="49.29" width="14.76" height="2.47"/>
        <rect class="cls-6" x="293.34" y="68.04" width="14.76" height="1.86"/>
        <rect class="cls-6" x="293.34" y="58.94" width="14.76" height="3.63"/>
        <rect class="cls-6" x="293.34" y="52.79" width="14.76" height="3.61"/>
        <rect class="cls-6" x="293.34" y="87.67" width="14.76" height=".77"/>
        <rect class="cls-6" x="293.34" y="97.63" width="14.76" height=".77"/>
        <rect class="cls-6" x="293.34" y="99.43" width="14.76" height=".77"/>
        <rect class="cls-6" x="293.34" y="109.13" width="14.76" height=".77"/>
        <rect class="cls-6" x="293.34" y="117.33" width="14.76" height=".77"/>
        <rect class="cls-6" x="293.34" y="122.78" width="14.76" height=".77"/>
        <rect class="cls-6" x="293.34" y="127.37" width="14.76" height=".77"/>
        <rect class="cls-6" x="293.34" y="129.17" width="14.76" height="2.64"/>
        <rect class="cls-6" x="293.34" y="133.46" width="14.76" height="1.9"/>
        <rect class="cls-6" x="293.34" y="137.02" width="14.76" height=".95"/>
        <rect class="cls-6" x="293.34" y="139.62" width="14.76" height=".77"/>
        <rect class="cls-6" x="293.34" y="90.16" width="14.76" height="1.98"/>
        <rect class="cls-6" x="293.34" y="93.85" width="14.76" height="2.47"/>
        <rect class="cls-6" x="293.34" y="101.23" width="14.76" height="2.47"/>
        <rect class="cls-6" x="293.34" y="119.99" width="14.76" height="1.86"/>
        <rect class="cls-6" x="293.34" y="110.89" width="14.76" height="3.63"/>
        <rect class="cls-6" x="293.34" y="104.73" width="14.76" height="3.61"/>
      </g>
      <g>
        <path class="cls-7" d="M204.27,20.21c.06-.06.99-.07,1.05,0,.61.33.41,1.2,0,1.31-.3.11-1.6-.02-1.78-.06-.07-.05.66-1.19.73-1.25Z"/>
        <path class="cls-7" d="M204.22,14.27c.06.06.99.07,1.05,0,.61-.33.41-1.2,0-1.31-.3-.11-1.6.02-1.78.06-.07.05.66,1.19.73,1.25Z"/>
        <path class="cls-7" d="M205.39,18.29s-5.27,9.02-5.37,9.2c-.89,1.11-1.62,1.14-1.62,1.14,0,0,.49-.3.94-1.46.21-.52,1.74-4.23,1.97-6.06,0-.35-.02-2.2-.06-2.66l-.89-.16h5.03Z"/>
        <path class="cls-7" d="M205.34,16.18s-5.27-9.02-5.37-9.2c-.89-1.11-1.62-1.14-1.62-1.14,0,0,.49.3.94,1.46.21.52,1.74,4.23,1.97,6.06,0,.35-.02,2.2-.06,2.66l-.89.16h5.03Z"/>
        <path class="cls-7" d="M212.51,17.27c0,.26-.66.82-2.31,1.01-.19,0-13.14.05-13.63,0-.84-.06-1.9-.34-1.99-.33-.4.11-1.96,2.44-2.32,2.91-.06.04-.64.24-.8.2.62-1.67,1.06-3.33,1.07-3.46-.04-.04-.72-.2-1.03-.29-.06-.02-.06-.1,0-.12l1.08-.32s-.49-1.53-1.12-3.44c.13.02.62,0,.75.13.04.06,1.91,2.97,2.35,2.98.1.01,1.08-.2,1.81-.32.14-.02.29-.03.43-.03,1.7,0,13.06.06,13.35.06,1.48.1,2.35.78,2.35,1.04Z"/>
      </g>
      <text class="cls-14" transform="translate(289.35 22.2) scale(.91 1)"><tspan class="cls-1" x="0" y="0">B</tspan><tspan class="cls-18" x="8.37" y="0">O</tspan><tspan class="cls-1" x="18.58" y="0">ARDING </tspan><tspan class="cls-9" x="73.22" y="0">P</tspan><tspan class="cls-1" x="80.67" y="0">ASS</tspan></text>
      <g>
        <g>
          <rect class="cls-2" x="309.24" y="34.94" width="14" height="13.28"/>
          <rect class="cls-3" x="315.34" y="44.78" width="1.4" height="2.46"/>
          <rect class="cls-3" x="315.34" y="40.36" width="1.4" height="2.46"/>
          <rect class="cls-3" x="315.34" y="35.95" width="1.4" height="2.46"/>
        </g>
        <g>
          <rect class="cls-2" x="309.24" y="48.22" width="14" height="13.28"/>
          <rect class="cls-3" x="315.34" y="58.06" width="1.4" height="2.46"/>
          <rect class="cls-3" x="315.34" y="53.63" width="1.4" height="2.46"/>
          <rect class="cls-3" x="315.34" y="49.23" width="1.4" height="2.46"/>
        </g>
        <g>
          <rect class="cls-2" x="309.24" y="61.5" width="14" height="13.28"/>
          <rect class="cls-3" x="315.34" y="71.33" width="1.4" height="2.46"/>
          <rect class="cls-3" x="315.34" y="66.91" width="1.4" height="2.46"/>
          <rect class="cls-3" x="315.34" y="62.51" width="1.4" height="2.46"/>
        </g>
        <g>
          <rect class="cls-2" x="309.24" y="74.78" width="14" height="13.28"/>
          <rect class="cls-3" x="315.34" y="84.61" width="1.4" height="2.46"/>
          <rect class="cls-3" x="315.34" y="80.19" width="1.4" height="2.46"/>
          <rect class="cls-3" x="315.34" y="75.79" width="1.4" height="2.46"/>
        </g>
        <g>
          <rect class="cls-2" x="309.24" y="88.06" width="14" height="13.28"/>
          <rect class="cls-3" x="315.34" y="97.89" width="1.4" height="2.46"/>
          <rect class="cls-3" x="315.34" y="93.47" width="1.4" height="2.46"/>
          <rect class="cls-3" x="315.34" y="89.07" width="1.4" height="2.46"/>
        </g>
        <g>
          <rect class="cls-2" x="309.24" y="101.34" width="14" height="13.28"/>
          <rect class="cls-3" x="315.34" y="111.17" width="1.4" height="2.46"/>
          <rect class="cls-3" x="315.34" y="106.75" width="1.4" height="2.46"/>
          <rect class="cls-3" x="315.34" y="102.34" width="1.4" height="2.46"/>
        </g>
        <g>
          <rect class="cls-2" x="309.24" y="114.62" width="14" height="13.28"/>
          <rect class="cls-3" x="315.34" y="124.45" width="1.4" height="2.46"/>
          <rect class="cls-3" x="315.34" y="120.03" width="1.4" height="2.46"/>
          <rect class="cls-3" x="315.34" y="115.62" width="1.4" height="2.46"/>
        </g>
        <g>
          <rect class="cls-2" x="309.24" y="127.9" width="14" height="13.28"/>
          <rect class="cls-3" x="315.34" y="137.73" width="1.4" height="2.46"/>
          <rect class="cls-3" x="315.34" y="133.31" width="1.4" height="2.46"/>
          <rect class="cls-3" x="315.34" y="128.9" width="1.4" height="2.46"/>
        </g>
      </g>
      <g>
        <path class="cls-7" d="M27.59,22.71c-.51.83-1.65,1.5-2.53,1.5h-9.7c-.1,0-.13-.08-.07-.17l8.09-13.07c.06-.09.18-.17.28-.17h9.7c.88,0,1.19.67.68,1.5l-1.9,3.08c-.96,1.55-3.19,2.12-3.19,2.12,0,0,1.52.59.66,1.98l-2,3.23ZM25.92,18.94c.06-.09.02-.17-.07-.17h-3.11c-.1,0-.22.07-.28.17l-1.14,1.85c-.06.09-.02.17.08.17h3.11c.1,0,.22-.07.28-.17l1.14-1.85ZM28.83,14.23c.06-.09.02-.17-.07-.17h-3.11c-.1,0-.22.08-.28.17l-1.14,1.85c-.06.09-.02.17.07.17h3.11c.1,0,.22-.07.28-.17l1.14-1.85Z"/>
        <path class="cls-7" d="M42.67,22.71c-.51.83-1.65,1.5-2.53,1.5h-8.24c-.88,0-1.19-.67-.68-1.5l6.44-10.4c.51-.83,1.64-1.5,2.53-1.5h8.24c.89,0,1.19.67.68,1.5l-6.44,10.4ZM43.91,14.23c.06-.09.02-.17-.08-.17h-3.08c-.1,0-.23.07-.28.17l-4.05,6.55c-.06.09-.02.17.08.17h3.08c.1,0,.22-.07.28-.17l4.05-6.55Z"/>
        <path class="cls-7" d="M55.63,14.24l-1.15,1.86h6.15c.1,0,.13.07.08.17l-1.68,2.71c-.06.09-.18.17-.28.17h-6.15l-1.02,1.64c-.06.09-.02.17.07.17h6.43c.1,0,.13.07.07.16l-1.81,2.93c-.06.09-.18.16-.28.16h-9.01c-.89,0-1.19-.67-.68-1.5l6.43-10.4c.51-.83,1.65-1.5,2.53-1.5h9.01c.1,0,.13.07.07.16l-1.82,2.94c-.06.09-.18.16-.28.16h-6.43c-.1,0-.22.07-.28.17Z"/>
        <path class="cls-7" d="M71.98,10.98l-8.09,13.06c-.06.09-.18.17-.28.17h-3.65c-.1,0-.13-.07-.07-.17l8.09-13.06c.06-.09.18-.17.28-.17h3.65c.1,0,.13.07.08.17Z"/>
        <path class="cls-7" d="M88.25,10.98l-8.09,13.07c-.06.09-.18.17-.28.17h-3.65c-.07,0-.1-.03-.1-.08t0,0l-.58-6.03c0-.07-.14-.04-.19.05l-3.65,5.9c-.06.09-.18.17-.28.17h-3.65c-.1,0-.13-.07-.08-.17l8.09-13.07c.05-.07.14-.14.22-.16,0,0,.06,0,.06,0h3.65c.05,0,.09.02.1.06,0,0,.15,2.75.45,6.28,0,.07.14.04.19-.04l3.79-6.12c.06-.09.18-.17.28-.17h3.65c.1,0,.13.07.08.17Z"/>
        <path class="cls-7" d="M103.53,10.98l-1.81,2.92c-.06.09-.18.17-.28.17h-7.18c-.1,0-.22.07-.28.17l-4.2,6.79c-.06.09-.02.17.08.17h3.08c.1,0,.22-.07.28-.17l2.79-4.51c.06-.09.18-.17.28-.17h3.65c.1,0,.13.07.08.17l-3.84,6.2c-.51.83-1.65,1.5-2.53,1.5h-8.24c-.88,0-1.19-.67-.68-1.5l6.44-10.4c.51-.83,1.64-1.5,2.53-1.5h9.75c.1,0,.13.07.08.17Z"/>
        <path class="cls-7" d="M124.67,10.98l-1.55,2.51s-.03.04-.05.06l-11.49,10.5c-.1.09-.26.17-.35.17h-3.65c-.1,0-.1-.08,0-.17l10.68-9.73c.12-.11.11-.23-.02-.23h-5.85c-.1,0-.13-.07-.07-.16l1.82-2.94c.06-.09.18-.16.28-.16h10.19c.1,0,.13.07.07.17Z"/>
        <path class="cls-7" d="M131.92,22.71c-.51.83-1.64,1.5-2.53,1.5h-8.16c-.89,0-1.19-.67-.68-1.49l2-3.23c.86-1.39,3.1-1.98,3.1-1.98,0,0-1.52-.58-.57-2.12l1.9-3.08c.51-.83,1.65-1.5,2.53-1.5h8.16c.89,0,1.19.67.68,1.49l-1.9,3.08c-.96,1.55-3.2,2.12-3.2,2.12,0,0,1.52.59.66,1.98l-1.99,3.23ZM130.15,19.11c.05-.08.02-.15-.06-.16h-3.02c-.1,0-.23.07-.28.17l-1.11,1.79c-.05.08-.02.15.06.16h3.02c.1,0,.22-.07.28-.17l1.11-1.79ZM133.24,14.12c.05-.08.02-.15-.06-.16h-3.02c-.1,0-.23.08-.28.17l-1.11,1.79c-.05.08-.02.15.06.16h3.02c.1,0,.22-.07.28-.17l1.11-1.79Z"/>
        <path class="cls-7" d="M152.83,10.98l-1.55,2.51s-.03.04-.05.06l-11.49,10.5c-.1.09-.26.17-.35.17h-3.65c-.1,0-.1-.08,0-.17l10.68-9.73c.12-.11.11-.23-.02-.23h-5.85c-.1,0-.13-.07-.07-.16l1.82-2.94c.06-.09.18-.16.28-.16h10.19c.1,0,.13.07.07.17Z"/>
      </g>
    </g>
  </g>
</svg>