<?xml version="1.0" encoding="UTF-8"?>
<svg id="Layer_2" data-name="Layer 2" xmlns="http://www.w3.org/2000/svg" viewBox="0 0 433.03 140.64">
  <defs>
    <style>
      .cls-1 {
        letter-spacing: .1em;
      }

      .cls-2 {
        letter-spacing: .1em;
      }

      .cls-3 {
        fill: none;
      }

      .cls-3, .cls-4, .cls-5, .cls-6, .cls-7, .cls-8, .cls-9 {
        stroke-width: 0px;
      }

      .cls-10 {
        letter-spacing: -.02em;
      }

      .cls-11 {
        letter-spacing: .04em;
      }

      .cls-12 {
        letter-spacing: -.02em;
      }

      .cls-13 {
        font-size: 8.15px;
      }

      .cls-13, .cls-4 {
        fill: #000;
      }

      .cls-13, .cls-14 {
        font-family: AvenirNext-Bold, 'Avenir Next';
        font-weight: 700;
      }

      .cls-15 {
        letter-spacing: 0em;
      }

      .cls-16 {
        letter-spacing: -.05em;
      }

      .cls-17 {
        letter-spacing: -.02em;
      }

      .cls-18 {
        letter-spacing: -.04em;
      }

      .cls-5 {
        fill: #2252ad;
      }

      .cls-19 {
        letter-spacing: -.02em;
      }

      .cls-14 {
        font-size: 10.87px;
      }

      .cls-14, .cls-9 {
        fill: #0239a1;
      }

      .cls-20 {
        letter-spacing: .08em;
      }

      .cls-6 {
        fill: #86b6ee;
      }

      .cls-7 {
        fill: #fff;
      }

      .cls-8 {
        fill: #231f20;
      }
    </style>
  </defs>
  <g id="Title">
    <g>
      <g>
        <rect class="cls-7" width="412.29" height="140.64" rx="10.94" ry="10.94"/>
        <path class="cls-6" d="M0,35.16V10.94C0,4.9,4.9,0,10.94,0h390.4c6.04,0,10.94,4.9,10.94,10.94v24.22"/>
      </g>
      <g id="Globe">
        <g>
          <path class="cls-9" d="M385.89,82.62c-.35,13.74-11.19,25.14-25.17,25.17-13.69.03-25.21-11.48-25.17-25.17s11.43-25.17,25.17-25.17,24.83,11.46,25.17,25.17c.06,2.18,3.45,2.19,3.4,0-.3-11.73-7.17-22.35-18.27-26.64-11.29-4.36-24.5-.98-32.24,8.34-16.75,20.18,1.4,51.04,27.14,46.37,13.62-2.47,23.02-14.49,23.36-28.08.06-2.19-3.34-2.18-3.4,0Z"/>
          <path class="cls-9" d="M365.58,57.59c6.6,16.32,5.98,33.37,0,49.76-.75,2.06,2.53,2.94,3.27.9,6.17-16.91,6.81-34.73,0-51.57-.81-2-4.09-1.13-3.27.9h0Z"/>
          <path class="cls-9" d="M352.53,56.69c-6.81,16.83-6.17,34.66,0,51.57.74,2.04,4.03,1.16,3.27-.9-5.98-16.39-6.6-33.44,0-49.76.82-2.03-2.46-2.91-3.27-.9h0Z"/>
          <path class="cls-9" d="M337.5,70.96h46.6c2.18,0,2.19-3.4,0-3.4h-46.6c-2.18,0-2.19,3.4,0,3.4h0Z"/>
          <path class="cls-9" d="M337.65,97.68h46.44c2.18,0,2.19-3.4,0-3.4h-46.44c-2.18,0-2.19,3.4,0,3.4h0Z"/>
          <path class="cls-9" d="M333.85,84.32h53.74c2.18,0,2.19-3.4,0-3.4h-53.74c-2.18,0-2.19,3.4,0,3.4h0Z"/>
        </g>
      </g>
      <g>
        <rect class="cls-8" x="291.26" y="35.47" width="14.66" height=".77"/>
        <rect class="cls-8" x="291.26" y="45.36" width="14.66" height=".77"/>
        <rect class="cls-8" x="291.26" y="47.15" width="14.66" height=".77"/>
        <rect class="cls-8" x="291.26" y="56.78" width="14.66" height=".77"/>
        <rect class="cls-8" x="291.26" y="64.92" width="14.66" height=".77"/>
        <rect class="cls-8" x="291.26" y="70.33" width="14.66" height=".77"/>
        <rect class="cls-8" x="291.26" y="74.89" width="14.66" height=".77"/>
        <rect class="cls-8" x="291.26" y="76.68" width="14.66" height="2.62"/>
        <rect class="cls-8" x="291.26" y="80.94" width="14.66" height="1.88"/>
        <rect class="cls-8" x="291.26" y="84.47" width="14.66" height=".94"/>
        <rect class="cls-8" x="291.26" y="37.94" width="14.66" height="1.96"/>
        <rect class="cls-8" x="291.26" y="41.61" width="14.66" height="2.45"/>
        <rect class="cls-8" x="291.26" y="48.94" width="14.66" height="2.45"/>
        <rect class="cls-8" x="291.26" y="67.56" width="14.66" height="1.85"/>
        <rect class="cls-8" x="291.26" y="58.53" width="14.66" height="3.61"/>
        <rect class="cls-8" x="291.26" y="52.41" width="14.66" height="3.58"/>
        <rect class="cls-8" x="291.26" y="87.05" width="14.66" height=".77"/>
        <rect class="cls-8" x="291.26" y="96.94" width="14.66" height=".77"/>
        <rect class="cls-8" x="291.26" y="98.73" width="14.66" height=".77"/>
        <rect class="cls-8" x="291.26" y="108.36" width="14.66" height=".77"/>
        <rect class="cls-8" x="291.26" y="116.5" width="14.66" height=".77"/>
        <rect class="cls-8" x="291.26" y="121.91" width="14.66" height=".77"/>
        <rect class="cls-8" x="291.26" y="126.47" width="14.66" height=".77"/>
        <rect class="cls-8" x="291.26" y="128.26" width="14.66" height="2.62"/>
        <rect class="cls-8" x="291.26" y="132.52" width="14.66" height="1.88"/>
        <rect class="cls-8" x="291.26" y="136.04" width="14.66" height=".94"/>
        <rect class="cls-8" x="291.26" y="138.63" width="14.66" height=".77"/>
        <rect class="cls-8" x="291.26" y="89.52" width="14.66" height="1.96"/>
        <rect class="cls-8" x="291.26" y="93.19" width="14.66" height="2.45"/>
        <rect class="cls-8" x="291.26" y="100.52" width="14.66" height="2.45"/>
        <rect class="cls-8" x="291.26" y="119.14" width="14.66" height="1.85"/>
        <rect class="cls-8" x="291.26" y="110.1" width="14.66" height="3.61"/>
        <rect class="cls-8" x="291.26" y="103.99" width="14.66" height="3.58"/>
      </g>
      <text class="cls-13" transform="translate(24.43 53.7)"><tspan x="0" y="0">h</tspan><tspan class="cls-12" x="5.03" y="0">t</tspan><tspan x="7.86" y="0">tps://ww</tspan><tspan class="cls-18" x="43.76" y="0">w</tspan><tspan x="50.57" y="0">.he</tspan><tspan class="cls-19" x="62.9" y="0">r</tspan><tspan x="65.99" y="0">aldnet.com/business/a-brief-timeline-</tspan><tspan x="0" y="9.78">of-the-boeing-787/</tspan></text>
      <text class="cls-13" transform="translate(24.75 84.15)"><tspan x="0" y="0">h</tspan><tspan class="cls-12" x="5.03" y="0">t</tspan><tspan x="7.86" y="0">tps://ww</tspan><tspan class="cls-18" x="43.76" y="0">w</tspan><tspan x="50.57" y="0">.ai</tspan><tspan class="cls-10" x="60.04" y="0">r</tspan><tspan x="63.12" y="0">canada.com/ca/en/aco/home/fly/onboa</tspan><tspan class="cls-17" x="221.32" y="0">r</tspan><tspan x="224.4" y="0">d/</tspan><tspan x="0" y="9.78">fleet/d</tspan><tspan class="cls-10" x="26.92" y="9.78">r</tspan><tspan class="cls-15" x="30" y="9.78">e</tspan><tspan x="34.81" y="9.78">amline</tspan><tspan class="cls-16" x="61.67" y="9.78">r</tspan><tspan x="64.5" y="9.78">.html#/</tspan></text>
      <g>
        <path class="cls-4" d="M27.94,113.13v-2.2c0-.11,0-.22-.02-.33-.02-.1-.05-.19-.09-.27-.05-.08-.11-.14-.18-.19-.08-.05-.17-.07-.29-.07-.23,0-.41.08-.54.25-.12.17-.19.37-.19.62v2.19h-1.34v-6.16h1.34v2.62h.02c.09-.16.24-.31.44-.44.2-.13.44-.19.73-.19s.51.05.7.15c.19.1.34.22.46.38.12.15.2.33.25.53s.08.4.08.6v2.51h-1.34Z"/>
        <path class="cls-4" d="M31.75,110.06v1.55c0,.19.04.33.11.43.07.1.21.14.4.14.06,0,.13,0,.21-.02.07-.01.13-.03.18-.05l.02.98c-.09.03-.21.06-.35.09-.14.02-.28.04-.42.04-.27,0-.5-.03-.68-.1-.19-.07-.33-.17-.44-.29-.11-.13-.19-.28-.24-.46s-.07-.38-.07-.59v-1.72h-.65v-.99h.64v-1.07h1.31v1.07h.95v.99h-.95Z"/>
        <path class="cls-4" d="M34.59,110.06v1.55c0,.19.04.33.11.43.07.1.21.14.4.14.06,0,.13,0,.21-.02.07-.01.13-.03.18-.05l.02.98c-.09.03-.21.06-.35.09-.14.02-.28.04-.42.04-.27,0-.5-.03-.68-.1-.19-.07-.33-.17-.44-.29-.11-.13-.19-.28-.24-.46s-.07-.38-.07-.59v-1.72h-.65v-.99h.64v-1.07h1.31v1.07h.95v.99h-.95Z"/>
        <path class="cls-4" d="M40.68,111.08c0,.28-.04.55-.13.82-.09.26-.21.49-.38.69-.17.2-.37.36-.61.48-.24.12-.51.18-.81.18-.25,0-.49-.05-.71-.15-.22-.1-.4-.24-.52-.41h-.02v2.4h-1.34v-6.01h1.27v.5h.02c.12-.16.3-.31.52-.43.22-.12.48-.18.78-.18s.56.06.8.17c.24.11.44.27.61.46.17.2.29.42.38.68.09.26.13.53.13.81ZM39.39,111.08c0-.13-.02-.26-.06-.38-.04-.12-.1-.23-.18-.33-.08-.09-.18-.17-.3-.23-.12-.06-.26-.09-.42-.09s-.29.03-.41.09c-.12.06-.22.14-.31.24-.08.1-.15.21-.2.33-.05.13-.07.25-.07.38s.02.26.07.38.11.24.2.33c.08.1.19.18.31.24.12.06.25.09.41.09s.3-.03.42-.09.22-.14.3-.24c.08-.1.14-.21.18-.34.04-.13.06-.26.06-.39Z"/>
        <path class="cls-4" d="M43.91,110.27c-.11-.1-.24-.19-.38-.26s-.3-.11-.46-.11c-.12,0-.24.02-.35.07-.11.05-.16.13-.16.25s.06.2.18.24c.12.05.31.1.57.16.15.03.31.08.46.14.15.06.29.14.42.24s.23.22.3.36c.08.14.11.31.11.51,0,.25-.05.47-.15.65-.1.18-.24.32-.4.43-.17.11-.35.19-.56.24s-.41.07-.62.07c-.33,0-.66-.05-.97-.16-.32-.11-.58-.26-.79-.47l.75-.79c.12.13.27.24.44.33s.36.13.55.13c.11,0,.22-.03.32-.08.11-.05.16-.14.16-.27s-.06-.22-.2-.28c-.13-.06-.33-.12-.61-.19-.14-.03-.28-.08-.42-.13-.14-.05-.27-.13-.38-.22-.11-.09-.2-.21-.27-.34-.07-.14-.11-.3-.11-.49,0-.24.05-.45.15-.62.1-.17.24-.31.4-.42.16-.11.34-.19.54-.24s.4-.08.59-.08c.3,0,.6.05.89.14.29.09.54.24.74.43l-.73.76Z"/>
        <path class="cls-4" d="M47,109.79c0,.11-.02.21-.06.3-.04.1-.1.18-.17.25s-.15.13-.25.17-.2.06-.3.06-.21-.02-.31-.06-.18-.09-.26-.16c-.07-.07-.13-.15-.18-.24s-.06-.19-.06-.3.02-.21.06-.31c.04-.09.1-.18.18-.25.07-.07.16-.13.26-.17.1-.04.2-.06.31-.06s.2.02.3.06c.1.04.18.09.25.16.07.07.13.15.17.24s.06.19.06.3ZM47,112.4c0,.11-.02.21-.06.31-.04.1-.1.18-.17.25-.07.07-.15.12-.25.16-.1.04-.2.06-.3.06s-.21-.02-.31-.06-.18-.09-.26-.16c-.07-.07-.13-.15-.18-.25-.04-.09-.06-.19-.06-.3s.02-.21.06-.31c.04-.1.1-.18.18-.25.07-.07.16-.13.26-.17s.2-.06.31-.06.2.02.3.06.18.09.25.16.13.15.17.24c.04.1.06.2.06.31Z"/>
        <path class="cls-4" d="M48.42,113.55l-.92-.3,2.52-6.33.92.32-2.52,6.32Z"/>
        <path class="cls-4" d="M51.8,113.55l-.92-.3,2.52-6.33.92.32-2.52,6.32Z"/>
        <path class="cls-4" d="M60,113.13h-1.34l-.8-2.53h-.02l-.78,2.53h-1.34l-1.4-4.06h1.44l.7,2.57h.02l.73-2.57h1.34l.75,2.57h.02l.71-2.57h1.39l-1.41,4.06Z"/>
        <path class="cls-4" d="M67.1,113.13h-1.34l-.8-2.53h-.02l-.78,2.53h-1.34l-1.4-4.06h1.44l.7,2.57h.02l.73-2.57h1.34l.75,2.57h.02l.71-2.57h1.39l-1.41,4.06Z"/>
        <path class="cls-4" d="M74.2,113.13h-1.34l-.8-2.53h-.02l-.78,2.53h-1.34l-1.4-4.06h1.44l.7,2.57h.02l.73-2.57h1.34l.75,2.57h.02l.71-2.57h1.39l-1.41,4.06Z"/>
        <path class="cls-4" d="M77.36,112.41c0,.23-.08.42-.24.57-.16.15-.35.23-.57.23-.11,0-.22-.02-.32-.06s-.19-.1-.26-.17c-.08-.07-.14-.15-.18-.25-.04-.09-.06-.2-.06-.31s.02-.21.06-.31.1-.18.18-.26c.08-.07.16-.13.26-.17.1-.04.21-.07.32-.07.22,0,.41.08.57.23.16.15.24.34.24.57Z"/>
        <path class="cls-4" d="M80.67,110.27c-.11-.1-.24-.19-.38-.26s-.3-.11-.46-.11c-.12,0-.24.02-.35.07-.11.05-.16.13-.16.25s.06.2.18.24c.12.05.31.1.57.16.15.03.31.08.46.14.15.06.29.14.42.24s.23.22.3.36c.08.14.11.31.11.51,0,.25-.05.47-.15.65-.1.18-.24.32-.4.43-.17.11-.35.19-.56.24s-.41.07-.62.07c-.33,0-.66-.05-.97-.16-.32-.11-.58-.26-.79-.47l.75-.79c.12.13.27.24.44.33s.36.13.55.13c.11,0,.22-.03.32-.08.11-.05.16-.14.16-.27s-.06-.22-.2-.28c-.13-.06-.33-.12-.61-.19-.14-.03-.28-.08-.42-.13-.14-.05-.27-.13-.38-.22-.11-.09-.2-.21-.27-.34-.07-.14-.11-.3-.11-.49,0-.24.05-.45.15-.62.1-.17.24-.31.4-.42.16-.11.34-.19.54-.24s.4-.08.59-.08c.3,0,.6.05.89.14.29.09.54.24.74.43l-.73.76Z"/>
        <path class="cls-4" d="M86.16,111.15v.16c0,.05,0,.11,0,.16h-2.94c.01.11.04.22.1.31.06.09.13.17.22.24.09.07.19.12.3.16s.23.06.35.06c.21,0,.39-.04.54-.12s.27-.18.36-.31l.93.59c-.19.28-.44.49-.75.64s-.67.22-1.09.22c-.3,0-.59-.05-.86-.14-.27-.09-.51-.23-.71-.42-.2-.18-.36-.41-.48-.67-.12-.27-.18-.57-.18-.91s.06-.63.17-.9c.11-.27.27-.5.46-.68.2-.19.43-.33.69-.44.27-.1.55-.15.86-.15s.57.05.82.15.46.25.64.44c.18.19.32.42.42.69s.15.58.15.93ZM84.93,110.63c0-.21-.07-.39-.2-.55-.13-.15-.33-.23-.6-.23-.13,0-.25.02-.36.06-.11.04-.2.1-.29.17-.08.07-.15.15-.2.25s-.08.19-.08.3h1.72Z"/>
        <path class="cls-4" d="M86.88,109.62c.24-.23.52-.4.84-.51s.64-.17.97-.17.63.04.87.13.43.21.57.39c.15.18.25.4.32.67.07.27.1.59.1.96v2.05h-1.22v-.43h-.02c-.1.17-.26.3-.47.39-.21.09-.44.14-.68.14-.16,0-.33-.02-.51-.07-.17-.04-.33-.11-.48-.21-.14-.1-.26-.23-.35-.39-.09-.16-.14-.36-.14-.6,0-.29.08-.53.24-.71.16-.18.37-.32.62-.42.25-.1.53-.16.84-.2.31-.03.61-.05.9-.05v-.06c0-.2-.07-.35-.21-.44-.14-.1-.32-.14-.52-.14-.19,0-.37.04-.55.12-.18.08-.33.18-.45.29l-.68-.72ZM89.33,111.36h-.17c-.15,0-.29,0-.44.02s-.28.04-.4.08-.21.09-.29.17c-.08.07-.11.17-.11.29,0,.08.02.14.05.2.04.05.08.1.13.13.05.03.12.06.19.07.07.01.14.02.2.02.27,0,.48-.07.62-.22s.22-.35.22-.61v-.14Z"/>
        <path class="cls-4" d="M92.92,110.06v1.55c0,.19.04.33.11.43.07.1.21.14.4.14.06,0,.13,0,.21-.02.07-.01.13-.03.18-.05l.02.98c-.09.03-.21.06-.35.09-.14.02-.28.04-.42.04-.27,0-.5-.03-.68-.1-.19-.07-.33-.17-.44-.29-.11-.13-.19-.28-.24-.46s-.07-.38-.07-.59v-1.72h-.65v-.99h.64v-1.07h1.31v1.07h.95v.99h-.95Z"/>
        <path class="cls-4" d="M95.76,110.06v1.55c0,.19.04.33.11.43.07.1.21.14.4.14.06,0,.13,0,.21-.02.07-.01.13-.03.18-.05l.02.98c-.09.03-.21.06-.35.09-.14.02-.28.04-.42.04-.27,0-.5-.03-.68-.1-.19-.07-.33-.17-.44-.29-.11-.13-.19-.28-.24-.46s-.07-.38-.07-.59v-1.72h-.65v-.99h.64v-1.07h1.31v1.07h.95v.99h-.95Z"/>
        <path class="cls-4" d="M97.35,113.13v-6.16h1.36v6.16h-1.36Z"/>
        <path class="cls-4" d="M103.79,111.15v.16c0,.05,0,.11,0,.16h-2.94c.01.11.04.22.1.31.06.09.13.17.22.24.09.07.19.12.3.16s.23.06.35.06c.21,0,.39-.04.54-.12s.27-.18.36-.31l.93.59c-.19.28-.44.49-.75.64s-.67.22-1.09.22c-.3,0-.59-.05-.86-.14-.27-.09-.51-.23-.71-.42-.2-.18-.36-.41-.48-.67-.12-.27-.18-.57-.18-.91s.06-.63.17-.9c.11-.27.27-.5.46-.68.2-.19.43-.33.69-.44.27-.1.55-.15.86-.15s.57.05.82.15.46.25.64.44c.18.19.32.42.42.69s.15.58.15.93ZM102.56,110.63c0-.21-.07-.39-.2-.55-.13-.15-.33-.23-.6-.23-.13,0-.25.02-.36.06-.11.04-.2.1-.29.17-.08.07-.15.15-.2.25s-.08.19-.08.3h1.72Z"/>
        <path class="cls-4" d="M106.07,110.06v1.55c0,.19.04.33.11.43.07.1.21.14.4.14.06,0,.13,0,.21-.02.07-.01.13-.03.18-.05l.02.98c-.09.03-.21.06-.35.09-.14.02-.28.04-.42.04-.27,0-.5-.03-.68-.1-.19-.07-.33-.17-.44-.29-.11-.13-.19-.28-.24-.46s-.07-.38-.07-.59v-1.72h-.65v-.99h.64v-1.07h1.31v1.07h.95v.99h-.95Z"/>
        <path class="cls-4" d="M109.11,107.77c0,.1-.02.2-.06.29-.04.09-.1.17-.16.23-.07.07-.15.12-.24.16-.09.04-.19.06-.3.06-.22,0-.4-.07-.55-.22-.15-.14-.22-.32-.22-.52,0-.1.02-.19.06-.28.04-.09.09-.17.16-.23.07-.07.15-.12.24-.16.09-.04.19-.06.3-.06.1,0,.2.02.3.06.1.04.18.09.24.15s.12.14.16.23c.04.09.06.19.06.29ZM107.67,113.13v-4.06h1.34v4.06h-1.34Z"/>
        <path class="cls-4" d="M115.25,113.13v-2.22c0-.11,0-.22-.02-.33-.02-.11-.05-.2-.09-.27-.04-.08-.1-.14-.18-.18-.07-.05-.17-.07-.29-.07s-.21.02-.3.07c-.08.05-.15.11-.21.2-.06.08-.1.18-.13.28-.03.11-.04.22-.04.33v2.19h-1.34v-2.31c0-.23-.05-.42-.14-.55s-.24-.2-.44-.2c-.21,0-.38.08-.49.25-.12.17-.18.37-.18.62v2.2h-1.34v-4.06h1.3v.56h.02c.05-.09.11-.17.18-.25.07-.08.16-.15.26-.22.1-.06.22-.11.35-.15.13-.04.27-.06.42-.06.29,0,.54.06.75.18.2.12.36.29.48.51.14-.21.31-.38.52-.51s.47-.19.77-.19c.28,0,.51.05.7.15.19.1.34.23.45.39.11.16.2.34.25.54.05.2.08.39.08.58v2.51h-1.34Z"/>
        <path class="cls-4" d="M121.62,111.15v.16c0,.05,0,.11,0,.16h-2.94c.01.11.04.22.1.31.06.09.13.17.22.24.09.07.19.12.3.16s.23.06.35.06c.21,0,.39-.04.54-.12s.27-.18.36-.31l.93.59c-.19.28-.44.49-.75.64s-.67.22-1.09.22c-.3,0-.59-.05-.86-.14-.27-.09-.51-.23-.71-.42-.2-.18-.36-.41-.48-.67-.12-.27-.18-.57-.18-.91s.06-.63.17-.9c.11-.27.27-.5.46-.68.2-.19.43-.33.69-.44.27-.1.55-.15.86-.15s.57.05.82.15.46.25.64.44c.18.19.32.42.42.69s.15.58.15.93ZM120.39,110.63c0-.21-.07-.39-.2-.55-.13-.15-.33-.23-.6-.23-.13,0-.25.02-.36.06-.11.04-.2.1-.29.17-.08.07-.15.15-.2.25s-.08.19-.08.3h1.72Z"/>
        <path class="cls-4" d="M124.84,110.27c-.11-.1-.24-.19-.38-.26s-.3-.11-.46-.11c-.12,0-.24.02-.35.07-.11.05-.16.13-.16.25s.06.2.18.24c.12.05.31.1.57.16.15.03.31.08.46.14.15.06.29.14.42.24s.23.22.3.36c.08.14.11.31.11.51,0,.25-.05.47-.15.65-.1.18-.24.32-.4.43-.17.11-.35.19-.56.24s-.41.07-.62.07c-.33,0-.66-.05-.97-.16-.32-.11-.58-.26-.79-.47l.75-.79c.12.13.27.24.44.33s.36.13.55.13c.11,0,.22-.03.32-.08.11-.05.16-.14.16-.27s-.06-.22-.2-.28c-.13-.06-.33-.12-.61-.19-.14-.03-.28-.08-.42-.13-.14-.05-.27-.13-.38-.22-.11-.09-.2-.21-.27-.34-.07-.14-.11-.3-.11-.49,0-.24.05-.45.15-.62.1-.17.24-.31.4-.42.16-.11.34-.19.54-.24s.4-.08.59-.08c.3,0,.6.05.89.14.29.09.54.24.74.43l-.73.76Z"/>
        <path class="cls-4" d="M127.82,112.41c0,.23-.08.42-.24.57-.16.15-.35.23-.57.23-.11,0-.22-.02-.32-.06s-.19-.1-.26-.17c-.08-.07-.14-.15-.18-.25-.04-.09-.06-.2-.06-.31s.02-.21.06-.31.1-.18.18-.26c.08-.07.16-.13.26-.17.1-.04.21-.07.32-.07.22,0,.41.08.57.23.16.15.24.34.24.57Z"/>
        <path class="cls-4" d="M131.55,110.38c-.08-.1-.18-.18-.31-.24s-.26-.09-.4-.09-.27.03-.38.09c-.11.06-.21.13-.29.23-.08.1-.15.21-.19.33-.05.12-.07.26-.07.4s.02.27.07.4.11.24.19.33c.08.09.18.17.3.22.12.05.25.08.4.08.14,0,.27-.03.4-.08s.24-.13.32-.22l.74.9c-.17.16-.39.29-.65.38-.27.09-.55.14-.85.14-.32,0-.62-.05-.9-.15s-.52-.24-.72-.43c-.21-.19-.37-.41-.48-.68-.12-.27-.18-.57-.18-.9s.06-.63.18-.9c.12-.27.28-.49.48-.68.2-.19.45-.33.72-.43s.57-.15.89-.15c.15,0,.29.01.44.04.14.03.28.06.42.11.13.05.25.1.37.17.11.07.21.14.29.22l-.77.9Z"/>
        <path class="cls-4" d="M137.15,111.08c0,.33-.06.63-.18.9-.12.27-.28.5-.49.68-.21.19-.45.33-.72.44-.27.1-.56.16-.87.16s-.59-.05-.87-.16-.51-.25-.72-.44c-.2-.19-.37-.42-.48-.68-.12-.27-.18-.57-.18-.9s.06-.63.18-.9c.12-.27.28-.49.48-.68s.44-.33.72-.42.56-.15.87-.15.6.05.87.15c.27.1.51.24.72.42s.37.41.49.68c.12.27.18.57.18.9ZM135.86,111.08c0-.13-.02-.26-.07-.38s-.11-.23-.19-.33c-.08-.09-.18-.17-.3-.23-.12-.06-.26-.09-.42-.09s-.3.03-.42.09c-.12.06-.22.14-.3.23-.08.1-.14.21-.18.33-.04.12-.06.25-.06.38s.02.26.06.38c.04.12.1.24.18.34s.18.18.3.24.26.09.42.09.3-.03.42-.09.22-.14.3-.24.14-.21.18-.34c.04-.12.06-.25.06-.38Z"/>
        <path class="cls-4" d="M143.18,113.13v-2.22c0-.11,0-.22-.02-.33-.02-.11-.05-.2-.09-.27-.04-.08-.1-.14-.18-.18-.07-.05-.17-.07-.29-.07s-.21.02-.3.07c-.08.05-.15.11-.21.2-.06.08-.1.18-.13.28-.03.11-.04.22-.04.33v2.19h-1.34v-2.31c0-.23-.05-.42-.14-.55s-.24-.2-.44-.2c-.21,0-.38.08-.49.25-.12.17-.18.37-.18.62v2.2h-1.34v-4.06h1.3v.56h.02c.05-.09.11-.17.18-.25.07-.08.16-.15.26-.22.1-.06.22-.11.35-.15.13-.04.27-.06.42-.06.29,0,.54.06.75.18.2.12.36.29.48.51.14-.21.31-.38.52-.51s.47-.19.77-.19c.28,0,.51.05.7.15.19.1.34.23.45.39.11.16.2.34.25.54.05.2.08.39.08.58v2.51h-1.34Z"/>
        <path class="cls-4" d="M145.87,113.55l-.92-.3,2.52-6.33.92.32-2.52,6.32Z"/>
        <path class="cls-4" d="M153.43,111.08c0,.28-.04.55-.13.82s-.21.49-.38.69-.37.36-.61.48c-.24.12-.51.18-.81.18-.27,0-.53-.06-.77-.17s-.43-.27-.56-.48h-.02v.53h-1.23v-6.16h1.34v2.53h.02c.11-.14.27-.26.48-.37.21-.11.46-.17.76-.17s.56.06.79.17c.24.11.44.27.6.46.17.2.29.42.38.68.09.26.13.53.13.81ZM152.14,111.08c0-.13-.02-.26-.06-.38s-.1-.23-.18-.33c-.08-.09-.18-.17-.3-.23-.12-.06-.26-.09-.42-.09s-.29.03-.41.09c-.12.06-.22.14-.31.24-.08.1-.15.21-.2.33-.05.13-.07.25-.07.38s.02.26.07.38c.05.12.11.24.2.33.08.1.19.18.31.24s.26.09.41.09.3-.03.42-.09.22-.14.3-.24c.08-.1.14-.21.18-.34s.06-.26.06-.39Z"/>
        <path class="cls-4" d="M156.95,113.13v-.56h-.02c-.05.09-.11.18-.19.26-.08.08-.17.15-.28.21-.11.06-.22.11-.35.15-.13.04-.26.06-.4.06-.27,0-.5-.05-.69-.15-.19-.1-.34-.22-.46-.38-.12-.16-.2-.33-.25-.53s-.08-.4-.08-.61v-2.51h1.34v2.2c0,.11,0,.22.02.33.02.1.05.2.09.28.05.08.11.15.18.19s.18.07.3.07c.23,0,.41-.09.53-.26s.18-.38.18-.61v-2.19h1.34v4.06h-1.29Z"/>
        <path class="cls-4" d="M161.67,110.27c-.11-.1-.24-.19-.38-.26s-.3-.11-.46-.11c-.12,0-.24.02-.35.07-.11.05-.16.13-.16.25s.06.2.18.24c.12.05.31.1.57.16.15.03.31.08.46.14.15.06.29.14.42.24s.23.22.3.36c.08.14.11.31.11.51,0,.25-.05.47-.15.65-.1.18-.24.32-.4.43-.17.11-.35.19-.56.24s-.41.07-.62.07c-.33,0-.66-.05-.97-.16-.32-.11-.58-.26-.79-.47l.75-.79c.12.13.27.24.44.33s.36.13.55.13c.11,0,.22-.03.32-.08.11-.05.16-.14.16-.27s-.06-.22-.2-.28c-.13-.06-.33-.12-.61-.19-.14-.03-.28-.08-.42-.13-.14-.05-.27-.13-.38-.22-.11-.09-.2-.21-.27-.34-.07-.14-.11-.3-.11-.49,0-.24.05-.45.15-.62.1-.17.24-.31.4-.42.16-.11.34-.19.54-.24s.4-.08.59-.08c.3,0,.6.05.89.14.29.09.54.24.74.43l-.73.76Z"/>
        <path class="cls-4" d="M164.58,107.77c0,.1-.02.2-.06.29-.04.09-.1.17-.16.23-.07.07-.15.12-.24.16-.09.04-.19.06-.3.06-.22,0-.4-.07-.55-.22-.15-.14-.22-.32-.22-.52,0-.1.02-.19.06-.28.04-.09.09-.17.16-.23.07-.07.15-.12.24-.16.09-.04.19-.06.3-.06.1,0,.2.02.3.06.1.04.18.09.24.15s.12.14.16.23c.04.09.06.19.06.29ZM163.15,113.13v-4.06h1.34v4.06h-1.34Z"/>
        <path class="cls-4" d="M168.21,113.13v-2.22c0-.11,0-.22-.03-.33-.02-.1-.05-.19-.09-.27-.04-.08-.1-.14-.18-.19s-.18-.07-.3-.07-.22.02-.31.07c-.09.05-.16.11-.22.19-.06.08-.1.17-.13.28-.03.11-.04.22-.04.33v2.2h-1.34v-4.06h1.3v.56h.02c.05-.09.11-.17.19-.26.08-.08.17-.16.28-.22s.22-.11.35-.15.26-.06.4-.06c.27,0,.5.05.69.15.19.1.34.22.46.38.12.15.2.33.25.53s.08.4.08.6v2.51h-1.34Z"/>
        <path class="cls-4" d="M174.59,111.15v.16c0,.05,0,.11,0,.16h-2.94c.01.11.04.22.1.31.06.09.13.17.22.24.09.07.19.12.3.16s.23.06.35.06c.21,0,.39-.04.54-.12s.27-.18.36-.31l.93.59c-.19.28-.44.49-.75.64s-.67.22-1.09.22c-.3,0-.59-.05-.86-.14-.27-.09-.51-.23-.71-.42-.2-.18-.36-.41-.48-.67-.12-.27-.18-.57-.18-.91s.06-.63.17-.9c.11-.27.27-.5.46-.68.2-.19.43-.33.69-.44.27-.1.55-.15.86-.15s.57.05.82.15.46.25.64.44c.18.19.32.42.42.69s.15.58.15.93ZM173.36,110.63c0-.21-.07-.39-.2-.55-.13-.15-.33-.23-.6-.23-.13,0-.25.02-.36.06-.11.04-.2.1-.29.17-.08.07-.15.15-.2.25s-.08.19-.08.3h1.72Z"/>
        <path class="cls-4" d="M177.81,110.27c-.11-.1-.24-.19-.38-.26s-.3-.11-.46-.11c-.12,0-.24.02-.35.07-.11.05-.16.13-.16.25s.06.2.18.24c.12.05.31.1.57.16.15.03.31.08.46.14.15.06.29.14.42.24s.23.22.3.36c.08.14.11.31.11.51,0,.25-.05.47-.15.65-.1.18-.24.32-.4.43-.17.11-.35.19-.56.24s-.41.07-.62.07c-.33,0-.66-.05-.97-.16-.32-.11-.58-.26-.79-.47l.75-.79c.12.13.27.24.44.33s.36.13.55.13c.11,0,.22-.03.32-.08.11-.05.16-.14.16-.27s-.06-.22-.2-.28c-.13-.06-.33-.12-.61-.19-.14-.03-.28-.08-.42-.13-.14-.05-.27-.13-.38-.22-.11-.09-.2-.21-.27-.34-.07-.14-.11-.3-.11-.49,0-.24.05-.45.15-.62.1-.17.24-.31.4-.42.16-.11.34-.19.54-.24s.4-.08.59-.08c.3,0,.6.05.89.14.29.09.54.24.74.43l-.73.76Z"/>
        <path class="cls-4" d="M181.65,110.27c-.11-.1-.24-.19-.38-.26s-.3-.11-.46-.11c-.12,0-.24.02-.35.07-.11.05-.16.13-.16.25s.06.2.18.24c.12.05.31.1.57.16.15.03.31.08.46.14.15.06.29.14.42.24s.23.22.3.36c.08.14.11.31.11.51,0,.25-.05.47-.15.65-.1.18-.24.32-.4.43-.17.11-.35.19-.56.24s-.41.07-.62.07c-.33,0-.66-.05-.97-.16-.32-.11-.58-.26-.79-.47l.75-.79c.12.13.27.24.44.33s.36.13.55.13c.11,0,.22-.03.32-.08.11-.05.16-.14.16-.27s-.06-.22-.2-.28c-.13-.06-.33-.12-.61-.19-.14-.03-.28-.08-.42-.13-.14-.05-.27-.13-.38-.22-.11-.09-.2-.21-.27-.34-.07-.14-.11-.3-.11-.49,0-.24.05-.45.15-.62.1-.17.24-.31.4-.42.16-.11.34-.19.54-.24s.4-.08.59-.08c.3,0,.6.05.89.14.29.09.54.24.74.43l-.73.76Z"/>
        <path class="cls-4" d="M183.45,113.55l-.92-.3,2.52-6.33.92.32-2.52,6.32Z"/>
        <path class="cls-4" d="M191.02,111.08c0,.28-.04.55-.13.82s-.21.49-.38.69-.37.36-.61.48c-.24.12-.51.18-.81.18-.27,0-.53-.06-.77-.17s-.43-.27-.56-.48h-.02v.53h-1.23v-6.16h1.34v2.53h.02c.11-.14.27-.26.48-.37.21-.11.46-.17.76-.17s.56.06.79.17c.24.11.44.27.6.46.17.2.29.42.38.68.09.26.13.53.13.81ZM189.73,111.08c0-.13-.02-.26-.06-.38s-.1-.23-.18-.33c-.08-.09-.18-.17-.3-.23-.12-.06-.26-.09-.42-.09s-.29.03-.41.09c-.12.06-.22.14-.31.24-.08.1-.15.21-.2.33-.05.13-.07.25-.07.38s.02.26.07.38c.05.12.11.24.2.33.08.1.19.18.31.24s.26.09.41.09.3-.03.42-.09.22-.14.3-.24c.08-.1.14-.21.18-.34s.06-.26.06-.39Z"/>
        <path class="cls-4" d="M196.17,111.08c0,.33-.06.63-.18.9-.12.27-.28.5-.49.68-.21.19-.45.33-.72.44-.27.1-.56.16-.87.16s-.59-.05-.87-.16-.51-.25-.72-.44c-.2-.19-.37-.42-.48-.68-.12-.27-.18-.57-.18-.9s.06-.63.18-.9c.12-.27.28-.49.48-.68s.44-.33.72-.42.56-.15.87-.15.6.05.87.15c.27.1.51.24.72.42s.37.41.49.68c.12.27.18.57.18.9ZM194.88,111.08c0-.13-.02-.26-.07-.38s-.11-.23-.19-.33c-.08-.09-.18-.17-.3-.23-.12-.06-.26-.09-.42-.09s-.3.03-.42.09c-.12.06-.22.14-.3.23-.08.1-.14.21-.18.33-.04.12-.06.25-.06.38s.02.26.06.38c.04.12.1.24.18.34s.18.18.3.24.26.09.42.09.3-.03.42-.09.22-.14.3-.24.14-.21.18-.34c.04-.12.06-.25.06-.38Z"/>
        <path class="cls-4" d="M201.04,111.15v.16c0,.05,0,.11,0,.16h-2.94c.01.11.04.22.1.31.06.09.13.17.22.24.09.07.19.12.3.16s.23.06.35.06c.21,0,.39-.04.54-.12s.27-.18.36-.31l.93.59c-.19.28-.44.49-.75.64s-.67.22-1.09.22c-.3,0-.59-.05-.86-.14-.27-.09-.51-.23-.71-.42-.2-.18-.36-.41-.48-.67-.12-.27-.18-.57-.18-.91s.06-.63.17-.9c.11-.27.27-.5.46-.68.2-.19.43-.33.69-.44.27-.1.55-.15.86-.15s.57.05.82.15.46.25.64.44c.18.19.32.42.42.69s.15.58.15.93ZM199.81,110.63c0-.21-.07-.39-.2-.55-.13-.15-.33-.23-.6-.23-.13,0-.25.02-.36.06-.11.04-.2.1-.29.17-.08.07-.15.15-.2.25s-.08.19-.08.3h1.72Z"/>
        <path class="cls-4" d="M203.32,107.77c0,.1-.02.2-.06.29-.04.09-.1.17-.16.23-.07.07-.15.12-.24.16-.09.04-.19.06-.3.06-.22,0-.4-.07-.55-.22-.15-.14-.22-.32-.22-.52,0-.1.02-.19.06-.28.04-.09.09-.17.16-.23.07-.07.15-.12.24-.16.09-.04.19-.06.3-.06.1,0,.2.02.3.06.1.04.18.09.24.15s.12.14.16.23c.04.09.06.19.06.29ZM201.89,113.13v-4.06h1.34v4.06h-1.34Z"/>
        <path class="cls-4" d="M206.95,113.13v-2.22c0-.11,0-.22-.03-.33-.02-.1-.05-.19-.09-.27-.04-.08-.1-.14-.18-.19s-.18-.07-.3-.07-.22.02-.31.07c-.09.05-.16.11-.22.19-.06.08-.1.17-.13.28-.03.11-.04.22-.04.33v2.2h-1.34v-4.06h1.3v.56h.02c.05-.09.11-.17.19-.26.08-.08.17-.16.28-.22s.22-.11.35-.15.26-.06.4-.06c.27,0,.5.05.69.15.19.1.34.22.46.38.12.15.2.33.25.53s.08.4.08.6v2.51h-1.34Z"/>
        <path class="cls-4" d="M213.61,112.74c0,.4-.06.74-.17,1.04-.11.29-.27.54-.48.73-.21.19-.46.34-.75.43-.3.09-.62.14-.98.14s-.73-.05-1.1-.16c-.38-.11-.71-.27-.98-.47l.67-.95c.2.17.41.3.65.39s.47.13.7.13c.39,0,.68-.1.87-.31.19-.21.28-.48.28-.82v-.24h-.02c-.12.16-.29.29-.5.39-.21.1-.45.15-.73.15-.31,0-.58-.06-.82-.17-.24-.11-.44-.26-.61-.45-.17-.19-.29-.41-.38-.66-.09-.25-.13-.52-.13-.8s.04-.55.13-.81c.09-.25.21-.48.38-.68.17-.2.37-.35.61-.47.24-.12.51-.18.82-.18.25,0,.5.05.73.16.23.1.42.26.56.48h.02v-.52h1.26v3.68ZM212.33,111.07c0-.14-.02-.27-.07-.39-.05-.12-.11-.23-.2-.33-.09-.09-.19-.17-.31-.22s-.26-.08-.41-.08-.29.03-.4.08-.22.13-.3.22c-.08.09-.14.2-.19.33s-.06.26-.06.4.02.27.06.39.11.23.19.33c.08.09.18.17.3.23.12.06.25.09.4.09s.29-.03.41-.09c.12-.06.23-.13.31-.22.08-.09.15-.2.2-.33.05-.12.07-.26.07-.4Z"/>
        <path class="cls-4" d="M214.44,111.52v-1.06h2.07v1.06h-2.07Z"/>
        <path class="cls-4" d="M217.26,109.62c.24-.23.52-.4.84-.51s.64-.17.97-.17.63.04.87.13.43.21.57.39c.15.18.25.4.32.67.07.27.1.59.1.96v2.05h-1.22v-.43h-.02c-.1.17-.26.3-.47.39-.21.09-.44.14-.68.14-.16,0-.33-.02-.51-.07-.17-.04-.33-.11-.48-.21-.14-.1-.26-.23-.35-.39-.09-.16-.14-.36-.14-.6,0-.29.08-.53.24-.71.16-.18.37-.32.62-.42.25-.1.53-.16.84-.2.31-.03.61-.05.9-.05v-.06c0-.2-.07-.35-.21-.44-.14-.1-.32-.14-.52-.14-.19,0-.37.04-.55.12-.18.08-.33.18-.45.29l-.68-.72ZM219.72,111.36h-.17c-.15,0-.29,0-.44.02s-.28.04-.4.08-.21.09-.29.17c-.08.07-.11.17-.11.29,0,.08.02.14.05.2.04.05.08.1.13.13.05.03.12.06.19.07.07.01.14.02.2.02.27,0,.48-.07.62-.22s.22-.35.22-.61v-.14Z"/>
        <path class="cls-4" d="M225.96,111.15v.16c0,.05,0,.11,0,.16h-2.94c.01.11.04.22.1.31.06.09.13.17.22.24.09.07.19.12.3.16s.23.06.35.06c.21,0,.39-.04.54-.12s.27-.18.36-.31l.93.59c-.19.28-.44.49-.75.64s-.67.22-1.09.22c-.3,0-.59-.05-.86-.14-.27-.09-.51-.23-.71-.42-.2-.18-.36-.41-.48-.67-.12-.27-.18-.57-.18-.91s.06-.63.17-.9c.11-.27.27-.5.46-.68.2-.19.43-.33.69-.44.27-.1.55-.15.86-.15s.57.05.82.15.46.25.64.44c.18.19.32.42.42.69s.15.58.15.93ZM224.73,110.63c0-.21-.07-.39-.2-.55-.13-.15-.33-.23-.6-.23-.13,0-.25.02-.36.06-.11.04-.2.1-.29.17-.08.07-.15.15-.2.25s-.08.19-.08.3h1.72Z"/>
        <path class="cls-4" d="M229.42,110.17c-.06-.02-.12-.03-.18-.03-.06,0-.11,0-.17,0-.18,0-.33.03-.45.1-.12.07-.22.14-.29.24-.07.09-.13.19-.16.3-.03.11-.05.2-.05.28v2.08h-1.34v-4.05h1.29v.59h.02c.1-.21.25-.38.44-.51.19-.13.41-.2.66-.2.05,0,.11,0,.16,0,.05,0,.09.01.13.02l-.06,1.18Z"/>
        <path class="cls-4" d="M234.17,111.08c0,.33-.06.63-.18.9-.12.27-.28.5-.49.68-.21.19-.45.33-.72.44-.27.1-.56.16-.87.16s-.59-.05-.87-.16-.51-.25-.72-.44c-.2-.19-.37-.42-.48-.68-.12-.27-.18-.57-.18-.9s.06-.63.18-.9c.12-.27.28-.49.48-.68s.44-.33.72-.42.56-.15.87-.15.6.05.87.15c.27.1.51.24.72.42s.37.41.49.68c.12.27.18.57.18.9ZM232.89,111.08c0-.13-.02-.26-.07-.38s-.11-.23-.19-.33c-.08-.09-.18-.17-.3-.23-.12-.06-.26-.09-.42-.09s-.3.03-.42.09c-.12.06-.22.14-.3.23-.08.1-.14.21-.18.33-.04.12-.06.25-.06.38s.02.26.06.38c.04.12.1.24.18.34s.18.18.3.24.26.09.42.09.3-.03.42-.09.22-.14.3-.24.14-.21.18-.34c.04-.12.06-.25.06-.38Z"/>
        <path class="cls-4" d="M237.41,110.27c-.11-.1-.24-.19-.38-.26s-.3-.11-.46-.11c-.12,0-.24.02-.35.07-.11.05-.16.13-.16.25s.06.2.18.24c.12.05.31.1.57.16.15.03.31.08.46.14.15.06.29.14.42.24s.23.22.3.36c.08.14.11.31.11.51,0,.25-.05.47-.15.65-.1.18-.24.32-.4.43-.17.11-.35.19-.56.24s-.41.07-.62.07c-.33,0-.66-.05-.97-.16-.32-.11-.58-.26-.79-.47l.75-.79c.12.13.27.24.44.33s.36.13.55.13c.11,0,.22-.03.32-.08.11-.05.16-.14.16-.27s-.06-.22-.2-.28c-.13-.06-.33-.12-.61-.19-.14-.03-.28-.08-.42-.13-.14-.05-.27-.13-.38-.22-.11-.09-.2-.21-.27-.34-.07-.14-.11-.3-.11-.49,0-.24.05-.45.15-.62.1-.17.24-.31.4-.42.16-.11.34-.19.54-.24s.4-.08.59-.08c.3,0,.6.05.89.14.29.09.54.24.74.43l-.73.76Z"/>
        <path class="cls-4" d="M243.38,111.08c0,.28-.04.55-.13.82-.09.26-.21.49-.38.69-.17.2-.37.36-.61.48-.24.12-.51.18-.81.18-.25,0-.49-.05-.71-.15-.22-.1-.4-.24-.52-.41h-.02v2.4h-1.34v-6.01h1.27v.5h.02c.12-.16.3-.31.52-.43.22-.12.48-.18.78-.18s.56.06.8.17c.24.11.44.27.61.46.17.2.29.42.38.68.09.26.13.53.13.81ZM242.09,111.08c0-.13-.02-.26-.06-.38-.04-.12-.1-.23-.18-.33-.08-.09-.18-.17-.3-.23-.12-.06-.26-.09-.42-.09s-.29.03-.41.09c-.12.06-.22.14-.31.24-.08.1-.15.21-.2.33-.05.13-.07.25-.07.38s.02.26.07.38.11.24.2.33c.08.1.19.18.31.24.12.06.25.09.41.09s.3-.03.42-.09.22-.14.3-.24c.08-.1.14-.21.18-.34.04-.13.06-.26.06-.39Z"/>
        <path class="cls-4" d="M244.17,109.62c.24-.23.52-.4.84-.51s.64-.17.97-.17.63.04.87.13.43.21.57.39c.15.18.25.4.32.67.07.27.1.59.1.96v2.05h-1.22v-.43h-.02c-.1.17-.26.3-.47.39-.21.09-.44.14-.68.14-.16,0-.33-.02-.51-.07-.17-.04-.33-.11-.48-.21-.14-.1-.26-.23-.35-.39-.09-.16-.14-.36-.14-.6,0-.29.08-.53.24-.71.16-.18.37-.32.62-.42.25-.1.53-.16.84-.2.31-.03.61-.05.9-.05v-.06c0-.2-.07-.35-.21-.44-.14-.1-.32-.14-.52-.14-.19,0-.37.04-.55.12-.18.08-.33.18-.45.29l-.68-.72ZM246.62,111.36h-.17c-.15,0-.29,0-.44.02s-.28.04-.4.08-.21.09-.29.17c-.08.07-.11.17-.11.29,0,.08.02.14.05.2.04.05.08.1.13.13.05.03.12.06.19.07.07.01.14.02.2.02.27,0,.48-.07.62-.22s.22-.35.22-.61v-.14Z"/>
        <path class="cls-4" d="M251.64,110.38c-.08-.1-.18-.18-.31-.24s-.26-.09-.4-.09-.27.03-.38.09c-.11.06-.21.13-.29.23-.08.1-.15.21-.19.33-.05.12-.07.26-.07.4s.02.27.07.4.11.24.19.33c.08.09.18.17.3.22.12.05.25.08.4.08.14,0,.27-.03.4-.08s.24-.13.32-.22l.74.9c-.17.16-.39.29-.65.38-.27.09-.55.14-.85.14-.32,0-.62-.05-.9-.15s-.52-.24-.72-.43c-.21-.19-.37-.41-.48-.68-.12-.27-.18-.57-.18-.9s.06-.63.18-.9c.12-.27.28-.49.48-.68.2-.19.45-.33.72-.43s.57-.15.89-.15c.15,0,.29.01.44.04.14.03.28.06.42.11.13.05.25.1.37.17.11.07.21.14.29.22l-.77.9Z"/>
        <path class="cls-4" d="M256.96,111.15v.16c0,.05,0,.11,0,.16h-2.94c.01.11.04.22.1.31.06.09.13.17.22.24.09.07.19.12.3.16s.23.06.35.06c.21,0,.39-.04.54-.12s.27-.18.36-.31l.93.59c-.19.28-.44.49-.75.64s-.67.22-1.09.22c-.3,0-.59-.05-.86-.14-.27-.09-.51-.23-.71-.42-.2-.18-.36-.41-.48-.67-.12-.27-.18-.57-.18-.91s.06-.63.17-.9c.11-.27.27-.5.46-.68.2-.19.43-.33.69-.44.27-.1.55-.15.86-.15s.57.05.82.15.46.25.64.44c.18.19.32.42.42.69s.15.58.15.93ZM255.73,110.63c0-.21-.07-.39-.2-.55-.13-.15-.33-.23-.6-.23-.13,0-.25.02-.36.06-.11.04-.2.1-.29.17-.08.07-.15.15-.2.25s-.08.19-.08.3h1.72Z"/>
        <path class="cls-4" d="M258.13,113.55l-.92-.3,2.52-6.33.92.32-2.52,6.32Z"/>
        <path class="cls-4" d="M265.7,111.08c0,.28-.04.55-.13.82s-.21.49-.38.69-.37.36-.61.48c-.24.12-.51.18-.81.18-.27,0-.53-.06-.77-.17s-.43-.27-.56-.48h-.02v.53h-1.23v-6.16h1.34v2.53h.02c.11-.14.27-.26.48-.37.21-.11.46-.17.76-.17s.56.06.79.17c.24.11.44.27.6.46.17.2.29.42.38.68.09.26.13.53.13.81ZM264.41,111.08c0-.13-.02-.26-.06-.38s-.1-.23-.18-.33c-.08-.09-.18-.17-.3-.23-.12-.06-.26-.09-.42-.09s-.29.03-.41.09c-.12.06-.22.14-.31.24-.08.1-.15.21-.2.33-.05.13-.07.25-.07.38s.02.26.07.38c.05.12.11.24.2.33.08.1.19.18.31.24s.26.09.41.09.3-.03.42-.09.22-.14.3-.24c.08-.1.14-.21.18-.34s.06-.26.06-.39Z"/>
        <path class="cls-4" d="M269.22,113.13v-.56h-.02c-.05.09-.11.18-.19.26-.08.08-.17.15-.28.21-.11.06-.22.11-.35.15-.13.04-.26.06-.4.06-.27,0-.5-.05-.69-.15-.19-.1-.34-.22-.46-.38-.12-.16-.2-.33-.25-.53s-.08-.4-.08-.61v-2.51h1.34v2.2c0,.11,0,.22.02.33.02.1.05.2.09.28.05.08.11.15.18.19s.18.07.3.07c.23,0,.41-.09.53-.26s.18-.38.18-.61v-2.19h1.34v4.06h-1.29Z"/>
        <path class="cls-4" d="M273,107.77c0,.1-.02.2-.06.29-.04.09-.1.17-.16.23-.07.07-.15.12-.24.16-.09.04-.19.06-.3.06-.22,0-.4-.07-.55-.22-.15-.14-.22-.32-.22-.52,0-.1.02-.19.06-.28.04-.09.09-.17.16-.23.07-.07.15-.12.24-.16.09-.04.19-.06.3-.06.1,0,.2.02.3.06.1.04.18.09.24.15s.12.14.16.23c.04.09.06.19.06.29ZM271.56,113.13v-4.06h1.34v4.06h-1.34Z"/>
        <path class="cls-4" d="M273.98,113.13v-6.16h1.36v6.16h-1.36Z"/>
        <path class="cls-4" d="M279.46,113.13v-.53h-.02c-.13.21-.32.37-.56.48s-.5.17-.77.17c-.3,0-.58-.06-.82-.18-.24-.12-.44-.28-.61-.48s-.29-.43-.38-.69-.13-.53-.13-.82.04-.55.13-.81c.09-.26.22-.48.38-.68.17-.2.37-.35.6-.46.24-.11.5-.17.79-.17s.55.06.76.17c.21.11.37.24.48.37h.02v-2.53h1.34v6.16h-1.23ZM279.41,111.09c0-.13-.02-.26-.07-.38-.05-.12-.11-.24-.2-.33-.08-.1-.19-.18-.31-.24-.12-.06-.26-.09-.41-.09s-.3.03-.42.09c-.12.06-.22.14-.3.23-.08.1-.14.21-.18.33-.04.12-.06.25-.06.38s.02.26.06.39c.04.13.1.24.18.34s.18.18.3.24.26.09.42.09.29-.03.41-.09.22-.14.31-.24c.08-.1.15-.21.2-.33.05-.12.07-.25.07-.38Z"/>
        <path class="cls-4" d="M281.52,111.52v-1.06h2.07v1.06h-2.07Z"/>
        <path class="cls-4" d="M26.72,117.55c0,.1-.02.2-.06.29-.04.09-.1.17-.16.23-.07.07-.15.12-.24.16-.09.04-.19.06-.3.06-.22,0-.4-.07-.55-.22-.15-.14-.22-.32-.22-.52,0-.1.02-.19.06-.28.04-.09.09-.17.16-.23.07-.07.15-.12.24-.16.09-.04.19-.06.3-.06.1,0,.2.02.3.06.1.04.18.09.24.15s.12.14.16.23c.04.09.06.19.06.29ZM25.29,122.91v-4.06h1.34v4.06h-1.34Z"/>
        <path class="cls-4" d="M30.35,122.91v-2.22c0-.11,0-.22-.03-.33-.02-.1-.05-.19-.09-.27-.04-.08-.1-.14-.18-.19s-.18-.07-.3-.07-.22.02-.31.07c-.09.05-.16.11-.22.19-.06.08-.1.17-.13.28-.03.11-.04.22-.04.33v2.2h-1.34v-4.06h1.3v.56h.02c.05-.09.11-.17.19-.26.08-.08.17-.16.28-.22s.22-.11.35-.15.26-.06.4-.06c.27,0,.5.05.69.15.19.1.34.22.46.38.12.15.2.33.25.53s.08.4.08.6v2.51h-1.34Z"/>
        <path class="cls-4" d="M37.01,122.52c0,.4-.06.74-.17,1.04-.11.29-.27.54-.48.73-.21.19-.46.34-.75.43-.3.09-.62.14-.98.14s-.73-.05-1.1-.16c-.38-.11-.71-.27-.98-.47l.67-.95c.2.17.41.3.65.39s.47.13.7.13c.39,0,.68-.1.87-.31.19-.21.28-.48.28-.82v-.24h-.02c-.12.16-.29.29-.5.39-.21.1-.45.15-.73.15-.31,0-.58-.06-.82-.17-.24-.11-.44-.26-.61-.45-.17-.19-.29-.41-.38-.66-.09-.25-.13-.52-.13-.8s.04-.55.13-.81c.09-.25.21-.48.38-.68.17-.2.37-.35.61-.47.24-.12.51-.18.82-.18.25,0,.5.05.73.16.23.1.42.26.56.48h.02v-.52h1.26v3.68ZM35.73,120.85c0-.14-.02-.27-.07-.39-.05-.12-.11-.23-.2-.33-.09-.09-.19-.17-.31-.22s-.26-.08-.41-.08-.29.03-.4.08-.22.13-.3.22c-.08.09-.14.2-.19.33s-.06.26-.06.4.02.27.06.39.11.23.19.33c.08.09.18.17.3.23.12.06.25.09.4.09s.29-.03.41-.09c.12-.06.23-.13.31-.22.08-.09.15-.2.2-.33.05-.12.07-.26.07-.4Z"/>
        <path class="cls-4" d="M37.84,121.3v-1.06h2.07v1.06h-2.07Z"/>
        <path class="cls-4" d="M42.17,119.84v1.55c0,.19.04.33.11.43.07.1.21.14.4.14.06,0,.13,0,.21-.02.07-.01.13-.03.18-.05l.02.98c-.09.03-.21.06-.35.09-.14.02-.28.04-.42.04-.27,0-.5-.03-.68-.1-.19-.07-.33-.17-.44-.29-.11-.13-.19-.28-.24-.46s-.07-.38-.07-.59v-1.72h-.65v-.99h.64v-1.07h1.31v1.07h.95v.99h-.95Z"/>
        <path class="cls-4" d="M46.43,122.91v-2.2c0-.11,0-.22-.02-.33-.02-.1-.05-.19-.09-.27-.05-.08-.11-.14-.18-.19-.08-.05-.17-.07-.29-.07-.23,0-.41.08-.54.25-.12.17-.19.37-.19.62v2.19h-1.34v-6.16h1.34v2.62h.02c.09-.16.24-.31.44-.44.2-.13.44-.19.73-.19s.51.05.7.15c.19.1.34.22.46.38.12.15.2.33.25.53s.08.4.08.6v2.51h-1.34Z"/>
        <path class="cls-4" d="M52.81,120.93v.16c0,.05,0,.11,0,.16h-2.94c.01.11.04.22.1.31.06.09.13.17.22.24.09.07.19.12.3.16s.23.06.35.06c.21,0,.39-.04.54-.12s.27-.18.36-.31l.93.59c-.19.28-.44.49-.75.64s-.67.22-1.09.22c-.3,0-.59-.05-.86-.14-.27-.09-.51-.23-.71-.42-.2-.18-.36-.41-.48-.67-.12-.27-.18-.57-.18-.91s.06-.63.17-.9c.11-.27.27-.5.46-.68.2-.19.43-.33.69-.44.27-.1.55-.15.86-.15s.57.05.82.15.46.25.64.44c.18.19.32.42.42.69s.15.58.15.93ZM51.58,120.41c0-.21-.07-.39-.2-.55-.13-.15-.33-.23-.6-.23-.13,0-.25.02-.36.06-.11.04-.2.1-.29.17-.08.07-.15.15-.2.25s-.08.19-.08.3h1.72Z"/>
        <path class="cls-4" d="M53.41,121.3v-1.06h2.07v1.06h-2.07Z"/>
        <path class="cls-4" d="M58.27,122.91h-1.59l2.34-4.6h-2.73v-1.17h4.19v1.09l-2.21,4.68Z"/>
        <path class="cls-4" d="M65.83,121.26c0,.3-.06.57-.18.79-.12.23-.28.41-.48.56-.2.15-.43.26-.69.33-.26.07-.54.11-.82.11s-.56-.04-.82-.11-.49-.18-.69-.33c-.2-.15-.36-.33-.48-.56-.12-.23-.18-.49-.18-.79,0-.17.03-.34.08-.49s.13-.28.22-.4c.1-.12.21-.22.33-.3.12-.08.26-.15.4-.19v-.02c-.25-.09-.46-.24-.63-.45-.17-.21-.25-.47-.25-.79,0-.27.05-.5.16-.71.11-.21.26-.38.44-.52.18-.14.4-.24.64-.31.24-.07.5-.11.77-.11s.52.03.76.1c.24.07.46.17.64.31.18.14.33.31.44.51s.17.44.17.71c0,.32-.08.59-.24.81s-.38.37-.64.46v.02c.15.04.28.11.4.19.12.08.23.19.32.3.09.12.16.25.22.4.05.15.08.31.08.48ZM64.47,121.21c0-.22-.07-.41-.22-.56-.15-.15-.34-.22-.57-.22s-.43.07-.58.22c-.15.15-.22.33-.22.56s.07.42.22.56c.15.14.34.21.58.21s.43-.07.58-.21.22-.33.22-.56ZM64.36,118.7c0-.19-.07-.35-.2-.47s-.3-.19-.49-.19c-.21,0-.37.06-.5.19s-.19.28-.19.47.06.34.18.48c.12.14.29.2.5.2.2,0,.37-.07.5-.2s.2-.3.2-.48Z"/>
        <path class="cls-4" d="M68.8,122.91h-1.59l2.34-4.6h-2.73v-1.17h4.19v1.09l-2.21,4.68Z"/>
        <path class="cls-4" d="M71.86,121.3v-1.06h2.07v1.06h-2.07Z"/>
        <path class="cls-4" d="M77.82,122.91v-.53h-.02c-.13.21-.32.37-.56.48s-.5.17-.77.17c-.3,0-.58-.06-.82-.18-.24-.12-.44-.28-.61-.48s-.29-.43-.38-.69-.13-.53-.13-.82.04-.55.13-.81c.09-.26.22-.48.38-.68.17-.2.37-.35.6-.46.24-.11.5-.17.79-.17s.55.06.76.17c.21.11.37.24.48.37h.02v-2.53h1.34v6.16h-1.23ZM77.77,120.87c0-.13-.02-.26-.07-.38-.05-.12-.11-.24-.2-.33-.08-.1-.19-.18-.31-.24-.12-.06-.26-.09-.41-.09s-.3.03-.42.09c-.12.06-.22.14-.3.23-.08.1-.14.21-.18.33-.04.12-.06.25-.06.38s.02.26.06.39c.04.13.1.24.18.34s.18.18.3.24.26.09.42.09.29-.03.41-.09.22-.14.31-.24c.08-.1.15-.21.2-.33.05-.12.07-.25.07-.38Z"/>
        <path class="cls-4" d="M82.74,119.95c-.06-.02-.12-.03-.18-.03-.06,0-.11,0-.17,0-.18,0-.33.03-.45.1-.12.07-.22.14-.29.24-.07.09-.13.19-.16.3-.03.11-.05.2-.05.28v2.08h-1.34v-4.05h1.29v.59h.02c.1-.21.25-.38.44-.51.19-.13.41-.2.66-.2.05,0,.11,0,.16,0,.05,0,.09.01.13.02l-.06,1.18Z"/>
        <path class="cls-4" d="M87.22,120.93v.16c0,.05,0,.11,0,.16h-2.94c.01.11.04.22.1.31.06.09.13.17.22.24.09.07.19.12.3.16s.23.06.35.06c.21,0,.39-.04.54-.12s.27-.18.36-.31l.93.59c-.19.28-.44.49-.75.64s-.67.22-1.09.22c-.3,0-.59-.05-.86-.14-.27-.09-.51-.23-.71-.42-.2-.18-.36-.41-.48-.67-.12-.27-.18-.57-.18-.91s.06-.63.17-.9c.11-.27.27-.5.46-.68.2-.19.43-.33.69-.44.27-.1.55-.15.86-.15s.57.05.82.15.46.25.64.44c.18.19.32.42.42.69s.15.58.15.93ZM85.98,120.41c0-.21-.07-.39-.2-.55-.13-.15-.33-.23-.6-.23-.13,0-.25.02-.36.06-.11.04-.2.1-.29.17-.08.07-.15.15-.2.25s-.08.19-.08.3h1.72Z"/>
        <path class="cls-4" d="M87.94,119.4c.24-.23.52-.4.84-.51s.64-.17.97-.17.63.04.87.13.43.21.57.39c.15.18.25.4.32.67.07.27.1.59.1.96v2.05h-1.22v-.43h-.02c-.1.17-.26.3-.47.39-.21.09-.44.14-.68.14-.16,0-.33-.02-.51-.07-.17-.04-.33-.11-.48-.21-.14-.1-.26-.23-.35-.39-.09-.16-.14-.36-.14-.6,0-.29.08-.53.24-.71.16-.18.37-.32.62-.42.25-.1.53-.16.84-.2.31-.03.61-.05.9-.05v-.06c0-.2-.07-.35-.21-.44-.14-.1-.32-.14-.52-.14-.19,0-.37.04-.55.12-.18.08-.33.18-.45.29l-.68-.72ZM90.39,121.14h-.17c-.15,0-.29,0-.44.02s-.28.04-.4.08-.21.09-.29.17c-.08.07-.11.17-.11.29,0,.08.02.14.05.2.04.05.08.1.13.13.05.03.12.06.19.07.07.01.14.02.2.02.27,0,.48-.07.62-.22s.22-.35.22-.61v-.14Z"/>
        <path class="cls-4" d="M97.79,122.91v-2.22c0-.11,0-.22-.02-.33-.02-.11-.05-.2-.09-.27-.04-.08-.1-.14-.18-.18-.07-.05-.17-.07-.29-.07s-.21.02-.3.07c-.08.05-.15.11-.21.2-.06.08-.1.18-.13.28-.03.11-.04.22-.04.33v2.19h-1.34v-2.31c0-.23-.05-.42-.14-.55s-.24-.2-.44-.2c-.21,0-.38.08-.49.25-.12.17-.18.37-.18.62v2.2h-1.34v-4.06h1.3v.56h.02c.05-.09.11-.17.18-.25.07-.08.16-.15.26-.22.1-.06.22-.11.35-.15.13-.04.27-.06.42-.06.29,0,.54.06.75.18.2.12.36.29.48.51.14-.21.31-.38.52-.51s.47-.19.77-.19c.28,0,.51.05.7.15.19.1.34.23.45.39.11.16.2.34.25.54.05.2.08.39.08.58v2.51h-1.34Z"/>
        <path class="cls-4" d="M100.16,122.91v-6.16h1.36v6.16h-1.36Z"/>
        <path class="cls-4" d="M104.02,117.55c0,.1-.02.2-.06.29-.04.09-.1.17-.16.23-.07.07-.15.12-.24.16-.09.04-.19.06-.3.06-.22,0-.4-.07-.55-.22-.15-.14-.22-.32-.22-.52,0-.1.02-.19.06-.28.04-.09.09-.17.16-.23.07-.07.15-.12.24-.16.09-.04.19-.06.3-.06.1,0,.2.02.3.06.1.04.18.09.24.15s.12.14.16.23c.04.09.06.19.06.29ZM102.59,122.91v-4.06h1.34v4.06h-1.34Z"/>
        <path class="cls-4" d="M107.65,122.91v-2.22c0-.11,0-.22-.03-.33-.02-.1-.05-.19-.09-.27-.04-.08-.1-.14-.18-.19s-.18-.07-.3-.07-.22.02-.31.07c-.09.05-.16.11-.22.19-.06.08-.1.17-.13.28-.03.11-.04.22-.04.33v2.2h-1.34v-4.06h1.3v.56h.02c.05-.09.11-.17.19-.26.08-.08.17-.16.28-.22s.22-.11.35-.15.26-.06.4-.06c.27,0,.5.05.69.15.19.1.34.22.46.38.12.15.2.33.25.53s.08.4.08.6v2.51h-1.34Z"/>
        <path class="cls-4" d="M114.03,120.93v.16c0,.05,0,.11,0,.16h-2.94c.01.11.04.22.1.31.06.09.13.17.22.24.09.07.19.12.3.16s.23.06.35.06c.21,0,.39-.04.54-.12s.27-.18.36-.31l.93.59c-.19.28-.44.49-.75.64s-.67.22-1.09.22c-.3,0-.59-.05-.86-.14-.27-.09-.51-.23-.71-.42-.2-.18-.36-.41-.48-.67-.12-.27-.18-.57-.18-.91s.06-.63.17-.9c.11-.27.27-.5.46-.68.2-.19.43-.33.69-.44.27-.1.55-.15.86-.15s.57.05.82.15.46.25.64.44c.18.19.32.42.42.69s.15.58.15.93ZM112.8,120.41c0-.21-.07-.39-.2-.55-.13-.15-.33-.23-.6-.23-.13,0-.25.02-.36.06-.11.04-.2.1-.29.17-.08.07-.15.15-.2.25s-.08.19-.08.3h1.72Z"/>
        <path class="cls-4" d="M117.49,119.95c-.06-.02-.12-.03-.18-.03-.06,0-.11,0-.17,0-.18,0-.33.03-.45.1-.12.07-.22.14-.29.24-.07.09-.13.19-.16.3-.03.11-.05.2-.05.28v2.08h-1.34v-4.05h1.29v.59h.02c.1-.21.25-.38.44-.51.19-.13.41-.2.66-.2.05,0,.11,0,.16,0,.05,0,.09.01.13.02l-.06,1.18Z"/>
        <path class="cls-4" d="M117.77,121.3v-1.06h2.07v1.06h-2.07Z"/>
        <path class="cls-4" d="M120.59,119.4c.24-.23.52-.4.84-.51s.64-.17.97-.17.63.04.87.13.43.21.57.39c.15.18.25.4.32.67.07.27.1.59.1.96v2.05h-1.22v-.43h-.02c-.1.17-.26.3-.47.39-.21.09-.44.14-.68.14-.16,0-.33-.02-.51-.07-.17-.04-.33-.11-.48-.21-.14-.1-.26-.23-.35-.39-.09-.16-.14-.36-.14-.6,0-.29.08-.53.24-.71.16-.18.37-.32.62-.42.25-.1.53-.16.84-.2.31-.03.61-.05.9-.05v-.06c0-.2-.07-.35-.21-.44-.14-.1-.32-.14-.52-.14-.19,0-.37.04-.55.12-.18.08-.33.18-.45.29l-.68-.72ZM123.05,121.14h-.17c-.15,0-.29,0-.44.02s-.28.04-.4.08-.21.09-.29.17c-.08.07-.11.17-.11.29,0,.08.02.14.05.2.04.05.08.1.13.13.05.03.12.06.19.07.07.01.14.02.2.02.27,0,.48-.07.62-.22s.22-.35.22-.61v-.14Z"/>
        <path class="cls-4" d="M125.04,121.3v-1.06h2.07v1.06h-2.07Z"/>
        <path class="cls-4" d="M129.37,119.84v1.55c0,.19.04.33.11.43.07.1.21.14.4.14.06,0,.13,0,.21-.02.07-.01.13-.03.18-.05l.02.98c-.09.03-.21.06-.35.09-.14.02-.28.04-.42.04-.27,0-.5-.03-.68-.1-.19-.07-.33-.17-.44-.29-.11-.13-.19-.28-.24-.46s-.07-.38-.07-.59v-1.72h-.65v-.99h.64v-1.07h1.31v1.07h.95v.99h-.95Z"/>
        <path class="cls-4" d="M132.4,117.55c0,.1-.02.2-.06.29-.04.09-.1.17-.16.23-.07.07-.15.12-.24.16-.09.04-.19.06-.3.06-.22,0-.4-.07-.55-.22-.15-.14-.22-.32-.22-.52,0-.1.02-.19.06-.28.04-.09.09-.17.16-.23.07-.07.15-.12.24-.16.09-.04.19-.06.3-.06.1,0,.2.02.3.06.1.04.18.09.24.15s.12.14.16.23c.04.09.06.19.06.29ZM130.97,122.91v-4.06h1.34v4.06h-1.34Z"/>
        <path class="cls-4" d="M138.55,122.91v-2.22c0-.11,0-.22-.02-.33-.02-.11-.05-.2-.09-.27-.04-.08-.1-.14-.18-.18-.07-.05-.17-.07-.29-.07s-.21.02-.3.07c-.08.05-.15.11-.21.2-.06.08-.1.18-.13.28-.03.11-.04.22-.04.33v2.19h-1.34v-2.31c0-.23-.05-.42-.14-.55s-.24-.2-.44-.2c-.21,0-.38.08-.49.25-.12.17-.18.37-.18.62v2.2h-1.34v-4.06h1.3v.56h.02c.05-.09.11-.17.18-.25.07-.08.16-.15.26-.22.1-.06.22-.11.35-.15.13-.04.27-.06.42-.06.29,0,.54.06.75.18.2.12.36.29.48.51.14-.21.31-.38.52-.51s.47-.19.77-.19c.28,0,.51.05.7.15.19.1.34.23.45.39.11.16.2.34.25.54.05.2.08.39.08.58v2.51h-1.34Z"/>
        <path class="cls-4" d="M144.92,120.93v.16c0,.05,0,.11,0,.16h-2.94c.01.11.04.22.1.31.06.09.13.17.22.24.09.07.19.12.3.16s.23.06.35.06c.21,0,.39-.04.54-.12s.27-.18.36-.31l.93.59c-.19.28-.44.49-.75.64s-.67.22-1.09.22c-.3,0-.59-.05-.86-.14-.27-.09-.51-.23-.71-.42-.2-.18-.36-.41-.48-.67-.12-.27-.18-.57-.18-.91s.06-.63.17-.9c.11-.27.27-.5.46-.68.2-.19.43-.33.69-.44.27-.1.55-.15.86-.15s.57.05.82.15.46.25.64.44c.18.19.32.42.42.69s.15.58.15.93ZM143.69,120.41c0-.21-.07-.39-.2-.55-.13-.15-.33-.23-.6-.23-.13,0-.25.02-.36.06-.11.04-.2.1-.29.17-.08.07-.15.15-.2.25s-.08.19-.08.3h1.72Z"/>
        <path class="cls-4" d="M145.77,122.91v-6.16h1.36v6.16h-1.36Z"/>
        <path class="cls-4" d="M149.63,117.55c0,.1-.02.2-.06.29-.04.09-.1.17-.16.23-.07.07-.15.12-.24.16-.09.04-.19.06-.3.06-.22,0-.4-.07-.55-.22-.15-.14-.22-.32-.22-.52,0-.1.02-.19.06-.28.04-.09.09-.17.16-.23.07-.07.15-.12.24-.16.09-.04.19-.06.3-.06.1,0,.2.02.3.06.1.04.18.09.24.15s.12.14.16.23c.04.09.06.19.06.29ZM148.2,122.91v-4.06h1.34v4.06h-1.34Z"/>
        <path class="cls-4" d="M153.26,122.91v-2.22c0-.11,0-.22-.03-.33-.02-.1-.05-.19-.09-.27-.04-.08-.1-.14-.18-.19s-.18-.07-.3-.07-.22.02-.31.07c-.09.05-.16.11-.22.19-.06.08-.1.17-.13.28-.03.11-.04.22-.04.33v2.2h-1.34v-4.06h1.3v.56h.02c.05-.09.11-.17.19-.26.08-.08.17-.16.28-.22s.22-.11.35-.15.26-.06.4-.06c.27,0,.5.05.69.15.19.1.34.22.46.38.12.15.2.33.25.53s.08.4.08.6v2.51h-1.34Z"/>
        <path class="cls-4" d="M159.64,120.93v.16c0,.05,0,.11,0,.16h-2.94c.01.11.04.22.1.31.06.09.13.17.22.24.09.07.19.12.3.16s.23.06.35.06c.21,0,.39-.04.54-.12s.27-.18.36-.31l.93.59c-.19.28-.44.49-.75.64s-.67.22-1.09.22c-.3,0-.59-.05-.86-.14-.27-.09-.51-.23-.71-.42-.2-.18-.36-.41-.48-.67-.12-.27-.18-.57-.18-.91s.06-.63.17-.9c.11-.27.27-.5.46-.68.2-.19.43-.33.69-.44.27-.1.55-.15.86-.15s.57.05.82.15.46.25.64.44c.18.19.32.42.42.69s.15.58.15.93ZM158.41,120.41c0-.21-.07-.39-.2-.55-.13-.15-.33-.23-.6-.23-.13,0-.25.02-.36.06-.11.04-.2.1-.29.17-.08.07-.15.15-.2.25s-.08.19-.08.3h1.72Z"/>
        <path class="cls-4" d="M160.81,123.33l-.92-.3,2.52-6.33.92.32-2.52,6.32Z"/>
      </g>
      <g>
        <path class="cls-9" d="M202.82,20.07c.06-.06.98-.07,1.05,0,.6.33.4,1.19,0,1.3-.3.11-1.59-.02-1.77-.06-.07-.05.66-1.19.72-1.24Z"/>
        <path class="cls-9" d="M202.77,14.16c.06.06.98.07,1.05,0,.6-.33.4-1.19,0-1.3-.3-.11-1.59.02-1.77.06-.07.05.66,1.19.72,1.24Z"/>
        <path class="cls-9" d="M203.93,18.16s-5.23,8.96-5.33,9.14c-.89,1.11-1.61,1.13-1.61,1.13,0,0,.49-.3.94-1.45.21-.52,1.72-4.2,1.95-6.02,0-.35-.02-2.19-.06-2.64l-.89-.16h5Z"/>
        <path class="cls-9" d="M203.88,16.07s-5.23-8.96-5.33-9.14c-.89-1.11-1.61-1.13-1.61-1.13,0,0,.49.3.94,1.45.21.52,1.72,4.2,1.95,6.02,0,.35-.02,2.19-.06,2.64l-.89.16h5Z"/>
        <path class="cls-9" d="M211,17.15c0,.25-.65.81-2.3,1-.19,0-13.04.05-13.53,0-.84-.06-1.89-.33-1.97-.33-.39.11-1.95,2.43-2.3,2.89-.06.04-.64.24-.79.2.61-1.66,1.05-3.31,1.06-3.43-.04-.04-.71-.2-1.02-.29-.06-.02-.06-.1,0-.12l1.07-.32s-.49-1.52-1.11-3.41c.13.02.61,0,.74.13.04.06,1.89,2.95,2.33,2.96.1.01,1.07-.2,1.79-.32.14-.02.29-.03.43-.03,1.69,0,12.97.05,13.26.06,1.47.1,2.33.78,2.33,1.03Z"/>
      </g>
      <text class="cls-14" transform="translate(287.3 22.04) scale(.91 1)"><tspan class="cls-2" x="0" y="0">B</tspan><tspan class="cls-20" x="8.31" y="0">O</tspan><tspan class="cls-1" x="18.45" y="0">ARDING </tspan><tspan class="cls-11" x="72.71" y="0">P</tspan><tspan class="cls-2" x="80.09" y="0">ASS</tspan></text>
      <g>
        <g>
          <rect class="cls-3" x="307.04" y="34.7" width="13.9" height="13.18"/>
          <rect class="cls-5" x="313.1" y="44.46" width="1.39" height="2.45"/>
          <rect class="cls-5" x="313.1" y="40.07" width="1.39" height="2.45"/>
          <rect class="cls-5" x="313.1" y="35.69" width="1.39" height="2.45"/>
        </g>
        <g>
          <rect class="cls-3" x="307.04" y="47.88" width="13.9" height="13.18"/>
          <rect class="cls-5" x="313.1" y="57.64" width="1.39" height="2.45"/>
          <rect class="cls-5" x="313.1" y="53.25" width="1.39" height="2.45"/>
          <rect class="cls-5" x="313.1" y="48.88" width="1.39" height="2.45"/>
        </g>
        <g>
          <rect class="cls-3" x="307.04" y="61.06" width="13.9" height="13.18"/>
          <rect class="cls-5" x="313.1" y="70.83" width="1.39" height="2.45"/>
          <rect class="cls-5" x="313.1" y="66.44" width="1.39" height="2.45"/>
          <rect class="cls-5" x="313.1" y="62.06" width="1.39" height="2.45"/>
        </g>
        <g>
          <rect class="cls-3" x="307.04" y="74.25" width="13.9" height="13.18"/>
          <rect class="cls-5" x="313.1" y="84.01" width="1.39" height="2.45"/>
          <rect class="cls-5" x="313.1" y="79.62" width="1.39" height="2.45"/>
          <rect class="cls-5" x="313.1" y="75.25" width="1.39" height="2.45"/>
        </g>
        <g>
          <rect class="cls-3" x="307.04" y="87.43" width="13.9" height="13.18"/>
          <rect class="cls-5" x="313.1" y="97.2" width="1.39" height="2.45"/>
          <rect class="cls-5" x="313.1" y="92.81" width="1.39" height="2.45"/>
          <rect class="cls-5" x="313.1" y="88.43" width="1.39" height="2.45"/>
        </g>
        <g>
          <rect class="cls-3" x="307.04" y="100.62" width="13.9" height="13.18"/>
          <rect class="cls-5" x="313.1" y="110.38" width="1.39" height="2.45"/>
          <rect class="cls-5" x="313.1" y="105.99" width="1.39" height="2.45"/>
          <rect class="cls-5" x="313.1" y="101.62" width="1.39" height="2.45"/>
        </g>
        <g>
          <rect class="cls-3" x="307.04" y="113.8" width="13.9" height="13.18"/>
          <rect class="cls-5" x="313.1" y="123.57" width="1.39" height="2.45"/>
          <rect class="cls-5" x="313.1" y="119.18" width="1.39" height="2.45"/>
          <rect class="cls-5" x="313.1" y="114.8" width="1.39" height="2.45"/>
        </g>
        <g>
          <rect class="cls-3" x="307.04" y="126.99" width="13.9" height="13.18"/>
          <rect class="cls-5" x="313.1" y="136.75" width="1.39" height="2.45"/>
          <rect class="cls-5" x="313.1" y="132.36" width="1.39" height="2.45"/>
          <rect class="cls-5" x="313.1" y="127.99" width="1.39" height="2.45"/>
        </g>
      </g>
      <g>
        <path class="cls-9" d="M27.39,22.55c-.51.82-1.63,1.49-2.51,1.49h-9.63c-.1,0-.13-.07-.07-.17l8.03-12.97c.06-.09.18-.17.28-.17h9.63c.88,0,1.18.67.67,1.49l-1.89,3.05c-.95,1.54-3.17,2.11-3.17,2.11,0,0,1.5.58.65,1.96l-1.98,3.2ZM25.74,18.8c.06-.09.02-.17-.07-.17h-3.09c-.1,0-.22.07-.28.17l-1.14,1.84c-.06.09-.02.17.07.17h3.09c.1,0,.22-.07.28-.17l1.14-1.84ZM28.63,14.13c.06-.09.02-.17-.07-.17h-3.09c-.1,0-.22.07-.28.17l-1.14,1.84c-.06.09-.02.17.07.17h3.09c.1,0,.22-.07.28-.17l1.14-1.84Z"/>
        <path class="cls-9" d="M42.37,22.55c-.51.82-1.63,1.49-2.51,1.49h-8.18c-.88,0-1.18-.67-.67-1.49l6.39-10.33c.51-.82,1.63-1.49,2.51-1.49h8.18c.88,0,1.18.67.67,1.49l-6.39,10.33ZM43.6,14.13c.06-.09.02-.17-.07-.17h-3.06c-.1,0-.22.07-.28.17l-4.02,6.5c-.06.09-.02.17.07.17h3.06c.1,0,.22-.07.28-.17l4.02-6.5Z"/>
        <path class="cls-9" d="M55.24,14.14l-1.14,1.84h6.11c.1,0,.13.08.08.17l-1.67,2.69c-.06.09-.18.17-.28.17h-6.11l-1.01,1.63c-.06.09-.02.17.07.17h6.38c.1,0,.13.07.07.16l-1.8,2.91c-.06.09-.18.16-.27.16h-8.95c-.88,0-1.18-.67-.67-1.49l6.39-10.33c.51-.82,1.64-1.49,2.52-1.49h8.95c.1,0,.13.07.07.16l-1.8,2.92c-.06.09-.18.16-.27.16h-6.38c-.1,0-.22.07-.28.17Z"/>
        <path class="cls-9" d="M71.47,10.9l-8.03,12.97c-.06.09-.18.17-.28.17h-3.62c-.1,0-.13-.07-.07-.17l8.03-12.97c.06-.09.18-.17.28-.17h3.62c.1,0,.13.07.07.17Z"/>
        <path class="cls-9" d="M87.62,10.9l-8.03,12.97c-.06.09-.18.17-.28.17h-3.62c-.06,0-.1-.03-.1-.08t0,0l-.58-5.99c0-.07-.14-.04-.19.04l-3.62,5.86c-.06.09-.18.17-.28.17h-3.62c-.1,0-.13-.07-.07-.17l8.03-12.97c.05-.07.14-.13.22-.16,0,0,.06,0,.06,0h3.62c.05,0,.09.02.1.06,0,0,.15,2.73.44,6.23,0,.07.14.04.19-.04l3.76-6.08c.06-.09.18-.17.28-.17h3.62c.1,0,.13.07.08.17Z"/>
        <path class="cls-9" d="M102.8,10.9l-1.8,2.9c-.06.09-.18.17-.28.17h-7.13c-.1,0-.22.07-.28.17l-4.17,6.74c-.06.09-.02.17.07.17h3.06c.1,0,.22-.07.28-.17l2.77-4.48c.06-.09.18-.17.28-.17h3.62c.1,0,.13.07.08.17l-3.81,6.16c-.51.82-1.63,1.49-2.51,1.49h-8.18c-.88,0-1.18-.67-.67-1.49l6.39-10.33c.51-.82,1.63-1.49,2.51-1.49h9.69c.1,0,.13.07.07.17Z"/>
        <path class="cls-9" d="M123.78,10.9l-1.54,2.49s-.03.04-.05.06l-11.41,10.42c-.1.09-.25.17-.35.17h-3.62c-.1,0-.1-.07,0-.17l10.6-9.67c.12-.11.11-.23-.02-.23h-5.81c-.1,0-.13-.07-.07-.16l1.8-2.92c.06-.09.18-.16.27-.16h10.12c.1,0,.13.07.07.17Z"/>
        <path class="cls-9" d="M130.99,22.55c-.51.82-1.63,1.49-2.51,1.49h-8.1c-.88,0-1.18-.66-.67-1.48l1.98-3.2c.85-1.38,3.08-1.96,3.08-1.96,0,0-1.51-.57-.56-2.11l1.89-3.05c.51-.82,1.63-1.49,2.51-1.49h8.1c.88,0,1.18.66.67,1.48l-1.89,3.05c-.95,1.54-3.17,2.11-3.17,2.11,0,0,1.51.58.65,1.96l-1.98,3.2ZM129.23,18.97c.05-.08.02-.15-.06-.16h-3c-.1,0-.22.07-.28.17l-1.1,1.78c-.05.08-.02.15.06.16h3c.1,0,.22-.07.28-.17l1.1-1.78ZM132.3,14.02c.05-.08.02-.15-.06-.16h-3c-.1,0-.22.07-.28.17l-1.1,1.78c-.05.08-.02.15.06.16h3c.1,0,.22-.07.28-.17l1.1-1.78Z"/>
        <path class="cls-9" d="M151.74,10.9l-1.54,2.49s-.03.04-.05.06l-11.41,10.42c-.1.09-.25.17-.35.17h-3.62c-.1,0-.1-.07,0-.17l10.6-9.67c.12-.11.11-.23-.02-.23h-5.81c-.1,0-.13-.07-.07-.16l1.8-2.92c.06-.09.18-.16.27-.16h10.12c.1,0,.13.07.07.17Z"/>
      </g>
    </g>
  </g>
</svg>