<?xml version="1.0" encoding="UTF-8"?>
<svg id="Layer_2" data-name="Layer 2" xmlns="http://www.w3.org/2000/svg" viewBox="0 0 432.1 141.99">
  <defs>
    <style>
      .cls-1 {
        letter-spacing: -.04em;
      }

      .cls-2 {
        letter-spacing: .1em;
      }

      .cls-3 {
        fill: none;
      }

      .cls-3, .cls-4, .cls-5, .cls-6, .cls-7, .cls-8, .cls-9 {
        stroke-width: 0px;
      }

      .cls-10 {
        font-size: 8.13px;
      }

      .cls-10, .cls-4 {
        fill: #000;
      }

      .cls-10, .cls-11 {
        font-family: AvenirNext-Bold, 'Avenir Next';
        font-weight: 700;
      }

      .cls-12 {
        letter-spacing: .04em;
      }

      .cls-13 {
        letter-spacing: -.01em;
      }

      .cls-14 {
        letter-spacing: -.02em;
      }

      .cls-15 {
        letter-spacing: 0em;
      }

      .cls-16 {
        letter-spacing: -.02em;
      }

      .cls-5 {
        fill: #2252ad;
      }

      .cls-17 {
        letter-spacing: .08em;
      }

      .cls-6 {
        fill: #86b6ee;
      }

      .cls-11 {
        font-size: 10.84px;
      }

      .cls-11, .cls-9 {
        fill: #0239a1;
      }

      .cls-7 {
        fill: #fff;
      }

      .cls-8 {
        fill: #231f20;
      }
    </style>
  </defs>
  <g id="Credits">
    <g>
      <g>
        <rect class="cls-7" x=".25" y=".84" width="411.33" height="140.31" rx="10.92" ry="10.92" transform="translate(-.3 .89) rotate(-.25)"/>
        <path class="cls-6" d="M.1,36.81L0,12.65C-.03,6.62,4.84,1.71,10.87,1.68L400.36,0c6.03-.03,10.94,4.84,10.97,10.87l.1,24.16"/>
      </g>
      <g id="Globe">
        <g>
          <path class="cls-9" d="M385.3,82.49c-.29,13.7-11.04,25.14-25,25.23-13.66.09-25.2-11.34-25.23-25s11.28-25.17,25-25.23c13.95-.06,24.82,11.32,25.23,25,.06,2.18,3.45,2.18,3.39,0-.35-11.7-7.24-22.27-18.33-26.5-11.28-4.3-24.44-.87-32.13,8.46-16.63,20.2,1.61,50.91,27.26,46.16,13.58-2.52,22.91-14.55,23.2-28.11.05-2.18-3.34-2.18-3.39,0Z"/>
          <path class="cls-9" d="M364.92,57.6c6.65,16.25,6.12,33.26.22,49.64-.74,2.05,2.53,2.94,3.27.9,6.09-16.9,6.64-34.68-.22-51.45-.81-1.99-4.09-1.12-3.27.9h0Z"/>
          <path class="cls-9" d="M351.91,56.76c-6.72,16.82-6.01,34.6.22,51.45.75,2.03,4.03,1.15,3.27-.9-6.04-16.33-6.73-33.33-.22-49.64.81-2.02-2.47-2.9-3.27-.9h0Z"/>
          <path class="cls-9" d="M336.96,71.07c15.5-.07,30.99-.13,46.49-.2,2.18,0,2.18-3.4,0-3.39-15.5.07-30.99.13-46.49.2-2.18,0-2.18,3.4,0,3.39h0Z"/>
          <path class="cls-9" d="M337.23,97.73c15.44-.07,30.89-.13,46.33-.2,2.18,0,2.18-3.4,0-3.39-15.44.07-30.89.13-46.33.2-2.18,0-2.18,3.4,0,3.39h0Z"/>
          <path class="cls-9" d="M333.38,84.41c17.87-.08,35.74-.15,53.62-.23,2.18,0,2.18-3.4,0-3.39-17.87.08-35.74.15-53.62.23-2.18,0-2.18,3.4,0,3.39h0Z"/>
        </g>
      </g>
      <g>
        <rect class="cls-8" x="290.69" y="35.83" width="14.62" height=".77" transform="translate(-.15 1.29) rotate(-.25)"/>
        <rect class="cls-8" x="290.73" y="45.69" width="14.62" height=".77" transform="translate(-.2 1.29) rotate(-.25)"/>
        <rect class="cls-8" x="290.74" y="47.48" width="14.62" height=".77" transform="translate(-.2 1.29) rotate(-.25)"/>
        <rect class="cls-8" x="290.78" y="57.09" width="14.62" height=".77" transform="translate(-.25 1.29) rotate(-.25)"/>
        <rect class="cls-8" x="290.81" y="65.21" width="14.62" height=".77" transform="translate(-.28 1.29) rotate(-.25)"/>
        <rect class="cls-8" x="290.84" y="70.61" width="14.62" height=".77" transform="translate(-.3 1.29) rotate(-.25)"/>
        <rect class="cls-8" x="290.86" y="75.16" width="14.62" height=".77" transform="translate(-.32 1.29) rotate(-.25)"/>
        <rect class="cls-8" x="290.87" y="76.94" width="14.62" height="2.61" transform="translate(-.34 1.29) rotate(-.25)"/>
        <rect class="cls-8" x="290.89" y="81.19" width="14.62" height="1.88" transform="translate(-.35 1.29) rotate(-.25)"/>
        <rect class="cls-8" x="290.9" y="84.71" width="14.62" height=".94" transform="translate(-.36 1.29) rotate(-.25)"/>
        <rect class="cls-8" x="290.7" y="38.3" width="14.62" height="1.96" transform="translate(-.17 1.29) rotate(-.25)"/>
        <rect class="cls-8" x="290.72" y="41.96" width="14.62" height="2.45" transform="translate(-.18 1.29) rotate(-.25)"/>
        <rect class="cls-8" x="290.75" y="49.27" width="14.62" height="2.45" transform="translate(-.22 1.29) rotate(-.25)"/>
        <rect class="cls-8" x="290.83" y="67.84" width="14.62" height="1.84" transform="translate(-.29 1.29) rotate(-.25)"/>
        <rect class="cls-8" x="290.79" y="58.83" width="14.62" height="3.6" transform="translate(-.26 1.29) rotate(-.25)"/>
        <rect class="cls-8" x="290.77" y="52.73" width="14.62" height="3.58" transform="translate(-.23 1.29) rotate(-.25)"/>
        <rect class="cls-8" x="290.91" y="87.29" width="14.62" height=".77" transform="translate(-.38 1.29) rotate(-.25)"/>
        <rect class="cls-8" x="290.95" y="97.15" width="14.62" height=".77" transform="translate(-.42 1.29) rotate(-.25)"/>
        <rect class="cls-8" x="290.96" y="98.94" width="14.62" height=".77" transform="translate(-.43 1.29) rotate(-.25)"/>
        <rect class="cls-8" x="291" y="108.55" width="14.62" height=".77" transform="translate(-.47 1.29) rotate(-.25)"/>
        <rect class="cls-8" x="291.04" y="116.67" width="14.62" height=".77" transform="translate(-.5 1.29) rotate(-.25)"/>
        <rect class="cls-8" x="291.06" y="122.07" width="14.62" height=".77" transform="translate(-.53 1.29) rotate(-.25)"/>
        <rect class="cls-8" x="291.08" y="126.61" width="14.62" height=".77" transform="translate(-.55 1.29) rotate(-.25)"/>
        <rect class="cls-8" x="291.09" y="128.4" width="14.62" height="2.61" transform="translate(-.56 1.29) rotate(-.25)"/>
        <rect class="cls-8" x="291.11" y="132.65" width="14.62" height="1.88" transform="translate(-.57 1.29) rotate(-.25)"/>
        <rect class="cls-8" x="291.12" y="136.17" width="14.62" height=".94" transform="translate(-.59 1.29) rotate(-.25)"/>
        <rect class="cls-8" x="291.13" y="138.75" width="14.62" height=".77" transform="translate(-.6 1.29) rotate(-.25)"/>
        <rect class="cls-8" x="290.92" y="89.76" width="14.62" height="1.96" transform="translate(-.39 1.29) rotate(-.25)"/>
        <rect class="cls-8" x="290.94" y="93.41" width="14.62" height="2.45" transform="translate(-.41 1.29) rotate(-.25)"/>
        <rect class="cls-8" x="290.97" y="100.72" width="14.62" height="2.45" transform="translate(-.44 1.29) rotate(-.25)"/>
        <rect class="cls-8" x="291.05" y="119.3" width="14.62" height="1.84" transform="translate(-.52 1.29) rotate(-.25)"/>
        <rect class="cls-8" x="291.01" y="110.29" width="14.62" height="3.6" transform="translate(-.48 1.29) rotate(-.25)"/>
        <rect class="cls-8" x="290.99" y="104.19" width="14.62" height="3.58" transform="translate(-.45 1.29) rotate(-.25)"/>
      </g>
      <text class="cls-10" transform="translate(23.07 58.56) rotate(-.25)"><tspan x="0" y="0">h</tspan><tspan class="cls-14" x="5.02" y="0">t</tspan><tspan x="7.85" y="0">tps://ww</tspan><tspan class="cls-1" x="43.66" y="0">w</tspan><tspan x="50.45" y="0">.boeing.com/</tspan><tspan class="cls-13" x="103.55" y="0">C</tspan><tspan x="109.11" y="0">omme</tspan><tspan class="cls-16" x="134.12" y="0">r</tspan><tspan x="137.2" y="0">cial/787#videos</tspan></text>
      <text class="cls-10" transform="translate(23.18 85.78) rotate(-.25)"><tspan x="0" y="0">h</tspan><tspan class="cls-14" x="5.02" y="0">t</tspan><tspan x="7.85" y="0">tps://ww</tspan><tspan class="cls-1" x="43.66" y="0">w</tspan><tspan x="50.45" y="0">.boeing.com/</tspan><tspan class="cls-13" x="103.55" y="0">C</tspan><tspan x="109.11" y="0">omme</tspan><tspan class="cls-16" x="134.12" y="0">r</tspan><tspan x="137.2" y="0">cial/787/d</tspan><tspan class="cls-16" x="178.57" y="0">r</tspan><tspan class="cls-15" x="181.64" y="0">e</tspan><tspan x="186.44" y="0">amliner#1-million</tspan></text>
      <g>
        <path class="cls-4" d="M27.57,111.57v-2.2c0-.11-.02-.22-.04-.33-.02-.1-.05-.19-.09-.27-.05-.08-.11-.14-.18-.19-.08-.05-.17-.07-.29-.07-.23,0-.41.08-.54.25-.12.17-.19.37-.18.61v2.19s-1.32,0-1.32,0l-.03-6.15h1.33s.01,2.6.01,2.6h.02c.09-.16.24-.31.44-.44.2-.13.44-.19.72-.2.28,0,.51.05.7.14s.34.22.46.38c.12.15.2.33.25.53.05.2.08.4.08.6v2.5s-1.33,0-1.33,0Z"/>
        <path class="cls-4" d="M31.36,108.49v1.55c0,.19.04.33.12.43.07.1.21.14.4.14.07,0,.13,0,.21-.02s.13-.03.18-.05l.02.98c-.09.03-.21.06-.35.09-.14.03-.28.04-.42.04-.27,0-.5-.03-.68-.1s-.33-.16-.44-.29c-.11-.13-.19-.28-.24-.46s-.08-.37-.08-.59v-1.71s-.66,0-.66,0v-.99s.64,0,.64,0v-1.07s1.31,0,1.31,0v1.07s.96,0,.96,0v.99s-.95,0-.95,0Z"/>
        <path class="cls-4" d="M34.18,108.48v1.55c0,.19.04.33.12.43.07.1.21.14.4.14.07,0,.13,0,.21-.02.07-.01.13-.03.18-.05l.02.97c-.09.03-.21.06-.35.09-.14.03-.28.04-.42.04-.27,0-.5-.03-.68-.1-.18-.07-.33-.17-.44-.29-.11-.13-.19-.28-.24-.46-.05-.18-.08-.37-.08-.59v-1.71s-.66,0-.66,0v-.99s.64,0,.64,0v-1.07s1.31,0,1.31,0v1.07s.96,0,.96,0v.99s-.95,0-.95,0Z"/>
        <path class="cls-4" d="M40.27,109.47c0,.28-.04.55-.13.81s-.21.49-.38.69c-.16.2-.37.36-.6.48-.24.12-.51.18-.81.18-.25,0-.49-.05-.71-.15-.22-.1-.4-.24-.52-.41h-.02v2.4s-1.32,0-1.32,0l-.03-6h1.27s0,.49,0,.49h.02c.12-.16.3-.31.51-.43s.48-.19.78-.19c.29,0,.56.06.8.17.24.11.44.27.61.46.17.19.29.42.38.68.09.26.14.53.14.81ZM38.98,109.47c0-.13-.02-.26-.06-.38-.04-.12-.1-.23-.18-.33-.08-.09-.18-.17-.3-.23s-.26-.09-.42-.09c-.15,0-.29.03-.41.09-.12.06-.22.14-.3.24-.08.1-.15.21-.19.33-.04.13-.07.25-.07.38,0,.13.02.26.07.38.05.12.11.24.2.33.08.1.19.18.31.23.12.06.26.09.41.09.16,0,.3-.03.41-.09.12-.06.22-.14.3-.24.08-.1.14-.21.18-.34.04-.13.06-.26.06-.39Z"/>
        <path class="cls-4" d="M43.49,108.64c-.11-.1-.24-.19-.38-.26-.15-.07-.3-.1-.46-.1-.12,0-.24.03-.34.08-.11.05-.16.13-.16.25,0,.11.06.2.18.24.12.05.31.1.57.16.15.03.3.08.46.14.15.06.29.14.42.23.12.1.23.22.3.36.08.14.12.31.12.5,0,.25-.05.47-.15.65-.1.18-.23.32-.4.43-.16.11-.35.19-.56.24-.21.05-.41.08-.62.08-.33,0-.66-.05-.97-.15-.32-.1-.58-.26-.79-.46l.74-.79c.12.13.27.24.44.32.17.08.36.13.55.13.11,0,.22-.03.32-.08.11-.05.16-.14.16-.27,0-.12-.07-.22-.2-.28-.13-.06-.33-.12-.61-.19-.14-.03-.28-.07-.42-.13-.14-.05-.27-.12-.38-.22-.11-.09-.2-.21-.27-.34-.07-.13-.11-.3-.11-.49,0-.24.05-.45.15-.62.1-.17.24-.31.4-.42.16-.11.34-.19.54-.24.2-.05.39-.08.59-.08.3,0,.6.04.89.14.29.09.54.24.74.42l-.73.76Z"/>
        <path class="cls-4" d="M46.57,108.15c0,.11-.02.21-.06.31s-.1.18-.17.25c-.07.07-.16.13-.25.17s-.2.06-.3.06c-.11,0-.21-.02-.31-.06-.1-.04-.18-.09-.26-.16-.07-.07-.13-.15-.18-.24-.04-.09-.07-.19-.07-.3,0-.11.02-.21.06-.31.04-.09.1-.18.17-.25.07-.07.16-.13.25-.17s.2-.06.31-.06c.1,0,.2.02.3.06.1.04.18.09.25.16.07.07.13.15.17.24.04.09.07.19.07.3ZM46.58,110.76c0,.11-.02.21-.06.3-.04.09-.1.18-.17.25-.07.07-.15.12-.25.16-.1.04-.2.06-.3.06-.11,0-.21-.02-.31-.05-.1-.04-.18-.09-.26-.16-.07-.07-.13-.15-.18-.24-.04-.09-.07-.19-.07-.3,0-.11.02-.21.06-.31.04-.09.1-.18.17-.25.07-.07.16-.13.25-.17.1-.04.2-.06.31-.06.1,0,.2.02.3.06.1.04.18.09.25.16.07.07.13.15.17.24s.07.2.07.3Z"/>
        <path class="cls-4" d="M48,111.9l-.92-.3,2.48-6.33.92.31-2.48,6.31Z"/>
        <path class="cls-4" d="M51.37,111.88l-.92-.3,2.48-6.33.92.31-2.48,6.31Z"/>
        <path class="cls-4" d="M59.56,111.43h-1.34s-.81-2.51-.81-2.51h-.02l-.77,2.52h-1.34s-1.42-4.04-1.42-4.04h1.44s.71,2.55.71,2.55h.02l.71-2.56h1.34s.76,2.55.76,2.55h.02l.7-2.56h1.38s-1.39,4.05-1.39,4.05Z"/>
        <path class="cls-4" d="M66.64,111.4h-1.34s-.81-2.51-.81-2.51h-.02l-.77,2.52h-1.34s-1.42-4.04-1.42-4.04h1.44s.71,2.55.71,2.55h.02s.71-2.56.71-2.56h1.34s.76,2.55.76,2.55h.02l.7-2.56h1.38s-1.39,4.05-1.39,4.05Z"/>
        <path class="cls-4" d="M73.72,111.37h-1.34s-.81-2.51-.81-2.51h-.02l-.77,2.52h-1.34s-1.42-4.04-1.42-4.04h1.44s.71,2.55.71,2.55h.02l.71-2.56h1.34s.76,2.55.76,2.55h.02l.7-2.56h1.38s-1.39,4.05-1.39,4.05Z"/>
        <path class="cls-4" d="M76.87,110.64c0,.23-.08.42-.24.57-.16.15-.35.23-.57.23-.11,0-.22-.02-.32-.06-.1-.04-.19-.1-.26-.17s-.14-.15-.18-.25c-.04-.09-.07-.2-.07-.31,0-.11.02-.21.06-.31.04-.1.1-.18.18-.26.07-.07.16-.13.26-.18.1-.04.21-.07.32-.07.22,0,.41.07.57.23.16.15.24.34.24.57Z"/>
        <path class="cls-4" d="M82.3,109.29c0,.28-.04.55-.13.81-.08.26-.21.49-.38.69-.16.2-.37.36-.6.48-.24.12-.51.18-.81.18-.27,0-.53-.05-.77-.16-.24-.11-.43-.27-.56-.47h-.02v.53s-1.23,0-1.23,0l-.03-6.15h1.33s.01,2.52.01,2.52h.02c.11-.14.27-.26.48-.38.21-.11.46-.17.76-.17.29,0,.56.06.79.17.24.11.44.27.6.46.17.19.29.42.38.68.09.26.14.53.14.81ZM81.01,109.29c0-.13-.02-.26-.06-.38-.04-.12-.1-.23-.18-.33-.08-.09-.18-.17-.3-.23s-.26-.09-.41-.09c-.15,0-.29.03-.41.09-.12.06-.22.14-.3.24-.08.1-.15.21-.19.33-.04.12-.07.25-.07.38,0,.13.02.26.07.38.05.12.11.23.2.33.08.1.19.18.31.23.12.06.26.09.41.09.16,0,.29-.03.41-.09.12-.06.22-.14.3-.24.08-.1.14-.21.18-.34.04-.13.06-.26.06-.39Z"/>
        <path class="cls-4" d="M87.44,109.27c0,.33-.06.63-.17.9-.12.27-.28.5-.49.69-.21.19-.44.33-.71.44-.27.1-.56.16-.87.16-.3,0-.59-.05-.87-.15-.27-.1-.51-.25-.72-.43-.2-.19-.37-.41-.49-.68s-.18-.57-.18-.9c0-.33.06-.63.17-.9.12-.27.28-.49.48-.68.2-.18.44-.33.71-.43.27-.1.56-.15.87-.15.31,0,.6.05.87.14.27.1.51.24.72.42.21.18.37.41.49.67s.18.56.18.89ZM86.15,109.27c0-.13-.02-.26-.07-.38s-.11-.23-.19-.33c-.08-.09-.18-.17-.3-.23-.12-.06-.26-.09-.41-.09s-.3.03-.42.09-.22.14-.3.23-.14.21-.18.33c-.04.12-.06.25-.06.38,0,.13.02.26.06.38.04.12.1.24.18.34.08.1.18.18.3.24.12.06.26.09.42.09s.29-.03.41-.09.22-.14.3-.24c.08-.1.14-.21.18-.34.04-.12.06-.25.06-.38Z"/>
        <path class="cls-4" d="M92.3,109.31c0,.05,0,.11,0,.16s0,.11,0,.16h-2.93c.01.13.05.23.1.32.06.09.13.17.22.24.09.07.19.12.3.16.11.04.23.06.35.05.21,0,.39-.04.54-.12.15-.08.26-.18.36-.31l.93.58c-.19.28-.44.49-.75.64-.31.15-.67.23-1.08.23-.3,0-.59-.04-.86-.14-.27-.09-.51-.23-.71-.41s-.37-.4-.48-.67c-.12-.26-.18-.57-.18-.91,0-.33.05-.63.17-.9.11-.27.27-.5.46-.69.19-.19.42-.33.69-.44.27-.1.55-.16.86-.16.3,0,.57.05.82.15.25.1.46.24.64.43s.32.42.42.69c.1.27.15.58.15.93ZM91.07,108.8c0-.21-.07-.39-.2-.54-.13-.15-.33-.23-.6-.23-.13,0-.25.02-.36.06-.11.04-.2.1-.28.17-.08.07-.15.15-.19.25-.05.1-.08.19-.08.3h1.72Z"/>
        <path class="cls-4" d="M94.56,105.93c0,.1-.02.2-.06.29-.04.09-.09.17-.16.23-.07.07-.15.12-.24.16-.09.04-.19.06-.3.06-.22,0-.4-.07-.55-.21s-.22-.32-.22-.52c0-.1.02-.19.06-.28.04-.09.09-.17.16-.23.07-.06.15-.12.24-.16.09-.04.19-.06.3-.06.1,0,.2.02.3.05.09.04.18.09.24.15.07.07.12.14.16.23.04.09.06.19.06.29ZM93.15,111.28l-.02-4.05h1.33s.02,4.04.02,4.04h-1.33Z"/>
        <path class="cls-4" d="M98.2,111.26v-2.21c0-.11-.02-.22-.04-.33-.02-.1-.05-.19-.09-.27-.04-.08-.1-.14-.18-.19-.08-.05-.18-.07-.3-.07s-.22.02-.31.07c-.09.05-.16.11-.22.19-.06.08-.1.18-.13.28s-.04.21-.04.33v2.2s-1.33,0-1.33,0l-.02-4.05h1.29s0,.55,0,.55h.02c.05-.09.11-.17.19-.26.08-.08.17-.16.28-.22.1-.06.22-.11.34-.15.12-.04.26-.06.4-.06.27,0,.5.05.69.14s.34.22.46.38c.12.15.2.33.25.53.05.2.08.4.08.6v2.5s-1.33,0-1.33,0Z"/>
        <path class="cls-4" d="M104.84,110.85c0,.4-.05.74-.17,1.03-.11.29-.27.54-.48.73s-.46.34-.75.43c-.29.1-.62.15-.98.15-.36,0-.72-.05-1.1-.16-.38-.11-.7-.26-.98-.47l.66-.95c.2.17.41.3.65.38s.47.12.7.12c.39,0,.68-.11.87-.31.19-.21.28-.48.28-.82v-.24h-.03c-.12.16-.29.29-.5.39s-.45.15-.72.15c-.31,0-.58-.05-.82-.16s-.44-.26-.61-.45c-.17-.19-.29-.41-.38-.66-.09-.25-.13-.52-.13-.8,0-.28.04-.55.13-.81.08-.25.21-.48.38-.68.16-.2.37-.35.6-.47.24-.12.51-.18.81-.18.25,0,.5.05.73.15.23.1.42.26.56.48h.02v-.52s1.26,0,1.26,0l.02,3.67ZM103.57,109.19c0-.14-.02-.27-.07-.39-.05-.12-.11-.23-.2-.33-.09-.09-.19-.17-.31-.22-.12-.05-.25-.08-.41-.08-.15,0-.29.03-.4.08-.12.05-.21.13-.29.22-.08.09-.14.2-.19.33-.04.12-.06.26-.06.4,0,.14.02.27.07.39.04.12.11.23.19.33s.18.17.3.23c.12.06.25.08.4.08.15,0,.29-.03.41-.09.12-.06.22-.13.31-.22.08-.09.15-.2.19-.33.04-.12.07-.26.07-.4Z"/>
        <path class="cls-4" d="M107.42,110.51c0,.23-.08.42-.24.57-.16.15-.35.23-.57.23-.11,0-.22-.02-.32-.06-.1-.04-.19-.1-.26-.17-.08-.07-.14-.15-.18-.25-.04-.09-.07-.2-.07-.31,0-.11.02-.21.06-.31.04-.1.1-.18.18-.26.08-.07.16-.13.26-.18.1-.04.21-.07.32-.07.22,0,.41.07.57.23.16.15.24.34.24.57Z"/>
        <path class="cls-4" d="M111.13,108.46c-.08-.1-.18-.17-.31-.23-.13-.06-.26-.09-.4-.09-.14,0-.27.03-.38.09-.11.06-.21.13-.29.23-.08.1-.14.21-.19.33-.04.12-.07.26-.07.4,0,.14.02.27.07.4.04.12.11.23.19.33.08.09.19.17.3.22.12.05.25.08.4.08.14,0,.27-.03.4-.08.13-.05.24-.13.32-.22l.74.9c-.17.16-.38.29-.65.39-.27.09-.55.14-.84.14-.32,0-.62-.05-.9-.14s-.52-.24-.72-.42c-.21-.19-.37-.41-.49-.68-.12-.27-.18-.57-.18-.9,0-.33.06-.63.17-.89.12-.27.28-.49.48-.68s.44-.33.72-.43c.28-.1.57-.15.89-.15.15,0,.29.01.43.04.14.03.28.06.42.11.13.04.25.1.37.17s.21.14.29.22l-.77.9Z"/>
        <path class="cls-4" d="M116.71,109.14c0,.33-.06.63-.17.9-.12.27-.28.5-.49.69-.21.19-.44.33-.71.44-.27.1-.56.16-.87.16-.3,0-.59-.05-.87-.15s-.51-.25-.72-.43c-.2-.19-.37-.41-.49-.68-.12-.27-.18-.57-.18-.9,0-.33.06-.63.17-.9.12-.26.28-.49.48-.68.2-.18.44-.33.71-.43.27-.1.56-.15.87-.15.31,0,.6.05.87.14.27.1.51.24.72.42.21.18.37.41.49.67.12.27.18.56.18.89ZM115.43,109.14c0-.13-.02-.26-.07-.38-.04-.12-.11-.23-.19-.33-.08-.09-.18-.17-.3-.23s-.26-.09-.41-.09c-.16,0-.3.03-.42.09-.12.06-.22.14-.3.23-.08.1-.14.21-.18.33-.04.12-.06.25-.06.38,0,.13.02.26.06.38.04.12.1.24.18.34.08.1.18.18.3.24.12.06.26.09.42.09.16,0,.29-.03.41-.09.12-.06.22-.14.3-.24.08-.1.14-.21.18-.34.04-.12.06-.25.06-.38Z"/>
        <path class="cls-4" d="M122.74,111.15v-2.21c0-.11-.02-.22-.04-.33-.02-.11-.05-.2-.09-.27-.04-.08-.1-.14-.18-.18-.07-.05-.17-.07-.29-.07-.11,0-.21.03-.3.08-.08.05-.15.11-.21.2-.06.08-.1.17-.13.28-.03.11-.04.22-.04.33v2.19s-1.32,0-1.32,0v-2.31c-.01-.23-.06-.42-.15-.55s-.24-.2-.44-.2c-.21,0-.38.08-.49.25-.12.17-.17.38-.17.62v2.2s-1.33,0-1.33,0l-.02-4.05h1.29s0,.55,0,.55h.02c.05-.09.11-.17.18-.25.07-.08.16-.15.26-.22.1-.06.22-.11.34-.15s.27-.06.42-.06c.29,0,.54.06.75.18.2.12.36.29.48.51.13-.21.31-.38.52-.51.21-.13.47-.19.77-.19.28,0,.51.05.7.15.19.1.34.23.45.39.12.16.2.34.25.54.05.2.08.39.08.58v2.5s-1.32,0-1.32,0Z"/>
        <path class="cls-4" d="M125.43,111.57l-.92-.3,2.48-6.33.92.31-2.48,6.31Z"/>
        <path class="cls-4" d="M132.65,111.01c-.37.17-.8.26-1.29.26-.44,0-.86-.07-1.23-.21-.38-.14-.71-.35-.98-.62-.28-.27-.5-.59-.66-.96-.16-.37-.24-.79-.24-1.24,0-.46.08-.88.24-1.25.16-.37.38-.69.66-.96.28-.26.61-.47.99-.61.38-.14.79-.22,1.23-.22.41,0,.81.07,1.2.21.39.14.71.35.96.63l-.94.95c-.13-.18-.3-.31-.51-.4-.21-.09-.43-.13-.65-.13-.24,0-.47.05-.67.14-.2.09-.38.21-.52.37-.15.16-.26.34-.34.56-.08.21-.12.45-.12.7,0,.26.04.5.12.71s.2.4.34.56.32.27.52.36c.2.09.42.13.66.13.28,0,.52-.06.72-.17.21-.11.37-.25.5-.42l.97.91c-.25.29-.57.53-.94.7Z"/>
        <path class="cls-4" d="M138.3,109.05c0,.33-.06.63-.17.9-.12.27-.28.5-.49.69-.21.19-.44.33-.71.44-.27.1-.56.16-.87.16-.3,0-.59-.05-.87-.15-.27-.1-.51-.25-.72-.43-.2-.19-.37-.41-.49-.68s-.18-.57-.18-.9c0-.33.06-.63.17-.9.12-.27.28-.49.48-.68.2-.18.44-.33.71-.43.27-.1.56-.15.87-.15.31,0,.6.05.87.14.27.1.51.24.72.42.21.18.37.41.49.67s.18.56.18.89ZM137.02,109.05c0-.13-.02-.26-.07-.38s-.11-.23-.19-.33c-.08-.09-.18-.17-.3-.23-.12-.06-.26-.09-.41-.09s-.3.03-.42.09-.22.14-.3.23-.14.21-.18.33c-.04.12-.06.25-.06.38,0,.13.02.26.06.38.04.12.1.24.18.34.08.1.18.18.3.24.12.06.26.09.42.09s.29-.03.41-.09.22-.14.3-.24c.08-.1.14-.21.18-.34.04-.12.06-.25.06-.38Z"/>
        <path class="cls-4" d="M144.33,111.06v-2.21c0-.11-.02-.22-.04-.33-.02-.11-.05-.2-.09-.27-.04-.08-.1-.14-.18-.18-.07-.05-.17-.07-.29-.07-.11,0-.21.03-.3.07-.08.05-.15.12-.21.2-.06.08-.1.18-.13.28-.03.11-.04.22-.04.33v2.19s-1.32,0-1.32,0v-2.31c-.01-.23-.06-.42-.15-.55-.09-.13-.24-.2-.44-.2-.21,0-.38.09-.49.25-.12.17-.17.38-.17.62v2.2s-1.33,0-1.33,0l-.02-4.05h1.29s0,.55,0,.55h.02c.05-.09.11-.17.18-.25.07-.08.16-.15.26-.22s.22-.11.34-.15c.13-.04.27-.06.42-.06.29,0,.54.06.75.18.2.12.36.29.48.51.13-.21.31-.38.52-.51.21-.13.47-.19.77-.19.28,0,.51.05.7.15.19.1.34.23.45.39.12.16.2.34.25.54.05.2.08.39.08.58v2.5s-1.32,0-1.32,0Z"/>
        <path class="cls-4" d="M151.84,111.03v-2.21c0-.11-.02-.22-.04-.33-.02-.11-.05-.2-.09-.27s-.1-.14-.18-.18c-.07-.04-.17-.07-.29-.07-.11,0-.21.03-.3.07s-.15.12-.21.2c-.06.08-.1.17-.13.28-.03.11-.04.22-.04.33v2.19s-1.32,0-1.32,0v-2.31c-.01-.23-.06-.42-.15-.55-.09-.13-.24-.2-.44-.2-.21,0-.38.09-.49.25-.12.17-.17.38-.17.62v2.2s-1.33,0-1.33,0l-.02-4.05h1.29s0,.55,0,.55h.02c.05-.09.11-.17.18-.25.07-.08.16-.15.26-.22s.22-.11.34-.15c.13-.04.27-.06.42-.06.29,0,.54.06.75.17.2.12.36.29.48.51.13-.21.31-.38.52-.51.21-.13.47-.19.77-.19.28,0,.51.05.7.15.19.1.34.23.45.39.12.16.2.34.25.53.05.2.08.39.08.58v2.5s-1.32,0-1.32,0Z"/>
        <path class="cls-4" d="M158.19,109.03c0,.05,0,.11,0,.16s0,.11,0,.16h-2.93c.01.13.05.23.1.32.06.09.13.17.22.24.09.07.19.12.3.16.11.04.23.06.35.06.21,0,.39-.04.54-.12.15-.08.26-.18.36-.31l.93.58c-.19.28-.44.49-.75.64-.31.15-.67.23-1.08.23-.3,0-.59-.04-.86-.14-.27-.09-.51-.23-.71-.41s-.37-.4-.48-.67c-.12-.27-.18-.57-.18-.91,0-.33.05-.63.17-.9.11-.27.27-.5.46-.69.19-.19.42-.33.69-.44.27-.1.55-.16.86-.16.3,0,.57.05.82.15.25.1.46.24.64.43.18.19.32.42.42.69.1.27.15.58.15.93ZM156.96,108.52c0-.21-.07-.39-.2-.54-.13-.15-.33-.23-.6-.23-.13,0-.25.02-.36.06s-.2.1-.28.17c-.08.07-.15.15-.19.25-.05.1-.08.19-.08.3h1.72Z"/>
        <path class="cls-4" d="M161.64,108.04c-.06-.02-.12-.03-.17-.03-.06,0-.11,0-.17,0-.18,0-.33.03-.45.1-.12.07-.22.14-.29.24-.07.09-.12.19-.16.3s-.05.2-.05.28v2.08s-1.32,0-1.32,0l-.02-4.04h1.28s0,.58,0,.58h.02c.1-.21.25-.38.44-.51.19-.13.41-.2.66-.2.05,0,.11,0,.16,0,.05,0,.09.01.13.02l-.05,1.18Z"/>
        <path class="cls-4" d="M164.89,108.23c-.08-.1-.18-.17-.31-.23-.13-.06-.26-.09-.4-.09-.14,0-.27.03-.38.09-.11.06-.21.13-.29.23-.08.1-.14.21-.19.33-.04.12-.07.26-.07.4,0,.14.02.27.07.4.04.12.11.23.19.33.08.09.19.17.3.22.12.05.25.08.4.08.14,0,.27-.03.4-.08.13-.05.24-.13.32-.23l.74.9c-.17.16-.38.29-.65.39-.27.09-.55.14-.84.14-.32,0-.62-.05-.9-.14-.28-.1-.52-.24-.72-.42-.21-.19-.37-.41-.49-.68-.12-.27-.18-.57-.18-.9,0-.33.06-.63.17-.9.12-.27.28-.49.48-.68.2-.19.44-.33.72-.43.28-.1.57-.15.89-.15.15,0,.29.01.43.04s.28.06.42.11c.13.04.25.1.37.17.11.07.21.14.29.22l-.77.9Z"/>
        <path class="cls-4" d="M167.61,105.62c0,.1-.02.2-.06.29s-.09.17-.16.23c-.07.06-.15.12-.24.16-.09.04-.19.06-.3.06-.22,0-.4-.07-.55-.21s-.22-.32-.22-.52c0-.1.02-.19.06-.28.04-.09.09-.17.16-.23.07-.06.15-.12.24-.16.09-.04.19-.06.3-.06.1,0,.2.02.3.05.09.04.18.09.24.15.07.07.12.14.16.23.04.09.06.19.06.29ZM166.21,110.97l-.02-4.05h1.33s.02,4.04.02,4.04h-1.33Z"/>
        <path class="cls-4" d="M168.53,107.46c.24-.23.51-.4.83-.52.32-.11.64-.17.97-.17.34,0,.63.04.87.12s.43.21.58.39c.15.18.25.4.32.67.07.27.1.59.11.96v2.04s-1.21,0-1.21,0v-.43h-.03c-.1.17-.26.3-.47.39s-.43.14-.68.14c-.16,0-.33-.02-.5-.06-.17-.04-.33-.11-.48-.21-.14-.1-.26-.23-.35-.39-.09-.16-.14-.36-.14-.6,0-.29.08-.53.24-.71.16-.18.36-.32.62-.42s.53-.16.84-.2c.31-.03.61-.05.9-.05v-.06c0-.2-.07-.35-.21-.44-.14-.09-.32-.14-.52-.14-.19,0-.37.04-.55.12-.18.08-.33.18-.45.29l-.68-.72ZM170.98,109.18h-.17c-.15,0-.29,0-.44.02s-.28.04-.4.08c-.12.04-.21.09-.29.17-.07.07-.11.17-.11.29,0,.08.02.14.05.19.04.05.08.1.13.13.05.03.12.05.19.07.07.01.14.02.2.02.27,0,.48-.08.62-.23.14-.15.21-.35.21-.61v-.14Z"/>
        <path class="cls-4" d="M173.21,110.94l-.03-6.15h1.36s.03,6.14.03,6.14h-1.36Z"/>
        <path class="cls-4" d="M175.96,111.35l-.92-.3,2.48-6.33.92.31-2.48,6.31Z"/>
        <path class="cls-4" d="M180.96,110.9h-1.59s2.31-4.59,2.31-4.59h-2.72s0-1.16,0-1.16l4.18-.02v1.09s-2.18,4.68-2.18,4.68Z"/>
        <path class="cls-4" d="M188.5,109.23c0,.3-.06.57-.18.79-.12.22-.28.41-.47.56-.2.15-.43.26-.69.34-.26.07-.53.11-.81.11-.29,0-.56-.03-.82-.11-.26-.07-.49-.18-.69-.33-.2-.15-.36-.33-.48-.56-.12-.22-.18-.49-.18-.79,0-.17.02-.33.08-.48.05-.15.13-.28.22-.4s.2-.22.33-.3c.12-.08.26-.15.4-.19v-.02c-.25-.09-.46-.24-.63-.45-.17-.21-.25-.47-.26-.79,0-.27.05-.5.16-.71.11-.21.25-.38.44-.52.18-.14.4-.24.64-.32.24-.07.5-.11.76-.11.27,0,.52.03.76.1.24.07.45.17.64.3.18.13.33.3.45.51.11.2.17.44.17.7,0,.32-.08.59-.24.81-.16.22-.37.37-.63.46v.02c.15.04.28.11.4.19.12.08.23.18.32.3.09.12.17.25.22.4.05.15.08.31.08.48ZM187.14,109.18c0-.22-.08-.41-.23-.56-.15-.15-.34-.22-.57-.22-.24,0-.43.08-.58.22-.15.15-.22.33-.22.56,0,.23.08.42.23.56.15.14.34.21.58.2s.43-.07.58-.21c.15-.14.22-.33.22-.56ZM187.03,106.68c0-.19-.07-.35-.21-.47-.14-.12-.3-.18-.49-.18-.21,0-.37.06-.5.19-.12.12-.18.28-.18.47,0,.18.06.34.18.48.12.13.29.2.5.2.2,0,.37-.07.5-.21.13-.14.19-.3.19-.48Z"/>
        <path class="cls-4" d="M191.47,110.86h-1.59s2.31-4.59,2.31-4.59h-2.72s0-1.16,0-1.16l4.18-.02v1.09s-2.18,4.68-2.18,4.68Z"/>
        <path class="cls-4" d="M195.09,111.26l-.92-.3,2.48-6.33.92.31-2.48,6.31Z"/>
        <path class="cls-4" d="M197.89,109.23v-1.06s2.06,0,2.06,0v1.06s-2.06,0-2.06,0Z"/>
        <path class="cls-4" d="M29.45,119.27c0,.28-.04.55-.13.81-.08.26-.21.49-.38.69-.16.2-.37.36-.6.48-.24.12-.51.18-.81.18-.27,0-.53-.05-.77-.16-.24-.11-.43-.27-.56-.47h-.02v.53s-1.23,0-1.23,0l-.03-6.14h1.33s.01,2.52.01,2.52h.02c.11-.14.27-.26.48-.38.21-.11.46-.17.75-.17.29,0,.56.06.79.17.24.11.44.27.6.46.17.19.29.42.38.68.09.26.14.53.14.81ZM28.16,119.28c0-.13-.02-.26-.06-.38-.04-.12-.1-.23-.19-.33-.08-.09-.18-.17-.3-.23s-.26-.09-.41-.09c-.15,0-.29.03-.41.09-.12.06-.22.14-.3.24-.08.1-.15.21-.19.33-.05.12-.07.25-.07.38,0,.13.02.26.07.38.05.12.11.23.2.33.08.1.19.18.31.23.12.06.25.09.41.09.16,0,.29-.03.41-.09.12-.06.22-.14.3-.24.08-.1.14-.21.18-.34.04-.13.06-.26.06-.39Z"/>
        <path class="cls-4" d="M32.59,121.91c-.08.21-.17.4-.27.57-.1.17-.22.31-.36.42-.14.12-.3.21-.49.27-.19.06-.41.09-.66.09-.12,0-.25,0-.39-.02-.13-.01-.25-.04-.35-.06l.14-1.12c.06.02.14.04.21.05.08.01.15.02.22.02.21,0,.35-.05.45-.14.09-.09.17-.23.23-.4l.13-.33-1.71-3.98h1.48s.91,2.59.91,2.59h.02l.79-2.6h1.42s-1.79,4.66-1.79,4.66Z"/>
        <path class="cls-4" d="M34.68,119.69v-1.06s2.06,0,2.06,0v1.06s-2.06,0-2.06,0Z"/>
        <path class="cls-4" d="M40.63,121.26v-.53h-.02c-.13.21-.31.37-.55.48-.24.11-.5.17-.77.17-.3,0-.57-.06-.81-.18-.24-.12-.44-.28-.61-.47-.17-.2-.29-.42-.38-.68-.09-.26-.13-.53-.13-.81,0-.28.04-.55.13-.81s.21-.48.38-.68c.17-.2.36-.35.6-.47.24-.11.5-.17.79-.17.3,0,.55.06.76.17.21.11.37.24.48.37h.02v-2.53s1.32,0,1.32,0l.03,6.15h-1.23ZM40.57,119.23c0-.13-.02-.26-.07-.38-.05-.12-.11-.24-.2-.33-.08-.1-.19-.18-.31-.24s-.25-.09-.41-.09c-.16,0-.3.03-.42.09s-.22.14-.3.23c-.08.09-.14.21-.18.33-.04.12-.06.25-.06.38,0,.13.02.26.06.39.04.13.1.24.18.34.08.1.18.18.3.24.12.06.26.09.42.09.15,0,.29-.03.41-.09.12-.06.22-.14.3-.24.08-.1.15-.21.19-.33s.07-.25.07-.38Z"/>
        <path class="cls-4" d="M46.92,119.26v.16c0,.05,0,.11,0,.16h-2.93c.01.13.05.23.1.32.06.09.13.17.22.24.09.07.19.12.3.16.11.04.23.06.35.05.21,0,.39-.04.54-.12.15-.08.26-.18.36-.31l.93.58c-.19.28-.44.49-.75.64-.31.15-.67.23-1.08.23-.3,0-.59-.04-.86-.14-.27-.09-.51-.23-.71-.41-.2-.18-.36-.4-.48-.67-.12-.26-.18-.57-.18-.91,0-.33.05-.63.17-.9s.27-.5.46-.68c.2-.19.42-.33.69-.44.27-.1.55-.16.86-.16.3,0,.57.05.82.15.25.1.47.24.64.43.18.19.32.42.42.69.1.27.15.58.16.93ZM45.69,118.76c0-.21-.07-.39-.2-.54-.13-.15-.33-.23-.6-.23-.13,0-.25.02-.36.06-.11.04-.2.1-.28.17-.08.07-.15.15-.19.25-.05.1-.08.19-.08.3h1.72Z"/>
        <path class="cls-4" d="M50.13,118.37c-.11-.1-.24-.19-.38-.26-.15-.07-.3-.1-.46-.1-.12,0-.24.03-.34.07-.11.05-.16.13-.16.25,0,.11.06.2.18.24.12.05.3.1.57.16.15.03.31.08.46.14.15.06.29.14.42.23.12.1.23.22.3.36.08.14.12.31.12.5,0,.25-.05.47-.15.65-.1.18-.24.32-.4.43-.16.11-.35.19-.55.24-.21.05-.41.08-.62.08-.33,0-.65-.05-.97-.15-.32-.1-.58-.26-.79-.46l.75-.79c.12.13.27.24.44.32s.36.13.55.13c.11,0,.22-.03.32-.08.11-.05.16-.14.16-.27,0-.12-.07-.22-.2-.28-.13-.06-.33-.12-.61-.19-.14-.03-.28-.07-.42-.13-.14-.05-.27-.13-.38-.22-.11-.09-.2-.21-.27-.34-.07-.14-.11-.3-.11-.49,0-.24.05-.45.15-.62.1-.17.24-.31.4-.42.16-.11.34-.19.54-.24.2-.05.39-.08.59-.08.3,0,.6.04.89.14.29.09.54.24.74.42l-.73.76Z"/>
        <path class="cls-4" d="M53.02,115.87c0,.1-.02.2-.06.29-.04.09-.09.17-.16.23-.07.07-.15.12-.24.16-.09.04-.19.06-.3.06-.22,0-.4-.07-.55-.21-.15-.14-.22-.32-.22-.52,0-.1.02-.19.05-.28.04-.09.09-.17.16-.23.07-.06.15-.12.24-.16.09-.04.19-.06.3-.06.1,0,.2.02.3.05.09.04.18.09.24.15.07.07.12.14.16.23.04.09.06.19.06.29ZM51.61,121.22l-.02-4.05h1.33s.02,4.04.02,4.04h-1.33Z"/>
        <path class="cls-4" d="M58.3,120.81c0,.4-.05.74-.17,1.03-.11.29-.27.54-.48.73-.21.19-.46.34-.75.43-.29.1-.62.15-.98.15-.36,0-.72-.05-1.1-.16-.38-.11-.7-.26-.98-.47l.66-.95c.2.17.41.3.65.38.24.08.47.12.69.12.39,0,.68-.11.87-.31.19-.21.28-.48.28-.82v-.24h-.03c-.12.16-.29.29-.5.39s-.45.15-.72.15c-.31,0-.58-.05-.82-.16s-.44-.26-.61-.45c-.17-.19-.29-.41-.38-.66-.09-.25-.13-.52-.13-.8,0-.28.04-.55.13-.81.09-.25.21-.48.38-.67.16-.2.37-.35.6-.47.24-.12.51-.18.81-.18.25,0,.5.05.73.15.23.1.42.26.56.48h.02v-.52s1.26,0,1.26,0l.02,3.67ZM57.02,119.15c0-.14-.02-.27-.07-.39-.05-.12-.11-.23-.2-.33-.09-.09-.19-.17-.31-.22-.12-.05-.25-.08-.41-.08-.15,0-.29.03-.4.08-.12.05-.21.13-.29.22-.08.09-.14.2-.19.33-.04.12-.06.26-.06.4,0,.14.02.27.07.39.04.12.11.23.19.33s.18.17.3.23c.12.06.25.08.4.08.15,0,.29-.03.41-.09.12-.06.22-.13.31-.22.08-.09.15-.2.19-.33s.07-.26.07-.4Z"/>
        <path class="cls-4" d="M62.01,121.17v-2.21c0-.11-.02-.22-.04-.33-.02-.1-.05-.19-.09-.27-.04-.08-.1-.14-.18-.19-.08-.05-.18-.07-.3-.07-.12,0-.22.02-.31.07-.09.05-.16.11-.22.19-.06.08-.1.17-.13.28-.03.11-.04.21-.04.33v2.2s-1.33,0-1.33,0l-.02-4.05h1.29s0,.56,0,.56h.02c.05-.09.11-.17.19-.26.08-.08.17-.16.28-.22.11-.06.22-.11.34-.15.12-.04.26-.06.4-.06.27,0,.5.05.69.14.19.1.34.22.46.38.12.15.2.33.25.53.05.2.08.4.08.6v2.5s-1.33,0-1.33,0Z"/>
        <path class="cls-4" d="M67.55,117.86l-.11.81h.69s0,.84,0,.84h-.8s-.24,1.63-.24,1.63h-.89s.23-1.62.23-1.62h-.64s-.23,1.63-.23,1.63h-.89s.23-1.62.23-1.62h-.69s0-.84,0-.84h.8s.12-.82.12-.82h-.69s0-.84,0-.84h.8s.23-1.63.23-1.63h.9s-.23,1.62-.23,1.62h.63s.23-1.63.23-1.63h.89s-.22,1.62-.22,1.62h.68s0,.84,0,.84h-.8ZM66.02,117.87l-.1.81h.63s.11-.82.11-.82h-.64Z"/>
        <path class="cls-4" d="M70.7,118.08v1.55c0,.19.04.33.12.43.07.09.21.14.39.14.07,0,.13,0,.21-.02s.13-.03.18-.05l.02.98c-.09.03-.21.06-.35.09-.14.02-.28.04-.42.04-.27,0-.5-.03-.68-.1-.18-.07-.33-.17-.44-.29-.11-.13-.19-.28-.24-.45-.05-.18-.08-.37-.08-.59v-1.71s-.66,0-.66,0v-.99s.64,0,.64,0v-1.07s1.31,0,1.31,0v1.07s.96,0,.96,0v.99s-.95,0-.95,0Z"/>
        <path class="cls-4" d="M72.22,117.63c.24-.23.51-.4.83-.52.32-.12.64-.17.97-.17.34,0,.63.04.87.12s.43.21.58.39c.15.18.25.4.32.67.07.27.1.59.11.95v2.04s-1.21,0-1.21,0v-.43h-.03c-.1.17-.26.3-.47.39-.21.09-.43.14-.68.14-.16,0-.33-.02-.5-.06-.17-.04-.33-.11-.48-.21-.14-.1-.26-.23-.36-.39s-.14-.36-.14-.6c0-.29.08-.53.24-.71.16-.18.37-.32.62-.42.25-.1.53-.16.84-.2.31-.03.61-.05.9-.05v-.06c0-.2-.07-.35-.21-.44-.14-.09-.32-.14-.52-.14-.19,0-.37.04-.55.12-.18.08-.33.18-.45.29l-.68-.72ZM74.67,119.35h-.17c-.15,0-.29,0-.44.02-.15.01-.28.04-.4.08-.12.04-.21.09-.29.17-.08.07-.11.17-.11.29,0,.08.02.14.05.2s.08.1.13.13c.06.03.12.05.19.07s.14.02.2.02c.27,0,.48-.08.62-.23.14-.15.21-.35.21-.61v-.14Z"/>
        <path class="cls-4" d="M81.4,119.05c0,.28-.04.55-.13.81-.08.26-.21.49-.38.69-.16.2-.37.36-.6.48s-.51.18-.81.18c-.27,0-.53-.05-.77-.16-.24-.11-.43-.27-.56-.47h-.02v.53s-1.23,0-1.23,0l-.03-6.15h1.33s.01,2.52.01,2.52h.02c.11-.14.27-.26.48-.38.21-.11.46-.17.75-.17.29,0,.56.06.79.17.24.11.44.27.6.46.17.19.29.42.38.68.09.26.14.53.14.81ZM80.11,119.05c0-.13-.02-.26-.06-.38-.04-.12-.1-.23-.19-.33-.08-.09-.18-.17-.3-.23s-.26-.09-.41-.09c-.15,0-.29.03-.41.09s-.22.14-.3.24c-.08.1-.15.21-.19.33-.05.12-.07.25-.07.38,0,.13.02.26.07.38s.11.23.2.33c.08.1.19.18.31.24.12.06.25.09.41.09.16,0,.29-.03.41-.09.12-.06.22-.14.3-.24.08-.1.14-.21.18-.34.04-.13.06-.26.06-.39Z"/>
        <path class="cls-4" d="M84.62,118.22c-.11-.1-.24-.19-.38-.26-.15-.07-.3-.1-.46-.1-.12,0-.24.03-.34.08-.11.05-.16.13-.16.25,0,.11.06.19.18.24.12.05.3.1.57.16.15.03.31.08.46.14.15.06.29.14.42.23.12.1.23.22.3.36.08.14.12.31.12.5,0,.25-.05.47-.15.65s-.24.32-.4.43-.35.19-.56.24c-.21.05-.41.08-.62.08-.33,0-.65-.05-.97-.15-.32-.1-.58-.26-.79-.46l.75-.79c.12.13.27.24.44.32.17.08.36.13.55.13.11,0,.22-.03.32-.08.11-.05.16-.14.16-.27,0-.12-.07-.22-.2-.28-.13-.06-.33-.12-.61-.18-.14-.03-.28-.07-.42-.13-.14-.05-.27-.13-.38-.22-.11-.09-.2-.21-.27-.34s-.11-.3-.11-.49c0-.24.05-.45.15-.62.1-.17.24-.31.4-.42.16-.11.34-.19.54-.24.2-.05.39-.08.59-.08.3,0,.6.04.89.14.29.09.54.23.74.42l-.73.76Z"/>
        <path class="cls-4" d="M85.85,119.47v-1.06s2.06,0,2.06,0v1.06s-2.06,0-2.06,0Z"/>
        <path class="cls-4" d="M88.67,117.56c.24-.23.51-.4.83-.52.32-.11.64-.17.97-.17.34,0,.63.04.87.12s.43.21.58.39c.15.18.25.4.32.67.07.27.1.59.11.95v2.04s-1.21,0-1.21,0v-.43h-.03c-.1.17-.26.3-.47.39-.21.09-.43.14-.68.14-.16,0-.33-.02-.5-.06-.17-.04-.33-.11-.48-.21-.14-.1-.26-.23-.35-.39s-.14-.36-.14-.6c0-.29.08-.53.24-.71.16-.18.37-.32.62-.42.25-.1.53-.17.84-.2.31-.03.61-.05.9-.05v-.06c0-.2-.07-.35-.21-.44-.14-.09-.32-.14-.52-.14-.19,0-.37.04-.55.12-.18.08-.33.18-.45.29l-.68-.72ZM91.12,119.28h-.17c-.15,0-.29,0-.44.02-.15.01-.28.04-.4.08-.12.04-.21.09-.29.17-.08.07-.11.17-.11.29,0,.08.02.14.05.2.04.05.08.1.13.13.06.03.12.06.19.07.07.01.14.02.2.02.27,0,.48-.08.62-.23.14-.15.21-.35.21-.61v-.14Z"/>
        <path class="cls-4" d="M97.35,119.04v.16c0,.05,0,.11,0,.16h-2.93c.01.13.05.23.1.32.06.09.13.17.22.24.09.07.19.12.3.16.11.04.23.06.35.05.21,0,.39-.04.54-.12.15-.08.26-.18.36-.31l.93.58c-.19.28-.44.49-.75.64-.31.15-.67.23-1.08.23-.3,0-.59-.04-.86-.14-.27-.09-.51-.23-.71-.41-.2-.18-.36-.4-.48-.67-.12-.26-.18-.57-.18-.91,0-.33.05-.63.17-.9s.27-.5.46-.68c.2-.19.42-.33.69-.44.27-.1.55-.16.86-.16.3,0,.57.05.82.15.25.1.47.24.64.43.18.19.32.42.42.69.1.27.15.58.16.93ZM96.12,118.54c0-.21-.07-.39-.2-.54-.13-.15-.33-.23-.6-.23-.13,0-.25.02-.36.06-.11.04-.2.1-.28.17-.08.07-.15.15-.19.25-.05.1-.08.19-.08.3h1.72Z"/>
        <path class="cls-4" d="M99.96,121.01l-.02-4.23-1.07.83-.71-.96,1.89-1.4h1.25s.02,5.75.02,5.75h-1.36Z"/>
        <path class="cls-4" d="M103.36,117.5c.24-.23.51-.4.83-.52.32-.11.64-.17.97-.17.34,0,.63.04.87.12s.43.21.58.39c.15.18.25.4.32.67.07.27.1.59.11.95v2.04s-1.21,0-1.21,0v-.43h-.03c-.1.17-.26.3-.47.39-.21.09-.43.14-.68.14-.16,0-.33-.02-.5-.06-.17-.04-.33-.11-.48-.21-.14-.1-.26-.23-.36-.39s-.14-.36-.14-.6c0-.29.08-.53.24-.71.16-.18.37-.32.62-.42.25-.1.53-.17.84-.2.31-.03.61-.05.9-.05v-.06c0-.2-.07-.35-.21-.44-.14-.09-.32-.14-.52-.14-.19,0-.37.04-.55.12-.18.08-.33.18-.45.29l-.68-.72ZM105.82,119.22h-.17c-.15,0-.29,0-.44.02-.15.01-.28.04-.4.08-.12.04-.21.09-.29.17-.08.07-.11.17-.11.29,0,.08.02.14.05.2.04.05.08.1.13.13.06.03.12.06.19.07.07.01.14.02.2.02.27,0,.48-.08.62-.23.14-.15.21-.35.21-.61v-.14Z"/>
        <path class="cls-4" d="M111.1,120.96v-.53s-.02,0-.02,0c-.13.21-.31.37-.55.48-.24.11-.5.17-.77.17-.3,0-.57-.06-.81-.18-.24-.12-.44-.28-.61-.47s-.29-.43-.38-.69-.13-.53-.13-.81c0-.28.04-.55.13-.81.09-.26.21-.48.38-.68.17-.2.36-.35.6-.47.24-.11.5-.17.79-.17.3,0,.55.06.76.17.21.11.37.24.48.37h.02v-2.53s1.32,0,1.32,0l.03,6.15h-1.23ZM111.05,118.93c0-.13-.02-.26-.07-.38-.05-.12-.11-.24-.2-.33-.08-.1-.19-.17-.31-.24-.12-.06-.25-.09-.41-.09-.16,0-.3.03-.42.09s-.22.14-.3.23c-.08.09-.14.21-.18.33-.04.12-.06.25-.06.38,0,.13.02.26.06.39.04.13.1.24.18.34.08.1.18.18.3.24.12.06.26.09.42.09.15,0,.29-.03.41-.09.12-.06.22-.14.3-.24.08-.1.15-.21.19-.33s.07-.25.07-.38Z"/>
        <path class="cls-4" d="M117.74,119c0,.33-.06.62-.17.88-.12.26-.28.48-.48.66-.21.18-.45.32-.72.41-.27.1-.57.15-.88.15-.31,0-.61-.04-.88-.14-.27-.09-.51-.23-.72-.41s-.37-.39-.49-.65c-.12-.25-.18-.54-.18-.85,0-.34.06-.65.17-.93.12-.28.27-.56.46-.85l1.38-2.08h1.65s-1.41,1.97-1.41,1.97l-.02.04c.05-.02.12-.04.19-.05.08-.01.15-.02.21-.02.25,0,.49.04.72.13.23.09.43.21.6.38.17.16.31.36.41.59.1.23.16.49.16.77ZM116.38,119.04c0-.26-.08-.48-.25-.65s-.38-.25-.65-.25-.49.09-.66.25c-.17.17-.25.39-.25.66,0,.25.08.46.25.64.17.18.38.27.66.27.27,0,.49-.09.66-.26.17-.17.25-.39.25-.67Z"/>
        <path class="cls-4" d="M121.7,120.92v-.53h-.02c-.13.21-.31.37-.55.48-.24.11-.5.17-.77.17-.3,0-.57-.06-.81-.18-.24-.12-.44-.28-.61-.47s-.29-.43-.38-.69-.13-.53-.13-.81c0-.28.04-.55.13-.81.09-.26.21-.48.38-.68.17-.2.36-.35.6-.47.24-.11.5-.17.79-.17.3,0,.55.05.76.17.21.11.37.24.48.37h.02v-2.53s1.32,0,1.32,0l.03,6.15h-1.23ZM121.65,118.88c0-.13-.02-.26-.07-.38-.05-.12-.11-.23-.2-.33-.08-.1-.19-.17-.31-.24-.12-.06-.25-.09-.41-.09-.16,0-.3.03-.42.09s-.22.14-.3.23c-.08.1-.14.21-.18.33-.04.12-.06.25-.06.38,0,.13.02.26.06.39.04.13.1.24.18.34.08.1.18.18.3.24.12.06.26.09.42.09.15,0,.29-.03.41-.09.12-.06.22-.14.3-.24.08-.1.15-.21.19-.33s.07-.25.07-.38Z"/>
        <path class="cls-4" d="M125.96,120.9h-1.59s2.31-4.59,2.31-4.59h-2.72s0-1.16,0-1.16l4.18-.02v1.09s-2.18,4.68-2.18,4.68Z"/>
        <path class="cls-4" d="M133.49,119.22c0,.3-.06.57-.17.79-.12.23-.28.41-.47.56-.2.15-.43.26-.69.34-.26.07-.53.11-.81.11-.29,0-.56-.03-.82-.11-.26-.07-.49-.18-.69-.33-.2-.15-.36-.33-.48-.56s-.18-.49-.18-.79c0-.17.03-.33.08-.48.05-.15.13-.28.22-.4.09-.12.2-.22.33-.3.12-.08.26-.15.4-.19v-.02c-.25-.09-.46-.24-.63-.45-.17-.21-.25-.47-.26-.79,0-.27.05-.5.16-.71.11-.21.25-.38.44-.52.18-.14.4-.24.64-.32.24-.07.5-.11.76-.11s.52.03.76.1c.24.07.45.17.64.3.19.13.33.3.45.51.11.2.17.44.17.7,0,.32-.08.59-.24.81-.16.22-.37.37-.63.46v.02c.15.04.28.11.4.19.12.08.23.18.32.3s.17.25.22.4.08.31.08.47ZM132.14,119.18c0-.22-.08-.41-.23-.56-.15-.15-.34-.22-.57-.22-.24,0-.43.08-.58.22-.15.15-.22.33-.22.56,0,.23.08.42.23.56.15.14.34.21.58.21s.43-.07.58-.21c.15-.14.22-.33.22-.56ZM132.02,116.68c0-.19-.07-.35-.21-.47-.14-.12-.3-.19-.49-.18-.21,0-.37.06-.5.19-.12.13-.19.28-.18.47,0,.18.06.34.18.48.12.14.29.2.5.2.2,0,.37-.07.5-.21.13-.14.19-.3.19-.48Z"/>
        <path class="cls-4" d="M138.71,119.17c0,.31-.06.59-.19.82-.13.23-.29.42-.5.57-.21.15-.44.26-.69.34-.26.08-.52.11-.78.11-.26,0-.51-.03-.76-.09-.25-.06-.47-.15-.68-.27-.2-.12-.38-.28-.53-.47-.15-.19-.27-.42-.34-.69l1.27-.34c.06.19.17.36.34.5.17.14.38.21.64.21.1,0,.2-.01.3-.04.1-.03.19-.07.27-.13.08-.06.14-.13.19-.22.05-.09.08-.21.08-.34,0-.15-.04-.27-.1-.37-.07-.1-.16-.17-.27-.23-.11-.06-.24-.1-.38-.12-.14-.02-.28-.04-.42-.03h-.37s0-.99,0-.99h.4c.13,0,.25-.01.37-.03.12-.02.23-.06.32-.11.09-.05.17-.12.23-.21.06-.09.09-.2.08-.34,0-.21-.08-.37-.22-.47-.15-.11-.32-.16-.5-.16-.2,0-.37.06-.51.18-.14.12-.24.27-.28.47l-1.27-.29c.07-.24.17-.46.31-.64s.31-.33.5-.46c.19-.12.4-.22.63-.28.23-.06.46-.1.7-.1.25,0,.5.03.75.09.24.06.46.16.65.3s.34.3.46.51c.12.2.18.44.18.72,0,.32-.09.59-.27.81-.18.22-.41.37-.69.45v.02c.16.04.31.1.45.18.13.08.25.18.35.3.1.12.17.25.23.39.05.14.08.29.08.46Z"/>
        <path class="cls-4" d="M139.51,119.24v-1.06s2.06,0,2.06,0v1.06s-2.06,0-2.06,0Z"/>
        <path class="cls-4" d="M143.82,115.48c0,.1-.02.2-.06.29-.04.09-.09.17-.16.23-.07.06-.15.12-.24.16-.09.04-.19.06-.3.06-.22,0-.4-.07-.55-.21-.15-.14-.22-.32-.22-.52,0-.1.02-.19.05-.28.04-.09.09-.17.16-.23.07-.06.15-.12.24-.16.09-.04.19-.06.3-.06s.2.02.3.06c.09.04.18.09.24.15s.12.14.16.23c.04.09.06.19.06.29ZM142.41,120.83l-.02-4.05h1.33s.02,4.04.02,4.04h-1.33Z"/>
        <path class="cls-4" d="M146.24,117.75v1.55c0,.19.04.33.12.43.07.1.21.14.39.14.07,0,.13,0,.21-.02.07-.01.13-.03.18-.05l.02.98c-.09.03-.21.06-.35.09-.14.03-.28.04-.42.04-.27,0-.5-.03-.68-.1-.18-.07-.33-.16-.44-.29-.11-.13-.19-.28-.24-.46s-.08-.37-.08-.59v-1.71s-.66,0-.66,0v-.99s.64,0,.64,0v-1.07s1.31,0,1.31,0v1.07s.96,0,.96,0v.99s-.95,0-.95,0Z"/>
        <path class="cls-4" d="M151.83,118.81v.16c0,.05,0,.11,0,.16h-2.93c.01.13.05.23.1.32.06.09.13.17.22.24.09.07.19.12.3.16.11.04.23.06.35.06.21,0,.39-.04.54-.12.15-.08.26-.18.36-.31l.93.58c-.19.28-.44.49-.75.64-.31.15-.67.23-1.08.23-.3,0-.59-.04-.86-.14-.27-.09-.51-.23-.71-.41-.2-.18-.36-.4-.48-.67-.12-.26-.18-.57-.18-.91,0-.33.05-.63.17-.9s.27-.5.46-.68c.2-.19.42-.33.69-.44.27-.1.55-.16.86-.16.3,0,.57.05.82.15.25.1.47.24.64.43.18.19.32.42.42.69.1.27.15.58.16.93ZM150.6,118.3c0-.21-.07-.39-.2-.54-.13-.15-.33-.23-.6-.23-.13,0-.25.02-.36.06-.11.04-.2.1-.28.17-.08.07-.15.15-.19.25-.05.1-.08.19-.08.3h1.72Z"/>
        <path class="cls-4" d="M157.84,120.76v-2.21c0-.11-.02-.22-.04-.33-.02-.11-.05-.2-.09-.27-.04-.08-.1-.14-.18-.18-.07-.05-.17-.07-.29-.07-.11,0-.21.03-.3.08-.08.05-.15.11-.21.2-.06.08-.1.18-.13.28-.03.11-.04.22-.04.33v2.19s-1.33,0-1.33,0v-2.31c-.01-.23-.06-.42-.15-.55-.09-.13-.24-.2-.44-.2-.21,0-.38.08-.49.25-.12.17-.17.38-.17.62v2.2s-1.33,0-1.33,0l-.02-4.05h1.29s0,.55,0,.55h.02c.05-.09.11-.17.18-.25.07-.08.16-.15.26-.22.1-.06.22-.11.34-.15s.27-.06.42-.06c.29,0,.54.06.75.18.2.12.36.29.48.51.13-.21.31-.38.52-.51.21-.13.47-.19.77-.19.28,0,.51.05.7.15.19.1.34.23.45.39.12.16.2.34.25.53.05.2.08.39.08.58v2.5s-1.32,0-1.32,0Z"/>
        <path class="cls-4" d="M159.95,119.15v-1.06s2.06,0,2.06,0v1.06s-2.06,0-2.06,0Z"/>
        <path class="cls-4" d="M166.84,118.74v.16c0,.05,0,.11,0,.16h-2.93c.01.13.05.23.1.32.06.09.13.17.22.24s.19.12.3.16c.11.04.23.06.35.06.21,0,.39-.04.54-.12.15-.08.26-.18.36-.31l.93.58c-.19.28-.44.49-.75.64-.31.15-.67.23-1.08.23-.3,0-.59-.04-.86-.14-.27-.09-.51-.23-.71-.41-.2-.18-.36-.4-.48-.67-.12-.27-.18-.57-.18-.91,0-.33.05-.63.17-.9.11-.27.27-.5.46-.68.2-.19.42-.33.69-.44.27-.11.55-.16.86-.16.3,0,.57.05.82.15.25.1.47.24.64.43.18.19.32.42.42.69s.15.58.16.93ZM165.61,118.24c0-.21-.07-.39-.2-.54s-.33-.23-.6-.22c-.13,0-.25.02-.36.06-.11.04-.2.1-.28.17-.08.07-.15.15-.19.25-.05.1-.08.2-.08.3h1.72Z"/>
        <path class="cls-4" d="M167.56,117.22c.24-.23.51-.4.83-.52.32-.11.64-.17.97-.17.34,0,.63.04.87.12s.43.21.58.39c.15.18.25.4.32.67.07.27.1.59.11.95v2.04s-1.21,0-1.21,0v-.43h-.03c-.1.17-.26.3-.47.39-.21.09-.43.14-.68.14-.16,0-.33-.02-.5-.06-.17-.04-.33-.11-.48-.21-.14-.1-.26-.23-.36-.39s-.14-.36-.14-.6c0-.29.08-.53.24-.71.16-.18.37-.32.62-.42.25-.1.53-.17.84-.2.31-.03.61-.05.9-.05v-.06c0-.2-.07-.35-.21-.44-.14-.09-.32-.14-.52-.14-.19,0-.37.04-.55.12-.18.08-.33.18-.45.29l-.68-.72ZM170.01,118.94h-.17c-.15,0-.29,0-.44.02-.15.01-.28.04-.4.08-.12.04-.21.09-.29.17-.08.07-.11.17-.11.29,0,.08.02.14.05.2.04.05.08.1.13.13.06.03.12.06.19.07.07.01.14.02.2.02.27,0,.48-.08.62-.23.14-.15.21-.35.21-.61v-.14Z"/>
        <path class="cls-4" d="M175.02,117.94c-.08-.1-.18-.18-.31-.23-.13-.06-.26-.09-.4-.09-.14,0-.27.03-.38.09-.11.06-.21.13-.29.23-.08.09-.14.2-.19.33-.05.12-.07.26-.07.4,0,.14.02.27.07.4.04.12.11.23.19.33.08.09.18.17.3.22.12.05.25.08.39.08.14,0,.27-.03.4-.08.13-.05.24-.13.32-.23l.74.9c-.17.16-.38.29-.65.39-.26.09-.55.14-.84.14-.32,0-.62-.05-.9-.14-.28-.1-.52-.24-.72-.42-.2-.19-.37-.41-.49-.68-.12-.26-.18-.57-.18-.9,0-.33.06-.63.17-.9.12-.27.28-.49.48-.68.2-.19.44-.33.72-.43.28-.1.57-.15.89-.15.15,0,.29.01.43.04.14.03.28.06.42.11.13.05.25.1.37.17.11.07.21.14.29.22l-.77.9Z"/>
        <path class="cls-4" d="M179.99,119.54v1.12s-1.27,0-1.27,0v-1.12s-2.71.01-2.71.01v-1.15s2.32-3.5,2.32-3.5h1.63s.01,3.52.01,3.52h.8s0,1.1,0,1.1h-.79ZM178.7,116.31h-.02l-1.36,2.14h1.39s0-2.14,0-2.14Z"/>
        <path class="cls-4" d="M184.64,120.64v-.53h-.02c-.13.21-.31.37-.55.48-.24.11-.5.17-.77.17-.3,0-.57-.06-.81-.18-.24-.12-.44-.28-.61-.47-.17-.2-.29-.42-.38-.68-.09-.26-.13-.53-.13-.81,0-.28.04-.55.13-.81s.21-.48.38-.68c.17-.2.36-.35.6-.47.24-.11.5-.17.79-.17.3,0,.55.06.76.17.21.11.37.24.48.37h.02v-2.53s1.32,0,1.32,0l.03,6.15h-1.23ZM184.58,118.61c0-.13-.02-.26-.07-.38-.05-.12-.11-.24-.2-.33-.08-.1-.19-.18-.31-.24s-.25-.09-.41-.09c-.16,0-.3.03-.42.09-.12.06-.22.14-.3.23-.08.09-.14.2-.18.33-.04.12-.06.25-.06.38,0,.13.02.26.06.39.04.13.1.24.18.34.08.1.18.18.3.23.12.06.26.09.42.09.15,0,.29-.03.41-.09.12-.06.22-.14.3-.24.08-.1.15-.21.19-.33.04-.13.07-.25.07-.38Z"/>
        <path class="cls-4" d="M189.71,117.88c-.08-.1-.18-.18-.31-.23-.13-.06-.26-.09-.4-.09-.14,0-.27.03-.38.09-.11.06-.21.13-.29.23-.08.09-.14.2-.19.33-.05.12-.07.26-.07.4,0,.14.02.27.07.4.04.12.11.23.19.33.08.09.18.17.3.22.12.05.25.08.39.08.14,0,.27-.03.4-.08.13-.05.24-.13.32-.22l.74.9c-.17.16-.38.29-.65.39-.26.09-.55.14-.84.14-.32,0-.62-.05-.9-.14-.28-.1-.52-.24-.72-.42-.2-.19-.37-.41-.49-.68-.12-.26-.18-.57-.18-.9,0-.33.06-.63.17-.9.12-.27.28-.49.48-.68.2-.19.44-.33.72-.43.28-.1.57-.15.89-.15.15,0,.29.01.43.04.14.03.28.06.42.11.13.05.25.1.37.17.11.07.21.14.29.22l-.77.9Z"/>
        <path class="cls-4" d="M195.52,118.55c0,.28-.04.55-.13.81-.08.26-.21.49-.38.69-.16.2-.37.36-.6.48-.24.12-.51.18-.81.18-.27,0-.53-.05-.77-.16-.24-.11-.43-.27-.56-.47h-.02v.53s-1.23,0-1.23,0l-.03-6.15h1.33s.01,2.52.01,2.52h.02c.11-.14.27-.26.48-.38.21-.11.46-.17.75-.17.29,0,.56.06.79.17.24.11.44.27.6.46s.29.42.38.68c.09.26.14.53.14.81ZM194.23,118.56c0-.13-.02-.26-.06-.38-.04-.12-.1-.23-.19-.33-.08-.09-.18-.17-.3-.23-.12-.06-.26-.09-.41-.09-.15,0-.29.03-.41.09s-.22.14-.3.24c-.08.1-.15.21-.19.33-.05.12-.07.25-.07.38,0,.13.02.26.07.38s.11.23.2.33c.08.1.19.18.31.24.12.06.25.09.41.09.16,0,.29-.03.41-.09.12-.06.22-.14.3-.24.08-.1.14-.21.18-.34.04-.13.06-.26.06-.39Z"/>
        <path class="cls-4" d="M200.58,118.9c0,.31-.06.59-.19.82-.13.23-.29.42-.5.57-.21.15-.44.26-.69.34-.26.07-.52.11-.78.11-.26,0-.51-.03-.76-.08-.25-.06-.47-.15-.68-.27-.2-.12-.38-.28-.53-.47s-.27-.42-.34-.69l1.27-.34c.06.19.17.36.34.5.17.14.38.21.64.21.1,0,.2-.01.3-.04s.19-.07.27-.13c.08-.06.14-.13.19-.22.05-.09.08-.21.08-.34,0-.15-.04-.27-.1-.37-.07-.1-.16-.17-.27-.23-.11-.06-.24-.1-.38-.12-.14-.02-.28-.04-.42-.03h-.37s0-.99,0-.99h.4c.13,0,.25-.01.37-.03s.23-.06.32-.11c.09-.05.17-.12.23-.21.06-.09.09-.2.08-.34,0-.21-.08-.36-.22-.47-.15-.11-.32-.16-.5-.16-.2,0-.37.06-.51.18-.14.12-.24.27-.28.47l-1.27-.29c.07-.25.17-.46.31-.64.14-.18.31-.33.5-.46.19-.12.4-.22.63-.28.23-.06.46-.1.7-.1.25,0,.5.03.75.09.24.06.46.16.65.3s.34.3.46.51c.12.2.18.44.18.72,0,.32-.09.59-.27.81s-.41.37-.69.45v.02c.16.04.31.1.45.18.13.08.25.18.35.3.1.12.17.25.23.39.05.14.08.3.08.46Z"/>
        <path class="cls-4" d="M205.97,118.62c0,.33-.06.62-.17.88-.12.26-.28.48-.48.66-.21.18-.45.32-.72.41-.27.1-.57.14-.88.15-.31,0-.61-.04-.88-.14-.27-.09-.51-.23-.72-.41s-.37-.39-.49-.65c-.12-.25-.18-.54-.18-.85,0-.34.06-.65.17-.93s.27-.56.46-.85l1.38-2.08h1.65s-1.41,1.97-1.41,1.97l-.02.04c.05-.02.12-.04.19-.05.08-.01.15-.02.21-.02.25,0,.49.04.72.13.23.09.43.21.6.38.17.16.31.36.41.59.1.23.16.49.16.77ZM204.62,118.65c0-.26-.08-.48-.25-.65s-.38-.25-.65-.25c-.27,0-.49.09-.66.25-.17.17-.25.39-.25.66,0,.25.08.46.25.64.17.18.38.27.66.27.27,0,.49-.09.66-.26.17-.17.25-.39.25-.67Z"/>
        <path class="cls-4" d="M211.09,118.86c0,.31-.06.59-.19.82-.13.23-.29.42-.5.57-.21.15-.44.26-.69.34-.26.07-.52.11-.78.11-.26,0-.51-.03-.76-.09-.25-.06-.47-.15-.68-.27-.2-.12-.38-.28-.53-.47-.15-.19-.27-.42-.34-.69l1.27-.34c.06.19.17.36.34.5.17.14.38.21.64.21.1,0,.2-.01.3-.04.1-.03.19-.07.27-.13.08-.06.14-.13.19-.22.05-.09.08-.21.08-.34,0-.15-.04-.27-.1-.37-.07-.1-.16-.17-.27-.23-.11-.06-.24-.1-.38-.12-.14-.02-.28-.04-.42-.04h-.37s0-.99,0-.99h.4c.13,0,.25-.01.37-.03.12-.02.23-.06.32-.11.09-.05.17-.12.23-.21.06-.09.09-.2.08-.34,0-.21-.08-.37-.22-.47-.15-.11-.32-.16-.5-.16-.2,0-.37.06-.51.18-.14.12-.24.27-.28.47l-1.27-.29c.07-.24.17-.46.31-.64.14-.18.31-.33.5-.46.19-.12.4-.22.63-.28.23-.06.46-.1.7-.1.25,0,.5.03.75.09.24.06.46.16.65.3.19.13.34.3.46.51.12.2.18.44.18.72,0,.32-.09.59-.27.81-.18.22-.41.37-.69.45v.02c.16.04.31.1.45.18.13.08.25.18.35.3s.17.25.23.39c.05.14.08.3.08.46Z"/>
        <path class="cls-4" d="M211.89,118.92v-1.06s2.06,0,2.06,0v1.06s-2.06,0-2.06,0Z"/>
        <path class="cls-4" d="M216.21,117.45v1.55c0,.19.04.33.12.43.07.1.21.14.39.14.07,0,.13,0,.21-.02.07-.01.13-.03.18-.05l.02.98c-.09.03-.21.06-.35.09s-.28.04-.42.04c-.27,0-.5-.03-.68-.1-.18-.07-.33-.17-.44-.29-.11-.13-.19-.28-.24-.46-.05-.18-.08-.37-.08-.59v-1.71s-.66,0-.66,0v-.99s.64,0,.64,0v-1.07s1.31,0,1.31,0v1.07s.96,0,.96,0v.99s-.95,0-.95,0Z"/>
        <path class="cls-4" d="M217.73,117.01c.24-.23.51-.4.83-.52.32-.11.64-.17.97-.17.34,0,.63.04.87.12s.43.21.58.39c.15.18.25.4.32.67.07.27.1.59.11.95v2.04s-1.21,0-1.21,0v-.43h-.03c-.1.17-.26.3-.47.39-.21.09-.43.14-.68.14-.16,0-.33-.02-.5-.06-.17-.04-.33-.11-.48-.21-.14-.1-.26-.23-.35-.39-.09-.16-.14-.36-.14-.6,0-.29.08-.53.24-.71.16-.18.37-.32.62-.42.25-.1.53-.17.84-.2.31-.03.61-.05.9-.05v-.06c0-.2-.07-.35-.21-.44-.14-.09-.32-.14-.52-.14-.19,0-.37.04-.55.12-.18.08-.33.18-.45.29l-.68-.72ZM220.19,118.72h-.17c-.15,0-.29,0-.44.02-.15.01-.28.04-.4.08-.12.04-.21.09-.29.17-.08.07-.11.17-.11.29,0,.08.02.14.05.2.04.05.08.1.13.13.06.03.12.06.19.07.07.01.14.02.2.02.27,0,.48-.08.62-.23.14-.15.21-.35.21-.61v-.14Z"/>
        <path class="cls-4" d="M226.91,118.42c0,.28-.04.55-.13.81-.08.26-.21.49-.38.69-.16.2-.37.36-.6.48s-.51.18-.81.18c-.27,0-.53-.05-.77-.16-.24-.11-.43-.27-.56-.47h-.02s0,.53,0,.53h-1.23s-.03-6.14-.03-6.14h1.33s.01,2.52.01,2.52h.02c.11-.14.27-.26.48-.38.21-.11.46-.17.75-.17.29,0,.56.05.79.17.24.11.44.27.6.46s.29.42.38.68c.09.26.14.53.14.81ZM225.62,118.42c0-.13-.02-.26-.06-.38-.04-.12-.1-.23-.19-.33-.08-.09-.18-.17-.3-.23-.12-.06-.26-.09-.41-.09-.15,0-.29.03-.41.09s-.22.14-.3.24c-.08.1-.15.21-.19.33-.05.12-.07.25-.07.38,0,.13.02.26.07.38s.11.24.2.33c.08.1.19.18.31.24.12.06.25.09.41.09.16,0,.29-.03.41-.09.12-.06.22-.14.3-.24.08-.1.14-.21.18-.34.04-.13.06-.26.06-.39Z"/>
      </g>
      <g>
        <path class="cls-9" d="M202.38,20.88c.06-.06.98-.07,1.04,0,.6.33.41,1.18,0,1.29-.3.11-1.59-.02-1.77-.05-.07-.05.65-1.19.72-1.24Z"/>
        <path class="cls-9" d="M202.31,14.99c.06.05.98.06,1.04,0,.6-.33.4-1.19,0-1.29-.3-.11-1.59.03-1.77.06-.07.05.66,1.18.73,1.24Z"/>
        <path class="cls-9" d="M203.48,18.97s-5.18,8.96-5.28,9.14c-.88,1.11-1.6,1.14-1.6,1.14,0,0,.49-.3.93-1.45.21-.52,1.7-4.19,1.92-6.01,0-.35-.03-2.18-.07-2.63l-.89-.16,4.98-.02Z"/>
        <path class="cls-9" d="M203.43,16.88s-5.26-8.91-5.35-9.09c-.89-1.1-1.61-1.12-1.61-1.12,0,0,.49.3.94,1.44.21.52,1.74,4.18,1.97,5.99,0,.35,0,2.18-.05,2.63l-.89.17,4.98-.02Z"/>
        <path class="cls-9" d="M210.54,17.93c0,.25-.65.81-2.29,1.01-.18,0-13.01.1-13.5.06-.84-.05-1.88-.33-1.97-.32-.39.11-1.93,2.43-2.28,2.89-.06.04-.63.24-.79.2.6-1.66,1.03-3.3,1.05-3.43-.04-.04-.71-.2-1.02-.28-.06-.02-.06-.1,0-.12l1.07-.32s-.49-1.51-1.12-3.4c.13.02.61,0,.74.12.04.06,1.9,2.94,2.34,2.94.1.01,1.06-.2,1.79-.32.14-.02.29-.04.43-.04,1.68,0,12.94,0,13.23,0,1.47.09,2.33.77,2.33,1.02Z"/>
      </g>
      <text class="cls-11" transform="translate(286.71 22.5) rotate(-.25) scale(.91 1)"><tspan class="cls-2" x="0" y="0">B</tspan><tspan class="cls-17" x="8.29" y="0">O</tspan><tspan class="cls-2" x="18.41" y="0">ARDING </tspan><tspan class="cls-12" x="72.53" y="0">P</tspan><tspan class="cls-2" x="79.91" y="0">ASS</tspan></text>
      <g>
        <g>
          <rect class="cls-3" x="306.46" y="34.99" width="13.87" height="13.15" transform="translate(-.18 1.35) rotate(-.25)"/>
          <rect class="cls-5" x="312.52" y="44.73" width="1.39" height="2.44" transform="translate(-.19 1.32) rotate(-.24)"/>
          <rect class="cls-5" x="312.5" y="40.35" width="1.39" height="2.44" transform="translate(-.17 1.32) rotate(-.24)"/>
          <rect class="cls-5" x="312.48" y="35.99" width="1.39" height="2.44" transform="translate(-.15 1.32) rotate(-.24)"/>
        </g>
        <g>
          <rect class="cls-3" x="306.52" y="48.14" width="13.87" height="13.15" transform="translate(-.23 1.35) rotate(-.25)"/>
          <rect class="cls-5" x="312.57" y="57.89" width="1.39" height="2.44" transform="translate(-.26 1.38) rotate(-.25)"/>
          <rect class="cls-5" x="312.55" y="53.51" width="1.39" height="2.44" transform="translate(-.23 1.32) rotate(-.24)"/>
          <rect class="cls-5" x="312.54" y="49.14" width="1.39" height="2.44" transform="translate(-.22 1.38) rotate(-.25)"/>
        </g>
        <g>
          <rect class="cls-3" x="306.57" y="61.3" width="13.87" height="13.15" transform="translate(-.29 1.35) rotate(-.25)"/>
          <rect class="cls-5" x="312.63" y="71.04" width="1.39" height="2.44" transform="translate(-.31 1.38) rotate(-.25)"/>
          <rect class="cls-5" x="312.61" y="66.66" width="1.39" height="2.44" transform="translate(-.3 1.38) rotate(-.25)"/>
          <rect class="cls-5" x="312.59" y="62.3" width="1.39" height="2.44" transform="translate(-.28 1.38) rotate(-.25)"/>
        </g>
        <g>
          <rect class="cls-3" x="306.63" y="74.45" width="13.87" height="13.15" transform="translate(-.35 1.35) rotate(-.25)"/>
          <rect class="cls-5" x="312.69" y="84.19" width="1.39" height="2.44" transform="translate(-.36 1.32) rotate(-.24)"/>
          <rect class="cls-5" x="312.67" y="79.81" width="1.39" height="2.44" transform="translate(-.35 1.38) rotate(-.25)"/>
          <rect class="cls-5" x="312.65" y="75.45" width="1.39" height="2.44" transform="translate(-.32 1.32) rotate(-.24)"/>
        </g>
        <g>
          <rect class="cls-3" x="306.69" y="87.61" width="13.87" height="13.15" transform="translate(-.4 1.35) rotate(-.25)"/>
          <rect class="cls-5" x="312.74" y="97.35" width="1.39" height="2.44" transform="translate(-.41 1.32) rotate(-.24)"/>
          <rect class="cls-5" x="312.72" y="92.97" width="1.39" height="2.44" transform="translate(-.4 1.32) rotate(-.24)"/>
          <rect class="cls-5" x="312.71" y="88.6" width="1.39" height="2.44" transform="translate(-.38 1.32) rotate(-.24)"/>
        </g>
        <g>
          <rect class="cls-3" x="306.74" y="100.76" width="13.87" height="13.15" transform="translate(-.46 1.36) rotate(-.25)"/>
          <rect class="cls-5" x="312.8" y="110.5" width="1.39" height="2.44" transform="translate(-.49 1.38) rotate(-.25)"/>
          <rect class="cls-5" x="312.78" y="106.12" width="1.39" height="2.44" transform="translate(-.45 1.32) rotate(-.24)"/>
          <rect class="cls-5" x="312.76" y="101.76" width="1.39" height="2.44" transform="translate(-.45 1.38) rotate(-.25)"/>
        </g>
        <g>
          <rect class="cls-3" x="306.8" y="113.91" width="13.87" height="13.15" transform="translate(-.52 1.36) rotate(-.25)"/>
          <rect class="cls-5" x="312.86" y="123.66" width="1.39" height="2.44" transform="translate(-.55 1.38) rotate(-.25)"/>
          <rect class="cls-5" x="312.84" y="119.28" width="1.39" height="2.44" transform="translate(-.53 1.38) rotate(-.25)"/>
          <rect class="cls-5" x="312.82" y="114.91" width="1.39" height="2.44" transform="translate(-.51 1.38) rotate(-.25)"/>
        </g>
        <g>
          <rect class="cls-3" x="306.86" y="127.07" width="13.87" height="13.15" transform="translate(-.57 1.36) rotate(-.25)"/>
          <rect class="cls-5" x="312.91" y="136.81" width="1.39" height="2.44" transform="translate(-.6 1.38) rotate(-.25)"/>
          <rect class="cls-5" x="312.9" y="132.43" width="1.39" height="2.44" transform="translate(-.58 1.38) rotate(-.25)"/>
          <rect class="cls-5" x="312.88" y="128.07" width="1.39" height="2.44" transform="translate(-.54 1.33) rotate(-.24)"/>
        </g>
      </g>
      <g>
        <path class="cls-9" d="M27.4,24.08c-.5.82-1.62,1.49-2.5,1.5l-9.61.04c-.1,0-.13-.07-.08-.17l7.96-12.98c.06-.09.18-.17.28-.17l9.61-.04c.88,0,1.18.66.68,1.48l-1.87,3.06c-.94,1.54-3.16,2.12-3.16,2.12,0,0,1.5.58.66,1.96l-1.96,3.21ZM25.73,20.35c.06-.09.02-.17-.08-.17h-3.09c-.1.01-.22.09-.28.18l-1.12,1.84c-.06.09-.02.17.07.17h3.09c.1-.01.22-.09.28-.18l1.13-1.84ZM28.6,15.67c.05-.09.02-.17-.08-.16h-3.08c-.1.01-.22.09-.28.18l-1.13,1.84c-.05.09-.02.17.08.16h3.09c.1-.01.22-.09.28-.18l1.13-1.84Z"/>
        <path class="cls-9" d="M42.34,24.01c-.5.82-1.62,1.49-2.5,1.5l-8.17.04c-.88,0-1.18-.66-.68-1.48l6.34-10.34c.5-.82,1.62-1.49,2.5-1.5l8.16-.04c.88,0,1.18.66.68,1.48l-6.33,10.34ZM43.53,15.61c.05-.09.02-.17-.08-.16h-3.05c-.1.01-.22.09-.28.18l-3.99,6.51c-.06.09-.02.17.08.16h3.06c.1-.01.22-.09.28-.18l3.99-6.51Z"/>
        <path class="cls-9" d="M55.14,15.57l-1.13,1.85,6.09-.03c.1,0,.13.07.08.17l-1.65,2.7c-.06.09-.18.17-.28.17l-6.09.03-1,1.63c-.06.09-.02.17.08.17l6.37-.03c.1,0,.13.07.07.16l-1.78,2.91c-.05.09-.18.16-.27.16l-8.93.04c-.88,0-1.18-.66-.68-1.48l6.33-10.33c.5-.82,1.62-1.49,2.5-1.5l8.93-.04c.1,0,.13.07.07.16l-1.79,2.92c-.06.09-.18.16-.27.16l-6.37.03c-.1,0-.22.07-.28.17Z"/>
        <path class="cls-9" d="M71.33,12.26l-7.96,12.98c-.06.09-.18.17-.28.17l-3.61.02c-.1,0-.13-.07-.08-.17l7.96-12.98c.06-.09.18-.17.28-.17l3.61-.02c.1,0,.13.07.07.17Z"/>
        <path class="cls-9" d="M87.44,12.19l-7.96,12.98c-.06.09-.18.17-.28.17l-3.62.02c-.06,0-.1-.03-.1-.08t0,0l-.6-5.97c0-.07-.14-.04-.19.05l-3.59,5.86c-.05.09-.18.17-.28.17l-3.61.02c-.1,0-.13-.07-.08-.16l7.96-12.98c.04-.07.13-.13.22-.16,0,0,.06,0,.06,0l3.61-.02c.05,0,.09.02.1.06,0,0,.16,2.72.47,6.22,0,.07.14.04.19-.05l3.73-6.09c.05-.09.18-.16.28-.17l3.61-.02c.1,0,.13.07.08.16Z"/>
        <path class="cls-9" d="M102.58,12.13l-1.78,2.91c-.05.09-.18.17-.28.17l-7.11.03c-.1,0-.22.07-.28.17l-4.13,6.74c-.06.09-.02.17.07.17h3.06c.1-.01.22-.09.28-.18l2.75-4.48c.06-.09.18-.17.28-.17l3.61-.02c.1,0,.13.07.07.16l-3.78,6.16c-.5.82-1.62,1.49-2.5,1.5l-8.17.04c-.88,0-1.18-.66-.68-1.48l6.34-10.34c.5-.82,1.62-1.49,2.5-1.5l9.67-.04c.1,0,.13.07.07.17Z"/>
        <path class="cls-9" d="M123.51,12.04l-1.53,2.5s-.03.04-.05.06l-11.34,10.45c-.1.09-.25.17-.35.17l-3.61.02c-.1,0-.1-.07,0-.17l10.54-9.69c.12-.11.11-.23-.02-.23l-5.79.02c-.09,0-.13-.07-.07-.16l1.79-2.92c.05-.09.18-.16.27-.16l10.1-.04c.1,0,.13.07.07.16Z"/>
        <path class="cls-9" d="M130.75,23.63c-.5.82-1.62,1.49-2.5,1.5l-8.08.04c-.88,0-1.18-.66-.68-1.48l1.97-3.21c.84-1.38,3.07-1.97,3.07-1.97,0,0-1.51-.56-.57-2.1l1.87-3.06c.5-.82,1.62-1.49,2.5-1.5l8.08-.04c.88,0,1.18.66.68,1.48l-1.87,3.06c-.94,1.54-3.16,2.12-3.16,2.12,0,0,1.5.58.66,1.96l-1.96,3.2ZM128.98,20.07c.05-.08.02-.15-.06-.16h-2.99c-.1.01-.22.09-.28.18l-1.09,1.78c-.05.08-.02.15.06.16h2.99c.1-.01.22-.09.28-.18l1.09-1.78ZM132.02,15.11c.05-.08.02-.15-.06-.16h-2.99c-.1.01-.22.09-.28.18l-1.09,1.78c-.05.08-.03.15.06.16h2.99c.1-.01.22-.09.28-.18l1.09-1.78Z"/>
        <path class="cls-9" d="M151.41,11.92l-1.53,2.5s-.03.04-.05.06l-11.34,10.45c-.1.09-.25.17-.35.17l-3.61.02c-.1,0-.1-.07,0-.17l10.54-9.69c.12-.11.11-.23-.02-.23l-5.79.03c-.1,0-.13-.07-.07-.16l1.79-2.92c.05-.09.18-.16.27-.16l10.1-.04c.1,0,.13.07.07.16Z"/>
      </g>
    </g>
  </g>
</svg>