<?xml version="1.0" encoding="UTF-8"?>
<svg id="Layer_2" data-name="Layer 2" xmlns="http://www.w3.org/2000/svg" viewBox="0 0 671.41 625.95">
  <defs>
    <style>
      .cls-1, .cls-2, .cls-3 {
        stroke-width: 0px;
      }

      .cls-1, .cls-3 {
        fill: #293b57;
      }

      .cls-2 {
        fill: none;
      }

      .cls-3 {
        fill-rule: evenodd;
      }
    </style>
  </defs>
  <g id="Timeline">
    <g>
      <g>
        <rect class="cls-2" width="40.95" height="36.75"/>
        <rect class="cls-1" x="17.83" y="27.22" width="4.09" height="6.82"/>
        <rect class="cls-1" x="17.83" y="14.98" width="4.09" height="6.82"/>
        <rect class="cls-1" x="17.83" y="2.78" width="4.09" height="6.82"/>
      </g>
      <g>
        <rect class="cls-2" y="36.75" width="40.95" height="36.75"/>
        <rect class="cls-1" x="17.83" y="63.97" width="4.09" height="6.82"/>
        <rect class="cls-1" x="17.83" y="51.73" width="4.09" height="6.82"/>
        <rect class="cls-1" x="17.83" y="39.54" width="4.09" height="6.82"/>
      </g>
      <g>
        <rect class="cls-2" y="73.5" width="40.95" height="36.75"/>
        <rect class="cls-1" x="17.83" y="100.72" width="4.09" height="6.82"/>
        <rect class="cls-1" x="17.83" y="88.48" width="4.09" height="6.82"/>
        <rect class="cls-1" x="17.83" y="76.29" width="4.09" height="6.82"/>
      </g>
      <g>
        <rect class="cls-2" y="110.26" width="40.95" height="36.75"/>
        <rect class="cls-1" x="17.83" y="137.47" width="4.09" height="6.82"/>
        <rect class="cls-1" x="17.83" y="125.24" width="4.09" height="6.82"/>
        <rect class="cls-1" x="17.83" y="113.04" width="4.09" height="6.82"/>
      </g>
      <g>
        <rect class="cls-2" y="147.01" width="40.95" height="36.75"/>
        <rect class="cls-1" x="17.83" y="174.22" width="4.09" height="6.82"/>
        <rect class="cls-1" x="17.83" y="161.99" width="4.09" height="6.82"/>
        <rect class="cls-1" x="17.83" y="149.79" width="4.09" height="6.82"/>
      </g>
      <g>
        <rect class="cls-2" y="183.76" width="40.95" height="36.75"/>
        <rect class="cls-1" x="17.83" y="210.98" width="4.09" height="6.82"/>
        <rect class="cls-1" x="17.83" y="198.74" width="4.09" height="6.82"/>
        <rect class="cls-1" x="17.83" y="186.55" width="4.09" height="6.82"/>
      </g>
      <g>
        <rect class="cls-2" y="220.51" width="40.95" height="36.75"/>
        <rect class="cls-1" x="17.83" y="247.73" width="4.09" height="6.82"/>
        <rect class="cls-1" x="17.83" y="235.49" width="4.09" height="6.82"/>
        <rect class="cls-1" x="17.83" y="223.3" width="4.09" height="6.82"/>
      </g>
      <g>
        <rect class="cls-2" y="257.26" width="40.95" height="36.75"/>
        <rect class="cls-1" x="17.83" y="284.48" width="4.09" height="6.82"/>
        <rect class="cls-1" x="17.83" y="272.24" width="4.09" height="6.82"/>
        <rect class="cls-1" x="17.83" y="260.05" width="4.09" height="6.82"/>
      </g>
      <g>
        <rect class="cls-2" y="294.02" width="40.95" height="36.75"/>
        <rect class="cls-1" x="17.83" y="321.23" width="4.09" height="6.82"/>
        <rect class="cls-1" x="17.83" y="309" width="4.09" height="6.82"/>
        <rect class="cls-1" x="17.83" y="296.8" width="4.09" height="6.82"/>
      </g>
      <g>
        <rect class="cls-2" y="330.77" width="40.95" height="36.75"/>
        <rect class="cls-1" x="17.83" y="357.98" width="4.09" height="6.82"/>
        <rect class="cls-1" x="17.83" y="345.75" width="4.09" height="6.82"/>
        <rect class="cls-1" x="17.83" y="333.55" width="4.09" height="6.82"/>
      </g>
      <g>
        <path class="cls-2" d="M0,367.52v11.5s.06,2.61.06,2.61l.14,5.22c.07,1.74.24,3.48.36,5.22.16,1.74.21,3.48.46,5.21.46,3.46.8,6.93,1.48,10.36l40.35-6.98c-.53-2.58-.76-5.21-1.12-7.82-.21-1.3-.22-2.63-.35-3.94-.09-1.32-.23-2.63-.28-3.95l-.1-3.96-.06-1.98v-2.28s0-9.19,0-9.19H0Z"/>
        <polygon class="cls-3" points="22.77 394.55 18.7 394.99 19.58 401.87 23.63 401.25 22.77 394.55"/>
        <path class="cls-3" d="M22.01,382.46l-4.09.1.09,3.47c.03,1.16.16,2.31.23,3.46l4.08-.29c-.07-1.12-.2-2.24-.23-3.37l-.09-3.38Z"/>
        <rect class="cls-1" x="17.83" y="370.31" width="4.09" height="6.82"/>
      </g>
      <g>
        <path class="cls-2" d="M2.5,407.64l.93,5.15,1.17,5.11.59,2.55c.21.85.46,1.68.7,2.52l1.43,5.04c2.11,6.65,4.48,13.24,7.41,19.58l37.34-16.81c-2.22-4.78-3.98-9.75-5.59-14.76l-1.08-3.8c-.18-.63-.38-1.26-.53-1.9l-.44-1.93-.89-3.85-.69-3.89-40.35,6.98Z"/>
        <path class="cls-3" d="M31.11,429.87l-3.84,1.43c.86,2.15,1.67,4.32,2.58,6.45l3.76-1.61c-.88-2.07-1.67-4.18-2.51-6.27Z"/>
        <path class="cls-3" d="M27.37,418.35l-3.94,1.11.95,3.34c.31,1.11.72,2.2,1.08,3.3l3.89-1.29c-.35-1.07-.75-2.12-1.05-3.21l-.92-3.25Z"/>
        <polygon class="cls-3" points="24.59 406.61 20.57 407.39 20.87 409.1 21.26 410.79 22.04 414.17 26.02 413.21 25.26 409.92 24.88 408.27 24.59 406.61"/>
      </g>
      <g>
        <path class="cls-2" d="M14.74,447.59c2.8,6.4,6.18,12.52,9.74,18.52l2.82,4.41,1.42,2.2,1.51,2.13,3.04,4.26,3.23,4.12,32.01-25.53-2.45-3.11-2.29-3.23-1.15-1.61-1.07-1.66-2.14-3.33c-2.67-4.54-5.25-9.15-7.35-13.99l-37.34,16.81Z"/>
        <path class="cls-3" d="M47.99,462l-3.36,2.34c1.36,1.87,2.63,3.82,4.1,5.6l3.25-2.49c-1.43-1.74-2.66-3.63-3.99-5.45Z"/>
        <path class="cls-3" d="M41.5,451.78l-3.54,2.05c.58,1,1.14,2.02,1.75,3l1.87,2.92,3.44-2.22-1.82-2.84c-.59-.96-1.13-1.95-1.7-2.92Z"/>
        <path class="cls-3" d="M35.86,441.1l-3.7,1.75c.97,2.1,2.08,4.13,3.12,6.2l3.62-1.92c-1.01-2.01-2.1-3.99-3.04-6.03Z"/>
      </g>
      <g>
        <path class="cls-2" d="M36.5,483.23c8.63,10.96,18.79,20.67,29.85,29.16l24.74-32.62c-8.35-6.43-16.07-13.76-22.58-22.07l-32.01,25.53Z"/>
        <polygon class="cls-3" points="72.28 488.96 69.6 492.06 72.23 494.33 74.95 496.48 77.49 493.26 74.83 491.18 72.28 488.96"/>
        <polygon class="cls-3" points="63.45 480.67 60.53 483.54 61.73 484.79 62.98 485.99 65.5 488.39 68.29 485.39 65.84 483.06 64.62 481.89 63.45 480.67"/>
        <polygon class="cls-3" points="55.36 471.72 52.2 474.33 56.75 479.58 59.78 476.82 55.36 471.72"/>
      </g>
      <g>
        <path class="cls-2" d="M66.35,512.39c11.11,8.44,23.31,15.43,36.16,20.91l15.89-37.74c-9.68-4.15-18.9-9.42-27.3-15.8l-24.74,32.62Z"/>
        <path class="cls-3" d="M102.46,509.12l-1.83,3.66c2.04,1.1,4.18,1.99,6.28,2.96l1.66-3.74c-2.04-.94-4.13-1.8-6.11-2.88Z"/>
        <polygon class="cls-3" points="91.84 503.29 89.71 506.78 95.73 510.25 97.7 506.66 91.84 503.29"/>
        <path class="cls-3" d="M81.82,496.56l-2.41,3.31,2.83,2.01c.94.68,1.89,1.34,2.87,1.95l2.26-3.42c-.96-.59-1.88-1.24-2.79-1.9l-2.75-1.96Z"/>
      </g>
      <g>
        <path class="cls-2" d="M102.51,533.3c12.9,5.35,26.44,9.2,40.25,11.25l5.99-40.5c-10.43-1.54-20.62-4.46-30.36-8.48l-15.89,37.74Z"/>
        <path class="cls-3" d="M136.69,521.16l-.86,4c1.12.28,2.26.49,3.4.69l3.42.61.67-4.04-3.32-.59c-1.11-.19-2.22-.39-3.31-.67Z"/>
        <path class="cls-3" d="M124.96,518.13l-1.19,3.92c2.23.62,4.45,1.28,6.69,1.88l1.01-3.97c-2.18-.58-4.33-1.22-6.5-1.83Z"/>
        <path class="cls-3" d="M113.58,514.11l-1.52,3.8c2.15.85,4.3,1.72,6.51,2.42l1.34-3.87c-2.15-.68-4.23-1.53-6.33-2.36Z"/>
      </g>
      <g>
        <path class="cls-2" d="M142.76,544.55l5.19.66,2.6.32,2.61.2,5.21.39c1.74.09,3.48.11,5.22.16l2.61.06,1.3.03h14.99s-.11-40.96-.11-40.96h-9.13s-4.59.01-4.59.01h-1.15l-1-.03-1.98-.05c-1.32-.04-2.64-.04-3.96-.11l-3.95-.3-1.97-.14-1.96-.25-3.92-.5-5.99,40.5Z"/>
        <rect class="cls-1" x="172.9" y="524.45" width="6.82" height="4.09"/>
        <polygon class="cls-3" points="160.73 524.28 160.55 528.37 167.49 528.55 167.49 524.45 160.73 524.28"/>
        <path class="cls-3" d="M148.71,523.21l-.52,4.06,3.44.44c1.15.14,2.31.19,3.46.29l.33-4.08c-1.12-.1-2.25-.14-3.37-.28l-3.35-.43Z"/>
      </g>
      <g>
        <path class="cls-2" d="M182.49,546.36c13.92-.08,27.87-1.85,41.42-5.28l-10.22-39.65c-10.21,2.57-20.74,3.91-31.31,3.98l.11,40.95Z"/>
        <path class="cls-3" d="M209.22,521.88l.76,4.02c2.29-.36,4.53-.95,6.79-1.45l-.95-3.98c-2.2.49-4.38,1.07-6.6,1.41Z"/>
        <polygon class="cls-3" points="197.24 523.66 197.66 527.73 204.55 526.86 203.94 522.81 197.24 523.66"/>
        <path class="cls-3" d="M185.19,524.37l.09,4.09c2.31-.06,4.63-.08,6.93-.3l-.28-4.09c-2.24.22-4.5.23-6.75.29Z"/>
      </g>
      <g>
        <path class="cls-2" d="M223.91,541.09c13.5-3.56,26.61-8.7,38.84-15.44l-19.76-35.86c-9.23,5.09-19.11,8.95-29.29,11.65l10.22,39.65Z"/>
        <path class="cls-3" d="M243.75,510.72l1.74,3.71c1.06-.46,2.1-.98,3.12-1.52l3.09-1.58-1.91-3.62-3.01,1.54c-1,.52-2,1.03-3.04,1.47Z"/>
        <polygon class="cls-3" points="232.58 515.42 234.01 519.26 240.46 516.7 238.86 512.93 232.58 515.42"/>
        <path class="cls-3" d="M221.09,519.1l1.1,3.95c2.23-.64,4.47-1.22,6.65-2.01l-1.28-3.89c-2.12.77-4.3,1.34-6.46,1.96Z"/>
      </g>
      <g>
        <path class="cls-2" d="M262.75,525.64c3.02-1.75,6.09-3.42,8.99-5.36,1.46-.95,2.95-1.86,4.39-2.85l4.27-3.03c.71-.51,1.43-1,2.12-1.53l2.06-1.61,4.1-3.24,3.96-3.42,1.97-1.72,1.9-1.8-28-29.87-1.43,1.37-1.5,1.29-2.99,2.59-3.11,2.45-1.55,1.23c-.52.4-1.07.77-1.61,1.15l-3.22,2.3c-1.09.75-2.22,1.43-3.32,2.15-2.18,1.48-4.52,2.71-6.79,4.05l19.76,35.86Z"/>
        <polygon class="cls-3" points="274.44 491.34 277.04 494.51 282.29 489.97 279.55 486.93 274.44 491.34"/>
        <path class="cls-3" d="M264.76,498.63l2.33,3.37,2.83-2.01c.95-.67,1.89-1.34,2.79-2.07l-2.48-3.26c-.87.71-1.79,1.37-2.71,2.01l-2.75,1.96Z"/>
        <polygon class="cls-3" points="254.55 505.07 256.6 508.62 259.61 506.89 262.53 505.01 260.32 501.56 257.48 503.39 254.55 505.07"/>
      </g>
      <g>
        <path class="cls-2" d="M296.5,501.08l3.78-3.61,3.62-3.77c2.46-2.48,4.65-5.19,6.95-7.81,4.39-5.41,8.62-10.98,12.31-16.9l-34.5-22.05c-2.78,4.48-6,8.68-9.31,12.78-1.76,1.97-3.39,4.05-5.27,5.91l-2.73,2.86-2.87,2.73,28,29.87Z"/>
        <path class="cls-3" d="M299.37,464.97l3.3,2.42c1.32-1.9,2.72-3.75,3.98-5.69l-3.41-2.27c-1.22,1.89-2.59,3.68-3.87,5.53Z"/>
        <path class="cls-3" d="M291.79,474.41l3.09,2.69,2.27-2.62c.75-.88,1.44-1.81,2.16-2.71l-3.21-2.54c-.7.88-1.37,1.79-2.1,2.64l-2.21,2.55Z"/>
        <path class="cls-3" d="M283.5,483.19l2.86,2.93c1.71-1.56,3.25-3.3,4.86-4.96l-2.99-2.8c-1.57,1.61-3.06,3.3-4.73,4.82Z"/>
      </g>
      <g>
        <path class="cls-2" d="M323.17,468.98c1.94-2.9,3.64-5.95,5.37-8.98.9-1.5,1.64-3.08,2.45-4.63.78-1.56,1.62-3.09,2.34-4.68,1.42-3.19,2.95-6.33,4.17-9.61.64-1.63,1.29-3.24,1.9-4.88l1.68-4.96-38.9-12.79-1.26,3.74-1.44,3.68c-.9,2.48-2.09,4.83-3.14,7.25-.54,1.2-1.19,2.35-1.77,3.53-.62,1.16-1.15,2.37-1.85,3.49-1.32,2.28-2.59,4.59-4.06,6.78l34.5,22.05Z"/>
        <path class="cls-3" d="M317.03,433.26l3.8,1.53c.83-2.16,1.75-4.29,2.45-6.5l-3.87-1.35c-.67,2.15-1.57,4.22-2.38,6.32Z"/>
        <path class="cls-3" d="M312.04,444.3l3.66,1.84c1.1-2.04,2.02-4.16,2.98-6.27l-3.74-1.67c-.93,2.05-1.83,4.12-2.9,6.1Z"/>
        <path class="cls-3" d="M306.19,454.85l3.49,2.14c1.2-1.98,2.32-4.01,3.49-6.01l-3.59-1.98c-1.13,1.95-2.22,3.92-3.39,5.84Z"/>
      </g>
      <g>
        <path class="cls-2" d="M341.1,431.25c4.44-13.25,7-27.1,7.97-41l-40.85-2.74c-.75,10.52-2.64,20.97-6.01,30.95l38.9,12.79Z"/>
        <path class="cls-3" d="M326.25,398.17l4.06.54c.28-2.3.63-4.59.75-6.9l-4.08-.35c-.12,2.25-.46,4.48-.73,6.71Z"/>
        <path class="cls-3" d="M324.18,410.1l4,.87c.57-2.24.88-4.54,1.32-6.82l-4.04-.69c-.42,2.21-.72,4.45-1.28,6.63Z"/>
        <polygon class="cls-3" points="321.13 421.78 325.05 422.98 326.95 416.3 322.98 415.28 321.13 421.78"/>
      </g>
      <g>
        <path class="cls-2" d="M349.06,390.24l.19-2.61.08-2.61.13-5.22c.03-.92.02-1.63.02-2.4v-25.27h-40.95v25.27c0,.76,0,1.58-.02,2.19l-.1,3.96-.05,1.98-.16,1.97,40.85,2.74Z"/>
        <rect class="cls-1" x="327.56" y="354.85" width="4.09" height="6.82"/>
        <rect class="cls-1" x="327.56" y="367.08" width="4.09" height="6.82"/>
        <polygon class="cls-3" points="327.38 386.03 331.47 386.22 331.65 379.28 327.55 379.27 327.38 386.03"/>
      </g>
      <g>
        <rect class="cls-2" x="308.54" y="315.38" width="40.95" height="36.75"/>
        <rect class="cls-1" x="327.56" y="318.09" width="4.09" height="6.82"/>
        <rect class="cls-1" x="327.56" y="330.33" width="4.09" height="6.82"/>
        <rect class="cls-1" x="327.56" y="342.52" width="4.09" height="6.82"/>
      </g>
      <g>
        <rect class="cls-2" x="308.54" y="278.63" width="40.95" height="36.75"/>
        <rect class="cls-1" x="327.56" y="281.34" width="4.09" height="6.82"/>
        <rect class="cls-1" x="327.56" y="293.58" width="4.09" height="6.82"/>
        <rect class="cls-1" x="327.56" y="305.77" width="4.09" height="6.82"/>
      </g>
      <g>
        <path class="cls-2" d="M349.48,278.63v-21.82c0-.39,0-.77.01-1.08l.1-3.96.05-1.98c.03-.66.1-1.32.15-1.97l.3-3.95-40.76-3.92-.4,5.21c-.06.87-.14,1.74-.18,2.61l-.07,2.61-.13,5.22v4.66s-.01,18.38-.01,18.38h40.95Z"/>
        <path class="cls-3" d="M327.68,251.37l4.09.13c.04-1.12.03-2.23.11-3.35l.25-3.34-4.08-.32-.26,3.43c-.09,1.14-.07,2.29-.12,3.44Z"/>
        <rect class="cls-1" x="327.56" y="256.82" width="4.09" height="6.82"/>
        <rect class="cls-1" x="327.56" y="269.02" width="4.09" height="6.82"/>
      </g>
      <g>
        <path class="cls-2" d="M350.09,243.86c1-10.51,3.4-20.83,6.91-30.76l-38.5-13.93c-4.68,13.16-7.84,26.88-9.17,40.77l40.76,3.92Z"/>
        <path class="cls-3" d="M333.44,214.81l3.93,1.14c.32-1.07.58-2.16.94-3.21l1.07-3.17-3.88-1.32-1.1,3.26c-.36,1.09-.64,2.2-.97,3.31Z"/>
        <path class="cls-3" d="M330.47,226.8l4.02.81c.45-2.19.99-4.35,1.48-6.53l-3.97-.99c-.5,2.24-1.06,4.47-1.52,6.72Z"/>
        <path class="cls-3" d="M328.58,238.96l4.07.47.42-3.32c.14-1.11.27-2.22.49-3.31l-4.04-.66c-.22,1.13-.37,2.27-.5,3.41l-.43,3.42Z"/>
      </g>
      <g>
        <path class="cls-2" d="M357,213.1c3.61-9.89,8.45-19.34,14.36-28.07l-33.84-23.05c-7.82,11.55-14.24,24.07-19.02,37.2l38.5,13.93Z"/>
        <path class="cls-3" d="M348.1,180.82l3.53,2.08c1.07-1.96,2.36-3.79,3.54-5.69l-3.43-2.24c-1.21,1.95-2.54,3.83-3.64,5.85Z"/>
        <polygon class="cls-3" points="342.24 191.7 345.93 193.48 348.98 187.52 345.38 185.57 342.24 191.7"/>
        <path class="cls-3" d="M337.39,203.01l3.82,1.47c.85-2.07,1.57-4.18,2.54-6.2l-3.75-1.64c-1,2.07-1.74,4.25-2.61,6.37Z"/>
      </g>
      <g>
        <path class="cls-2" d="M371.36,185.02c1.56-2.12,2.99-4.35,4.68-6.38l2.45-3.11,2.59-2.99,1.29-1.5,1.37-1.43,2.73-2.87,2.86-2.73,1.43-1.37c.48-.45,1-.87,1.49-1.3l-27.12-30.67c-.65.58-1.32,1.13-1.96,1.73l-1.9,1.8-3.78,3.62-3.61,3.78-1.8,1.9-1.72,1.97-3.42,3.96-3.24,4.1c-2.21,2.7-4.14,5.61-6.18,8.44l33.84,23.05Z"/>
        <path class="cls-3" d="M370.71,151.52l2.9,2.89c1.59-1.57,3.22-3.09,4.83-4.64l-2.77-3.02c-1.66,1.59-3.34,3.15-4.97,4.77Z"/>
        <path class="cls-3" d="M362.39,160.64l3.13,2.64c1.48-1.67,2.88-3.41,4.43-5.03l-3.01-2.78c-1.59,1.66-3.03,3.45-4.55,5.17Z"/>
        <path class="cls-3" d="M354.87,170.39l3.34,2.37,1.94-2.73c.67-.9,1.37-1.76,2.06-2.64l-3.23-2.52c-.7.91-1.43,1.8-2.12,2.72l-2,2.81Z"/>
      </g>
      <g>
        <path class="cls-2" d="M392.25,161.35l2.99-2.59c1.01-.84,2.07-1.63,3.1-2.46,2.03-1.68,4.24-3.13,6.37-4.68,4.39-2.92,8.87-5.71,13.59-8.06l-18.71-36.42c-6.24,3.13-12.2,6.8-17.99,10.68-2.83,2.03-5.73,3.98-8.43,6.19-1.37,1.08-2.75,2.14-4.09,3.25l-3.96,3.42,27.12,30.67Z"/>
        <path class="cls-3" d="M399.86,128.71l2.1,3.51c1.94-1.1,3.86-2.25,5.82-3.31l-1.94-3.61c-2.02,1.09-3.99,2.27-5.99,3.4Z"/>
        <path class="cls-3" d="M389.55,135.51l2.39,3.33c1.82-1.3,3.62-2.61,5.53-3.78l-2.23-3.43c-1.96,1.2-3.82,2.55-5.69,3.89Z"/>
        <path class="cls-3" d="M379.86,143.09l2.65,3.12c1.66-1.5,3.45-2.83,5.2-4.22l-2.51-3.24c-1.8,1.43-3.64,2.8-5.35,4.34Z"/>
      </g>
      <g>
        <path class="cls-2" d="M418.31,143.55c4.65-2.48,9.54-4.46,14.46-6.35l3.74-1.26,1.87-.64,1.9-.53,3.8-1.08c1.28-.32,2.57-.59,3.85-.9l-9.05-39.93c-1.7.4-3.41.77-5.1,1.2l-5.04,1.43-2.52.72-2.48.83-4.96,1.68c-6.53,2.47-12.99,5.15-19.17,8.41l18.71,36.42Z"/>
        <path class="cls-3" d="M433.76,113.83l1.16,3.93,3.22-.91c1.07-.32,2.15-.61,3.24-.84l-.98-3.98c-1.12.24-2.23.54-3.33.87l-3.31.94Z"/>
        <path class="cls-3" d="M422.08,117.84l1.49,3.81c1.04-.4,2.07-.84,3.12-1.21l3.17-1.07-1.31-3.88-3.26,1.1c-1.08.39-2.14.83-3.21,1.25Z"/>
        <path class="cls-3" d="M410.8,122.77l1.8,3.68c2-1,4.06-1.86,6.08-2.8l-1.63-3.76c-2.08.96-4.21,1.85-6.26,2.88Z"/>
      </g>
      <g>
        <path class="cls-2" d="M447.92,132.79c2.55-.66,5.16-1.03,7.75-1.52,1.29-.27,2.61-.36,3.91-.55,1.31-.15,2.61-.36,3.93-.48l3.95-.3,1.97-.16,1.98-.05,3.96-.1c.61-.03,1.45-.01,2.2-.02h2.3v-40.95h-2.3c-.78,0-1.48-.01-2.39.02l-5.22.13-2.61.07-2.61.19-5.21.4c-1.74.16-3.46.42-5.2.62-1.73.24-3.47.39-5.18.73-3.43.62-6.89,1.16-10.28,2.01l9.05,39.93Z"/>
        <path class="cls-3" d="M470.28,107.84l.16,4.09c2.24-.04,4.44-.14,6.72-.14v-4.09c-2.27,0-4.58.1-6.87.14Z"/>
        <path class="cls-3" d="M457.97,108.83l.49,4.07c1.11-.13,2.21-.31,3.33-.39l3.34-.25-.3-4.08-3.43.26c-1.14.09-2.28.27-3.42.41Z"/>
        <polygon class="cls-3" points="445.82 110.78 446.65 114.79 453.24 113.6 452.6 109.55 445.82 110.78"/>
      </g>
      <g>
        <path class="cls-2" d="M479.87,129.62h24.11s.99.03.99.03l1.98.05c1.32.05,2.64.04,3.96.12l3.95.3,3.48-40.8-5.21-.39c-1.74-.1-3.48-.11-5.22-.17l-2.61-.06-1.31-.03h-1.15s-4.59,0-4.59,0h-18.38v40.95Z"/>
        <path class="cls-3" d="M507.12,107.78l-.09,4.09c2.23.06,4.47.07,6.69.29l.27-4.09c-2.29-.22-4.58-.23-6.88-.3Z"/>
        <rect class="cls-1" x="494.85" y="107.7" width="6.82" height="4.09"/>
        <rect class="cls-1" x="482.66" y="107.7" width="6.82" height="4.09"/>
      </g>
      <g>
        <path class="cls-2" d="M514.87,130.13c10.53.82,20.88,3.14,30.83,6.58l13.51-38.65c-13.19-4.57-26.95-7.62-40.86-8.72l-3.48,40.8Z"/>
        <path class="cls-3" d="M543.74,113.14l-1.1,3.95c2.14.62,4.31,1.18,6.41,1.94l1.28-3.89c-2.16-.78-4.39-1.36-6.59-1.99Z"/>
        <path class="cls-3" d="M531.71,110.33l-.76,4.02c2.21.34,4.37.92,6.55,1.4l.95-3.98c-2.24-.5-4.46-1.09-6.73-1.44Z"/>
        <polygon class="cls-3" points="519.53 108.52 519.11 112.59 525.75 113.44 526.37 109.39 519.53 108.52"/>
      </g>
      <g>
        <path class="cls-2" d="M545.7,136.71l1.87.63,1.84.73,3.68,1.44,3.6,1.63c1.2.53,2.41,1.07,3.57,1.7l3.52,1.8c1.17.61,2.29,1.31,3.44,1.95,2.32,1.26,4.5,2.75,6.73,4.15l22.69-34.09c-2.94-1.88-5.84-3.82-8.9-5.51-1.52-.86-3.01-1.76-4.56-2.58l-4.66-2.39c-1.54-.82-3.13-1.54-4.73-2.25l-4.78-2.15-4.87-1.93-2.44-.96-2.48-.85-13.51,38.65Z"/>
        <polygon class="cls-3" points="577.88 127.44 575.83 130.99 578.74 132.66 581.56 134.46 583.76 131.01 580.86 129.16 577.88 127.44"/>
        <path class="cls-3" d="M566.93,121.72l-1.74,3.71c1.03.44,2.02.95,3.01,1.46l2.98,1.53,1.91-3.62-3.07-1.57c-1.02-.53-2.04-1.05-3.1-1.5Z"/>
        <polygon class="cls-3" points="555.58 116.94 554.16 120.78 560.38 123.25 561.99 119.48 555.58 116.94"/>
      </g>
      <g>
        <path class="cls-2" d="M573.93,150.74c1.13.69,2.16,1.51,3.25,2.26,1.06.78,2.18,1.48,3.2,2.33,2.06,1.64,4.18,3.22,6.14,4.99,4.05,3.39,7.74,7.18,11.34,11.03l30.38-27.45c-4.74-5.11-9.64-10.09-14.97-14.59-2.6-2.33-5.38-4.44-8.12-6.6-1.35-1.1-2.82-2.05-4.23-3.08-1.43-.99-2.82-2.06-4.3-2.98l-22.69,34.09Z"/>
        <path class="cls-3" d="M607.41,149.75l-2.86,2.94c1.65,1.51,3.13,3.18,4.69,4.78l2.99-2.8c-1.6-1.65-3.13-3.37-4.82-4.92Z"/>
        <polygon class="cls-3" points="598.23 141.49 595.62 144.65 600.69 149.03 603.44 145.99 598.23 141.49"/>
        <path class="cls-3" d="M588.39,134.08l-2.33,3.37,2.73,1.94c.92.64,1.82,1.29,2.69,2l2.49-3.25c-.89-.73-1.82-1.4-2.76-2.05l-2.81-2Z"/>
      </g>
      <g>
        <path class="cls-2" d="M597.84,171.36l2.59,2.99c.43.5.88.99,1.29,1.5l1.22,1.56,2.45,3.11,2.29,3.23,1.15,1.61,1.07,1.67,2.14,3.33,1.98,3.42c.66,1.14,1.33,2.27,1.9,3.46l36.22-19.1c-.77-1.57-1.65-3.08-2.52-4.59-.87-1.51-1.73-3.03-2.63-4.53l-2.82-4.41-1.42-2.2-1.51-2.13-3.04-4.26-3.22-4.12-1.62-2.05c-.55-.68-1.13-1.33-1.7-1.99l-3.43-3.95-30.38,27.45Z"/>
        <path class="cls-3" d="M630.55,178.64l-3.49,2.14c1.16,1.91,2.24,3.86,3.36,5.79l3.59-1.98c-1.16-1.98-2.26-4-3.46-5.96Z"/>
        <path class="cls-3" d="M623.65,168.39l-3.3,2.42c1.28,1.83,2.63,3.61,3.84,5.49l3.41-2.27c-1.25-1.93-2.64-3.76-3.95-5.64Z"/>
        <path class="cls-3" d="M615.95,158.79l-3.09,2.69,2.19,2.53c.72.85,1.39,1.75,2.08,2.62l3.21-2.54c-.72-.9-1.4-1.82-2.14-2.69l-2.25-2.6Z"/>
      </g>
      <g>
        <path class="cls-2" d="M615.91,197.24c4.88,9.34,8.71,19.23,11.08,29.5l39.83-9.48c-3.16-13.61-8.22-26.76-14.69-39.12l-36.22,19.1Z"/>
        <polygon class="cls-3" points="645.81 212.36 641.9 213.57 643.73 220.01 647.69 218.99 645.81 212.36"/>
        <path class="cls-3" d="M641.65,200.73l-3.8,1.53c.8,2.08,1.69,4.13,2.36,6.27l3.87-1.35c-.69-2.19-1.6-4.3-2.43-6.45Z"/>
        <path class="cls-3" d="M636.58,189.51l-3.66,1.84c1.06,1.97,1.95,4.02,2.87,6.05l3.74-1.67c-.95-2.09-1.86-4.2-2.95-6.22Z"/>
      </g>
      <g>
        <path class="cls-2" d="M626.99,226.73l.89,3.85.69,3.89c.54,2.58.75,5.22,1.12,7.83.2,1.3.22,2.63.34,3.94.08,1.32.24,2.63.28,3.95l.1,3.96.06,1.98v2.3h40.95v-2.3l-.06-2.61-.14-5.22c-.06-1.74-.24-3.48-.35-5.22-.16-1.74-.22-3.48-.46-5.21-.46-3.46-.79-6.93-1.48-10.36l-.93-5.15-1.17-5.11-39.83,9.48Z"/>
        <polygon class="cls-3" points="652.2 248.83 648.11 249.03 648.28 255.72 652.37 255.71 652.2 248.83"/>
        <path class="cls-3" d="M651.05,236.53l-4.06.54c.27,2.22.61,4.43.73,6.66l4.08-.35c-.12-2.29-.46-4.57-.75-6.85Z"/>
        <polygon class="cls-3" points="648.95 224.4 644.95 225.27 645.32 226.9 645.62 228.55 646.21 231.85 650.25 231.16 649.64 227.77 649.33 226.08 648.95 224.4"/>
      </g>
      <g>
        <rect class="cls-2" x="630.46" y="258.43" width="40.95" height="36.75"/>
        <rect class="cls-1" x="648.29" y="285.65" width="4.09" height="6.82"/>
        <rect class="cls-1" x="648.29" y="273.41" width="4.09" height="6.82"/>
        <rect class="cls-1" x="648.29" y="261.22" width="4.09" height="6.82"/>
      </g>
      <g>
        <rect class="cls-2" x="630.46" y="295.18" width="40.95" height="36.75"/>
        <rect class="cls-1" x="648.29" y="322.4" width="4.09" height="6.82"/>
        <rect class="cls-1" x="648.29" y="310.16" width="4.09" height="6.82"/>
        <rect class="cls-1" x="648.29" y="297.97" width="4.09" height="6.82"/>
      </g>
      <g>
        <rect class="cls-2" x="630.46" y="331.94" width="40.95" height="36.75"/>
        <rect class="cls-1" x="648.29" y="359.15" width="4.09" height="6.82"/>
        <rect class="cls-1" x="648.29" y="346.92" width="4.09" height="6.82"/>
        <rect class="cls-1" x="648.29" y="334.72" width="4.09" height="6.82"/>
      </g>
      <g>
        <rect class="cls-2" x="630.46" y="368.69" width="40.95" height="36.75"/>
        <rect class="cls-1" x="648.29" y="395.9" width="4.09" height="6.82"/>
        <rect class="cls-1" x="648.29" y="383.67" width="4.09" height="6.82"/>
        <rect class="cls-1" x="648.29" y="371.47" width="4.09" height="6.82"/>
      </g>
      <g>
        <rect class="cls-2" x="630.46" y="405.44" width="40.95" height="36.75"/>
        <rect class="cls-1" x="648.29" y="432.66" width="4.09" height="6.82"/>
        <rect class="cls-1" x="648.29" y="420.42" width="4.09" height="6.82"/>
        <rect class="cls-1" x="648.29" y="408.22" width="4.09" height="6.82"/>
      </g>
      <g>
        <rect class="cls-2" x="630.46" y="442.19" width="40.95" height="36.75"/>
        <rect class="cls-1" x="648.29" y="469.41" width="4.09" height="6.82"/>
        <rect class="cls-1" x="648.29" y="457.17" width="4.09" height="6.82"/>
        <rect class="cls-1" x="648.29" y="444.98" width="4.09" height="6.82"/>
      </g>
      <g>
        <rect class="cls-2" x="630.46" y="478.94" width="40.95" height="36.75"/>
        <rect class="cls-1" x="648.29" y="506.16" width="4.09" height="6.82"/>
        <rect class="cls-1" x="648.29" y="493.92" width="4.09" height="6.82"/>
        <rect class="cls-1" x="648.29" y="481.73" width="4.09" height="6.82"/>
      </g>
      <g>
        <rect class="cls-2" x="630.46" y="515.7" width="40.95" height="36.75"/>
        <rect class="cls-1" x="648.29" y="542.91" width="4.09" height="6.82"/>
        <rect class="cls-1" x="648.29" y="530.68" width="4.09" height="6.82"/>
        <rect class="cls-1" x="648.29" y="518.48" width="4.09" height="6.82"/>
      </g>
      <g>
        <rect class="cls-2" x="630.46" y="552.45" width="40.95" height="36.75"/>
        <rect class="cls-1" x="648.29" y="579.66" width="4.09" height="6.82"/>
        <rect class="cls-1" x="648.29" y="567.43" width="4.09" height="6.82"/>
        <rect class="cls-1" x="648.29" y="555.23" width="4.09" height="6.82"/>
      </g>
      <g>
        <rect class="cls-2" x="630.46" y="589.2" width="40.95" height="36.75"/>
        <rect class="cls-1" x="648.29" y="616.42" width="4.09" height="6.82"/>
        <rect class="cls-1" x="648.29" y="604.18" width="4.09" height="6.82"/>
        <rect class="cls-1" x="648.29" y="591.99" width="4.09" height="6.82"/>
      </g>
    </g>
  </g>
</svg>