<?xml version="1.0" encoding="UTF-8"?>
<svg id="Layer_2" data-name="Layer 2" xmlns="http://www.w3.org/2000/svg" viewBox="0 0 283.69 206.37">
  <defs>
    <style>
      .cls-1 {
        fill: #0239a1;
        stroke-width: 0px;
      }
    </style>
  </defs>
  <g id="Design">
    <g>
      <g>
        <circle class="cls-1" cx="33.05" cy="12.3" r="12.3"/>
        <path class="cls-1" d="M16.09,26.89h33.63c15.85,6.09,15.54,42.86,15.54,42.86,1.19,3.22-1.19,6.63-4.62,6.63h0c-2.35,0-4.37-1.66-4.83-3.96,0,0,.25-17.36-6.69-31.12v80.1c0,4.13-3.35,7.47-7.47,7.47h0c-4.13,0-7.47-3.35-7.47-7.47v-43.52h-2.25v43.66c0,4.05-3.29,7.34-7.34,7.34h0c-4.05,0-7.34-3.29-7.34-7.34V41.04c-6.61,16.8-7.28,31.35-7.28,31.35-.46,2.31-2.46,4-4.82,4.05h0c-3.54.08-6.05-3.41-4.85-6.74C.3,69.71,0,42.5,16.09,26.89Z"/>
      </g>
      <g>
        <circle class="cls-1" cx="105.09" cy="12.43" r="12.3"/>
        <path class="cls-1" d="M88.12,27.01h33.63c15.85,6.09,15.54,42.86,15.54,42.86,1.19,3.22-1.19,6.63-4.62,6.63h0c-2.35,0-4.37-1.66-4.83-3.96,0,0,.25-17.36-6.69-31.12v80.1c0,4.13-3.35,7.47-7.47,7.47h0c-4.13,0-7.47-3.35-7.47-7.47v-43.52h-2.25v43.66c0,4.05-3.29,7.34-7.34,7.34h0c-4.05,0-7.34-3.29-7.34-7.34V41.16c-6.61,16.8-7.28,31.35-7.28,31.35-.46,2.31-2.46,4-4.82,4.05h0c-3.54.08-6.05-3.41-4.85-6.74,0,0-.3-27.21,15.78-42.82Z"/>
      </g>
      <g>
        <circle class="cls-1" cx="178.62" cy="12.43" r="12.3"/>
        <path class="cls-1" d="M161.65,27.01h33.63c15.85,6.09,15.54,42.86,15.54,42.86,1.19,3.22-1.19,6.63-4.62,6.63h0c-2.35,0-4.37-1.66-4.83-3.96,0,0,.25-17.36-6.69-31.12v80.1c0,4.13-3.35,7.47-7.47,7.47h0c-4.13,0-7.47-3.35-7.47-7.47v-43.52h-2.25v43.66c0,4.05-3.29,7.34-7.34,7.34h0c-4.05,0-7.34-3.29-7.34-7.34V41.16c-6.61,16.8-7.28,31.35-7.28,31.35-.46,2.31-2.46,4-4.82,4.05h0c-3.54.08-6.05-3.41-4.85-6.74,0,0-.3-27.21,15.78-42.82Z"/>
      </g>
      <g>
        <circle class="cls-1" cx="69.97" cy="89.66" r="12.3"/>
        <path class="cls-1" d="M53,104.25h33.63c15.85,6.09,15.54,42.86,15.54,42.86,1.19,3.22-1.19,6.63-4.62,6.63h0c-2.35,0-4.37-1.66-4.83-3.96,0,0,.25-17.36-6.69-31.12v80.1c0,4.13-3.35,7.47-7.47,7.47h0c-4.13,0-7.47-3.35-7.47-7.47v-43.52h-2.25v43.66c0,4.05-3.29,7.34-7.34,7.34h0c-4.05,0-7.34-3.29-7.34-7.34v-80.5c-6.61,16.8-7.28,31.35-7.28,31.35-.46,2.31-2.46,4-4.82,4.05h0c-3.54.08-6.05-3.41-4.85-6.74,0,0-.3-27.21,15.78-42.82Z"/>
      </g>
      <g>
        <circle class="cls-1" cx="142.01" cy="89.79" r="12.3"/>
        <path class="cls-1" d="M125.04,104.37h33.63c15.85,6.09,15.54,42.86,15.54,42.86,1.19,3.22-1.19,6.63-4.62,6.63h0c-2.35,0-4.37-1.66-4.83-3.96,0,0,.25-17.36-6.69-31.12v80.1c0,4.13-3.35,7.47-7.47,7.47h0c-4.13,0-7.47-3.35-7.47-7.47v-43.52h-2.25v43.66c0,4.05-3.29,7.34-7.34,7.34h0c-4.05,0-7.34-3.29-7.34-7.34v-80.5c-6.61,16.8-7.28,31.35-7.28,31.35-.46,2.31-2.46,4-4.82,4.05h0c-3.54.08-6.05-3.41-4.85-6.74,0,0-.3-27.21,15.78-42.82Z"/>
      </g>
      <g>
        <circle class="cls-1" cx="215.54" cy="89.79" r="12.3"/>
        <path class="cls-1" d="M198.57,104.37h33.63c15.85,6.09,15.54,42.86,15.54,42.86,1.19,3.22-1.19,6.63-4.62,6.63h0c-2.35,0-4.37-1.66-4.83-3.96,0,0,.25-17.36-6.69-31.12v80.1c0,4.13-3.35,7.47-7.47,7.47h0c-4.13,0-7.47-3.35-7.47-7.47v-43.52h-2.25v43.66c0,4.05-3.29,7.34-7.34,7.34h0c-4.05,0-7.34-3.29-7.34-7.34v-80.5c-6.61,16.8-7.28,31.35-7.28,31.35-.46,2.31-2.46,4-4.82,4.05h0c-3.54.08-6.05-3.41-4.85-6.74,0,0-.3-27.21,15.78-42.82Z"/>
      </g>
      <g>
        <circle class="cls-1" cx="251.17" cy="13.61" r="12.3"/>
        <path class="cls-1" d="M234.2,28.2h33.63c15.85,6.09,15.54,42.86,15.54,42.86,1.19,3.22-1.19,6.63-4.62,6.63h0c-2.35,0-4.37-1.66-4.83-3.96,0,0,.25-17.36-6.69-31.12v80.1c0,4.13-3.35,7.47-7.47,7.47h0c-4.13,0-7.47-3.35-7.47-7.47v-43.52h-2.25v43.66c0,4.05-3.29,7.34-7.34,7.34h0c-4.05,0-7.34-3.29-7.34-7.34V42.35c-6.61,16.8-7.28,31.35-7.28,31.35-.46,2.31-2.46,4-4.82,4.05h0c-3.54.08-6.05-3.41-4.85-6.74,0,0-.3-27.21,15.78-42.82Z"/>
      </g>
    </g>
  </g>
</svg>