<?xml version="1.0" encoding="UTF-8"?>
<svg id="Layer_2" data-name="Layer 2" xmlns="http://www.w3.org/2000/svg" viewBox="0 0 94.64 87.37">
  <defs>
    <style>
      .cls-1 {
        fill: #0a1e3f;
        stroke-width: 0px;
      }
    </style>
  </defs>
  <g id="Layer_4" data-name="Layer 4">
    <g>
      <path class="cls-1" d="M34.97,53.14c.23.27.29,4.1,0,4.38-1.37,2.53-4.97,1.69-5.43,0-.46-1.25.09-6.65.24-7.4.2-.3,4.96,2.76,5.19,3.03Z"/>
      <path class="cls-1" d="M59.66,52.93c-.23.27-.29,4.1,0,4.38,1.37,2.53,4.97,1.69,5.43,0,.46-1.25-.09-6.65-.24-7.4-.2-.3-4.96,2.76-5.19,3.03Z"/>
      <path class="cls-1" d="M42.95,57.79S5.48,35.91,4.73,35.5C.11,31.79,0,28.78,0,28.78c0,0,1.25,2.04,6.07,3.92,2.17.87,17.55,7.21,25.16,8.17,1.45-.03,9.15-.07,11.04-.27.07-.36.68-3.71.68-3.71v20.89Z"/>
      <path class="cls-1" d="M51.69,57.58s37.46-21.87,38.21-22.28c4.63-3.71,4.73-6.72,4.73-6.72,0,0-1.25,2.04-6.07,3.92-2.17.87-17.55,7.21-25.16,8.17-1.45-.03-9.15-.07-11.04-.27l-.68-3.71v20.89Z"/>
      <path class="cls-1" d="M47.18,87.37c-1.06,0-3.4-2.73-4.18-9.61,0-.78-.2-54.56,0-56.59.24-3.5,1.4-7.89,1.39-8.24-.45-1.65-10.15-8.14-12.08-9.63C32.16,3.05,31.31.64,31.49,0c6.95,2.56,13.83,4.39,14.36,4.45.17-.15.84-2.99,1.21-4.26.07-.24.41-.25.49,0l1.32,4.48S55.23,2.61,63.16,0c-.07.54,0,2.56-.53,3.1-.26.17-12.35,7.92-12.37,9.75-.06.41.83,4.46,1.32,7.5.1.6.14,1.2.14,1.81-.03,7.06-.23,54.23-.24,55.46-.42,6.15-3.25,9.75-4.31,9.75Z"/>
    </g>
  </g>
</svg>