<?xml version="1.0" encoding="UTF-8"?>
<svg id="Layer_2" data-name="Layer 2" xmlns="http://www.w3.org/2000/svg" viewBox="0 0 87.37 94.64">
  <defs>
    <style>
      .cls-1 {
        fill: #0a1e3f;
        stroke-width: 0px;
      }
    </style>
  </defs>
  <g id="Layer_4" data-name="Layer 4">
    <g>
      <path class="cls-1" d="M53.14,59.66c.27-.23,4.1-.29,4.38,0,2.53,1.37,1.69,4.97,0,5.43-1.25.46-6.65-.09-7.4-.24-.3-.2,2.76-4.96,3.03-5.19Z"/>
      <path class="cls-1" d="M52.93,34.97c.27.23,4.1.29,4.38,0,2.53-1.37,1.69-4.97,0-5.43-1.25-.46-6.65.09-7.4.24-.3.2,2.76,4.96,3.03,5.19Z"/>
      <path class="cls-1" d="M57.79,51.69s-21.87,37.46-22.28,38.21c-3.71,4.63-6.72,4.73-6.72,4.73,0,0,2.04-1.25,3.92-6.07.87-2.17,7.21-17.55,8.17-25.16-.03-1.45-.07-9.15-.27-11.04-.36-.07-3.71-.68-3.71-.68h20.89Z"/>
      <path class="cls-1" d="M57.58,42.95S35.7,5.48,35.29,4.73C31.58.11,28.57,0,28.57,0c0,0,2.04,1.25,3.92,6.07.87,2.17,7.21,17.55,8.17,25.16-.03,1.45-.07,9.15-.27,11.04l-3.71.68h20.89Z"/>
      <path class="cls-1" d="M87.37,47.46c0,1.06-2.73,3.4-9.61,4.18-.78,0-54.56.2-56.59,0-3.5-.24-7.89-1.4-8.24-1.39-1.65.45-8.14,10.15-9.63,12.08C3.05,62.48.64,63.33,0,63.15c2.56-6.95,4.39-13.83,4.45-14.36-.15-.17-2.99-.84-4.26-1.21-.24-.07-.25-.41,0-.49l4.48-1.32S2.61,39.41,0,31.48c.54.07,2.56,0,3.1.53.17.26,7.92,12.35,9.75,12.37.41.06,4.46-.83,7.5-1.32.6-.1,1.2-.14,1.81-.14,7.06.03,54.23.23,55.46.24,6.15.42,9.75,3.25,9.75,4.31Z"/>
    </g>
  </g>
</svg>