<?xml version="1.0" encoding="UTF-8"?>
<svg id="Layer_2" data-name="Layer 2" xmlns="http://www.w3.org/2000/svg" viewBox="0 0 201.41 47.33">
  <defs>
    <style>
      .cls-1 {
        fill: #0239a1;
        stroke-width: 0px;
      }
    </style>
  </defs>
  <g id="Operations">
    <g>
      <path class="cls-1" d="M9.1,18.14l-3.69-6.74h-1.4v6.74H0V1.15h6.48c.82,0,1.61.08,2.39.25.78.17,1.47.45,2.09.85.62.4,1.11.93,1.48,1.58.37.66.55,1.47.55,2.45,0,1.15-.31,2.12-.94,2.9-.62.78-1.49,1.34-2.59,1.68l4.44,7.27h-4.8ZM8.93,6.36c0-.4-.08-.72-.25-.97-.17-.25-.39-.44-.65-.58-.27-.14-.56-.23-.89-.28-.33-.05-.65-.07-.95-.07h-2.19v3.96h1.95c.34,0,.68-.03,1.04-.08.35-.06.68-.16.96-.3.29-.14.53-.35.71-.62.19-.27.28-.62.28-1.06Z"/>
      <path class="cls-1" d="M27.26,12.31v.48c0,.16,0,.31-.02.46h-8.66c.03.34.13.64.3.91.17.27.38.51.65.71.26.2.56.36.89.47.33.11.67.17,1.02.17.62,0,1.15-.12,1.58-.35.43-.23.78-.53,1.06-.9l2.74,1.73c-.56.82-1.3,1.44-2.22,1.88-.92.44-1.99.66-3.2.66-.9,0-1.74-.14-2.54-.42-.8-.28-1.5-.69-2.1-1.22-.6-.54-1.07-1.2-1.42-1.98-.34-.78-.52-1.68-.52-2.69s.17-1.86.5-2.65.79-1.46,1.37-2.02c.58-.55,1.26-.98,2.04-1.28.78-.3,1.63-.46,2.54-.46s1.69.15,2.42.44,1.37.72,1.9,1.28c.53.56.94,1.24,1.24,2.04.3.8.44,1.71.44,2.74ZM23.64,10.8c0-.62-.2-1.16-.59-1.61-.39-.45-.98-.67-1.76-.67-.38,0-.74.06-1.06.18-.32.12-.6.28-.84.49-.24.21-.43.45-.58.73s-.22.57-.24.88h5.06Z"/>
      <path class="cls-1" d="M38.76,18.14v-1.56h-.05c-.38.61-.93,1.08-1.64,1.4-.71.33-1.47.49-2.27.49-.9,0-1.7-.18-2.4-.53-.7-.35-1.3-.82-1.79-1.4-.49-.58-.86-1.26-1.12-2.03s-.38-1.57-.38-2.4.13-1.63.4-2.39.64-1.43,1.13-2c.49-.58,1.08-1.03,1.78-1.37.7-.34,1.48-.5,2.34-.5s1.62.17,2.23.5c.61.34,1.08.7,1.42,1.1h.05V0h3.94v18.14h-3.62ZM38.62,12.14c0-.38-.07-.76-.2-1.13s-.33-.7-.58-.98c-.25-.29-.55-.52-.9-.7s-.75-.26-1.2-.26-.87.09-1.22.26-.65.4-.89.68c-.24.28-.42.6-.54.97-.12.37-.18.74-.18,1.13s.06.76.18,1.14c.12.38.3.71.54,1,.24.29.54.52.89.7.35.18.76.26,1.22.26s.85-.09,1.2-.26c.35-.18.65-.41.9-.7.25-.29.44-.62.58-.98s.2-.74.2-1.13Z"/>
      <path class="cls-1" d="M53.38,18.14v-1.66h-.05c-.14.27-.33.53-.56.77-.23.24-.5.45-.82.62s-.66.32-1.03.43c-.38.11-.77.17-1.19.17-.8,0-1.48-.14-2.03-.43-.55-.29-1-.66-1.34-1.12-.34-.46-.59-.98-.74-1.56-.15-.58-.23-1.18-.23-1.79v-7.39h3.96v6.48c0,.34.02.66.07.96.05.3.14.58.28.82.14.24.32.43.54.56.22.14.52.2.89.2.69,0,1.21-.26,1.57-.77.36-.51.54-1.11.54-1.8v-6.46h3.94v11.95h-3.79Z"/>
      <path class="cls-1" d="M68.5,10.06c-.22-.29-.53-.52-.91-.7-.38-.18-.78-.26-1.18-.26s-.79.08-1.13.25-.62.39-.86.67c-.24.28-.43.6-.56.97-.14.37-.2.76-.2,1.18s.06.81.19,1.18c.13.37.32.69.56.97.25.28.54.5.89.66.34.16.73.24,1.16.24.4,0,.8-.08,1.19-.23.39-.15.71-.37.95-.66l2.18,2.66c-.5.48-1.14.86-1.92,1.13-.78.27-1.62.41-2.5.41-.94,0-1.83-.14-2.64-.43s-1.53-.71-2.13-1.26c-.6-.55-1.08-1.22-1.42-2-.35-.78-.52-1.67-.52-2.66s.17-1.86.52-2.64c.35-.78.82-1.45,1.42-2s1.31-.98,2.13-1.27,1.69-.44,2.62-.44c.43,0,.86.04,1.28.12.42.08.83.19,1.22.32.39.14.75.3,1.08.5.33.2.61.42.85.66l-2.28,2.64Z"/>
      <path class="cls-1" d="M76.58,9.12v4.58c0,.56.11.98.32,1.26.22.28.6.42,1.16.42.19,0,.4-.02.61-.05.22-.03.4-.08.54-.14l.05,2.88c-.27.1-.62.18-1.03.25-.42.07-.83.11-1.25.11-.8,0-1.47-.1-2.02-.3-.54-.2-.98-.49-1.31-.87-.33-.38-.56-.83-.71-1.35s-.22-1.1-.22-1.74v-5.05h-1.92v-2.93h1.9v-3.14h3.86v3.14h2.81v2.93h-2.81Z"/>
      <path class="cls-1" d="M85.51,2.38c0,.3-.06.59-.18.85s-.28.49-.48.68c-.2.19-.44.34-.72.46-.28.11-.57.17-.88.17-.64,0-1.18-.21-1.61-.64-.43-.42-.65-.93-.65-1.52,0-.29.06-.56.17-.83.11-.26.27-.49.48-.68.21-.19.45-.35.72-.47.27-.12.57-.18.89-.18s.6.06.88.17c.28.11.52.26.72.46.2.19.36.42.48.68s.18.55.18.85ZM81.29,18.14V6.19h3.94v11.95h-3.94Z"/>
      <path class="cls-1" d="M101.01,12.12c0,.98-.18,1.86-.53,2.65-.35.79-.83,1.46-1.44,2.02-.61.55-1.31.98-2.11,1.28-.8.3-1.66.46-2.57.46s-1.75-.15-2.56-.46c-.81-.3-1.51-.73-2.11-1.28-.6-.55-1.08-1.22-1.43-2.02s-.53-1.68-.53-2.65.18-1.86.53-2.64c.35-.78.83-1.45,1.43-1.99s1.3-.96,2.11-1.25c.81-.29,1.66-.43,2.56-.43s1.77.14,2.57.43c.8.29,1.5.7,2.11,1.25.61.54,1.09,1.21,1.44,1.99.35.78.53,1.66.53,2.64ZM97.22,12.12c0-.38-.06-.76-.19-1.13-.13-.37-.31-.69-.55-.97-.24-.28-.54-.51-.89-.68-.35-.18-.76-.26-1.22-.26s-.87.09-1.22.26-.64.4-.88.68c-.23.28-.41.6-.53.97-.12.37-.18.74-.18,1.13s.06.76.18,1.13c.12.37.3.7.54,1,.24.3.54.53.89.71.35.18.76.26,1.22.26s.87-.09,1.22-.26c.35-.18.65-.41.89-.71.24-.3.42-.63.54-1,.12-.37.18-.74.18-1.13Z"/>
      <path class="cls-1" d="M111.36,18.14v-6.53c0-.34-.03-.66-.08-.96-.06-.3-.15-.57-.28-.8-.13-.23-.31-.42-.54-.55s-.52-.2-.88-.2-.66.07-.92.2-.48.32-.66.56c-.18.24-.31.52-.4.83-.09.31-.13.64-.13.97v6.48h-3.96V6.19h3.82v1.66h.05c.14-.26.33-.51.56-.76s.5-.46.82-.64c.31-.18.65-.32,1.02-.43.37-.11.76-.17,1.18-.17.8,0,1.48.14,2.04.43.56.29,1.01.66,1.36,1.12.34.46.59.98.74,1.57.15.59.23,1.18.23,1.78v7.39h-3.96Z"/>
      <path class="cls-1" d="M128.57,2.38c0,.3-.06.59-.18.85s-.28.49-.48.68c-.2.19-.44.34-.72.46-.28.11-.57.17-.88.17-.64,0-1.18-.21-1.61-.64-.43-.42-.65-.93-.65-1.52,0-.29.06-.56.17-.83.11-.26.27-.49.48-.68.21-.19.45-.35.72-.47.27-.12.57-.18.89-.18s.6.06.88.17c.28.11.52.26.72.46.2.19.36.42.48.68s.18.55.18.85ZM124.34,18.14V6.19h3.94v11.95h-3.94Z"/>
      <path class="cls-1" d="M139.25,18.14v-6.53c0-.34-.03-.66-.08-.96-.06-.3-.15-.57-.28-.8-.13-.23-.31-.42-.54-.55s-.52-.2-.88-.2-.66.07-.92.2-.48.32-.66.56c-.18.24-.31.52-.4.83-.09.31-.13.64-.13.97v6.48h-3.96V6.19h3.82v1.66h.05c.14-.26.33-.51.56-.76s.5-.46.82-.64c.31-.18.65-.32,1.02-.43.37-.11.76-.17,1.18-.17.8,0,1.48.14,2.04.43.56.29,1.01.66,1.36,1.12.34.46.59.98.74,1.57.15.59.23,1.18.23,1.78v7.39h-3.96Z"/>
      <path class="cls-1" d="M164.57,17.84c-1.1.5-2.38.76-3.82.76-1.31,0-2.52-.22-3.64-.65-1.11-.43-2.08-1.04-2.89-1.84-.82-.79-1.46-1.74-1.92-2.84-.46-1.1-.7-2.32-.7-3.65s.24-2.59.71-3.7c.47-1.1,1.12-2.04,1.96-2.82.83-.78,1.81-1.37,2.93-1.79s2.33-.62,3.62-.62c1.2,0,2.38.21,3.54.64s2.1,1.04,2.82,1.86l-2.78,2.78c-.38-.53-.89-.92-1.51-1.18-.62-.26-1.26-.38-1.92-.38-.72,0-1.38.13-1.98.4-.6.26-1.12.63-1.55,1.09-.43.46-.77,1.01-1.01,1.64-.24.63-.36,1.32-.36,2.08s.12,1.47.36,2.11c.24.64.57,1.19,1,1.64s.93.81,1.52,1.07c.59.26,1.24.38,1.94.38.82,0,1.53-.16,2.14-.48s1.1-.74,1.46-1.25l2.86,2.69c-.75.86-1.68,1.55-2.78,2.05Z"/>
      <path class="cls-1" d="M186.53,9.58c0,1.34-.23,2.57-.7,3.68-.46,1.11-1.11,2.06-1.93,2.86-.82.79-1.8,1.4-2.94,1.84-1.14.43-2.37.65-3.7.65s-2.56-.22-3.68-.65c-1.13-.43-2.1-1.04-2.93-1.84s-1.47-1.74-1.93-2.86c-.46-1.11-.7-2.34-.7-3.68s.23-2.59.7-3.68c.46-1.1,1.11-2.03,1.93-2.8.82-.77,1.8-1.36,2.93-1.78s2.36-.62,3.68-.62,2.56.21,3.7.62c1.14.42,2.12,1.01,2.94,1.78.82.77,1.47,1.7,1.93,2.8.46,1.1.7,2.32.7,3.68ZM182.13,9.58c0-.74-.12-1.42-.36-2.06-.24-.64-.57-1.19-1-1.64s-.94-.82-1.54-1.08c-.6-.26-1.26-.4-1.98-.4s-1.38.13-1.97.4c-.59.26-1.1.62-1.54,1.08-.43.46-.76,1-1,1.64-.23.64-.35,1.33-.35,2.06s.12,1.48.36,2.12c.24.65.57,1.2,1,1.67.42.46.93.83,1.52,1.09.59.26,1.25.4,1.97.4s1.38-.13,1.97-.4c.59-.26,1.1-.63,1.54-1.09.43-.46.77-1.02,1.01-1.67.24-.65.36-1.36.36-2.12Z"/>
      <path class="cls-1" d="M189.12,18.14v-3.35l6.62-5.99c.42-.4.75-.81,1.01-1.22.26-.42.38-.88.38-1.39,0-.61-.19-1.1-.58-1.47-.38-.38-.9-.56-1.54-.56-.67,0-1.22.24-1.64.71-.42.47-.68,1.09-.76,1.86l-3.86-.53c.1-.86.33-1.63.71-2.31s.85-1.25,1.43-1.73c.58-.47,1.24-.84,1.98-1.09.74-.25,1.53-.38,2.36-.38.78,0,1.54.1,2.28.31.74.21,1.39.53,1.97.96.58.43,1.04.98,1.38,1.63.34.66.52,1.42.52,2.3,0,.61-.08,1.16-.24,1.64-.16.49-.38.94-.66,1.36-.28.42-.6.8-.96,1.16-.36.36-.73.72-1.12,1.07l-3.94,3.5h6.94v3.5h-12.29Z"/>
      <path class="cls-1" d="M56.7,41.11v.48c0,.16,0,.31-.02.46h-8.66c.03.34.13.64.3.91.17.27.38.51.65.71.26.2.56.36.89.47.33.11.67.17,1.02.17.62,0,1.15-.12,1.58-.35.43-.23.78-.53,1.06-.9l2.74,1.73c-.56.82-1.3,1.44-2.22,1.88-.92.44-1.99.66-3.2.66-.9,0-1.74-.14-2.54-.42-.8-.28-1.5-.69-2.1-1.22-.6-.54-1.07-1.2-1.42-1.98-.34-.78-.52-1.68-.52-2.69s.17-1.86.5-2.65.79-1.46,1.37-2.02c.58-.55,1.26-.98,2.04-1.28.78-.3,1.63-.46,2.54-.46s1.69.15,2.42.44,1.37.72,1.9,1.28c.53.56.94,1.24,1.24,2.04.3.8.44,1.71.44,2.74ZM53.08,39.6c0-.62-.2-1.16-.59-1.61-.39-.45-.98-.67-1.76-.67-.38,0-.74.06-1.06.18-.32.12-.6.28-.84.49-.24.21-.43.45-.58.73s-.22.57-.24.88h5.06Z"/>
      <path class="cls-1" d="M74.41,46.94v-6.53c0-.34-.02-.66-.07-.97s-.14-.58-.26-.8c-.13-.22-.3-.4-.52-.54-.22-.14-.5-.2-.85-.2s-.63.07-.88.22c-.25.14-.46.34-.62.58s-.29.52-.37.83c-.08.31-.12.64-.12.97v6.46h-3.94v-6.82c0-.69-.14-1.23-.41-1.63-.27-.4-.7-.6-1.3-.6-.62,0-1.11.25-1.45.74-.34.5-.52,1.1-.52,1.82v6.48h-3.96v-11.95h3.82v1.66h.05c.14-.26.32-.5.54-.74s.48-.45.78-.64c.3-.18.64-.33,1.02-.44.38-.11.79-.17,1.24-.17.86,0,1.6.18,2.2.53s1.07.86,1.4,1.51c.4-.62.91-1.12,1.54-1.49.62-.37,1.38-.55,2.28-.55.82,0,1.5.15,2.05.44.55.3,1,.68,1.33,1.15.34.47.58,1,.73,1.58.15.58.23,1.16.23,1.72v7.39h-3.94Z"/>
      <path class="cls-1" d="M85.6,31.18c0,.3-.06.59-.18.85s-.28.49-.48.68c-.2.19-.44.34-.72.46-.28.11-.57.17-.88.17-.64,0-1.18-.21-1.61-.64-.43-.42-.65-.93-.65-1.52,0-.29.06-.56.17-.83.11-.26.27-.49.48-.68.21-.19.45-.35.72-.47.27-.12.57-.18.89-.18s.6.06.88.17c.28.11.52.26.72.46.2.19.36.42.48.68s.18.55.18.85ZM81.37,46.94v-11.95h3.94v11.95h-3.94Z"/>
      <path class="cls-1" d="M95.46,38.52c-.32-.3-.7-.56-1.13-.77-.43-.21-.89-.31-1.37-.31-.37,0-.71.07-1.02.22-.31.14-.47.39-.47.74s.17.58.52.72c.34.14.9.3,1.67.48.45.1.9.23,1.36.41.46.18.87.41,1.24.7s.66.64.89,1.06c.22.42.34.91.34,1.49,0,.75-.15,1.39-.46,1.91-.3.52-.7.94-1.19,1.26-.49.32-1.04.55-1.64.7s-1.22.22-1.82.22c-.98,0-1.93-.16-2.87-.47-.94-.31-1.72-.77-2.34-1.38l2.21-2.33c.35.38.78.7,1.3.96.51.26,1.06.38,1.63.38.32,0,.64-.08.95-.23s.47-.42.47-.8-.19-.64-.58-.82c-.38-.18-.98-.36-1.8-.55-.42-.1-.83-.22-1.25-.38-.42-.16-.79-.38-1.12-.65-.33-.27-.6-.61-.8-1.01-.21-.4-.31-.88-.31-1.44,0-.72.15-1.33.46-1.84.3-.5.7-.92,1.18-1.24.48-.32,1.01-.56,1.6-.71.58-.15,1.16-.23,1.74-.23.9,0,1.77.14,2.63.42.86.28,1.58.7,2.17,1.26l-2.16,2.23Z"/>
      <path class="cls-1" d="M106.79,38.52c-.32-.3-.7-.56-1.13-.77-.43-.21-.89-.31-1.37-.31-.37,0-.71.07-1.02.22-.31.14-.47.39-.47.74s.17.58.52.72c.34.14.9.3,1.67.48.45.1.9.23,1.36.41.46.18.87.41,1.24.7s.66.64.89,1.06c.22.42.34.91.34,1.49,0,.75-.15,1.39-.46,1.91-.3.52-.7.94-1.19,1.26-.49.32-1.04.55-1.64.7s-1.22.22-1.82.22c-.98,0-1.93-.16-2.87-.47-.94-.31-1.72-.77-2.34-1.38l2.21-2.33c.35.38.78.7,1.3.96.51.26,1.06.38,1.63.38.32,0,.64-.08.95-.23s.47-.42.47-.8-.19-.64-.58-.82c-.38-.18-.98-.36-1.8-.55-.42-.1-.83-.22-1.25-.38-.42-.16-.79-.38-1.12-.65-.33-.27-.6-.61-.8-1.01-.21-.4-.31-.88-.31-1.44,0-.72.15-1.33.46-1.84.3-.5.7-.92,1.18-1.24.48-.32,1.01-.56,1.6-.71.58-.15,1.16-.23,1.74-.23.9,0,1.77.14,2.63.42.86.28,1.58.7,2.17,1.26l-2.16,2.23Z"/>
      <path class="cls-1" d="M115.35,31.18c0,.3-.06.59-.18.85s-.28.49-.48.68c-.2.19-.44.34-.72.46-.28.11-.57.17-.88.17-.64,0-1.18-.21-1.61-.64-.43-.42-.65-.93-.65-1.52,0-.29.06-.56.17-.83.11-.26.27-.49.48-.68.21-.19.45-.35.72-.47.27-.12.57-.18.89-.18s.6.06.88.17c.28.11.52.26.72.46.2.19.36.42.48.68s.18.55.18.85ZM111.13,46.94v-11.95h3.94v11.95h-3.94Z"/>
      <path class="cls-1" d="M130.86,40.92c0,.98-.18,1.86-.53,2.65-.35.79-.83,1.46-1.44,2.02-.61.55-1.31.98-2.11,1.28-.8.3-1.66.46-2.57.46s-1.75-.15-2.56-.46c-.81-.3-1.51-.73-2.11-1.28-.6-.55-1.08-1.22-1.43-2.02s-.53-1.68-.53-2.65.18-1.86.53-2.64c.35-.78.83-1.45,1.43-1.99s1.3-.96,2.11-1.25c.81-.29,1.66-.43,2.56-.43s1.77.14,2.57.43c.8.29,1.5.7,2.11,1.25.61.54,1.09,1.21,1.44,1.99.35.78.53,1.66.53,2.64ZM127.07,40.92c0-.38-.06-.76-.19-1.13-.13-.37-.31-.69-.55-.97-.24-.28-.54-.51-.89-.68-.35-.18-.76-.26-1.22-.26s-.87.09-1.22.26-.64.4-.88.68c-.23.28-.41.6-.53.97-.12.37-.18.74-.18,1.13s.06.76.18,1.13c.12.37.3.7.54,1,.24.3.54.53.89.71.35.18.76.26,1.22.26s.87-.09,1.22-.26c.35-.18.65-.41.89-.71.24-.3.42-.63.54-1,.12-.37.18-.74.18-1.13Z"/>
      <path class="cls-1" d="M141.2,46.94v-6.53c0-.34-.03-.66-.08-.96-.06-.3-.15-.57-.28-.8-.13-.23-.31-.42-.54-.55s-.52-.2-.88-.2-.66.07-.92.2-.48.32-.66.56c-.18.24-.31.52-.4.83-.09.31-.13.64-.13.97v6.48h-3.96v-11.95h3.82v1.66h.05c.14-.26.33-.51.56-.76s.5-.46.82-.64c.31-.18.65-.32,1.02-.43.37-.11.76-.17,1.18-.17.8,0,1.48.14,2.04.43.56.29,1.01.66,1.36,1.12.34.46.59.98.74,1.57.15.59.23,1.18.23,1.78v7.39h-3.96Z"/>
      <path class="cls-1" d="M155.17,38.52c-.32-.3-.7-.56-1.13-.77-.43-.21-.89-.31-1.37-.31-.37,0-.71.07-1.02.22-.31.14-.47.39-.47.74s.17.58.52.72c.34.14.9.3,1.67.48.45.1.9.23,1.36.41.46.18.87.41,1.24.7s.66.64.89,1.06c.22.42.34.91.34,1.49,0,.75-.15,1.39-.46,1.91-.3.52-.7.94-1.19,1.26-.49.32-1.04.55-1.64.7s-1.22.22-1.82.22c-.98,0-1.93-.16-2.87-.47-.94-.31-1.72-.77-2.34-1.38l2.21-2.33c.35.38.78.7,1.3.96.51.26,1.06.38,1.63.38.32,0,.64-.08.95-.23s.47-.42.47-.8-.19-.64-.58-.82c-.38-.18-.98-.36-1.8-.55-.42-.1-.83-.22-1.25-.38-.42-.16-.79-.38-1.12-.65-.33-.27-.6-.61-.8-1.01-.21-.4-.31-.88-.31-1.44,0-.72.15-1.33.46-1.84.3-.5.7-.92,1.18-1.24.48-.32,1.01-.56,1.6-.71.58-.15,1.16-.23,1.74-.23.9,0,1.77.14,2.63.42.86.28,1.58.7,2.17,1.26l-2.16,2.23Z"/>
    </g>
  </g>
</svg>