<?xml version="1.0" encoding="UTF-8"?>
<svg id="Layer_2" data-name="Layer 2" xmlns="http://www.w3.org/2000/svg" viewBox="0 0 152.78 64.43">
  <defs>
    <style>
      .cls-1 {
        stroke-width: 2px;
      }

      .cls-1, .cls-2 {
        fill: none;
        stroke: #fff;
        stroke-miterlimit: 10;
      }

      .cls-2 {
        stroke-width: 1.42px;
      }

      .cls-3 {
        fill: #fff;
      }

      .cls-3, .cls-4 {
        stroke-width: 0px;
      }

      .cls-4 {
        fill: #0239a1;
      }
    </style>
  </defs>
  <g id="Design">
    <g>
      <g>
        <path class="cls-4" d="M4.77,51.57l-2.98,2.62-1.79-2.06,4.85-4.09h2.94v14.87h-3.02v-11.34Z"/>
        <path class="cls-4" d="M11.84,55.48c0-.88.08-1.78.24-2.69.16-.91.45-1.74.86-2.48s.98-1.35,1.69-1.82c.71-.47,1.62-.7,2.73-.7s2.02.23,2.73.7c.71.47,1.28,1.07,1.69,1.82.41.74.7,1.57.86,2.48.16.91.24,1.81.24,2.69s-.08,1.78-.24,2.69c-.16.91-.45,1.74-.86,2.48-.41.74-.98,1.35-1.69,1.82-.71.47-1.62.7-2.73.7s-2.02-.23-2.73-.7c-.71-.47-1.28-1.07-1.69-1.82s-.7-1.57-.86-2.48c-.16-.91-.24-1.81-.24-2.69ZM14.99,55.48c0,.39.02.86.05,1.41.03.55.13,1.07.28,1.58.15.5.39.93.7,1.28s.76.52,1.33.52,1-.17,1.32-.52c.32-.35.56-.78.71-1.28.15-.5.25-1.03.28-1.58.03-.55.05-1.01.05-1.41s-.02-.86-.05-1.41c-.04-.55-.13-1.07-.28-1.58-.15-.5-.39-.93-.71-1.28-.32-.35-.76-.52-1.32-.52s-1.02.17-1.33.52c-.31.35-.55.78-.7,1.28-.15.5-.25,1.03-.28,1.58-.04.55-.05,1.01-.05,1.41Z"/>
        <path class="cls-4" d="M23.69,51.95c0-.57.11-1.11.33-1.62.22-.5.51-.95.88-1.32.37-.38.81-.67,1.31-.89.5-.22,1.04-.33,1.62-.33s1.11.11,1.62.33c.5.22.94.51,1.31.89s.67.82.88,1.32c.22.5.33,1.04.33,1.62s-.11,1.11-.33,1.62c-.22.5-.51.94-.88,1.32-.37.38-.81.68-1.31.89-.5.22-1.04.33-1.62.33s-1.11-.11-1.62-.33c-.5-.22-.94-.51-1.31-.89-.37-.38-.67-.82-.88-1.32-.22-.5-.33-1.04-.33-1.62ZM29.82,51.95c0-.56-.19-1.04-.58-1.43-.39-.39-.86-.59-1.42-.59s-1.03.2-1.42.59c-.39.39-.58.87-.58,1.43s.19,1.04.58,1.43c.38.39.86.59,1.42.59s1.03-.2,1.42-.59c.38-.39.58-.87.58-1.43ZM36.5,47.37l1.76.99-8.67,15.22-1.6-.9,8.5-15.31ZM34.25,58.99c0-.57.11-1.11.33-1.62.22-.5.51-.95.88-1.32.37-.38.81-.67,1.31-.89.5-.22,1.04-.33,1.62-.33s1.11.11,1.62.33c.5.22.94.51,1.31.89s.67.82.88,1.32c.22.5.33,1.04.33,1.62s-.11,1.12-.33,1.63c-.22.51-.51.96-.88,1.33s-.81.68-1.31.89-1.04.33-1.62.33-1.11-.11-1.62-.33-.94-.51-1.31-.89c-.37-.38-.67-.82-.88-1.33-.22-.51-.33-1.05-.33-1.63ZM40.38,58.99c0-.56-.19-1.04-.58-1.43-.39-.39-.86-.59-1.42-.59s-1.03.2-1.42.59c-.39.39-.58.87-.58,1.43s.19,1.06.58,1.45c.38.39.86.59,1.42.59s1.03-.2,1.42-.59c.38-.39.58-.88.58-1.45Z"/>
        <path class="cls-4" d="M57.71,51.68c-.27-.34-.63-.58-1.08-.75s-.89-.24-1.29-.24c-.24,0-.48.03-.73.08s-.49.14-.71.26c-.22.12-.41.28-.55.47-.14.2-.21.43-.21.71,0,.45.17.79.5,1.03.34.24.76.44,1.27.61.51.17,1.06.34,1.65.5s1.14.41,1.65.71c.51.31.93.72,1.27,1.24s.5,1.21.5,2.08-.15,1.55-.46,2.16c-.31.62-.72,1.13-1.25,1.53-.52.41-1.13.71-1.83.9-.69.2-1.42.29-2.19.29-.97,0-1.86-.15-2.69-.44-.83-.29-1.6-.77-2.31-1.43l2.33-2.56c.34.45.76.79,1.27,1.04.51.25,1.04.37,1.59.37.27,0,.54-.03.81-.09.27-.06.52-.16.73-.28.22-.13.39-.29.52-.48.13-.2.2-.43.2-.69,0-.45-.17-.8-.51-1.06-.34-.26-.77-.48-1.29-.66s-1.08-.36-1.68-.55c-.6-.18-1.16-.43-1.68-.74-.52-.31-.95-.71-1.29-1.22-.34-.5-.51-1.17-.51-2s.16-1.5.47-2.1c.31-.6.73-1.11,1.26-1.51.53-.41,1.13-.71,1.82-.91.69-.2,1.39-.3,2.12-.3.84,0,1.65.12,2.44.36s1.49.64,2.12,1.2l-2.25,2.46Z"/>
        <path class="cls-4" d="M68.96,55.23h-2.77v3.4c0,.28.01.54.04.77.03.23.09.43.19.6.1.17.25.3.45.39.2.09.47.14.81.14.17,0,.39-.02.66-.05s.48-.12.62-.24v2.62c-.35.13-.71.21-1.09.25s-.75.06-1.11.06c-.53,0-1.02-.06-1.47-.17-.45-.11-.84-.29-1.18-.54s-.6-.56-.79-.96c-.19-.39-.28-.87-.28-1.43v-4.85h-2.02v-2.52h2.02v-3.02h3.15v3.02h2.77v2.52Z"/>
        <path class="cls-4" d="M80.22,61.15c-.5.64-1.14,1.14-1.91,1.49-.77.35-1.57.53-2.39.53s-1.52-.13-2.22-.38-1.29-.61-1.81-1.08c-.51-.47-.91-1.03-1.21-1.69-.29-.66-.44-1.39-.44-2.2s.15-1.55.44-2.21c.29-.66.7-1.22,1.21-1.69.51-.47,1.11-.83,1.81-1.08s1.43-.38,2.22-.38c.73,0,1.39.13,1.98.38.59.25,1.1.61,1.51,1.08.41.47.73,1.03.96,1.69.22.66.34,1.39.34,2.21v.99h-7.31c.13.6.4,1.08.82,1.44.42.36.94.54,1.55.54.52,0,.96-.12,1.31-.35.36-.23.67-.53.93-.89l2.21,1.62ZM77.55,56.66c.01-.53-.16-.99-.52-1.37-.36-.38-.83-.57-1.41-.57-.35,0-.66.06-.92.17-.27.11-.49.26-.68.43-.19.18-.34.38-.44.61-.1.23-.16.47-.18.72h4.16Z"/>
        <path class="cls-4" d="M92.27,61.15c-.5.64-1.14,1.14-1.91,1.49-.77.35-1.57.53-2.39.53s-1.52-.13-2.22-.38-1.29-.61-1.81-1.08c-.51-.47-.91-1.03-1.21-1.69-.29-.66-.44-1.39-.44-2.2s.15-1.55.44-2.21c.29-.66.7-1.22,1.21-1.69.51-.47,1.11-.83,1.81-1.08s1.43-.38,2.22-.38c.73,0,1.39.13,1.98.38.59.25,1.1.61,1.51,1.08.41.47.73,1.03.96,1.69.22.66.34,1.39.34,2.21v.99h-7.31c.13.6.4,1.08.82,1.44.42.36.94.54,1.55.54.52,0,.96-.12,1.31-.35.36-.23.67-.53.93-.89l2.21,1.62ZM89.61,56.66c.01-.53-.16-.99-.52-1.37-.36-.38-.83-.57-1.41-.57-.35,0-.66.06-.92.17-.27.11-.49.26-.68.43-.19.18-.34.38-.44.61-.1.23-.16.47-.18.72h4.16Z"/>
        <path class="cls-4" d="M94.71,47.04h3.15v15.88h-3.15v-15.88Z"/>
      </g>
      <g>
        <circle class="cls-3" cx="115.15" cy="55.38" r="6.3"/>
        <circle class="cls-2" cx="115.15" cy="55.38" r="8.34"/>
      </g>
      <line class="cls-1" x1="151.78" x2="151.78" y2="55.38"/>
      <line class="cls-1" x1="116.64" y1="55.38" x2="151.78" y2="55.38"/>
    </g>
  </g>
</svg>