<?xml version="1.0" encoding="UTF-8"?>
<svg id="Layer_2" data-name="Layer 2" xmlns="http://www.w3.org/2000/svg" viewBox="0 0 200.88 83.64">
  <defs>
    <style>
      .cls-1 {
        stroke-width: 2px;
      }

      .cls-1, .cls-2 {
        fill: none;
        stroke: #fff;
        stroke-miterlimit: 10;
      }

      .cls-2 {
        stroke-width: 1.42px;
      }

      .cls-3 {
        fill: #fff;
      }

      .cls-3, .cls-4 {
        stroke-width: 0px;
      }

      .cls-4 {
        fill: #0239a1;
      }
    </style>
  </defs>
  <g id="Design">
    <g>
      <g>
        <path class="cls-4" d="M4.77,69.43l-2.98,2.62-1.79-2.06,4.85-4.09h2.94v14.87h-3.02v-11.34Z"/>
        <path class="cls-4" d="M22.01,68.67h-5.9l-.06,2.29c.32-.11.76-.17,1.32-.17.76,0,1.45.11,2.08.34s1.17.55,1.63.98c.46.43.81.94,1.06,1.55s.38,1.29.38,2.05c0,.84-.14,1.59-.43,2.25-.29.66-.68,1.21-1.19,1.67s-1.1.8-1.8,1.04c-.69.24-1.45.36-2.26.36-1.29,0-2.37-.32-3.23-.95-.87-.63-1.46-1.58-1.79-2.86l3.3-.76c.08.53.31.96.67,1.29.36.33.82.49,1.36.49.67,0,1.21-.21,1.61-.63.4-.42.6-.95.6-1.6,0-.49-.1-.89-.3-1.21-.2-.32-.47-.57-.8-.76-.33-.19-.7-.32-1.1-.39s-.81-.11-1.22-.11c-.52,0-1.04.05-1.56.15s-1.03.23-1.52.4l.17-8.21h8.99v2.77Z"/>
        <path class="cls-4" d="M23.69,69.8c0-.57.11-1.11.33-1.62.22-.5.51-.95.88-1.32.37-.38.81-.67,1.31-.89.5-.22,1.04-.33,1.62-.33s1.11.11,1.62.33c.5.22.94.51,1.31.89s.67.82.88,1.32c.22.5.33,1.04.33,1.62s-.11,1.11-.33,1.62c-.22.5-.51.94-.88,1.32-.37.38-.81.68-1.31.89-.5.22-1.04.33-1.62.33s-1.11-.11-1.62-.33c-.5-.22-.94-.51-1.31-.89-.37-.38-.67-.82-.88-1.32-.22-.5-.33-1.04-.33-1.62ZM29.82,69.8c0-.56-.19-1.04-.58-1.43-.39-.39-.86-.59-1.42-.59s-1.03.2-1.42.59c-.39.39-.58.87-.58,1.43s.19,1.04.58,1.43c.38.39.86.59,1.42.59s1.03-.2,1.42-.59c.38-.39.58-.87.58-1.43ZM36.5,65.23l1.76.99-8.67,15.22-1.6-.9,8.5-15.31ZM34.25,76.84c0-.57.11-1.11.33-1.62.22-.5.51-.95.88-1.32.37-.38.81-.67,1.31-.89.5-.22,1.04-.33,1.62-.33s1.11.11,1.62.33c.5.22.94.51,1.31.89s.67.82.88,1.32c.22.5.33,1.04.33,1.62s-.11,1.12-.33,1.63c-.22.51-.51.96-.88,1.33s-.81.68-1.31.89-1.04.33-1.62.33-1.11-.11-1.62-.33-.94-.51-1.31-.89c-.37-.38-.67-.82-.88-1.33-.22-.51-.33-1.05-.33-1.63ZM40.38,76.84c0-.56-.19-1.04-.58-1.43-.39-.39-.86-.59-1.42-.59s-1.03.2-1.42.59c-.39.39-.58.87-.58,1.43s.19,1.06.58,1.45c.38.39.86.59,1.42.59s1.03-.2,1.42-.59c.38-.39.58-.88.58-1.45Z"/>
        <path class="cls-4" d="M53.24,68.8h-4.24v-2.9h11.76v2.9h-4.24v11.97h-3.28v-11.97Z"/>
        <path class="cls-4" d="M61.8,67.35c0-.5.18-.93.54-1.29.36-.36.79-.54,1.29-.54s.93.18,1.29.54c.36.36.54.79.54,1.29s-.18.93-.54,1.29c-.36.36-.79.54-1.29.54s-.93-.18-1.29-.54c-.36-.36-.54-.79-.54-1.29ZM62.05,70.56h3.15v10.21h-3.15v-10.21Z"/>
        <path class="cls-4" d="M74.42,73.08h-2.77v3.4c0,.28.01.54.04.77.03.23.09.43.19.6.1.17.25.3.45.39.2.09.47.14.81.14.17,0,.39-.02.66-.05s.48-.12.62-.24v2.62c-.35.13-.71.21-1.09.25s-.75.06-1.11.06c-.53,0-1.02-.06-1.47-.17-.45-.11-.84-.29-1.18-.54s-.6-.56-.79-.96c-.19-.39-.28-.87-.28-1.43v-4.85h-2.02v-2.52h2.02v-3.02h3.15v3.02h2.77v2.52Z"/>
        <path class="cls-4" d="M82.42,79.49h-.04c-.35.55-.82.94-1.4,1.18-.58.24-1.19.36-1.84.36-.48,0-.93-.07-1.38-.2-.44-.13-.83-.33-1.17-.6s-.6-.59-.8-.99c-.2-.39-.29-.85-.29-1.37,0-.59.11-1.08.33-1.49.22-.41.51-.74.88-1.01.37-.27.79-.47,1.27-.62.48-.15.97-.25,1.48-.33s1.02-.11,1.53-.13c.51-.01.98-.02,1.42-.02,0-.56-.2-1-.6-1.33s-.87-.49-1.42-.49-.99.11-1.42.33c-.43.22-.81.51-1.14.89l-1.68-1.72c.59-.55,1.27-.96,2.06-1.23.78-.27,1.6-.41,2.44-.41.92,0,1.68.12,2.28.35.59.23,1.07.57,1.43,1.02s.61,1,.75,1.65c.14.65.21,1.4.21,2.26v5.19h-2.9v-1.28ZM81.65,76.29c-.24,0-.54,0-.89.03-.36.02-.7.08-1.03.18s-.61.25-.84.44c-.23.2-.35.47-.35.82,0,.38.16.66.48.84.32.18.66.27,1.01.27.31,0,.61-.04.89-.13.29-.08.54-.2.77-.36.22-.15.4-.35.54-.59.13-.24.2-.52.2-.84v-.67h-.78Z"/>
        <path class="cls-4" d="M87.3,70.56h3.02v1.39h.04c.1-.2.24-.39.42-.59.18-.2.4-.37.65-.52s.54-.28.86-.38c.32-.1.67-.15,1.05-.15.8,0,1.44.12,1.93.37.49.25.87.58,1.14,1.02.27.43.46.95.56,1.53.1.59.15,1.23.15,1.91v5.63h-3.15v-5c0-.29-.01-.6-.03-.91-.02-.32-.08-.61-.19-.87-.1-.27-.27-.48-.48-.65-.22-.17-.53-.25-.93-.25s-.73.07-.99.22c-.25.15-.44.34-.58.59-.13.25-.22.52-.26.83s-.06.63-.06.97v5.08h-3.15v-10.21Z"/>
        <path class="cls-4" d="M99.14,67.35c0-.5.18-.93.54-1.29.36-.36.79-.54,1.29-.54s.93.18,1.29.54c.36.36.54.79.54,1.29s-.18.93-.54,1.29c-.36.36-.79.54-1.29.54s-.93-.18-1.29-.54c-.36-.36-.54-.79-.54-1.29ZM99.39,70.56h3.15v10.21h-3.15v-10.21Z"/>
        <path class="cls-4" d="M114.64,80.77h-3.02v-1.39h-.04c-.11.2-.26.39-.43.59s-.39.37-.64.52c-.25.15-.54.28-.86.38-.32.1-.67.15-1.05.15-.8,0-1.45-.12-1.94-.37-.5-.25-.88-.58-1.16-1.02s-.46-.95-.55-1.53c-.09-.59-.14-1.22-.14-1.91v-5.63h3.15v5c0,.29.01.6.03.91.02.32.08.61.19.87s.27.48.48.65c.22.17.53.25.93.25s.74-.07.99-.22c.25-.15.44-.34.58-.59.13-.25.22-.52.26-.83.04-.31.06-.63.06-.97v-5.08h3.15v10.21Z"/>
        <path class="cls-4" d="M116.86,70.56h3.02v1.39h.04c.1-.2.24-.39.42-.59.18-.2.4-.37.65-.52s.54-.28.86-.38c.32-.1.67-.15,1.05-.15.71,0,1.35.15,1.9.44.55.29.97.76,1.25,1.39.36-.66.8-1.13,1.32-1.41s1.16-.42,1.91-.42c.69,0,1.26.12,1.73.35.47.23.84.55,1.11.95.27.4.47.87.59,1.41.12.54.18,1.12.18,1.73v6.03h-3.15v-5.94c0-.48-.1-.88-.3-1.23-.2-.34-.56-.51-1.08-.51-.36,0-.67.06-.91.18-.25.12-.44.28-.59.49s-.25.46-.31.73c-.06.28-.09.57-.09.88v5.4h-3.15v-5.4c0-.18,0-.41-.02-.67-.01-.27-.06-.52-.15-.76-.08-.24-.22-.44-.41-.61s-.47-.25-.83-.25c-.41,0-.73.07-.99.22-.25.15-.44.34-.58.59-.13.25-.22.52-.26.83s-.06.63-.06.97v5.08h-3.15v-10.21Z"/>
      </g>
      <g>
        <circle class="cls-3" cx="148.55" cy="74.59" r="6.3"/>
        <circle class="cls-2" cx="148.55" cy="74.59" r="8.34"/>
      </g>
      <line class="cls-1" x1="199.88" x2="199.88" y2="74.59"/>
      <line class="cls-1" x1="148.55" y1="74.59" x2="199.88" y2="74.59"/>
    </g>
  </g>
</svg>