<?xml version="1.0" encoding="utf-8"?>
<!-- Generator: Adobe Illustrator 28.3.0, SVG Export Plug-In . SVG Version: 6.00 Build 0)  -->
<svg version="1.1" xmlns="http://www.w3.org/2000/svg" xmlns:xlink="http://www.w3.org/1999/xlink" x="0px" y="0px"
	 viewBox="0 0 960 600" style="enable-background:new 0 0 960 600;" xml:space="preserve">
<style type="text/css">
	.st0{fill:url(#SVGID_1_);}
	.st1{fill:#0239A1;}
	.st2{fill:#0A1E3F;}
	.st3{fill:#A2DCF8;stroke:#231F20;stroke-miterlimit:10;}
	.st4{fill:#8BCEF0;stroke:#231F20;stroke-miterlimit:10;}
	.st5{fill:#0B97D7;}
	.st6{fill:none;stroke:#231F20;stroke-width:2;stroke-miterlimit:10;}
	.st7{fill:url(#SVGID_00000045586225534370386550000011591750561339643027_);}
	.st8{fill:#EEF2F8;}
	.st9{fill:#A2DCF8;}
	.st10{fill:#8BCEF0;}
	.st11{fill:none;stroke:#0B97D7;stroke-width:3;stroke-miterlimit:10;}
	.st12{display:none;opacity:0.58;}
	.st13{opacity:0.58;}
	.st14{display:inline;}
	.st15{fill:none;stroke:#000000;stroke-width:0.8;stroke-miterlimit:10;}
	.st16{fill:#FFFFFF;stroke:#231F20;stroke-width:0.8489;stroke-miterlimit:10;}
	.st17{fill:none;stroke:#231F20;stroke-width:0.9557;stroke-miterlimit:10;}
	.st18{fill:#0B97D7;stroke:#FFFFFF;stroke-width:6.3139;stroke-miterlimit:10;}
	.st19{display:none;fill:#FFFFFF;stroke:#231F20;stroke-width:0.9317;stroke-miterlimit:10;}
	.st20{fill:none;stroke:#231F20;stroke-width:0.9887;stroke-miterlimit:10;}
	.st21{fill:#0B97D7;stroke:#FFFFFF;stroke-width:6.0018;stroke-miterlimit:10;}
	.st22{display:none;fill:#FFFFFF;stroke:#231F20;stroke-width:0.8743;stroke-miterlimit:10;}
	.st23{fill:none;stroke:#231F20;stroke-width:0.9676;stroke-miterlimit:10;}
	.st24{fill:#0B97D7;stroke:#FFFFFF;stroke-width:5.874;stroke-miterlimit:10;}
	.st25{display:none;fill:#FFFFFF;stroke:#231F20;stroke-width:0.6543;stroke-miterlimit:10;}
	.st26{fill:none;stroke:#231F20;stroke-width:0.7002;stroke-miterlimit:10;}
	.st27{fill:#0B97D7;stroke:#FFFFFF;stroke-width:4.2504;stroke-miterlimit:10;}
	
		.st28{fill:url(#SVGID_00000119088592935844576180000003506684674667369363_);stroke:#95ADBB;stroke-width:2.8048;stroke-miterlimit:10;}
	
		.st29{fill:url(#SVGID_00000035531690338712806030000002659735601127259565_);stroke:#CBD0D5;stroke-width:1.8699;stroke-miterlimit:10;}
	
		.st30{fill:url(#SVGID_00000182503547273404095070000000174103954450923444_);stroke:#95ADBB;stroke-width:1.8321;stroke-miterlimit:10;}
	
		.st31{fill:url(#SVGID_00000021080206676014510770000000649573022620988093_);stroke:#CBD0D5;stroke-width:1.2214;stroke-miterlimit:10;}
	.st32{fill:none;stroke:#0B97D7;stroke-width:22.8726;stroke-miterlimit:10;}
	.st33{fill:none;stroke:#A2DCF8;stroke-width:16.2516;stroke-miterlimit:10;}
	.st34{fill:#2252AD;}
	.st35{fill:none;stroke:#FFFFFF;stroke-width:2;stroke-miterlimit:10;}
	.st36{fill:#FFFFFF;}
	.st37{fill:none;stroke:#FFFFFF;stroke-width:1.4152;stroke-miterlimit:10;}
	.st38{fill:url(#SVGID_00000028313984892462656390000017406443874125899402_);}
	.st39{opacity:0.4;fill:none;stroke:#FFFFFF;stroke-width:1.505;stroke-miterlimit:10;}
	.st40{fill:none;stroke:#FFFFFF;stroke-width:1.505;stroke-miterlimit:10;}
	.st41{fill:#FFFFFF;stroke:#86B6EE;stroke-width:1.8861;stroke-miterlimit:10;}
	.st42{fill:#FFFFFF;stroke:#86B6EE;stroke-width:1.3589;stroke-miterlimit:10;}
	.st43{fill:#FFFFFF;stroke:#86B6EE;stroke-width:1.2244;stroke-miterlimit:10;}
	.st44{fill:#FFFFFF;stroke:#86B6EE;stroke-width:1.2102;stroke-miterlimit:10;}
	.st45{fill:#FFFFFF;stroke:#86B6EE;stroke-width:1.3346;stroke-miterlimit:10;}
	.st46{fill:#FFFFFF;stroke:#86B6EE;stroke-width:1.2064;stroke-miterlimit:10;}
	.st47{fill:#FFFFFF;stroke:#86B6EE;stroke-width:1.7495;stroke-miterlimit:10;}
	.st48{fill:#FFFFFF;stroke:#86B6EE;stroke-width:1.105;stroke-miterlimit:10;}
	.st49{fill:#FFFFFF;stroke:#86B6EE;stroke-width:3.337;stroke-miterlimit:10;}
	.st50{display:none;}
	.st51{display:inline;fill:#FFFFFF;stroke:#86B6EE;stroke-width:3.337;stroke-miterlimit:10;}
	.st52{display:inline;fill:#FFFFFF;stroke:#86B6EE;stroke-width:2.2117;stroke-miterlimit:10;}
	.st53{display:inline;fill:url(#SVGID_00000178883313867437786160000004018756925470410418_);}
	.st54{display:inline;opacity:0.4;fill:none;stroke:#FFFFFF;stroke-width:1.505;stroke-miterlimit:10;}
	.st55{display:inline;fill:none;stroke:#0B97D7;stroke-width:3;stroke-miterlimit:10;}
	.st56{display:inline;fill:#0B97D7;}
	.st57{fill:none;}
	.st58{fill-rule:evenodd;clip-rule:evenodd;fill:#293B57;}
	.st59{fill:none;stroke:#FFFFFF;stroke-width:4.4595;stroke-miterlimit:10;}
	.st60{display:inline;fill:#FFFFFF;stroke:#86B6EE;stroke-width:3.0637;stroke-miterlimit:10;}
	.st61{display:inline;fill:none;}
	.st62{fill:#231F20;}
	.st63{font-family:'AvenirNext-Medium';}
	.st64{font-size:12px;}
	.st65{font-family:'AvenirNext-Bold';}
	.st66{font-family:'AvenirNext-DemiBold';}
	.st67{font-size:18px;}
	.st68{display:none;fill:#0239A1;}
	.st69{font-family:'AnfaceRegular';}
	.st70{font-size:84.6781px;}
	.st71{letter-spacing:7.7;}
	.st72{display:inline;fill:#FFFFFF;stroke:#86B6EE;stroke-width:3.1461;stroke-miterlimit:10;}
	.st73{fill:#FFFFFF;stroke:#86B6EE;stroke-width:2.9882;stroke-miterlimit:10;}
	.st74{fill:#FFFFFF;stroke:#86B6EE;stroke-width:3.2179;stroke-miterlimit:10;}
	.st75{fill:#FFFFFF;stroke:#86B6EE;stroke-width:3.4165;stroke-miterlimit:10;}
	.st76{display:inline;fill:#FFFFFF;stroke:#86B6EE;stroke-width:3.6239;stroke-miterlimit:10;}
	.st77{fill:url(#SVGID_00000143616655829883820490000004781869790780849301_);}
	.st78{fill:url(#SVGID_00000181770977667057592820000007449731472306613632_);}
	.st79{fill:#86B6EE;}
	.st80{fill:url(#SVGID_00000101805260710957879870000004136861309021296551_);}
	.st81{fill-rule:evenodd;clip-rule:evenodd;fill:#FFFFFF;}
	.st82{fill:#F2F6FF;}
	.st83{fill:none;stroke:#000000;stroke-width:0.5;stroke-miterlimit:10;}
	.st84{fill:#808080;stroke:#000000;stroke-width:0.25;stroke-miterlimit:10;}
	.st85{opacity:0.81;fill:#16B8F5;}
	.st86{opacity:0.81;fill:#0239A1;}
	.st87{opacity:0.81;fill:#029AA0;}
	.st88{fill:url(#SVGID_00000008115425649050748020000017462482593161211581_);}
	.st89{fill:url(#SVGID_00000134968817125659459940000008829182749422444448_);}
	.st90{fill:url(#SVGID_00000146478616034232267070000001275644621253727665_);}
	.st91{opacity:0.62;}
	.st92{fill:none;stroke:#231F20;stroke-width:3;stroke-miterlimit:10;}
	.st93{clip-path:url(#SVGID_00000072241409950729204500000005626976318236146327_);}
	.st94{display:inline;fill:#0A1E3F;}
	.st95{display:inline;clip-path:url(#SVGID_00000127001894455816047140000005092478499541145230_);}
	.st96{fill:url(#SVGID_00000060004720137573443400000000596334607100986755_);}
	.st97{fill:#0A1E3F;stroke:#0A1E3F;stroke-width:0.968;stroke-miterlimit:10;}
	.st98{fill:#231F20;stroke:#000000;stroke-width:0.4259;stroke-miterlimit:10;}
	.st99{fill:#16B8F5;}
	.st100{fill:none;stroke:#0B97D7;stroke-width:24.9923;stroke-miterlimit:10;}
	.st101{fill:none;stroke:#A2DCF8;stroke-width:17.7577;stroke-miterlimit:10;}
	.st102{fill:none;stroke:#0B97D7;stroke-width:21.5648;stroke-miterlimit:10;}
	.st103{fill:none;stroke:#A2DCF8;stroke-width:15.3224;stroke-miterlimit:10;}
	.st104{fill:none;stroke:#0B97D7;stroke-width:25.428;stroke-miterlimit:10;}
	.st105{fill:none;stroke:#A2DCF8;stroke-width:18.0673;stroke-miterlimit:10;}
	.st106{fill:none;stroke:#0B97D7;stroke-width:21.3783;stroke-miterlimit:10;}
	.st107{fill:none;stroke:#A2DCF8;stroke-width:15.1898;stroke-miterlimit:10;}
	.st108{fill:url(#SVGID_00000142892339634469492310000005690497521385206673_);}
	.st109{fill:#334B6D;}
	.st110{fill:#9296A0;}
	.st111{clip-path:url(#SVGID_00000149367522039470346020000012777493228478564532_);}
	.st112{clip-path:url(#Wing_Right_Colour_00000036230988448282181070000012132299636531118221_);}
	.st113{opacity:0.58;clip-path:url(#Body_Colour_00000177446757956360862820000011002164944859884693_);}
	.st114{opacity:0.47;clip-path:url(#Body_Colour_00000177446757956360862820000011002164944859884693_);}
	.st115{opacity:0.51;clip-path:url(#Body_Colour_00000177446757956360862820000011002164944859884693_);}
	.st116{fill:url(#SVGID_00000158017915477634193770000008705569394083103640_);}
	.st117{clip-path:url(#SVGID_00000124860418838866821540000002088243715736667009_);}
	.st118{fill:url(#LeftWing_00000036239564070484642150000008409087209306730680_);}
	.st119{fill-rule:evenodd;clip-rule:evenodd;fill:#2252AD;}
</style>
<g id="Layer_1">
</g>
<g id="Design">
</g>
<g id="Where_It_x27_s_made">
</g>
<g id="Timeline">
	<g class="st50">
		<linearGradient id="SVGID_1_" gradientUnits="userSpaceOnUse" x1="734.0667" y1="-24.3657" x2="142.0997" y2="731.3956">
			<stop  offset="0" style="stop-color:#89D5F6"/>
			<stop  offset="0.7244" style="stop-color:#ADE1FA"/>
		</linearGradient>
		<rect style="display:inline;fill:url(#SVGID_1_);" width="960" height="600"/>
		<path class="st54" d="M35.6-113.7v812.4 M-11.9-75.1h983.9 M-11.9-27.5h983.9 M-11.9,17.3h983.9 M-11.9,64.9h983.9 M-11.9,113
			h983.9 M-11.9,160.1h983.9 M-11.9,206.5h983.9 M-11.9,253.6h983.9 M-11.9,300.6h983.9 M-11.9,347.3h983.9 M-11.9,394.1h983.9
			 M-11.9,440.5h983.9 M-11.9,488.7h983.9 M971.9,535.2H-11.9 M-11.9,581.9h983.9 M-11.9,625.5h983.9 M-11.9,672.3h983.9
			 M82.8-113.7v812.4 M130-113.7v812.4 M175.9-113.7v812.4 M223-113.7v812.4 M270.2-113.7v812.4 M317.4-113.7v812.4 M364.5-113.7
			v812.4 M411.7-113.7v812.4 M457.6-113.7v812.4 M551.9-113.7v812.4 M600-113.7v812.4 M645.8-113.7v812.4 M693-113.7v812.4
			 M739.3-113.7v812.4 M786.5-113.7v812.4 M833.5-113.7v812.4 M880.6-113.7v812.4 M927-113.7v812.4 M505.2-113.7v812.4"/>
		<g class="st14">
			<path class="st10" d="M297.2,535.2c0.1-1.6-7.5-2.3-9.8-6.8c-0.2-0.4-0.6-1.2-1.4-2.4c-1.7-2.6-2.6-2.5-3-3.5
				c-1.2-3.1,5.3-6.3,4.4-10.7c-0.1-0.4-0.5-2.2-1.9-3.2c-1.6-1.1-3.2-0.3-4-1.4c-0.8-1-0.4-3,0.5-4.2c1.2-1.6,3-1.3,3.3-2.5
				c0.3-1.1-1.2-1.7-1.1-3.2c0.1-1.9,2.7-2.8,2.4-3.8c-0.3-1-3.3-0.2-4.3-1.8c-0.5-0.8-0.4-2.1,0.3-2.8c1.4-1.5,4.5,0.6,5.5-0.6
				c1.3-1.4-2.2-5.3-1-6.8c1.3-1.6,5.8,1.8,9.1-0.1c2.5-1.5,3.4-5.4,2.8-8.3c-0.9-4.3-5.2-6.7-4.8-7.2c0.4-0.5,4,3.1,8.4,2.6
				c2.9-0.3,6.2-2.2,7.6-5.2c2.1-4.4-1.6-7.3,0.6-12.2c1.4-3.1,3.2-2.6,4.5-5.7c2.1-4.9-1.5-8.1,0-11.7c2.1-5.1,10.2-2,15.7-6.8
				c7.9-7-2.3-19.7,5.7-33.9c4.6-8.1,10.6-8.7,11.9-17c0.8-4.8-0.2-11.6-3.8-13.4c-1.9-1-2.9,0.1-5.3-1.1c-3.4-1.8-2.8-5-5.7-6.1
				c-2.2-0.8-2.8,0.9-7.2,0.6c-1.4-0.1-3.5-0.3-5.3-1.7c-1.6-1.2-1.1-1.9-2.5-3.2c-2.3-2.2-4.6-1.2-9.8-3.6
				c-0.8-0.4-1.6-0.8-2.3-1.7c-1.1-1.5-1-3.4-0.9-4c0.2-4.3-3.5-11.7-8.1-14.6c-4.4-2.8-6.5,0.7-12.1-2.1c-4-2-6.6-5.5-9.5-9.3
				c-3.3-4.4-4.1-7-6.6-7.4c-2.3-0.3-2.8,1.6-6.4,1.9c-0.6,0-5.1,0.4-7.9-2.5c-1.8-1.8-1.6-3.6-3-4c-2-0.5-4,2.7-5.1,2.1
				c-1-0.6,0.1-3.5-0.8-4c-0.8-0.4-2.6,1.7-5.5,5.1c-5.5,6.6-6.6,8.4-8.7,8.5c-1.3,0.1-1.1-0.6-5.1-2.3c-1.5-0.6-4.7-2-8.9-2.6
				c-3.8-0.6-4.2-0.1-4.9-0.8c-2.8-2.9,5.7-12.5,2.8-16.5c-2.5-3.5-11.6,0.6-13.2-2.5c-1.1-2.1,2.5-4.6,4.7-12.3
				c1-3.3,2.1-7.2,0.4-8.7c-2-1.7-7.5,0-9.8,3.6c-2,3-0.4,5.3-2.3,7.2c-2.4,2.4-8.1,2-11.3-0.6c-5.9-4.7-3.2-15.8-2.5-18.7
				c1.8-7.4,7.4-18.1,14.4-18.3c4.3-0.2,8.2,3.5,10.2,1.7c1.2-1.1,0.1-2.7,1.5-4c1.8-1.6,6.1-1.2,8.5,0.9c0.9,0.8,1.5,1.8,2.6,1.9
				c1.3,0.1,1.7-1.1,2.5-0.9c1.3,0.3,0.9,4.5,2.1,9.1c1,4,3.3,8.2,4.4,7.9c1.1-0.2,0.2-5.2,1.3-14c0.7-5.8,1.1-8.6,2.8-11.3
				c1-1.5,1.4-1.5,10.6-9.1c3.8-3.1,5.4-4.4,6.8-6.8c2.2-3.6,1-4.3,2.6-6.8c3.9-6,11.6-3.8,15.5-10.2c1.3-2.1,0.4-2.2,1.7-4.5
				c4.3-7.5,15.1-8.8,15.5-7.9c0.2,0.5-2.9,1.5-3,3.8c0,1.3,0.9,2.8,2.1,3c1.5,0.3,2.2-1.5,5.7-4.2c3.1-2.3,5.1-2.9,4.9-3.8
				c-0.2-1.2-3.5-0.6-4.7-2.5c-1.7-2.7,3.2-7.5,1.9-9.3c-1.7-2.3-11.1,2.8-11.7,1.7c-0.4-0.7,2.8-4.6,7.6-5.9
				c6.5-1.7,9.7,3.3,15.9,1.5c4.8-1.3,7.5-5.5,7.8-5.3c0.5,0.5-11,12.3-9.5,14.2c1,1.2,6-2.6,9.8-0.2c1.1,0.7,1.7,1.7,2.8,1.5
				c1.4-0.2,2.3-2,2.8-3.2c0.4-0.8,2.1-4.4,0.8-5.7c-1.3-1.3-4.6,1.2-5.5,0.2c-1.2-1.3,4.8-5.8,4.4-11.2c-0.4-4.6-5.1-4.1-7.4-10.2
				c-2-5.4,0.5-8.9-2.8-13.8c-1.1-1.6-2.3-2.6-2.8-3.1c-1.2-1-3.8-2.9-9.5-4.1c-7-1.4-11.1-2.3-13.6,0c-3.2,3-1.2,8.9-4.9,10.8
				c-1.2,0.6-2.7,0.7-3,1.7c-0.3,1,1,1.6,1.1,2.8c0.3,2.8-6.1,3.5-9.1,8.5c-2.1,3.6-0.3,5.7-2.8,8.9c-2.2,2.7-5.9,4.1-6.8,3.2
				c-1.6-1.6,5.4-9.4,3-12.5c-0.7-0.9-1.5-0.3-4.4-1.3c-4.6-1.6-4.6-3.8-9.1-5.3c-2.4-0.8-3.3-0.4-4.4-1.5c-1.7-1.8-1.3-4.9-1.1-5.9
				c1.5-10.3,26.7-20.6,28.6-17.8c0.8,1.3-3.3,4.7-2.3,6.1c0.9,1.2,5.4-0.5,9.3-2.3c1.1,0.7,2.6,1.5,3,1.1c0.9-0.9-4.6-7.4-3.6-8.3
				c0.5-0.5,1.9,1.3,3.8,1.1c3.9-0.4,3.6-9.3,8.9-11.5c2.6-1.1,5.4-0.1,7.9,0.8c0.9,0.3,7.2,2.6,7.2,5.7c0,2.7-4.9,4.8-8.3,6.2
				c-5.2,2.2-8.9,2.3-8.9,3c0,0.5,2.1,0.8,8.5,1.7c7.2,1,10.8,1.6,12.1,1.9c4.7,1.1,6.3,2.1,7,1.3c1.7-1.9-5.1-10.6-4.2-11.3
				c0.7-0.6,4.4,5.1,8.5,4.5c3-0.4,5.7-4,5.1-6.2c-0.8-3.1-7.7-2.8-7.9-5.1c-0.2-2.1,5.2-3.6,4.9-5.1c-0.4-1.7-7.1,0.4-11.2-3.4
				c-2.6-2.4-2.6-5.7-4.5-5.9c-1.7-0.1-2.2,2.3-4.5,2.6c-2.1,0.3-2.8-1.5-5.5-2.5c-4.3-1.6-8.7,0.6-11,1.7c-0.9,0.5-6.6,3.2-6.2,5.9
				c0.3,1.9,3.3,1.8,3.8,3.8c0.7,3.1-6.3,7.8-7.4,6.8c-0.8-0.7,1.4-4,0.4-4.7c-0.7-0.6-2.3,1.1-3.2,0.6c-1.5-0.8,1.1-5.5-0.6-7.2
				c-1.8-1.8-8.2,0.3-8.9,3.4c-0.2,1,0.3,1.4,0.2,2.6c-0.4,3.2-5.1,5-5.5,5.1c-4.4,1.6-10.1,0.6-14.2-1.7c-1.9-1.1-3.6-2.4-5.9-2.1
				c-1.5,0.2-2.3,1.1-3.4,1.9c-4.9,3.6-12.7,3.9-14.4,1.3c-0.8-1.1,0.3-1.9-0.4-3c-1.8-2.9-9.6,1.7-16.1-1.9
				c-2.8-1.6-1.9-2.7-4.2-3.6c-6.1-2.4-11.4,6.6-19.9,5.7c-3.5-0.4-5.7-2.3-7.6-3.6c-17.4-12-56.5-0.3-56.4,5.3c0,1.7,3.9,3,3.4,4.5
				c-0.4,1.1-2.8,1.3-4.9,1.5c-4.5,0.4-5.6-0.8-8.3,0c-2.8,0.8-5.3,3.1-4.9,4.2c0.6,1.8,8.5,0.3,8.7,1.1c0.1,0.6-3.8,1.7-9.5,3.8
				c-10.6,3.9-11.3,5.5-11.3,6.4c-0.1,2.3,3.9,4.5,3.4,5.3c-0.1,0.2-0.6,0.2-1.2,0.2c-1.2,0-2.3-0.5-2.2-0.6c0.1-0.2,7.9,1.3,7.9,3
				c0,1.2-3.7,1.5-9.1,4.2c-4,2-9.1,5.4-8.7,6.4c0.5,1.3,9.4-0.6,16.6-3.4c11.3-4.3,17.9-13.2,19.7-11.7c0.9,0.8-0.6,3.3,0.5,4.2
				c1.5,1.1,6.3-1.7,9.3-4.3c2.1-1.8,3-3.1,4.4-2.9c1.4,0.2,1.5,1.8,3.2,3.2c2.7,2.2,5.5,0.4,8.7,1.5c4.1,1.4,6.2,6.7,6.8,10
				c1.3,7.3-4.1,10.8-1.8,16.8c1.3,3.3,4.2,5.4,3.8,5.9c-0.5,0.6-4.7-3.5-6.2-2.5c-0.9,0.6-0.3,2.4,0.6,9.1c0.4,2.8,0.6,4.2,0.6,4.5
				c0.1,7.9-10.4,10-12.7,20c-0.5,2.1,0.2,1.1-0.2,7.8c-0.5,8.7-1.8,12.8,0.4,14.6c1.5,1.2,2.7-0.1,4.5,1.1
				c2.4,1.6,1.1,4.3,3.2,10.8c1.2,3.7,2.4,4.9,1.7,7c-0.7,2.1-2.4,2.4-2.3,4c0.1,2,3,2,4.5,4.9c1.2,2.4-0.1,3.6,1.1,6.1
				c1.4,2.8,4.7,4.4,5.5,3.8c0.6-0.5-0.6-2-1.9-6.2c-1.4-4.6-0.7-4.6-1.9-7.9c-1.7-4.6-3.4-5.2-3.4-8.3c0-2.7,1.2-5.3,2.1-5.3
				c0.9,0,0.6,2.7,2.3,7c1.8,4.7,3.5,5.3,5.3,10.6c1,2.8,0.4,2.4,1.1,4.2c2.6,6,7.6,6.5,7.8,10.4c0.1,2.3-1.6,2.5-1.5,5.5
				c0.1,3,1.9,5.3,2.6,6.2c1.3,1.6,2.6,2.5,4.2,3.6c6.2,4.1,9.3,6.2,11.9,6.4c5,0.5,7.5-2.2,10.2-0.2c1.5,1,1,2,3,3.8
				c1,0.9,1.9,1.3,6.2,3c5.7,2.2,6.1,2.2,7.4,3c1.6,1,3.5,2.2,4.7,4.4c2.6,4.5-0.5,8.3,1.9,10.6c1.9,1.9,4.4-0.2,8.1,2.1
				c2.5,1.6,3.3,3.7,4.4,3.4c1.5-0.5,0.6-5.3,1.9-5.7c1-0.3,3.3,2.1,4.4,5.1c1.8,5.2-1.6,6.8-2.1,16.6c-0.1,2,0,3.9-1.3,4.9
				c-2,1.6-5.2-0.1-6.2,1.3c-0.6,0.8,0,1.7,0.8,4.2c0.5,1.7,1.7,5.8,1.1,9.5c-0.5,3.2-1.9,3.3-2.3,6.1c-0.5,3.7,1.4,6.8,2.6,8.9
				c12,19.8,10.1,20.5,14.9,24.4c7.1,5.7,12.3,5,15.5,11.5c0.3,0.6,0.7,1.5,1.7,7.8c2,12.3,3.1,18.5,2.6,22.9
				c-0.5,5.2-1.7,8.2-0.8,14.2c0.4,2.7,0.7,2.5,1.3,5.5c0.3,1.5,1,5.7,0.2,19.5c-0.3,5.7-0.6,7.9,0.9,9.6c1.3,1.5,3.2,1.9,4.4,4.2
				c0.8,1.6,0.7,2.9,0.8,4.2c0.3,8.1,6,10.1,5.1,16.6c-0.2,1.7-0.8,2.9-0.2,4.5c0.7,2,2.1,2.1,3.2,4.4c1.1,2.2,0.2,2.8,1.1,4.9
				c1.3,2.8,4.5,5.4,6.8,4.7c1.8-0.5,2.6-2.9,3.4-2.6c0.6,0.2,0.2,1.4,1.3,2.6c0.7,0.8,1.1,0.6,1.7,1.3c0.9,1.1,0.5,2.2,0.9,3
				C287.7,538.4,297.1,536.9,297.2,535.2z"/>
			<path class="st10" d="M212.8,105.8c3.6-0.3,5.1-1.7,6.1-0.9c0.9,0.7,0.7,2.4,0.6,4c-0.2,1.9-0.6,2.1-0.4,2.8
				c0.6,1.6,4.1,2.2,7,1.7c4.3-0.7,4.4-3.2,7.6-3.4c3.8-0.3,4.7,3.2,9.6,3.4c1,0,4.6,0.2,6.2-2.1c1.2-1.7,0.7-4,0-7
				c-0.4-1.8-0.8-3.5-1.9-3.8c-1.3-0.3-2,1.8-4.2,1.9c-1.5,0-1.6-1-3.2-0.9c-1.7,0.1-2,1.2-3.6,1.1c-1.4-0.1-2.3-1-2.6-1.3
				c-1.5-1.5-1-2.8-2.1-3.4c-1.2-0.7-2.2,0.6-4.7,0.6c-1.5,0-2.5-0.6-3.4-0.9c-3.9-1.6-10.5-1.2-13.6,2.3c-1.5,1.7-2.4,4.3-1.5,5.5
				C209.4,106.1,211,106,212.8,105.8z"/>
			<path class="st10" d="M228.4,92.2c2.8-3.1,7.7-3,9.7-2.9c1.1,0,5.8,0.2,5.9,1.3c0.2,1.3-6.6,3.1-10.8,3.8
				c-1.9,0.3-5.2,0.8-5.7-0.3C227.3,93.5,228.1,92.6,228.4,92.2z"/>
			<path class="st10" d="M236.6,95.7c-0.2-1.3,4.6-4.2,8.8-3.3c3.3,0.7,4.8,3.5,6.7,2.8c1.7-0.6,2.1-3.3,3-3.2
				c0.6,0.1,0.5,1.2,1.5,1.8c1,0.5,1.9-0.1,2.1,0.3c0.3,0.4-0.7,2-2,3c-0.9,0.7-3.3,2.2-15.1,0.1C237.1,96.4,236.7,96.1,236.6,95.7z
				"/>
			<path class="st10" d="M290.2,87.5c0.8,1.1,3.4-0.5,8.1-0.9c4.6-0.5,7.2,0.6,7.6-0.4c0.4-1-2-2.8-3.4-3.6c-1-0.6-3.2-1.9-6.1-1.5
				c-0.4,0-4.4,0.6-5.9,3.8C290.2,85.4,289.6,86.7,290.2,87.5z"/>
			<path class="st10" d="M290.9,92.2c0,1.1,8.2,3.5,15.7,0.4c2.2-0.9,1.9-1.3,4.7-2.6c6.2-3,8.8-1.6,15.1-3.6
				c6.6-2,5.9-4.1,12.5-5.9c6.3-1.7,10.9-0.8,11-1.5c0.1-0.8-5.7-2.2-11.2-2.8c-1.7-0.2-5.7-0.6-15.1-0.2
				c-16.7,0.8-17.3,2.8-17.4,3.2c-0.1,0.7,0.9,1,1.7,3.2c0.4,1.1,1.1,2.8,0.6,4.2c-0.7,1.8-3.3,2-9.1,3.2
				C293.8,91,290.9,91.6,290.9,92.2z"/>
			<path class="st10" d="M214.1,269.6c-0.4-1.2,3.5-4.6,7.6-4.5c2.6,0.1,2.6,1.5,6.6,2.1c2.1,0.3,3.8,0.1,4.7,1.3
				c0.5,0.7,0.2,1.1,0.8,2.1c0.3,0.6,0.9,1.2,3.6,2.3c3.1,1.3,3.9,1.1,4.5,2.1c0.6,0.9,0.7,2.2,0.2,3c-0.9,1.4-3.5,1.4-5.3,0.8
				c-1.4-0.5-1.7-1.2-4.9-4.5c-2-2.1-3.1-3.1-4-3.6c-2.6-1.3-5.5-1-6.1-0.9c-1.9,0.2-2.6,0.8-4.7,0.8
				C216,270.3,214.4,270.3,214.1,269.6z"/>
			<path class="st10" d="M240.8,281.3c0.1-0.4,3.9,0.9,4.7-0.4c0.7-1-1.2-2.7-0.6-3.6c0.6-0.9,3.1-0.2,5.7,0.6
				c3.5,1,5.3,1.6,5.9,3.2c0.2,0.8,0.2,1.9-0.4,2.6c-1.6,2-6.1,0.9-9.5,0C243.2,282.9,240.7,281.7,240.8,281.3z"/>
			<path class="st10" d="M344.5,113.7c-4.2,2-7.6,6.1-8.3,8.7c-1.9,7,12.6,13,11,20.8c-0.9,4.4-6.4,6.2-6.1,6.8
				c0.5,0.9,12.5-2,17.4-11c3.8-7-0.1-11.2,3.8-16.3c3-3.9,8.8-4.8,20.4-6.4c12.5-1.8,19.2-1,21.6-5.3c1.9-3.4,1.5-7.2,1.5-7.2
				c-0.3-2.8-1.4-3.9-0.8-4.9c1.2-1.9,5.8,1,9.8-1.1c3.7-1.9,5.3-7.2,4.2-8.3c-0.9-0.9-3.3,0.7-3.8,0c-0.5-0.7,1.3-3.2,3.4-4.9
				c5.8-4.7,13.6-3.7,13.6-4.2c0-0.4-7.1,0.2-15.5-2.3c-3.3-1-3.1-1.4-6.1-2.3c-9.3-2.9-18.2-1.3-24.6,0c-6.9,1.4-7,2.4-12.9,3
				c-7.1,0.8-7.5-0.6-14,0c-6.8,0.6-17.7,1.4-19.3,5.3c-0.1,0.3-0.3,0.9-0.9,1.4c-1.3,1.2-3.3,0.9-4.2,0.8
				c-4.5-0.5-10.6,0.8-11.1,2.6c-0.4,1.4,2.2,3.2,2.5,3.4c2.7,1.9,5.3,1.5,13.4,1.8c5.6,0.2,6.6,0.4,7.1,1.3
				c1.4,2.2-2.9,5.1-1.9,9.5c0.7,3.3,3.6,4.4,3,6.4C347.5,112.7,345.9,113,344.5,113.7z"/>
			<path class="st10" d="M403,119c-3.1,0-5.9,5.2-5,6.3c0.8,1,4.7-1.8,6.3-0.3c1.1,1.1-0.3,3.1,0.8,4.5c1.8,2.4,8,0.4,9.3,0
				c0.7-0.2,8.9-2.9,8.6-5.8c-0.2-1.8-3.6-3.5-6.6-3.5c-3.8,0-5.1,2.7-8.1,2C405.4,121.7,405.2,119,403,119z"/>
			<path class="st10" d="M424.1,163.5c1.2-1.9-0.1-3.9,0.9-4.7c0.9-0.7,1.9,0.5,3.6,0c2-0.6,2.2-2.8,3.4-2.8c1.4,0,2.4,2.6,2.5,2.8
				c1,2.6,0.8,7.1-2.5,9.3c-2.1,1.4-4.8,1.5-6.8,0.6c-1.3-0.6-3-2-2.8-3.2C422.5,164.6,423.4,164.6,424.1,163.5z"/>
			<path class="st10" d="M438.8,168c-0.5,2.8-5.7,3.5-5.5,4.7c0.1,0.7,2.1,1.3,3.8,0.9c2-0.4,2.1-1.6,4-2.5c3.4-1.5,6.3,1.1,7.9-0.6
				c0.3-0.3,0.1-0.3,0.9-3c0.9-3.1,1.3-3.7,0.9-4.4c-0.5-1-1.8-0.8-3.4-1.3c-4.2-1.4-7.2-6.8-6.1-9.3c0.7-1.5,2.6-1.4,2.6-2.6
				c0-0.9-1.1-1.2-2.6-3c-1.7-2.1-1.5-3.3-2.5-3.6c-1.3-0.3-3,1.5-3.8,3c-1.9,3.6,0.3,7.8,0.6,8.3c0.6,1.1,1.5,2.2,1.7,2.5
				c1.8,2.2,3.1,2.6,3,3.6c-0.1,1.2-2.1,1.1-2.6,2.6C437.3,165.2,439.2,166.2,438.8,168z"/>
			<path class="st10" d="M442.8,177.5c-0.9,1.7-7.5-0.6-7.9,0.4c-0.2,0.4,0.6,1.3,5.1,4c0.9,1.3,2.4,3.9,2.6,7.4
				c0,0.6,0.5,7.1-2.5,8.5c-2.7,1.3-5.1-3-10-2.3c-0.4,0.1-3.9,0.6-5.9,3.4c-2.1,3.1,0.3,5.4-1.5,11.7c-0.7,2.6-1.5,3.4-0.9,4.7
				c0.8,2,3.7,2.9,6.6,3.8c0.9,0.3,2,0.6,3.5,0.8c1.9,0.2,4.9,0.6,8.3-0.8c0.8-0.3,5.4-2.5,6.6-6.8c0.7-2.7-0.6-3.5,0.4-5.3
				c1.6-3.1,5.8-1.9,7.4-4.7c1.5-2.8-1.5-6.2-0.2-7.4c1.6-1.4,6,3.2,10.4,1.5c2.1-0.8,2.1-2.2,3.8-2.3c2.4-0.1,2.9,2.7,7.4,6.2
				c2.5,2,3.5,2,6.2,4.5c1.7,1.5,2.6,2.7,3,4.4c0.2,0.7,0.7,2.9-0.4,4c-1.5,1.5-4.5-0.4-5.5,0.9c-0.6,0.8-0.1,2.1,0.4,2.8
				c1.2,1.7,3.8,1.9,5.5,1.1c0.9-0.4,1.4-1.1,2.3-2.5c1-1.5,2.4-3.7,2.3-6.4c-0.1-1.7-0.8-2.8-0.4-3c0.6-0.4,2.5,1.8,2.8,1.5
				c0.3-0.2-0.5-2.2-1.9-4c-3-3.7-5.7-2.7-8.1-5.7c-2.9-3.5-1.9-8.5-2.8-8.5c-0.4,0-1,1-0.8,1.7c0.4,1.4,3.4,0.9,6.6,1.7
				c5.3,1.3,8.7,5.1,10.4,7c2.4,2.7,4.5,5.1,4.7,8.5c0.3,3.8-1.9,5.2-1.1,8.9c0.7,3.1,2.8,5,3.4,5.5c4.9,4.2,12.4,2.7,12.5,1.9
				c0.1-0.8-6.3-0.9-7.6-4.5c-0.9-2.5,1.1-5.6-0.2-6.4c-0.6-0.4-1.5,0.1-1.9-0.4c-0.6-0.6,0.5-1.9,0.9-3.8c0.9-3.4-1-5,0-6.1
				c1.5-1.6,7.9,0.8,8.1,3.4c0.1,1.4-1.6,1.8-1.9,4c-0.3,2.1,1.1,3.9,1.5,4.5c2,2.7,5.2,3.3,6.6,3.6c2,0.4,1.9-0.1,5.1,0.4
				c2.3,0.3,2.8,0.7,4.7,0.8c1.3,0.1,2.3,0,4-0.2c3.3-0.3,3.9-0.6,4.4-0.2c0.9,0.8-0.4,2.9-1.3,6.4c-1.7,6.5,0.2,9.3-1.9,10.8
				c-0.5,0.4-2.7,0.2-7.2-0.2c-2.5-0.2-4.4-0.4-6.8,0.2c-1.2,0.3-1.5,0.5-2.3,0.8c-4.6,1.3-7.8-3.6-15.5-5.1c-1.7-0.3-5.5-1-6.8,0.8
				c-1.1,1.5,0.5,3.4-0.6,4.9c-1.5,2.1-7.1,1.9-9.8-0.9c-2.1-2.1-1.3-4.6-3-5.3c-2.1-0.9-3.7,2.2-6.8,1.9c-2.7-0.3-5.4-3-5.7-5.7
				c-0.4-3.7,3.8-5.7,3-7.9c-0.4-1.2-2.2-2-7.2-2.3c-10.3-0.6-18.3,1.7-20,2.3c-6.2,1.9-10,7-12.9,5.3c-1-0.6-1.7-1.8-3.4-2
				c-0.7-0.1-1.7-0.1-3.4,0.9c-1.1,0.6-4.2,2.5-6.4,7.6c-1.5,3.3-0.6,3.4-2.2,7.4c-1.4,3.6-2.3,5.8-4.4,7.4c-3,2.2-6.3,1.5-6.7,3.2
				c-0.3,1.4,1.7,2.4,1.2,3.6c-0.6,1.7-4.7,0.6-5.8,2.5c-1.1,2,2.5,4.9,1.3,6.9c-0.8,1.4-3,0.4-4.5,1.9c-1.6,1.6-0.6,3.9-0.3,10.4
				c0.2,4.5,0.2,6.7-0.5,9.1c-1.3,4-3.1,4.5-3.5,8.1c-0.3,2.6,0.4,4.8,1,6.6c0.5,1.4,1,2.6,3.5,6.6c4.3,6.7,4.5,6.2,5.5,8.6
				c2.1,4.6,1,6,3,8.1c2.3,2.3,4.2,1,7.1,3.5c3,2.6,2.2,5.3,4.5,6.1c1.3,0.4,1.8-0.3,7.1-2c2.9-0.9,4.4-1.4,6.1-1.5
				c3-0.2,3.2,0.7,6.1,0.5c1.5-0.1,3.4-0.7,7.1-2c4.9-1.7,5.2-2.1,6.6-2c2.8,0.1,2.9,1.7,6.6,3c5,1.8,7.5-0.1,9.6,2
				c1.7,1.7,1.6,4.4,1.5,6.1c-0.1,3.7-1.8,5-3,8.6c0,0-1.9,5.5-0.5,11.6c1.2,5.1,3.6,5.1,7.1,11.6c1.2,2.2,4.2,8.4,4.5,16.1
				c0.2,4.1-0.6,7.4-2,14.1c-2.1,9.9-4.2,13.6-2,16.6c1.4,2,2.7,1,6.1,3.7c0.8,0.6,6.5,5.2,6.1,10.6c-0.3,3.2-2.6,3.4-2.6,6.4
				c-0.1,3.3,2.7,4.2,5.7,9.5c2.8,4.9,1.4,5.9,4.2,10.6c1.5,2.5,3.5,5.9,7.6,7.9c4.3,2.1,9.7,2.1,14,0c4.8-2.4,3.2-5.1,11-12.1
				c2.8-2.5,4.4-3.5,5.3-6.1c1.2-3.7-1.1-5.2,0-8.3c1.7-4.8,7.8-3.8,9.5-8.7c0.2-0.6,0-3.2-0.4-8.3c-0.4-5.8-0.6-5.7-0.4-6.4
				c1.1-3.8,4.7-3.9,9.5-8.7c1.8-1.9,4.1-4.1,5.3-7.6c1.6-4.7-0.8-5.5-0.8-15.5c0-4.2,0.5-6.4-0.8-9.8c-0.9-2.5-1.8-2.9-2.3-4.9
				c-0.4-1.6-0.6-4.4,3-10.6c4.7-8,10.6-12.7,11.3-13.2c6.9-5.3,9.4-4.3,12.5-8.7c1.8-2.6,0.5-2.2,3.8-12.1c1.9-5.5,3.5-9.2,2.6-14
				c-0.5-2.7-1.3-3.5-1.9-3.8c-1.3-0.7-2.5,0.2-7.2,1.9c-4.4,1.6-5.5,1.5-6.1,1.5c-2.6-0.2-4.6-1.7-5.7-2.6
				c-4.4-3.6-2.9-6.7-6.8-10.1c-3.3-2.9-6.2-2.2-6.8-4.5c-0.8-2.7,2.8-4.5,2-7.1c-0.8-2.8-5.5-2-7.1-5.3c-1.3-2.7,1.1-4.4,0.5-8.6
				c-0.4-2.5-1.5-3.4-4.8-7.8c-3.9-5.3-8.2-11.2-7.1-12.6c0.8-0.9,4,0.2,6.1,1.5c4,2.5,5.7,6.8,7.8,12.4c1.4,3.6,1.1,3.9,2.5,7.3
				c1.2,2.9,2.4,5,4,7.8c2.9,5,3.6,5.5,5,8.8c0.5,1.2,1.3,3,2,5.5c1.4,5.1,0.9,7.7,2.5,8.6c0.7,0.4,1.3,0.2,4.3-0.8
				c10.3-3.3,6.8-2.4,12.4-4.3c1.9-0.6,3-1,4.3-2c1.9-1.4,2.4-2.8,3.3-4c3.4-4.6,8.6-2.1,11.6-6.1c0.5-0.6,0.6-1.1,1.5-10.3
				c0.7-7.4,0.7-7.9,0.3-8.8c-1.7-3.3-5.6-2.2-12.9-5.3c-2.7-1.1-11.1-4.7-13.1-11.9c-0.5-1.7-0.9-4.6,0.3-5.3
				c1.6-0.9,4.2,3.3,11.1,7.3c4.1,2.4,8,3.7,12.6,5.3c3.8,1.3,5.6,1.9,7.8,2.3c8.9,1.5,12.4-1.7,15.9,1c1.9,1.5,0.8,2.3,4,6.8
				c2.2,3,4.5,6.2,7.6,6.3c2.6,0.1,3.7-2.2,5.3-1.5c1.4,0.6,1.6,2.8,2,6.3c0,0,0.6,4.8,1.5,9.8c1.6,8.9,6.1,8.5,8.1,17.9
				c0.3,1.7,0.8,4.5,2.3,8.3c1.2,3.1,2.3,5.7,3.8,5.8c1.9,0.1,3.6-3.8,4.9-6.8c0.8-1.8,1.2-2.7,1.5-4.2c1.1-5.3-1.7-7.8-0.8-12.1
				c0.4-1.8,1.4-3.1,3.4-5.7c5.2-6.7,8.2-5.9,12.1-11.3c3.1-4.3,2.5-6.6,5.7-8.3c3.2-1.8,6.6-0.9,7.2-0.8c5,1.3,7.2,6.2,7.9,7.9
				c1,2.3,1.3,4.4,1.5,6.1c0.7,4.9-0.4,7.3,0.8,7.9c1.9,1.1,6.8-4.5,7.6-3.8c0.4,0.3-0.9,1.6-1.1,3.4c-0.5,3.5,3.4,4.9,5.3,9.1
				c2.5,5.5-2,8.1,0.4,14.4c1.4,3.6,2.9,2.7,5.3,7.9c1.5,3.3,1.2,4.2,3.4,9.1c1.5,3.4,2.6,5,3.4,6.1c0.3,0.4,4,5.2,5.3,4.5
				c1.5-0.8-0.9-8.2-1.1-9.1c-0.8-2.4-2.3-6.5-6.1-12.1c-4.1-6.2-5.8-6.5-6.8-10.2c-1.3-4.9-0.1-10.3,1.5-10.6
				c0.8-0.1,1.1,1.2,3.4,3.4c3.6,3.4,5.6,2.5,7.6,5.3c1.5,2.1,0.7,3.2,2.6,5.7c1,1.3,2.1,2.7,3.4,2.6c1-0.1,2.4-1.1,5.7-11.3
				c2-6.1,3-9.2,2.6-10.6c-1.4-6.4-9.3-6.3-10.6-12.5c-0.8-4,1.5-9.1,4.9-10.6c4.2-1.9,7.4,2.9,12.9,1.5c0.9-0.2,2.6-0.8,8.7-7.9
				c6.7-7.9,10.1-12,10.2-16.3c0.1-4.3-1.9-7.6-3.8-10.6c-5.2-8.3-11.8-9.7-11.3-13.6c0.4-3.7,6.9-5.1,6.4-7.2
				c-0.5-2.3-8.6-0.7-10.6-4.5c-1.2-2.3,0.2-5.9,1.9-6.4c1.9-0.6,3.3,2.7,6.8,2.6c2.1-0.1,2.9-1.3,4.2-0.8c1.5,0.7,0.7,2.6,2.3,4.9
				c1.7,2.4,3.5,1.6,5.7,4.2c1.6,2,1,3,2.6,4.5c1.9,1.7,4.9,2.4,5.7,1.5c0.6-0.8-0.7-2.4-4.9-10.2c-1.9-3.4-2.1-4-2.3-4.9
				c-0.7-3.9,1-7.3,1.9-9.1c1.2-2.4,2-4,3.8-4.9c3.5-1.8,6.6,1.1,8.3-0.4c1.6-1.4-0.6-4.5-1.1-11c-0.6-7.3,1.7-8.8,0-13.6
				c-1.5-4.4-4.7-6.9-5.7-7.6c-1.5-1.2-4.9-3.7-9.1-3.4c-3.9,0.3-5.5,2.9-7.6,1.9c-2-1-2.2-4.2-2.3-5.3c-0.4-5.8,3.9-10,4.2-10.2
				c4.2-4,11-5.2,16.3-3.4c4,1.4,5.8,4.2,9.1,3.4c1.4-0.3,3.3-1.4,3.8-3c0.9-2.8-2.5-5.8-1.9-6.4c0.7-0.7,4.5,3.6,8.3,2.6
				c0.7-0.2,1.7-0.6,2.7-1.4c1.6-1.3,2-2.9,2.2-2.8c0.3,0.1-1.7,4.9-2.3,11c-0.2,2.2-0.3,3.4,0,4.9c0.7,3.3,2.7,5.1,5.3,7.9
				c7.3,7.9,8,11,10.2,10.6c2.6-0.5,3.8-5.1,4.2-6.4c0.2-0.6,1.2-5.1-1.1-9.5c-1.2-2.2-2.8-3.5-4.5-4.9c-3.4-2.8-5.3-2.9-5.3-4.2
				c0-1.8,4-4.2,7.2-3.4c2.4,0.6,2.7,2.4,4.2,2.3c2.8-0.2,2.5-6.7,6.8-8.7c2.8-1.3,5.6,0.2,6.1-0.8c0.7-1.6-7-5.9-6.4-7.2
				c0.4-0.8,4,0.6,9.8,0.8c3.3,0.1,7.6,0.2,8.3-1.5c0.7-1.8-2.6-5-5.3-6.8c-4.6-3.2-8.3-3.1-20.8-4.5c-10.3-1.2-15.5-1.8-17-2.3
				c-4.7-1.4-8.8-3.3-14-1.9c-2.2,0.6-2,1.1-4.9,2.3c-6.7,2.8-16.6,4.1-19.7,0c-1.2-1.7-0.1-2.6-1.1-4.2c-3.3-4.9-14.7,3.6-26.5-1.1
				c-5-2-6.9-5.1-12.1-4.9c-2.9,0.1-3.3,1.1-7.9,2.6c-5.4,1.8-13.2,4.4-17.8,1.1c-3.7-2.6-2.1-7-5.7-8.7c-3.1-1.5-6.3,0.7-10.6,2.3
				c-5.9,2.1-14.6,4.6-20.4,1.1c-4.4-2.6-2.6-5.9-7.6-9.1c-6.1-3.9-13.8-2.3-15.9-1.9c-3.4,0.7-3.2,1.4-7.9,3
				c-11.8,4.1-16.6,1.3-22.3,6.1c-2.3,1.9-2.2,2.9-4.5,4.2c-4.6,2.5-9.9,1.5-11.7,1.1c-5.4-1.1-7.5-3.5-9.1-2.3
				c-1.9,1.4-0.5,6.1-0.4,6.4c1.2,4,4.2,5.9,3.8,6.4c-0.7,0.9-8.5-6.4-14.4-4.2c-1.6,0.6-1.5,1.4-3.8,2.3c-2.8,1.1-4.3,0.6-8.7,0.8
				c-5.1,0.2-7.7,0.3-10.2,1.9c-2.9,1.8-4.1,4.5-4.9,4.2c-0.9-0.4,0.6-3.3-0.8-4.9c-1.8-2.2-7.9-1-8.3,0.8c-0.3,1.5,3.5,2.5,3.4,4.5
				c-0.1,2-4,3.3-7.9,4.5c-4.5,1.4-7.4,2.4-9.5,0.8c-1.7-1.3-2.4-3.7-1.9-4.2c0.6-0.5,2.5,2.1,6.2,2.6c0.8,0.1,4,0.6,5.8-1.5
				c0.1-0.1,1.5-1.8,1-3.5c-0.6-2.4-4.2-3.4-8.7-4.5c-5.3-1.4-6.6-0.8-10.1-2.4c-2.8-1.3-2.2-1.7-4.9-3c-1.5-0.7-7.4-3.4-12.1-1.1
				c-1.8,0.9-1.4,1.5-3.5,2.5c-3.3,1.6-4.8,0.4-7.3,1.8c-2.2,1.2-1.3,2.3-4.4,5.3c-2.6,2.6-3.9,2.4-6,4.9c-1.8,2.2-1.2,2.8-2.6,4.5
				c-3.6,4.5-8.8,2.4-12.5,6.8c-1.8,2.2-2.2,4.7-2.3,5.7c-0.1,0.9-0.7,5.7,1.7,7.4c3.5,2.5,10.3-3.8,13.1-1.3c1.1,1,0.3,2.1,2.1,6.6
				c0.8,2.1,1.3,3.2,2.3,3.8c2.1,1.2,5.9,0.2,7.4-2.1c2.3-3.5-1.6-8.5,0.6-10.4c1.5-1.3,4.5,0.1,4.7-0.6c0.3-0.9-5.7-2.5-6.1-5.7
				c-0.1-1.1,1.2-2.7,4-5.9c3.2-3.7,4.8-4.7,6.4-5.3c1.1-0.4,3-0.8,3.4-0.2c0.4,0.7-1.8,2.1-3,5.3c-0.3,0.8-1,2.7-0.6,4.9
				c0.4,2.2,2.1,5.3,4.7,6.1c3.3,0.9,5.3-2.6,10.4-1.9c1.2,0.2,2.5,0.6,2.5,0.9c0,1.1-10.5,0.2-12.1,4.2c-0.8,2.1,1.3,4.5,0.2,5.5
				c-1.1,1-3.6-1.2-5.3-0.2c-1.8,1.1-0.1,4-1.9,6.8c-2,3.1-6.7,3.6-9.1,3.8c-2.5,0.2-4.4-0.1-6.1-0.4c-3.5-0.6-5.2-0.7-6.1-1.7
				c-1.2-1.5-0.1-3-1.7-6.4c-0.5-1-1.1-2.3-1.9-2.3c-0.9,0-1.9,1.6-2.1,3c-0.4,2.7,1.8,3.6,1.3,5.5c-0.4,1.5-1.9,1.7-6.8,4.5
				c-2.4,1.4-3.6,2.1-4.7,3c-3.8,3.1-3.1,4.9-6.2,6.6c-0.9,0.5-3.2,1.8-6.1,1.7c-1.8-0.1-3.1-0.6-3.6,0
				C441.2,174.4,443.4,176.4,442.8,177.5z"/>
			<path class="st10" d="M562.9,411.8c0-4.7,2.8-8.2,3.5-9.1c3.5-4.2,6-2.9,9.6-7.1c3.2-3.7,3.4-7.4,4.3-7.3c1.1,0.2,1.3,6,1,11.3
				c-0.9,15.2-5.8,24.4-7.3,27c-1.9,3.2-5.3,9.2-8.1,8.6c-2.1-0.4-3.3-4.5-3.5-7.1c-0.4-4.6,2-6.1,1.5-11.3
				C563.6,414.1,562.9,414.2,562.9,411.8z"/>
			<path class="st10" d="M815.8,479.6c0,0,0.5-0.2,4.2-0.8l0,0c9.4,0.7,11.7-0.8,11.7-0.8c2.1-1.4,2.4-3.2,3.8-6.1
				c3.3-6.9,6.6-6.7,12.5-14c1.5-1.8,6.5-8.3,9.1-17.8c1.5-5.4,2.6-9.5,0.8-13.6c-1.7-3.9-4.1-3.5-8.7-9.5c-1.6-2-4.1-5.4-5.7-10.2
				c-1.3-4.2-0.5-4.9-1.5-11.3c-0.7-4.1-2.1-13-4.9-13.2c-2.4-0.2-4.8,6.1-4.9,6.4c-2.9,7.8,0.7,13.2-2.3,15.5
				c-2.6,2-7.3-0.6-7.6-0.8c-3.8-2.1-5.9-6.8-4.9-10.2c0.9-3,3.9-4.1,3.4-5.3c-0.5-1.1-3-0.1-7.2-1.1c-3.9-1-5.4-2.8-6.8-1.9
				c-1.1,0.7-0.5,1.8-1.9,3.8c-1.4,1.9-2.4,1.4-4.2,3.4c-1.7,2-1.3,3.3-2.6,3.8c-1.4,0.6-2.2-0.7-4.9-1.1c-0.8-0.1-3.7-0.6-6.1,0.8
				c-1.9,1.1-1.5,2.2-4.2,5.7c-2,2.5-2.5,2.3-4.2,4.5c-2.3,3.1-1.9,4.3-3.4,6.4c-2.1,3-5.2,4-10.6,5.7c-7.9,2.5-9.3,0.9-11.7,3
				c-3.4,2.9-3.4,8.2-3.4,14.8c0,10.4,3.2,12.8,0.8,17.8c-1.9,3.9-5,4.8-4.9,8.3c0,2.4,1.5,5.3,3.8,6.1c3.2,1,5.1-3.3,11.3-3.8
				c2.8-0.2,2.7,0.6,5.3,0.4c4.9-0.5,6.1-3.6,11.7-6.4c2.2-1.1,6.5-3.2,11.7-2.6c0.9,0.1,8.3,0.8,10.2,5.3c1.6,3.8-1.7,8.3-0.4,9.1
				c0.2,0.1,0.7,0.4,3.2-1.5c4.2-3.1,5.7-6.3,6.3-6.1c1,0.4-4.2,9.6-0.8,16.3c0.2,0.5,1.8,3.4,3.8,3.4
				C813,481.8,813.2,480.4,815.8,479.6z"/>
			<path class="st10" d="M814,486.7c2.7-1.9,7.3-0.4,7.8,1.5c0.2,0.7-0.3,1.3-2.5,4.3c-3.8,5.1-4.4,6.2-5.3,6.1
				c-1.6-0.3-2-4.3-2-4.8C811.9,492.2,811.5,488.5,814,486.7z"/>
			<path class="st10" d="M856.9,503.9c1.4-2.3,3.6-3,10.1-5.5c4.6-1.8,6.8-2.7,7.3-3c3.8-2.8,4.1-6,8.1-7.3c0.7-0.2,2.6-0.9,3.5,0
				c1,1,0.4,3.3-0.3,4.8c-1.8,3.8-5.3,3.6-12.1,8.3c-3.6,2.5-3.2,2.9-6.1,4.5c-3.9,2.2-9.9,4.3-11.3,2.5
				C855.1,506.9,856.8,504.1,856.9,503.9z"/>
			<path class="st10" d="M889.5,489c-0.3-1.3,2.4-2.3,2.3-4.5c-0.1-1.5-1.3-2.1-1-2.8c0.5-1.1,3.6,0.4,5.3-1c1.1-1,0.7-2.5,0.8-8.8
				c0.1-4.2,0.3-4.9,0.8-5c1-0.4,3.3,1.5,3.3,3.3c0,1.3-1.4,1.7-1.3,3c0.1,1.1,1.2,1.9,1.8,2.3c2,1.4,3.6,0.7,4,1.5
				c0.5,1-1.7,2.5-4,5.3c-4.1,4.8-3.8,7.5-6.6,8.3C892.5,491.2,889.7,490.2,889.5,489z"/>
			<path class="st10" d="M830.7,375.3c3,0,4.2,4.8,6.3,4.5c1.9-0.3,1.7-4.3,4.5-5.3c1.5-0.5,3.2,0,4.3,0.8c2.4,1.6,1.4,4.3,3.5,5.5
				c1.5,0.9,2.2-0.2,5,0.5c2.9,0.7,4,2.3,4.8,1.8c0.8-0.6,0.5-3-0.5-4.8c-1.5-2.9-3.5-2.4-5-5.3c-0.8-1.6-0.5-2-1.8-4.5
				c-0.5-0.9-1-2-2-3c-1.3-1.4-2.5-1.9-3.5-2.5c-3.1-1.9-2.4-3.7-5-6.1c-1.4-1.2-1.8-0.9-12.9-4c-2.5-0.7-3.1-0.9-4-0.8
				c-4.4,0.5-5.9,5.5-7.8,5c-2.2-0.5-0.6-7.2-4-9.3c-2.6-1.6-6.7,0.1-6.8,1.3c-0.1,1.2,4.3,1.9,4.5,4.3c0.1,1.1-0.7,1.4-0.8,3
				c0,0.5,0,2.6,1.3,3.5c1.4,1,2.7-0.5,5,0c1.4,0.3,1.5,1,4.3,3.3c3.8,3.1,5,2.9,5.3,4.3c0.6,2.4-2.7,3.9-2,6.6
				c0.3,1.3,1.5,2.5,2.8,2.8C828,377.2,828.8,375.3,830.7,375.3z"/>
			<path class="st10" d="M664.1,319.9c0.2,1,0.9,4.5,3,4.9c1.8,0.4,3.8-1.6,4.5-3.4c1.7-4.4-2.9-10.6-5.3-10.2
				C664.5,311.5,663.4,316.3,664.1,319.9z"/>
			<path class="st10" d="M705.1,327.6c-0.6,1.3,3.7,5.9,8.3,8.3c1.1,0.6,2.4,1.1,3,2.5c0.9,1.9-0.3,3.5-0.3,5.5
				c0,3.2,2.8,4.3,5.8,8.1c5.4,6.8,3.1,11.5,7.8,14.1c2.3,1.3,5.7,1.8,7.3,0.3c1.2-1.2,1.1-3.1,0.8-6.3c-0.2-2.4-0.6-6.3-3.3-9.8
				c-1.1-1.5-1.3-1.2-4.5-4c-1.6-1.5-5.3-4.7-8.6-9.1c-3.3-4.3-2.5-4.8-4.5-6.6C712.5,326.7,705.7,326.3,705.1,327.6z"/>
			<path class="st10" d="M737.1,371c0-2.1,1.9-4.3,3.5-4.3c2,0,2.3,3.1,4.8,3.5c2.1,0.3,2.7-1.8,5.5-1.8c1.6,0,2.8,0.7,4.8,1.8
				c2.8,1.6,3,2.6,4.8,3.3c2.3,0.9,4,0.1,6.6-0.3c7-1.1,13.9,1.7,13.9,2.8c0,0.6-2.1,0.9-4.3,1.3c-4.3,0.7-7.6,0.4-10.3,0.3
				c-4.9-0.3-7.4-0.5-10.1-0.5c-8.4-0.1-10.4,1.3-14.1-0.5C741.3,376.1,737.1,374.1,737.1,371z"/>
			<path class="st10" d="M746.7,345.8c-0.4-3.9-0.9-4.9-0.3-5.5c1.3-1.3,4.3,1.2,6.3-0.3c1.3-0.9,0.6-2.2,1.8-4.3
				c1.7-3,4.2-2.1,7.1-5c3.2-3.2,2.6-6.7,4.8-7.1c0.7-0.1,0.8,0.3,4,1.8c3,1.4,3.7,1.4,3.8,2c0.3,1.5-3.8,2-4.8,5
				c-0.8,2.4,1.4,3.3,1.5,7.8c0.1,1.7-0.2,3-0.8,5.5c-0.3,1.2-0.7,3.4-1.8,6.1c-1.4,3.6-2.1,5.4-3.8,6.6c-1.6,1.2-3.3,1.2-6.8,1.3
				c-5,0.1-8.5,0.2-10.1-2c-0.4-0.5-0.5-2.7-0.8-7.1C746.7,346.7,746.9,347.3,746.7,345.8z"/>
			<path class="st10" d="M773.4,282c2-1,5.7,0.6,6.6,3c1.6,4.3-5.8,9.5-4.3,11.9c1.4,2.1,7.8-1,9.8,1.8c0.8,1.1,0.6,2.6,0,3.5
				c-1.5,2.1-6.5,1.4-9.6-0.8c-0.3-0.2-1.5-1.1-2.5-2.5c-2.2-3.2-2.1-6.6-2-9.6C771.6,285.4,771.7,282.8,773.4,282z"/>
			<path class="st10" d="M785.8,314.5c3.3-0.2,4.4-3.2,5.8-2.8c1.7,0.5,2.2,5,1.3,8.6c-0.4,1.6-1.2,4.5-3.5,5.3
				c-2.9,1-6.9-1.7-7.8-5c-0.6-2.2-0.1-5.2,1.5-6.1C783.9,314.1,784.3,314.6,785.8,314.5z"/>
			<path class="st10" d="M783.8,160.7c0.4-0.3,3.4,2.8,3.7,3c2.8,2.9,5.5,5.8,6.7,10.1c0.5,1.8,0.6,3.6,1.5,3.8
				c0.9,0.2,1.6-1.7,2.3-1.5c0.6,0.2,0.5,2.1,0.5,6.3c0,3.6,0.2,4.3-0.3,4.5c-1,0.5-3.8-2.8-5.5-6.1c-1.9-3.6-1.5-4.9-3-9.1
				C787.1,164.9,783.3,161,783.8,160.7z"/>
			<path class="st10" d="M799.4,194.2c0.6-0.6-1.9-2.9-1.3-4c0.6-1.1,4.1-1,6.6,0.5c1.4,0.9,1.3,1.6,3.3,2.8
				c1.7,1.1,2.8,1.2,2.8,1.8c0,0.8-2.6,0.7-3.8,2.5c-0.8,1.3-0.2,2.2-1,3c-1.2,1.1-3.8,0.9-4.5-0.3c-0.7-1.2,0.9-3.3,0.5-3.5
				c-0.4-0.3-2.4,3.3-4,3c-1.9-0.3-3-5.4-1.8-6.3C797,193.1,798.9,194.7,799.4,194.2z"/>
			<path class="st10" d="M803.3,205.9c-1.5,2.4,0.9,4.5,0.2,7.8c-0.7,3-3.6,4.8-7.4,7.2c-4,2.5-5.7,2.3-7.2,4.7
				c-0.3,0.5-0.7,2.1-1.5,5.1c-1,4-1,4.8-0.8,5.7c0.5,1.5,1.9,3.4,3.4,3.4c2.2,0,4.1-3.8,4.7-6.4c0.8-3.2-0.2-4.5,0.9-5.9
				c0.7-0.8,1.5-0.8,6.6-1.7c4.7-0.8,5.8-1.1,6.8-2.1c1.1-1.1,1.5-2.5,1.7-3.6c0.4-1.7,0.3-3.2-1.3-8.7c-1.8-6.2-2.4-7-3.2-7.2
				C805.2,203.9,804,204.9,803.3,205.9z"/>
		</g>
	</g>
	<g class="st50">
		<circle class="st55" cx="49.3" cy="195.9" r="11.4"/>
		<circle class="st55" cx="49.3" cy="237.5" r="11.4"/>
		<circle class="st56" cx="49.3" cy="237.5" r="7.2"/>
		<circle class="st55" cx="49.3" cy="279.2" r="11.4"/>
		<circle class="st55" cx="49.3" cy="320.8" r="11.4"/>
		<circle class="st55" cx="49.3" cy="362.5" r="11.4"/>
		<circle class="st55" cx="49.3" cy="404.1" r="11.4"/>
	</g>
	<g>
		<g>
			<g>
				<g>
					<g>
						<g>
							<rect x="205.4" y="0" class="st57" width="40.9" height="36.8"/>
						</g>
						<rect x="223.2" y="27.2" class="st58" width="4.1" height="6.8"/>
						<rect x="223.2" y="15" class="st58" width="4.1" height="6.8"/>
						<rect x="223.2" y="2.8" class="st58" width="4.1" height="6.8"/>
					</g>
				</g>
				<g>
					<g>
						<g>
							<rect x="205.4" y="36.8" class="st57" width="40.9" height="36.8"/>
						</g>
						<rect x="223.2" y="64" class="st58" width="4.1" height="6.8"/>
						<rect x="223.2" y="51.7" class="st58" width="4.1" height="6.8"/>
						<rect x="223.2" y="39.5" class="st58" width="4.1" height="6.8"/>
					</g>
				</g>
				<g>
					<g>
						<g>
							<rect x="205.4" y="73.5" class="st57" width="40.9" height="36.8"/>
						</g>
						<rect x="223.2" y="100.7" class="st58" width="4.1" height="6.8"/>
						<rect x="223.2" y="88.5" class="st58" width="4.1" height="6.8"/>
						<rect x="223.2" y="76.3" class="st58" width="4.1" height="6.8"/>
					</g>
				</g>
				<g>
					<g>
						<g>
							<rect x="205.4" y="110.3" class="st57" width="40.9" height="36.8"/>
						</g>
						<rect x="223.2" y="137.5" class="st58" width="4.1" height="6.8"/>
						<rect x="223.2" y="125.2" class="st58" width="4.1" height="6.8"/>
						<rect x="223.2" y="113" class="st58" width="4.1" height="6.8"/>
					</g>
				</g>
				<g>
					<g>
						<g>
							<rect x="205.4" y="147" class="st57" width="40.9" height="36.8"/>
						</g>
						<rect x="223.2" y="174.2" class="st58" width="4.1" height="6.8"/>
						<rect x="223.2" y="162" class="st58" width="4.1" height="6.8"/>
						<rect x="223.2" y="149.8" class="st58" width="4.1" height="6.8"/>
					</g>
				</g>
				<g>
					<g>
						<g>
							<rect x="205.4" y="183.8" class="st57" width="40.9" height="36.8"/>
						</g>
						<rect x="223.2" y="211" class="st58" width="4.1" height="6.8"/>
						<rect x="223.2" y="198.7" class="st58" width="4.1" height="6.8"/>
						<rect x="223.2" y="186.5" class="st58" width="4.1" height="6.8"/>
					</g>
				</g>
				<g>
					<g>
						<g>
							<rect x="205.4" y="220.5" class="st57" width="40.9" height="36.8"/>
						</g>
						<rect x="223.2" y="247.7" class="st58" width="4.1" height="6.8"/>
						<rect x="223.2" y="235.5" class="st58" width="4.1" height="6.8"/>
						<rect x="223.2" y="223.3" class="st58" width="4.1" height="6.8"/>
					</g>
				</g>
				<g>
					<g>
						<g>
							<rect x="205.4" y="257.3" class="st57" width="40.9" height="36.8"/>
						</g>
						<rect x="223.2" y="284.5" class="st58" width="4.1" height="6.8"/>
						<rect x="223.2" y="272.2" class="st58" width="4.1" height="6.8"/>
						<rect x="223.2" y="260" class="st58" width="4.1" height="6.8"/>
					</g>
				</g>
				<g>
					<g>
						<g>
							<rect x="205.4" y="294" class="st57" width="40.9" height="36.8"/>
						</g>
						<rect x="223.2" y="321.2" class="st58" width="4.1" height="6.8"/>
						<rect x="223.2" y="309" class="st58" width="4.1" height="6.8"/>
						<rect x="223.2" y="296.8" class="st58" width="4.1" height="6.8"/>
					</g>
				</g>
				<g>
					<g>
						<g>
							<rect x="205.4" y="330.8" class="st57" width="40.9" height="36.8"/>
						</g>
						<rect x="223.2" y="358" class="st58" width="4.1" height="6.8"/>
						<rect x="223.2" y="345.7" class="st58" width="4.1" height="6.8"/>
						<rect x="223.2" y="333.6" class="st58" width="4.1" height="6.8"/>
					</g>
				</g>
				<g>
					<g>
						<g>
							<path class="st57" d="M205.4,367.5v9.2l0,2.3l0.1,2.6l0.1,5.2c0.1,1.7,0.2,3.5,0.4,5.2c0.2,1.7,0.2,3.5,0.5,5.2
								c0.5,3.5,0.8,6.9,1.5,10.4l40.3-7c-0.5-2.6-0.8-5.2-1.1-7.8c-0.2-1.3-0.2-2.6-0.3-3.9c-0.1-1.3-0.2-2.6-0.3-3.9l-0.1-4
								l-0.1-2l0-2.3v-9.2H205.4z"/>
						</g>
						<polygon class="st58" points="228.1,394.6 224.1,395 225,401.9 229,401.3 						"/>
						<path class="st58" d="M227.4,382.5l-4.1,0.1l0.1,3.5c0,1.2,0.2,2.3,0.2,3.5l4.1-0.3c-0.1-1.1-0.2-2.2-0.2-3.4L227.4,382.5z"/>
						<rect x="223.2" y="370.3" class="st58" width="4.1" height="6.8"/>
					</g>
				</g>
				<g>
					<g>
						<g>
							<path class="st57" d="M207.9,407.6l0.9,5.2l1.2,5.1l0.6,2.6c0.2,0.8,0.5,1.7,0.7,2.5l1.4,5c2.1,6.7,4.5,13.2,7.4,19.6
								l37.3-16.8c-2.2-4.8-4-9.8-5.6-14.8l-1.1-3.8c-0.2-0.6-0.4-1.3-0.5-1.9l-0.4-1.9l-0.9-3.8l-0.7-3.9L207.9,407.6z"/>
						</g>
						<path class="st58" d="M236.5,429.9l-3.8,1.4c0.9,2.1,1.7,4.3,2.6,6.4l3.8-1.6C238.1,434.1,237.3,432,236.5,429.9z"/>
						<path class="st58" d="M232.7,418.4l-3.9,1.1l0.9,3.3c0.3,1.1,0.7,2.2,1.1,3.3l3.9-1.3c-0.3-1.1-0.8-2.1-1.1-3.2L232.7,418.4z"
							/>
						<polygon class="st58" points="230,406.6 225.9,407.4 226.2,409.1 226.6,410.8 227.4,414.2 231.4,413.2 230.6,409.9 
							230.3,408.3 						"/>
					</g>
				</g>
				<g>
					<g>
						<g>
							<path class="st57" d="M220.1,447.6c2.8,6.4,6.2,12.5,9.7,18.5l2.8,4.4l1.4,2.2l1.5,2.1l3,4.3l3.2,4.1l32-25.5l-2.4-3.1
								l-2.3-3.2l-1.2-1.6l-1.1-1.7l-2.1-3.3c-2.7-4.5-5.3-9.1-7.3-14L220.1,447.6z"/>
						</g>
						<path class="st58" d="M253.4,462l-3.4,2.3c1.4,1.9,2.6,3.8,4.1,5.6l3.2-2.5C255.9,465.7,254.7,463.8,253.4,462z"/>
						<path class="st58" d="M246.9,451.8l-3.5,2.1c0.6,1,1.1,2,1.7,3l1.9,2.9l3.4-2.2l-1.8-2.8C248,453.7,247.4,452.8,246.9,451.8z"
							/>
						<path class="st58" d="M241.2,441.1l-3.7,1.8c1,2.1,2.1,4.1,3.1,6.2l3.6-1.9C243.3,445.1,242.2,443.1,241.2,441.1z"/>
					</g>
				</g>
				<g>
					<g>
						<g>
							<path class="st57" d="M241.9,483.2c8.6,11,18.8,20.7,29.9,29.2l24.7-32.6c-8.4-6.4-16.1-13.8-22.6-22.1L241.9,483.2z"/>
						</g>
						<polygon class="st58" points="277.7,489 275,492.1 277.6,494.3 280.3,496.5 282.9,493.3 280.2,491.2 						"/>
						<polygon class="st58" points="268.8,480.7 265.9,483.5 267.1,484.8 268.4,486 270.9,488.4 273.7,485.4 271.2,483.1 270,481.9 
													"/>
						<polygon class="st58" points="260.7,471.7 257.6,474.3 262.1,479.6 265.2,476.8 						"/>
					</g>
				</g>
				<g>
					<g>
						<g>
							<path class="st57" d="M271.7,512.4c11.1,8.4,23.3,15.4,36.2,20.9l15.9-37.7c-9.7-4.1-18.9-9.4-27.3-15.8L271.7,512.4z"/>
						</g>
						<path class="st58" d="M307.8,509.1l-1.8,3.7c2,1.1,4.2,2,6.3,3l1.7-3.7C311.9,511.1,309.8,510.2,307.8,509.1z"/>
						<polygon class="st58" points="297.2,503.3 295.1,506.8 301.1,510.3 303.1,506.7 						"/>
						<path class="st58" d="M287.2,496.6l-2.4,3.3l2.8,2c0.9,0.7,1.9,1.3,2.9,2l2.3-3.4c-1-0.6-1.9-1.2-2.8-1.9L287.2,496.6z"/>
					</g>
				</g>
				<g>
					<g>
						<g>
							<path class="st57" d="M307.9,533.3c12.9,5.4,26.4,9.2,40.3,11.2l6-40.5c-10.4-1.5-20.6-4.5-30.4-8.5L307.9,533.3z"/>
						</g>
						<path class="st58" d="M342.1,521.2l-0.9,4c1.1,0.3,2.3,0.5,3.4,0.7l3.4,0.6l0.7-4l-3.3-0.6
							C344.3,521.6,343.2,521.4,342.1,521.2z"/>
						<path class="st58" d="M330.3,518.1l-1.2,3.9c2.2,0.6,4.4,1.3,6.7,1.9l1-4C334.7,519.4,332.5,518.7,330.3,518.1z"/>
						<path class="st58" d="M319,514.1l-1.5,3.8c2.2,0.9,4.3,1.7,6.5,2.4l1.3-3.9C323.1,515.8,321.1,514.9,319,514.1z"/>
					</g>
				</g>
				<g>
					<g>
						<g>
							<path class="st57" d="M348.1,544.5l5.2,0.7l2.6,0.3l2.6,0.2l5.2,0.4c1.7,0.1,3.5,0.1,5.2,0.2l2.6,0.1l1.3,0h1.1h4.6l9.2,0
								l-0.1-40.9l-9.1,0H374h-1.1l-1,0l-2-0.1c-1.3,0-2.6,0-4-0.1l-3.9-0.3l-2-0.1l-2-0.2l-3.9-0.5L348.1,544.5z"/>
						</g>
						<rect x="378.3" y="524.5" class="st58" width="6.8" height="4.1"/>
						<polygon class="st58" points="366.1,524.3 365.9,528.4 372.9,528.5 372.9,524.5 						"/>
						<path class="st58" d="M354.1,523.2l-0.5,4.1l3.4,0.4c1.1,0.1,2.3,0.2,3.5,0.3l0.3-4.1c-1.1-0.1-2.2-0.1-3.4-0.3L354.1,523.2z"
							/>
					</g>
				</g>
				<g>
					<g>
						<g>
							<path class="st57" d="M387.9,546.4c13.9-0.1,27.9-1.8,41.4-5.3l-10.2-39.7c-10.2,2.6-20.7,3.9-31.3,4L387.9,546.4z"/>
						</g>
						<path class="st58" d="M414.6,521.9l0.8,4c2.3-0.4,4.5-0.9,6.8-1.5l-0.9-4C419,521,416.8,521.5,414.6,521.9z"/>
						<polygon class="st58" points="402.6,523.7 403,527.7 409.9,526.9 409.3,522.8 						"/>
						<path class="st58" d="M390.6,524.4l0.1,4.1c2.3-0.1,4.6-0.1,6.9-0.3l-0.3-4.1C395.1,524.3,392.8,524.3,390.6,524.4z"/>
					</g>
				</g>
				<g>
					<g>
						<g>
							<path class="st57" d="M429.3,541.1c13.5-3.6,26.6-8.7,38.8-15.4l-19.8-35.9c-9.2,5.1-19.1,8.9-29.3,11.7L429.3,541.1z"/>
						</g>
						<path class="st58" d="M449.1,510.7l1.7,3.7c1.1-0.5,2.1-1,3.1-1.5l3.1-1.6l-1.9-3.6l-3,1.5
							C451.2,509.8,450.2,510.3,449.1,510.7z"/>
						<polygon class="st58" points="438,515.4 439.4,519.3 445.8,516.7 444.2,512.9 						"/>
						<path class="st58" d="M426.5,519.1l1.1,3.9c2.2-0.6,4.5-1.2,6.6-2l-1.3-3.9C430.8,517.9,428.6,518.5,426.5,519.1z"/>
					</g>
				</g>
				<g>
					<g>
						<g>
							<path class="st57" d="M468.1,525.6c3-1.7,6.1-3.4,9-5.4c1.5-0.9,2.9-1.9,4.4-2.9l4.3-3c0.7-0.5,1.4-1,2.1-1.5l2.1-1.6
								l4.1-3.2l4-3.4l2-1.7l1.9-1.8l-28-29.9l-1.4,1.4l-1.5,1.3l-3,2.6l-3.1,2.4l-1.6,1.2c-0.5,0.4-1.1,0.8-1.6,1.2l-3.2,2.3
								c-1.1,0.7-2.2,1.4-3.3,2.1c-2.2,1.5-4.5,2.7-6.8,4.1L468.1,525.6z"/>
						</g>
						<polygon class="st58" points="479.8,491.3 482.4,494.5 487.7,490 484.9,486.9 						"/>
						<path class="st58" d="M470.1,498.6l2.3,3.4l2.8-2c0.9-0.7,1.9-1.3,2.8-2.1l-2.5-3.3c-0.9,0.7-1.8,1.4-2.7,2L470.1,498.6z"/>
						<polygon class="st58" points="459.9,505.1 462,508.6 465,506.9 467.9,505 465.7,501.6 462.9,503.4 						"/>
					</g>
				</g>
				<g>
					<g>
						<g>
							<path class="st57" d="M501.9,501.1l3.8-3.6l3.6-3.8c2.5-2.5,4.7-5.2,7-7.8c4.4-5.4,8.6-11,12.3-16.9L494,446.9
								c-2.8,4.5-6,8.7-9.3,12.8c-1.8,2-3.4,4-5.3,5.9l-2.7,2.9l-2.9,2.7L501.9,501.1z"/>
						</g>
						<path class="st58" d="M504.7,465l3.3,2.4c1.3-1.9,2.7-3.7,4-5.7l-3.4-2.3C507.4,461.3,506,463.1,504.7,465z"/>
						<path class="st58" d="M497.2,474.4l3.1,2.7l2.3-2.6c0.8-0.9,1.4-1.8,2.2-2.7l-3.2-2.5c-0.7,0.9-1.4,1.8-2.1,2.6L497.2,474.4z"
							/>
						<path class="st58" d="M488.9,483.2l2.9,2.9c1.7-1.6,3.2-3.3,4.9-5l-3-2.8C492,480,490.5,481.7,488.9,483.2z"/>
					</g>
				</g>
				<g>
					<g>
						<g>
							<path class="st57" d="M528.5,469c1.9-2.9,3.6-6,5.4-9c0.9-1.5,1.6-3.1,2.5-4.6c0.8-1.6,1.6-3.1,2.3-4.7
								c1.4-3.2,3-6.3,4.2-9.6c0.6-1.6,1.3-3.2,1.9-4.9l1.7-5l-38.9-12.8l-1.3,3.7l-1.4,3.7c-0.9,2.5-2.1,4.8-3.1,7.2
								c-0.5,1.2-1.2,2.4-1.8,3.5c-0.6,1.2-1.2,2.4-1.8,3.5c-1.3,2.3-2.6,4.6-4.1,6.8L528.5,469z"/>
						</g>
						<path class="st58" d="M522.4,433.3l3.8,1.5c0.8-2.2,1.8-4.3,2.4-6.5l-3.9-1.4C524.1,429.1,523.2,431.2,522.4,433.3z"/>
						<path class="st58" d="M517.4,444.3l3.7,1.8c1.1-2,2-4.2,3-6.3l-3.7-1.7C519.4,440.2,518.5,442.3,517.4,444.3z"/>
						<path class="st58" d="M511.6,454.9l3.5,2.1c1.2-2,2.3-4,3.5-6l-3.6-2C513.8,451,512.7,452.9,511.6,454.9z"/>
					</g>
				</g>
				<g>
					<g>
						<g>
							<path class="st57" d="M546.5,431.2c4.4-13.3,7-27.1,8-41l-40.9-2.7c-0.7,10.5-2.6,21-6,31L546.5,431.2z"/>
						</g>
						<path class="st58" d="M531.6,398.2l4.1,0.5c0.3-2.3,0.6-4.6,0.8-6.9l-4.1-0.3C532.2,393.7,531.9,395.9,531.6,398.2z"/>
						<path class="st58" d="M529.6,410.1l4,0.9c0.6-2.2,0.9-4.5,1.3-6.8l-4-0.7C530.4,405.7,530.1,407.9,529.6,410.1z"/>
						<polygon class="st58" points="526.5,421.8 530.4,423 532.3,416.3 528.4,415.3 						"/>
					</g>
				</g>
				<g>
					<g>
						<g>
							<path class="st57" d="M554.4,390.2l0.2-2.6l0.1-2.6l0.1-5.2c0-0.9,0-1.6,0-2.4v-2.3v-4.6v-18.4h-40.9v18.4v4.6v2.3
								c0,0.8,0,1.6,0,2.2l-0.1,4l0,2l-0.2,2L554.4,390.2z"/>
						</g>
						<rect x="532.9" y="354.8" class="st58" width="4.1" height="6.8"/>
						<rect x="532.9" y="367.1" class="st58" width="4.1" height="6.8"/>
						<polygon class="st58" points="532.8,386 536.8,386.2 537,379.3 532.9,379.3 						"/>
					</g>
				</g>
				<g>
					<g>
						<g>
							<rect x="513.9" y="315.4" class="st57" width="40.9" height="36.8"/>
						</g>
						<rect x="532.9" y="318.1" class="st58" width="4.1" height="6.8"/>
						<rect x="532.9" y="330.3" class="st58" width="4.1" height="6.8"/>
						<rect x="532.9" y="342.5" class="st58" width="4.1" height="6.8"/>
					</g>
				</g>
				<g>
					<g>
						<g>
							<rect x="513.9" y="278.6" class="st57" width="40.9" height="36.8"/>
						</g>
						<rect x="532.9" y="281.3" class="st58" width="4.1" height="6.8"/>
						<rect x="532.9" y="293.6" class="st58" width="4.1" height="6.8"/>
						<rect x="532.9" y="305.8" class="st58" width="4.1" height="6.8"/>
					</g>
				</g>
				<g>
					<g>
						<g>
							<path class="st57" d="M554.9,278.6v-18.4V258v-1.1c0-0.4,0-0.8,0-1.1l0.1-4l0-2c0-0.7,0.1-1.3,0.1-2l0.3-3.9l-40.8-3.9
								l-0.4,5.2c-0.1,0.9-0.1,1.7-0.2,2.6l-0.1,2.6l-0.1,5.2l0,4.7v18.4H554.9z"/>
						</g>
						<path class="st58" d="M533.1,251.4l4.1,0.1c0-1.1,0-2.2,0.1-3.3l0.3-3.3l-4.1-0.3l-0.3,3.4
							C533.1,249.1,533.1,250.2,533.1,251.4z"/>
						<rect x="532.9" y="256.8" class="st58" width="4.1" height="6.8"/>
						<rect x="532.9" y="269" class="st58" width="4.1" height="6.8"/>
					</g>
				</g>
				<g>
					<g>
						<g>
							<path class="st57" d="M555.5,243.9c1-10.5,3.4-20.8,6.9-30.8l-38.5-13.9c-4.7,13.2-7.8,26.9-9.2,40.8L555.5,243.9z"/>
						</g>
						<path class="st58" d="M538.8,214.8l3.9,1.1c0.3-1.1,0.6-2.2,0.9-3.2l1.1-3.2l-3.9-1.3l-1.1,3.3
							C539.4,212.6,539.1,213.7,538.8,214.8z"/>
						<path class="st58" d="M535.8,226.8l4,0.8c0.4-2.2,1-4.4,1.5-6.5l-4-1C536.9,222.3,536.3,224.5,535.8,226.8z"/>
						<path class="st58" d="M534,239l4.1,0.5l0.4-3.3c0.1-1.1,0.3-2.2,0.5-3.3l-4-0.7c-0.2,1.1-0.4,2.3-0.5,3.4L534,239z"/>
					</g>
				</g>
				<g>
					<g>
						<g>
							<path class="st57" d="M562.4,213.1c3.6-9.9,8.5-19.3,14.4-28.1L542.9,162c-7.8,11.6-14.2,24.1-19,37.2L562.4,213.1z"/>
						</g>
						<path class="st58" d="M553.5,180.8l3.5,2.1c1.1-2,2.4-3.8,3.5-5.7l-3.4-2.2C555.9,176.9,554.6,178.8,553.5,180.8z"/>
						<polygon class="st58" points="547.6,191.7 551.3,193.5 554.4,187.5 550.8,185.6 						"/>
						<path class="st58" d="M542.8,203l3.8,1.5c0.8-2.1,1.6-4.2,2.5-6.2l-3.8-1.6C544.4,198.7,543.6,200.9,542.8,203z"/>
					</g>
				</g>
				<g>
					<g>
						<g>
							<path class="st57" d="M576.7,185c1.6-2.1,3-4.3,4.7-6.4l2.4-3.1l2.6-3l1.3-1.5l1.4-1.4l2.7-2.9l2.9-2.7l1.4-1.4
								c0.5-0.4,1-0.9,1.5-1.3l-27.1-30.7c-0.7,0.6-1.3,1.1-2,1.7l-1.9,1.8l-3.8,3.6l-3.6,3.8l-1.8,1.9l-1.7,2l-3.4,4l-3.2,4.1
								c-2.2,2.7-4.1,5.6-6.2,8.4L576.7,185z"/>
						</g>
						<path class="st58" d="M576.1,151.5l2.9,2.9c1.6-1.6,3.2-3.1,4.8-4.6l-2.8-3C579.4,148.3,577.7,149.9,576.1,151.5z"/>
						<path class="st58" d="M567.8,160.6l3.1,2.6c1.5-1.7,2.9-3.4,4.4-5l-3-2.8C570.7,157.1,569.3,158.9,567.8,160.6z"/>
						<path class="st58" d="M560.2,170.4l3.3,2.4l1.9-2.7c0.7-0.9,1.4-1.8,2.1-2.6l-3.2-2.5c-0.7,0.9-1.4,1.8-2.1,2.7L560.2,170.4z"
							/>
					</g>
				</g>
				<g>
					<g>
						<g>
							<path class="st57" d="M597.6,161.3l3-2.6c1-0.8,2.1-1.6,3.1-2.5c2-1.7,4.2-3.1,6.4-4.7c4.4-2.9,8.9-5.7,13.6-8.1L605,107.1
								c-6.2,3.1-12.2,6.8-18,10.7c-2.8,2-5.7,4-8.4,6.2c-1.4,1.1-2.8,2.1-4.1,3.3l-4,3.4L597.6,161.3z"/>
						</g>
						<path class="st58" d="M605.2,128.7l2.1,3.5c1.9-1.1,3.9-2.3,5.8-3.3l-1.9-3.6C609.2,126.4,607.2,127.6,605.2,128.7z"/>
						<path class="st58" d="M594.9,135.5l2.4,3.3c1.8-1.3,3.6-2.6,5.5-3.8l-2.2-3.4C598.7,132.8,596.8,134.2,594.9,135.5z"/>
						<path class="st58" d="M585.2,143.1l2.7,3.1c1.7-1.5,3.5-2.8,5.2-4.2l-2.5-3.2C588.8,140.2,586.9,141.5,585.2,143.1z"/>
					</g>
				</g>
				<g>
					<g>
						<g>
							<path class="st57" d="M623.7,143.6c4.7-2.5,9.5-4.5,14.5-6.4l3.7-1.3l1.9-0.6l1.9-0.5l3.8-1.1c1.3-0.3,2.6-0.6,3.8-0.9
								l-9-39.9c-1.7,0.4-3.4,0.8-5.1,1.2l-5,1.4l-2.5,0.7l-2.5,0.8l-5,1.7c-6.5,2.5-13,5.1-19.2,8.4L623.7,143.6z"/>
						</g>
						<path class="st58" d="M639.1,113.8l1.2,3.9l3.2-0.9c1.1-0.3,2.1-0.6,3.2-0.8l-1-4c-1.1,0.2-2.2,0.5-3.3,0.9L639.1,113.8z"/>
						<path class="st58" d="M627.5,117.8l1.5,3.8c1-0.4,2.1-0.8,3.1-1.2l3.2-1.1l-1.3-3.9l-3.3,1.1
							C629.6,117,628.5,117.4,627.5,117.8z"/>
						<path class="st58" d="M616.2,122.8l1.8,3.7c2-1,4.1-1.9,6.1-2.8l-1.6-3.8C620.3,120.9,618.2,121.7,616.2,122.8z"/>
					</g>
				</g>
				<g>
					<g>
						<g>
							<path class="st57" d="M653.3,132.8c2.6-0.7,5.2-1,7.8-1.5c1.3-0.3,2.6-0.4,3.9-0.5c1.3-0.2,2.6-0.4,3.9-0.5l3.9-0.3l2-0.2
								l2,0l4-0.1c0.6,0,1.5,0,2.2,0h2.3V88.7H683c-0.8,0-1.5,0-2.4,0l-5.2,0.1l-2.6,0.1l-2.6,0.2l-5.2,0.4
								c-1.7,0.2-3.5,0.4-5.2,0.6c-1.7,0.2-3.5,0.4-5.2,0.7c-3.4,0.6-6.9,1.2-10.3,2L653.3,132.8z"/>
						</g>
						<path class="st58" d="M675.7,107.8l0.2,4.1c2.2,0,4.4-0.1,6.7-0.1v-4.1C680.3,107.7,677.9,107.8,675.7,107.8z"/>
						<path class="st58" d="M663.3,108.8l0.5,4.1c1.1-0.1,2.2-0.3,3.3-0.4l3.3-0.3l-0.3-4.1l-3.4,0.3
							C665.6,108.5,664.5,108.7,663.3,108.8z"/>
						<polygon class="st58" points="651.2,110.8 652,114.8 658.6,113.6 658,109.6 						"/>
					</g>
				</g>
				<g>
					<g>
						<g>
							<path class="st57" d="M685.2,129.6h18.4h4.6l1.1,0l1,0l2,0.1c1.3,0,2.6,0,4,0.1l3.9,0.3l3.5-40.8l-5.2-0.4
								c-1.7-0.1-3.5-0.1-5.2-0.2l-2.6-0.1l-1.3,0l-1.2,0h-4.6h-18.4V129.6z"/>
						</g>
						<path class="st58" d="M712.5,107.8l-0.1,4.1c2.2,0.1,4.5,0.1,6.7,0.3l0.3-4.1C717.1,107.9,714.8,107.8,712.5,107.8z"/>
						<rect x="700.2" y="107.7" class="st58" width="6.8" height="4.1"/>
						<rect x="688" y="107.7" class="st58" width="6.8" height="4.1"/>
					</g>
				</g>
				<g>
					<g>
						<g>
							<path class="st57" d="M720.2,130.1c10.5,0.8,20.9,3.1,30.8,6.6l13.5-38.7c-13.2-4.6-26.9-7.6-40.9-8.7L720.2,130.1z"/>
						</g>
						<path class="st58" d="M749.1,113.1l-1.1,3.9c2.1,0.6,4.3,1.2,6.4,1.9l1.3-3.9C753.5,114.3,751.3,113.8,749.1,113.1z"/>
						<path class="st58" d="M737.1,110.3l-0.8,4c2.2,0.3,4.4,0.9,6.5,1.4l0.9-4C741.6,111.3,739.4,110.7,737.1,110.3z"/>
						<polygon class="st58" points="724.9,108.5 724.5,112.6 731.1,113.4 731.7,109.4 						"/>
					</g>
				</g>
				<g>
					<g>
						<g>
							<path class="st57" d="M751.1,136.7l1.9,0.6l1.8,0.7l3.7,1.4l3.6,1.6c1.2,0.5,2.4,1.1,3.6,1.7l3.5,1.8c1.2,0.6,2.3,1.3,3.4,2
								c2.3,1.3,4.5,2.7,6.7,4.2l22.7-34.1c-2.9-1.9-5.8-3.8-8.9-5.5c-1.5-0.9-3-1.8-4.6-2.6l-4.7-2.4c-1.5-0.8-3.1-1.5-4.7-2.3
								l-4.8-2.1l-4.9-1.9l-2.4-1l-2.5-0.9L751.1,136.7z"/>
						</g>
						<polygon class="st58" points="783.2,127.4 781.2,131 784.1,132.7 786.9,134.5 789.1,131 786.2,129.2 						"/>
						<path class="st58" d="M772.3,121.7l-1.7,3.7c1,0.4,2,0.9,3,1.5l3,1.5l1.9-3.6l-3.1-1.6C774.4,122.7,773.4,122.2,772.3,121.7z"
							/>
						<polygon class="st58" points="761,116.9 759.5,120.8 765.8,123.3 767.4,119.5 						"/>
					</g>
				</g>
				<g>
					<g>
						<g>
							<path class="st57" d="M779.3,150.7c1.1,0.7,2.2,1.5,3.2,2.3c1.1,0.8,2.2,1.5,3.2,2.3c2.1,1.6,4.2,3.2,6.1,5
								c4,3.4,7.7,7.2,11.3,11l30.4-27.5c-4.7-5.1-9.6-10.1-15-14.6c-2.6-2.3-5.4-4.4-8.1-6.6c-1.4-1.1-2.8-2.1-4.2-3.1
								c-1.4-1-2.8-2.1-4.3-3L779.3,150.7z"/>
						</g>
						<path class="st58" d="M812.8,149.7l-2.9,2.9c1.7,1.5,3.1,3.2,4.7,4.8l3-2.8C816,153,814.5,151.3,812.8,149.7z"/>
						<polygon class="st58" points="803.6,141.5 801,144.6 806.1,149 808.8,146 						"/>
						<path class="st58" d="M793.8,134.1l-2.3,3.4l2.7,1.9c0.9,0.6,1.8,1.3,2.7,2l2.5-3.3c-0.9-0.7-1.8-1.4-2.8-2.1L793.8,134.1z"/>
					</g>
				</g>
				<g>
					<g>
						<g>
							<path class="st57" d="M803.2,171.4l2.6,3c0.4,0.5,0.9,1,1.3,1.5l1.2,1.6l2.4,3.1l2.3,3.2l1.2,1.6l1.1,1.7l2.1,3.3l2,3.4
								c0.7,1.1,1.3,2.3,1.9,3.5l36.2-19.1c-0.8-1.6-1.6-3.1-2.5-4.6c-0.9-1.5-1.7-3-2.6-4.5l-2.8-4.4l-1.4-2.2l-1.5-2.1l-3-4.3
								l-3.2-4.1l-1.6-2.1c-0.5-0.7-1.1-1.3-1.7-2l-3.4-4L803.2,171.4z"/>
						</g>
						<path class="st58" d="M835.9,178.6l-3.5,2.1c1.2,1.9,2.2,3.9,3.4,5.8l3.6-2C838.2,182.6,837.1,180.6,835.9,178.6z"/>
						<path class="st58" d="M829,168.4l-3.3,2.4c1.3,1.8,2.6,3.6,3.8,5.5l3.4-2.3C831.7,172.1,830.3,170.3,829,168.4z"/>
						<path class="st58" d="M821.3,158.8l-3.1,2.7l2.2,2.5c0.7,0.9,1.4,1.7,2.1,2.6l3.2-2.5c-0.7-0.9-1.4-1.8-2.1-2.7L821.3,158.8z"
							/>
					</g>
				</g>
				<g>
					<g>
						<g>
							<path class="st57" d="M821.3,197.2c4.9,9.3,8.7,19.2,11.1,29.5l39.8-9.5c-3.2-13.6-8.2-26.8-14.7-39.1L821.3,197.2z"/>
						</g>
						<polygon class="st58" points="851.2,212.4 847.3,213.6 849.1,220 853.1,219 						"/>
						<path class="st58" d="M847,200.7l-3.8,1.5c0.8,2.1,1.7,4.1,2.4,6.3l3.9-1.4C848.8,205,847.9,202.9,847,200.7z"/>
						<path class="st58" d="M842,189.5l-3.7,1.8c1.1,2,1.9,4,2.9,6.1l3.7-1.7C844,193.6,843,191.5,842,189.5z"/>
					</g>
				</g>
				<g>
					<g>
						<g>
							<path class="st57" d="M832.4,226.7l0.9,3.8l0.7,3.9c0.5,2.6,0.8,5.2,1.1,7.8c0.2,1.3,0.2,2.6,0.3,3.9
								c0.1,1.3,0.2,2.6,0.3,3.9l0.1,4l0.1,2v2.3h40.9v-2.3l-0.1-2.6l-0.1-5.2c-0.1-1.7-0.2-3.5-0.4-5.2c-0.2-1.7-0.2-3.5-0.5-5.2
								c-0.5-3.5-0.8-6.9-1.5-10.4l-0.9-5.2l-1.2-5.1L832.4,226.7z"/>
						</g>
						<polygon class="st58" points="857.6,248.8 853.5,249 853.7,255.7 857.7,255.7 						"/>
						<path class="st58" d="M856.4,236.5l-4.1,0.5c0.3,2.2,0.6,4.4,0.7,6.7l4.1-0.3C857,241.1,856.7,238.8,856.4,236.5z"/>
						<polygon class="st58" points="854.3,224.4 850.3,225.3 850.7,226.9 851,228.6 851.6,231.8 855.6,231.2 855,227.8 854.7,226.1 
													"/>
					</g>
				</g>
				<g>
					<g>
						<g>
							<rect x="835.8" y="258.4" class="st57" width="40.9" height="36.8"/>
						</g>
						<rect x="853.7" y="285.6" class="st58" width="4.1" height="6.8"/>
						<rect x="853.7" y="273.4" class="st58" width="4.1" height="6.8"/>
						<rect x="853.7" y="261.2" class="st58" width="4.1" height="6.8"/>
					</g>
				</g>
				<g>
					<g>
						<g>
							<rect x="835.8" y="295.2" class="st57" width="40.9" height="36.8"/>
						</g>
						<rect x="853.7" y="322.4" class="st58" width="4.1" height="6.8"/>
						<rect x="853.7" y="310.2" class="st58" width="4.1" height="6.8"/>
						<rect x="853.7" y="298" class="st58" width="4.1" height="6.8"/>
					</g>
				</g>
				<g>
					<g>
						<g>
							<rect x="835.8" y="331.9" class="st57" width="40.9" height="36.8"/>
						</g>
						<rect x="853.7" y="359.2" class="st58" width="4.1" height="6.8"/>
						<rect x="853.7" y="346.9" class="st58" width="4.1" height="6.8"/>
						<rect x="853.7" y="334.7" class="st58" width="4.1" height="6.8"/>
					</g>
				</g>
				<g>
					<g>
						<g>
							<rect x="835.8" y="368.7" class="st57" width="40.9" height="36.8"/>
						</g>
						<rect x="853.7" y="395.9" class="st58" width="4.1" height="6.8"/>
						<rect x="853.7" y="383.7" class="st58" width="4.1" height="6.8"/>
						<rect x="853.7" y="371.5" class="st58" width="4.1" height="6.8"/>
					</g>
				</g>
				<g>
					<g>
						<g>
							<rect x="835.8" y="405.4" class="st57" width="40.9" height="36.8"/>
						</g>
						<rect x="853.7" y="432.7" class="st58" width="4.1" height="6.8"/>
						<rect x="853.7" y="420.4" class="st58" width="4.1" height="6.8"/>
						<rect x="853.7" y="408.2" class="st58" width="4.1" height="6.8"/>
					</g>
				</g>
				<g>
					<g>
						<g>
							<rect x="835.8" y="442.2" class="st57" width="40.9" height="36.8"/>
						</g>
						<rect x="853.7" y="469.4" class="st58" width="4.1" height="6.8"/>
						<rect x="853.7" y="457.2" class="st58" width="4.1" height="6.8"/>
						<rect x="853.7" y="445" class="st58" width="4.1" height="6.8"/>
					</g>
				</g>
				<g>
					<g>
						<g>
							<rect x="835.8" y="478.9" class="st57" width="40.9" height="36.8"/>
						</g>
						<rect x="853.7" y="506.2" class="st58" width="4.1" height="6.8"/>
						<rect x="853.7" y="493.9" class="st58" width="4.1" height="6.8"/>
						<rect x="853.7" y="481.7" class="st58" width="4.1" height="6.8"/>
					</g>
				</g>
				<g>
					<g>
						<g>
							<rect x="835.8" y="515.7" class="st57" width="40.9" height="36.8"/>
						</g>
						<rect x="853.7" y="542.9" class="st58" width="4.1" height="6.8"/>
						<rect x="853.7" y="530.7" class="st58" width="4.1" height="6.8"/>
						<rect x="853.7" y="518.5" class="st58" width="4.1" height="6.8"/>
					</g>
				</g>
				<g>
					<g>
						<g>
							<rect x="835.8" y="552.4" class="st57" width="40.9" height="36.8"/>
						</g>
						<rect x="853.7" y="579.7" class="st58" width="4.1" height="6.8"/>
						<rect x="853.7" y="567.4" class="st58" width="4.1" height="6.8"/>
						<rect x="853.7" y="555.2" class="st58" width="4.1" height="6.8"/>
					</g>
				</g>
				<g>
					<g>
						<g>
							<rect x="835.8" y="589.2" class="st57" width="40.9" height="36.8"/>
						</g>
						<rect x="853.7" y="592" class="st58" width="4.1" height="6.8"/>
					</g>
				</g>
			</g>
		</g>
	</g>
	<g>
		<circle class="st36" cx="224.7" cy="149.4" r="8.9"/>
		<circle class="st35" cx="224.7" cy="149.4" r="11.8"/>
	</g>
	<g>
		<circle class="st36" cx="224.7" cy="395.3" r="8.9"/>
		<circle class="st35" cx="224.7" cy="395.3" r="11.8"/>
	</g>
	<g>
		<circle class="st36" cx="383.2" cy="526.8" r="8.9"/>
		<circle class="st35" cx="383.2" cy="526.8" r="11.8"/>
	</g>
	<g>
		<circle class="st36" cx="531.6" cy="394.7" r="8.9"/>
		<circle class="st35" cx="531.6" cy="394.7" r="11.8"/>
	</g>
	<g>
		<circle class="st36" cx="575.4" cy="154.7" r="8.9"/>
		<circle class="st35" cx="575.4" cy="154.7" r="11.8"/>
	</g>
	<g>
		<circle class="st36" cx="803.5" cy="143.8" r="8.9"/>
		<circle class="st35" cx="803.5" cy="143.8" r="11.8"/>
	</g>
	<g>
		<circle class="st36" cx="856.3" cy="473.4" r="8.9"/>
		<circle class="st35" cx="856.3" cy="473.4" r="11.8"/>
	</g>
	<g class="st50">
		<path class="st60" d="M486.5,224.5h-228c-6.1,0-11-5-11-11v-59.2c0-6.1,5-11,11-11h228c6.1,0,11,5,11,11v59.2
			C497.5,219.6,492.5,224.5,486.5,224.5z"/>
		<rect x="263.9" y="149.4" class="st61" width="228.1" height="75.2"/>
		<text transform="matrix(1 0 0 1 263.9367 158.4232)" class="st14"><tspan x="0" y="0" class="st62 st63 st64">The develop ment of the 787 starts </tspan><tspan x="0" y="14.4" class="st62 st63 st64">during the late </tspan><tspan x="83.9" y="14.4" class="st1 st65 st64">1990</tspan><tspan x="114.9" y="14.4" class="st62 st63 st64">s when Boeing </tspan><tspan x="0" y="28.8" class="st62 st63 st64">proposed a new aircraft called the sonic</tspan><tspan x="219.7" y="28.8" class="st62 st63 st64">-</tspan><tspan x="0" y="43.2" class="st62 st63 st64">cruiser which many american airlines </tspan><tspan x="0" y="57.6" class="st62 st63 st64">showed interest in. </tspan></text>
	</g>
	<rect x="101.2" y="143.3" class="st57" width="114.6" height="17.9"/>
	<text transform="matrix(1 0 0 1 101.1796 156.8912)" class="st66 st67">1990-2000</text>
	<rect x="110.1" y="386.4" class="st57" width="114.6" height="17.9"/>
	<text transform="matrix(1 0 0 1 110.077 399.99)" class="st66 st67">2001-2002</text>
	<rect x="367.9" y="559.5" class="st57" width="48.5" height="17.9"/>
	<text transform="matrix(1 0 0 1 367.8568 573.1337)" class="st66 st67">2003</text>
	<rect x="556.2" y="390.9" class="st57" width="48.5" height="17.9"/>
	<text transform="matrix(1 0 0 1 556.1793 404.5483)" class="st66 st67">2004</text>
	<rect x="604.6" y="149.3" class="st57" width="48.5" height="17.9"/>
	<text transform="matrix(1 0 0 1 604.6345 162.927)" class="st66 st67">2007</text>
	<rect x="829.7" y="137.8" class="st57" width="48.5" height="17.9"/>
	<text transform="matrix(1 0 0 1 829.6907 151.3636)" class="st66 st67">2009</text>
	<rect x="882.5" y="464.5" class="st57" width="48.5" height="17.9"/>
	<text transform="matrix(1 0 0 1 882.5236 478.0612)" class="st66 st67">2011</text>
	<polygon class="st57" points="931.2,88 291.6,88 363,30.4 1002.7,30.4 	"/>
	<text transform="matrix(0.9099 0 -0.5262 0.8503 327.7004 82.2559)" class="st68 st69 st70 st71">BACKGROUND</text>
	<g class="st50">
		<path class="st72" d="M495.4,467.9H267.9c-6.2,0-11.3-5.1-11.3-11.3v-63c0-6.2,5.1-11.3,11.3-11.3h227.4c6.2,0,11.3,5.1,11.3,11.3
			v63C506.7,462.8,501.6,467.9,495.4,467.9z"/>
		<rect x="264.5" y="390.9" class="st61" width="234.3" height="69.9"/>
		<text transform="matrix(1 0 0 1 264.4818 400.0138)" class="st14"><tspan x="0" y="0" class="st62 st63 st64">On</tspan><tspan x="17.2" y="0" class="st1 st65 st64"> April 26 2004</tspan><tspan x="101.2" y="0" class="st62 st63 st64">, The Japanese airline </tspan><tspan x="0" y="14.4" class="st62 st63 st64">All Nippon Airways became the first cu</tspan><tspan x="218.8" y="14.4" class="st62 st63 st64">-</tspan><tspan x="0" y="28.8" class="st62 st63 st64">tomer for the 787, announcing an order </tspan><tspan x="0" y="43.2" class="st62 st63 st64">for 50 aircraft with deliveries to begin in </tspan><tspan x="0" y="57.6" class="st62 st63 st64">late 2008.</tspan></text>
	</g>
	<g class="st50">
		<path class="st76" d="M820.5,574.4h-224c-7.2,0-13-5.9-13-13v-87.5c0-7.2,5.9-13,13-13h224c7.2,0,13,5.9,13,13v87.5
			C833.5,568.5,827.7,574.4,820.5,574.4z"/>
		<rect x="591.4" y="468" class="st61" width="234.3" height="103.7"/>
		<text transform="matrix(1 0 0 1 591.3561 477.0922)" class="st14"><tspan x="0" y="0" class="st1 st65 st64">September 25 2011</tspan><tspan x="117.2" y="0" class="st62 st63 st64">, the first Boeing 787 </tspan><tspan x="0" y="14.4" class="st62 st63 st64">was delivered to All Nippon Airways, 2 </tspan><tspan x="0" y="28.8" class="st62 st63 st64">days later flying to Haneda Airport. Its </tspan><tspan x="0" y="43.2" class="st62 st63 st64">first commercial flight was on October 26 </tspan><tspan x="0" y="57.6" class="st62 st63 st64">2011, flying from Narita International </tspan><tspan x="0" y="72" class="st62 st63 st64">airport to Hong Kong international </tspan><tspan x="0" y="86.4" class="st62 st63 st64">Airport.</tspan></text>
	</g>
</g>
<g id="Credits">
</g>
<g id="Layer_4">
	<g class="st50">
		<path class="st94" d="M212.4,101.1c0.2,0.3,0.3,4.1,0,4.4c-1.4,2.5-5,1.7-5.4,0c-0.5-1.3,0.1-6.7,0.2-7.4
			C207.4,97.7,212.1,100.8,212.4,101.1z"/>
		<path class="st94" d="M237.1,100.8c-0.2,0.3-0.3,4.1,0,4.4c1.4,2.5,5,1.7,5.4,0c0.5-1.3-0.1-6.7-0.2-7.4
			C242,97.5,237.3,100.6,237.1,100.8z"/>
		<path class="st94" d="M220.3,105.7c0,0-37.5-21.9-38.2-22.3c-4.6-3.7-4.7-6.7-4.7-6.7s1.3,2,6.1,3.9c2.2,0.9,17.5,7.2,25.2,8.2
			c1.4,0,9.1-0.1,11-0.3c0.1-0.4,0.7-3.7,0.7-3.7V105.7z"/>
		<path class="st94" d="M229.1,105.5c0,0,37.5-21.9,38.2-22.3c4.6-3.7,4.7-6.7,4.7-6.7s-1.3,2-6.1,3.9c-2.2,0.9-17.5,7.2-25.2,8.2
			c-1.4,0-9.1-0.1-11-0.3c-0.1-0.4-0.7-3.7-0.7-3.7V105.5z"/>
		<path class="st94" d="M224.6,135.3c-1.1,0-3.4-2.7-4.2-9.6c0-0.8-0.2-54.6,0-56.6c0.2-3.5,1.4-7.9,1.4-8.2
			c-0.4-1.6-10.2-8.1-12.1-9.6c-0.2-0.3-1-2.7-0.8-3.3c7,2.6,13.8,4.4,14.4,4.4c0.2-0.1,0.8-3,1.2-4.3c0.1-0.2,0.4-0.2,0.5,0
			l1.3,4.5c0,0,6.4-2,14.3-4.7c-0.1,0.5,0,2.6-0.5,3.1c-0.3,0.2-12.4,7.9-12.4,9.8c-0.1,0.4,0.8,4.5,1.3,7.5
			c0.1,0.6,0.1,1.2,0.1,1.8c0,7.1-0.2,54.2-0.2,55.5C228.5,131.7,225.6,135.3,224.6,135.3z"/>
	</g>
</g>
<g id="Development">
</g>
<g id="Operations">
</g>
<g id="Title">
</g>
</svg>
